<svg width="168" height="28" viewBox="0 0 168 28" fill="none" xmlns="http://www.w3.org/2000/svg">
<mask id="path-1-outside-1_1_22" maskUnits="userSpaceOnUse" x="-0.694824" y="-1" width="169" height="29" fill="black">
<rect fill="white" x="-0.694824" y="-1" width="169" height="29"/>
<path d="M9.46518 27.252C7.71318 27.252 6.12918 26.952 4.71318 26.352C3.32118 25.752 2.21718 24.888 1.40118 23.76C0.585176 22.632 0.165176 21.3 0.141176 19.764H5.54118C5.61318 20.796 5.97318 21.612 6.62118 22.212C7.29318 22.812 8.20518 23.112 9.35718 23.112C10.5332 23.112 11.4572 22.836 12.1292 22.284C12.8012 21.708 13.1372 20.964 13.1372 20.052C13.1372 19.308 12.9092 18.696 12.4532 18.216C11.9972 17.736 11.4212 17.364 10.7252 17.1C10.0532 16.812 9.11718 16.5 7.91718 16.164C6.28518 15.684 4.95318 15.216 3.92118 14.76C2.91318 14.28 2.03718 13.572 1.29318 12.636C0.573176 11.676 0.213176 10.404 0.213176 8.82C0.213176 7.332 0.585176 6.036 1.32918 4.932C2.07318 3.828 3.11718 2.988 4.46118 2.412C5.80518 1.812 7.34118 1.512 9.06918 1.512C11.6612 1.512 13.7612 2.148 15.3692 3.42C17.0012 4.668 17.9012 6.42 18.0692 8.676H12.5252C12.4772 7.812 12.1052 7.104 11.4092 6.552C10.7372 5.976 9.83718 5.688 8.70918 5.688C7.72518 5.688 6.93318 5.94 6.33318 6.444C5.75718 6.948 5.46918 7.68 5.46918 8.64C5.46918 9.312 5.68518 9.876 6.11718 10.332C6.57318 10.764 7.12518 11.124 7.77318 11.412C8.44518 11.676 9.38118 11.988 10.5812 12.348C12.2132 12.828 13.5452 13.308 14.5772 13.788C15.6092 14.268 16.4972 14.988 17.2412 15.948C17.9852 16.908 18.3572 18.168 18.3572 19.728C18.3572 21.072 18.0092 22.32 17.3132 23.472C16.6172 24.624 15.5972 25.548 14.2532 26.244C12.9092 26.916 11.3132 27.252 9.46518 27.252ZM21.4307 17.028C21.4307 14.964 21.8507 13.164 22.6907 11.628C23.5307 10.068 24.6947 8.868 26.1827 8.028C27.6707 7.164 29.3747 6.732 31.2947 6.732C33.7667 6.732 35.8067 7.356 37.4147 8.604C39.0467 9.828 40.1387 11.556 40.6907 13.788H35.2547C34.9667 12.924 34.4747 12.252 33.7787 11.772C33.1067 11.268 32.2667 11.016 31.2587 11.016C29.8187 11.016 28.6787 11.544 27.8387 12.6C26.9987 13.632 26.5787 15.108 26.5787 17.028C26.5787 18.924 26.9987 20.4 27.8387 21.456C28.6787 22.488 29.8187 23.004 31.2587 23.004C33.2987 23.004 34.6307 22.092 35.2547 20.268H40.6907C40.1387 22.428 39.0467 24.144 37.4147 25.416C35.7827 26.688 33.7427 27.324 31.2947 27.324C29.3747 27.324 27.6707 26.904 26.1827 26.064C24.6947 25.2 23.5307 24 22.6907 22.464C21.8507 20.904 21.4307 19.092 21.4307 17.028ZM55.6149 6.768C57.1269 6.768 58.4709 7.104 59.6469 7.776C60.8229 8.424 61.7349 9.396 62.3829 10.692C63.0549 11.964 63.3909 13.5 63.3909 15.3V27H58.3509V15.984C58.3509 14.4 57.9549 13.188 57.1629 12.348C56.3709 11.484 55.2909 11.052 53.9229 11.052C52.5309 11.052 51.4269 11.484 50.6109 12.348C49.8189 13.188 49.4229 14.4 49.4229 15.984V27H44.3829V0.36H49.4229V9.54C50.0709 8.676 50.9349 8.004 52.0149 7.524C53.0949 7.02 54.2949 6.768 55.6149 6.768ZM86.7237 16.596C86.7237 17.316 86.6757 17.964 86.5797 18.54H71.9997C72.1197 19.98 72.6237 21.108 73.5117 21.924C74.3997 22.74 75.4917 23.148 76.7877 23.148C78.6597 23.148 79.9917 22.344 80.7837 20.736H86.2197C85.6437 22.656 84.5397 24.24 82.9077 25.488C81.2757 26.712 79.2717 27.324 76.8957 27.324C74.9757 27.324 73.2477 26.904 71.7117 26.064C70.1997 25.2 69.0117 23.988 68.1477 22.428C67.3077 20.868 66.8877 19.068 66.8877 17.028C66.8877 14.964 67.3077 13.152 68.1477 11.592C68.9877 10.032 70.1637 8.832 71.6757 7.992C73.1877 7.152 74.9277 6.732 76.8957 6.732C78.7917 6.732 80.4837 7.14 81.9717 7.956C83.4837 8.772 84.6477 9.936 85.4637 11.448C86.3037 12.936 86.7237 14.652 86.7237 16.596ZM81.5037 15.156C81.4797 13.86 81.0117 12.828 80.0997 12.06C79.1877 11.268 78.0717 10.872 76.7517 10.872C75.5037 10.872 74.4477 11.256 73.5837 12.024C72.7437 12.768 72.2277 13.812 72.0357 15.156H81.5037ZM89.1065 16.956C89.1065 14.94 89.5025 13.152 90.2945 11.592C91.1105 10.032 92.2145 8.832 93.6065 7.992C94.9985 7.152 96.5465 6.732 98.2505 6.732C99.5465 6.732 100.782 7.02 101.958 7.596C103.134 8.148 104.07 8.892 104.766 9.828V0.36H109.878V27H104.766V24.048C104.142 25.032 103.266 25.824 102.138 26.424C101.01 27.024 99.7025 27.324 98.2145 27.324C96.5345 27.324 94.9985 26.892 93.6065 26.028C92.2145 25.164 91.1105 23.952 90.2945 22.392C89.5025 20.808 89.1065 18.996 89.1065 16.956ZM104.802 17.028C104.802 15.804 104.562 14.76 104.082 13.896C103.602 13.008 102.954 12.336 102.138 11.88C101.322 11.4 100.446 11.16 99.5105 11.16C98.5745 11.16 97.7105 11.388 96.9185 11.844C96.1265 12.3 95.4785 12.972 94.9745 13.86C94.4945 14.724 94.2545 15.756 94.2545 16.956C94.2545 18.156 94.4945 19.212 94.9745 20.124C95.4785 21.012 96.1265 21.696 96.9185 22.176C97.7345 22.656 98.5985 22.896 99.5105 22.896C100.446 22.896 101.322 22.668 102.138 22.212C102.954 21.732 103.602 21.06 104.082 20.196C104.562 19.308 104.802 18.252 104.802 17.028ZM133.629 7.056V27H128.553V24.48C127.905 25.344 127.053 26.028 125.997 26.532C124.965 27.012 123.837 27.252 122.613 27.252C121.053 27.252 119.673 26.928 118.473 26.28C117.273 25.608 116.325 24.636 115.629 23.364C114.957 22.068 114.621 20.532 114.621 18.756V7.056H119.661V18.036C119.661 19.62 120.057 20.844 120.849 21.708C121.641 22.548 122.721 22.968 124.089 22.968C125.481 22.968 126.573 22.548 127.365 21.708C128.157 20.844 128.553 19.62 128.553 18.036V7.056H133.629ZM143.642 0.36V27H138.602V0.36H143.642ZM167.161 16.596C167.161 17.316 167.113 17.964 167.017 18.54H152.437C152.557 19.98 153.061 21.108 153.949 21.924C154.837 22.74 155.929 23.148 157.225 23.148C159.097 23.148 160.429 22.344 161.221 20.736H166.657C166.081 22.656 164.977 24.24 163.345 25.488C161.713 26.712 159.709 27.324 157.333 27.324C155.413 27.324 153.685 26.904 152.149 26.064C150.637 25.2 149.449 23.988 148.585 22.428C147.745 20.868 147.325 19.068 147.325 17.028C147.325 14.964 147.745 13.152 148.585 11.592C149.425 10.032 150.601 8.832 152.113 7.992C153.625 7.152 155.365 6.732 157.333 6.732C159.229 6.732 160.921 7.14 162.409 7.956C163.921 8.772 165.085 9.936 165.901 11.448C166.741 12.936 167.161 14.652 167.161 16.596ZM161.941 15.156C161.917 13.86 161.449 12.828 160.537 12.06C159.625 11.268 158.509 10.872 157.189 10.872C155.941 10.872 154.885 11.256 154.021 12.024C153.181 12.768 152.665 13.812 152.473 15.156H161.941Z"/>
</mask>
<path d="M9.46518 27.252C7.71318 27.252 6.12918 26.952 4.71318 26.352C3.32118 25.752 2.21718 24.888 1.40118 23.76C0.585176 22.632 0.165176 21.3 0.141176 19.764H5.54118C5.61318 20.796 5.97318 21.612 6.62118 22.212C7.29318 22.812 8.20518 23.112 9.35718 23.112C10.5332 23.112 11.4572 22.836 12.1292 22.284C12.8012 21.708 13.1372 20.964 13.1372 20.052C13.1372 19.308 12.9092 18.696 12.4532 18.216C11.9972 17.736 11.4212 17.364 10.7252 17.1C10.0532 16.812 9.11718 16.5 7.91718 16.164C6.28518 15.684 4.95318 15.216 3.92118 14.76C2.91318 14.28 2.03718 13.572 1.29318 12.636C0.573176 11.676 0.213176 10.404 0.213176 8.82C0.213176 7.332 0.585176 6.036 1.32918 4.932C2.07318 3.828 3.11718 2.988 4.46118 2.412C5.80518 1.812 7.34118 1.512 9.06918 1.512C11.6612 1.512 13.7612 2.148 15.3692 3.42C17.0012 4.668 17.9012 6.42 18.0692 8.676H12.5252C12.4772 7.812 12.1052 7.104 11.4092 6.552C10.7372 5.976 9.83718 5.688 8.70918 5.688C7.72518 5.688 6.93318 5.94 6.33318 6.444C5.75718 6.948 5.46918 7.68 5.46918 8.64C5.46918 9.312 5.68518 9.876 6.11718 10.332C6.57318 10.764 7.12518 11.124 7.77318 11.412C8.44518 11.676 9.38118 11.988 10.5812 12.348C12.2132 12.828 13.5452 13.308 14.5772 13.788C15.6092 14.268 16.4972 14.988 17.2412 15.948C17.9852 16.908 18.3572 18.168 18.3572 19.728C18.3572 21.072 18.0092 22.32 17.3132 23.472C16.6172 24.624 15.5972 25.548 14.2532 26.244C12.9092 26.916 11.3132 27.252 9.46518 27.252ZM21.4307 17.028C21.4307 14.964 21.8507 13.164 22.6907 11.628C23.5307 10.068 24.6947 8.868 26.1827 8.028C27.6707 7.164 29.3747 6.732 31.2947 6.732C33.7667 6.732 35.8067 7.356 37.4147 8.604C39.0467 9.828 40.1387 11.556 40.6907 13.788H35.2547C34.9667 12.924 34.4747 12.252 33.7787 11.772C33.1067 11.268 32.2667 11.016 31.2587 11.016C29.8187 11.016 28.6787 11.544 27.8387 12.6C26.9987 13.632 26.5787 15.108 26.5787 17.028C26.5787 18.924 26.9987 20.4 27.8387 21.456C28.6787 22.488 29.8187 23.004 31.2587 23.004C33.2987 23.004 34.6307 22.092 35.2547 20.268H40.6907C40.1387 22.428 39.0467 24.144 37.4147 25.416C35.7827 26.688 33.7427 27.324 31.2947 27.324C29.3747 27.324 27.6707 26.904 26.1827 26.064C24.6947 25.2 23.5307 24 22.6907 22.464C21.8507 20.904 21.4307 19.092 21.4307 17.028ZM55.6149 6.768C57.1269 6.768 58.4709 7.104 59.6469 7.776C60.8229 8.424 61.7349 9.396 62.3829 10.692C63.0549 11.964 63.3909 13.5 63.3909 15.3V27H58.3509V15.984C58.3509 14.4 57.9549 13.188 57.1629 12.348C56.3709 11.484 55.2909 11.052 53.9229 11.052C52.5309 11.052 51.4269 11.484 50.6109 12.348C49.8189 13.188 49.4229 14.4 49.4229 15.984V27H44.3829V0.36H49.4229V9.54C50.0709 8.676 50.9349 8.004 52.0149 7.524C53.0949 7.02 54.2949 6.768 55.6149 6.768ZM86.7237 16.596C86.7237 17.316 86.6757 17.964 86.5797 18.54H71.9997C72.1197 19.98 72.6237 21.108 73.5117 21.924C74.3997 22.74 75.4917 23.148 76.7877 23.148C78.6597 23.148 79.9917 22.344 80.7837 20.736H86.2197C85.6437 22.656 84.5397 24.24 82.9077 25.488C81.2757 26.712 79.2717 27.324 76.8957 27.324C74.9757 27.324 73.2477 26.904 71.7117 26.064C70.1997 25.2 69.0117 23.988 68.1477 22.428C67.3077 20.868 66.8877 19.068 66.8877 17.028C66.8877 14.964 67.3077 13.152 68.1477 11.592C68.9877 10.032 70.1637 8.832 71.6757 7.992C73.1877 7.152 74.9277 6.732 76.8957 6.732C78.7917 6.732 80.4837 7.14 81.9717 7.956C83.4837 8.772 84.6477 9.936 85.4637 11.448C86.3037 12.936 86.7237 14.652 86.7237 16.596ZM81.5037 15.156C81.4797 13.86 81.0117 12.828 80.0997 12.06C79.1877 11.268 78.0717 10.872 76.7517 10.872C75.5037 10.872 74.4477 11.256 73.5837 12.024C72.7437 12.768 72.2277 13.812 72.0357 15.156H81.5037ZM89.1065 16.956C89.1065 14.94 89.5025 13.152 90.2945 11.592C91.1105 10.032 92.2145 8.832 93.6065 7.992C94.9985 7.152 96.5465 6.732 98.2505 6.732C99.5465 6.732 100.782 7.02 101.958 7.596C103.134 8.148 104.07 8.892 104.766 9.828V0.36H109.878V27H104.766V24.048C104.142 25.032 103.266 25.824 102.138 26.424C101.01 27.024 99.7025 27.324 98.2145 27.324C96.5345 27.324 94.9985 26.892 93.6065 26.028C92.2145 25.164 91.1105 23.952 90.2945 22.392C89.5025 20.808 89.1065 18.996 89.1065 16.956ZM104.802 17.028C104.802 15.804 104.562 14.76 104.082 13.896C103.602 13.008 102.954 12.336 102.138 11.88C101.322 11.4 100.446 11.16 99.5105 11.16C98.5745 11.16 97.7105 11.388 96.9185 11.844C96.1265 12.3 95.4785 12.972 94.9745 13.86C94.4945 14.724 94.2545 15.756 94.2545 16.956C94.2545 18.156 94.4945 19.212 94.9745 20.124C95.4785 21.012 96.1265 21.696 96.9185 22.176C97.7345 22.656 98.5985 22.896 99.5105 22.896C100.446 22.896 101.322 22.668 102.138 22.212C102.954 21.732 103.602 21.06 104.082 20.196C104.562 19.308 104.802 18.252 104.802 17.028ZM133.629 7.056V27H128.553V24.48C127.905 25.344 127.053 26.028 125.997 26.532C124.965 27.012 123.837 27.252 122.613 27.252C121.053 27.252 119.673 26.928 118.473 26.28C117.273 25.608 116.325 24.636 115.629 23.364C114.957 22.068 114.621 20.532 114.621 18.756V7.056H119.661V18.036C119.661 19.62 120.057 20.844 120.849 21.708C121.641 22.548 122.721 22.968 124.089 22.968C125.481 22.968 126.573 22.548 127.365 21.708C128.157 20.844 128.553 19.62 128.553 18.036V7.056H133.629ZM143.642 0.36V27H138.602V0.36H143.642ZM167.161 16.596C167.161 17.316 167.113 17.964 167.017 18.54H152.437C152.557 19.98 153.061 21.108 153.949 21.924C154.837 22.74 155.929 23.148 157.225 23.148C159.097 23.148 160.429 22.344 161.221 20.736H166.657C166.081 22.656 164.977 24.24 163.345 25.488C161.713 26.712 159.709 27.324 157.333 27.324C155.413 27.324 153.685 26.904 152.149 26.064C150.637 25.2 149.449 23.988 148.585 22.428C147.745 20.868 147.325 19.068 147.325 17.028C147.325 14.964 147.745 13.152 148.585 11.592C149.425 10.032 150.601 8.832 152.113 7.992C153.625 7.152 155.365 6.732 157.333 6.732C159.229 6.732 160.921 7.14 162.409 7.956C163.921 8.772 165.085 9.936 165.901 11.448C166.741 12.936 167.161 14.652 167.161 16.596ZM161.941 15.156C161.917 13.86 161.449 12.828 160.537 12.06C159.625 11.268 158.509 10.872 157.189 10.872C155.941 10.872 154.885 11.256 154.021 12.024C153.181 12.768 152.665 13.812 152.473 15.156H161.941Z" fill="url(#paint0_linear_1_22)"/>
<path d="M4.71318 26.352L4.55484 26.7193L4.55712 26.7203L4.71318 26.352ZM1.40118 23.76L1.07709 23.9944L1.40118 23.76ZM0.141176 19.764V19.364H-0.265123L-0.258775 19.7702L0.141176 19.764ZM5.54118 19.764L5.94021 19.7362L5.91424 19.364H5.54118V19.764ZM6.62118 22.212L6.34937 22.5056L6.35477 22.5104L6.62118 22.212ZM12.1292 22.284L12.3831 22.5932L12.3895 22.5877L12.1292 22.284ZM12.4532 18.216L12.1632 18.4915L12.4532 18.216ZM10.7252 17.1L10.5676 17.4677L10.5754 17.471L10.5833 17.474L10.7252 17.1ZM7.91718 16.164L7.8043 16.5478L7.80932 16.5492L7.91718 16.164ZM3.92118 14.76L3.74913 15.1213L3.75951 15.1259L3.92118 14.76ZM1.29318 12.636L0.97305 12.8761L0.980047 12.8849L1.29318 12.636ZM1.32918 4.932L1.66088 5.15554L1.66088 5.15554L1.32918 4.932ZM4.46118 2.412L4.61876 2.7797L4.62424 2.77725L4.46118 2.412ZM15.3692 3.42L15.121 3.73375L15.1262 3.73774L15.3692 3.42ZM18.0692 8.676V9.076H18.5001L18.4681 8.6463L18.0692 8.676ZM12.5252 8.676L12.1258 8.69819L12.1468 9.076H12.5252V8.676ZM11.4092 6.552L11.1489 6.8557L11.1546 6.86066L11.1606 6.8654L11.4092 6.552ZM6.33318 6.444L6.07585 6.13765L6.06977 6.14297L6.33318 6.444ZM6.11718 10.332L5.8268 10.6071L5.83423 10.6149L5.84208 10.6224L6.11718 10.332ZM7.77318 11.412L7.61072 11.7775L7.61874 11.7811L7.62691 11.7843L7.77318 11.412ZM10.5812 12.348L10.4662 12.7311L10.4683 12.7317L10.5812 12.348ZM17.2412 15.948L16.925 16.193L17.2412 15.948ZM17.3132 23.472L16.9708 23.2652L17.3132 23.472ZM14.2532 26.244L14.4321 26.6018L14.4371 26.5992L14.2532 26.244ZM9.46518 26.852C7.75937 26.852 6.22946 26.5601 4.86924 25.9837L4.55712 26.7203C6.02889 27.3439 7.66699 27.652 9.46518 27.652V26.852ZM4.87151 25.9847C3.53965 25.4106 2.49529 24.59 1.72527 23.5256L1.07709 23.9944C1.93907 25.186 3.1027 26.0934 4.55484 26.7193L4.87151 25.9847ZM1.72527 23.5256C0.962314 22.4709 0.563984 21.2206 0.541127 19.7578L-0.258775 19.7702C-0.233632 21.3794 0.208037 22.7931 1.07709 23.9944L1.72527 23.5256ZM0.141176 20.164H5.54118V19.364H0.141176V20.164ZM5.14215 19.7918C5.21993 20.9068 5.61411 21.8247 6.34941 22.5055L6.89294 21.9185C6.33225 21.3993 6.00642 20.6852 5.94021 19.7362L5.14215 19.7918ZM6.35477 22.5104C7.11871 23.1925 8.13514 23.512 9.35718 23.512V22.712C8.27521 22.712 7.46764 22.4315 6.88758 21.9136L6.35477 22.5104ZM9.35718 23.512C10.5932 23.512 11.6178 23.2217 12.3831 22.5931L11.8753 21.9749C11.2965 22.4503 10.4732 22.712 9.35718 22.712V23.512ZM12.3895 22.5877C13.1532 21.9331 13.5372 21.0767 13.5372 20.052H12.7372C12.7372 20.8513 12.4492 21.4829 11.8689 21.9803L12.3895 22.5877ZM13.5372 20.052C13.5372 19.2192 13.2787 18.5042 12.7432 17.9405L12.1632 18.4915C12.5396 18.8878 12.7372 19.3968 12.7372 20.052H13.5372ZM12.7432 17.9405C12.2409 17.4118 11.6122 17.0086 10.867 16.726L10.5833 17.474C11.2302 17.7194 11.7534 18.0602 12.1632 18.4915L12.7432 17.9405ZM10.8827 16.7323C10.1872 16.4343 9.23196 16.1168 8.02503 15.7788L7.80932 16.5492C9.00239 16.8832 9.91913 17.1897 10.5676 17.4677L10.8827 16.7323ZM8.03004 15.7803C6.40724 15.303 5.09319 14.8406 4.08284 14.3941L3.75951 15.1259C4.81316 15.5914 6.16312 16.065 7.80431 16.5477L8.03004 15.7803ZM4.09315 14.3989C3.14398 13.9469 2.31516 13.2789 1.60631 12.3871L0.980047 12.8849C1.75919 13.8651 2.68237 14.6131 3.7492 15.1211L4.09315 14.3989ZM1.61318 12.396C0.959529 11.5245 0.613176 10.3451 0.613176 8.82H-0.186824C-0.186824 10.4629 0.186823 11.8275 0.973176 12.876L1.61318 12.396ZM0.613176 8.82C0.613176 7.40192 0.96654 6.18585 1.66088 5.15554L0.997469 4.70846C0.203812 5.88614 -0.186824 7.26208 -0.186824 8.82H0.613176ZM1.66088 5.15554C2.35771 4.12154 3.33822 3.32845 4.61874 2.77966L4.30361 2.04434C2.89613 2.64754 1.78864 3.53446 0.997469 4.70846L1.66088 5.15554ZM4.62424 2.77725C5.90877 2.2038 7.38769 1.912 9.06918 1.912V1.112C7.29466 1.112 5.70158 1.4202 4.29812 2.04674L4.62424 2.77725ZM9.06918 1.912C11.5953 1.912 13.6006 2.53097 15.121 3.73371L15.6173 3.10629C13.9218 1.76503 11.727 1.112 9.06918 1.112V1.912ZM15.1262 3.73774C16.6577 4.9089 17.5098 6.55068 17.6703 8.7057L18.4681 8.6463C18.2926 6.28932 17.3446 4.4271 15.6122 3.10226L15.1262 3.73774ZM18.0692 8.276H12.5252V9.076H18.0692V8.276ZM12.9246 8.65381C12.87 7.67223 12.4406 6.8595 11.6577 6.2386L11.1606 6.8654C11.7697 7.3485 12.0843 7.95177 12.1258 8.69819L12.9246 8.65381ZM11.6695 6.2483C10.9069 5.59465 9.90577 5.288 8.70918 5.288V6.088C9.76858 6.088 10.5675 6.35735 11.1489 6.8557L11.6695 6.2483ZM8.70918 5.288C7.65581 5.288 6.76488 5.55897 6.0759 6.13772L6.59045 6.75028C7.10147 6.32103 7.79454 6.088 8.70918 6.088V5.288ZM6.06977 6.14297C5.38571 6.74153 5.06918 7.59628 5.06918 8.64H5.86918C5.86918 7.76372 6.12865 7.15447 6.59658 6.74503L6.06977 6.14297ZM5.06918 8.64C5.06918 9.4065 5.31919 10.0713 5.8268 10.6071L6.40756 10.0569C6.05116 9.68071 5.86918 9.2175 5.86918 8.64H5.06918ZM5.84208 10.6224C6.33504 11.0894 6.92647 11.4734 7.61072 11.7775L7.93563 11.0465C7.32388 10.7746 6.81131 10.4386 6.39227 10.0416L5.84208 10.6224ZM7.62691 11.7843C8.31399 12.0542 9.26211 12.3699 10.4662 12.7311L10.6961 11.9649C9.50024 11.6061 8.57636 11.2978 7.91944 11.0397L7.62691 11.7843ZM10.4683 12.7317C12.0896 13.2086 13.401 13.6821 14.4085 14.1507L14.7459 13.4253C13.6893 12.9339 12.3368 12.4474 10.694 11.9643L10.4683 12.7317ZM14.4085 14.1507C15.3788 14.602 16.2174 15.28 16.925 16.193L17.5573 15.703C16.777 14.696 15.8396 13.934 14.7459 13.4253L14.4085 14.1507ZM16.925 16.193C17.6009 17.0651 17.9572 18.2312 17.9572 19.728H18.7572C18.7572 18.1048 18.3695 16.7509 17.5573 15.703L16.925 16.193ZM17.9572 19.728C17.9572 20.999 17.6292 22.1755 16.9708 23.2652L17.6555 23.6788C18.3892 22.4645 18.7572 21.145 18.7572 19.728H17.9572ZM16.9708 23.2652C16.3175 24.3464 15.3561 25.2224 14.0692 25.8888L14.4371 26.5992C15.8382 25.8736 16.9168 24.9016 17.6555 23.6788L16.9708 23.2652ZM14.0743 25.8862C12.7971 26.5248 11.2651 26.852 9.46518 26.852V27.652C11.3613 27.652 13.0212 27.3072 14.4321 26.6018L14.0743 25.8862ZM22.6907 11.628L23.0416 11.8199L23.0429 11.8176L22.6907 11.628ZM26.1827 8.028L26.3793 8.37636L26.3835 8.37392L26.1827 8.028ZM37.4147 8.604L37.1694 8.92004L37.1747 8.924L37.4147 8.604ZM40.6907 13.788V14.188H41.2017L41.079 13.692L40.6907 13.788ZM35.2547 13.788L34.8752 13.9145L34.9664 14.188H35.2547V13.788ZM33.7787 11.772L33.5387 12.092L33.545 12.0968L33.5516 12.1013L33.7787 11.772ZM27.8387 12.6L28.1489 12.8525L28.1517 12.849L27.8387 12.6ZM27.8387 21.456L27.5256 21.705L27.5285 21.7085L27.8387 21.456ZM35.2547 20.268V19.868H34.9688L34.8762 20.1385L35.2547 20.268ZM40.6907 20.268L41.0782 20.367L41.2058 19.868H40.6907V20.268ZM37.4147 25.416L37.6606 25.7315L37.4147 25.416ZM26.1827 26.064L25.9818 26.4099L25.986 26.4123L26.1827 26.064ZM22.6907 22.464L22.3385 22.6536L22.3397 22.6559L22.6907 22.464ZM21.8307 17.028C21.8307 15.019 22.2391 13.2874 23.0416 11.8199L22.3397 11.4361C21.4622 13.0406 21.0307 14.909 21.0307 17.028H21.8307ZM23.0429 11.8176C23.8484 10.3216 24.9596 9.17777 26.3793 8.37633L25.986 7.67967C24.4297 8.55823 23.2129 9.81442 22.3385 11.4384L23.0429 11.8176ZM26.3835 8.37392C27.8037 7.54932 29.4369 7.132 31.2947 7.132V6.332C29.3125 6.332 27.5377 6.77868 25.9818 7.68208L26.3835 8.37392ZM31.2947 7.132C33.6975 7.132 35.6456 7.73735 37.1694 8.91999L37.6599 8.288C35.9677 6.97465 33.8359 6.332 31.2947 6.332V7.132ZM37.1747 8.924C38.7235 10.0857 39.7695 11.7295 40.3024 13.884L41.079 13.692C40.5078 11.3825 39.3698 9.57035 37.6547 8.284L37.1747 8.924ZM40.6907 13.388H35.2547V14.188H40.6907V13.388ZM35.6342 13.6615C35.321 12.7219 34.7789 11.9759 34.0058 11.4427L33.5516 12.1013C34.1705 12.5281 34.6124 13.1261 34.8752 13.9145L35.6342 13.6615ZM34.0187 11.452C33.2644 10.8863 32.3354 10.616 31.2587 10.616V11.416C32.1979 11.416 32.9489 11.6497 33.5387 12.092L34.0187 11.452ZM31.2587 10.616C29.7062 10.616 28.4472 11.1924 27.5256 12.351L28.1517 12.849C28.9101 11.8956 29.9311 11.416 31.2587 11.416V10.616ZM27.5285 12.3475C26.6095 13.4765 26.1787 15.0557 26.1787 17.028H26.9787C26.9787 15.1603 27.3879 13.7875 28.1489 12.8525L27.5285 12.3475ZM26.1787 17.028C26.1787 18.9785 26.6104 20.5544 27.5256 21.705L28.1517 21.207C27.3869 20.2456 26.9787 18.8695 26.9787 17.028H26.1787ZM27.5285 21.7085C28.4513 22.8423 29.7096 23.404 31.2587 23.404V22.604C29.9277 22.604 28.9061 22.1337 28.1489 21.2035L27.5285 21.7085ZM31.2587 23.404C32.338 23.404 33.2655 23.1623 34.0137 22.65C34.7638 22.1365 35.2988 21.3747 35.6331 20.3975L34.8762 20.1385C34.5865 20.9853 34.1436 21.5915 33.5617 21.99C32.9779 22.3897 32.2193 22.604 31.2587 22.604V23.404ZM35.2547 20.668H40.6907V19.868H35.2547V20.668ZM40.3031 20.169C39.7713 22.2502 38.7253 23.8873 37.1688 25.1005L37.6606 25.7315C39.368 24.4007 40.5061 22.6058 41.0782 20.367L40.3031 20.169ZM37.1688 25.1005C35.6193 26.3082 33.6705 26.924 31.2947 26.924V27.724C33.8148 27.724 35.946 27.0678 37.6606 25.7315L37.1688 25.1005ZM31.2947 26.924C29.4349 26.924 27.8002 26.5178 26.3793 25.7157L25.986 26.4123C27.5412 27.2902 29.3145 27.724 31.2947 27.724V26.924ZM26.3835 25.7181C24.9598 24.8914 23.8472 23.7452 23.0416 22.2721L22.3397 22.6559C23.2141 24.2548 24.4295 25.5086 25.9818 26.4099L26.3835 25.7181ZM23.0429 22.2744C22.2391 20.7816 21.8307 19.0368 21.8307 17.028H21.0307C21.0307 19.1472 21.4623 21.0264 22.3385 22.6536L23.0429 22.2744ZM59.6469 7.776L59.4484 8.12334L59.4539 8.12633L59.6469 7.776ZM62.3829 10.692L62.0251 10.8709L62.0292 10.8788L62.3829 10.692ZM63.3909 27V27.4H63.7909V27H63.3909ZM58.3509 27H57.9509V27.4H58.3509V27ZM57.1629 12.348L56.868 12.6183L56.8719 12.6224L57.1629 12.348ZM50.6109 12.348L50.3201 12.0733L50.3199 12.0736L50.6109 12.348ZM49.4229 27V27.4H49.8229V27H49.4229ZM44.3829 27H43.9829V27.4H44.3829V27ZM44.3829 0.36V-0.0400004H43.9829V0.36H44.3829ZM49.4229 0.36H49.8229V-0.0400004H49.4229V0.36ZM49.4229 9.54H49.0229V10.74L49.7429 9.78L49.4229 9.54ZM52.0149 7.524L52.1774 7.88959L52.1841 7.88647L52.0149 7.524ZM55.6149 7.168C57.0656 7.168 58.3397 7.48972 59.4485 8.1233L59.8454 7.4287C58.6021 6.71828 57.1883 6.368 55.6149 6.368V7.168ZM59.4539 8.12633C60.5532 8.73207 61.4104 9.64138 62.0252 10.8709L62.7407 10.5131C62.0595 9.15062 61.0927 8.11593 59.84 7.42566L59.4539 8.12633ZM62.0292 10.8788C62.6641 12.0806 62.9909 13.5491 62.9909 15.3H63.7909C63.7909 13.4509 63.4457 11.8474 62.7366 10.5052L62.0292 10.8788ZM62.9909 15.3V27H63.7909V15.3H62.9909ZM63.3909 26.6H58.3509V27.4H63.3909V26.6ZM58.7509 27V15.984H57.9509V27H58.7509ZM58.7509 15.984C58.7509 14.3364 58.3385 13.0117 57.454 12.0736L56.8719 12.6224C57.5714 13.3643 57.9509 14.4636 57.9509 15.984H58.7509ZM57.4578 12.0777C56.5772 11.1171 55.3825 10.652 53.9229 10.652V11.452C55.1993 11.452 56.1647 11.8509 56.8681 12.6183L57.4578 12.0777ZM53.9229 10.652C52.4414 10.652 51.2247 11.1156 50.3201 12.0733L50.9017 12.6226C51.6292 11.8524 52.6205 11.452 53.9229 11.452V10.652ZM50.3199 12.0736C49.4354 13.0117 49.0229 14.3364 49.0229 15.984H49.8229C49.8229 14.4636 50.2025 13.3643 50.902 12.6224L50.3199 12.0736ZM49.0229 15.984V27H49.8229V15.984H49.0229ZM49.4229 26.6H44.3829V27.4H49.4229V26.6ZM44.7829 27V0.36H43.9829V27H44.7829ZM44.3829 0.76H49.4229V-0.0400004H44.3829V0.76ZM49.0229 0.36V9.54H49.8229V0.36H49.0229ZM49.7429 9.78C50.3462 8.97564 51.1537 8.34449 52.1774 7.88952L51.8525 7.15847C50.7161 7.66351 49.7957 8.37635 49.1029 9.3L49.7429 9.78ZM52.1841 7.88647C53.2057 7.40974 54.347 7.168 55.6149 7.168V6.368C54.2428 6.368 52.9842 6.63026 51.8458 7.16153L52.1841 7.88647ZM86.5797 18.54V18.94H86.9186L86.9743 18.6058L86.5797 18.54ZM71.9997 18.54V18.14H71.565L71.6011 18.5732L71.9997 18.54ZM73.5117 21.924L73.2411 22.2185L73.5117 21.924ZM80.7837 20.736V20.336H80.5348L80.4249 20.5593L80.7837 20.736ZM86.2197 20.736L86.6028 20.8509L86.7573 20.336H86.2197V20.736ZM82.9077 25.488L83.1477 25.808L83.1507 25.8057L82.9077 25.488ZM71.7117 26.064L71.5132 26.4114L71.5198 26.4149L71.7117 26.064ZM68.1477 22.428L67.7955 22.6177L67.7978 22.6218L68.1477 22.428ZM68.1477 11.592L67.7955 11.4024L68.1477 11.592ZM71.6757 7.992L71.87 8.34166L71.6757 7.992ZM81.9717 7.956L81.7794 8.30673L81.7817 8.30801L81.9717 7.956ZM85.4637 11.448L85.1116 11.638L85.1154 11.6446L85.4637 11.448ZM81.5037 15.156V15.556H81.9112L81.9036 15.1486L81.5037 15.156ZM80.0997 12.06L79.8374 12.362L79.8421 12.366L80.0997 12.06ZM73.5837 12.024L73.8489 12.3234L73.8494 12.323L73.5837 12.024ZM72.0357 15.156L71.6397 15.0994L71.5745 15.556H72.0357V15.156ZM86.3237 16.596C86.3237 17.2988 86.2768 17.9243 86.1852 18.4742L86.9743 18.6058C87.0746 18.0037 87.1237 17.3332 87.1237 16.596H86.3237ZM86.5797 18.14H71.9997V18.94H86.5797V18.14ZM71.6011 18.5732C71.7277 20.0923 72.2649 21.3216 73.2411 22.2185L73.7824 21.6295C72.9825 20.8944 72.5117 19.8677 72.3983 18.5068L71.6011 18.5732ZM73.2411 22.2185C74.2087 23.1077 75.3996 23.548 76.7877 23.548V22.748C75.5838 22.748 74.5907 22.3723 73.7824 21.6295L73.2411 22.2185ZM76.7877 23.548C77.7817 23.548 78.6574 23.3341 79.3974 22.8875C80.1384 22.4402 80.718 21.7747 81.1425 20.9127L80.4249 20.5593C80.0574 21.3053 79.575 21.8458 78.984 22.2025C78.392 22.5599 77.6657 22.748 76.7877 22.748V23.548ZM80.7837 21.136H86.2197V20.336H80.7837V21.136ZM85.8366 20.6211C85.2854 22.4583 84.2316 23.9721 82.6647 25.1703L83.1507 25.8057C84.8478 24.5079 86.002 22.8537 86.6028 20.8509L85.8366 20.6211ZM82.6677 25.168C81.1159 26.3318 79.2 26.924 76.8957 26.924V27.724C79.3435 27.724 81.4355 27.0922 83.1477 25.808L82.6677 25.168ZM76.8957 26.924C75.0361 26.924 73.3752 26.5178 71.9036 25.7131L71.5198 26.4149C73.1202 27.2902 74.9153 27.724 76.8957 27.724V26.924ZM71.9102 25.7167C70.4633 24.8899 69.327 23.7318 68.4976 22.2342L67.7978 22.6218C68.6964 24.2442 69.9361 25.5101 71.5133 26.4113L71.9102 25.7167ZM68.4999 22.2384C67.6957 20.7449 67.2877 19.0119 67.2877 17.028H66.4877C66.4877 19.1241 66.9197 20.9911 67.7955 22.6176L68.4999 22.2384ZM67.2877 17.028C67.2877 15.0192 67.6961 13.2744 68.4999 11.7816L67.7955 11.4024C66.9193 13.0296 66.4877 14.9088 66.4877 17.028H67.2877ZM68.4999 11.7816C69.3046 10.2872 70.4265 9.14357 71.87 8.34166L71.4815 7.64234C69.9009 8.52043 68.6708 9.77675 67.7955 11.4024L68.4999 11.7816ZM71.87 8.34166C73.3148 7.539 74.9862 7.132 76.8957 7.132V6.332C74.8692 6.332 73.0607 6.765 71.4815 7.64234L71.87 8.34166ZM76.8957 7.132C78.7325 7.132 80.357 7.5267 81.7794 8.30672L82.164 7.60527C80.6104 6.75329 78.8509 6.332 76.8957 6.332V7.132ZM81.7817 8.30801C83.2251 9.08695 84.3328 10.1946 85.1117 11.638L85.8157 11.258C84.9627 9.67737 83.7423 8.45704 82.1617 7.60399L81.7817 8.30801ZM85.1154 11.6446C85.9171 13.0648 86.3237 14.7113 86.3237 16.596H87.1237C87.1237 14.5927 86.6904 12.8072 85.812 11.2514L85.1154 11.6446ZM81.9036 15.1486C81.8777 13.7485 81.366 12.6034 80.3574 11.754L79.8421 12.366C80.6575 13.0526 81.0817 13.9715 81.1038 15.1634L81.9036 15.1486ZM80.362 11.758C79.3703 10.8967 78.1584 10.472 76.7517 10.472V11.272C77.985 11.272 79.0052 11.6393 79.8374 12.362L80.362 11.758ZM76.7517 10.472C75.4142 10.472 74.2613 10.8865 73.318 11.725L73.8494 12.323C74.6341 11.6255 75.5932 11.272 76.7517 11.272V10.472ZM73.3185 11.7246C72.3934 12.544 71.8422 13.6821 71.6397 15.0994L72.4317 15.2126C72.6132 13.9419 73.0941 12.992 73.8489 12.3234L73.3185 11.7246ZM72.0357 15.556H81.5037V14.756H72.0357V15.556ZM90.2945 11.592L89.94 11.4066L89.9378 11.4109L90.2945 11.592ZM93.6065 7.992L93.8131 8.33448L93.6065 7.992ZM101.958 7.596L101.782 7.95527L101.788 7.95809L101.958 7.596ZM104.766 9.828L104.445 10.0667L105.166 11.0363V9.828H104.766ZM104.766 0.36V-0.0400004H104.366V0.36H104.766ZM109.878 0.36H110.278V-0.0400004H109.878V0.36ZM109.878 27V27.4H110.278V27H109.878ZM104.766 27H104.366V27.4H104.766V27ZM104.766 24.048H105.166V22.6703L104.429 23.8338L104.766 24.048ZM102.138 26.424L101.951 26.0709L102.138 26.424ZM93.6065 26.028L93.8174 25.6881L93.6065 26.028ZM90.2945 22.392L89.9366 22.5709L89.94 22.5774L90.2945 22.392ZM104.082 13.896L103.731 14.0862L103.733 14.0903L104.082 13.896ZM102.138 11.88L101.936 12.2249L101.943 12.2292L102.138 11.88ZM96.9185 11.844L96.7189 11.4973L96.9185 11.844ZM94.9745 13.86L94.6266 13.6625L94.6248 13.6657L94.9745 13.86ZM94.9745 20.124L94.6203 20.3104L94.6266 20.3214L94.9745 20.124ZM96.9185 22.176L96.7111 22.5181L96.7157 22.5208L96.9185 22.176ZM102.138 22.212L102.334 22.5613L102.341 22.5568L102.138 22.212ZM104.082 20.196L104.432 20.3903L104.434 20.3862L104.082 20.196ZM89.5065 16.956C89.5065 14.9933 89.8917 13.269 90.6511 11.7731L89.9378 11.4109C89.1133 13.035 88.7065 14.8867 88.7065 16.956H89.5065ZM90.6489 11.7774C91.4339 10.2767 92.489 9.13351 93.8131 8.33448L93.3998 7.64953C91.9399 8.53049 90.787 9.78727 89.94 11.4066L90.6489 11.7774ZM93.8131 8.33448C95.1397 7.53396 96.6156 7.132 98.2505 7.132V6.332C96.4773 6.332 94.8572 6.77004 93.3998 7.64953L93.8131 8.33448ZM98.2505 7.132C99.4848 7.132 100.661 7.40576 101.783 7.95522L102.134 7.23677C100.904 6.63424 99.6081 6.332 98.2505 6.332V7.132ZM101.788 7.95809C102.912 8.48529 103.793 9.18946 104.445 10.0667L105.087 9.58932C104.348 8.59454 103.357 7.8107 102.128 7.2339L101.788 7.95809ZM105.166 9.828V0.36H104.366V9.828H105.166ZM104.766 0.76H109.878V-0.0400004H104.766V0.76ZM109.478 0.36V27H110.278V0.36H109.478ZM109.878 26.6H104.766V27.4H109.878V26.6ZM105.166 27V24.048H104.366V27H105.166ZM104.429 23.8338C103.845 24.7537 103.023 25.5002 101.951 26.0709L102.326 26.7771C103.509 26.1478 104.44 25.3103 105.104 24.2622L104.429 23.8338ZM101.951 26.0709C100.889 26.6354 99.6478 26.924 98.2145 26.924V27.724C99.7571 27.724 101.132 27.4126 102.326 26.7771L101.951 26.0709ZM98.2145 26.924C96.607 26.924 95.1444 26.5118 93.8174 25.6881L93.3955 26.3679C94.8525 27.2722 96.4619 27.724 98.2145 27.724V26.924ZM93.8174 25.6881C92.4907 24.8647 91.4343 23.7081 90.6489 22.2066L89.94 22.5774C90.7866 24.1959 91.9382 25.4633 93.3955 26.3679L93.8174 25.6881ZM90.6522 22.2131C89.8919 20.6925 89.5065 18.9434 89.5065 16.956H88.7065C88.7065 19.0486 89.113 20.9235 89.9367 22.5709L90.6522 22.2131ZM105.202 17.028C105.202 15.752 104.952 14.6377 104.432 13.7017L103.733 14.0903C104.173 14.8823 104.402 15.856 104.402 17.028H105.202ZM104.434 13.7058C103.921 12.7566 103.221 12.0268 102.334 11.5308L101.943 12.2292C102.688 12.6452 103.284 13.2594 103.731 14.0862L104.434 13.7058ZM102.341 11.5352C101.465 11.0195 100.519 10.76 99.5105 10.76V11.56C100.374 11.56 101.18 11.7805 101.936 12.2248L102.341 11.5352ZM99.5105 10.76C98.5062 10.76 97.5731 11.0055 96.7189 11.4973L97.118 12.1906C97.8478 11.7705 98.6427 11.56 99.5105 11.56V10.76ZM96.7189 11.4973C95.858 11.993 95.1616 12.7199 94.6266 13.6626L95.3223 14.0574C95.7953 13.2241 96.3949 12.607 97.118 12.1906L96.7189 11.4973ZM94.6248 13.6657C94.1054 14.6006 93.8545 15.7025 93.8545 16.956H94.6545C94.6545 15.8095 94.8835 14.8474 95.3241 14.0543L94.6248 13.6657ZM93.8545 16.956C93.8545 18.2102 94.1056 19.3321 94.6205 20.3103L95.3284 19.9377C94.8833 19.0919 94.6545 18.1018 94.6545 16.956H93.8545ZM94.6266 20.3214C95.1608 21.2626 95.8549 21.9991 96.7111 22.5181L97.1258 21.8339C96.3981 21.3929 95.7961 20.7614 95.3223 19.9266L94.6266 20.3214ZM96.7157 22.5208C97.5907 23.0355 98.5244 23.296 99.5105 23.296V22.496C98.6726 22.496 97.8782 22.2765 97.1213 21.8312L96.7157 22.5208ZM99.5105 23.296C100.515 23.296 101.458 23.0505 102.334 22.5612L101.943 21.8628C101.187 22.2854 100.378 22.496 99.5105 22.496V23.296ZM102.341 22.5568C103.222 22.039 103.919 21.3138 104.432 20.3903L103.733 20.0017C103.286 20.8062 102.687 21.425 101.936 21.8672L102.341 22.5568ZM104.434 20.3862C104.952 19.4286 105.202 18.3044 105.202 17.028H104.402C104.402 18.1996 104.173 19.1874 103.731 20.0058L104.434 20.3862ZM133.629 7.056H134.029V6.656H133.629V7.056ZM133.629 27V27.4H134.029V27H133.629ZM128.553 27H128.153V27.4H128.553V27ZM128.553 24.48H128.953V23.28L128.233 24.24L128.553 24.48ZM125.997 26.532L126.166 26.8947L126.169 26.893L125.997 26.532ZM118.473 26.28L118.277 26.629L118.283 26.632L118.473 26.28ZM115.629 23.364L115.274 23.5482L115.278 23.556L115.629 23.364ZM114.621 7.056V6.656H114.221V7.056H114.621ZM119.661 7.056H120.061V6.656H119.661V7.056ZM120.849 21.708L120.554 21.9783L120.558 21.9824L120.849 21.708ZM127.365 21.708L127.656 21.9824L127.66 21.9783L127.365 21.708ZM128.553 7.056V6.656H128.153V7.056H128.553ZM133.229 7.056V27H134.029V7.056H133.229ZM133.629 26.6H128.553V27.4H133.629V26.6ZM128.953 27V24.48H128.153V27H128.953ZM128.233 24.24C127.627 25.0481 126.827 25.6924 125.825 26.171L126.169 26.893C127.278 26.3636 128.183 25.6399 128.873 24.72L128.233 24.24ZM125.828 26.1693C124.853 26.6229 123.783 26.852 122.613 26.852V27.652C123.891 27.652 125.077 27.4011 126.166 26.8947L125.828 26.1693ZM122.613 26.852C121.11 26.852 119.797 26.5402 118.663 25.928L118.283 26.632C119.549 27.3158 120.996 27.652 122.613 27.652V26.852ZM118.668 25.931C117.537 25.2977 116.642 24.3818 115.98 23.172L115.278 23.556C116.008 24.8902 117.008 25.9183 118.277 26.629L118.668 25.931ZM115.984 23.1799C115.347 21.9518 115.021 20.4816 115.021 18.756H114.221C114.221 20.5824 114.567 22.1842 115.274 23.5481L115.984 23.1799ZM115.021 18.756V7.056H114.221V18.756H115.021ZM114.621 7.456H119.661V6.656H114.621V7.456ZM119.261 7.056V18.036H120.061V7.056H119.261ZM119.261 18.036C119.261 19.6844 119.674 21.0179 120.554 21.9783L121.144 21.4377C120.44 20.6701 120.061 19.5556 120.061 18.036H119.261ZM120.558 21.9824C121.439 22.9173 122.633 23.368 124.089 23.368V22.568C122.809 22.568 121.842 22.1787 121.14 21.4336L120.558 21.9824ZM124.089 23.368C125.567 23.368 126.773 22.9188 127.656 21.9824L127.074 21.4336C126.373 22.1772 125.395 22.568 124.089 22.568V23.368ZM127.66 21.9783C128.54 21.0179 128.953 19.6844 128.953 18.036H128.153C128.153 19.5556 127.774 20.6701 127.07 21.4377L127.66 21.9783ZM128.953 18.036V7.056H128.153V18.036H128.953ZM128.553 7.456H133.629V6.656H128.553V7.456ZM143.642 0.36H144.042V-0.0400004H143.642V0.36ZM143.642 27V27.4H144.042V27H143.642ZM138.602 27H138.202V27.4H138.602V27ZM138.602 0.36V-0.0400004H138.202V0.36H138.602ZM143.242 0.36V27H144.042V0.36H143.242ZM143.642 26.6H138.602V27.4H143.642V26.6ZM139.002 27V0.36H138.202V27H139.002ZM138.602 0.76H143.642V-0.0400004H138.602V0.76ZM167.017 18.54V18.94H167.356L167.412 18.6058L167.017 18.54ZM152.437 18.54V18.14H152.002L152.039 18.5732L152.437 18.54ZM153.949 21.924L153.679 22.2185L153.949 21.924ZM161.221 20.736V20.336H160.972L160.862 20.5593L161.221 20.736ZM166.657 20.736L167.04 20.8509L167.195 20.336H166.657V20.736ZM163.345 25.488L163.585 25.808L163.588 25.8057L163.345 25.488ZM152.149 26.064L151.951 26.4114L151.957 26.4149L152.149 26.064ZM148.585 22.428L148.233 22.6177L148.235 22.6218L148.585 22.428ZM148.585 11.592L148.233 11.4024L148.585 11.592ZM152.113 7.992L152.307 8.34166L152.113 7.992ZM162.409 7.956L162.217 8.30673L162.219 8.30801L162.409 7.956ZM165.901 11.448L165.549 11.638L165.553 11.6446L165.901 11.448ZM161.941 15.156V15.556H162.349L162.341 15.1486L161.941 15.156ZM160.537 12.06L160.275 12.362L160.28 12.366L160.537 12.06ZM154.021 12.024L154.286 12.3234L154.287 12.323L154.021 12.024ZM152.473 15.156L152.077 15.0994L152.012 15.556H152.473V15.156ZM166.761 16.596C166.761 17.2988 166.714 17.9243 166.623 18.4742L167.412 18.6058C167.512 18.0037 167.561 17.3332 167.561 16.596H166.761ZM167.017 18.14H152.437V18.94H167.017V18.14ZM152.039 18.5732C152.165 20.0923 152.702 21.3216 153.679 22.2185L154.22 21.6295C153.42 20.8944 152.949 19.8677 152.836 18.5068L152.039 18.5732ZM153.679 22.2185C154.646 23.1077 155.837 23.548 157.225 23.548V22.748C156.021 22.748 155.028 22.3723 154.22 21.6295L153.679 22.2185ZM157.225 23.548C158.219 23.548 159.095 23.3341 159.835 22.8875C160.576 22.4402 161.155 21.7747 161.58 20.9127L160.862 20.5593C160.495 21.3053 160.012 21.8458 159.422 22.2025C158.829 22.5599 158.103 22.748 157.225 22.748V23.548ZM161.221 21.136H166.657V20.336H161.221V21.136ZM166.274 20.6211C165.723 22.4583 164.669 23.9721 163.102 25.1703L163.588 25.8057C165.285 24.5079 166.439 22.8537 167.04 20.8509L166.274 20.6211ZM163.105 25.168C161.553 26.3318 159.637 26.924 157.333 26.924V27.724C159.781 27.724 161.873 27.0922 163.585 25.808L163.105 25.168ZM157.333 26.924C155.474 26.924 153.813 26.5178 152.341 25.7131L151.957 26.4149C153.558 27.2902 155.353 27.724 157.333 27.724V26.924ZM152.348 25.7167C150.901 24.8899 149.765 23.7318 148.935 22.2342L148.235 22.6218C149.134 24.2442 150.374 25.5101 151.951 26.4113L152.348 25.7167ZM148.937 22.2384C148.133 20.7449 147.725 19.0119 147.725 17.028H146.925C146.925 19.1241 147.357 20.9911 148.233 22.6176L148.937 22.2384ZM147.725 17.028C147.725 15.0192 148.134 13.2744 148.937 11.7816L148.233 11.4024C147.357 13.0296 146.925 14.9088 146.925 17.028H147.725ZM148.937 11.7816C149.742 10.2872 150.864 9.14357 152.307 8.34166L151.919 7.64234C150.338 8.52043 149.108 9.77675 148.233 11.4024L148.937 11.7816ZM152.307 8.34166C153.752 7.539 155.424 7.132 157.333 7.132V6.332C155.307 6.332 153.498 6.765 151.919 7.64234L152.307 8.34166ZM157.333 7.132C159.17 7.132 160.794 7.5267 162.217 8.30672L162.602 7.60527C161.048 6.75329 159.288 6.332 157.333 6.332V7.132ZM162.219 8.30801C163.663 9.08695 164.77 10.1946 165.549 11.638L166.253 11.258C165.4 9.67737 164.18 8.45704 162.599 7.60399L162.219 8.30801ZM165.553 11.6446C166.355 13.0648 166.761 14.7113 166.761 16.596H167.561C167.561 14.5927 167.128 12.8072 166.25 11.2514L165.553 11.6446ZM162.341 15.1486C162.315 13.7485 161.803 12.6034 160.795 11.754L160.28 12.366C161.095 13.0526 161.519 13.9715 161.541 15.1634L162.341 15.1486ZM160.799 11.758C159.808 10.8967 158.596 10.472 157.189 10.472V11.272C158.422 11.272 159.443 11.6393 160.275 12.362L160.799 11.758ZM157.189 10.472C155.852 10.472 154.699 10.8865 153.755 11.725L154.287 12.323C155.072 11.6255 156.031 11.272 157.189 11.272V10.472ZM153.756 11.7246C152.831 12.544 152.28 13.6821 152.077 15.0994L152.869 15.2126C153.051 13.9419 153.532 12.992 154.286 12.3234L153.756 11.7246ZM152.473 15.556H161.941V14.756H152.473V15.556Z" fill="url(#paint1_linear_1_22)" mask="url(#path-1-outside-1_1_22)"/>
<defs>
<linearGradient id="paint0_linear_1_22" x1="17.6976" y1="-21.9154" x2="54.9343" y2="94.3236" gradientUnits="userSpaceOnUse">
<stop stop-color="#0E044B"/>
<stop offset="0.544503" stop-color="#2C309B"/>
<stop offset="1" stop-color="#89E8FD"/>
</linearGradient>
<linearGradient id="paint1_linear_1_22" x1="82.0952" y1="3" x2="82.0952" y2="24.3632" gradientUnits="userSpaceOnUse">
<stop stop-color="#AACCFF"/>
<stop offset="0.494792" stop-color="#C1CFFF" stop-opacity="0"/>
<stop offset="1" stop-color="#DAE2FF"/>
</linearGradient>
</defs>
</svg>
