<svg width="265" height="26" viewBox="0 0 265 26" fill="none" xmlns="http://www.w3.org/2000/svg">
<path d="M6.57718 25.312C4.75318 25.312 3.36918 24.912 2.42518 24.112C1.49718 23.296 1.03318 22.128 1.03318 20.608V19.672C1.03318 19.032 1.10518 18.496 1.24918 18.064C1.40918 17.616 1.61718 17.216 1.87318 16.864C2.12918 16.512 2.33718 16.2 2.49718 15.928C2.67318 15.64 2.76118 15.344 2.76118 15.04C2.76118 14.752 2.68918 14.552 2.54518 14.44C2.40118 14.312 2.22518 14.248 2.01718 14.248C1.71318 14.248 1.36118 14.344 0.961176 14.536L0.385176 12.28C0.833176 12.04 1.31318 11.88 1.82518 11.8C2.35318 11.704 2.81718 11.656 3.21718 11.656C4.27318 11.656 5.01718 11.912 5.44918 12.424C5.89718 12.92 6.12118 13.592 6.12118 14.44C6.12118 14.936 6.04918 15.376 5.90518 15.76C5.76118 16.128 5.57718 16.512 5.35318 16.912C5.12918 17.28 4.94518 17.624 4.80118 17.944C4.65718 18.264 4.58518 18.728 4.58518 19.336V20.248C4.58518 21.048 4.75318 21.624 5.08918 21.976C5.44118 22.328 5.93718 22.504 6.57718 22.504C7.26518 22.504 7.75318 22.32 8.04118 21.952C8.34518 21.584 8.49718 21.072 8.49718 20.416V18.088C8.49718 17.608 8.38518 17.232 8.16118 16.96C7.95318 16.672 7.59318 16.528 7.08118 16.528H6.96118V14.632H7.10518C7.60118 14.632 7.96918 14.496 8.20918 14.224C8.44918 13.952 8.60118 13.608 8.66518 13.192C8.74518 12.76 8.78518 12.312 8.78518 11.848H12.3612C12.3612 12.84 12.2332 13.656 11.9772 14.296C11.7212 14.92 11.2732 15.344 10.6332 15.568V15.664C11.1932 15.84 11.5692 16.144 11.7612 16.576C11.9692 17.008 12.0732 17.504 12.0732 18.064V20.512C12.0732 22.096 11.6092 23.296 10.6812 24.112C9.75318 24.912 8.38518 25.312 6.57718 25.312ZM9.1463 10.024V4.576H12.4583V10.024H9.1463ZM19.3364 25.312C18.5204 25.312 17.7524 25.216 17.0324 25.024C16.3124 24.848 15.6404 24.592 15.0164 24.256L15.9764 21.64C16.3284 21.848 16.7524 22.032 17.2484 22.192C17.7444 22.352 18.2324 22.432 18.7124 22.432C19.6084 22.432 20.3204 22.096 20.8484 21.424C21.3764 20.736 21.6404 19.712 21.6404 18.352C21.6404 17.088 21.3764 16.12 20.8484 15.448C20.3204 14.76 19.4964 14.416 18.3764 14.416C17.8484 14.416 17.3044 14.496 16.7444 14.656C16.1844 14.8 15.7204 14.984 15.3524 15.208V12.256C15.8484 12.032 16.4084 11.856 17.0324 11.728C17.6564 11.6 18.3204 11.536 19.0244 11.536C21.2324 11.536 22.8324 12.144 23.8244 13.36C24.8164 14.56 25.3124 16.224 25.3124 18.352C25.3124 20.64 24.7924 22.376 23.7524 23.56C22.7124 24.728 21.2404 25.312 19.3364 25.312ZM30.6565 25L26.8405 11.848H30.4645L33.3685 22.096H33.5125C33.7685 22.096 34.0005 22.024 34.2085 21.88C34.4325 21.736 34.6325 21.544 34.8085 21.304C35.1125 20.856 35.3445 20.328 35.5045 19.72C35.6805 19.096 35.7685 18.48 35.7685 17.872C35.7685 16.8 35.5605 15.976 35.1445 15.4C34.7445 14.824 34.1845 14.536 33.4645 14.536C33.3205 14.536 33.1845 14.544 33.0565 14.56C32.9445 14.576 32.8405 14.608 32.7445 14.656L32.0725 11.896C32.4405 11.784 32.7845 11.72 33.1045 11.704C33.4245 11.672 33.6965 11.656 33.9205 11.656C34.7685 11.656 35.5045 11.768 36.1285 11.992C36.7525 12.216 37.2885 12.552 37.7365 13C38.8565 14.12 39.4165 15.72 39.4165 17.8C39.4165 19.096 39.2085 20.232 38.7925 21.208C38.3925 22.168 37.9045 22.928 37.3285 23.488C36.8485 23.952 36.2405 24.32 35.5045 24.592C34.7845 24.864 33.7925 25 32.5285 25H30.6565ZM42.5194 25V11.848H45.1594L45.6394 13.912H45.8314C46.1034 13.256 46.5754 12.712 47.2474 12.28C47.9194 11.832 48.7914 11.608 49.8634 11.608C52.9194 11.608 54.4474 13.248 54.4474 16.528V25H50.8474V17.248C50.8474 16.352 50.6634 15.712 50.2954 15.328C49.9434 14.928 49.4234 14.728 48.7354 14.728C47.9034 14.728 47.2554 15.064 46.7914 15.736C46.3434 16.408 46.1194 17.4 46.1194 18.712V25H42.5194ZM43.0937 10.024V8.512L45.5177 7.504H51.0137V5.848H54.0857V10.024H43.0937ZM51.2297 4.576V0.111999H54.3497V4.576H51.2297ZM73.2231 25H69.5991V15.088C69.5991 14.688 69.6071 14.152 69.6231 13.48C69.6391 12.792 69.6631 12.192 69.6951 11.68C69.6151 11.776 69.4391 11.952 69.1671 12.208C68.9111 12.448 68.6711 12.664 68.4471 12.856L66.4791 14.44L64.7271 12.256L70.2471 7.864H73.2231V25Z" fill="#C8FFD4"/>
<path d="M100.146 25H96.5222V15.088C96.5222 14.688 96.5302 14.152 96.5462 13.48C96.5622 12.792 96.5862 12.192 96.6182 11.68C96.5382 11.776 96.3622 11.952 96.0902 12.208C95.8342 12.448 95.5942 12.664 95.3702 12.856L93.4022 14.44L91.6502 12.256L97.1702 7.864H100.146V25ZM116.473 11.704C116.473 12.888 116.113 13.832 115.393 14.536C114.689 15.24 113.817 15.72 112.777 15.976V16.048C114.137 16.224 115.177 16.648 115.897 17.32C116.617 17.992 116.977 18.888 116.977 20.008C116.977 21 116.729 21.896 116.233 22.696C115.753 23.48 115.001 24.104 113.977 24.568C112.969 25.016 111.665 25.24 110.065 25.24C108.209 25.24 106.561 24.928 105.121 24.304V21.232C105.857 21.6 106.625 21.88 107.425 22.072C108.225 22.264 108.977 22.36 109.681 22.36C110.977 22.36 111.881 22.136 112.393 21.688C112.921 21.24 113.185 20.608 113.185 19.792C113.185 19.328 113.065 18.928 112.825 18.592C112.585 18.256 112.161 18.008 111.553 17.848C110.961 17.672 110.129 17.584 109.057 17.584H107.761V14.8H109.081C110.137 14.8 110.937 14.704 111.481 14.512C112.041 14.304 112.417 14.032 112.609 13.696C112.817 13.344 112.921 12.944 112.921 12.496C112.921 11.888 112.729 11.416 112.345 11.08C111.977 10.728 111.353 10.552 110.473 10.552C109.657 10.552 108.945 10.696 108.337 10.984C107.729 11.272 107.225 11.544 106.825 11.8L105.145 9.304C105.817 8.824 106.601 8.424 107.497 8.104C108.409 7.784 109.489 7.624 110.737 7.624C112.497 7.624 113.889 7.984 114.913 8.704C115.953 9.408 116.473 10.408 116.473 11.704ZM119.551 13.648C119.551 12.912 119.751 12.4 120.151 12.112C120.551 11.808 121.039 11.656 121.615 11.656C122.175 11.656 122.655 11.808 123.055 12.112C123.455 12.4 123.655 12.912 123.655 13.648C123.655 14.352 123.455 14.864 123.055 15.184C122.655 15.488 122.175 15.64 121.615 15.64C121.039 15.64 120.551 15.488 120.151 15.184C119.751 14.864 119.551 14.352 119.551 13.648ZM119.551 23.32C119.551 22.584 119.751 22.072 120.151 21.784C120.551 21.48 121.039 21.328 121.615 21.328C122.175 21.328 122.655 21.48 123.055 21.784C123.455 22.072 123.655 22.584 123.655 23.32C123.655 24.024 123.455 24.536 123.055 24.856C122.655 25.16 122.175 25.312 121.615 25.312C121.039 25.312 120.551 25.16 120.151 24.856C119.751 24.536 119.551 24.024 119.551 23.32ZM138.107 16.432C138.107 18.272 137.907 19.848 137.507 21.16C137.123 22.472 136.491 23.48 135.611 24.184C134.731 24.888 133.563 25.24 132.107 25.24C130.043 25.24 128.531 24.464 127.571 22.912C126.611 21.36 126.131 19.2 126.131 16.432C126.131 14.592 126.323 13.016 126.707 11.704C127.091 10.376 127.723 9.36 128.603 8.656C129.483 7.952 130.651 7.6 132.107 7.6C134.155 7.6 135.667 8.376 136.643 9.928C137.619 11.48 138.107 13.648 138.107 16.432ZM129.731 16.432C129.731 18.384 129.899 19.856 130.235 20.848C130.571 21.824 131.195 22.312 132.107 22.312C133.003 22.312 133.627 21.824 133.979 20.848C134.331 19.872 134.507 18.4 134.507 16.432C134.507 14.48 134.331 13.008 133.979 12.016C133.627 11.024 133.003 10.528 132.107 10.528C131.195 10.528 130.571 11.024 130.235 12.016C129.899 13.008 129.731 14.48 129.731 16.432ZM152.081 16.432C152.081 18.272 151.881 19.848 151.481 21.16C151.097 22.472 150.465 23.48 149.585 24.184C148.705 24.888 147.537 25.24 146.081 25.24C144.017 25.24 142.505 24.464 141.545 22.912C140.585 21.36 140.105 19.2 140.105 16.432C140.105 14.592 140.297 13.016 140.681 11.704C141.065 10.376 141.697 9.36 142.577 8.656C143.457 7.952 144.625 7.6 146.081 7.6C148.129 7.6 149.641 8.376 150.617 9.928C151.593 11.48 152.081 13.648 152.081 16.432ZM143.705 16.432C143.705 18.384 143.873 19.856 144.209 20.848C144.545 21.824 145.169 22.312 146.081 22.312C146.977 22.312 147.601 21.824 147.953 20.848C148.305 19.872 148.481 18.4 148.481 16.432C148.481 14.48 148.305 13.008 147.953 12.016C147.601 11.024 146.977 10.528 146.081 10.528C145.169 10.528 144.545 11.024 144.209 12.016C143.873 13.008 143.705 14.48 143.705 16.432ZM160.41 20.032V17.104H166.698V20.032H160.41ZM184.051 25H180.427V15.088C180.427 14.688 180.435 14.152 180.451 13.48C180.467 12.792 180.491 12.192 180.523 11.68C180.443 11.776 180.267 11.952 179.995 12.208C179.739 12.448 179.499 12.664 179.275 12.856L177.307 14.44L175.555 12.256L181.075 7.864H184.051V25ZM195.313 14.056C196.353 14.056 197.281 14.256 198.097 14.656C198.913 15.056 199.553 15.64 200.017 16.408C200.497 17.176 200.737 18.128 200.737 19.264C200.737 21.12 200.161 22.584 199.009 23.656C197.857 24.712 196.153 25.24 193.897 25.24C193.001 25.24 192.153 25.16 191.353 25C190.569 24.84 189.881 24.608 189.289 24.304V21.184C189.881 21.488 190.593 21.752 191.425 21.976C192.257 22.184 193.041 22.288 193.777 22.288C194.849 22.288 195.665 22.072 196.225 21.64C196.801 21.192 197.089 20.504 197.089 19.576C197.089 17.848 195.945 16.984 193.657 16.984C193.209 16.984 192.745 17.032 192.265 17.128C191.785 17.208 191.385 17.288 191.065 17.368L189.625 16.6L190.273 7.864H199.561V10.936H193.441L193.129 14.296C193.401 14.248 193.689 14.2 193.993 14.152C194.313 14.088 194.753 14.056 195.313 14.056ZM203.455 13.648C203.455 12.912 203.655 12.4 204.055 12.112C204.455 11.808 204.943 11.656 205.519 11.656C206.079 11.656 206.559 11.808 206.959 12.112C207.359 12.4 207.559 12.912 207.559 13.648C207.559 14.352 207.359 14.864 206.959 15.184C206.559 15.488 206.079 15.64 205.519 15.64C204.943 15.64 204.455 15.488 204.055 15.184C203.655 14.864 203.455 14.352 203.455 13.648ZM203.455 23.32C203.455 22.584 203.655 22.072 204.055 21.784C204.455 21.48 204.943 21.328 205.519 21.328C206.079 21.328 206.559 21.48 206.959 21.784C207.359 22.072 207.559 22.584 207.559 23.32C207.559 24.024 207.359 24.536 206.959 24.856C206.559 25.16 206.079 25.312 205.519 25.312C204.943 25.312 204.455 25.16 204.055 24.856C203.655 24.536 203.455 24.024 203.455 23.32ZM221.435 11.704C221.435 12.888 221.075 13.832 220.355 14.536C219.651 15.24 218.779 15.72 217.739 15.976V16.048C219.099 16.224 220.139 16.648 220.859 17.32C221.579 17.992 221.939 18.888 221.939 20.008C221.939 21 221.691 21.896 221.195 22.696C220.715 23.48 219.963 24.104 218.939 24.568C217.931 25.016 216.627 25.24 215.027 25.24C213.171 25.24 211.523 24.928 210.083 24.304V21.232C210.819 21.6 211.587 21.88 212.387 22.072C213.187 22.264 213.939 22.36 214.643 22.36C215.939 22.36 216.843 22.136 217.355 21.688C217.883 21.24 218.147 20.608 218.147 19.792C218.147 19.328 218.027 18.928 217.787 18.592C217.547 18.256 217.123 18.008 216.515 17.848C215.923 17.672 215.091 17.584 214.019 17.584H212.723V14.8H214.043C215.099 14.8 215.899 14.704 216.443 14.512C217.003 14.304 217.379 14.032 217.571 13.696C217.779 13.344 217.883 12.944 217.883 12.496C217.883 11.888 217.691 11.416 217.307 11.08C216.939 10.728 216.315 10.552 215.435 10.552C214.619 10.552 213.907 10.696 213.299 10.984C212.691 11.272 212.187 11.544 211.787 11.8L210.107 9.304C210.779 8.824 211.563 8.424 212.459 8.104C213.371 7.784 214.451 7.624 215.699 7.624C217.459 7.624 218.851 7.984 219.875 8.704C220.915 9.408 221.435 10.408 221.435 11.704ZM235.985 16.432C235.985 18.272 235.785 19.848 235.385 21.16C235.001 22.472 234.369 23.48 233.489 24.184C232.609 24.888 231.441 25.24 229.985 25.24C227.921 25.24 226.409 24.464 225.449 22.912C224.489 21.36 224.009 19.2 224.009 16.432C224.009 14.592 224.201 13.016 224.585 11.704C224.969 10.376 225.601 9.36 226.481 8.656C227.361 7.952 228.529 7.6 229.985 7.6C232.033 7.6 233.545 8.376 234.521 9.928C235.497 11.48 235.985 13.648 235.985 16.432ZM227.609 16.432C227.609 18.384 227.777 19.856 228.113 20.848C228.449 21.824 229.073 22.312 229.985 22.312C230.881 22.312 231.505 21.824 231.857 20.848C232.209 19.872 232.385 18.4 232.385 16.432C232.385 14.48 232.209 13.008 231.857 12.016C231.505 11.024 230.881 10.528 229.985 10.528C229.073 10.528 228.449 11.024 228.113 12.016C227.777 13.008 227.609 14.48 227.609 16.432ZM249.762 25.24C248.306 25.24 247.194 24.816 246.426 23.968C245.658 23.12 245.274 21.872 245.274 20.224V11.848H248.874V19.6C248.874 20.48 249.05 21.12 249.402 21.52C249.754 21.92 250.266 22.12 250.938 22.12C251.786 22.12 252.442 21.8 252.906 21.16C253.37 20.52 253.602 19.512 253.602 18.136V11.848H257.202V25H254.466L254.082 22.984H253.866C253.594 23.624 253.122 24.16 252.45 24.592C251.794 25.024 250.898 25.24 249.762 25.24ZM260.718 23.32C260.718 22.584 260.918 22.072 261.318 21.784C261.718 21.48 262.206 21.328 262.782 21.328C263.342 21.328 263.822 21.48 264.222 21.784C264.622 22.072 264.822 22.584 264.822 23.32C264.822 24.024 264.622 24.536 264.222 24.856C263.822 25.16 263.342 25.312 262.782 25.312C262.206 25.312 261.718 25.16 261.318 24.856C260.918 24.536 260.718 24.024 260.718 23.32Z" fill="white"/>
</svg>
