<svg width="265" height="26" viewBox="0 0 265 26" fill="none" xmlns="http://www.w3.org/2000/svg">
<path d="M6.57718 25.312C4.75318 25.312 3.36918 24.912 2.42518 24.112C1.49718 23.296 1.03318 22.128 1.03318 20.608V19.672C1.03318 19.032 1.10518 18.496 1.24918 18.064C1.40918 17.616 1.61718 17.216 1.87318 16.864C2.12918 16.512 2.33718 16.2 2.49718 15.928C2.67318 15.64 2.76118 15.344 2.76118 15.04C2.76118 14.752 2.68918 14.552 2.54518 14.44C2.40118 14.312 2.22518 14.248 2.01718 14.248C1.71318 14.248 1.36118 14.344 0.961176 14.536L0.385176 12.28C0.833176 12.04 1.31318 11.88 1.82518 11.8C2.35318 11.704 2.81718 11.656 3.21718 11.656C4.27318 11.656 5.01718 11.912 5.44918 12.424C5.89718 12.92 6.12118 13.592 6.12118 14.44C6.12118 14.936 6.04918 15.376 5.90518 15.76C5.76118 16.128 5.57718 16.512 5.35318 16.912C5.12918 17.28 4.94518 17.624 4.80118 17.944C4.65718 18.264 4.58518 18.728 4.58518 19.336V20.248C4.58518 21.048 4.75318 21.624 5.08918 21.976C5.44118 22.328 5.93718 22.504 6.57718 22.504C7.26518 22.504 7.75318 22.32 8.04118 21.952C8.34518 21.584 8.49718 21.072 8.49718 20.416V18.088C8.49718 17.608 8.38518 17.232 8.16118 16.96C7.95318 16.672 7.59318 16.528 7.08118 16.528H6.96118V14.632H7.10518C7.60118 14.632 7.96918 14.496 8.20918 14.224C8.44918 13.952 8.60118 13.608 8.66518 13.192C8.74518 12.76 8.78518 12.312 8.78518 11.848H12.3612C12.3612 12.84 12.2332 13.656 11.9772 14.296C11.7212 14.92 11.2732 15.344 10.6332 15.568V15.664C11.1932 15.84 11.5692 16.144 11.7612 16.576C11.9692 17.008 12.0732 17.504 12.0732 18.064V20.512C12.0732 22.096 11.6092 23.296 10.6812 24.112C9.75318 24.912 8.38518 25.312 6.57718 25.312ZM9.1463 10.024V4.576H12.4583V10.024H9.1463ZM19.3364 25.312C18.5204 25.312 17.7524 25.216 17.0324 25.024C16.3124 24.848 15.6404 24.592 15.0164 24.256L15.9764 21.64C16.3284 21.848 16.7524 22.032 17.2484 22.192C17.7444 22.352 18.2324 22.432 18.7124 22.432C19.6084 22.432 20.3204 22.096 20.8484 21.424C21.3764 20.736 21.6404 19.712 21.6404 18.352C21.6404 17.088 21.3764 16.12 20.8484 15.448C20.3204 14.76 19.4964 14.416 18.3764 14.416C17.8484 14.416 17.3044 14.496 16.7444 14.656C16.1844 14.8 15.7204 14.984 15.3524 15.208V12.256C15.8484 12.032 16.4084 11.856 17.0324 11.728C17.6564 11.6 18.3204 11.536 19.0244 11.536C21.2324 11.536 22.8324 12.144 23.8244 13.36C24.8164 14.56 25.3124 16.224 25.3124 18.352C25.3124 20.64 24.7924 22.376 23.7524 23.56C22.7124 24.728 21.2404 25.312 19.3364 25.312ZM30.6565 25L26.8405 11.848H30.4645L33.3685 22.096H33.5125C33.7685 22.096 34.0005 22.024 34.2085 21.88C34.4325 21.736 34.6325 21.544 34.8085 21.304C35.1125 20.856 35.3445 20.328 35.5045 19.72C35.6805 19.096 35.7685 18.48 35.7685 17.872C35.7685 16.8 35.5605 15.976 35.1445 15.4C34.7445 14.824 34.1845 14.536 33.4645 14.536C33.3205 14.536 33.1845 14.544 33.0565 14.56C32.9445 14.576 32.8405 14.608 32.7445 14.656L32.0725 11.896C32.4405 11.784 32.7845 11.72 33.1045 11.704C33.4245 11.672 33.6965 11.656 33.9205 11.656C34.7685 11.656 35.5045 11.768 36.1285 11.992C36.7525 12.216 37.2885 12.552 37.7365 13C38.8565 14.12 39.4165 15.72 39.4165 17.8C39.4165 19.096 39.2085 20.232 38.7925 21.208C38.3925 22.168 37.9045 22.928 37.3285 23.488C36.8485 23.952 36.2405 24.32 35.5045 24.592C34.7845 24.864 33.7925 25 32.5285 25H30.6565ZM42.5194 25V11.848H45.1594L45.6394 13.912H45.8314C46.1034 13.256 46.5754 12.712 47.2474 12.28C47.9194 11.832 48.7914 11.608 49.8634 11.608C52.9194 11.608 54.4474 13.248 54.4474 16.528V25H50.8474V17.248C50.8474 16.352 50.6634 15.712 50.2954 15.328C49.9434 14.928 49.4234 14.728 48.7354 14.728C47.9034 14.728 47.2554 15.064 46.7914 15.736C46.3434 16.408 46.1194 17.4 46.1194 18.712V25H42.5194ZM43.0937 10.024V8.512L45.5177 7.504H51.0137V5.848H54.0857V10.024H43.0937ZM51.2297 4.576V0.111999H54.3497V4.576H51.2297ZM76.2471 25H64.2711V22.48L68.5671 18.136C69.4311 17.24 70.1271 16.496 70.6551 15.904C71.1831 15.296 71.5671 14.752 71.8071 14.272C72.0471 13.776 72.1671 13.248 72.1671 12.688C72.1671 12 71.9751 11.488 71.5911 11.152C71.2231 10.816 70.7191 10.648 70.0791 10.648C69.4231 10.648 68.7831 10.8 68.1591 11.104C67.5351 11.408 66.8791 11.84 66.1911 12.4L64.2231 10.072C64.7031 9.656 65.2231 9.264 65.7831 8.896C66.3431 8.512 66.9831 8.208 67.7031 7.984C68.4391 7.744 69.3191 7.624 70.3431 7.624C71.4631 7.624 72.4231 7.832 73.2231 8.248C74.0391 8.648 74.6631 9.2 75.0951 9.904C75.5431 10.592 75.7671 11.376 75.7671 12.256C75.7671 13.2 75.5751 14.064 75.1911 14.848C74.8231 15.632 74.2791 16.408 73.5591 17.176C72.8551 17.944 71.9991 18.792 70.9911 19.72L68.7831 21.784V21.952H76.2471V25Z" fill="#C8FFD4"/>
<path d="M100.146 25H96.5222V15.088C96.5222 14.688 96.5302 14.152 96.5462 13.48C96.5622 12.792 96.5862 12.192 96.6182 11.68C96.5382 11.776 96.3622 11.952 96.0902 12.208C95.8342 12.448 95.5942 12.664 95.3702 12.856L93.4022 14.44L91.6502 12.256L97.1702 7.864H100.146V25ZM111.409 14.056C112.449 14.056 113.377 14.256 114.193 14.656C115.009 15.056 115.649 15.64 116.113 16.408C116.593 17.176 116.833 18.128 116.833 19.264C116.833 21.12 116.257 22.584 115.105 23.656C113.953 24.712 112.249 25.24 109.993 25.24C109.097 25.24 108.249 25.16 107.449 25C106.665 24.84 105.977 24.608 105.385 24.304V21.184C105.977 21.488 106.689 21.752 107.521 21.976C108.353 22.184 109.137 22.288 109.873 22.288C110.945 22.288 111.761 22.072 112.321 21.64C112.897 21.192 113.185 20.504 113.185 19.576C113.185 17.848 112.041 16.984 109.753 16.984C109.305 16.984 108.841 17.032 108.361 17.128C107.881 17.208 107.481 17.288 107.161 17.368L105.721 16.6L106.369 7.864H115.657V10.936H109.537L109.225 14.296C109.497 14.248 109.785 14.2 110.089 14.152C110.409 14.088 110.849 14.056 111.409 14.056ZM119.551 13.648C119.551 12.912 119.751 12.4 120.151 12.112C120.551 11.808 121.039 11.656 121.615 11.656C122.175 11.656 122.655 11.808 123.055 12.112C123.455 12.4 123.655 12.912 123.655 13.648C123.655 14.352 123.455 14.864 123.055 15.184C122.655 15.488 122.175 15.64 121.615 15.64C121.039 15.64 120.551 15.488 120.151 15.184C119.751 14.864 119.551 14.352 119.551 13.648ZM119.551 23.32C119.551 22.584 119.751 22.072 120.151 21.784C120.551 21.48 121.039 21.328 121.615 21.328C122.175 21.328 122.655 21.48 123.055 21.784C123.455 22.072 123.655 22.584 123.655 23.32C123.655 24.024 123.455 24.536 123.055 24.856C122.655 25.16 122.175 25.312 121.615 25.312C121.039 25.312 120.551 25.16 120.151 24.856C119.751 24.536 119.551 24.024 119.551 23.32ZM137.531 11.704C137.531 12.888 137.171 13.832 136.451 14.536C135.747 15.24 134.875 15.72 133.835 15.976V16.048C135.195 16.224 136.235 16.648 136.955 17.32C137.675 17.992 138.035 18.888 138.035 20.008C138.035 21 137.787 21.896 137.291 22.696C136.811 23.48 136.059 24.104 135.035 24.568C134.027 25.016 132.723 25.24 131.123 25.24C129.267 25.24 127.619 24.928 126.179 24.304V21.232C126.915 21.6 127.683 21.88 128.483 22.072C129.283 22.264 130.035 22.36 130.739 22.36C132.035 22.36 132.939 22.136 133.451 21.688C133.979 21.24 134.243 20.608 134.243 19.792C134.243 19.328 134.123 18.928 133.883 18.592C133.643 18.256 133.219 18.008 132.611 17.848C132.019 17.672 131.187 17.584 130.115 17.584H128.819V14.8H130.139C131.195 14.8 131.995 14.704 132.539 14.512C133.099 14.304 133.475 14.032 133.667 13.696C133.875 13.344 133.979 12.944 133.979 12.496C133.979 11.888 133.787 11.416 133.403 11.08C133.035 10.728 132.411 10.552 131.531 10.552C130.715 10.552 130.003 10.696 129.395 10.984C128.787 11.272 128.283 11.544 127.883 11.8L126.203 9.304C126.875 8.824 127.659 8.424 128.555 8.104C129.467 7.784 130.547 7.624 131.795 7.624C133.555 7.624 134.947 7.984 135.971 8.704C137.011 9.408 137.531 10.408 137.531 11.704ZM146.441 14.056C147.481 14.056 148.409 14.256 149.225 14.656C150.041 15.056 150.681 15.64 151.145 16.408C151.625 17.176 151.865 18.128 151.865 19.264C151.865 21.12 151.289 22.584 150.137 23.656C148.985 24.712 147.281 25.24 145.025 25.24C144.129 25.24 143.281 25.16 142.481 25C141.697 24.84 141.009 24.608 140.417 24.304V21.184C141.009 21.488 141.721 21.752 142.553 21.976C143.385 22.184 144.169 22.288 144.905 22.288C145.977 22.288 146.793 22.072 147.353 21.64C147.929 21.192 148.217 20.504 148.217 19.576C148.217 17.848 147.073 16.984 144.785 16.984C144.337 16.984 143.873 17.032 143.393 17.128C142.913 17.208 142.513 17.288 142.193 17.368L140.753 16.6L141.401 7.864H150.689V10.936H144.569L144.257 14.296C144.529 14.248 144.817 14.2 145.121 14.152C145.441 14.088 145.881 14.056 146.441 14.056ZM160.41 20.032V17.104H166.698V20.032H160.41ZM184.051 25H180.427V15.088C180.427 14.688 180.435 14.152 180.451 13.48C180.467 12.792 180.491 12.192 180.523 11.68C180.443 11.776 180.267 11.952 179.995 12.208C179.739 12.448 179.499 12.664 179.275 12.856L177.307 14.44L175.555 12.256L181.075 7.864H184.051V25ZM190.777 25L197.209 10.912H188.761V7.864H201.049V10.144L194.569 25H190.777ZM203.455 13.648C203.455 12.912 203.655 12.4 204.055 12.112C204.455 11.808 204.943 11.656 205.519 11.656C206.079 11.656 206.559 11.808 206.959 12.112C207.359 12.4 207.559 12.912 207.559 13.648C207.559 14.352 207.359 14.864 206.959 15.184C206.559 15.488 206.079 15.64 205.519 15.64C204.943 15.64 204.455 15.488 204.055 15.184C203.655 14.864 203.455 14.352 203.455 13.648ZM203.455 23.32C203.455 22.584 203.655 22.072 204.055 21.784C204.455 21.48 204.943 21.328 205.519 21.328C206.079 21.328 206.559 21.48 206.959 21.784C207.359 22.072 207.559 22.584 207.559 23.32C207.559 24.024 207.359 24.536 206.959 24.856C206.559 25.16 206.079 25.312 205.519 25.312C204.943 25.312 204.455 25.16 204.055 24.856C203.655 24.536 203.455 24.024 203.455 23.32ZM222.011 16.432C222.011 18.272 221.811 19.848 221.411 21.16C221.027 22.472 220.395 23.48 219.515 24.184C218.635 24.888 217.467 25.24 216.011 25.24C213.947 25.24 212.435 24.464 211.475 22.912C210.515 21.36 210.035 19.2 210.035 16.432C210.035 14.592 210.227 13.016 210.611 11.704C210.995 10.376 211.627 9.36 212.507 8.656C213.387 7.952 214.555 7.6 216.011 7.6C218.059 7.6 219.571 8.376 220.547 9.928C221.523 11.48 222.011 13.648 222.011 16.432ZM213.635 16.432C213.635 18.384 213.803 19.856 214.139 20.848C214.475 21.824 215.099 22.312 216.011 22.312C216.907 22.312 217.531 21.824 217.883 20.848C218.235 19.872 218.411 18.4 218.411 16.432C218.411 14.48 218.235 13.008 217.883 12.016C217.531 11.024 216.907 10.528 216.011 10.528C215.099 10.528 214.475 11.024 214.139 12.016C213.803 13.008 213.635 14.48 213.635 16.432ZM230.345 14.056C231.385 14.056 232.313 14.256 233.129 14.656C233.945 15.056 234.585 15.64 235.049 16.408C235.529 17.176 235.769 18.128 235.769 19.264C235.769 21.12 235.193 22.584 234.041 23.656C232.889 24.712 231.185 25.24 228.929 25.24C228.033 25.24 227.185 25.16 226.385 25C225.601 24.84 224.913 24.608 224.321 24.304V21.184C224.913 21.488 225.625 21.752 226.457 21.976C227.289 22.184 228.073 22.288 228.809 22.288C229.881 22.288 230.697 22.072 231.257 21.64C231.833 21.192 232.121 20.504 232.121 19.576C232.121 17.848 230.977 16.984 228.689 16.984C228.241 16.984 227.777 17.032 227.297 17.128C226.817 17.208 226.417 17.288 226.097 17.368L224.657 16.6L225.305 7.864H234.593V10.936H228.473L228.161 14.296C228.433 14.248 228.721 14.2 229.025 14.152C229.345 14.088 229.785 14.056 230.345 14.056ZM249.762 25.24C248.306 25.24 247.194 24.816 246.426 23.968C245.658 23.12 245.274 21.872 245.274 20.224V11.848H248.874V19.6C248.874 20.48 249.05 21.12 249.402 21.52C249.754 21.92 250.266 22.12 250.938 22.12C251.786 22.12 252.442 21.8 252.906 21.16C253.37 20.52 253.602 19.512 253.602 18.136V11.848H257.202V25H254.466L254.082 22.984H253.866C253.594 23.624 253.122 24.16 252.45 24.592C251.794 25.024 250.898 25.24 249.762 25.24ZM260.718 23.32C260.718 22.584 260.918 22.072 261.318 21.784C261.718 21.48 262.206 21.328 262.782 21.328C263.342 21.328 263.822 21.48 264.222 21.784C264.622 22.072 264.822 22.584 264.822 23.32C264.822 24.024 264.622 24.536 264.222 24.856C263.822 25.16 263.342 25.312 262.782 25.312C262.206 25.312 261.718 25.16 261.318 24.856C260.918 24.536 260.718 24.024 260.718 23.32Z" fill="white"/>
</svg>
