<svg width="221" height="40" viewBox="0 0 221 40" fill="none" xmlns="http://www.w3.org/2000/svg">
<path d="M0.81482 15V8.826C0.81482 7.578 1.15082 6.618 1.82282 5.946C2.49482 5.274 3.56282 4.938 5.02682 4.938C6.50282 4.938 7.57082 5.274 8.23082 5.946C8.90282 6.618 9.23882 7.578 9.23882 8.826V15H7.31282V8.826C7.31282 7.29 6.54482 6.522 5.00882 6.522C3.48482 6.522 2.72282 7.29 2.72282 8.826V10.698L2.77682 10.716C3.02882 10.248 3.33482 9.942 3.69482 9.798C4.06682 9.642 4.57682 9.564 5.22482 9.564H5.78282V11.076H5.22482C4.54082 11.076 4.01882 11.178 3.65882 11.382C3.29882 11.586 3.05282 11.856 2.92082 12.192C2.78882 12.528 2.72282 12.894 2.72282 13.29V15H0.81482ZM14.0097 15.18C13.4097 15.18 12.8997 15.036 12.4797 14.748C12.0597 14.448 11.8497 13.92 11.8497 13.164V11.598C11.8497 10.866 12.0117 10.332 12.3357 9.996C12.6597 9.66 13.0797 9.42 13.5957 9.276L13.6137 9.204L11.5797 8.466V7.908C11.5797 7.356 11.7417 6.858 12.0657 6.414C12.3897 5.958 12.8517 5.598 13.4517 5.334C14.0637 5.07 14.7837 4.938 15.6117 4.938C16.3437 4.938 17.0097 5.058 17.6097 5.298C18.2217 5.526 18.7077 5.892 19.0677 6.396C19.4397 6.9 19.6257 7.566 19.6257 8.394V11.616C19.6257 12.288 19.7757 12.78 20.0757 13.092C20.3757 13.392 20.7777 13.542 21.2817 13.542C21.9537 13.542 22.4877 13.29 22.8837 12.786C23.2917 12.282 23.4957 11.61 23.4957 10.77V5.136H25.4217V15H23.8737L23.7297 13.434H23.6217C23.4177 13.974 23.0577 14.4 22.5417 14.712C22.0377 15.024 21.4497 15.18 20.7777 15.18C19.8297 15.18 19.0797 14.928 18.5277 14.424C17.9877 13.92 17.7177 13.08 17.7177 11.904V8.574C17.7177 8.034 17.6157 7.614 17.4117 7.314C17.2197 7.014 16.9617 6.804 16.6377 6.684C16.3137 6.564 15.9657 6.504 15.5937 6.504C15.0057 6.504 14.5197 6.63 14.1357 6.882C13.7637 7.134 13.5657 7.506 13.5417 7.998L15.4497 8.898L15.3057 9.852C14.8497 9.864 14.4777 9.996 14.1897 10.248C13.9017 10.488 13.7577 10.908 13.7577 11.508V12.948C13.7577 13.452 14.0097 13.704 14.5137 13.704C14.7537 13.704 14.9697 13.668 15.1617 13.596L15.3957 14.892C15.1677 15 14.9397 15.072 14.7117 15.108C14.4837 15.156 14.2497 15.18 14.0097 15.18ZM32.2795 15.198C30.8155 15.198 29.7655 14.862 29.1295 14.19C28.4935 13.518 28.1755 12.558 28.1755 11.31V5.136H30.1015V11.364C30.1015 12.108 30.2755 12.672 30.6235 13.056C30.9835 13.428 31.5355 13.614 32.2795 13.614C33.0355 13.614 33.5875 13.428 33.9355 13.056C34.2955 12.672 34.4755 12.108 34.4755 11.364V5.136H36.4015V11.31C36.4015 12.558 36.0775 13.518 35.4295 14.19C34.7935 14.862 33.7435 15.198 32.2795 15.198ZM42.4546 15.18C41.4826 15.18 40.7146 14.958 40.1506 14.514C39.5986 14.07 39.2086 13.47 38.9806 12.714C38.7526 11.958 38.6386 11.106 38.6386 10.158C38.6386 8.79 38.8306 7.728 39.2146 6.972C39.5986 6.216 40.1326 5.688 40.8166 5.388C41.5006 5.088 42.2926 4.938 43.1926 4.938C44.6926 4.938 45.7726 5.256 46.4326 5.892C47.0926 6.528 47.4226 7.386 47.4226 8.466V15H45.4966V8.646C45.4966 7.95 45.3226 7.422 44.9746 7.062C44.6386 6.702 44.0566 6.522 43.2286 6.522C42.7126 6.522 42.2566 6.618 41.8606 6.81C41.4646 7.002 41.1526 7.362 40.9246 7.89C40.6966 8.406 40.5826 9.162 40.5826 10.158C40.5826 10.818 40.6486 11.406 40.7806 11.922C40.9126 12.438 41.1346 12.846 41.4466 13.146C41.7706 13.446 42.2146 13.596 42.7786 13.596C43.1146 13.596 43.4086 13.554 43.6606 13.47L43.8406 14.946C43.6486 15.03 43.4266 15.09 43.1746 15.126C42.9226 15.162 42.6826 15.18 42.4546 15.18ZM39.182 3.624V2.796L40.64 2.166H45.284V0.78H47.03V2.814H47.012V3.624H39.182ZM49.8543 15V8.826C49.8543 7.578 50.1903 6.618 50.8623 5.946C51.5343 5.274 52.6023 4.938 54.0663 4.938C55.5423 4.938 56.6103 5.274 57.2703 5.946C57.9423 6.618 58.2783 7.578 58.2783 8.826V15H56.3523V8.826C56.3523 7.29 55.5843 6.522 54.0483 6.522C52.5243 6.522 51.7623 7.29 51.7623 8.826V10.698L51.8163 10.716C52.0683 10.248 52.3743 9.942 52.7343 9.798C53.1063 9.642 53.6163 9.564 54.2643 9.564H54.8223V11.076H54.2643C53.5803 11.076 53.0583 11.178 52.6983 11.382C52.3383 11.586 52.0923 11.856 51.9603 12.192C51.8283 12.528 51.7623 12.894 51.7623 13.29V15H49.8543ZM63.0491 15.18C62.4491 15.18 61.9391 15.036 61.5191 14.748C61.0991 14.448 60.8891 13.92 60.8891 13.164V11.598C60.8891 10.866 61.0511 10.332 61.3751 9.996C61.6991 9.66 62.1191 9.42 62.6351 9.276L62.6531 9.204L60.6191 8.466V7.908C60.6191 7.356 60.7811 6.858 61.1051 6.414C61.4291 5.958 61.8911 5.598 62.4911 5.334C63.1031 5.07 63.8231 4.938 64.6511 4.938C65.3831 4.938 66.0491 5.058 66.6491 5.298C67.2611 5.526 67.7471 5.892 68.1071 6.396C68.4791 6.9 68.6651 7.566 68.6651 8.394V11.616C68.6651 12.288 68.8151 12.78 69.1151 13.092C69.4151 13.392 69.8171 13.542 70.3211 13.542C70.9931 13.542 71.5271 13.29 71.9231 12.786C72.3311 12.282 72.5351 11.61 72.5351 10.77V5.136H74.4611V15H72.9131L72.7691 13.434H72.6611C72.4571 13.974 72.0971 14.4 71.5811 14.712C71.0771 15.024 70.4891 15.18 69.8171 15.18C68.8691 15.18 68.1191 14.928 67.5671 14.424C67.0271 13.92 66.7571 13.08 66.7571 11.904V8.574C66.7571 8.034 66.6551 7.614 66.4511 7.314C66.2591 7.014 66.0011 6.804 65.6771 6.684C65.3531 6.564 65.0051 6.504 64.6331 6.504C64.0451 6.504 63.5591 6.63 63.1751 6.882C62.8031 7.134 62.6051 7.506 62.5811 7.998L64.4891 8.898L64.3451 9.852C63.8891 9.864 63.5171 9.996 63.2291 10.248C62.9411 10.488 62.7971 10.908 62.7971 11.508V12.948C62.7971 13.452 63.0491 13.704 63.5531 13.704C63.7931 13.704 64.0091 13.668 64.2011 13.596L64.4351 14.892C64.2071 15 63.9791 15.072 63.7511 15.108C63.5231 15.156 63.2891 15.18 63.0491 15.18ZM78.619 8.916C77.851 8.916 77.305 8.748 76.981 8.412C76.669 8.076 76.513 7.704 76.513 7.296C76.513 6.9 76.615 6.528 76.819 6.18L78.367 6.396C78.343 6.468 78.313 6.558 78.277 6.666C78.253 6.762 78.241 6.864 78.241 6.972C78.241 7.14 78.283 7.272 78.367 7.368C78.463 7.464 78.625 7.512 78.853 7.512H81.265V8.916H78.619ZM78.619 13.956C77.851 13.956 77.305 13.788 76.981 13.452C76.669 13.116 76.513 12.744 76.513 12.336C76.513 11.94 76.615 11.568 76.819 11.22L78.367 11.436C78.343 11.508 78.313 11.598 78.277 11.706C78.253 11.802 78.241 11.904 78.241 12.012C78.241 12.18 78.283 12.312 78.367 12.408C78.463 12.504 78.625 12.552 78.853 12.552H81.265V13.956H78.619ZM85.3825 15.198C84.8785 15.198 84.3925 15.144 83.9245 15.036C83.4565 14.928 82.9765 14.742 82.4845 14.478L83.0605 13.038C83.3245 13.194 83.6305 13.332 83.9785 13.452C84.3265 13.56 84.7105 13.614 85.1305 13.614C85.9465 13.614 86.5885 13.314 87.0565 12.714C87.5245 12.102 87.7585 11.208 87.7585 10.032C87.7585 8.892 87.5185 8.022 87.0385 7.422C86.5585 6.822 85.8265 6.522 84.8425 6.522C84.4585 6.522 84.0625 6.57 83.6545 6.666C83.2585 6.75 82.9105 6.876 82.6105 7.044V5.442C82.9585 5.262 83.3485 5.136 83.7805 5.064C84.2245 4.98 84.6685 4.938 85.1125 4.938C86.2045 4.938 87.0865 5.148 87.7585 5.568C88.4425 5.988 88.9405 6.582 89.2525 7.35C89.5765 8.106 89.7385 9 89.7385 10.032C89.7385 11.652 89.3665 12.918 88.6225 13.83C87.8905 14.742 86.8105 15.198 85.3825 15.198ZM81.4714 3.624V2.796L82.9294 2.166H89.3014V3.624H81.4714ZM91.8993 15V5.136H93.2673L93.5733 6.702H93.6633C93.8673 6.174 94.2333 5.754 94.7613 5.442C95.3013 5.118 95.9613 4.956 96.7413 4.956C97.8333 4.956 98.6793 5.244 99.2793 5.82C99.8793 6.384 100.179 7.272 100.179 8.484V15H98.2533V8.7C98.2533 7.296 97.5933 6.594 96.2733 6.594C95.4933 6.594 94.8873 6.876 94.4553 7.44C94.0353 7.992 93.8253 8.706 93.8253 9.582V15H91.8993ZM106.698 15.18C105.198 15.18 104.136 14.904 103.512 14.352C102.888 13.788 102.576 13.044 102.576 12.12C102.576 11.568 102.654 11.13 102.81 10.806C102.978 10.482 103.188 10.236 103.44 10.068C103.692 9.9 103.95 9.792 104.214 9.744V9.672C103.962 9.6 103.704 9.48 103.44 9.312C103.188 9.144 102.972 8.91 102.792 8.61C102.624 8.31 102.54 7.932 102.54 7.476C102.54 7.056 102.636 6.66 102.828 6.288C103.032 5.904 103.35 5.592 103.782 5.352C104.226 5.112 104.814 4.992 105.546 4.992C105.858 4.992 106.176 5.016 106.5 5.064C106.824 5.112 107.076 5.184 107.256 5.28L106.932 6.684C106.812 6.648 106.65 6.612 106.446 6.576C106.242 6.54 106.038 6.522 105.834 6.522C105.378 6.522 105.036 6.63 104.808 6.846C104.592 7.062 104.484 7.344 104.484 7.692C104.484 8.076 104.58 8.37 104.772 8.574C104.964 8.766 105.21 8.898 105.51 8.97C105.822 9.042 106.14 9.078 106.464 9.078H106.824V10.392H106.464C105.804 10.392 105.318 10.512 105.006 10.752C104.694 10.992 104.538 11.382 104.538 11.922C104.538 12.222 104.598 12.504 104.718 12.768C104.85 13.032 105.072 13.248 105.384 13.416C105.696 13.572 106.14 13.65 106.716 13.65C107.556 13.65 108.132 13.476 108.444 13.128C108.756 12.78 108.912 12.312 108.912 11.724V5.136H110.838V11.616C110.838 12.864 110.502 13.77 109.83 14.334C109.17 14.898 108.126 15.18 106.698 15.18ZM116.176 15V8.142C116.176 7.578 116.044 7.164 115.78 6.9C115.516 6.636 115.084 6.504 114.484 6.504C114.064 6.504 113.674 6.564 113.314 6.684C112.954 6.792 112.606 6.942 112.27 7.134V5.478C112.522 5.358 112.87 5.238 113.314 5.118C113.77 4.998 114.31 4.938 114.934 4.938C115.882 4.938 116.644 5.154 117.22 5.586C117.808 6.018 118.102 6.768 118.102 7.836V15H116.176ZM120.641 15V11.706C120.641 10.95 120.803 10.392 121.127 10.032C121.451 9.672 121.877 9.42 122.405 9.276L122.423 9.204L120.461 8.466V7.908C120.461 7.392 120.623 6.912 120.947 6.468C121.283 6.012 121.763 5.646 122.387 5.37C123.011 5.082 123.767 4.938 124.655 4.938C125.435 4.938 126.143 5.064 126.779 5.316C127.415 5.556 127.919 5.94 128.291 6.468C128.663 6.984 128.849 7.65 128.849 8.466V15H126.923V8.628C126.923 7.884 126.707 7.35 126.275 7.026C125.843 6.69 125.291 6.522 124.619 6.522C123.935 6.522 123.401 6.666 123.017 6.954C122.633 7.23 122.435 7.584 122.423 8.016L124.277 8.916L124.115 9.87C123.659 9.882 123.287 10.032 122.999 10.32C122.711 10.608 122.567 11.052 122.567 11.652V15H120.641ZM134.22 15V8.142C134.22 7.578 134.088 7.164 133.824 6.9C133.56 6.636 133.128 6.504 132.528 6.504C132.108 6.504 131.718 6.564 131.358 6.684C130.998 6.792 130.65 6.942 130.314 7.134V5.478C130.566 5.358 130.914 5.238 131.358 5.118C131.814 4.998 132.354 4.938 132.978 4.938C133.926 4.938 134.688 5.154 135.264 5.586C135.852 6.018 136.146 6.768 136.146 7.836V15H134.22ZM141.727 15.198C141.019 15.198 140.341 15.126 139.693 14.982C139.057 14.838 138.511 14.658 138.055 14.442L138.613 12.894C138.985 13.05 139.441 13.212 139.981 13.38C140.533 13.548 141.109 13.632 141.709 13.632C142.297 13.632 142.777 13.53 143.149 13.326C143.521 13.11 143.707 12.798 143.707 12.39C143.707 12.018 143.533 11.712 143.185 11.472C142.837 11.232 142.309 10.998 141.601 10.77C140.509 10.422 139.669 10.026 139.081 9.582C138.505 9.126 138.217 8.472 138.217 7.62C138.217 6.804 138.541 6.156 139.189 5.676C139.849 5.184 140.833 4.938 142.141 4.938C142.741 4.938 143.299 4.992 143.815 5.1C144.343 5.208 144.751 5.346 145.039 5.514V7.098C144.727 6.954 144.301 6.816 143.761 6.684C143.233 6.552 142.693 6.486 142.141 6.486C141.421 6.486 140.905 6.594 140.593 6.81C140.293 7.014 140.143 7.26 140.143 7.548C140.143 7.92 140.323 8.208 140.683 8.412C141.055 8.616 141.679 8.868 142.555 9.168C143.155 9.372 143.683 9.6 144.139 9.852C144.607 10.104 144.973 10.422 145.237 10.806C145.501 11.178 145.633 11.658 145.633 12.246C145.633 12.762 145.507 13.248 145.255 13.704C145.015 14.148 144.607 14.508 144.031 14.784C143.467 15.06 142.699 15.198 141.727 15.198ZM150.206 15.18C149.162 15.18 148.358 14.94 147.794 14.46C147.242 13.968 146.966 13.266 146.966 12.354C146.966 11.37 147.32 10.602 148.028 10.05C148.736 9.498 149.894 9.174 151.502 9.078L153.266 8.952V8.484C153.266 7.764 153.098 7.254 152.762 6.954C152.426 6.642 151.868 6.486 151.088 6.486C150.476 6.486 149.888 6.57 149.324 6.738C148.76 6.906 148.244 7.128 147.776 7.404V5.694C148.124 5.514 148.598 5.346 149.198 5.19C149.81 5.022 150.5 4.938 151.268 4.938C151.748 4.938 152.18 4.98 152.564 5.064C152.948 5.136 153.266 5.274 153.518 5.478C153.698 5.37 153.848 5.238 153.968 5.082C154.088 4.914 154.148 4.716 154.148 4.488H155.948C155.948 4.932 155.828 5.322 155.588 5.658C155.348 5.994 155.024 6.258 154.616 6.45C154.808 6.678 154.946 6.96 155.03 7.296C155.126 7.632 155.174 8.016 155.174 8.448V15H153.266V10.482L151.736 10.59C150.668 10.674 149.924 10.854 149.504 11.13C149.096 11.394 148.892 11.784 148.892 12.3C148.892 12.792 149.048 13.152 149.36 13.38C149.672 13.608 150.098 13.722 150.638 13.722C150.986 13.722 151.316 13.674 151.628 13.578L151.862 14.928C151.394 15.096 150.842 15.18 150.206 15.18ZM160.557 15V8.142C160.557 7.578 160.425 7.164 160.161 6.9C159.897 6.636 159.465 6.504 158.865 6.504C158.445 6.504 158.055 6.564 157.695 6.684C157.335 6.792 156.987 6.942 156.651 7.134V5.478C156.903 5.358 157.251 5.238 157.695 5.118C158.151 4.998 158.691 4.938 159.315 4.938C160.263 4.938 161.025 5.154 161.601 5.586C162.189 6.018 162.483 6.768 162.483 7.836V15H160.557ZM168.064 15.198C167.356 15.198 166.678 15.126 166.03 14.982C165.394 14.838 164.848 14.658 164.392 14.442L164.95 12.894C165.322 13.05 165.778 13.212 166.318 13.38C166.87 13.548 167.446 13.632 168.046 13.632C168.634 13.632 169.114 13.53 169.486 13.326C169.858 13.11 170.044 12.798 170.044 12.39C170.044 12.018 169.87 11.712 169.522 11.472C169.174 11.232 168.646 10.998 167.938 10.77C166.846 10.422 166.006 10.026 165.418 9.582C164.842 9.126 164.554 8.472 164.554 7.62C164.554 6.804 164.878 6.156 165.526 5.676C166.186 5.184 167.17 4.938 168.478 4.938C169.078 4.938 169.636 4.992 170.152 5.1C170.68 5.208 171.088 5.346 171.376 5.514V7.098C171.064 6.954 170.638 6.816 170.098 6.684C169.57 6.552 169.03 6.486 168.478 6.486C167.758 6.486 167.242 6.594 166.93 6.81C166.63 7.014 166.48 7.26 166.48 7.548C166.48 7.92 166.66 8.208 167.02 8.412C167.392 8.616 168.016 8.868 168.892 9.168C169.492 9.372 170.02 9.6 170.476 9.852C170.944 10.104 171.31 10.422 171.574 10.806C171.838 11.178 171.97 11.658 171.97 12.246C171.97 12.762 171.844 13.248 171.592 13.704C171.352 14.148 170.944 14.508 170.368 14.784C169.804 15.06 169.036 15.198 168.064 15.198ZM176.543 15.18C175.499 15.18 174.695 14.94 174.131 14.46C173.579 13.968 173.303 13.266 173.303 12.354C173.303 11.37 173.657 10.602 174.365 10.05C175.073 9.498 176.231 9.174 177.839 9.078L179.603 8.952V8.484C179.603 7.764 179.435 7.254 179.099 6.954C178.763 6.642 178.205 6.486 177.425 6.486C176.813 6.486 176.225 6.57 175.661 6.738C175.097 6.906 174.581 7.128 174.113 7.404V5.694C174.461 5.514 174.935 5.346 175.535 5.19C176.147 5.022 176.837 4.938 177.605 4.938C178.085 4.938 178.517 4.98 178.901 5.064C179.285 5.136 179.603 5.274 179.855 5.478C180.035 5.37 180.185 5.238 180.305 5.082C180.425 4.914 180.485 4.716 180.485 4.488H182.285C182.285 4.932 182.165 5.322 181.925 5.658C181.685 5.994 181.361 6.258 180.953 6.45C181.145 6.678 181.283 6.96 181.367 7.296C181.463 7.632 181.511 8.016 181.511 8.448V15H179.603V10.482L178.073 10.59C177.005 10.674 176.261 10.854 175.841 11.13C175.433 11.394 175.229 11.784 175.229 12.3C175.229 12.792 175.385 13.152 175.697 13.38C176.009 13.608 176.435 13.722 176.975 13.722C177.323 13.722 177.653 13.674 177.965 13.578L178.199 14.928C177.731 15.096 177.179 15.18 176.543 15.18ZM187.542 15.18C186.474 15.18 185.64 14.892 185.04 14.316C184.452 13.74 184.158 12.846 184.158 11.634V5.136H186.084V11.436C186.084 12.84 186.738 13.542 188.046 13.542C188.826 13.542 189.426 13.284 189.846 12.768C190.278 12.24 190.494 11.502 190.494 10.554V5.136H192.42V15H190.89L190.746 13.524H190.638C190.422 14.004 190.056 14.4 189.54 14.712C189.024 15.024 188.358 15.18 187.542 15.18ZM197.587 15.18C196.999 15.18 196.495 15.036 196.075 14.748C195.667 14.448 195.463 13.92 195.463 13.164V5.136H197.389V12.93C197.389 13.194 197.443 13.386 197.551 13.506C197.659 13.614 197.845 13.668 198.109 13.668C198.205 13.668 198.313 13.656 198.433 13.632C198.553 13.608 198.667 13.578 198.775 13.542L198.991 14.892C198.763 15 198.529 15.072 198.289 15.108C198.049 15.156 197.815 15.18 197.587 15.18ZM200.64 15V5.136H202.008L202.314 6.702H202.404C202.608 6.174 202.974 5.754 203.502 5.442C204.042 5.118 204.702 4.956 205.482 4.956C206.574 4.956 207.42 5.244 208.02 5.82C208.62 6.384 208.92 7.272 208.92 8.484V15H206.994V8.7C206.994 7.296 206.334 6.594 205.014 6.594C204.234 6.594 203.628 6.876 203.196 7.44C202.776 7.992 202.566 8.706 202.566 9.582V15H200.64ZM211.532 15V8.826C211.532 7.578 211.868 6.618 212.54 5.946C213.212 5.274 214.28 4.938 215.744 4.938C216.248 4.938 216.704 4.986 217.112 5.082C217.52 5.178 217.874 5.334 218.174 5.55C218.39 5.442 218.57 5.304 218.714 5.136C218.858 4.956 218.93 4.74 218.93 4.488H220.73C220.73 4.956 220.598 5.364 220.334 5.712C220.082 6.06 219.728 6.324 219.272 6.504C219.512 6.768 219.686 7.104 219.794 7.512C219.902 7.908 219.956 8.352 219.956 8.844V15H218.03V8.826C218.03 7.29 217.268 6.522 215.744 6.522C214.208 6.522 213.44 7.29 213.44 8.826V10.698L213.494 10.716C213.758 10.248 214.07 9.942 214.43 9.798C214.79 9.642 215.3 9.564 215.96 9.564H216.5V11.076H215.96C215.264 11.076 214.736 11.178 214.376 11.382C214.016 11.586 213.77 11.856 213.638 12.192C213.506 12.528 213.44 12.894 213.44 13.29V15H211.532ZM53.7036 35.18C52.9116 35.18 52.2396 35.024 51.6876 34.712C51.1476 34.4 50.7756 33.974 50.5716 33.434H50.4636L50.3196 35H48.7896V25.136H50.7156V30.554C50.7156 31.502 50.9316 32.24 51.3636 32.768C51.7956 33.284 52.4076 33.542 53.1996 33.542C54.4956 33.542 55.1436 32.84 55.1436 31.436V25.136H57.0696V31.688C57.0696 32.864 56.7756 33.74 56.1876 34.316C55.5996 34.892 54.7716 35.18 53.7036 35.18ZM59.8244 35V25.136H61.7324V29.24H61.8044L65.6024 25.136H67.7984V25.208L64.9904 28.124C65.9264 28.22 66.6344 28.568 67.1144 29.168C67.6064 29.756 67.8524 30.512 67.8524 31.436V35H65.9264V31.598C65.9264 30.962 65.7464 30.464 65.3864 30.104C65.0264 29.744 64.4564 29.54 63.6764 29.492L61.7324 31.508V35H59.8244ZM72.9767 35V28.142C72.9767 27.578 72.8447 27.164 72.5807 26.9C72.3167 26.636 71.8847 26.504 71.2847 26.504C70.8647 26.504 70.4747 26.564 70.1147 26.684C69.7547 26.792 69.4067 26.942 69.0707 27.134V25.478C69.3227 25.358 69.6707 25.238 70.1147 25.118C70.5707 24.998 71.1107 24.938 71.7347 24.938C72.6827 24.938 73.4447 25.154 74.0207 25.586C74.6087 26.018 74.9027 26.768 74.9027 27.836V35H72.9767ZM79.6914 35.198C79.1874 35.198 78.7014 35.144 78.2334 35.036C77.7654 34.928 77.2854 34.742 76.7934 34.478L77.3694 33.038C77.6334 33.194 77.9394 33.332 78.2874 33.452C78.6354 33.56 79.0194 33.614 79.4394 33.614C80.2554 33.614 80.8974 33.314 81.3654 32.714C81.8334 32.102 82.0674 31.208 82.0674 30.032C82.0674 28.892 81.8274 28.022 81.3474 27.422C80.8674 26.822 80.1354 26.522 79.1514 26.522C78.7674 26.522 78.3714 26.57 77.9634 26.666C77.5674 26.75 77.2194 26.876 76.9194 27.044V25.442C77.2674 25.262 77.6574 25.136 78.0894 25.064C78.5334 24.98 78.9774 24.938 79.4214 24.938C80.5134 24.938 81.3954 25.148 82.0674 25.568C82.7514 25.988 83.2494 26.582 83.5614 27.35C83.8854 28.106 84.0474 29 84.0474 30.032C84.0474 31.652 83.6754 32.918 82.9314 33.83C82.1994 34.742 81.1194 35.198 79.6914 35.198ZM75.7803 23.624V22.796L77.2383 22.166H83.6103V23.624H75.7803ZM86.2082 35V25.136H87.5762L87.8822 26.702H87.9722C88.1762 26.174 88.5422 25.754 89.0702 25.442C89.6102 25.118 90.2702 24.956 91.0502 24.956C92.1422 24.956 92.9882 25.244 93.5882 25.82C94.1882 26.384 94.4882 27.272 94.4882 28.484V35H92.5622V28.7C92.5622 27.296 91.9022 26.594 90.5822 26.594C89.8022 26.594 89.1962 26.876 88.7642 27.44C88.3442 27.992 88.1342 28.706 88.1342 29.582V35H86.2082ZM101.007 35.18C99.5068 35.18 98.4448 34.904 97.8208 34.352C97.1968 33.788 96.8848 33.044 96.8848 32.12C96.8848 31.568 96.9628 31.13 97.1188 30.806C97.2868 30.482 97.4968 30.236 97.7488 30.068C98.0008 29.9 98.2588 29.792 98.5228 29.744V29.672C98.2708 29.6 98.0128 29.48 97.7488 29.312C97.4968 29.144 97.2808 28.91 97.1008 28.61C96.9328 28.31 96.8488 27.932 96.8488 27.476C96.8488 27.056 96.9448 26.66 97.1368 26.288C97.3408 25.904 97.6588 25.592 98.0908 25.352C98.5348 25.112 99.1228 24.992 99.8548 24.992C100.167 24.992 100.485 25.016 100.809 25.064C101.133 25.112 101.385 25.184 101.565 25.28L101.241 26.684C101.121 26.648 100.959 26.612 100.755 26.576C100.551 26.54 100.347 26.522 100.143 26.522C99.6868 26.522 99.3448 26.63 99.1168 26.846C98.9008 27.062 98.7928 27.344 98.7928 27.692C98.7928 28.076 98.8888 28.37 99.0808 28.574C99.2728 28.766 99.5188 28.898 99.8188 28.97C100.131 29.042 100.449 29.078 100.773 29.078H101.133V30.392H100.773C100.113 30.392 99.6268 30.512 99.3148 30.752C99.0028 30.992 98.8468 31.382 98.8468 31.922C98.8468 32.222 98.9068 32.504 99.0268 32.768C99.1588 33.032 99.3808 33.248 99.6928 33.416C100.005 33.572 100.449 33.65 101.025 33.65C101.865 33.65 102.441 33.476 102.753 33.128C103.065 32.78 103.221 32.312 103.221 31.724V25.136H105.147V31.616C105.147 32.864 104.811 33.77 104.139 34.334C103.479 34.898 102.435 35.18 101.007 35.18ZM110.485 35V28.142C110.485 27.578 110.353 27.164 110.089 26.9C109.825 26.636 109.393 26.504 108.793 26.504C108.373 26.504 107.983 26.564 107.623 26.684C107.263 26.792 106.915 26.942 106.579 27.134V25.478C106.831 25.358 107.179 25.238 107.623 25.118C108.079 24.998 108.619 24.938 109.243 24.938C110.191 24.938 110.953 25.154 111.529 25.586C112.117 26.018 112.411 26.768 112.411 27.836V35H110.485ZM117.704 35.18C116.66 35.18 115.856 34.94 115.292 34.46C114.74 33.968 114.464 33.266 114.464 32.354C114.464 31.37 114.818 30.602 115.526 30.05C116.234 29.498 117.392 29.174 119 29.078L120.764 28.952V28.484C120.764 27.764 120.596 27.254 120.26 26.954C119.924 26.642 119.366 26.486 118.586 26.486C117.974 26.486 117.386 26.57 116.822 26.738C116.258 26.906 115.742 27.128 115.274 27.404V25.694C115.622 25.514 116.096 25.346 116.696 25.19C117.308 25.022 118.004 24.938 118.784 24.938C120.032 24.938 120.992 25.214 121.664 25.766C122.336 26.306 122.672 27.2 122.672 28.448V35H120.764V30.482L119.234 30.59C118.166 30.674 117.422 30.854 117.002 31.13C116.594 31.394 116.39 31.784 116.39 32.3C116.39 32.792 116.546 33.152 116.858 33.38C117.17 33.608 117.596 33.722 118.136 33.722C118.484 33.722 118.814 33.674 119.126 33.578L119.36 34.928C118.892 35.096 118.34 35.18 117.704 35.18ZM119.85 23.624C119.07 23.624 118.524 23.468 118.212 23.156C117.9 22.832 117.744 22.472 117.744 22.076C117.744 21.884 117.774 21.68 117.834 21.464C117.882 21.248 117.954 21.062 118.05 20.906L119.58 21.14C119.556 21.2 119.532 21.284 119.508 21.392C119.484 21.5 119.472 21.602 119.472 21.698C119.472 21.854 119.52 21.986 119.616 22.094C119.712 22.202 119.88 22.256 120.12 22.256H124.476V23.624H119.85ZM129.009 35.18C127.509 35.18 126.447 34.904 125.823 34.352C125.199 33.788 124.887 33.044 124.887 32.12C124.887 31.568 124.965 31.13 125.121 30.806C125.289 30.482 125.499 30.236 125.751 30.068C126.003 29.9 126.261 29.792 126.525 29.744V29.672C126.273 29.6 126.015 29.48 125.751 29.312C125.499 29.144 125.283 28.91 125.103 28.61C124.935 28.31 124.851 27.932 124.851 27.476C124.851 27.056 124.947 26.66 125.139 26.288C125.343 25.904 125.661 25.592 126.093 25.352C126.537 25.112 127.125 24.992 127.857 24.992C128.169 24.992 128.487 25.016 128.811 25.064C129.135 25.112 129.387 25.184 129.567 25.28L129.243 26.684C129.123 26.648 128.961 26.612 128.757 26.576C128.553 26.54 128.349 26.522 128.145 26.522C127.689 26.522 127.347 26.63 127.119 26.846C126.903 27.062 126.795 27.344 126.795 27.692C126.795 28.076 126.891 28.37 127.083 28.574C127.275 28.766 127.521 28.898 127.821 28.97C128.133 29.042 128.451 29.078 128.775 29.078H129.135V30.392H128.775C128.115 30.392 127.629 30.512 127.317 30.752C127.005 30.992 126.849 31.382 126.849 31.922C126.849 32.222 126.909 32.504 127.029 32.768C127.161 33.032 127.383 33.248 127.695 33.416C128.007 33.572 128.451 33.65 129.027 33.65C129.867 33.65 130.443 33.476 130.755 33.128C131.067 32.78 131.223 32.312 131.223 31.724V25.136H133.149V31.616C133.149 32.864 132.813 33.77 132.141 34.334C131.481 34.898 130.437 35.18 129.009 35.18ZM139.856 35.198C138.392 35.198 137.342 34.862 136.706 34.19C136.07 33.518 135.752 32.558 135.752 31.31V25.136H137.678V31.364C137.678 32.108 137.852 32.672 138.2 33.056C138.56 33.428 139.112 33.614 139.856 33.614C140.612 33.614 141.164 33.428 141.512 33.056C141.872 32.672 142.052 32.108 142.052 31.364V25.136H143.978V31.31C143.978 32.558 143.654 33.518 143.006 34.19C142.37 34.862 141.32 35.198 139.856 35.198ZM140.929 39.77C140.101 39.77 139.483 39.62 139.075 39.32C138.655 39.02 138.445 38.6 138.445 38.06V37.754C138.445 37.55 138.397 37.424 138.301 37.376C138.193 37.34 138.049 37.346 137.869 37.394L137.743 36.278C137.911 36.218 138.097 36.182 138.301 36.17C138.493 36.158 138.643 36.152 138.751 36.152C139.207 36.152 139.537 36.248 139.741 36.44C139.933 36.632 140.029 36.902 140.029 37.25V37.808C140.029 38.036 140.095 38.216 140.227 38.348C140.359 38.492 140.581 38.564 140.893 38.564C141.217 38.564 141.445 38.492 141.577 38.348C141.697 38.216 141.757 38.036 141.757 37.808V36.206H143.395V37.952C143.395 39.164 142.573 39.77 140.929 39.77ZM149.383 35.198C148.675 35.198 147.997 35.126 147.349 34.982C146.713 34.838 146.167 34.658 145.711 34.442L146.269 32.894C146.641 33.05 147.097 33.212 147.637 33.38C148.189 33.548 148.765 33.632 149.365 33.632C149.953 33.632 150.433 33.53 150.805 33.326C151.177 33.11 151.363 32.798 151.363 32.39C151.363 32.018 151.189 31.712 150.841 31.472C150.493 31.232 149.965 30.998 149.257 30.77C148.165 30.422 147.325 30.026 146.737 29.582C146.161 29.126 145.873 28.472 145.873 27.62C145.873 26.804 146.197 26.156 146.845 25.676C147.505 25.184 148.489 24.938 149.797 24.938C150.397 24.938 150.955 24.992 151.471 25.1C151.999 25.208 152.407 25.346 152.695 25.514V27.098C152.383 26.954 151.957 26.816 151.417 26.684C150.889 26.552 150.349 26.486 149.797 26.486C149.077 26.486 148.561 26.594 148.249 26.81C147.949 27.014 147.799 27.26 147.799 27.548C147.799 27.92 147.979 28.208 148.339 28.412C148.711 28.616 149.335 28.868 150.211 29.168C150.811 29.372 151.339 29.6 151.795 29.852C152.263 30.104 152.629 30.422 152.893 30.806C153.157 31.178 153.289 31.658 153.289 32.246C153.289 32.762 153.163 33.248 152.911 33.704C152.671 34.148 152.263 34.508 151.687 34.784C151.123 35.06 150.355 35.198 149.383 35.198ZM156.242 35L154.478 25.136H156.404L157.052 29.186C157.1 29.522 157.148 29.954 157.196 30.482C157.256 31.01 157.328 31.64 157.412 32.372H157.466C157.622 31.64 157.772 31.01 157.916 30.482C158.06 29.942 158.18 29.492 158.276 29.132L159.41 25.136H160.832L161.984 29.132C162.08 29.492 162.194 29.942 162.326 30.482C162.47 31.01 162.626 31.64 162.794 32.372H162.848C162.92 31.64 162.98 31.01 163.028 30.482C163.088 29.954 163.148 29.522 163.208 29.186L163.856 25.136H165.782L164.036 35H162.146L160.652 30.032C160.556 29.696 160.466 29.354 160.382 29.006C160.31 28.658 160.244 28.238 160.184 27.746H160.112C160.028 28.238 159.944 28.658 159.86 29.006C159.776 29.342 159.686 29.684 159.59 30.032L158.096 35H156.242ZM170.428 35V28.142C170.428 27.578 170.296 27.164 170.032 26.9C169.768 26.636 169.336 26.504 168.736 26.504C168.316 26.504 167.926 26.564 167.566 26.684C167.206 26.792 166.858 26.942 166.522 27.134V25.478C166.774 25.358 167.122 25.238 167.566 25.118C168.022 24.998 168.562 24.938 169.186 24.938C170.134 24.938 170.896 25.154 171.472 25.586C172.06 26.018 172.354 26.768 172.354 27.836V35H170.428Z" fill="#359EFF"/>
</svg>
