<svg width="225" height="24" viewBox="0 0 225 24" fill="none" xmlns="http://www.w3.org/2000/svg">
<path d="M0.8 18V7.776C0.8 6.96 0.936 6.328 1.208 5.88C1.496 5.416 1.888 5.088 2.384 4.896C2.88 4.704 3.448 4.608 4.088 4.608C4.536 4.608 4.936 4.656 5.288 4.752C5.64 4.832 5.928 4.928 6.152 5.04L5.672 7.392C5.544 7.36 5.416 7.336 5.288 7.32C5.16 7.304 5.056 7.296 4.976 7.296C4.672 7.296 4.456 7.376 4.328 7.536C4.216 7.696 4.16 7.928 4.16 8.232V10.464C4.16 10.864 4.144 11.344 4.112 11.904C4.08 12.448 4.024 13.136 3.944 13.968H4.064C4.384 13.216 4.664 12.616 4.904 12.168C5.16 11.704 5.384 11.296 5.576 10.944L6.464 9.336H7.808L8.696 10.944C9.016 11.536 9.28 12.04 9.488 12.456C9.696 12.856 9.936 13.36 10.208 13.968H10.328C10.248 13.136 10.192 12.448 10.16 11.904C10.128 11.344 10.112 10.864 10.112 10.464V4.848H13.472V18H10.04L7.184 12.768H7.088L4.232 18H0.8ZM16.7994 18V10.2C16.7994 8.36 17.2874 6.96 18.2634 6C19.2394 5.024 20.7914 4.536 22.9194 4.536C23.5594 4.536 24.1514 4.6 24.6954 4.728C25.2394 4.84 25.7194 5.04 26.1354 5.328C26.6474 4.976 26.9114 4.528 26.9274 3.984H30.0714C30.0714 4.592 29.9194 5.168 29.6154 5.712C29.3114 6.256 28.8154 6.704 28.1274 7.056C28.4314 7.44 28.6474 7.904 28.7754 8.448C28.9034 8.976 28.9674 9.568 28.9674 10.224V18H25.3914V10.152C25.3914 9.304 25.1914 8.64 24.7914 8.16C24.4074 7.664 23.7754 7.416 22.8954 7.416C21.9994 7.416 21.3514 7.664 20.9514 8.16C20.5674 8.64 20.3754 9.304 20.3754 10.152V12.24L20.4474 12.264C20.7674 11.64 21.1354 11.232 21.5514 11.04C21.9674 10.832 22.5434 10.728 23.2794 10.728H23.8554V13.416H23.2794C22.4794 13.416 21.8714 13.552 21.4554 13.824C21.0394 14.096 20.7514 14.456 20.5914 14.904C20.4474 15.336 20.3754 15.824 20.3754 16.368V18H16.7994ZM32.0677 16.32C32.0677 15.584 32.2677 15.072 32.6677 14.784C33.0677 14.48 33.5557 14.328 34.1317 14.328C34.6917 14.328 35.1717 14.48 35.5717 14.784C35.9717 15.072 36.1717 15.584 36.1717 16.32C36.1717 17.024 35.9717 17.536 35.5717 17.856C35.1717 18.16 34.6917 18.312 34.1317 18.312C33.5557 18.312 33.0677 18.16 32.6677 17.856C32.2677 17.536 32.0677 17.024 32.0677 16.32ZM43.7114 18.24C42.4154 18.24 41.3834 17.96 40.6154 17.4C39.8474 16.824 39.2954 16.04 38.9594 15.048C38.6234 14.04 38.4554 12.888 38.4554 11.592C38.4554 10.2 38.6074 9.048 38.9114 8.136C39.2314 7.208 39.6794 6.488 40.2554 5.976C40.8314 5.448 41.5114 5.08 42.2954 4.872C43.0954 4.648 43.9674 4.536 44.9114 4.536C46.3354 4.536 47.4794 4.736 48.3434 5.136C49.2234 5.536 49.8554 6.104 50.2394 6.84C50.6394 7.576 50.8394 8.44 50.8394 9.432V18H47.2394V9.72C47.2394 8.968 47.0554 8.4 46.6874 8.016C46.3354 7.616 45.7434 7.416 44.9114 7.416C44.3514 7.416 43.8554 7.536 43.4234 7.776C43.0074 8 42.6794 8.408 42.4394 9C42.2154 9.592 42.1034 10.44 42.1034 11.544C42.1034 12.68 42.2714 13.6 42.6074 14.304C42.9434 15.008 43.5274 15.36 44.3594 15.36C44.7114 15.36 45.0314 15.32 45.3194 15.24L45.6554 17.928C45.3994 18.04 45.0874 18.12 44.7194 18.168C44.3674 18.216 44.0314 18.24 43.7114 18.24ZM58.4664 18.312C57.5224 18.312 56.5704 18.208 55.6104 18C54.6664 17.792 53.8264 17.496 53.0904 17.112L54.0984 14.256C54.5784 14.512 55.1944 14.784 55.9464 15.072C56.6984 15.344 57.4904 15.48 58.3224 15.48C59.6184 15.48 60.2664 15.104 60.2664 14.352C60.2664 13.936 60.0184 13.616 59.5224 13.392C59.0424 13.152 58.3704 12.88 57.5064 12.576C56.6584 12.288 55.9304 11.968 55.3224 11.616C54.7144 11.264 54.2424 10.832 53.9064 10.32C53.5864 9.808 53.4264 9.16 53.4264 8.376C53.4264 7.064 53.9144 6.096 54.8904 5.472C55.8824 4.848 57.2024 4.536 58.8504 4.536C59.7464 4.536 60.5544 4.616 61.2744 4.776C61.9944 4.92 62.5544 5.096 62.9544 5.304V8.136C62.5384 7.944 61.9464 7.76 61.1784 7.584C60.4264 7.392 59.7064 7.296 59.0184 7.296C57.6904 7.296 57.0264 7.632 57.0264 8.304C57.0264 8.688 57.2824 8.992 57.7944 9.216C58.3224 9.424 59.0584 9.688 60.0024 10.008C61.2504 10.44 62.2024 10.96 62.8584 11.568C63.5304 12.176 63.8664 13.04 63.8664 14.16C63.8664 14.88 63.6984 15.56 63.3624 16.2C63.0424 16.824 62.4904 17.336 61.7064 17.736C60.9224 18.12 59.8424 18.312 58.4664 18.312ZM65.8243 16.32C65.8243 15.584 66.0243 15.072 66.4243 14.784C66.8243 14.48 67.3123 14.328 67.8883 14.328C68.4483 14.328 68.9283 14.48 69.3283 14.784C69.7283 15.072 69.9283 15.584 69.9283 16.32C69.9283 17.024 69.7283 17.536 69.3283 17.856C68.9283 18.16 68.4483 18.312 67.8883 18.312C67.3123 18.312 66.8243 18.16 66.4243 17.856C66.0243 17.536 65.8243 17.024 65.8243 16.32ZM78.6144 18V13.992C78.6144 12.984 78.8064 12.208 79.1904 11.664C79.5904 11.12 80.1664 10.736 80.9184 10.512L80.9424 10.416L78.3744 9.48V8.856C78.3744 8.072 78.6064 7.352 79.0704 6.696C79.5344 6.04 80.2144 5.52 81.1104 5.136C82.0224 4.736 83.1264 4.536 84.4224 4.536C86.2304 4.536 87.6704 4.96 88.7424 5.808C89.8144 6.64 90.3504 7.904 90.3504 9.6V18H86.7504V9.816C86.7504 9.016 86.5344 8.416 86.1024 8.016C85.6864 7.616 85.0944 7.416 84.3264 7.416C83.5744 7.416 83.0144 7.576 82.6464 7.896C82.2784 8.2 82.0864 8.576 82.0704 9.024L84.2064 10.008L83.9424 11.568C83.3664 11.6 82.9344 11.808 82.6464 12.192C82.3584 12.576 82.2144 13.096 82.2144 13.752V18H78.6144ZM96.7349 18.24C95.7109 18.24 94.8869 17.992 94.2629 17.496C93.6549 16.984 93.3509 16.208 93.3509 15.168V13.704C93.3509 12.76 93.5509 12.048 93.9509 11.568C94.3669 11.088 94.9509 10.736 95.7029 10.512L95.7269 10.416L93.1109 9.48V8.856C93.1109 8.072 93.3429 7.352 93.8069 6.696C94.2709 6.04 94.9509 5.52 95.8469 5.136C96.7589 4.736 97.8629 4.536 99.1589 4.536C100.983 4.536 102.431 4.96 103.503 5.808C104.575 6.64 105.111 7.904 105.111 9.6V23.088H101.511V9.816C101.511 9.016 101.295 8.416 100.863 8.016C100.447 7.616 99.8469 7.416 99.0629 7.416C98.3109 7.416 97.7509 7.576 97.3829 7.896C97.0149 8.2 96.8229 8.576 96.8069 9.024L98.8949 9.984L98.6549 11.52C98.0629 11.536 97.6149 11.664 97.3109 11.904C97.0069 12.128 96.8549 12.568 96.8549 13.224V14.784C96.8549 15.44 97.1749 15.768 97.8149 15.768C98.1349 15.768 98.4149 15.72 98.6549 15.624L98.9909 17.76C98.3829 18.08 97.6309 18.24 96.7349 18.24ZM114.375 18.312C112.183 18.312 110.607 17.824 109.647 16.848C108.703 15.856 108.231 14.44 108.231 12.6V4.848H111.807V12.792C111.807 13.672 112.007 14.336 112.407 14.784C112.823 15.232 113.495 15.456 114.423 15.456C115.319 15.456 115.959 15.248 116.343 14.832C116.727 14.416 116.919 13.736 116.919 12.792V12.768H115.911C115.143 12.768 114.543 12.648 114.111 12.408C113.679 12.152 113.375 11.832 113.199 11.448C113.023 11.048 112.935 10.648 112.935 10.248C112.935 9.96 112.975 9.656 113.055 9.336C113.135 9.016 113.255 8.76 113.415 8.568L115.551 9C115.455 9.192 115.407 9.416 115.407 9.672C115.407 9.88 115.471 10.064 115.599 10.224C115.727 10.368 115.903 10.44 116.127 10.44H116.919V4.848H120.495V10.44H121.887V12.768H120.495C120.463 14.56 119.967 15.936 119.007 16.896C118.063 17.84 116.519 18.312 114.375 18.312ZM127.45 18.24C126.426 18.24 125.602 17.992 124.978 17.496C124.37 16.984 124.066 16.208 124.066 15.168V13.608C124.066 12.664 124.266 11.968 124.666 11.52C125.082 11.072 125.666 10.736 126.418 10.512L126.442 10.416L123.826 9.48V8.856C123.826 8.04 124.05 7.312 124.498 6.672C124.962 6.016 125.634 5.496 126.514 5.112C127.394 4.728 128.466 4.536 129.73 4.536C131.49 4.536 132.882 4.944 133.906 5.76C134.946 6.56 135.466 7.76 135.466 9.36V12.96C135.466 13.728 135.634 14.28 135.97 14.616C136.306 14.952 136.722 15.12 137.218 15.12C137.906 15.12 138.458 14.832 138.874 14.256C139.29 13.68 139.498 12.912 139.498 11.952V4.848H143.098V18H140.314L139.906 15.936H139.714C139.426 16.608 138.954 17.16 138.298 17.592C137.658 18.024 136.858 18.24 135.898 18.24C134.586 18.24 133.594 17.896 132.922 17.208C132.266 16.504 131.938 15.4 131.938 13.896V9.624C131.938 8.776 131.722 8.192 131.29 7.872C130.858 7.536 130.322 7.368 129.682 7.368C129.074 7.368 128.57 7.504 128.17 7.776C127.77 8.032 127.554 8.424 127.522 8.952L129.61 9.96L129.37 11.52C128.778 11.536 128.33 11.68 128.026 11.952C127.722 12.208 127.57 12.664 127.57 13.32V14.784C127.57 15.44 127.89 15.768 128.53 15.768C128.85 15.768 129.13 15.72 129.37 15.624L129.706 17.76C129.098 18.08 128.346 18.24 127.45 18.24ZM148.679 10.248C147.575 10.248 146.799 10.008 146.351 9.528C145.919 9.032 145.703 8.464 145.703 7.824C145.703 7.264 145.863 6.688 146.183 6.096L148.799 6.432C148.719 6.672 148.679 6.928 148.679 7.2C148.679 7.424 148.743 7.592 148.871 7.704C148.999 7.816 149.223 7.872 149.543 7.872H152.255V10.248H148.679ZM148.679 16.968C147.575 16.968 146.799 16.728 146.351 16.248C145.919 15.752 145.703 15.184 145.703 14.544C145.703 13.984 145.863 13.408 146.183 12.816L148.799 13.152C148.719 13.392 148.679 13.648 148.679 13.92C148.679 14.144 148.743 14.312 148.871 14.424C148.999 14.536 149.223 14.592 149.543 14.592H152.255V16.968H148.679ZM166.371 18.312C164.547 18.312 163.163 17.912 162.219 17.112C161.291 16.296 160.827 15.128 160.827 13.608V12.672C160.827 12.032 160.899 11.496 161.043 11.064C161.203 10.616 161.411 10.216 161.667 9.864C161.923 9.512 162.131 9.2 162.291 8.928C162.467 8.64 162.555 8.344 162.555 8.04C162.555 7.752 162.483 7.552 162.339 7.44C162.195 7.312 162.019 7.248 161.811 7.248C161.507 7.248 161.155 7.344 160.755 7.536L160.179 5.28C160.627 5.04 161.107 4.88 161.619 4.8C162.147 4.704 162.611 4.656 163.011 4.656C164.067 4.656 164.811 4.912 165.243 5.424C165.691 5.92 165.915 6.592 165.915 7.44C165.915 7.936 165.843 8.376 165.699 8.76C165.555 9.128 165.371 9.512 165.147 9.912C164.923 10.28 164.739 10.624 164.595 10.944C164.451 11.264 164.379 11.728 164.379 12.336V13.248C164.379 14.048 164.547 14.624 164.883 14.976C165.235 15.328 165.731 15.504 166.371 15.504C167.059 15.504 167.547 15.32 167.835 14.952C168.139 14.584 168.291 14.072 168.291 13.416V11.088C168.291 10.608 168.179 10.232 167.955 9.96C167.747 9.672 167.387 9.528 166.875 9.528H166.755V7.632H166.899C167.395 7.632 167.763 7.496 168.003 7.224C168.243 6.952 168.395 6.608 168.459 6.192C168.539 5.76 168.579 5.312 168.579 4.848H172.155C172.155 5.84 172.027 6.656 171.771 7.296C171.515 7.92 171.067 8.344 170.427 8.568V8.664C170.987 8.84 171.363 9.144 171.555 9.576C171.763 10.008 171.867 10.504 171.867 11.064V13.512C171.867 15.096 171.403 16.296 170.475 17.112C169.547 17.912 168.179 18.312 166.371 18.312ZM160.924 3.024V1.512L163.348 0.503999H171.916V3.024H160.924ZM179.154 18.24C177.698 18.24 176.586 17.816 175.818 16.968C175.05 16.12 174.666 14.872 174.666 13.224V4.848H178.266V12.6C178.266 13.48 178.442 14.12 178.794 14.52C179.146 14.92 179.658 15.12 180.33 15.12C181.178 15.12 181.834 14.8 182.298 14.16C182.762 13.52 182.994 12.512 182.994 11.136V4.848H186.594V18H183.858L183.474 15.984H183.258C182.986 16.624 182.514 17.16 181.842 17.592C181.186 18.024 180.29 18.24 179.154 18.24ZM193.494 18.24C192.118 18.24 191.054 17.912 190.302 17.256C189.566 16.6 189.198 15.68 189.198 14.496C189.198 13.216 189.654 12.192 190.566 11.424C191.494 10.656 192.95 10.192 194.934 10.032L197.43 9.84V9.456C197.43 8.688 197.222 8.136 196.806 7.8C196.39 7.464 195.75 7.296 194.886 7.296C194.054 7.296 193.238 7.424 192.438 7.68C191.654 7.92 190.974 8.208 190.398 8.544V5.568C190.862 5.344 191.518 5.12 192.366 4.896C193.214 4.656 194.19 4.536 195.294 4.536C195.87 4.536 196.414 4.584 196.926 4.68C197.438 4.76 197.878 4.92 198.246 5.16C198.63 4.84 198.83 4.448 198.846 3.984H201.99C201.99 4.56 201.854 5.104 201.582 5.616C201.31 6.128 200.878 6.56 200.286 6.912C200.526 7.232 200.694 7.616 200.79 8.064C200.902 8.512 200.958 9.024 200.958 9.6V18H197.43V12.432L195.342 12.648C194.382 12.744 193.71 12.936 193.326 13.224C192.958 13.512 192.774 13.896 192.774 14.376C192.774 14.856 192.926 15.216 193.23 15.456C193.534 15.696 193.942 15.816 194.454 15.816C194.646 15.816 194.838 15.8 195.03 15.768C195.222 15.72 195.398 15.672 195.558 15.624L195.87 17.88C195.566 17.992 195.206 18.08 194.79 18.144C194.374 18.208 193.942 18.24 193.494 18.24ZM207.619 18V9.312C207.619 8.64 207.459 8.152 207.139 7.848C206.835 7.544 206.331 7.392 205.627 7.392C205.099 7.392 204.611 7.464 204.163 7.608C203.731 7.752 203.323 7.928 202.939 8.136V5.256C203.291 5.096 203.787 4.936 204.427 4.776C205.067 4.616 205.819 4.536 206.683 4.536C207.563 4.536 208.339 4.664 209.011 4.92C209.699 5.176 210.235 5.608 210.619 6.216C211.019 6.808 211.219 7.624 211.219 8.664V18H207.619ZM218.841 18.312C217.897 18.312 216.945 18.208 215.985 18C215.041 17.792 214.201 17.496 213.465 17.112L214.473 14.256C214.953 14.512 215.569 14.784 216.321 15.072C217.073 15.344 217.865 15.48 218.697 15.48C219.993 15.48 220.641 15.104 220.641 14.352C220.641 13.936 220.393 13.616 219.897 13.392C219.417 13.152 218.745 12.88 217.881 12.576C217.033 12.288 216.305 11.968 215.697 11.616C215.089 11.264 214.617 10.832 214.281 10.32C213.961 9.808 213.801 9.16 213.801 8.376C213.801 7.064 214.289 6.096 215.265 5.472C216.257 4.848 217.577 4.536 219.225 4.536C220.121 4.536 220.929 4.616 221.649 4.776C222.369 4.92 222.929 5.096 223.329 5.304V8.136C222.913 7.944 222.321 7.76 221.553 7.584C220.801 7.392 220.081 7.296 219.393 7.296C218.065 7.296 217.401 7.632 217.401 8.304C217.401 8.688 217.657 8.992 218.169 9.216C218.697 9.424 219.433 9.688 220.377 10.008C221.625 10.44 222.577 10.96 223.233 11.568C223.905 12.176 224.241 13.04 224.241 14.16C224.241 14.88 224.073 15.56 223.737 16.2C223.417 16.824 222.865 17.336 222.081 17.736C221.297 18.12 220.217 18.312 218.841 18.312Z" fill="#1F2883"/>
</svg>
