<svg width="248" height="39" viewBox="0 0 248 39" fill="none" xmlns="http://www.w3.org/2000/svg">
<mask id="path-1-outside-1_1_231" maskUnits="userSpaceOnUse" x="0.305176" y="0" width="248" height="39" fill="black">
<rect fill="white" x="0.305176" width="248" height="39"/>
<path d="M28.1852 3.872V29H23.1452V12.656L16.4132 29H12.5972L5.82918 12.656V29H0.789176V3.872H6.51318L14.5052 22.556L22.4972 3.872H28.1852ZM31.8721 18.956C31.8721 16.94 32.2681 15.152 33.0601 13.592C33.8761 12.032 34.9681 10.832 36.3361 9.992C37.7281 9.152 39.2761 8.732 40.9801 8.732C42.4681 8.732 43.7641 9.032 44.8681 9.632C45.9961 10.232 46.8961 10.988 47.5681 11.9V9.056H52.6441V29H47.5681V26.084C46.9201 27.02 46.0201 27.8 44.8681 28.424C43.7401 29.024 42.4321 29.324 40.9441 29.324C39.2641 29.324 37.7281 28.892 36.3361 28.028C34.9681 27.164 33.8761 25.952 33.0601 24.392C32.2681 22.808 31.8721 20.996 31.8721 18.956ZM47.5681 19.028C47.5681 17.804 47.3281 16.76 46.8481 15.896C46.3681 15.008 45.7201 14.336 44.9041 13.88C44.0881 13.4 43.2121 13.16 42.2761 13.16C41.3401 13.16 40.4761 13.388 39.6841 13.844C38.8921 14.3 38.2441 14.972 37.7401 15.86C37.2601 16.724 37.0201 17.756 37.0201 18.956C37.0201 20.156 37.2601 21.212 37.7401 22.124C38.2441 23.012 38.8921 23.696 39.6841 24.176C40.5001 24.656 41.3641 24.896 42.2761 24.896C43.2121 24.896 44.0881 24.668 44.9041 24.212C45.7201 23.732 46.3681 23.06 46.8481 22.196C47.3281 21.308 47.5681 20.252 47.5681 19.028ZM60.1225 6.68C59.2345 6.68 58.4905 6.404 57.8905 5.852C57.3145 5.276 57.0265 4.568 57.0265 3.728C57.0265 2.888 57.3145 2.192 57.8905 1.64C58.4905 1.064 59.2345 0.775999 60.1225 0.775999C61.0105 0.775999 61.7425 1.064 62.3185 1.64C62.9185 2.192 63.2185 2.888 63.2185 3.728C63.2185 4.568 62.9185 5.276 62.3185 5.852C61.7425 6.404 61.0105 6.68 60.1225 6.68ZM62.6065 9.056V29H57.5665V9.056H62.6065ZM78.6381 8.768C81.0141 8.768 82.9341 9.524 84.3981 11.036C85.8621 12.524 86.5941 14.612 86.5941 17.3V29H81.5541V17.984C81.5541 16.4 81.1581 15.188 80.3661 14.348C79.5741 13.484 78.4941 13.052 77.1261 13.052C75.7341 13.052 74.6301 13.484 73.8141 14.348C73.0221 15.188 72.6261 16.4 72.6261 17.984V29H67.5861V9.056H72.6261V11.54C73.2981 10.676 74.1501 10.004 75.1821 9.524C76.2381 9.02 77.3901 8.768 78.6381 8.768ZM108.641 29.252C106.889 29.252 105.305 28.952 103.889 28.352C102.497 27.752 101.393 26.888 100.577 25.76C99.761 24.632 99.341 23.3 99.317 21.764H104.717C104.789 22.796 105.149 23.612 105.797 24.212C106.469 24.812 107.381 25.112 108.533 25.112C109.709 25.112 110.633 24.836 111.305 24.284C111.977 23.708 112.313 22.964 112.313 22.052C112.313 21.308 112.085 20.696 111.629 20.216C111.173 19.736 110.597 19.364 109.901 19.1C109.229 18.812 108.293 18.5 107.093 18.164C105.461 17.684 104.129 17.216 103.097 16.76C102.089 16.28 101.213 15.572 100.469 14.636C99.749 13.676 99.389 12.404 99.389 10.82C99.389 9.332 99.761 8.036 100.505 6.932C101.249 5.828 102.293 4.988 103.637 4.412C104.981 3.812 106.517 3.512 108.245 3.512C110.837 3.512 112.937 4.148 114.545 5.42C116.177 6.668 117.077 8.42 117.245 10.676H111.701C111.653 9.812 111.281 9.104 110.585 8.552C109.913 7.976 109.013 7.688 107.885 7.688C106.901 7.688 106.109 7.94 105.509 8.444C104.933 8.948 104.645 9.68 104.645 10.64C104.645 11.312 104.861 11.876 105.293 12.332C105.749 12.764 106.301 13.124 106.949 13.412C107.621 13.676 108.557 13.988 109.757 14.348C111.389 14.828 112.721 15.308 113.753 15.788C114.785 16.268 115.673 16.988 116.417 17.948C117.161 18.908 117.533 20.168 117.533 21.728C117.533 23.072 117.185 24.32 116.489 25.472C115.793 26.624 114.773 27.548 113.429 28.244C112.085 28.916 110.489 29.252 108.641 29.252ZM126.942 11.936C127.59 11.024 128.478 10.268 129.606 9.668C130.758 9.044 132.066 8.732 133.53 8.732C135.234 8.732 136.77 9.152 138.138 9.992C139.53 10.832 140.622 12.032 141.414 13.592C142.23 15.128 142.638 16.916 142.638 18.956C142.638 20.996 142.23 22.808 141.414 24.392C140.622 25.952 139.53 27.164 138.138 28.028C136.77 28.892 135.234 29.324 133.53 29.324C132.066 29.324 130.77 29.024 129.642 28.424C128.538 27.824 127.638 27.068 126.942 26.156V38.504H121.902V9.056H126.942V11.936ZM137.49 18.956C137.49 17.756 137.238 16.724 136.734 15.86C136.254 14.972 135.606 14.3 134.79 13.844C133.998 13.388 133.134 13.16 132.198 13.16C131.286 13.16 130.422 13.4 129.606 13.88C128.814 14.336 128.166 15.008 127.662 15.896C127.182 16.784 126.942 17.828 126.942 19.028C126.942 20.228 127.182 21.272 127.662 22.16C128.166 23.048 128.814 23.732 129.606 24.212C130.422 24.668 131.286 24.896 132.198 24.896C133.134 24.896 133.998 24.656 134.79 24.176C135.606 23.696 136.254 23.012 136.734 22.124C137.238 21.236 137.49 20.18 137.49 18.956ZM164.841 18.596C164.841 19.316 164.793 19.964 164.697 20.54H150.117C150.237 21.98 150.741 23.108 151.629 23.924C152.517 24.74 153.609 25.148 154.905 25.148C156.777 25.148 158.109 24.344 158.901 22.736H164.337C163.761 24.656 162.657 26.24 161.025 27.488C159.393 28.712 157.389 29.324 155.013 29.324C153.093 29.324 151.365 28.904 149.829 28.064C148.317 27.2 147.129 25.988 146.265 24.428C145.425 22.868 145.005 21.068 145.005 19.028C145.005 16.964 145.425 15.152 146.265 13.592C147.105 12.032 148.281 10.832 149.793 9.992C151.305 9.152 153.045 8.732 155.013 8.732C156.909 8.732 158.601 9.14 160.089 9.956C161.601 10.772 162.765 11.936 163.581 13.448C164.421 14.936 164.841 16.652 164.841 18.596ZM159.621 17.156C159.597 15.86 159.129 14.828 158.217 14.06C157.305 13.268 156.189 12.872 154.869 12.872C153.621 12.872 152.565 13.256 151.701 14.024C150.861 14.768 150.345 15.812 150.153 17.156H159.621ZM167.224 18.956C167.224 16.94 167.62 15.152 168.412 13.592C169.228 12.032 170.32 10.832 171.688 9.992C173.08 9.152 174.628 8.732 176.332 8.732C177.82 8.732 179.116 9.032 180.22 9.632C181.348 10.232 182.248 10.988 182.92 11.9V9.056H187.996V29H182.92V26.084C182.272 27.02 181.372 27.8 180.22 28.424C179.092 29.024 177.784 29.324 176.296 29.324C174.616 29.324 173.08 28.892 171.688 28.028C170.32 27.164 169.228 25.952 168.412 24.392C167.62 22.808 167.224 20.996 167.224 18.956ZM182.92 19.028C182.92 17.804 182.68 16.76 182.2 15.896C181.72 15.008 181.072 14.336 180.256 13.88C179.44 13.4 178.564 13.16 177.628 13.16C176.692 13.16 175.828 13.388 175.036 13.844C174.244 14.3 173.596 14.972 173.092 15.86C172.612 16.724 172.372 17.756 172.372 18.956C172.372 20.156 172.612 21.212 173.092 22.124C173.596 23.012 174.244 23.696 175.036 24.176C175.852 24.656 176.716 24.896 177.628 24.896C178.564 24.896 179.44 24.668 180.256 24.212C181.072 23.732 181.72 23.06 182.2 22.196C182.68 21.308 182.92 20.252 182.92 19.028ZM204.726 29L197.958 20.504V29H192.918V2.36H197.958V17.516L204.654 9.056H211.206L202.422 19.064L211.278 29H204.726ZM232.482 18.596C232.482 19.316 232.434 19.964 232.338 20.54H217.758C217.878 21.98 218.382 23.108 219.27 23.924C220.158 24.74 221.25 25.148 222.546 25.148C224.418 25.148 225.75 24.344 226.542 22.736H231.978C231.402 24.656 230.298 26.24 228.666 27.488C227.034 28.712 225.03 29.324 222.654 29.324C220.734 29.324 219.006 28.904 217.47 28.064C215.958 27.2 214.77 25.988 213.906 24.428C213.066 22.868 212.646 21.068 212.646 19.028C212.646 16.964 213.066 15.152 213.906 13.592C214.746 12.032 215.922 10.832 217.434 9.992C218.946 9.152 220.686 8.732 222.654 8.732C224.55 8.732 226.242 9.14 227.73 9.956C229.242 10.772 230.406 11.936 231.222 13.448C232.062 14.936 232.482 16.652 232.482 18.596ZM227.262 17.156C227.238 15.86 226.77 14.828 225.858 14.06C224.946 13.268 223.83 12.872 222.51 12.872C221.262 12.872 220.206 13.256 219.342 14.024C218.502 14.768 217.986 15.812 217.794 17.156H227.262ZM241.2 12.152C241.848 11.096 242.688 10.268 243.72 9.668C244.776 9.068 245.976 8.768 247.32 8.768V14.06H245.988C244.404 14.06 243.204 14.432 242.388 15.176C241.596 15.92 241.2 17.216 241.2 19.064V29H236.16V9.056H241.2V12.152Z"/>
</mask>
<path d="M28.1852 3.872V29H23.1452V12.656L16.4132 29H12.5972L5.82918 12.656V29H0.789176V3.872H6.51318L14.5052 22.556L22.4972 3.872H28.1852ZM31.8721 18.956C31.8721 16.94 32.2681 15.152 33.0601 13.592C33.8761 12.032 34.9681 10.832 36.3361 9.992C37.7281 9.152 39.2761 8.732 40.9801 8.732C42.4681 8.732 43.7641 9.032 44.8681 9.632C45.9961 10.232 46.8961 10.988 47.5681 11.9V9.056H52.6441V29H47.5681V26.084C46.9201 27.02 46.0201 27.8 44.8681 28.424C43.7401 29.024 42.4321 29.324 40.9441 29.324C39.2641 29.324 37.7281 28.892 36.3361 28.028C34.9681 27.164 33.8761 25.952 33.0601 24.392C32.2681 22.808 31.8721 20.996 31.8721 18.956ZM47.5681 19.028C47.5681 17.804 47.3281 16.76 46.8481 15.896C46.3681 15.008 45.7201 14.336 44.9041 13.88C44.0881 13.4 43.2121 13.16 42.2761 13.16C41.3401 13.16 40.4761 13.388 39.6841 13.844C38.8921 14.3 38.2441 14.972 37.7401 15.86C37.2601 16.724 37.0201 17.756 37.0201 18.956C37.0201 20.156 37.2601 21.212 37.7401 22.124C38.2441 23.012 38.8921 23.696 39.6841 24.176C40.5001 24.656 41.3641 24.896 42.2761 24.896C43.2121 24.896 44.0881 24.668 44.9041 24.212C45.7201 23.732 46.3681 23.06 46.8481 22.196C47.3281 21.308 47.5681 20.252 47.5681 19.028ZM60.1225 6.68C59.2345 6.68 58.4905 6.404 57.8905 5.852C57.3145 5.276 57.0265 4.568 57.0265 3.728C57.0265 2.888 57.3145 2.192 57.8905 1.64C58.4905 1.064 59.2345 0.775999 60.1225 0.775999C61.0105 0.775999 61.7425 1.064 62.3185 1.64C62.9185 2.192 63.2185 2.888 63.2185 3.728C63.2185 4.568 62.9185 5.276 62.3185 5.852C61.7425 6.404 61.0105 6.68 60.1225 6.68ZM62.6065 9.056V29H57.5665V9.056H62.6065ZM78.6381 8.768C81.0141 8.768 82.9341 9.524 84.3981 11.036C85.8621 12.524 86.5941 14.612 86.5941 17.3V29H81.5541V17.984C81.5541 16.4 81.1581 15.188 80.3661 14.348C79.5741 13.484 78.4941 13.052 77.1261 13.052C75.7341 13.052 74.6301 13.484 73.8141 14.348C73.0221 15.188 72.6261 16.4 72.6261 17.984V29H67.5861V9.056H72.6261V11.54C73.2981 10.676 74.1501 10.004 75.1821 9.524C76.2381 9.02 77.3901 8.768 78.6381 8.768ZM108.641 29.252C106.889 29.252 105.305 28.952 103.889 28.352C102.497 27.752 101.393 26.888 100.577 25.76C99.761 24.632 99.341 23.3 99.317 21.764H104.717C104.789 22.796 105.149 23.612 105.797 24.212C106.469 24.812 107.381 25.112 108.533 25.112C109.709 25.112 110.633 24.836 111.305 24.284C111.977 23.708 112.313 22.964 112.313 22.052C112.313 21.308 112.085 20.696 111.629 20.216C111.173 19.736 110.597 19.364 109.901 19.1C109.229 18.812 108.293 18.5 107.093 18.164C105.461 17.684 104.129 17.216 103.097 16.76C102.089 16.28 101.213 15.572 100.469 14.636C99.749 13.676 99.389 12.404 99.389 10.82C99.389 9.332 99.761 8.036 100.505 6.932C101.249 5.828 102.293 4.988 103.637 4.412C104.981 3.812 106.517 3.512 108.245 3.512C110.837 3.512 112.937 4.148 114.545 5.42C116.177 6.668 117.077 8.42 117.245 10.676H111.701C111.653 9.812 111.281 9.104 110.585 8.552C109.913 7.976 109.013 7.688 107.885 7.688C106.901 7.688 106.109 7.94 105.509 8.444C104.933 8.948 104.645 9.68 104.645 10.64C104.645 11.312 104.861 11.876 105.293 12.332C105.749 12.764 106.301 13.124 106.949 13.412C107.621 13.676 108.557 13.988 109.757 14.348C111.389 14.828 112.721 15.308 113.753 15.788C114.785 16.268 115.673 16.988 116.417 17.948C117.161 18.908 117.533 20.168 117.533 21.728C117.533 23.072 117.185 24.32 116.489 25.472C115.793 26.624 114.773 27.548 113.429 28.244C112.085 28.916 110.489 29.252 108.641 29.252ZM126.942 11.936C127.59 11.024 128.478 10.268 129.606 9.668C130.758 9.044 132.066 8.732 133.53 8.732C135.234 8.732 136.77 9.152 138.138 9.992C139.53 10.832 140.622 12.032 141.414 13.592C142.23 15.128 142.638 16.916 142.638 18.956C142.638 20.996 142.23 22.808 141.414 24.392C140.622 25.952 139.53 27.164 138.138 28.028C136.77 28.892 135.234 29.324 133.53 29.324C132.066 29.324 130.77 29.024 129.642 28.424C128.538 27.824 127.638 27.068 126.942 26.156V38.504H121.902V9.056H126.942V11.936ZM137.49 18.956C137.49 17.756 137.238 16.724 136.734 15.86C136.254 14.972 135.606 14.3 134.79 13.844C133.998 13.388 133.134 13.16 132.198 13.16C131.286 13.16 130.422 13.4 129.606 13.88C128.814 14.336 128.166 15.008 127.662 15.896C127.182 16.784 126.942 17.828 126.942 19.028C126.942 20.228 127.182 21.272 127.662 22.16C128.166 23.048 128.814 23.732 129.606 24.212C130.422 24.668 131.286 24.896 132.198 24.896C133.134 24.896 133.998 24.656 134.79 24.176C135.606 23.696 136.254 23.012 136.734 22.124C137.238 21.236 137.49 20.18 137.49 18.956ZM164.841 18.596C164.841 19.316 164.793 19.964 164.697 20.54H150.117C150.237 21.98 150.741 23.108 151.629 23.924C152.517 24.74 153.609 25.148 154.905 25.148C156.777 25.148 158.109 24.344 158.901 22.736H164.337C163.761 24.656 162.657 26.24 161.025 27.488C159.393 28.712 157.389 29.324 155.013 29.324C153.093 29.324 151.365 28.904 149.829 28.064C148.317 27.2 147.129 25.988 146.265 24.428C145.425 22.868 145.005 21.068 145.005 19.028C145.005 16.964 145.425 15.152 146.265 13.592C147.105 12.032 148.281 10.832 149.793 9.992C151.305 9.152 153.045 8.732 155.013 8.732C156.909 8.732 158.601 9.14 160.089 9.956C161.601 10.772 162.765 11.936 163.581 13.448C164.421 14.936 164.841 16.652 164.841 18.596ZM159.621 17.156C159.597 15.86 159.129 14.828 158.217 14.06C157.305 13.268 156.189 12.872 154.869 12.872C153.621 12.872 152.565 13.256 151.701 14.024C150.861 14.768 150.345 15.812 150.153 17.156H159.621ZM167.224 18.956C167.224 16.94 167.62 15.152 168.412 13.592C169.228 12.032 170.32 10.832 171.688 9.992C173.08 9.152 174.628 8.732 176.332 8.732C177.82 8.732 179.116 9.032 180.22 9.632C181.348 10.232 182.248 10.988 182.92 11.9V9.056H187.996V29H182.92V26.084C182.272 27.02 181.372 27.8 180.22 28.424C179.092 29.024 177.784 29.324 176.296 29.324C174.616 29.324 173.08 28.892 171.688 28.028C170.32 27.164 169.228 25.952 168.412 24.392C167.62 22.808 167.224 20.996 167.224 18.956ZM182.92 19.028C182.92 17.804 182.68 16.76 182.2 15.896C181.72 15.008 181.072 14.336 180.256 13.88C179.44 13.4 178.564 13.16 177.628 13.16C176.692 13.16 175.828 13.388 175.036 13.844C174.244 14.3 173.596 14.972 173.092 15.86C172.612 16.724 172.372 17.756 172.372 18.956C172.372 20.156 172.612 21.212 173.092 22.124C173.596 23.012 174.244 23.696 175.036 24.176C175.852 24.656 176.716 24.896 177.628 24.896C178.564 24.896 179.44 24.668 180.256 24.212C181.072 23.732 181.72 23.06 182.2 22.196C182.68 21.308 182.92 20.252 182.92 19.028ZM204.726 29L197.958 20.504V29H192.918V2.36H197.958V17.516L204.654 9.056H211.206L202.422 19.064L211.278 29H204.726ZM232.482 18.596C232.482 19.316 232.434 19.964 232.338 20.54H217.758C217.878 21.98 218.382 23.108 219.27 23.924C220.158 24.74 221.25 25.148 222.546 25.148C224.418 25.148 225.75 24.344 226.542 22.736H231.978C231.402 24.656 230.298 26.24 228.666 27.488C227.034 28.712 225.03 29.324 222.654 29.324C220.734 29.324 219.006 28.904 217.47 28.064C215.958 27.2 214.77 25.988 213.906 24.428C213.066 22.868 212.646 21.068 212.646 19.028C212.646 16.964 213.066 15.152 213.906 13.592C214.746 12.032 215.922 10.832 217.434 9.992C218.946 9.152 220.686 8.732 222.654 8.732C224.55 8.732 226.242 9.14 227.73 9.956C229.242 10.772 230.406 11.936 231.222 13.448C232.062 14.936 232.482 16.652 232.482 18.596ZM227.262 17.156C227.238 15.86 226.77 14.828 225.858 14.06C224.946 13.268 223.83 12.872 222.51 12.872C221.262 12.872 220.206 13.256 219.342 14.024C218.502 14.768 217.986 15.812 217.794 17.156H227.262ZM241.2 12.152C241.848 11.096 242.688 10.268 243.72 9.668C244.776 9.068 245.976 8.768 247.32 8.768V14.06H245.988C244.404 14.06 243.204 14.432 242.388 15.176C241.596 15.92 241.2 17.216 241.2 19.064V29H236.16V9.056H241.2V12.152Z" fill="url(#paint0_linear_1_231)"/>
<path d="M28.1852 3.872H28.5852V3.472H28.1852V3.872ZM28.1852 29V29.4H28.5852V29H28.1852ZM23.1452 29H22.7452V29.4H23.1452V29ZM23.1452 12.656H23.5452L22.7753 12.5037L23.1452 12.656ZM16.4132 29V29.4H16.681L16.783 29.1523L16.4132 29ZM12.5972 29L12.2276 29.153L12.3299 29.4H12.5972V29ZM5.82918 12.656L6.19874 12.503L5.42918 12.656H5.82918ZM5.82918 29V29.4H6.22918V29H5.82918ZM0.789176 29H0.389176V29.4H0.789176V29ZM0.789176 3.872V3.472H0.389176V3.872H0.789176ZM6.51318 3.872L6.88094 3.71469L6.77713 3.472H6.51318V3.872ZM14.5052 22.556L14.1374 22.7133L14.5052 23.5731L14.8729 22.7133L14.5052 22.556ZM22.4972 3.872V3.472H22.2332L22.1294 3.71469L22.4972 3.872ZM27.7852 3.872V29H28.5852V3.872H27.7852ZM28.1852 28.6H23.1452V29.4H28.1852V28.6ZM23.5452 29V12.656H22.7452V29H23.5452ZM22.7753 12.5037L16.0433 28.8477L16.783 29.1523L23.515 12.8083L22.7753 12.5037ZM16.4132 28.6H12.5972V29.4H16.4132V28.6ZM12.9667 28.847L6.19874 12.503L5.45961 12.809L12.2276 29.153L12.9667 28.847ZM5.42918 12.656V29H6.22918V12.656H5.42918ZM5.82918 28.6H0.789176V29.4H5.82918V28.6ZM1.18918 29V3.872H0.389176V29H1.18918ZM0.789176 4.272H6.51318V3.472H0.789176V4.272ZM6.14541 4.02931L14.1374 22.7133L14.8729 22.3987L6.88094 3.71469L6.14541 4.02931ZM14.8729 22.7133L22.8649 4.02931L22.1294 3.71469L14.1374 22.3987L14.8729 22.7133ZM22.4972 4.272H28.1852V3.472H22.4972V4.272ZM33.0601 13.592L32.7056 13.4066L32.7034 13.4109L33.0601 13.592ZM36.3361 9.992L36.1294 9.64951L36.1268 9.65113L36.3361 9.992ZM44.8681 9.632L44.6771 9.98346L44.6802 9.98515L44.8681 9.632ZM47.5681 11.9L47.2461 12.1373L47.9681 13.1172V11.9H47.5681ZM47.5681 9.056V8.656H47.1681V9.056H47.5681ZM52.6441 9.056H53.0441V8.656H52.6441V9.056ZM52.6441 29V29.4H53.0441V29H52.6441ZM47.5681 29H47.1681V29.4H47.5681V29ZM47.5681 26.084H47.9681V24.8035L47.2392 25.8563L47.5681 26.084ZM44.8681 28.424L45.0559 28.7772L45.0586 28.7757L44.8681 28.424ZM36.3361 28.028L36.1225 28.3662L36.1251 28.3679L36.3361 28.028ZM33.0601 24.392L32.7023 24.5709L32.7056 24.5774L33.0601 24.392ZM46.8481 15.896L46.4962 16.0862L46.4984 16.0903L46.8481 15.896ZM44.9041 13.88L44.7012 14.2249L44.709 14.2292L44.9041 13.88ZM39.6841 13.844L39.4845 13.4973L39.6841 13.844ZM37.7401 15.86L37.3922 15.6625L37.3904 15.6657L37.7401 15.86ZM37.7401 22.124L37.3859 22.3104L37.3922 22.3214L37.7401 22.124ZM39.6841 24.176L39.4767 24.5181L39.4813 24.5208L39.6841 24.176ZM44.9041 24.212L45.0993 24.5613L45.1069 24.5568L44.9041 24.212ZM46.8481 22.196L47.1978 22.3903L47.2 22.3862L46.8481 22.196ZM32.2721 18.956C32.2721 16.9933 32.6573 15.269 33.4167 13.7731L32.7034 13.4109C31.8789 15.035 31.4721 16.8867 31.4721 18.956H32.2721ZM33.4145 13.7774C34.2004 12.275 35.2448 11.1315 36.5454 10.3329L36.1268 9.65113C34.6914 10.5325 33.5518 11.789 32.7056 13.4066L33.4145 13.7774ZM36.5427 10.3345C37.8693 9.53396 39.3453 9.132 40.9801 9.132V8.332C39.2069 8.332 37.5868 8.77004 36.1294 9.64953L36.5427 10.3345ZM40.9801 9.132C42.4137 9.132 43.6416 9.4207 44.6771 9.98345L45.0591 9.28055C43.8865 8.64329 42.5225 8.332 40.9801 8.332V9.132ZM44.6802 9.98515C45.7622 10.5607 46.6139 11.2793 47.2461 12.1373L47.8901 11.6627C47.1783 10.6967 46.23 9.90334 45.0559 9.27885L44.6802 9.98515ZM47.9681 11.9V9.056H47.1681V11.9H47.9681ZM47.5681 9.456H52.6441V8.656H47.5681V9.456ZM52.2441 9.056V29H53.0441V9.056H52.2441ZM52.6441 28.6H47.5681V29.4H52.6441V28.6ZM47.9681 29V26.084H47.1681V29H47.9681ZM47.2392 25.8563C46.632 26.7334 45.7827 27.4737 44.6776 28.0723L45.0586 28.7757C46.2575 28.1263 47.2082 27.3066 47.897 26.3117L47.2392 25.8563ZM44.6802 28.0709C43.6189 28.6354 42.3774 28.924 40.9441 28.924V29.724C42.4868 29.724 43.8612 29.4126 45.0559 28.7771L44.6802 28.0709ZM40.9441 28.924C39.3366 28.924 37.874 28.5118 36.547 27.6881L36.1251 28.3679C37.5821 29.2722 39.1915 29.724 40.9441 29.724V28.924ZM36.5497 27.6898C35.2465 26.8667 34.2008 25.7098 33.4145 24.2066L32.7056 24.5774C33.5513 26.1942 34.6897 27.4613 36.1225 28.3662L36.5497 27.6898ZM33.4179 24.2131C32.6576 22.6925 32.2721 20.9434 32.2721 18.956H31.4721C31.4721 21.0486 31.8786 22.9235 32.7023 24.5709L33.4179 24.2131ZM47.9681 19.028C47.9681 17.752 47.7177 16.6377 47.1977 15.7017L46.4984 16.0903C46.9384 16.8823 47.1681 17.856 47.1681 19.028H47.9681ZM47.2 15.7058C46.6869 14.7566 45.9868 14.0268 45.0992 13.5308L44.709 14.2292C45.4534 14.6452 46.0493 15.2594 46.4962 16.0862L47.2 15.7058ZM45.1069 13.5352C44.2302 13.0195 43.2843 12.76 42.2761 12.76V13.56C43.1399 13.56 43.946 13.7805 44.7013 14.2248L45.1069 13.5352ZM42.2761 12.76C41.2718 12.76 40.3387 13.0055 39.4845 13.4973L39.8837 14.1906C40.6134 13.7705 41.4084 13.56 42.2761 13.56V12.76ZM39.4845 13.4973C38.6236 13.993 37.9272 14.7199 37.3922 15.6626L38.088 16.0574C38.561 15.2241 39.1606 14.607 39.8837 14.1906L39.4845 13.4973ZM37.3904 15.6657C36.871 16.6006 36.6201 17.7025 36.6201 18.956H37.4201C37.4201 17.8095 37.6491 16.8474 38.0897 16.0543L37.3904 15.6657ZM36.6201 18.956C36.6201 20.2102 36.8713 21.3321 37.3861 22.3103L38.0941 21.9377C37.6489 21.0919 37.4201 20.1018 37.4201 18.956H36.6201ZM37.3922 22.3214C37.9264 23.2626 38.6205 23.9991 39.4768 24.5181L39.8914 23.8339C39.1637 23.3929 38.5618 22.7614 38.088 21.9266L37.3922 22.3214ZM39.4813 24.5208C40.3563 25.0355 41.29 25.296 42.2761 25.296V24.496C41.4382 24.496 40.6439 24.2765 39.8869 23.8312L39.4813 24.5208ZM42.2761 25.296C43.2803 25.296 44.2235 25.0505 45.0992 24.5612L44.709 23.8628C43.9527 24.2854 43.1439 24.496 42.2761 24.496V25.296ZM45.1069 24.5568C45.9872 24.039 46.6847 23.3138 47.1977 22.3903L46.4984 22.0017C46.0515 22.8062 45.453 23.425 44.7013 23.8672L45.1069 24.5568ZM47.2 22.3862C47.7176 21.4286 47.9681 20.3044 47.9681 19.028H47.1681C47.1681 20.1996 46.9386 21.1874 46.4962 22.0058L47.2 22.3862ZM57.8905 5.852L57.6077 6.13484L57.6136 6.14073L57.6197 6.14637L57.8905 5.852ZM57.8905 1.64L58.1673 1.92879L58.1675 1.92855L57.8905 1.64ZM62.3185 1.64L62.0357 1.92284L62.0416 1.92873L62.0477 1.93437L62.3185 1.64ZM62.3185 5.852L62.5953 6.1408L62.5955 6.14055L62.3185 5.852ZM62.6065 9.056H63.0065V8.656H62.6065V9.056ZM62.6065 29V29.4H63.0065V29H62.6065ZM57.5665 29H57.1665V29.4H57.5665V29ZM57.5665 9.056V8.656H57.1665V9.056H57.5665ZM60.1225 6.28C59.3251 6.28 58.6806 6.03539 58.1613 5.55763L57.6197 6.14637C58.3004 6.77261 59.1439 7.08 60.1225 7.08V6.28ZM58.1734 5.56916C57.675 5.07075 57.4265 4.46561 57.4265 3.728H56.6265C56.6265 4.67038 56.9541 5.48125 57.6077 6.13484L58.1734 5.56916ZM57.4265 3.728C57.4265 2.99058 57.6745 2.40099 58.1673 1.92879L57.6138 1.3512C56.9545 1.983 56.6265 2.78542 56.6265 3.728H57.4265ZM58.1675 1.92855C58.6877 1.42922 59.3301 1.176 60.1225 1.176V0.375998C59.139 0.375998 58.2934 0.698777 57.6135 1.35144L58.1675 1.92855ZM60.1225 1.176C60.915 1.176 61.5418 1.42899 62.0357 1.92284L62.6014 1.35716C61.9432 0.699009 61.1061 0.375998 60.1225 0.375998V1.176ZM62.0477 1.93437C62.5626 2.40806 62.8185 2.99603 62.8185 3.728H63.6185C63.6185 2.77997 63.2745 1.97593 62.5893 1.34563L62.0477 1.93437ZM62.8185 3.728C62.8185 4.46031 62.5621 5.06372 62.0415 5.56345L62.5955 6.14055C63.275 5.48828 63.6185 4.67569 63.6185 3.728H62.8185ZM62.0418 5.5632C61.5489 6.03552 60.9201 6.28 60.1225 6.28V7.08C61.101 7.08 61.9361 6.77248 62.5953 6.1408L62.0418 5.5632ZM62.2065 9.056V29H63.0065V9.056H62.2065ZM62.6065 28.6H57.5665V29.4H62.6065V28.6ZM57.9665 29V9.056H57.1665V29H57.9665ZM57.5665 9.456H62.6065V8.656H57.5665V9.456ZM84.398 11.036L84.1107 11.3143L84.1129 11.3165L84.398 11.036ZM86.594 29V29.4H86.994V29H86.594ZM81.5541 29H81.1541V29.4H81.5541V29ZM80.3661 14.348L80.0712 14.6183L80.075 14.6224L80.3661 14.348ZM73.814 14.348L73.5232 14.0733L73.523 14.0736L73.814 14.348ZM72.6261 29V29.4H73.0261V29H72.6261ZM67.5861 29H67.1861V29.4H67.5861V29ZM67.5861 9.056V8.656H67.1861V9.056H67.5861ZM72.6261 9.056H73.0261V8.656H72.6261V9.056ZM72.6261 11.54H72.2261V12.7058L72.9418 11.7856L72.6261 11.54ZM75.1821 9.524L75.3508 9.88671L75.3543 9.88499L75.1821 9.524ZM78.6381 9.168C80.921 9.168 82.7321 9.89042 84.1107 11.3142L84.6854 10.7578C83.136 9.15758 81.1071 8.368 78.6381 8.368V9.168ZM84.1129 11.3165C85.4838 12.7099 86.1941 14.6855 86.1941 17.3H86.994C86.994 14.5385 86.2403 12.3381 84.6832 10.7555L84.1129 11.3165ZM86.1941 17.3V29H86.994V17.3H86.1941ZM86.594 28.6H81.5541V29.4H86.594V28.6ZM81.954 29V17.984H81.1541V29H81.954ZM81.954 17.984C81.954 16.3364 81.5416 15.0117 80.6571 14.0736L80.075 14.6224C80.7745 15.3643 81.1541 16.4636 81.1541 17.984H81.954ZM80.6609 14.0777C79.7803 13.1171 78.5857 12.652 77.1261 12.652V13.452C78.4025 13.452 79.3678 13.8509 80.0712 14.6183L80.6609 14.0777ZM77.1261 12.652C75.6445 12.652 74.4278 13.1156 73.5232 14.0733L74.1049 14.6226C74.8323 13.8524 75.8236 13.452 77.1261 13.452V12.652ZM73.523 14.0736C72.6385 15.0117 72.2261 16.3364 72.2261 17.984H73.0261C73.0261 16.4636 73.4056 15.3643 74.1051 14.6224L73.523 14.0736ZM72.2261 17.984V29H73.0261V17.984H72.2261ZM72.6261 28.6H67.5861V29.4H72.6261V28.6ZM67.9861 29V9.056H67.1861V29H67.9861ZM67.5861 9.456H72.6261V8.656H67.5861V9.456ZM72.2261 9.056V11.54H73.0261V9.056H72.2261ZM72.9418 11.7856C73.5732 10.9738 74.374 10.341 75.3507 9.88669L75.0134 9.16131C73.9261 9.66701 73.0229 10.3782 72.3103 11.2944L72.9418 11.7856ZM75.3543 9.88499C76.353 9.40836 77.4456 9.168 78.6381 9.168V8.368C77.3345 8.368 76.1231 8.63164 75.0098 9.16301L75.3543 9.88499ZM103.889 28.352L103.731 28.7193L103.733 28.7203L103.889 28.352ZM100.577 25.76L100.253 25.9944L100.577 25.76ZM99.317 21.764V21.364H98.9107L98.917 21.7702L99.317 21.764ZM104.717 21.764L105.116 21.7362L105.09 21.364H104.717V21.764ZM105.797 24.212L105.525 24.5056L105.531 24.5104L105.797 24.212ZM111.305 24.284L111.559 24.5932L111.565 24.5877L111.305 24.284ZM111.629 20.216L111.339 20.4915L111.629 20.216ZM109.901 19.1L109.743 19.4677L109.751 19.471L109.759 19.474L109.901 19.1ZM107.093 18.164L106.98 18.5478L106.985 18.5492L107.093 18.164ZM103.097 16.76L102.925 17.1213L102.935 17.1259L103.097 16.76ZM100.469 14.636L100.149 14.8761L100.156 14.8849L100.469 14.636ZM100.505 6.932L100.837 7.15554V7.15554L100.505 6.932ZM103.637 4.412L103.795 4.7797L103.8 4.77725L103.637 4.412ZM114.545 5.42L114.297 5.73375L114.302 5.73774L114.545 5.42ZM117.245 10.676V11.076H117.676L117.644 10.6463L117.245 10.676ZM111.701 10.676L111.302 10.6982L111.323 11.076H111.701V10.676ZM110.585 8.552L110.325 8.8557L110.33 8.86066L110.336 8.8654L110.585 8.552ZM105.509 8.444L105.252 8.13765L105.246 8.14297L105.509 8.444ZM105.293 12.332L105.003 12.6071L105.01 12.6149L105.018 12.6224L105.293 12.332ZM106.949 13.412L106.786 13.7775L106.795 13.7811L106.803 13.7843L106.949 13.412ZM109.757 14.348L109.642 14.7311L109.644 14.7317L109.757 14.348ZM116.417 17.948L116.101 18.193L116.417 17.948ZM116.489 25.472L116.147 25.2652L116.489 25.472ZM113.429 28.244L113.608 28.6018L113.613 28.5992L113.429 28.244ZM108.641 28.852C106.935 28.852 105.405 28.5601 104.045 27.9837L103.733 28.7203C105.205 29.3439 106.843 29.652 108.641 29.652V28.852ZM104.047 27.9847C102.715 27.4106 101.671 26.59 100.901 25.5256L100.253 25.9944C101.115 27.186 102.278 28.0934 103.731 28.7193L104.047 27.9847ZM100.901 25.5256C100.138 24.4709 99.7398 23.2206 99.7169 21.7578L98.917 21.7702C98.9421 23.3794 99.3838 24.7931 100.253 25.9944L100.901 25.5256ZM99.317 22.164H104.717V21.364H99.317V22.164ZM104.318 21.7918C104.396 22.9068 104.79 23.8247 105.525 24.5055L106.069 23.9185C105.508 23.3993 105.182 22.6852 105.116 21.7362L104.318 21.7918ZM105.531 24.5104C106.294 25.1925 107.311 25.512 108.533 25.512V24.712C107.451 24.712 106.643 24.4315 106.063 23.9136L105.531 24.5104ZM108.533 25.512C109.769 25.512 110.794 25.2217 111.559 24.5931L111.051 23.9749C110.472 24.4503 109.649 24.712 108.533 24.712V25.512ZM111.565 24.5877C112.329 23.9331 112.713 23.0767 112.713 22.052H111.913C111.913 22.8513 111.625 23.4829 111.045 23.9803L111.565 24.5877ZM112.713 22.052C112.713 21.2192 112.455 20.5042 111.919 19.9405L111.339 20.4915C111.715 20.8878 111.913 21.3968 111.913 22.052H112.713ZM111.919 19.9405C111.417 19.4118 110.788 19.0086 110.043 18.726L109.759 19.474C110.406 19.7194 110.929 20.0602 111.339 20.4915L111.919 19.9405ZM110.059 18.7323C109.363 18.4343 108.408 18.1168 107.201 17.7788L106.985 18.5492C108.178 18.8832 109.095 19.1897 109.743 19.4677L110.059 18.7323ZM107.206 17.7803C105.583 17.303 104.269 16.8406 103.259 16.3941L102.935 17.1259C103.989 17.5914 105.339 18.065 106.98 18.5477L107.206 17.7803ZM103.269 16.3989C102.32 15.9469 101.491 15.2789 100.782 14.3871L100.156 14.8849C100.935 15.8651 101.858 16.6131 102.925 17.1211L103.269 16.3989ZM100.789 14.396C100.135 13.5245 99.789 12.3451 99.789 10.82H98.989C98.989 12.4629 99.3626 13.8275 100.149 14.876L100.789 14.396ZM99.789 10.82C99.789 9.40192 100.142 8.18585 100.837 7.15554L100.173 6.70846C99.3796 7.88614 98.989 9.26208 98.989 10.82H99.789ZM100.837 7.15554C101.533 6.12154 102.514 5.32845 103.795 4.77966L103.479 4.04434C102.072 4.64754 100.964 5.53446 100.173 6.70846L100.837 7.15554ZM103.8 4.77725C105.085 4.2038 106.563 3.912 108.245 3.912V3.112C106.47 3.112 104.877 3.4202 103.474 4.04674L103.8 4.77725ZM108.245 3.912C110.771 3.912 112.776 4.53097 114.297 5.73371L114.793 5.10629C113.098 3.76503 110.903 3.112 108.245 3.112V3.912ZM114.302 5.73774C115.833 6.9089 116.686 8.55068 116.846 10.7057L117.644 10.6463C117.468 8.28932 116.52 6.4271 114.788 5.10226L114.302 5.73774ZM117.245 10.276H111.701V11.076H117.245V10.276ZM112.1 10.6538C112.046 9.67223 111.616 8.8595 110.834 8.2386L110.336 8.8654C110.946 9.3485 111.26 9.95177 111.302 10.6982L112.1 10.6538ZM110.845 8.2483C110.083 7.59465 109.082 7.288 107.885 7.288V8.088C108.944 8.088 109.743 8.35735 110.325 8.8557L110.845 8.2483ZM107.885 7.288C106.832 7.288 105.941 7.55897 105.252 8.13772L105.766 8.75028C106.277 8.32103 106.97 8.088 107.885 8.088V7.288ZM105.246 8.14297C104.561 8.74153 104.245 9.59628 104.245 10.64H105.045C105.045 9.76372 105.304 9.15447 105.772 8.74503L105.246 8.14297ZM104.245 10.64C104.245 11.4065 104.495 12.0713 105.003 12.6071L105.583 12.0569C105.227 11.6807 105.045 11.2175 105.045 10.64H104.245ZM105.018 12.6224C105.511 13.0894 106.102 13.4734 106.786 13.7775L107.111 13.0465C106.5 12.7746 105.987 12.4386 105.568 12.0416L105.018 12.6224ZM106.803 13.7843C107.49 14.0542 108.438 14.3699 109.642 14.7311L109.872 13.9649C108.676 13.6061 107.752 13.2978 107.095 13.0397L106.803 13.7843ZM109.644 14.7317C111.265 15.2086 112.577 15.6821 113.584 16.1507L113.922 15.4253C112.865 14.9339 111.513 14.4474 109.87 13.9643L109.644 14.7317ZM113.584 16.1507C114.555 16.602 115.393 17.28 116.101 18.193L116.733 17.703C115.953 16.696 115.015 15.934 113.922 15.4253L113.584 16.1507ZM116.101 18.193C116.777 19.0651 117.133 20.2312 117.133 21.728H117.933C117.933 20.1048 117.545 18.7509 116.733 17.703L116.101 18.193ZM117.133 21.728C117.133 22.999 116.805 24.1755 116.147 25.2652L116.831 25.6788C117.565 24.4645 117.933 23.145 117.933 21.728H117.133ZM116.147 25.2652C115.493 26.3464 114.532 27.2224 113.245 27.8888L113.613 28.5992C115.014 27.8736 116.093 26.9016 116.831 25.6788L116.147 25.2652ZM113.25 27.8862C111.973 28.5248 110.441 28.852 108.641 28.852V29.652C110.537 29.652 112.197 29.3072 113.608 28.6018L113.25 27.8862ZM126.942 11.936H126.542V13.1896L127.269 12.1677L126.942 11.936ZM129.606 9.668L129.794 10.0212L129.797 10.0197L129.606 9.668ZM138.138 9.992L137.929 10.3329L137.932 10.3345L138.138 9.992ZM141.414 13.592L141.058 13.7731L141.061 13.7797L141.414 13.592ZM141.414 24.392L141.059 24.2088L141.058 24.2109L141.414 24.392ZM138.138 28.028L137.928 27.6881L137.925 27.6898L138.138 28.028ZM129.642 28.424L129.451 28.7755L129.455 28.7771L129.642 28.424ZM126.942 26.156L127.26 25.9133L126.542 24.9725V26.156H126.942ZM126.942 38.504V38.904H127.342V38.504H126.942ZM121.902 38.504H121.502V38.904H121.902V38.504ZM121.902 9.056V8.656H121.502V9.056H121.902ZM126.942 9.056H127.342V8.656H126.942V9.056ZM136.734 15.86L136.382 16.0503L136.389 16.0615L136.734 15.86ZM134.79 13.844L134.591 14.1907L134.595 14.1932L134.79 13.844ZM129.606 13.88L129.806 14.2267L129.809 14.2248L129.606 13.88ZM127.662 15.896L127.315 15.6985L127.311 15.7058L127.662 15.896ZM127.662 22.16L127.311 22.3502L127.315 22.3574L127.662 22.16ZM129.606 24.212L129.399 24.5543L129.411 24.5612L129.606 24.212ZM134.79 24.176L134.588 23.8312L134.583 23.8339L134.79 24.176ZM136.734 22.124L136.387 21.9265L136.383 21.9338L136.734 22.124ZM127.269 12.1677C127.876 11.3131 128.713 10.5961 129.794 10.0211L129.419 9.31485C128.244 9.93988 127.305 10.7349 126.616 11.7043L127.269 12.1677ZM129.797 10.0197C130.884 9.43098 132.125 9.132 133.53 9.132V8.332C132.008 8.332 130.633 8.65701 129.416 9.31628L129.797 10.0197ZM133.53 9.132C135.165 9.132 136.628 9.53394 137.929 10.3329L138.348 9.65113C136.913 8.77006 135.304 8.332 133.53 8.332V9.132ZM137.932 10.3345C139.255 11.1328 140.297 12.2746 141.058 13.7731L141.771 13.4109C140.948 11.7894 139.806 10.5312 138.345 9.64953L137.932 10.3345ZM141.061 13.7797C141.842 15.2486 142.238 16.9701 142.238 18.956H143.038C143.038 16.8619 142.619 15.0074 141.768 13.4043L141.061 13.7797ZM142.238 18.956C142.238 20.9416 141.842 22.6892 141.059 24.2088L141.77 24.5752C142.619 22.9268 143.038 21.0504 143.038 18.956H142.238ZM141.058 24.2109C140.297 25.7103 139.253 26.8654 137.928 27.6881L138.349 28.3679C139.808 27.4626 140.948 26.1937 141.771 24.5731L141.058 24.2109ZM137.925 27.6898C136.624 28.5112 135.163 28.924 133.53 28.924V29.724C135.306 29.724 136.917 29.2728 138.352 28.3662L137.925 27.6898ZM133.53 28.924C132.122 28.924 130.893 28.6359 129.83 28.0709L129.455 28.7771C130.648 29.4121 132.011 29.724 133.53 29.724V28.924ZM129.833 28.0725C128.774 27.4969 127.919 26.7764 127.26 25.9133L126.624 26.3987C127.358 27.3596 128.303 28.1511 129.451 28.7754L129.833 28.0725ZM126.542 26.156V38.504H127.342V26.156H126.542ZM126.942 38.104H121.902V38.904H126.942V38.104ZM122.302 38.504V9.056H121.502V38.504H122.302ZM121.902 9.456H126.942V8.656H121.902V9.456ZM126.542 9.056V11.936H127.342V9.056H126.542ZM137.89 18.956C137.89 17.6993 137.626 16.5948 137.08 15.6585L136.389 16.0615C136.851 16.8532 137.09 17.8127 137.09 18.956H137.89ZM137.086 15.6698C136.573 14.7206 135.873 13.9908 134.986 13.4948L134.595 14.1932C135.34 14.6092 135.936 15.2234 136.383 16.0502L137.086 15.6698ZM134.99 13.4973C134.136 13.0055 133.203 12.76 132.198 12.76V13.56C133.066 13.56 133.861 13.7705 134.591 14.1906L134.99 13.4973ZM132.198 12.76C131.212 12.76 130.279 13.0205 129.404 13.5352L129.809 14.2248C130.566 13.7795 131.361 13.56 132.198 13.56V12.76ZM129.407 13.5333C128.546 14.029 127.85 14.7559 127.315 15.6986L128.01 16.0934C128.483 15.2601 129.083 14.643 129.806 14.2266L129.407 13.5333ZM127.311 15.7058C126.794 16.6623 126.542 17.7741 126.542 19.028H127.342C127.342 17.8819 127.571 16.9057 128.014 16.0862L127.311 15.7058ZM126.542 19.028C126.542 20.2819 126.794 21.3937 127.311 22.3502L128.014 21.9698C127.571 21.1503 127.342 20.1741 127.342 19.028H126.542ZM127.315 22.3574C127.849 23.2986 128.543 24.0351 129.399 24.5541L129.814 23.8699C129.086 23.4289 128.484 22.7974 128.01 21.9626L127.315 22.3574ZM129.411 24.5612C130.285 25.0496 131.216 25.296 132.198 25.296V24.496C131.357 24.496 130.56 24.2864 129.802 23.8628L129.411 24.5612ZM132.198 25.296C133.207 25.296 134.143 25.0364 134.998 24.5181L134.583 23.8339C133.854 24.2756 133.062 24.496 132.198 24.496V25.296ZM134.993 24.5208C135.876 24.0013 136.574 23.2619 137.086 22.3142L136.383 21.9338C135.935 22.7621 135.337 23.3907 134.588 23.8312L134.993 24.5208ZM137.082 22.3214C137.627 21.3623 137.89 20.2355 137.89 18.956H137.09C137.09 20.1245 136.85 21.1097 136.387 21.9266L137.082 22.3214ZM164.697 20.54V20.94H165.036L165.091 20.6058L164.697 20.54ZM150.117 20.54V20.14H149.682L149.718 20.5732L150.117 20.54ZM151.629 23.924L151.358 24.2185L151.629 23.924ZM158.901 22.736V22.336H158.652L158.542 22.5593L158.901 22.736ZM164.337 22.736L164.72 22.8509L164.875 22.336H164.337V22.736ZM161.025 27.488L161.265 27.808L161.268 27.8057L161.025 27.488ZM149.829 28.064L149.63 28.4114L149.637 28.4149L149.829 28.064ZM146.265 24.428L145.913 24.6177L145.915 24.6218L146.265 24.428ZM146.265 13.592L145.913 13.4024L146.265 13.592ZM149.793 9.992L149.987 10.3417L149.793 9.992ZM160.089 9.956L159.897 10.3067L159.899 10.308L160.089 9.956ZM163.581 13.448L163.229 13.638L163.233 13.6446L163.581 13.448ZM159.621 17.156V17.556H160.028L160.021 17.1486L159.621 17.156ZM158.217 14.06L157.955 14.362L157.959 14.366L158.217 14.06ZM151.701 14.024L151.966 14.3234L151.967 14.323L151.701 14.024ZM150.153 17.156L149.757 17.0994L149.692 17.556H150.153V17.156ZM164.441 18.596C164.441 19.2988 164.394 19.9243 164.302 20.4742L165.091 20.6058C165.192 20.0037 165.241 19.3332 165.241 18.596H164.441ZM164.697 20.14H150.117V20.94H164.697V20.14ZM149.718 20.5732C149.845 22.0923 150.382 23.3216 151.358 24.2185L151.9 23.6295C151.1 22.8944 150.629 21.8677 150.516 20.5068L149.718 20.5732ZM151.358 24.2185C152.326 25.1077 153.517 25.548 154.905 25.548V24.748C153.701 24.748 152.708 24.3723 151.9 23.6295L151.358 24.2185ZM154.905 25.548C155.899 25.548 156.775 25.3341 157.515 24.8875C158.256 24.4402 158.835 23.7747 159.26 22.9127L158.542 22.5593C158.175 23.3053 157.692 23.8458 157.101 24.2025C156.509 24.5599 155.783 24.748 154.905 24.748V25.548ZM158.901 23.136H164.337V22.336H158.901V23.136ZM163.954 22.6211C163.403 24.4583 162.349 25.9721 160.782 27.1703L161.268 27.8057C162.965 26.5079 164.119 24.8537 164.72 22.8509L163.954 22.6211ZM160.785 27.168C159.233 28.3318 157.317 28.924 155.013 28.924V29.724C157.461 29.724 159.553 29.0922 161.265 27.808L160.785 27.168ZM155.013 28.924C153.153 28.924 151.492 28.5178 150.021 27.7131L149.637 28.4149C151.237 29.2902 153.032 29.724 155.013 29.724V28.924ZM150.027 27.7167C148.581 26.8899 147.444 25.7318 146.615 24.2342L145.915 24.6218C146.814 26.2442 148.053 27.5101 149.63 28.4113L150.027 27.7167ZM146.617 24.2384C145.813 22.7449 145.405 21.0119 145.405 19.028H144.605C144.605 21.1241 145.037 22.9911 145.913 24.6176L146.617 24.2384ZM145.405 19.028C145.405 17.0192 145.813 15.2744 146.617 13.7816L145.913 13.4024C145.036 15.0296 144.605 16.9088 144.605 19.028H145.405ZM146.617 13.7816C147.422 12.2872 148.544 11.1436 149.987 10.3417L149.599 9.64234C148.018 10.5204 146.788 11.7767 145.913 13.4024L146.617 13.7816ZM149.987 10.3417C151.432 9.539 153.103 9.132 155.013 9.132V8.332C152.986 8.332 151.178 8.765 149.599 9.64234L149.987 10.3417ZM155.013 9.132C156.85 9.132 158.474 9.5267 159.897 10.3067L160.281 9.60527C158.728 8.75329 156.968 8.332 155.013 8.332V9.132ZM159.899 10.308C161.342 11.087 162.45 12.1946 163.229 13.638L163.933 13.258C163.08 11.6774 161.86 10.457 160.279 9.60399L159.899 10.308ZM163.233 13.6446C164.034 15.0648 164.441 16.7113 164.441 18.596H165.241C165.241 16.5927 164.808 14.8072 163.929 13.2514L163.233 13.6446ZM160.021 17.1486C159.995 15.7485 159.483 14.6034 158.475 13.754L157.959 14.366C158.775 15.0526 159.199 15.9715 159.221 17.1634L160.021 17.1486ZM158.479 13.758C157.487 12.8967 156.276 12.472 154.869 12.472V13.272C156.102 13.272 157.122 13.6393 157.955 14.362L158.479 13.758ZM154.869 12.472C153.531 12.472 152.378 12.8865 151.435 13.725L151.967 14.323C152.751 13.6255 153.71 13.272 154.869 13.272V12.472ZM151.436 13.7246C150.511 14.544 149.959 15.6821 149.757 17.0994L150.549 17.2126C150.73 15.9419 151.211 14.992 151.966 14.3234L151.436 13.7246ZM150.153 17.556H159.621V16.756H150.153V17.556ZM168.412 13.592L168.057 13.4066L168.055 13.4109L168.412 13.592ZM171.688 9.992L171.481 9.64951L171.478 9.65113L171.688 9.992ZM180.22 9.632L180.029 9.98346L180.032 9.98515L180.22 9.632ZM182.92 11.9L182.598 12.1373L183.32 13.1172V11.9H182.92ZM182.92 9.056V8.656H182.52V9.056H182.92ZM187.996 9.056H188.396V8.656H187.996V9.056ZM187.996 29V29.4H188.396V29H187.996ZM182.92 29H182.52V29.4H182.92V29ZM182.92 26.084H183.32V24.8035L182.591 25.8563L182.92 26.084ZM180.22 28.424L180.408 28.7772L180.41 28.7757L180.22 28.424ZM171.688 28.028L171.474 28.3662L171.477 28.3679L171.688 28.028ZM168.412 24.392L168.054 24.5709L168.057 24.5774L168.412 24.392ZM182.2 15.896L181.848 16.0862L181.85 16.0903L182.2 15.896ZM180.256 13.88L180.053 14.2249L180.061 14.2292L180.256 13.88ZM175.036 13.844L174.836 13.4973L175.036 13.844ZM173.092 15.86L172.744 15.6625L172.742 15.6657L173.092 15.86ZM173.092 22.124L172.738 22.3104L172.744 22.3214L173.092 22.124ZM175.036 24.176L174.828 24.5181L174.833 24.5208L175.036 24.176ZM180.256 24.212L180.451 24.5613L180.458 24.5568L180.256 24.212ZM182.2 22.196L182.549 22.3903L182.552 22.3862L182.2 22.196ZM167.624 18.956C167.624 16.9933 168.009 15.269 168.768 13.7731L168.055 13.4109C167.23 15.035 166.824 16.8867 166.824 18.956H167.624ZM168.766 13.7774C169.552 12.275 170.596 11.1315 171.897 10.3329L171.478 9.65113C170.043 10.5325 168.903 11.789 168.057 13.4066L168.766 13.7774ZM171.894 10.3345C173.221 9.53396 174.697 9.132 176.332 9.132V8.332C174.558 8.332 172.938 8.77004 171.481 9.64953L171.894 10.3345ZM176.332 9.132C177.765 9.132 178.993 9.4207 180.029 9.98345L180.411 9.28055C179.238 8.64329 177.874 8.332 176.332 8.332V9.132ZM180.032 9.98515C181.114 10.5607 181.965 11.2793 182.598 12.1373L183.242 11.6627C182.53 10.6967 181.582 9.90334 180.407 9.27885L180.032 9.98515ZM183.32 11.9V9.056H182.52V11.9H183.32ZM182.92 9.456H187.996V8.656H182.92V9.456ZM187.596 9.056V29H188.396V9.056H187.596ZM187.996 28.6H182.92V29.4H187.996V28.6ZM183.32 29V26.084H182.52V29H183.32ZM182.591 25.8563C181.984 26.7334 181.134 27.4737 180.029 28.0723L180.41 28.7757C181.609 28.1263 182.56 27.3066 183.249 26.3117L182.591 25.8563ZM180.032 28.0709C178.97 28.6354 177.729 28.924 176.296 28.924V29.724C177.838 29.724 179.213 29.4126 180.407 28.7771L180.032 28.0709ZM176.296 28.924C174.688 28.924 173.226 28.5118 171.899 27.6881L171.477 28.3679C172.934 29.2722 174.543 29.724 176.296 29.724V28.924ZM171.901 27.6898C170.598 26.8667 169.552 25.7098 168.766 24.2066L168.057 24.5774C168.903 26.1942 170.041 27.4613 171.474 28.3662L171.901 27.6898ZM168.769 24.2131C168.009 22.6925 167.624 20.9434 167.624 18.956H166.824C166.824 21.0486 167.23 22.9235 168.054 24.5709L168.769 24.2131ZM183.32 19.028C183.32 17.752 183.069 16.6377 182.549 15.7017L181.85 16.0903C182.29 16.8823 182.52 17.856 182.52 19.028H183.32ZM182.552 15.7058C182.038 14.7566 181.338 14.0268 180.451 13.5308L180.061 14.2292C180.805 14.6452 181.401 15.2594 181.848 16.0862L182.552 15.7058ZM180.458 13.5352C179.582 13.0195 178.636 12.76 177.628 12.76V13.56C178.491 13.56 179.298 13.7805 180.053 14.2248L180.458 13.5352ZM177.628 12.76C176.623 12.76 175.69 13.0055 174.836 13.4973L175.235 14.1906C175.965 13.7705 176.76 13.56 177.628 13.56V12.76ZM174.836 13.4973C173.975 13.993 173.279 14.7199 172.744 15.6626L173.44 16.0574C173.913 15.2241 174.512 14.607 175.235 14.1906L174.836 13.4973ZM172.742 15.6657C172.223 16.6006 171.972 17.7025 171.972 18.956H172.772C172.772 17.8095 173.001 16.8474 173.441 16.0543L172.742 15.6657ZM171.972 18.956C171.972 20.2102 172.223 21.3321 172.738 22.3103L173.446 21.9377C173 21.0919 172.772 20.1018 172.772 18.956H171.972ZM172.744 22.3214C173.278 23.2626 173.972 23.9991 174.828 24.5181L175.243 23.8339C174.515 23.3929 173.913 22.7614 173.44 21.9266L172.744 22.3214ZM174.833 24.5208C175.708 25.0355 176.642 25.296 177.628 25.296V24.496C176.79 24.496 175.995 24.2765 175.238 23.8312L174.833 24.5208ZM177.628 25.296C178.632 25.296 179.575 25.0505 180.451 24.5612L180.061 23.8628C179.304 24.2854 178.495 24.496 177.628 24.496V25.296ZM180.458 24.5568C181.339 24.039 182.036 23.3138 182.549 22.3903L181.85 22.0017C181.403 22.8062 180.805 23.425 180.053 23.8672L180.458 24.5568ZM182.552 22.3862C183.069 21.4286 183.32 20.3044 183.32 19.028H182.52C182.52 20.1996 182.29 21.1874 181.848 22.0058L182.552 22.3862ZM204.726 29L204.413 29.2492L204.533 29.4H204.726V29ZM197.958 20.504L198.271 20.2548L197.558 19.3599V20.504H197.958ZM197.958 29V29.4H198.358V29H197.958ZM192.918 29H192.518V29.4H192.918V29ZM192.918 2.36V1.96H192.518V2.36H192.918ZM197.958 2.36H198.358V1.96H197.958V2.36ZM197.958 17.516H197.558V18.6659L198.272 17.7642L197.958 17.516ZM204.654 9.056V8.656H204.461L204.34 8.80775L204.654 9.056ZM211.206 9.056L211.507 9.31986L212.089 8.656H211.206V9.056ZM202.422 19.064L202.121 18.8001L201.888 19.066L202.123 19.3301L202.422 19.064ZM211.278 29V29.4H212.17L211.577 28.7339L211.278 29ZM205.039 28.7508L198.271 20.2548L197.645 20.7532L204.413 29.2492L205.039 28.7508ZM197.558 20.504V29H198.358V20.504H197.558ZM197.958 28.6H192.918V29.4H197.958V28.6ZM193.318 29V2.36H192.518V29H193.318ZM192.918 2.76H197.958V1.96H192.918V2.76ZM197.558 2.36V17.516H198.358V2.36H197.558ZM198.272 17.7642L204.968 9.30425L204.34 8.80775L197.644 17.2678L198.272 17.7642ZM204.654 9.456H211.206V8.656H204.654V9.456ZM210.905 8.79214L202.121 18.8001L202.723 19.3279L211.507 9.31986L210.905 8.79214ZM202.123 19.3301L210.979 29.2661L211.577 28.7339L202.721 18.7979L202.123 19.3301ZM211.278 28.6H204.726V29.4H211.278V28.6ZM232.338 20.54V20.94H232.676L232.732 20.6058L232.338 20.54ZM217.758 20.54V20.14H217.323L217.359 20.5732L217.758 20.54ZM219.27 23.924L218.999 24.2185L219.27 23.924ZM226.542 22.736V22.336H226.293L226.183 22.5593L226.542 22.736ZM231.978 22.736L232.361 22.8509L232.515 22.336H231.978V22.736ZM228.666 27.488L228.906 27.808L228.908 27.8057L228.666 27.488ZM217.47 28.064L217.271 28.4114L217.278 28.4149L217.47 28.064ZM213.906 24.428L213.553 24.6177L213.556 24.6218L213.906 24.428ZM213.906 13.592L213.553 13.4024L213.906 13.592ZM217.434 9.992L217.628 10.3417L217.434 9.992ZM227.73 9.956L227.537 10.3067L227.54 10.308L227.73 9.956ZM231.222 13.448L230.869 13.638L230.873 13.6446L231.222 13.448ZM227.262 17.156V17.556H227.669L227.661 17.1486L227.262 17.156ZM225.858 14.06L225.595 14.362L225.6 14.366L225.858 14.06ZM219.342 14.024L219.607 14.3234L219.607 14.323L219.342 14.024ZM217.794 17.156L217.398 17.0994L217.332 17.556H217.794V17.156ZM232.082 18.596C232.082 19.2988 232.035 19.9243 231.943 20.4742L232.732 20.6058C232.832 20.0037 232.882 19.3332 232.882 18.596H232.082ZM232.338 20.14H217.758V20.94H232.338V20.14ZM217.359 20.5732C217.485 22.0923 218.023 23.3216 218.999 24.2185L219.54 23.6295C218.74 22.8944 218.27 21.8677 218.156 20.5068L217.359 20.5732ZM218.999 24.2185C219.966 25.1077 221.157 25.548 222.546 25.548V24.748C221.342 24.748 220.349 24.3723 219.54 23.6295L218.999 24.2185ZM222.546 25.548C223.54 25.548 224.415 25.3341 225.155 24.8875C225.896 24.4402 226.476 23.7747 226.9 22.9127L226.183 22.5593C225.815 23.3053 225.333 23.8458 224.742 24.2025C224.15 24.5599 223.424 24.748 222.546 24.748V25.548ZM226.542 23.136H231.978V22.336H226.542V23.136ZM231.594 22.6211C231.043 24.4583 229.989 25.9721 228.423 27.1703L228.908 27.8057C230.606 26.5079 231.76 24.8537 232.361 22.8509L231.594 22.6211ZM228.426 27.168C226.874 28.3318 224.958 28.924 222.654 28.924V29.724C225.101 29.724 227.193 29.0922 228.906 27.808L228.426 27.168ZM222.654 28.924C220.794 28.924 219.133 28.5178 217.661 27.7131L217.278 28.4149C218.878 29.2902 220.673 29.724 222.654 29.724V28.924ZM217.668 27.7167C216.221 26.8899 215.085 25.7318 214.255 24.2342L213.556 24.6218C214.454 26.2442 215.694 27.5101 217.271 28.4113L217.668 27.7167ZM214.258 24.2384C213.454 22.7449 213.046 21.0119 213.046 19.028H212.246C212.246 21.1241 212.677 22.9911 213.553 24.6176L214.258 24.2384ZM213.046 19.028C213.046 17.0192 213.454 15.2744 214.258 13.7816L213.553 13.4024C212.677 15.0296 212.246 16.9088 212.246 19.028H213.046ZM214.258 13.7816C215.062 12.2872 216.184 11.1436 217.628 10.3417L217.239 9.64234C215.659 10.5204 214.429 11.7767 213.553 13.4024L214.258 13.7816ZM217.628 10.3417C219.073 9.539 220.744 9.132 222.654 9.132V8.332C220.627 8.332 218.818 8.765 217.239 9.64234L217.628 10.3417ZM222.654 9.132C224.49 9.132 226.115 9.5267 227.537 10.3067L227.922 9.60527C226.368 8.75329 224.609 8.332 222.654 8.332V9.132ZM227.54 10.308C228.983 11.087 230.091 12.1946 230.87 13.638L231.574 13.258C230.72 11.6774 229.5 10.457 227.919 9.60399L227.54 10.308ZM230.873 13.6446C231.675 15.0648 232.082 16.7113 232.082 18.596H232.882C232.882 16.5927 232.448 14.8072 231.57 13.2514L230.873 13.6446ZM227.661 17.1486C227.636 15.7485 227.124 14.6034 226.115 13.754L225.6 14.366C226.415 15.0526 226.84 15.9715 226.862 17.1634L227.661 17.1486ZM226.12 13.758C225.128 12.8967 223.916 12.472 222.51 12.472V13.272C223.743 13.272 224.763 13.6393 225.595 14.362L226.12 13.758ZM222.51 12.472C221.172 12.472 220.019 12.8865 219.076 13.725L219.607 14.323C220.392 13.6255 221.351 13.272 222.51 13.272V12.472ZM219.076 13.7246C218.151 14.544 217.6 15.6821 217.398 17.0994L218.189 17.2126C218.371 15.9419 218.852 14.992 219.607 14.3234L219.076 13.7246ZM217.794 17.556H227.262V16.756H217.794V17.556ZM241.2 12.152H240.8V13.5686L241.541 12.3612L241.2 12.152ZM243.72 9.668L243.523 9.3202L243.519 9.3222L243.72 9.668ZM247.32 8.768H247.72V8.368H247.32V8.768ZM247.32 14.06V14.46H247.72V14.06H247.32ZM242.388 15.176L242.119 14.8804L242.114 14.8845L242.388 15.176ZM241.2 29V29.4H241.6V29H241.2ZM236.16 29H235.76V29.4H236.16V29ZM236.16 9.056V8.656H235.76V9.056H236.16ZM241.2 9.056H241.6V8.656H241.2V9.056ZM241.541 12.3612C242.156 11.3594 242.949 10.5793 243.921 10.0138L243.519 9.3222C242.428 9.95674 241.541 10.8326 240.859 11.9428L241.541 12.3612ZM243.918 10.0158C244.907 9.45356 246.038 9.168 247.32 9.168V8.368C245.915 8.368 244.645 8.68244 243.523 9.32022L243.918 10.0158ZM246.92 8.768V14.06H247.72V8.768H246.92ZM247.32 13.66H245.988V14.46H247.32V13.66ZM245.988 13.66C244.348 13.66 243.035 14.045 242.119 14.8804L242.658 15.4716C243.374 14.819 244.461 14.46 245.988 14.46V13.66ZM242.114 14.8845C241.201 15.7427 240.8 17.1788 240.8 19.064H241.6C241.6 17.2532 241.992 16.0973 242.662 15.4675L242.114 14.8845ZM240.8 19.064V29H241.6V19.064H240.8ZM241.2 28.6H236.16V29.4H241.2V28.6ZM236.56 29V9.056H235.76V29H236.56ZM236.16 9.456H241.2V8.656H236.16V9.456ZM240.8 9.056V12.152H241.6V9.056H240.8Z" fill="url(#paint1_linear_1_231)" mask="url(#path-1-outside-1_1_231)"/>
<defs>
<linearGradient id="paint0_linear_1_231" x1="26.6567" y1="-19.9154" x2="53.4538" y2="102.381" gradientUnits="userSpaceOnUse">
<stop stop-color="#0E044B"/>
<stop offset="0.544503" stop-color="#2C309B"/>
<stop offset="1" stop-color="#89E8FD"/>
</linearGradient>
<linearGradient id="paint1_linear_1_231" x1="120.805" y1="5" x2="120.805" y2="26.3632" gradientUnits="userSpaceOnUse">
<stop stop-color="#AACCFF"/>
<stop offset="0.494792" stop-color="#C1CFFF" stop-opacity="0"/>
<stop offset="1" stop-color="#DAE2FF"/>
</linearGradient>
</defs>
</svg>
