<svg width="470" height="210" viewBox="0 0 470 210" fill="none" xmlns="http://www.w3.org/2000/svg">
<path d="M23.3923 174.388V180.036H9.11163V188.984H20.0552V194.532H9.11163V209.278H2.24121V174.388H23.3923Z" fill="url(#paint0_linear_1_71)"/>
<path d="M55.4022 181.586V209.278H48.4827V205.779C47.5994 206.979 46.438 207.929 44.9985 208.628C43.5917 209.295 42.054 209.628 40.3855 209.628C38.2589 209.628 36.3777 209.178 34.7419 208.278C33.1061 207.345 31.8138 205.996 30.865 204.23C29.949 202.43 29.4909 200.297 29.4909 197.831V181.586H36.3614V196.832C36.3614 199.031 36.9012 200.73 37.9808 201.93C39.0605 203.097 40.5327 203.68 42.3975 203.68C44.2951 203.68 45.7837 203.097 46.8633 201.93C47.9429 200.73 48.4827 199.031 48.4827 196.832V181.586H55.4022Z" fill="url(#paint1_linear_1_71)"/>
<path d="M71.6524 187.334V200.73C71.6524 201.664 71.8651 202.347 72.2904 202.78C72.7484 203.18 73.5009 203.38 74.5478 203.38H77.7376V209.278H73.4191C67.6283 209.278 64.7329 206.412 64.7329 200.681V187.334H61.494V181.586H64.7329V174.737H71.6524V181.586H77.7376V187.334H71.6524Z" fill="url(#paint2_linear_1_71)"/>
<path d="M109.817 181.586V209.278H102.898V205.779C102.015 206.979 100.853 207.929 99.4136 208.628C98.0068 209.295 96.4691 209.628 94.8006 209.628C92.674 209.628 90.7928 209.178 89.157 208.278C87.5212 207.345 86.2289 205.996 85.2801 204.23C84.3641 202.43 83.9061 200.297 83.9061 197.831V181.586H90.7765V196.832C90.7765 199.031 91.3163 200.73 92.3959 201.93C93.4756 203.097 94.9478 203.68 96.8126 203.68C98.7102 203.68 100.199 203.097 101.278 201.93C102.358 200.73 102.898 199.031 102.898 196.832V181.586H109.817Z" fill="url(#paint3_linear_1_71)"/>
<path d="M124.939 185.884C125.822 184.418 126.967 183.268 128.374 182.435C129.814 181.602 131.449 181.186 133.281 181.186V188.534H131.466C129.306 188.534 127.671 189.05 126.558 190.083C125.479 191.116 124.939 192.916 124.939 195.482V209.278H118.068V181.586H124.939V185.884Z" fill="url(#paint4_linear_1_71)"/>
<path d="M164.655 194.832C164.655 195.832 164.589 196.732 164.458 197.531H144.583C144.747 199.531 145.434 201.097 146.644 202.23C147.855 203.363 149.343 203.93 151.11 203.93C153.662 203.93 155.478 202.813 156.557 200.581H163.968C163.182 203.246 161.677 205.446 159.453 207.179C157.228 208.878 154.496 209.728 151.257 209.728C148.64 209.728 146.284 209.145 144.191 207.979C142.129 206.779 140.51 205.096 139.332 202.93C138.187 200.764 137.615 198.264 137.615 195.432C137.615 192.566 138.187 190.05 139.332 187.884C140.477 185.718 142.08 184.052 144.141 182.885C146.203 181.719 148.575 181.136 151.257 181.136C153.842 181.136 156.148 181.702 158.177 182.835C160.238 183.968 161.825 185.585 162.937 187.684C164.082 189.75 164.655 192.133 164.655 194.832ZM157.539 192.833C157.506 191.033 156.868 189.6 155.625 188.534C154.382 187.434 152.86 186.884 151.061 186.884C149.36 186.884 147.92 187.417 146.742 188.484C145.597 189.517 144.894 190.966 144.632 192.833H157.539Z" fill="url(#paint5_linear_1_71)"/>
<path d="M212.721 174.388V209.278H205.851V194.432H191.178V209.278H184.307V174.388H191.178V188.734H205.851V174.388H212.721Z" fill="url(#paint6_linear_1_71)"/>
<path d="M246.229 194.832C246.229 195.832 246.164 196.732 246.033 197.531H226.158C226.321 199.531 227.009 201.097 228.219 202.23C229.43 203.363 230.918 203.93 232.685 203.93C235.237 203.93 237.052 202.813 238.132 200.581H245.542C244.757 203.246 243.252 205.446 241.027 207.179C238.803 208.878 236.071 209.728 232.832 209.728C230.215 209.728 227.859 209.145 225.765 207.979C223.704 206.779 222.085 205.096 220.907 202.93C219.762 200.764 219.189 198.264 219.189 195.432C219.189 192.566 219.762 190.05 220.907 187.884C222.052 185.718 223.655 184.052 225.716 182.885C227.777 181.719 230.149 181.136 232.832 181.136C235.417 181.136 237.723 181.702 239.752 182.835C241.813 183.968 243.399 185.585 244.512 187.684C245.657 189.75 246.229 192.133 246.229 194.832ZM239.114 192.833C239.081 191.033 238.443 189.6 237.2 188.534C235.956 187.434 234.435 186.884 232.636 186.884C230.934 186.884 229.495 187.417 228.317 188.484C227.172 189.517 226.469 190.966 226.207 192.833H239.114Z" fill="url(#paint7_linear_1_71)"/>
<path d="M250.95 195.332C250.95 192.533 251.489 190.05 252.569 187.884C253.681 185.718 255.17 184.052 257.035 182.885C258.932 181.719 261.043 181.136 263.365 181.136C265.394 181.136 267.161 181.552 268.666 182.385C270.203 183.218 271.43 184.268 272.346 185.535V181.586H279.266V209.278H272.346V205.229C271.463 206.529 270.236 207.612 268.666 208.478C267.128 209.312 265.345 209.728 263.316 209.728C261.026 209.728 258.932 209.128 257.035 207.929C255.17 206.729 253.681 205.046 252.569 202.88C251.489 200.681 250.95 198.165 250.95 195.332ZM272.346 195.432C272.346 193.732 272.019 192.283 271.365 191.083C270.71 189.85 269.827 188.917 268.715 188.284C267.602 187.617 266.408 187.284 265.132 187.284C263.856 187.284 262.678 187.601 261.599 188.234C260.519 188.867 259.636 189.8 258.949 191.033C258.294 192.233 257.967 193.666 257.967 195.332C257.967 196.998 258.294 198.464 258.949 199.731C259.636 200.964 260.519 201.914 261.599 202.58C262.711 203.246 263.889 203.58 265.132 203.58C266.408 203.58 267.602 203.263 268.715 202.63C269.827 201.963 270.71 201.03 271.365 199.831C272.019 198.598 272.346 197.131 272.346 195.432Z" fill="url(#paint8_linear_1_71)"/>
<path d="M294.318 172.288V209.278H287.448V172.288H294.318Z" fill="url(#paint9_linear_1_71)"/>
<path d="M310.578 187.334V200.73C310.578 201.664 310.79 202.347 311.216 202.78C311.674 203.18 312.426 203.38 313.473 203.38H316.663V209.278H312.344C306.554 209.278 303.658 206.412 303.658 200.681V187.334H300.419V181.586H303.658V174.737H310.578V181.586H316.663V187.334H310.578Z" fill="url(#paint10_linear_1_71)"/>
<path d="M338.388 181.186C340.449 181.186 342.281 181.652 343.884 182.585C345.487 183.485 346.731 184.835 347.614 186.634C348.53 188.4 348.988 190.533 348.988 193.033V209.278H342.118V193.982C342.118 191.783 341.578 190.1 340.498 188.934C339.419 187.734 337.946 187.134 336.082 187.134C334.184 187.134 332.679 187.734 331.567 188.934C330.487 190.1 329.947 191.783 329.947 193.982V209.278H323.077V172.288H329.947V185.035C330.831 183.835 332.008 182.902 333.481 182.235C334.953 181.536 336.589 181.186 338.388 181.186Z" fill="url(#paint11_linear_1_71)"/>
<path d="M355.227 195.432C355.227 192.566 355.8 190.067 356.945 187.934C358.09 185.768 359.676 184.102 361.705 182.935C363.733 181.736 366.056 181.136 368.673 181.136C372.043 181.136 374.824 182.002 377.016 183.735C379.241 185.435 380.729 187.834 381.482 190.933H374.072C373.679 189.733 373.008 188.8 372.06 188.134C371.144 187.434 369.998 187.084 368.624 187.084C366.661 187.084 365.107 187.817 363.962 189.284C362.817 190.716 362.245 192.766 362.245 195.432C362.245 198.065 362.817 200.114 363.962 201.58C365.107 203.013 366.661 203.73 368.624 203.73C371.405 203.73 373.221 202.463 374.072 199.931H381.482C380.729 202.93 379.241 205.313 377.016 207.079C374.791 208.845 372.011 209.728 368.673 209.728C366.056 209.728 363.733 209.145 361.705 207.979C359.676 206.779 358.09 205.113 356.945 202.98C355.8 200.814 355.227 198.298 355.227 195.432Z" fill="url(#paint12_linear_1_71)"/>
<path d="M386.221 195.332C386.221 192.533 386.76 190.05 387.84 187.884C388.952 185.718 390.441 184.052 392.306 182.885C394.203 181.719 396.314 181.136 398.636 181.136C400.665 181.136 402.432 181.552 403.937 182.385C405.474 183.218 406.701 184.268 407.617 185.535V181.586H414.537V209.278H407.617V205.229C406.734 206.529 405.507 207.612 403.937 208.478C402.399 209.312 400.616 209.728 398.587 209.728C396.297 209.728 394.203 209.128 392.306 207.929C390.441 206.729 388.952 205.046 387.84 202.88C386.76 200.681 386.221 198.165 386.221 195.332ZM407.617 195.432C407.617 193.732 407.29 192.283 406.636 191.083C405.981 189.85 405.098 188.917 403.986 188.284C402.873 187.617 401.679 187.284 400.403 187.284C399.127 187.284 397.949 187.601 396.87 188.234C395.79 188.867 394.907 189.8 394.22 191.033C393.565 192.233 393.238 193.666 393.238 195.332C393.238 196.998 393.565 198.464 394.22 199.731C394.907 200.964 395.79 201.914 396.87 202.58C397.982 203.246 399.16 203.58 400.403 203.58C401.679 203.58 402.873 203.263 403.986 202.63C405.098 201.963 405.981 201.03 406.636 199.831C407.29 198.598 407.617 197.131 407.617 195.432Z" fill="url(#paint13_linear_1_71)"/>
<path d="M429.589 185.884C430.473 184.418 431.618 183.268 433.025 182.435C434.464 181.602 436.1 181.186 437.932 181.186V188.534H436.116C433.957 188.534 432.321 189.05 431.209 190.083C430.129 191.116 429.589 192.916 429.589 195.482V209.278H422.719V181.586H429.589V185.884Z" fill="url(#paint14_linear_1_71)"/>
<path d="M469.305 194.832C469.305 195.832 469.24 196.732 469.109 197.531H449.234C449.397 199.531 450.084 201.097 451.295 202.23C452.505 203.363 453.994 203.93 455.761 203.93C458.312 203.93 460.128 202.813 461.208 200.581H468.618C467.833 203.246 466.328 205.446 464.103 207.179C461.879 208.878 459.147 209.728 455.908 209.728C453.291 209.728 450.935 209.145 448.841 207.979C446.78 206.779 445.161 205.096 443.983 202.93C442.838 200.764 442.265 198.264 442.265 195.432C442.265 192.566 442.838 190.05 443.983 187.884C445.128 185.718 446.731 184.052 448.792 182.885C450.853 181.719 453.225 181.136 455.908 181.136C458.492 181.136 460.799 181.702 462.827 182.835C464.888 183.968 466.475 185.585 467.588 187.684C468.733 189.75 469.305 192.133 469.305 194.832ZM462.189 192.833C462.157 191.033 461.519 189.6 460.275 188.534C459.032 187.434 457.511 186.884 455.712 186.884C454.01 186.884 452.571 187.417 451.393 188.484C450.248 189.517 449.545 190.966 449.283 192.833H462.189Z" fill="url(#paint15_linear_1_71)"/>
<path d="M17.2037 132.272V134.871H6.56443V143.122H15.2022V145.721H6.56443V156.746H3.36914V132.272H17.2037Z" fill="url(#paint16_linear_1_71)"/>
<path d="M31.5616 157.062C29.7591 157.062 28.1205 156.653 26.6458 155.833C25.1944 155.014 24.0474 153.855 23.2047 152.357C22.3854 150.836 21.9757 149.08 21.9757 147.09C21.9757 145.124 22.3971 143.392 23.2398 141.893C24.1059 140.372 25.2764 139.213 26.7511 138.417C28.2259 137.598 29.8762 137.188 31.7021 137.188C33.5279 137.188 35.1782 137.598 36.653 138.417C38.1277 139.213 39.2865 140.36 40.1292 141.858C40.9953 143.356 41.4284 145.1 41.4284 147.09C41.4284 149.08 40.9836 150.836 40.0941 152.357C39.2279 153.855 38.0458 155.014 36.5477 155.833C35.0495 156.653 33.3875 157.062 31.5616 157.062ZM31.5616 154.253C32.7086 154.253 33.7854 153.984 34.792 153.446C35.7986 152.907 36.6062 152.1 37.2148 151.023C37.8468 149.946 38.1628 148.635 38.1628 147.09C38.1628 145.545 37.8585 144.234 37.2499 143.157C36.6413 142.081 35.8454 141.285 34.8622 140.77C33.8791 140.231 32.814 139.962 31.6669 139.962C30.4965 139.962 29.4197 140.231 28.4365 140.77C27.4768 141.285 26.7043 142.081 26.1191 143.157C25.5339 144.234 25.2413 145.545 25.2413 147.09C25.2413 148.659 25.5222 149.981 26.084 151.058C26.6692 152.135 27.4417 152.942 28.4014 153.481C29.3612 153.996 30.4146 154.253 31.5616 154.253Z" fill="url(#paint17_linear_1_71)"/>
<path d="M50.9316 140.629C51.4935 139.529 52.2893 138.675 53.3193 138.066C54.3727 137.457 55.6485 137.153 57.1466 137.153V140.454H56.3039C52.7224 140.454 50.9316 142.397 50.9316 146.283V156.746H47.7364V137.504H50.9316V140.629Z" fill="url(#paint18_linear_1_71)"/>
<mask id="path-3-outside-1_1_71" maskUnits="userSpaceOnUse" x="0.305176" y="0" width="372" height="110" fill="black">
<rect fill="white" x="0.305176" width="372" height="110"/>
<path fill-rule="evenodd" clip-rule="evenodd" d="M118.602 38.2849C121.742 39.9738 125.185 40.8183 128.931 40.8183C132.676 40.8183 136.119 39.9738 139.259 38.2849C142.399 36.5593 144.878 34.1911 146.694 31.1804C148.51 28.133 149.418 24.7001 149.418 20.8816C149.418 17.0632 148.51 13.6486 146.694 10.6379C144.878 7.59049 142.399 5.22232 139.259 3.53339C136.157 1.84446 132.714 1 128.931 1C125.185 1 121.742 1.84446 118.602 3.53339C115.462 5.22232 112.965 7.59049 111.111 10.6379C109.295 13.6486 108.387 17.0632 108.387 20.8816C108.387 24.7001 109.295 28.133 111.111 31.1804C112.965 34.1911 115.462 36.5593 118.602 38.2849ZM135.627 28.0963C134 29.8954 131.768 30.7949 128.931 30.7949C126.055 30.7949 123.804 29.9137 122.177 28.1514C120.55 26.3523 119.737 23.929 119.737 20.8816C119.737 17.7975 120.55 15.3742 122.177 13.6119C123.804 11.8128 126.055 10.9133 128.931 10.9133C131.768 10.9133 134 11.8128 135.627 13.6119C137.292 15.3742 138.124 17.7975 138.124 20.8816C138.124 23.8923 137.292 26.2972 135.627 28.0963Z"/>
<path d="M13.2204 40.4328V1.60581H2.09726V40.4328H13.2204Z"/>
<path d="M57.7481 40.4328H46.625L31.813 18.7337V40.4328H20.6898V1.60581H31.813L46.625 23.5802V1.60581H57.7481V40.4328Z"/>
<path d="M102.278 40.4328H91.1544L76.3425 18.7337V40.4328H65.2193V1.60581H76.3425L91.1544 23.5802V1.60581H102.278V40.4328Z"/>
<path fill-rule="evenodd" clip-rule="evenodd" d="M297.149 38.2849C300.29 39.9738 303.733 40.8183 307.478 40.8183C311.224 40.8183 314.667 39.9738 317.807 38.2849C320.947 36.5593 323.425 34.1911 325.241 31.1804C327.057 28.133 327.965 24.7001 327.965 20.8816C327.965 17.0632 327.057 13.6486 325.241 10.6379C323.425 7.59049 320.947 5.22232 317.807 3.53339C314.704 1.84446 311.262 1 307.478 1C303.733 1 300.29 1.84446 297.149 3.53339C294.009 5.22232 291.512 7.59049 289.658 10.6379C287.842 13.6486 286.934 17.0632 286.934 20.8816C286.934 24.7001 287.842 28.133 289.658 31.1804C291.512 34.1911 294.009 36.5593 297.149 38.2849ZM314.175 28.0963C312.548 29.8954 310.316 30.7949 307.478 30.7949C304.603 30.7949 302.352 29.9137 300.725 28.1513C299.098 26.3523 298.284 23.929 298.284 20.8816C298.284 17.7975 299.098 15.3742 300.725 13.6119C302.352 11.8128 304.603 10.9133 307.478 10.9133C310.316 10.9133 312.548 11.8128 314.175 13.6119C315.839 15.3742 316.672 17.7975 316.672 20.8816C316.672 23.8923 315.839 26.2972 314.175 28.0963Z"/>
<path d="M180.465 40.4328L194.255 1.60581H182.394L173.371 29.6383L164.291 1.60581H152.373L166.22 40.4328H180.465Z"/>
<path fill-rule="evenodd" clip-rule="evenodd" d="M205.723 34.0993L203.566 40.4328H191.876L206.461 1.60581H219.286L233.815 40.4328H222.067L219.911 34.0993H205.723ZM217.13 25.8382L212.817 13.2814L208.561 25.8382H217.13Z"/>
<path d="M265.872 1.60581V10.1973H255.203V40.4328H244.08V10.1973H233.524V1.60581H265.872Z"/>
<path d="M282.246 1.60581V40.4328H271.123V1.60581H282.246Z"/>
<path d="M358.617 40.4328H369.74V1.60581H358.617V23.5802L343.805 1.60581H332.682V40.4328H343.805V18.7337L358.617 40.4328Z"/>
<path fill-rule="evenodd" clip-rule="evenodd" d="M43.6106 108.163H32.6415L29.2954 104.973C25.5906 107.476 21.4007 108.728 16.726 108.728C11.9931 108.728 8.2397 107.674 5.46589 105.566C2.69208 103.457 1.30518 100.606 1.30518 97.0102C1.30518 94.4313 1.88709 92.2383 3.05093 90.4312C4.23416 88.6052 6.25148 86.9017 9.10288 85.3204C7.64808 83.7016 6.59093 82.158 5.93142 80.6897C5.27192 79.2026 4.94216 77.5838 4.94216 75.8331C4.94216 72.9719 6.0672 70.6659 8.31729 68.9153C10.5868 67.1647 13.6127 66.2893 17.3952 66.2893C21.0031 66.2893 23.8836 67.1082 26.0367 68.7459C28.2092 70.3647 29.2954 72.5389 29.2954 75.2684C29.2954 77.5085 28.6262 79.5603 27.2878 81.4239C25.9494 83.2686 23.7866 85.0287 20.7994 86.704L29.0627 94.5254C30.4399 92.323 31.6328 89.49 32.6415 86.0263H41.894C41.1957 88.5676 40.2355 91.0523 39.0135 93.4807C37.7914 95.8901 36.4045 98.0266 34.8527 99.8902L43.6106 108.163ZM10.645 96.1913C10.645 97.8102 11.2657 99.0996 12.5071 100.06C13.7679 101.02 15.3779 101.5 17.337 101.5C19.7811 101.5 21.9827 100.926 23.9418 99.7773L14.2819 90.4594C13.1569 91.2877 12.2646 92.1536 11.6051 93.0571C10.965 93.9607 10.645 95.0054 10.645 96.1913ZM21.0904 76.172C21.0904 75.1743 20.7412 74.3931 20.0429 73.8284C19.3446 73.2448 18.4427 72.9531 17.337 72.9531C16.0374 72.9531 15.0093 73.2542 14.2529 73.8566C13.5158 74.459 13.1472 75.3155 13.1472 76.4261C13.1472 78.0826 14.0686 79.9085 15.9113 81.9039C17.5795 81.0003 18.8597 80.1156 19.752 79.2497C20.6443 78.365 21.0904 77.339 21.0904 76.172Z"/>
<path d="M70.8768 105.354C73.8657 107.483 77.6869 108.548 82.3405 108.548C85.405 108.548 88.0534 108.016 90.2856 106.951C92.5556 105.886 94.2771 104.436 95.4499 102.6C96.6606 100.764 97.266 98.69 97.266 96.3769C97.266 94.1005 96.6606 92.228 95.4499 90.7593C94.2771 89.254 92.8583 88.0975 91.1936 87.2897C89.5668 86.4452 87.4859 85.6008 84.951 84.7563C83.2485 84.1689 81.9622 83.6915 81.092 83.3244C80.2218 82.9205 79.484 82.4616 78.8787 81.9475C78.3112 81.3968 78.0274 80.7543 78.0274 80.02C78.0274 79.1388 78.2923 78.4595 78.8219 77.9822C79.3516 77.5049 80.0326 77.2663 80.865 77.2663C81.9622 77.2663 82.8513 77.56 83.5323 78.1475C84.2511 78.7349 84.6294 79.6161 84.6673 80.791H96.7552C96.566 76.9725 95.0716 74.0169 92.2719 71.9241C89.51 69.7946 85.8023 68.7298 81.1487 68.7298C78.2734 68.7298 75.7006 69.1888 73.4306 70.1067C71.1606 71.0246 69.3824 72.3831 68.096 74.1821C66.8097 75.9445 66.1665 78.074 66.1665 80.5707C66.1665 83.0307 66.7529 85.0317 67.9258 86.5737C69.1365 88.0791 70.5363 89.2356 72.1253 90.0434C73.7522 90.8144 75.8709 91.6222 78.4814 92.4666C80.9406 93.2377 82.7188 93.9353 83.816 94.5594C84.9132 95.1836 85.4618 96.0648 85.4618 97.203C85.4618 98.0841 85.1213 98.7817 84.4403 99.2958C83.7971 99.7731 82.9648 100.012 81.9432 100.012C80.8082 100.012 79.8813 99.6997 79.1625 99.0755C78.4436 98.4513 78.0274 97.46 77.9139 96.1015H66.053C66.28 100.104 67.8879 103.188 70.8768 105.354Z"/>
<path d="M117.533 84.3157V77.9822H132.004V69.3357H106.41V108.163H132.004V99.5161H117.533V92.5217H130.302V84.3157H117.533Z"/>
<path d="M140.111 88.6665C140.111 84.8481 140.925 81.4519 142.551 78.4779C144.216 75.4672 146.562 73.1357 149.588 71.4835C152.615 69.7946 156.096 68.9501 160.031 68.9501C165.025 68.9501 169.224 70.2536 172.629 72.8604C176.034 75.4305 178.229 78.9368 179.212 83.3795H167.238C166.519 81.9108 165.517 80.791 164.23 80.02C162.982 79.2489 161.525 78.8634 159.86 78.8634C157.288 78.8634 155.226 79.763 153.675 81.562C152.161 83.3244 151.405 85.6926 151.405 88.6665C151.405 91.6772 152.161 94.0821 153.675 95.8812C155.226 97.6436 157.288 98.5247 159.86 98.5247C161.525 98.5247 162.982 98.1392 164.23 97.3682C165.517 96.5972 166.519 95.4773 167.238 94.0087H179.212C178.229 98.4513 176.034 101.976 172.629 104.583C169.224 107.153 165.025 108.438 160.031 108.438C156.096 108.438 152.615 107.612 149.588 105.96C146.562 104.271 144.216 101.939 142.551 98.9653C140.925 95.9546 140.111 92.5217 140.111 88.6665Z"/>
<path d="M199.348 91.8608V69.3357H188.282V91.8608C188.282 95.459 189.001 98.5064 190.438 101.003C191.914 103.5 193.919 105.391 196.454 106.676C199.027 107.924 201.94 108.548 205.194 108.548C208.447 108.548 211.398 107.924 214.047 106.676C216.733 105.391 218.852 103.5 220.403 101.003C221.954 98.4697 222.73 95.4223 222.73 91.8608V69.3357H211.607V91.8608C211.607 93.9169 211.077 95.5324 210.018 96.7073C208.996 97.8455 207.464 98.4146 205.421 98.4146C203.378 98.4146 201.845 97.8455 200.824 96.7073C199.84 95.5691 199.348 93.9536 199.348 91.8608Z"/>
<path fill-rule="evenodd" clip-rule="evenodd" d="M245.141 93.8435H243.95V108.163H232.826V69.3357H250.362C253.578 69.3357 256.302 69.8864 258.535 70.9879C260.767 72.0526 262.45 73.5396 263.585 75.4488C264.72 77.3214 265.288 79.4325 265.288 81.7823C265.288 84.4259 264.531 86.7573 263.018 88.7767C261.542 90.7593 259.367 92.1729 256.492 93.0174L265.515 108.163H253.087L245.141 93.8435ZM243.95 86.4636H249.454C250.968 86.4636 252.103 86.1148 252.86 85.4172C253.616 84.7196 253.995 83.7099 253.995 82.3881C253.995 81.1398 253.597 80.1668 252.803 79.4692C252.046 78.7349 250.93 78.3678 249.454 78.3678H243.95V86.4636Z"/>
<path d="M285.442 108.163V69.3357H274.319V108.163H285.442Z"/>
<path d="M325.884 69.3357V77.9272H315.215V108.163H304.091V77.9272H293.536V69.3357H325.884Z"/>
<path d="M356.275 95.8261L370.349 69.3357H357.807L350.77 84.3157L343.733 69.3357H331.021L345.095 95.8261V108.163H356.275V95.8261Z"/>
</mask>
<path fill-rule="evenodd" clip-rule="evenodd" d="M118.602 38.2849C121.742 39.9738 125.185 40.8183 128.931 40.8183C132.676 40.8183 136.119 39.9738 139.259 38.2849C142.399 36.5593 144.878 34.1911 146.694 31.1804C148.51 28.133 149.418 24.7001 149.418 20.8816C149.418 17.0632 148.51 13.6486 146.694 10.6379C144.878 7.59049 142.399 5.22232 139.259 3.53339C136.157 1.84446 132.714 1 128.931 1C125.185 1 121.742 1.84446 118.602 3.53339C115.462 5.22232 112.965 7.59049 111.111 10.6379C109.295 13.6486 108.387 17.0632 108.387 20.8816C108.387 24.7001 109.295 28.133 111.111 31.1804C112.965 34.1911 115.462 36.5593 118.602 38.2849ZM135.627 28.0963C134 29.8954 131.768 30.7949 128.931 30.7949C126.055 30.7949 123.804 29.9137 122.177 28.1514C120.55 26.3523 119.737 23.929 119.737 20.8816C119.737 17.7975 120.55 15.3742 122.177 13.6119C123.804 11.8128 126.055 10.9133 128.931 10.9133C131.768 10.9133 134 11.8128 135.627 13.6119C137.292 15.3742 138.124 17.7975 138.124 20.8816C138.124 23.8923 137.292 26.2972 135.627 28.0963Z" fill="white"/>
<path d="M13.2204 40.4328V1.60581H2.09726V40.4328H13.2204Z" fill="white"/>
<path d="M57.7481 40.4328H46.625L31.813 18.7337V40.4328H20.6898V1.60581H31.813L46.625 23.5802V1.60581H57.7481V40.4328Z" fill="white"/>
<path d="M102.278 40.4328H91.1544L76.3425 18.7337V40.4328H65.2193V1.60581H76.3425L91.1544 23.5802V1.60581H102.278V40.4328Z" fill="white"/>
<path fill-rule="evenodd" clip-rule="evenodd" d="M297.149 38.2849C300.29 39.9738 303.733 40.8183 307.478 40.8183C311.224 40.8183 314.667 39.9738 317.807 38.2849C320.947 36.5593 323.425 34.1911 325.241 31.1804C327.057 28.133 327.965 24.7001 327.965 20.8816C327.965 17.0632 327.057 13.6486 325.241 10.6379C323.425 7.59049 320.947 5.22232 317.807 3.53339C314.704 1.84446 311.262 1 307.478 1C303.733 1 300.29 1.84446 297.149 3.53339C294.009 5.22232 291.512 7.59049 289.658 10.6379C287.842 13.6486 286.934 17.0632 286.934 20.8816C286.934 24.7001 287.842 28.133 289.658 31.1804C291.512 34.1911 294.009 36.5593 297.149 38.2849ZM314.175 28.0963C312.548 29.8954 310.316 30.7949 307.478 30.7949C304.603 30.7949 302.352 29.9137 300.725 28.1513C299.098 26.3523 298.284 23.929 298.284 20.8816C298.284 17.7975 299.098 15.3742 300.725 13.6119C302.352 11.8128 304.603 10.9133 307.478 10.9133C310.316 10.9133 312.548 11.8128 314.175 13.6119C315.839 15.3742 316.672 17.7975 316.672 20.8816C316.672 23.8923 315.839 26.2972 314.175 28.0963Z" fill="white"/>
<path d="M180.465 40.4328L194.255 1.60581H182.394L173.371 29.6383L164.291 1.60581H152.373L166.22 40.4328H180.465Z" fill="white"/>
<path fill-rule="evenodd" clip-rule="evenodd" d="M205.723 34.0993L203.566 40.4328H191.876L206.461 1.60581H219.286L233.815 40.4328H222.067L219.911 34.0993H205.723ZM217.13 25.8382L212.817 13.2814L208.561 25.8382H217.13Z" fill="white"/>
<path d="M265.872 1.60581V10.1973H255.203V40.4328H244.08V10.1973H233.524V1.60581H265.872Z" fill="white"/>
<path d="M282.246 1.60581V40.4328H271.123V1.60581H282.246Z" fill="white"/>
<path d="M358.617 40.4328H369.74V1.60581H358.617V23.5802L343.805 1.60581H332.682V40.4328H343.805V18.7337L358.617 40.4328Z" fill="white"/>
<path fill-rule="evenodd" clip-rule="evenodd" d="M43.6106 108.163H32.6415L29.2954 104.973C25.5906 107.476 21.4007 108.728 16.726 108.728C11.9931 108.728 8.2397 107.674 5.46589 105.566C2.69208 103.457 1.30518 100.606 1.30518 97.0102C1.30518 94.4313 1.88709 92.2383 3.05093 90.4312C4.23416 88.6052 6.25148 86.9017 9.10288 85.3204C7.64808 83.7016 6.59093 82.158 5.93142 80.6897C5.27192 79.2026 4.94216 77.5838 4.94216 75.8331C4.94216 72.9719 6.0672 70.6659 8.31729 68.9153C10.5868 67.1647 13.6127 66.2893 17.3952 66.2893C21.0031 66.2893 23.8836 67.1082 26.0367 68.7459C28.2092 70.3647 29.2954 72.5389 29.2954 75.2684C29.2954 77.5085 28.6262 79.5603 27.2878 81.4239C25.9494 83.2686 23.7866 85.0287 20.7994 86.704L29.0627 94.5254C30.4399 92.323 31.6328 89.49 32.6415 86.0263H41.894C41.1957 88.5676 40.2355 91.0523 39.0135 93.4807C37.7914 95.8901 36.4045 98.0266 34.8527 99.8902L43.6106 108.163ZM10.645 96.1913C10.645 97.8102 11.2657 99.0996 12.5071 100.06C13.7679 101.02 15.3779 101.5 17.337 101.5C19.7811 101.5 21.9827 100.926 23.9418 99.7773L14.2819 90.4594C13.1569 91.2877 12.2646 92.1536 11.6051 93.0571C10.965 93.9607 10.645 95.0054 10.645 96.1913ZM21.0904 76.172C21.0904 75.1743 20.7412 74.3931 20.0429 73.8284C19.3446 73.2448 18.4427 72.9531 17.337 72.9531C16.0374 72.9531 15.0093 73.2542 14.2529 73.8566C13.5158 74.459 13.1472 75.3155 13.1472 76.4261C13.1472 78.0826 14.0686 79.9085 15.9113 81.9039C17.5795 81.0003 18.8597 80.1156 19.752 79.2497C20.6443 78.365 21.0904 77.339 21.0904 76.172Z" fill="white"/>
<path d="M70.8768 105.354C73.8657 107.483 77.6869 108.548 82.3405 108.548C85.405 108.548 88.0534 108.016 90.2856 106.951C92.5556 105.886 94.2771 104.436 95.4499 102.6C96.6606 100.764 97.266 98.69 97.266 96.3769C97.266 94.1005 96.6606 92.228 95.4499 90.7593C94.2771 89.254 92.8583 88.0975 91.1936 87.2897C89.5668 86.4452 87.4859 85.6008 84.951 84.7563C83.2485 84.1689 81.9622 83.6915 81.092 83.3244C80.2218 82.9205 79.484 82.4616 78.8787 81.9475C78.3112 81.3968 78.0274 80.7543 78.0274 80.02C78.0274 79.1388 78.2923 78.4595 78.8219 77.9822C79.3516 77.5049 80.0326 77.2663 80.865 77.2663C81.9622 77.2663 82.8513 77.56 83.5323 78.1475C84.2511 78.7349 84.6294 79.6161 84.6673 80.791H96.7552C96.566 76.9725 95.0716 74.0169 92.2719 71.9241C89.51 69.7946 85.8023 68.7298 81.1487 68.7298C78.2734 68.7298 75.7006 69.1888 73.4306 70.1067C71.1606 71.0246 69.3824 72.3831 68.096 74.1821C66.8097 75.9445 66.1665 78.074 66.1665 80.5707C66.1665 83.0307 66.7529 85.0317 67.9258 86.5737C69.1365 88.0791 70.5363 89.2356 72.1253 90.0434C73.7522 90.8144 75.8709 91.6222 78.4814 92.4666C80.9406 93.2377 82.7188 93.9353 83.816 94.5594C84.9132 95.1836 85.4618 96.0648 85.4618 97.203C85.4618 98.0841 85.1213 98.7817 84.4403 99.2958C83.7971 99.7731 82.9648 100.012 81.9432 100.012C80.8082 100.012 79.8813 99.6997 79.1625 99.0755C78.4436 98.4513 78.0274 97.46 77.9139 96.1015H66.053C66.28 100.104 67.8879 103.188 70.8768 105.354Z" fill="white"/>
<path d="M117.533 84.3157V77.9822H132.004V69.3357H106.41V108.163H132.004V99.5161H117.533V92.5217H130.302V84.3157H117.533Z" fill="white"/>
<path d="M140.111 88.6665C140.111 84.8481 140.925 81.4519 142.551 78.4779C144.216 75.4672 146.562 73.1357 149.588 71.4835C152.615 69.7946 156.096 68.9501 160.031 68.9501C165.025 68.9501 169.224 70.2536 172.629 72.8604C176.034 75.4305 178.229 78.9368 179.212 83.3795H167.238C166.519 81.9108 165.517 80.791 164.23 80.02C162.982 79.2489 161.525 78.8634 159.86 78.8634C157.288 78.8634 155.226 79.763 153.675 81.562C152.161 83.3244 151.405 85.6926 151.405 88.6665C151.405 91.6772 152.161 94.0821 153.675 95.8812C155.226 97.6436 157.288 98.5247 159.86 98.5247C161.525 98.5247 162.982 98.1392 164.23 97.3682C165.517 96.5972 166.519 95.4773 167.238 94.0087H179.212C178.229 98.4513 176.034 101.976 172.629 104.583C169.224 107.153 165.025 108.438 160.031 108.438C156.096 108.438 152.615 107.612 149.588 105.96C146.562 104.271 144.216 101.939 142.551 98.9653C140.925 95.9546 140.111 92.5217 140.111 88.6665Z" fill="white"/>
<path d="M199.348 91.8608V69.3357H188.282V91.8608C188.282 95.459 189.001 98.5064 190.438 101.003C191.914 103.5 193.919 105.391 196.454 106.676C199.027 107.924 201.94 108.548 205.194 108.548C208.447 108.548 211.398 107.924 214.047 106.676C216.733 105.391 218.852 103.5 220.403 101.003C221.954 98.4697 222.73 95.4223 222.73 91.8608V69.3357H211.607V91.8608C211.607 93.9169 211.077 95.5324 210.018 96.7073C208.996 97.8455 207.464 98.4146 205.421 98.4146C203.378 98.4146 201.845 97.8455 200.824 96.7073C199.84 95.5691 199.348 93.9536 199.348 91.8608Z" fill="white"/>
<path fill-rule="evenodd" clip-rule="evenodd" d="M245.141 93.8435H243.95V108.163H232.826V69.3357H250.362C253.578 69.3357 256.302 69.8864 258.535 70.9879C260.767 72.0526 262.45 73.5396 263.585 75.4488C264.72 77.3214 265.288 79.4325 265.288 81.7823C265.288 84.4259 264.531 86.7573 263.018 88.7767C261.542 90.7593 259.367 92.1729 256.492 93.0174L265.515 108.163H253.087L245.141 93.8435ZM243.95 86.4636H249.454C250.968 86.4636 252.103 86.1148 252.86 85.4172C253.616 84.7196 253.995 83.7099 253.995 82.3881C253.995 81.1398 253.597 80.1668 252.803 79.4692C252.046 78.7349 250.93 78.3678 249.454 78.3678H243.95V86.4636Z" fill="white"/>
<path d="M285.442 108.163V69.3357H274.319V108.163H285.442Z" fill="white"/>
<path d="M325.884 69.3357V77.9272H315.215V108.163H304.091V77.9272H293.536V69.3357H325.884Z" fill="white"/>
<path d="M356.275 95.8261L370.349 69.3357H357.807L350.77 84.3157L343.733 69.3357H331.021L345.095 95.8261V108.163H356.275V95.8261Z" fill="white"/>
<path fill-rule="evenodd" clip-rule="evenodd" d="M118.602 38.2849C121.742 39.9738 125.185 40.8183 128.931 40.8183C132.676 40.8183 136.119 39.9738 139.259 38.2849C142.399 36.5593 144.878 34.1911 146.694 31.1804C148.51 28.133 149.418 24.7001 149.418 20.8816C149.418 17.0632 148.51 13.6486 146.694 10.6379C144.878 7.59049 142.399 5.22232 139.259 3.53339C136.157 1.84446 132.714 1 128.931 1C125.185 1 121.742 1.84446 118.602 3.53339C115.462 5.22232 112.965 7.59049 111.111 10.6379C109.295 13.6486 108.387 17.0632 108.387 20.8816C108.387 24.7001 109.295 28.133 111.111 31.1804C112.965 34.1911 115.462 36.5593 118.602 38.2849ZM135.627 28.0963C134 29.8954 131.768 30.7949 128.931 30.7949C126.055 30.7949 123.804 29.9137 122.177 28.1514C120.55 26.3523 119.737 23.929 119.737 20.8816C119.737 17.7975 120.55 15.3742 122.177 13.6119C123.804 11.8128 126.055 10.9133 128.931 10.9133C131.768 10.9133 134 11.8128 135.627 13.6119C137.292 15.3742 138.124 17.7975 138.124 20.8816C138.124 23.8923 137.292 26.2972 135.627 28.0963Z" stroke="url(#paint19_linear_1_71)" stroke-width="2" mask="url(#path-3-outside-1_1_71)"/>
<path d="M13.2204 40.4328V1.60581H2.09726V40.4328H13.2204Z" stroke="url(#paint20_linear_1_71)" stroke-width="2" mask="url(#path-3-outside-1_1_71)"/>
<path d="M57.7481 40.4328H46.625L31.813 18.7337V40.4328H20.6898V1.60581H31.813L46.625 23.5802V1.60581H57.7481V40.4328Z" stroke="url(#paint21_linear_1_71)" stroke-width="2" mask="url(#path-3-outside-1_1_71)"/>
<path d="M102.278 40.4328H91.1544L76.3425 18.7337V40.4328H65.2193V1.60581H76.3425L91.1544 23.5802V1.60581H102.278V40.4328Z" stroke="url(#paint22_linear_1_71)" stroke-width="2" mask="url(#path-3-outside-1_1_71)"/>
<path fill-rule="evenodd" clip-rule="evenodd" d="M297.149 38.2849C300.29 39.9738 303.733 40.8183 307.478 40.8183C311.224 40.8183 314.667 39.9738 317.807 38.2849C320.947 36.5593 323.425 34.1911 325.241 31.1804C327.057 28.133 327.965 24.7001 327.965 20.8816C327.965 17.0632 327.057 13.6486 325.241 10.6379C323.425 7.59049 320.947 5.22232 317.807 3.53339C314.704 1.84446 311.262 1 307.478 1C303.733 1 300.29 1.84446 297.149 3.53339C294.009 5.22232 291.512 7.59049 289.658 10.6379C287.842 13.6486 286.934 17.0632 286.934 20.8816C286.934 24.7001 287.842 28.133 289.658 31.1804C291.512 34.1911 294.009 36.5593 297.149 38.2849ZM314.175 28.0963C312.548 29.8954 310.316 30.7949 307.478 30.7949C304.603 30.7949 302.352 29.9137 300.725 28.1513C299.098 26.3523 298.284 23.929 298.284 20.8816C298.284 17.7975 299.098 15.3742 300.725 13.6119C302.352 11.8128 304.603 10.9133 307.478 10.9133C310.316 10.9133 312.548 11.8128 314.175 13.6119C315.839 15.3742 316.672 17.7975 316.672 20.8816C316.672 23.8923 315.839 26.2972 314.175 28.0963Z" stroke="url(#paint23_linear_1_71)" stroke-width="2" mask="url(#path-3-outside-1_1_71)"/>
<path d="M180.465 40.4328L194.255 1.60581H182.394L173.371 29.6383L164.291 1.60581H152.373L166.22 40.4328H180.465Z" stroke="url(#paint24_linear_1_71)" stroke-width="2" mask="url(#path-3-outside-1_1_71)"/>
<path fill-rule="evenodd" clip-rule="evenodd" d="M205.723 34.0993L203.566 40.4328H191.876L206.461 1.60581H219.286L233.815 40.4328H222.067L219.911 34.0993H205.723ZM217.13 25.8382L212.817 13.2814L208.561 25.8382H217.13Z" stroke="url(#paint25_linear_1_71)" stroke-width="2" mask="url(#path-3-outside-1_1_71)"/>
<path d="M265.872 1.60581V10.1973H255.203V40.4328H244.08V10.1973H233.524V1.60581H265.872Z" stroke="url(#paint26_linear_1_71)" stroke-width="2" mask="url(#path-3-outside-1_1_71)"/>
<path d="M282.246 1.60581V40.4328H271.123V1.60581H282.246Z" stroke="url(#paint27_linear_1_71)" stroke-width="2" mask="url(#path-3-outside-1_1_71)"/>
<path d="M358.617 40.4328H369.74V1.60581H358.617V23.5802L343.805 1.60581H332.682V40.4328H343.805V18.7337L358.617 40.4328Z" stroke="url(#paint28_linear_1_71)" stroke-width="2" mask="url(#path-3-outside-1_1_71)"/>
<path fill-rule="evenodd" clip-rule="evenodd" d="M43.6106 108.163H32.6415L29.2954 104.973C25.5906 107.476 21.4007 108.728 16.726 108.728C11.9931 108.728 8.2397 107.674 5.46589 105.566C2.69208 103.457 1.30518 100.606 1.30518 97.0102C1.30518 94.4313 1.88709 92.2383 3.05093 90.4312C4.23416 88.6052 6.25148 86.9017 9.10288 85.3204C7.64808 83.7016 6.59093 82.158 5.93142 80.6897C5.27192 79.2026 4.94216 77.5838 4.94216 75.8331C4.94216 72.9719 6.0672 70.6659 8.31729 68.9153C10.5868 67.1647 13.6127 66.2893 17.3952 66.2893C21.0031 66.2893 23.8836 67.1082 26.0367 68.7459C28.2092 70.3647 29.2954 72.5389 29.2954 75.2684C29.2954 77.5085 28.6262 79.5603 27.2878 81.4239C25.9494 83.2686 23.7866 85.0287 20.7994 86.704L29.0627 94.5254C30.4399 92.323 31.6328 89.49 32.6415 86.0263H41.894C41.1957 88.5676 40.2355 91.0523 39.0135 93.4807C37.7914 95.8901 36.4045 98.0266 34.8527 99.8902L43.6106 108.163ZM10.645 96.1913C10.645 97.8102 11.2657 99.0996 12.5071 100.06C13.7679 101.02 15.3779 101.5 17.337 101.5C19.7811 101.5 21.9827 100.926 23.9418 99.7773L14.2819 90.4594C13.1569 91.2877 12.2646 92.1536 11.6051 93.0571C10.965 93.9607 10.645 95.0054 10.645 96.1913ZM21.0904 76.172C21.0904 75.1743 20.7412 74.3931 20.0429 73.8284C19.3446 73.2448 18.4427 72.9531 17.337 72.9531C16.0374 72.9531 15.0093 73.2542 14.2529 73.8566C13.5158 74.459 13.1472 75.3155 13.1472 76.4261C13.1472 78.0826 14.0686 79.9085 15.9113 81.9039C17.5795 81.0003 18.8597 80.1156 19.752 79.2497C20.6443 78.365 21.0904 77.339 21.0904 76.172Z" stroke="url(#paint29_linear_1_71)" stroke-width="2" mask="url(#path-3-outside-1_1_71)"/>
<path d="M70.8768 105.354C73.8657 107.483 77.6869 108.548 82.3405 108.548C85.405 108.548 88.0534 108.016 90.2856 106.951C92.5556 105.886 94.2771 104.436 95.4499 102.6C96.6606 100.764 97.266 98.69 97.266 96.3769C97.266 94.1005 96.6606 92.228 95.4499 90.7593C94.2771 89.254 92.8583 88.0975 91.1936 87.2897C89.5668 86.4452 87.4859 85.6008 84.951 84.7563C83.2485 84.1689 81.9622 83.6915 81.092 83.3244C80.2218 82.9205 79.484 82.4616 78.8787 81.9475C78.3112 81.3968 78.0274 80.7543 78.0274 80.02C78.0274 79.1388 78.2923 78.4595 78.8219 77.9822C79.3516 77.5049 80.0326 77.2663 80.865 77.2663C81.9622 77.2663 82.8513 77.56 83.5323 78.1475C84.2511 78.7349 84.6294 79.6161 84.6673 80.791H96.7552C96.566 76.9725 95.0716 74.0169 92.2719 71.9241C89.51 69.7946 85.8023 68.7298 81.1487 68.7298C78.2734 68.7298 75.7006 69.1888 73.4306 70.1067C71.1606 71.0246 69.3824 72.3831 68.096 74.1821C66.8097 75.9445 66.1665 78.074 66.1665 80.5707C66.1665 83.0307 66.7529 85.0317 67.9258 86.5737C69.1365 88.0791 70.5363 89.2356 72.1253 90.0434C73.7522 90.8144 75.8709 91.6222 78.4814 92.4666C80.9406 93.2377 82.7188 93.9353 83.816 94.5594C84.9132 95.1836 85.4618 96.0648 85.4618 97.203C85.4618 98.0841 85.1213 98.7817 84.4403 99.2958C83.7971 99.7731 82.9648 100.012 81.9432 100.012C80.8082 100.012 79.8813 99.6997 79.1625 99.0755C78.4436 98.4513 78.0274 97.46 77.9139 96.1015H66.053C66.28 100.104 67.8879 103.188 70.8768 105.354Z" stroke="url(#paint30_linear_1_71)" stroke-width="2" mask="url(#path-3-outside-1_1_71)"/>
<path d="M117.533 84.3157V77.9822H132.004V69.3357H106.41V108.163H132.004V99.5161H117.533V92.5217H130.302V84.3157H117.533Z" stroke="url(#paint31_linear_1_71)" stroke-width="2" mask="url(#path-3-outside-1_1_71)"/>
<path d="M140.111 88.6665C140.111 84.8481 140.925 81.4519 142.551 78.4779C144.216 75.4672 146.562 73.1357 149.588 71.4835C152.615 69.7946 156.096 68.9501 160.031 68.9501C165.025 68.9501 169.224 70.2536 172.629 72.8604C176.034 75.4305 178.229 78.9368 179.212 83.3795H167.238C166.519 81.9108 165.517 80.791 164.23 80.02C162.982 79.2489 161.525 78.8634 159.86 78.8634C157.288 78.8634 155.226 79.763 153.675 81.562C152.161 83.3244 151.405 85.6926 151.405 88.6665C151.405 91.6772 152.161 94.0821 153.675 95.8812C155.226 97.6436 157.288 98.5247 159.86 98.5247C161.525 98.5247 162.982 98.1392 164.23 97.3682C165.517 96.5972 166.519 95.4773 167.238 94.0087H179.212C178.229 98.4513 176.034 101.976 172.629 104.583C169.224 107.153 165.025 108.438 160.031 108.438C156.096 108.438 152.615 107.612 149.588 105.96C146.562 104.271 144.216 101.939 142.551 98.9653C140.925 95.9546 140.111 92.5217 140.111 88.6665Z" stroke="url(#paint32_linear_1_71)" stroke-width="2" mask="url(#path-3-outside-1_1_71)"/>
<path d="M199.348 91.8608V69.3357H188.282V91.8608C188.282 95.459 189.001 98.5064 190.438 101.003C191.914 103.5 193.919 105.391 196.454 106.676C199.027 107.924 201.94 108.548 205.194 108.548C208.447 108.548 211.398 107.924 214.047 106.676C216.733 105.391 218.852 103.5 220.403 101.003C221.954 98.4697 222.73 95.4223 222.73 91.8608V69.3357H211.607V91.8608C211.607 93.9169 211.077 95.5324 210.018 96.7073C208.996 97.8455 207.464 98.4146 205.421 98.4146C203.378 98.4146 201.845 97.8455 200.824 96.7073C199.84 95.5691 199.348 93.9536 199.348 91.8608Z" stroke="url(#paint33_linear_1_71)" stroke-width="2" mask="url(#path-3-outside-1_1_71)"/>
<path fill-rule="evenodd" clip-rule="evenodd" d="M245.141 93.8435H243.95V108.163H232.826V69.3357H250.362C253.578 69.3357 256.302 69.8864 258.535 70.9879C260.767 72.0526 262.45 73.5396 263.585 75.4488C264.72 77.3214 265.288 79.4325 265.288 81.7823C265.288 84.4259 264.531 86.7573 263.018 88.7767C261.542 90.7593 259.367 92.1729 256.492 93.0174L265.515 108.163H253.087L245.141 93.8435ZM243.95 86.4636H249.454C250.968 86.4636 252.103 86.1148 252.86 85.4172C253.616 84.7196 253.995 83.7099 253.995 82.3881C253.995 81.1398 253.597 80.1668 252.803 79.4692C252.046 78.7349 250.93 78.3678 249.454 78.3678H243.95V86.4636Z" stroke="url(#paint34_linear_1_71)" stroke-width="2" mask="url(#path-3-outside-1_1_71)"/>
<path d="M285.442 108.163V69.3357H274.319V108.163H285.442Z" stroke="url(#paint35_linear_1_71)" stroke-width="2" mask="url(#path-3-outside-1_1_71)"/>
<path d="M325.884 69.3357V77.9272H315.215V108.163H304.091V77.9272H293.536V69.3357H325.884Z" stroke="url(#paint36_linear_1_71)" stroke-width="2" mask="url(#path-3-outside-1_1_71)"/>
<path d="M356.275 95.8261L370.349 69.3357H357.807L350.77 84.3157L343.733 69.3357H331.021L345.095 95.8261V108.163H356.275V95.8261Z" stroke="url(#paint37_linear_1_71)" stroke-width="2" mask="url(#path-3-outside-1_1_71)"/>
<defs>
<linearGradient id="paint0_linear_1_71" x1="2.24105" y1="-231.807" x2="553.667" y2="-215.434" gradientUnits="userSpaceOnUse">
<stop stop-color="#14DB60"/>
<stop offset="1" stop-color="#AAFFCB"/>
</linearGradient>
<linearGradient id="paint1_linear_1_71" x1="2.24105" y1="-231.807" x2="553.667" y2="-215.434" gradientUnits="userSpaceOnUse">
<stop stop-color="#14DB60"/>
<stop offset="1" stop-color="#AAFFCB"/>
</linearGradient>
<linearGradient id="paint2_linear_1_71" x1="2.24105" y1="-231.807" x2="553.667" y2="-215.434" gradientUnits="userSpaceOnUse">
<stop stop-color="#14DB60"/>
<stop offset="1" stop-color="#AAFFCB"/>
</linearGradient>
<linearGradient id="paint3_linear_1_71" x1="2.24105" y1="-231.807" x2="553.667" y2="-215.434" gradientUnits="userSpaceOnUse">
<stop stop-color="#14DB60"/>
<stop offset="1" stop-color="#AAFFCB"/>
</linearGradient>
<linearGradient id="paint4_linear_1_71" x1="2.24105" y1="-231.807" x2="553.667" y2="-215.434" gradientUnits="userSpaceOnUse">
<stop stop-color="#14DB60"/>
<stop offset="1" stop-color="#AAFFCB"/>
</linearGradient>
<linearGradient id="paint5_linear_1_71" x1="2.24105" y1="-231.807" x2="553.667" y2="-215.434" gradientUnits="userSpaceOnUse">
<stop stop-color="#14DB60"/>
<stop offset="1" stop-color="#AAFFCB"/>
</linearGradient>
<linearGradient id="paint6_linear_1_71" x1="2.24105" y1="-231.807" x2="553.667" y2="-215.434" gradientUnits="userSpaceOnUse">
<stop stop-color="#14DB60"/>
<stop offset="1" stop-color="#AAFFCB"/>
</linearGradient>
<linearGradient id="paint7_linear_1_71" x1="2.24105" y1="-231.807" x2="553.667" y2="-215.434" gradientUnits="userSpaceOnUse">
<stop stop-color="#14DB60"/>
<stop offset="1" stop-color="#AAFFCB"/>
</linearGradient>
<linearGradient id="paint8_linear_1_71" x1="2.24105" y1="-231.807" x2="553.667" y2="-215.434" gradientUnits="userSpaceOnUse">
<stop stop-color="#14DB60"/>
<stop offset="1" stop-color="#AAFFCB"/>
</linearGradient>
<linearGradient id="paint9_linear_1_71" x1="2.24105" y1="-231.807" x2="553.667" y2="-215.434" gradientUnits="userSpaceOnUse">
<stop stop-color="#14DB60"/>
<stop offset="1" stop-color="#AAFFCB"/>
</linearGradient>
<linearGradient id="paint10_linear_1_71" x1="2.24105" y1="-231.807" x2="553.667" y2="-215.434" gradientUnits="userSpaceOnUse">
<stop stop-color="#14DB60"/>
<stop offset="1" stop-color="#AAFFCB"/>
</linearGradient>
<linearGradient id="paint11_linear_1_71" x1="2.24105" y1="-231.807" x2="553.667" y2="-215.434" gradientUnits="userSpaceOnUse">
<stop stop-color="#14DB60"/>
<stop offset="1" stop-color="#AAFFCB"/>
</linearGradient>
<linearGradient id="paint12_linear_1_71" x1="2.24105" y1="-231.807" x2="553.667" y2="-215.434" gradientUnits="userSpaceOnUse">
<stop stop-color="#14DB60"/>
<stop offset="1" stop-color="#AAFFCB"/>
</linearGradient>
<linearGradient id="paint13_linear_1_71" x1="2.24105" y1="-231.807" x2="553.667" y2="-215.434" gradientUnits="userSpaceOnUse">
<stop stop-color="#14DB60"/>
<stop offset="1" stop-color="#AAFFCB"/>
</linearGradient>
<linearGradient id="paint14_linear_1_71" x1="2.24105" y1="-231.807" x2="553.667" y2="-215.434" gradientUnits="userSpaceOnUse">
<stop stop-color="#14DB60"/>
<stop offset="1" stop-color="#AAFFCB"/>
</linearGradient>
<linearGradient id="paint15_linear_1_71" x1="2.24105" y1="-231.807" x2="553.667" y2="-215.434" gradientUnits="userSpaceOnUse">
<stop stop-color="#14DB60"/>
<stop offset="1" stop-color="#AAFFCB"/>
</linearGradient>
<linearGradient id="paint16_linear_1_71" x1="3.36912" y1="-135.287" x2="66.9143" y2="-134.959" gradientUnits="userSpaceOnUse">
<stop stop-color="#14DB60"/>
<stop offset="1" stop-color="#AAFFCB"/>
</linearGradient>
<linearGradient id="paint17_linear_1_71" x1="3.36912" y1="-135.287" x2="66.9143" y2="-134.959" gradientUnits="userSpaceOnUse">
<stop stop-color="#14DB60"/>
<stop offset="1" stop-color="#AAFFCB"/>
</linearGradient>
<linearGradient id="paint18_linear_1_71" x1="3.36912" y1="-135.287" x2="66.9143" y2="-134.959" gradientUnits="userSpaceOnUse">
<stop stop-color="#14DB60"/>
<stop offset="1" stop-color="#AAFFCB"/>
</linearGradient>
<linearGradient id="paint19_linear_1_71" x1="185.827" y1="1" x2="185.827" y2="107.322" gradientUnits="userSpaceOnUse">
<stop stop-color="#AACCFF" stop-opacity="0.7"/>
<stop offset="0.494792" stop-color="#C1CFFF" stop-opacity="0"/>
<stop offset="1" stop-color="#DAE2FF" stop-opacity="0.42"/>
</linearGradient>
<linearGradient id="paint20_linear_1_71" x1="185.827" y1="1" x2="185.827" y2="107.322" gradientUnits="userSpaceOnUse">
<stop stop-color="#AACCFF" stop-opacity="0.7"/>
<stop offset="0.494792" stop-color="#C1CFFF" stop-opacity="0"/>
<stop offset="1" stop-color="#DAE2FF" stop-opacity="0.42"/>
</linearGradient>
<linearGradient id="paint21_linear_1_71" x1="185.827" y1="1" x2="185.827" y2="107.322" gradientUnits="userSpaceOnUse">
<stop stop-color="#AACCFF" stop-opacity="0.7"/>
<stop offset="0.494792" stop-color="#C1CFFF" stop-opacity="0"/>
<stop offset="1" stop-color="#DAE2FF" stop-opacity="0.42"/>
</linearGradient>
<linearGradient id="paint22_linear_1_71" x1="185.827" y1="1" x2="185.827" y2="107.322" gradientUnits="userSpaceOnUse">
<stop stop-color="#AACCFF" stop-opacity="0.7"/>
<stop offset="0.494792" stop-color="#C1CFFF" stop-opacity="0"/>
<stop offset="1" stop-color="#DAE2FF" stop-opacity="0.42"/>
</linearGradient>
<linearGradient id="paint23_linear_1_71" x1="185.827" y1="1" x2="185.827" y2="107.322" gradientUnits="userSpaceOnUse">
<stop stop-color="#AACCFF" stop-opacity="0.7"/>
<stop offset="0.494792" stop-color="#C1CFFF" stop-opacity="0"/>
<stop offset="1" stop-color="#DAE2FF" stop-opacity="0.42"/>
</linearGradient>
<linearGradient id="paint24_linear_1_71" x1="185.827" y1="1" x2="185.827" y2="107.322" gradientUnits="userSpaceOnUse">
<stop stop-color="#AACCFF" stop-opacity="0.7"/>
<stop offset="0.494792" stop-color="#C1CFFF" stop-opacity="0"/>
<stop offset="1" stop-color="#DAE2FF" stop-opacity="0.42"/>
</linearGradient>
<linearGradient id="paint25_linear_1_71" x1="185.827" y1="1" x2="185.827" y2="107.322" gradientUnits="userSpaceOnUse">
<stop stop-color="#AACCFF" stop-opacity="0.7"/>
<stop offset="0.494792" stop-color="#C1CFFF" stop-opacity="0"/>
<stop offset="1" stop-color="#DAE2FF" stop-opacity="0.42"/>
</linearGradient>
<linearGradient id="paint26_linear_1_71" x1="185.827" y1="1" x2="185.827" y2="107.322" gradientUnits="userSpaceOnUse">
<stop stop-color="#AACCFF" stop-opacity="0.7"/>
<stop offset="0.494792" stop-color="#C1CFFF" stop-opacity="0"/>
<stop offset="1" stop-color="#DAE2FF" stop-opacity="0.42"/>
</linearGradient>
<linearGradient id="paint27_linear_1_71" x1="185.827" y1="1" x2="185.827" y2="107.322" gradientUnits="userSpaceOnUse">
<stop stop-color="#AACCFF" stop-opacity="0.7"/>
<stop offset="0.494792" stop-color="#C1CFFF" stop-opacity="0"/>
<stop offset="1" stop-color="#DAE2FF" stop-opacity="0.42"/>
</linearGradient>
<linearGradient id="paint28_linear_1_71" x1="185.827" y1="1" x2="185.827" y2="107.322" gradientUnits="userSpaceOnUse">
<stop stop-color="#AACCFF" stop-opacity="0.7"/>
<stop offset="0.494792" stop-color="#C1CFFF" stop-opacity="0"/>
<stop offset="1" stop-color="#DAE2FF" stop-opacity="0.42"/>
</linearGradient>
<linearGradient id="paint29_linear_1_71" x1="185.827" y1="1" x2="185.827" y2="107.322" gradientUnits="userSpaceOnUse">
<stop stop-color="#AACCFF" stop-opacity="0.7"/>
<stop offset="0.494792" stop-color="#C1CFFF" stop-opacity="0"/>
<stop offset="1" stop-color="#DAE2FF" stop-opacity="0.42"/>
</linearGradient>
<linearGradient id="paint30_linear_1_71" x1="185.827" y1="1" x2="185.827" y2="107.322" gradientUnits="userSpaceOnUse">
<stop stop-color="#AACCFF" stop-opacity="0.7"/>
<stop offset="0.494792" stop-color="#C1CFFF" stop-opacity="0"/>
<stop offset="1" stop-color="#DAE2FF" stop-opacity="0.42"/>
</linearGradient>
<linearGradient id="paint31_linear_1_71" x1="185.827" y1="1" x2="185.827" y2="107.322" gradientUnits="userSpaceOnUse">
<stop stop-color="#AACCFF" stop-opacity="0.7"/>
<stop offset="0.494792" stop-color="#C1CFFF" stop-opacity="0"/>
<stop offset="1" stop-color="#DAE2FF" stop-opacity="0.42"/>
</linearGradient>
<linearGradient id="paint32_linear_1_71" x1="185.827" y1="1" x2="185.827" y2="107.322" gradientUnits="userSpaceOnUse">
<stop stop-color="#AACCFF" stop-opacity="0.7"/>
<stop offset="0.494792" stop-color="#C1CFFF" stop-opacity="0"/>
<stop offset="1" stop-color="#DAE2FF" stop-opacity="0.42"/>
</linearGradient>
<linearGradient id="paint33_linear_1_71" x1="185.827" y1="1" x2="185.827" y2="107.322" gradientUnits="userSpaceOnUse">
<stop stop-color="#AACCFF" stop-opacity="0.7"/>
<stop offset="0.494792" stop-color="#C1CFFF" stop-opacity="0"/>
<stop offset="1" stop-color="#DAE2FF" stop-opacity="0.42"/>
</linearGradient>
<linearGradient id="paint34_linear_1_71" x1="185.827" y1="1" x2="185.827" y2="107.322" gradientUnits="userSpaceOnUse">
<stop stop-color="#AACCFF" stop-opacity="0.7"/>
<stop offset="0.494792" stop-color="#C1CFFF" stop-opacity="0"/>
<stop offset="1" stop-color="#DAE2FF" stop-opacity="0.42"/>
</linearGradient>
<linearGradient id="paint35_linear_1_71" x1="185.827" y1="1" x2="185.827" y2="107.322" gradientUnits="userSpaceOnUse">
<stop stop-color="#AACCFF" stop-opacity="0.7"/>
<stop offset="0.494792" stop-color="#C1CFFF" stop-opacity="0"/>
<stop offset="1" stop-color="#DAE2FF" stop-opacity="0.42"/>
</linearGradient>
<linearGradient id="paint36_linear_1_71" x1="185.827" y1="1" x2="185.827" y2="107.322" gradientUnits="userSpaceOnUse">
<stop stop-color="#AACCFF" stop-opacity="0.7"/>
<stop offset="0.494792" stop-color="#C1CFFF" stop-opacity="0"/>
<stop offset="1" stop-color="#DAE2FF" stop-opacity="0.42"/>
</linearGradient>
<linearGradient id="paint37_linear_1_71" x1="185.827" y1="1" x2="185.827" y2="107.322" gradientUnits="userSpaceOnUse">
<stop stop-color="#AACCFF" stop-opacity="0.7"/>
<stop offset="0.494792" stop-color="#C1CFFF" stop-opacity="0"/>
<stop offset="1" stop-color="#DAE2FF" stop-opacity="0.42"/>
</linearGradient>
</defs>
</svg>
