<svg width="567" height="72" viewBox="0 0 567 72" fill="none" xmlns="http://www.w3.org/2000/svg">
<path d="M3.49645 26.1791C4.49109 25.4053 4.94452 25.0471 4.85676 25.1044C7.72365 22.7831 9.9762 20.8773 11.6144 19.3871C13.2819 17.8969 14.6861 16.3351 15.827 14.7015C16.9679 13.068 17.5383 11.4775 17.5383 9.92999C17.5383 8.75501 17.2604 7.83796 16.7046 7.17882C16.1488 6.51969 15.315 6.19012 14.2034 6.19012C13.0917 6.19012 12.2141 6.60567 11.5705 7.43675C10.9562 8.23917 10.649 9.38549 10.649 10.8757H3.40869C3.4672 8.43978 3.99377 6.40506 4.9884 4.77155C6.01229 3.13805 7.34334 1.93441 8.98156 1.16065C10.649 0.386883 12.492 0 14.5106 0C17.9918 0 20.61 0.874069 22.3652 2.62221C24.1497 4.37034 25.042 6.64865 25.042 9.45714C25.042 12.5235 23.9742 15.375 21.8387 18.0115C19.7031 20.6194 16.9825 23.17 13.6768 25.6632H25.5247V31.6384H3.49645V26.1791Z" fill="#FCFDFF"/>
<path d="M30.3204 26.48V20.5478L44.1867 1.11766H52.568V20.1179H56.1662V26.48H52.568V32.0683H45.0643V26.48H30.3204ZM45.5909 9.19921L38.2189 20.1179H45.5909V9.19921Z" fill="#FCFDFF"/>
<path d="M86.0732 15.6064V31.9512H82.6646V21.3201L78.1116 31.9512H75.5308L70.9535 21.3201V31.9512H67.5449V15.6064H71.4161L76.8212 27.7596L82.2263 15.6064H86.0732Z" fill="#FCFEFF"/>
<path d="M100.594 28.8368H93.8257L92.7058 31.9512H89.1267L95.2379 15.583H99.2065L105.318 31.9512H101.714L100.594 28.8368ZM99.6691 26.2141L97.21 19.3765L94.7509 26.2141H99.6691Z" fill="#FCFEFF"/>
<path d="M117.097 31.9512L113.348 25.5819H111.741V31.9512H108.332V15.6064H114.711C116.026 15.6064 117.146 15.8328 118.071 16.2855C118.996 16.7226 119.686 17.3236 120.141 18.0886C120.611 18.8379 120.847 19.6809 120.847 20.6176C120.847 21.6947 120.522 22.6704 119.873 23.5446C119.224 24.4032 118.258 24.9965 116.976 25.3243L121.042 31.9512H117.097ZM111.741 23.1231H114.59C115.515 23.1231 116.205 22.9124 116.659 22.4909C117.114 22.0538 117.341 21.4528 117.341 20.6878C117.341 19.9385 117.114 19.3609 116.659 18.955C116.205 18.5335 115.515 18.3227 114.59 18.3227H111.741V23.1231Z" fill="#FCFEFF"/>
<path d="M131.874 28.2514C133.432 27.0025 134.674 25.9643 135.599 25.137C136.524 24.294 137.295 23.4197 137.912 22.5143C138.529 21.6089 138.837 20.719 138.837 19.8448C138.837 19.0487 138.642 18.4242 138.253 17.9715C137.863 17.5188 137.263 17.2924 136.451 17.2924C135.64 17.2924 135.015 17.5578 134.576 18.0886C134.138 18.6037 133.911 19.314 133.895 20.2195H130.583C130.648 18.3462 131.225 16.9255 132.312 15.9577C133.416 14.9898 134.812 14.5058 136.5 14.5058C138.35 14.5058 139.771 14.982 140.761 15.9342C141.751 16.8709 142.246 18.112 142.246 19.6575C142.246 20.8751 141.905 22.0382 141.223 23.1465C140.542 24.2549 139.762 25.2228 138.886 26.0502C138.009 26.862 136.865 27.8455 135.453 29.0007H142.635V31.717H130.608V29.2817L131.874 28.2514Z" fill="#FCFEFF"/>
<path d="M145.514 23.1934C145.514 20.4927 146.017 18.3774 147.023 16.8475C148.046 15.3176 149.734 14.5527 152.087 14.5527C154.441 14.5527 156.121 15.3176 157.127 16.8475C158.15 18.3774 158.661 20.4927 158.661 23.1934C158.661 25.9097 158.15 28.0406 157.127 29.5861C156.121 31.1316 154.441 31.9043 152.087 31.9043C149.734 31.9043 148.046 31.1316 147.023 29.5861C146.017 28.0406 145.514 25.9097 145.514 23.1934ZM155.301 23.1934C155.301 22.0382 155.22 21.0703 155.058 20.2897C154.912 19.4936 154.603 18.8457 154.133 18.3462C153.678 17.8466 152.996 17.5968 152.087 17.5968C151.179 17.5968 150.489 17.8466 150.018 18.3462C149.563 18.8457 149.255 19.4936 149.093 20.2897C148.947 21.0703 148.874 22.0382 148.874 23.1934C148.874 24.3798 148.947 25.3789 149.093 26.1907C149.239 26.9869 149.547 27.6347 150.018 28.1343C150.489 28.6182 151.179 28.8602 152.087 28.8602C152.996 28.8602 153.686 28.6182 154.157 28.1343C154.628 27.6347 154.936 26.9869 155.082 26.1907C155.228 25.3789 155.301 24.3798 155.301 23.1934Z" fill="#FCFEFF"/>
<path d="M163.056 28.2514C164.614 27.0025 165.855 25.9643 166.781 25.137C167.706 24.294 168.477 23.4197 169.094 22.5143C169.71 21.6089 170.019 20.719 170.019 19.8448C170.019 19.0487 169.824 18.4242 169.435 17.9715C169.045 17.5188 168.444 17.2924 167.633 17.2924C166.821 17.2924 166.196 17.5578 165.758 18.0886C165.32 18.6037 165.093 19.314 165.076 20.2195H161.765C161.83 18.3462 162.406 16.9255 163.494 15.9577C164.598 14.9898 165.993 14.5058 167.682 14.5058C169.532 14.5058 170.952 14.982 171.942 15.9342C172.932 16.8709 173.427 18.112 173.427 19.6575C173.427 20.8751 173.087 22.0382 172.405 23.1465C171.723 24.2549 170.944 25.2228 170.068 26.0502C169.191 26.862 168.047 27.8455 166.635 29.0007H173.817V31.717H161.789V29.2817L163.056 28.2514Z" fill="#FCFEFF"/>
<path d="M176.744 19.3765C176.825 17.8154 177.393 16.6133 178.448 15.7703C179.52 14.9117 180.924 14.4824 182.66 14.4824C183.845 14.4824 184.86 14.6854 185.704 15.0913C186.548 15.4815 187.181 16.0201 187.603 16.707C188.041 17.3783 188.26 18.1432 188.26 19.0018C188.26 19.9853 187.993 20.8205 187.457 21.5074C186.937 22.1787 186.313 22.6314 185.582 22.8655V22.9592C186.524 23.2402 187.254 23.7398 187.773 24.4579C188.309 25.176 188.577 26.097 188.577 27.221C188.577 28.1577 188.35 28.9929 187.895 29.7266C187.457 30.4603 186.799 31.0379 185.923 31.4594C185.063 31.8653 184.024 32.0683 182.807 32.0683C180.972 32.0683 179.479 31.6233 178.327 30.7335C177.174 29.8437 176.566 28.5324 176.501 26.7995H179.812C179.844 27.5645 180.112 28.1811 180.615 28.6494C181.135 29.1022 181.841 29.3285 182.733 29.3285C183.561 29.3285 184.194 29.11 184.633 28.6729C185.087 28.2201 185.314 27.6425 185.314 26.94C185.314 26.0034 185.006 25.3321 184.389 24.9262C183.772 24.5203 182.815 24.3174 181.516 24.3174H180.81V21.6245H181.516C183.821 21.6245 184.973 20.8829 184.973 19.3999C184.973 18.7286 184.762 18.2057 184.34 17.831C183.935 17.4563 183.342 17.269 182.563 17.269C181.8 17.269 181.208 17.4719 180.786 17.8778C180.38 18.2681 180.145 18.7677 180.08 19.3765H176.744Z" fill="#FCFEFF"/>
<path d="M0.305176 58.4474C0.305176 51.3059 5.65649 45.5166 12.2577 45.5166H176.625C183.226 45.5166 188.577 51.3059 188.577 58.4474C188.577 65.5888 183.226 71.3781 176.625 71.3781H12.2577C5.65652 71.3781 0.305176 65.5888 0.305176 58.4474Z" fill="white"/>
<path d="M19.0638 64.6938C18.397 64.6938 17.8624 64.5386 17.46 64.2281C17.0576 63.9062 16.8564 63.3774 16.8564 62.6416V55.071H19.0466V62.3657C19.0466 62.8255 19.265 63.0555 19.7019 63.0555C19.8858 63.0555 20.087 63.0152 20.3055 62.9348L20.5469 64.3833C20.3285 64.4983 20.0928 64.5788 19.8399 64.6248C19.5869 64.6708 19.3283 64.6938 19.0638 64.6938Z" fill="#100751"/>
<path d="M24.7264 64.7283C23.6572 64.7283 22.68 64.4868 21.7948 64.004L22.3983 62.4002C22.6513 62.5496 22.9502 62.6818 23.2951 62.7968C23.64 62.9003 24.0021 62.952 24.3815 62.952C25.0943 62.952 25.6577 62.6818 26.0716 62.1415C26.4969 61.6011 26.7096 60.8021 26.7096 59.7444C26.7096 58.7327 26.4969 57.9624 26.0716 57.4335C25.6462 56.9047 24.9966 56.6403 24.1229 56.6403C23.7435 56.6403 23.3583 56.692 22.9674 56.7955C22.5765 56.8874 22.2431 57.0139 21.9672 57.1749V55.3641C22.6685 55.0307 23.502 54.864 24.4678 54.864C26.0428 54.864 27.181 55.3009 27.8823 56.1746C28.5836 57.0484 28.9343 58.2383 28.9343 59.7444C28.9343 61.3424 28.5721 62.5726 27.8478 63.4349C27.135 64.2971 26.0946 64.7283 24.7264 64.7283Z" fill="#100751"/>
<path d="M34.0709 64.6938C33.0707 64.6938 32.3004 64.4581 31.7601 63.9867C31.2312 63.5153 30.9668 62.8543 30.9668 62.0035C30.9668 61.0608 31.3002 60.325 31.967 59.7961C32.6453 59.2558 33.726 58.9339 35.2091 58.8304L36.9509 58.7097V58.3303C36.9509 57.698 36.7899 57.2496 36.468 56.9852C36.1576 56.7092 35.6575 56.5713 34.9677 56.5713C34.3813 56.5713 33.8122 56.6575 33.2604 56.83C32.7085 56.9909 32.2142 57.2036 31.7773 57.468V55.5883C32.0992 55.4274 32.5591 55.2664 33.1569 55.1054C33.7547 54.9445 34.4388 54.864 35.2091 54.864C36.0024 54.864 36.6864 54.979 37.2613 55.2089C37.8476 55.4274 38.296 55.7952 38.6064 56.3126C38.9283 56.8185 39.0893 57.4968 39.0893 58.3475V64.5213H36.9509V60.348L35.4678 60.4687C34.594 60.5492 33.9904 60.7101 33.657 60.9516C33.3236 61.1815 33.1569 61.5092 33.1569 61.9345C33.1569 62.3369 33.2834 62.6416 33.5363 62.8485C33.8007 63.044 34.1571 63.1417 34.6055 63.1417C34.7665 63.1417 34.9217 63.1302 35.0711 63.1072C35.2206 63.0727 35.3528 63.0382 35.4678 63.0037L35.7092 64.4351C35.4793 64.5156 35.2206 64.5788 34.9332 64.6248C34.6572 64.6708 34.3698 64.6938 34.0709 64.6938Z" fill="#100751"/>
<path d="M44.5541 64.5213V58.1061C44.5541 57.5887 44.4334 57.2151 44.1919 56.9852C43.9505 56.7437 43.5596 56.623 43.0193 56.623C42.6284 56.623 42.2662 56.6805 41.9328 56.7955C41.5994 56.8989 41.2833 57.0312 40.9843 57.1921V55.3814C41.2258 55.2664 41.5707 55.1514 42.019 55.0365C42.4789 54.9215 43.0078 54.864 43.6056 54.864C44.2264 54.864 44.7725 54.956 45.2439 55.1399C45.7153 55.3124 46.0832 55.6113 46.3476 56.0367C46.612 56.4506 46.7442 57.0139 46.7442 57.7267V64.5213H44.5541Z" fill="#100751"/>
<path d="M60.3092 64.5213H57.7052V57.3991C57.7052 57.1116 57.7109 56.7265 57.7224 56.2436C57.7339 55.7493 57.7511 55.3181 57.7741 54.9502C57.7166 55.0192 57.5902 55.1457 57.3947 55.3296C57.2108 55.5021 57.0383 55.6573 56.8774 55.7952L55.4633 56.9334L54.2044 55.3641L58.1708 52.2083H60.3092V64.5213Z" fill="#100751"/>
<path d="M72.2129 54.9675C72.2129 55.8182 71.9542 56.4966 71.4369 57.0024C70.931 57.5083 70.3045 57.8532 69.5572 58.0371V58.0889C70.5344 58.2153 71.2817 58.52 71.799 59.0029C72.3164 59.4857 72.5751 60.1295 72.5751 60.9343C72.5751 61.6471 72.3969 62.2909 72.0405 62.8658C71.6956 63.4291 71.1552 63.8775 70.4194 64.2109C69.6951 64.5328 68.7581 64.6938 67.6085 64.6938C66.2748 64.6938 65.0907 64.4696 64.056 64.0212V61.8138C64.5848 62.0782 65.1367 62.2794 65.7115 62.4174C66.2863 62.5554 66.8267 62.6243 67.3325 62.6243C68.2638 62.6243 68.9133 62.4634 69.2812 62.1415C69.6606 61.8196 69.8503 61.3654 69.8503 60.7791C69.8503 60.4457 69.7641 60.1583 69.5917 59.9168C69.4192 59.6754 69.1145 59.4972 68.6777 59.3822C68.2523 59.2558 67.6545 59.1925 66.8842 59.1925H65.9529V57.1921H66.9014C67.6602 57.1921 68.235 57.1231 68.6259 56.9852C69.0283 56.8357 69.2985 56.6403 69.4365 56.3988C69.5859 56.1459 69.6606 55.8585 69.6606 55.5366C69.6606 55.0997 69.5227 54.7605 69.2468 54.5191C68.9823 54.2662 68.534 54.1397 67.9016 54.1397C67.3153 54.1397 66.8037 54.2432 66.3668 54.4501C65.9299 54.6571 65.5678 54.8525 65.2804 55.0365L64.0732 53.243C64.5561 52.8981 65.1194 52.6106 65.7632 52.3807C66.4185 52.1508 67.1946 52.0358 68.0913 52.0358C69.356 52.0358 70.3562 52.2945 71.092 52.8118C71.8393 53.3177 72.2129 54.0362 72.2129 54.9675Z" fill="#100751"/>
<path d="M74.5973 56.3643C74.5973 55.8355 74.7411 55.4676 75.0285 55.2606C75.3159 55.0422 75.6665 54.933 76.0804 54.933C76.4828 54.933 76.8277 55.0422 77.1151 55.2606C77.4026 55.4676 77.5463 55.8355 77.5463 56.3643C77.5463 56.8702 77.4026 57.2381 77.1151 57.468C76.8277 57.6865 76.4828 57.7957 76.0804 57.7957C75.6665 57.7957 75.3159 57.6865 75.0285 57.468C74.7411 57.2381 74.5973 56.8702 74.5973 56.3643ZM74.5973 63.3141C74.5973 62.7853 74.7411 62.4174 75.0285 62.2105C75.3159 61.992 75.6665 61.8828 76.0804 61.8828C76.4828 61.8828 76.8277 61.992 77.1151 62.2105C77.4026 62.4174 77.5463 62.7853 77.5463 63.3141C77.5463 63.82 77.4026 64.1879 77.1151 64.4178C76.8277 64.6363 76.4828 64.7455 76.0804 64.7455C75.6665 64.7455 75.3159 64.6363 75.0285 64.4178C74.7411 64.1879 74.5973 63.82 74.5973 63.3141Z" fill="#100751"/>
<path d="M88.103 58.3648C88.103 59.6869 87.9593 60.8193 87.6719 61.7621C87.396 62.7048 86.9418 63.4291 86.3095 63.935C85.6772 64.4408 84.8379 64.6938 83.7917 64.6938C82.3086 64.6938 81.2222 64.1362 80.5324 63.021C79.8426 61.9058 79.4977 60.3537 79.4977 58.3648C79.4977 57.0426 79.6356 55.9102 79.9116 54.9675C80.1875 54.0132 80.6416 53.2832 81.2739 52.7773C81.9062 52.2715 82.7455 52.0186 83.7917 52.0186C85.2633 52.0186 86.3498 52.5761 87.0511 53.6913C87.7524 54.8065 88.103 56.3643 88.103 58.3648ZM82.0844 58.3648C82.0844 59.7674 82.2052 60.8251 82.4466 61.5379C82.688 62.2392 83.1364 62.5898 83.7917 62.5898C84.4355 62.5898 84.8839 62.2392 85.1368 61.5379C85.3898 60.8366 85.5162 59.7789 85.5162 58.3648C85.5162 56.9622 85.3898 55.9045 85.1368 55.1917C84.8839 54.4789 84.4355 54.1225 83.7917 54.1225C83.1364 54.1225 82.688 54.4789 82.4466 55.1917C82.2052 55.9045 82.0844 56.9622 82.0844 58.3648Z" fill="#100751"/>
<path d="M98.3167 58.3648C98.3167 59.6869 98.173 60.8193 97.8856 61.7621C97.6097 62.7048 97.1556 63.4291 96.5232 63.935C95.8909 64.4408 95.0517 64.6938 94.0054 64.6938C92.5224 64.6938 91.4359 64.1362 90.7461 63.021C90.0563 61.9058 89.7114 60.3537 89.7114 58.3648C89.7114 57.0426 89.8493 55.9102 90.1253 54.9675C90.4012 54.0132 90.8553 53.2832 91.4876 52.7773C92.12 52.2715 92.9592 52.0186 94.0054 52.0186C95.477 52.0186 96.5635 52.5761 97.2648 53.6913C97.9661 54.8065 98.3167 56.3643 98.3167 58.3648ZM92.2982 58.3648C92.2982 59.7674 92.4189 60.8251 92.6603 61.5379C92.9018 62.2392 93.3501 62.5898 94.0054 62.5898C94.6493 62.5898 95.0976 62.2392 95.3506 61.5379C95.6035 60.8366 95.73 59.7789 95.73 58.3648C95.73 56.9622 95.6035 55.9045 95.3506 55.1917C95.0976 54.4789 94.6493 54.1225 94.0054 54.1225C93.3501 54.1225 92.9018 54.4789 92.6603 55.1917C92.4189 55.9045 92.2982 56.9622 92.2982 58.3648Z" fill="#100751"/>
<path d="M99.8906 60.8136V58.9856H104.271V60.8136H99.8906Z" fill="#100751"/>
<path d="M112.329 64.5213H109.725V57.3991C109.725 57.1116 109.731 56.7265 109.742 56.2436C109.754 55.7493 109.771 55.3181 109.794 54.9502C109.736 55.0192 109.61 55.1457 109.415 55.3296C109.231 55.5021 109.058 55.6573 108.897 55.7952L107.483 56.9334L106.224 55.3641L110.191 52.2083H112.329V64.5213Z" fill="#100751"/>
<path d="M124.664 57.468C124.664 58.1693 124.612 58.8706 124.509 59.5719C124.405 60.2618 124.221 60.9171 123.957 61.5379C123.704 62.1472 123.342 62.6933 122.87 63.1762C122.41 63.6476 121.818 64.0212 121.094 64.2971C120.381 64.5615 119.513 64.6938 118.49 64.6938C118.249 64.6938 117.967 64.6823 117.645 64.6593C117.323 64.6478 117.053 64.619 116.835 64.573V62.4864C117.064 62.5324 117.306 62.5726 117.559 62.6071C117.812 62.6416 118.065 62.6588 118.318 62.6588C119.341 62.6588 120.128 62.4979 120.68 62.176C121.244 61.8541 121.64 61.4057 121.87 60.8308C122.1 60.2445 122.232 59.5719 122.267 58.8132H122.163C121.922 59.2155 121.6 59.5547 121.198 59.8306C120.807 60.1065 120.22 60.2445 119.439 60.2445C118.392 60.2445 117.553 59.9054 116.921 59.227C116.288 58.5487 115.972 57.5887 115.972 56.3471C115.972 55.0135 116.346 53.9673 117.093 53.2085C117.852 52.4497 118.875 52.0703 120.163 52.0703C121.002 52.0703 121.761 52.2657 122.439 52.6566C123.118 53.036 123.658 53.6281 124.06 54.4329C124.463 55.2262 124.664 56.2379 124.664 57.468ZM120.215 54.157C119.709 54.157 119.295 54.3352 118.973 54.6916C118.651 55.0365 118.49 55.5768 118.49 56.3126C118.49 56.9104 118.628 57.3818 118.904 57.7267C119.18 58.0716 119.6 58.2441 120.163 58.2441C120.542 58.2441 120.876 58.1578 121.163 57.9854C121.451 57.8129 121.675 57.6002 121.836 57.3473C121.997 57.0829 122.077 56.8127 122.077 56.5368C122.077 56.1574 122.008 55.7838 121.87 55.4159C121.732 55.048 121.525 54.749 121.249 54.5191C120.973 54.2777 120.629 54.157 120.215 54.157Z" fill="#100751"/>
<path d="M126.617 56.3643C126.617 55.8355 126.761 55.4676 127.048 55.2606C127.336 55.0422 127.686 54.933 128.1 54.933C128.503 54.933 128.848 55.0422 129.135 55.2606C129.422 55.4676 129.566 55.8355 129.566 56.3643C129.566 56.8702 129.422 57.2381 129.135 57.468C128.848 57.6865 128.503 57.7957 128.1 57.7957C127.686 57.7957 127.336 57.6865 127.048 57.468C126.761 57.2381 126.617 56.8702 126.617 56.3643ZM126.617 63.3141C126.617 62.7853 126.761 62.4174 127.048 62.2105C127.336 61.992 127.686 61.8828 128.1 61.8828C128.503 61.8828 128.848 61.992 129.135 62.2105C129.422 62.4174 129.566 62.7853 129.566 63.3141C129.566 63.82 129.422 64.1879 129.135 64.4178C128.848 64.6363 128.503 64.7455 128.1 64.7455C127.686 64.7455 127.336 64.6363 127.048 64.4178C126.761 64.1879 126.617 63.82 126.617 63.3141Z" fill="#100751"/>
<path d="M140.123 58.3648C140.123 59.6869 139.979 60.8193 139.692 61.7621C139.416 62.7048 138.962 63.4291 138.329 63.935C137.697 64.4408 136.858 64.6938 135.812 64.6938C134.328 64.6938 133.242 64.1362 132.552 63.021C131.862 61.9058 131.517 60.3537 131.517 58.3648C131.517 57.0426 131.655 55.9102 131.931 54.9675C132.207 54.0132 132.661 53.2832 133.294 52.7773C133.926 52.2715 134.765 52.0186 135.812 52.0186C137.283 52.0186 138.37 52.5761 139.071 53.6913C139.772 54.8065 140.123 56.3643 140.123 58.3648ZM134.104 58.3648C134.104 59.7674 134.225 60.8251 134.466 61.5379C134.708 62.2392 135.156 62.5898 135.812 62.5898C136.455 62.5898 136.904 62.2392 137.157 61.5379C137.41 60.8366 137.536 59.7789 137.536 58.3648C137.536 56.9622 137.41 55.9045 137.157 55.1917C136.904 54.4789 136.455 54.1225 135.812 54.1225C135.156 54.1225 134.708 54.4789 134.466 55.1917C134.225 55.9045 134.104 56.9622 134.104 58.3648Z" fill="#100751"/>
<path d="M150.337 58.3648C150.337 59.6869 150.193 60.8193 149.905 61.7621C149.63 62.7048 149.175 63.4291 148.543 63.935C147.911 64.4408 147.071 64.6938 146.025 64.6938C144.542 64.6938 143.456 64.1362 142.766 63.021C142.076 61.9058 141.731 60.3537 141.731 58.3648C141.731 57.0426 141.869 55.9102 142.145 54.9675C142.421 54.0132 142.875 53.2832 143.507 52.7773C144.14 52.2715 144.979 52.0186 146.025 52.0186C147.497 52.0186 148.583 52.5761 149.285 53.6913C149.986 54.8065 150.337 56.3643 150.337 58.3648ZM144.318 58.3648C144.318 59.7674 144.439 60.8251 144.68 61.5379C144.922 62.2392 145.37 62.5898 146.025 62.5898C146.669 62.5898 147.117 62.2392 147.37 61.5379C147.623 60.8366 147.75 59.7789 147.75 58.3648C147.75 56.9622 147.623 55.9045 147.37 55.1917C147.117 54.4789 146.669 54.1225 146.025 54.1225C145.37 54.1225 144.922 54.4789 144.68 55.1917C144.439 55.9045 144.318 56.9622 144.318 58.3648Z" fill="#100751"/>
<path d="M160.667 64.6938C159.621 64.6938 158.816 64.4063 158.253 63.8315C157.701 63.2452 157.425 62.3657 157.425 61.193V55.071H159.615V60.8826C159.615 61.5494 159.759 62.038 160.046 62.3484C160.334 62.6588 160.759 62.814 161.322 62.814C162.001 62.814 162.524 62.5726 162.892 62.0897C163.271 61.6069 163.461 60.8941 163.461 59.9513V55.071H165.651V64.5213H163.944L163.754 63.09H163.616C163.42 63.5613 163.076 63.9465 162.581 64.2454C162.098 64.5443 161.46 64.6938 160.667 64.6938Z" fill="#100751"/>
<path d="M168.406 63.3141C168.406 62.7853 168.55 62.4174 168.838 62.2105C169.125 61.992 169.476 61.8828 169.889 61.8828C170.292 61.8828 170.637 61.992 170.924 62.2105C171.212 62.4174 171.355 62.7853 171.355 63.3141C171.355 63.82 171.212 64.1879 170.924 64.4178C170.637 64.6363 170.292 64.7455 169.889 64.7455C169.476 64.7455 169.125 64.6363 168.838 64.4178C168.55 64.1879 168.406 63.82 168.406 63.3141Z" fill="#100751"/>
<path d="M247.625 29.274H241.359L240.323 32.2714H237.01L242.667 16.5181H246.34L251.997 32.2714H248.661L247.625 29.274ZM246.768 26.7498L244.492 20.1691L242.216 26.7498H246.768Z" fill="url(#paint0_linear_1_75)"/>
<path d="M258.235 22.3777V28.4176C258.235 28.8383 258.333 29.1463 258.528 29.3416C258.739 29.5219 259.084 29.612 259.565 29.612H261.03V32.2714H259.047C256.387 32.2714 255.058 30.9793 255.058 28.395V22.3777H253.57V19.786H255.058V16.6984H258.235V19.786H261.03V22.3777H258.235Z" fill="url(#paint1_linear_1_75)"/>
<path d="M280.524 21.2734C280.163 20.6123 279.668 20.109 279.036 19.7634C278.405 19.4178 277.669 19.2451 276.828 19.2451C275.896 19.2451 275.07 19.4554 274.349 19.8761C273.628 20.2968 273.064 20.8978 272.659 21.679C272.253 22.4603 272.05 23.3618 272.05 24.3835C272.05 25.4352 272.253 26.3517 272.659 27.133C273.079 27.9143 273.658 28.5152 274.394 28.9359C275.13 29.3566 275.986 29.567 276.963 29.567C278.165 29.567 279.149 29.2514 279.915 28.6204C280.682 27.9744 281.185 27.0804 281.425 25.9385H276.017V23.5271H284.535V26.2766C284.325 27.3734 283.874 28.3875 283.183 29.3191C282.492 30.2506 281.598 31.0018 280.501 31.5727C279.42 32.1287 278.203 32.4066 276.85 32.4066C275.333 32.4066 273.958 32.0686 272.726 31.3925C271.509 30.7013 270.548 29.7473 269.841 28.5303C269.15 27.3133 268.805 25.931 268.805 24.3835C268.805 22.8359 269.15 21.4537 269.841 20.2367C270.548 19.0047 271.509 18.0506 272.726 17.3745C273.958 16.6834 275.325 16.3378 276.828 16.3378C278.601 16.3378 280.141 16.7735 281.448 17.6449C282.755 18.5013 283.657 19.7108 284.152 21.2734H280.524Z" fill="url(#paint2_linear_1_75)"/>
<path d="M290.476 21.7241C290.881 21.063 291.407 20.5447 292.053 20.1691C292.714 19.7935 293.466 19.6057 294.307 19.6057V22.9186H293.473C292.481 22.9186 291.73 23.1515 291.219 23.6172C290.724 24.083 290.476 24.8943 290.476 26.0512V32.2714H287.321V19.786H290.476V21.7241Z" fill="url(#paint3_linear_1_75)"/>
<path d="M296.072 25.9836C296.072 24.7215 296.319 23.6022 296.815 22.6256C297.326 21.649 298.01 20.8978 298.866 20.3719C299.738 19.8461 300.707 19.5831 301.773 19.5831C302.705 19.5831 303.516 19.7709 304.207 20.1465C304.914 20.5222 305.477 20.9954 305.898 21.5664V19.786H309.075V32.2714H305.898V30.4459C305.492 31.0319 304.929 31.5202 304.207 31.9108C303.501 32.2864 302.682 32.4742 301.751 32.4742C300.699 32.4742 299.738 32.2038 298.866 31.6629C298.01 31.122 297.326 30.3633 296.815 29.3867C296.319 28.395 296.072 27.2607 296.072 25.9836ZM305.898 26.0287C305.898 25.2624 305.747 24.6088 305.447 24.068C305.146 23.5121 304.741 23.0914 304.23 22.8059C303.719 22.5054 303.171 22.3552 302.585 22.3552C301.999 22.3552 301.458 22.4979 300.962 22.7834C300.466 23.0688 300.061 23.4895 299.745 24.0454C299.445 24.5863 299.294 25.2324 299.294 25.9836C299.294 26.7348 299.445 27.3959 299.745 27.9668C300.061 28.5228 300.466 28.951 300.962 29.2514C301.473 29.5519 302.014 29.7022 302.585 29.7022C303.171 29.7022 303.719 29.5594 304.23 29.274C304.741 28.9735 305.146 28.5528 305.447 28.0119C305.747 27.456 305.898 26.7949 305.898 26.0287Z" fill="url(#paint4_linear_1_75)"/>
<path d="M319.526 19.6057C321.014 19.6057 322.216 20.0789 323.132 21.0255C324.049 21.957 324.507 23.2641 324.507 24.9469V32.2714H321.352V25.3751C321.352 24.3835 321.104 23.6247 320.608 23.0989C320.112 22.558 319.436 22.2875 318.58 22.2875C317.708 22.2875 317.017 22.558 316.507 23.0989C316.011 23.6247 315.763 24.3835 315.763 25.3751V32.2714H312.608V19.786H315.763V21.341C316.183 20.8001 316.717 20.3794 317.363 20.0789C318.024 19.7634 318.745 19.6057 319.526 19.6057Z" fill="url(#paint5_linear_1_75)"/>
<path d="M327.147 25.9836C327.147 24.7215 327.395 23.6022 327.891 22.6256C328.401 21.649 329.093 20.8978 329.964 20.3719C330.835 19.8461 331.805 19.5831 332.871 19.5831C333.683 19.5831 334.456 19.7634 335.193 20.124C335.929 20.4696 336.515 20.9353 336.95 21.5213V15.5941H340.151V32.2714H336.95V30.4234C336.56 31.0394 336.011 31.5352 335.305 31.9108C334.599 32.2864 333.78 32.4742 332.849 32.4742C331.797 32.4742 330.835 32.2038 329.964 31.6629C329.093 31.122 328.401 30.3633 327.891 29.3867C327.395 28.395 327.147 27.2607 327.147 25.9836ZM336.973 26.0287C336.973 25.2624 336.823 24.6088 336.522 24.068C336.222 23.5121 335.816 23.0914 335.305 22.8059C334.794 22.5054 334.246 22.3552 333.66 22.3552C333.074 22.3552 332.533 22.4979 332.037 22.7834C331.542 23.0688 331.136 23.4895 330.82 24.0454C330.52 24.5863 330.37 25.2324 330.37 25.9836C330.37 26.7348 330.52 27.3959 330.82 27.9668C331.136 28.5228 331.542 28.951 332.037 29.2514C332.548 29.5519 333.089 29.7022 333.66 29.7022C334.246 29.7022 334.794 29.5594 335.305 29.274C335.816 28.9735 336.222 28.5528 336.522 28.0119C336.823 27.456 336.973 26.7949 336.973 26.0287Z" fill="url(#paint6_linear_1_75)"/>
<path d="M358.428 24.2032C359.315 24.3685 360.044 24.8117 360.615 25.5329C361.185 26.254 361.471 27.0804 361.471 28.0119C361.471 28.8533 361.261 29.597 360.84 30.2431C360.434 30.8741 359.841 31.3699 359.059 31.7305C358.278 32.0911 357.354 32.2714 356.287 32.2714H349.504V16.5406H355.994C357.061 16.5406 357.978 16.7134 358.744 17.059C359.525 17.4046 360.111 17.8853 360.502 18.5014C360.908 19.1174 361.11 19.816 361.11 20.5973C361.11 21.5138 360.862 22.28 360.367 22.896C359.886 23.512 359.24 23.9478 358.428 24.2032ZM352.659 23.0313H355.544C356.295 23.0313 356.873 22.866 357.279 22.5355C357.685 22.1899 357.888 21.7016 357.888 21.0706C357.888 20.4395 357.685 19.9512 357.279 19.6057C356.873 19.2601 356.295 19.0873 355.544 19.0873H352.659V23.0313ZM355.837 29.7022C356.603 29.7022 357.196 29.5219 357.617 29.1613C358.053 28.8007 358.271 28.2899 358.271 27.6288C358.271 26.9527 358.045 26.4268 357.595 26.0512C357.144 25.6606 356.535 25.4652 355.769 25.4652H352.659V29.7022H355.837Z" fill="url(#paint7_linear_1_75)"/>
<path d="M363.625 25.9836C363.625 24.7215 363.873 23.6022 364.369 22.6256C364.88 21.649 365.563 20.8978 366.42 20.3719C367.291 19.8461 368.26 19.5831 369.327 19.5831C370.258 19.5831 371.07 19.7709 371.761 20.1465C372.467 20.5222 373.03 20.9954 373.451 21.5664V19.786H376.629V32.2714H373.451V30.4459C373.045 31.0319 372.482 31.5202 371.761 31.9108C371.055 32.2864 370.236 32.4742 369.304 32.4742C368.253 32.4742 367.291 32.2038 366.42 31.6629C365.563 31.122 364.88 30.3633 364.369 29.3867C363.873 28.395 363.625 27.2607 363.625 25.9836ZM373.451 26.0287C373.451 25.2624 373.301 24.6088 373 24.068C372.7 23.5121 372.294 23.0914 371.783 22.8059C371.273 22.5054 370.724 22.3552 370.138 22.3552C369.552 22.3552 369.011 22.4979 368.515 22.7834C368.02 23.0688 367.614 23.4895 367.298 24.0454C366.998 24.5863 366.848 25.2324 366.848 25.9836C366.848 26.7348 366.998 27.3959 367.298 27.9668C367.614 28.5228 368.02 28.951 368.515 29.2514C369.026 29.5519 369.567 29.7022 370.138 29.7022C370.724 29.7022 371.273 29.5594 371.783 29.274C372.294 28.9735 372.7 28.5528 373 28.0119C373.301 27.456 373.451 26.7949 373.451 26.0287Z" fill="url(#paint8_linear_1_75)"/>
<path d="M383.316 15.5941V32.2714H380.161V15.5941H383.316Z" fill="url(#paint9_linear_1_75)"/>
<path d="M390.039 15.5941V32.2714H386.884V15.5941H390.039Z" fill="url(#paint10_linear_1_75)"/>
<path d="M396.763 21.7241C397.168 21.063 397.694 20.5447 398.34 20.1691C399.001 19.7935 399.753 19.6057 400.594 19.6057V22.9186H399.76C398.768 22.9186 398.017 23.1515 397.506 23.6172C397.011 24.083 396.763 24.8943 396.763 26.0512V32.2714H393.607V19.786H396.763V21.7241Z" fill="url(#paint11_linear_1_75)"/>
<path d="M408.714 32.4742C407.512 32.4742 406.43 32.2113 405.469 31.6854C404.507 31.1445 403.748 30.3858 403.192 29.4092C402.651 28.4326 402.381 27.3058 402.381 26.0287C402.381 24.7516 402.659 23.6247 403.215 22.6481C403.786 21.6715 404.56 20.9203 405.536 20.3944C406.513 19.8536 407.602 19.5831 408.804 19.5831C410.006 19.5831 411.095 19.8536 412.072 20.3944C413.048 20.9203 413.815 21.6715 414.371 22.6481C414.942 23.6247 415.227 24.7516 415.227 26.0287C415.227 27.3058 414.934 28.4326 414.348 29.4092C413.777 30.3858 412.996 31.1445 412.004 31.6854C411.028 32.2113 409.931 32.4742 408.714 32.4742ZM408.714 29.7247C409.285 29.7247 409.818 29.5895 410.314 29.3191C410.825 29.0336 411.231 28.6129 411.531 28.057C411.831 27.5011 411.982 26.825 411.982 26.0287C411.982 24.8417 411.666 23.9327 411.035 23.3017C410.419 22.6557 409.66 22.3326 408.759 22.3326C407.857 22.3326 407.099 22.6557 406.483 23.3017C405.882 23.9327 405.581 24.8417 405.581 26.0287C405.581 27.2156 405.874 28.1321 406.46 28.7782C407.061 29.4092 407.812 29.7247 408.714 29.7247Z" fill="url(#paint12_linear_1_75)"/>
<path d="M423.536 32.4742C422.334 32.4742 421.253 32.2113 420.291 31.6854C419.329 31.1445 418.571 30.3858 418.015 29.4092C417.474 28.4326 417.203 27.3058 417.203 26.0287C417.203 24.7516 417.481 23.6247 418.037 22.6481C418.608 21.6715 419.382 20.9203 420.359 20.3944C421.335 19.8536 422.424 19.5831 423.626 19.5831C424.828 19.5831 425.918 19.8536 426.894 20.3944C427.871 20.9203 428.637 21.6715 429.193 22.6481C429.764 23.6247 430.049 24.7516 430.049 26.0287C430.049 27.3058 429.757 28.4326 429.171 29.4092C428.6 30.3858 427.818 31.1445 426.827 31.6854C425.85 32.2113 424.753 32.4742 423.536 32.4742ZM423.536 29.7247C424.107 29.7247 424.641 29.5895 425.136 29.3191C425.647 29.0336 426.053 28.6129 426.353 28.057C426.654 27.5011 426.804 26.825 426.804 26.0287C426.804 24.8417 426.489 23.9327 425.858 23.3017C425.242 22.6557 424.483 22.3326 423.581 22.3326C422.68 22.3326 421.921 22.6557 421.305 23.3017C420.704 23.9327 420.404 24.8417 420.404 26.0287C420.404 27.2156 420.697 28.1321 421.283 28.7782C421.884 29.4092 422.635 29.7247 423.536 29.7247Z" fill="url(#paint13_linear_1_75)"/>
<path d="M448.32 19.6057C449.853 19.6057 451.085 20.0789 452.016 21.0255C452.963 21.957 453.436 23.2641 453.436 24.9469V32.2714H450.281V25.3751C450.281 24.3985 450.033 23.6548 449.537 23.1439C449.041 22.6181 448.365 22.3552 447.509 22.3552C446.652 22.3552 445.969 22.6181 445.458 23.1439C444.962 23.6548 444.714 24.3985 444.714 25.3751V32.2714H441.559V25.3751C441.559 24.3985 441.311 23.6548 440.815 23.1439C440.319 22.6181 439.643 22.3552 438.787 22.3552C437.915 22.3552 437.224 22.6181 436.714 23.1439C436.218 23.6548 435.97 24.3985 435.97 25.3751V32.2714H432.815V19.786H435.97V21.2959C436.375 20.7701 436.894 20.3569 437.525 20.0564C438.171 19.7559 438.877 19.6057 439.643 19.6057C440.62 19.6057 441.491 19.816 442.258 20.2367C443.024 20.6424 443.617 21.2283 444.038 21.9946C444.444 21.2734 445.03 20.6949 445.796 20.2592C446.577 19.8235 447.419 19.6057 448.32 19.6057Z" fill="url(#paint14_linear_1_75)"/>
<path d="M464.343 28.5083V26.0292L471.713 15.482H475.386V25.7588H477.37V28.5083H475.386V31.7085H472.231V28.5083H464.343ZM472.434 18.8625L467.814 25.7588H472.434V18.8625Z" fill="url(#paint15_linear_1_75)"/>
<path d="M483.863 21.8149V27.8547C483.863 28.2754 483.961 28.5834 484.156 28.7788C484.366 28.959 484.712 29.0492 485.193 29.0492H486.658V31.7085H484.674C482.015 31.7085 480.685 30.4164 480.685 27.8322V21.8149H479.198V19.2231H480.685V16.1356H483.863V19.2231H486.658V21.8149H483.863Z" fill="url(#paint16_linear_1_75)"/>
<path d="M496.409 19.0428C497.356 19.0428 498.197 19.2532 498.933 19.6738C499.67 20.0795 500.241 20.688 500.646 21.4993C501.067 22.2956 501.277 23.2572 501.277 24.3841V31.7085H498.122V24.8123C498.122 23.8206 497.874 23.0619 497.378 22.536C496.883 21.9951 496.206 21.7247 495.35 21.7247C494.479 21.7247 493.787 21.9951 493.277 22.536C492.781 23.0619 492.533 23.8206 492.533 24.8123V31.7085H489.378V15.0312H492.533V20.7782C492.939 20.2373 493.479 19.8166 494.156 19.5161C494.832 19.2006 495.583 19.0428 496.409 19.0428Z" fill="url(#paint17_linear_1_75)"/>
<path d="M520.263 15.9778V18.5245H513.704V22.5586H518.73V25.0602H513.704V31.7085H510.549V15.9778H520.263Z" fill="url(#paint18_linear_1_75)"/>
<path d="M526.106 15.0312V31.7085H522.951V15.0312H526.106Z" fill="url(#paint19_linear_1_75)"/>
<path d="M535.218 31.9114C534.016 31.9114 532.934 31.6484 531.973 31.1226C531.011 30.5817 530.252 29.823 529.696 28.8464C529.156 27.8698 528.885 26.7429 528.885 25.4658C528.885 24.1887 529.163 23.0619 529.719 22.0853C530.29 21.1087 531.064 20.3575 532.04 19.8316C533.017 19.2907 534.106 19.0203 535.308 19.0203C536.51 19.0203 537.599 19.2907 538.576 19.8316C539.553 20.3575 540.319 21.1087 540.875 22.0853C541.446 23.0619 541.731 24.1887 541.731 25.4658C541.731 26.7429 541.438 27.8698 540.852 28.8464C540.281 29.823 539.5 30.5817 538.508 31.1226C537.532 31.6484 536.435 31.9114 535.218 31.9114ZM535.218 29.1619C535.789 29.1619 536.322 29.0267 536.818 28.7562C537.329 28.4707 537.735 28.0501 538.035 27.4942C538.336 26.9382 538.486 26.2621 538.486 25.4658C538.486 24.2789 538.17 23.3699 537.539 22.7389C536.923 22.0928 536.165 21.7698 535.263 21.7698C534.362 21.7698 533.603 22.0928 532.987 22.7389C532.386 23.3699 532.085 24.2789 532.085 25.4658C532.085 26.6528 532.378 27.5693 532.964 28.2153C533.565 28.8464 534.316 29.1619 535.218 29.1619Z" fill="url(#paint20_linear_1_75)"/>
<path d="M550.04 31.9114C548.838 31.9114 547.757 31.6484 546.795 31.1226C545.834 30.5817 545.075 29.823 544.519 28.8464C543.978 27.8698 543.708 26.7429 543.708 25.4658C543.708 24.1887 543.985 23.0619 544.541 22.0853C545.112 21.1087 545.886 20.3575 546.863 19.8316C547.839 19.2907 548.929 19.0203 550.131 19.0203C551.333 19.0203 552.422 19.2907 553.398 19.8316C554.375 20.3575 555.141 21.1087 555.697 22.0853C556.268 23.0619 556.554 24.1887 556.554 25.4658C556.554 26.7429 556.261 27.8698 555.675 28.8464C555.104 29.823 554.322 30.5817 553.331 31.1226C552.354 31.6484 551.257 31.9114 550.04 31.9114ZM550.04 29.1619C550.611 29.1619 551.145 29.0267 551.641 28.7562C552.151 28.4707 552.557 28.0501 552.858 27.4942C553.158 26.9382 553.308 26.2621 553.308 25.4658C553.308 24.2789 552.993 23.3699 552.362 22.7389C551.746 22.0928 550.987 21.7698 550.085 21.7698C549.184 21.7698 548.425 22.0928 547.809 22.7389C547.208 23.3699 546.908 24.2789 546.908 25.4658C546.908 26.6528 547.201 27.5693 547.787 28.2153C548.388 28.8464 549.139 29.1619 550.04 29.1619Z" fill="url(#paint21_linear_1_75)"/>
<path d="M562.474 21.1613C562.88 20.5002 563.405 19.9819 564.051 19.6062C564.713 19.2306 565.464 19.0428 566.305 19.0428V22.3557H565.471C564.48 22.3557 563.728 22.5886 563.218 23.0544C562.722 23.5201 562.474 24.3315 562.474 25.4884V31.7085H559.319V19.2231H562.474V21.1613Z" fill="url(#paint22_linear_1_75)"/>
<path d="M245.423 55.1094C245.423 56.0662 245.093 56.8635 244.433 57.5013C243.784 58.1282 242.789 58.4416 241.447 58.4416H239.237V63.242H237.736V51.7442H241.447C242.745 51.7442 243.729 52.0576 244.4 52.6845C245.082 53.3113 245.423 54.1197 245.423 55.1094ZM241.447 57.2044C242.283 57.2044 242.899 57.023 243.295 56.66C243.691 56.2971 243.889 55.7803 243.889 55.1094C243.889 53.6908 243.075 52.9814 241.447 52.9814H239.237V57.2044H241.447Z" fill="white"/>
<path d="M255.306 54.2021V63.242H253.805V61.9058C253.519 62.3677 253.117 62.7306 252.6 62.9945C252.095 63.2475 251.534 63.3739 250.918 63.3739C250.214 63.3739 249.582 63.231 249.021 62.945C248.46 62.6481 248.015 62.2082 247.685 61.6254C247.366 61.0425 247.206 60.3332 247.206 59.4974V54.2021H248.691V59.2994C248.691 60.1902 248.916 60.8775 249.367 61.3614C249.818 61.8343 250.434 62.0707 251.215 62.0707C252.018 62.0707 252.65 61.8233 253.112 61.3284C253.574 60.8335 253.805 60.1132 253.805 59.1674V54.2021H255.306Z" fill="white"/>
<path d="M259.342 51.0349V63.242H257.84V51.0349H259.342Z" fill="white"/>
<path d="M263.401 51.0349V63.242H261.9V51.0349H263.401Z" fill="white"/>
<path d="M276.83 54.0372C277.534 54.0372 278.161 54.1856 278.711 54.4826C279.261 54.7685 279.695 55.2029 280.014 55.7858C280.333 56.3686 280.493 57.0779 280.493 57.9137V63.242H279.008V58.1282C279.008 57.2264 278.782 56.5391 278.332 56.0662C277.892 55.5823 277.292 55.3404 276.533 55.3404C275.753 55.3404 275.131 55.5933 274.669 56.0992C274.208 56.5941 273.977 57.3144 273.977 58.2602V63.242H272.492V58.1282C272.492 57.2264 272.267 56.5391 271.816 56.0662C271.376 55.5823 270.776 55.3404 270.018 55.3404C269.237 55.3404 268.615 55.5933 268.153 56.0992C267.692 56.5941 267.461 57.3144 267.461 58.2602V63.242H265.96V54.2021H267.461V55.5053C267.758 55.0324 268.153 54.6695 268.648 54.4166C269.154 54.1636 269.71 54.0372 270.314 54.0372C271.073 54.0372 271.744 54.2076 272.327 54.5485C272.91 54.8895 273.344 55.3898 273.63 56.0497C273.883 55.4118 274.301 54.917 274.884 54.565C275.467 54.2131 276.116 54.0372 276.83 54.0372Z" fill="white"/>
<path d="M282.394 58.6891C282.394 57.7653 282.581 56.957 282.955 56.2641C283.329 55.5603 283.84 55.0159 284.489 54.631C285.149 54.2461 285.88 54.0537 286.683 54.0537C287.475 54.0537 288.162 54.2241 288.745 54.565C289.328 54.906 289.762 55.3349 290.048 55.8517V54.2021H291.566V63.242H290.048V61.5594C289.751 62.0872 289.306 62.5271 288.712 62.879C288.129 63.22 287.447 63.3904 286.667 63.3904C285.864 63.3904 285.138 63.1925 284.489 62.7966C283.84 62.4007 283.329 61.8453 282.955 61.1305C282.581 60.4156 282.394 59.6018 282.394 58.6891ZM290.048 58.7056C290.048 58.0237 289.911 57.4299 289.636 56.924C289.361 56.4181 288.987 56.0332 288.514 55.7693C288.052 55.4943 287.541 55.3569 286.98 55.3569C286.419 55.3569 285.908 55.4888 285.446 55.7528C284.984 56.0167 284.616 56.4016 284.341 56.9075C284.066 57.4134 283.928 58.0072 283.928 58.6891C283.928 59.3819 284.066 59.9867 284.341 60.5036C284.616 61.0095 284.984 61.3999 285.446 61.6748C285.908 61.9388 286.419 62.0707 286.98 62.0707C287.541 62.0707 288.052 61.9388 288.514 61.6748C288.987 61.3999 289.361 61.0095 289.636 60.5036C289.911 59.9867 290.048 59.3874 290.048 58.7056Z" fill="white"/>
<path d="M298.507 54.0372C299.607 54.0372 300.498 54.3726 301.179 55.0434C301.861 55.7033 302.202 56.66 302.202 57.9137V63.242H300.718V58.1282C300.718 57.2264 300.492 56.5391 300.041 56.0662C299.59 55.5823 298.974 55.3404 298.194 55.3404C297.402 55.3404 296.77 55.5878 296.297 56.0827C295.835 56.5776 295.604 57.2979 295.604 58.2437V63.242H294.103V54.2021H295.604V55.4888C295.901 55.0269 296.302 54.6695 296.808 54.4166C297.325 54.1636 297.891 54.0372 298.507 54.0372Z" fill="white"/>
<path d="M314.809 57.3199C315.227 57.3859 315.607 57.5563 315.948 57.8313C316.299 58.1062 316.574 58.4471 316.772 58.854C316.981 59.2609 317.086 59.6953 317.086 60.1572C317.086 60.7401 316.937 61.2679 316.64 61.7408C316.343 62.2027 315.909 62.5711 315.337 62.8461C314.776 63.11 314.111 63.242 313.341 63.242H309.052V51.7442H313.176C313.957 51.7442 314.622 51.8762 315.172 52.1401C315.722 52.3931 316.134 52.7395 316.409 53.1794C316.684 53.6193 316.822 54.1142 316.822 54.664C316.822 55.3459 316.635 55.9122 316.261 56.3631C315.898 56.803 315.414 57.1219 314.809 57.3199ZM310.553 56.7095H313.077C313.781 56.7095 314.325 56.5446 314.71 56.2146C315.095 55.8847 315.288 55.4283 315.288 54.8455C315.288 54.2626 315.095 53.8062 314.71 53.4763C314.325 53.1464 313.77 52.9814 313.044 52.9814H310.553V56.7095ZM313.209 62.0048C313.957 62.0048 314.54 61.8288 314.958 61.4769C315.376 61.125 315.585 60.6356 315.585 60.0087C315.585 59.3709 315.365 58.8705 314.925 58.5076C314.485 58.1337 313.897 57.9467 313.16 57.9467H310.553V62.0048H313.209Z" fill="white"/>
<path d="M318.608 58.6891C318.608 57.7653 318.795 56.957 319.169 56.2641C319.543 55.5603 320.054 55.0159 320.703 54.631C321.363 54.2461 322.094 54.0537 322.897 54.0537C323.689 54.0537 324.376 54.2241 324.959 54.565C325.542 54.906 325.976 55.3349 326.262 55.8517V54.2021H327.78V63.242H326.262V61.5594C325.965 62.0872 325.52 62.5271 324.926 62.879C324.343 63.22 323.661 63.3904 322.881 63.3904C322.078 63.3904 321.352 63.1925 320.703 62.7966C320.054 62.4007 319.543 61.8453 319.169 61.1305C318.795 60.4156 318.608 59.6018 318.608 58.6891ZM326.262 58.7056C326.262 58.0237 326.125 57.4299 325.85 56.924C325.575 56.4181 325.201 56.0332 324.728 55.7693C324.266 55.4943 323.755 55.3569 323.194 55.3569C322.633 55.3569 322.122 55.4888 321.66 55.7528C321.198 56.0167 320.83 56.4016 320.555 56.9075C320.28 57.4134 320.142 58.0072 320.142 58.6891C320.142 59.3819 320.28 59.9867 320.555 60.5036C320.83 61.0095 321.198 61.3999 321.66 61.6748C322.122 61.9388 322.633 62.0707 323.194 62.0707C323.755 62.0707 324.266 61.9388 324.728 61.6748C325.201 61.3999 325.575 61.0095 325.85 60.5036C326.125 59.9867 326.262 59.3874 326.262 58.7056Z" fill="white"/>
<path d="M334.721 54.0372C335.821 54.0372 336.712 54.3726 337.393 55.0434C338.075 55.7033 338.416 56.66 338.416 57.9137V63.242H336.932V58.1282C336.932 57.2264 336.706 56.5391 336.255 56.0662C335.804 55.5823 335.188 55.3404 334.408 55.3404C333.616 55.3404 332.983 55.5878 332.511 56.0827C332.049 56.5776 331.818 57.2979 331.818 58.2437V63.242H330.317V54.2021H331.818V55.4888C332.115 55.0269 332.516 54.6695 333.022 54.4166C333.539 54.1636 334.105 54.0372 334.721 54.0372Z" fill="white"/>
<path d="M344.596 54.0537C345.377 54.0537 346.059 54.2241 346.642 54.565C347.236 54.906 347.676 55.3349 347.962 55.8517V54.2021H349.479V63.4399C349.479 64.2647 349.303 64.996 348.951 65.6339C348.599 66.2827 348.094 66.7886 347.434 67.1515C346.785 67.5144 346.026 67.6959 345.157 67.6959C343.97 67.6959 342.98 67.4155 342.188 66.8546C341.396 66.2937 340.929 65.5294 340.786 64.5616H342.27C342.435 65.1115 342.776 65.5514 343.293 65.8813C343.81 66.2222 344.431 66.3927 345.157 66.3927C345.982 66.3927 346.653 66.1343 347.17 65.6174C347.698 65.1005 347.962 64.3747 347.962 63.4399V61.5429C347.665 62.0707 347.225 62.5106 346.642 62.8626C346.059 63.2145 345.377 63.3904 344.596 63.3904C343.794 63.3904 343.062 63.1925 342.402 62.7966C341.754 62.4007 341.242 61.8453 340.868 61.1305C340.494 60.4156 340.307 59.6018 340.307 58.6891C340.307 57.7653 340.494 56.957 340.868 56.2641C341.242 55.5603 341.754 55.0159 342.402 54.631C343.062 54.2461 343.794 54.0537 344.596 54.0537ZM347.962 58.7056C347.962 58.0237 347.824 57.4299 347.549 56.924C347.274 56.4181 346.9 56.0332 346.427 55.7693C345.966 55.4943 345.454 55.3569 344.893 55.3569C344.332 55.3569 343.821 55.4888 343.359 55.7528C342.897 56.0167 342.529 56.4016 342.254 56.9075C341.979 57.4134 341.842 58.0072 341.842 58.6891C341.842 59.3819 341.979 59.9867 342.254 60.5036C342.529 61.0095 342.897 61.3999 343.359 61.6748C343.821 61.9388 344.332 62.0707 344.893 62.0707C345.454 62.0707 345.966 61.9388 346.427 61.6748C346.9 61.3999 347.274 61.0095 347.549 60.5036C347.824 59.9867 347.962 59.3874 347.962 58.7056Z" fill="white"/>
<path d="M357.064 63.242L353.517 59.2499V63.242H352.016V51.0349H353.517V58.2107L356.998 54.2021H359.093L354.837 58.7056L359.109 63.242H357.064Z" fill="white"/>
<path d="M364.448 63.3904C363.601 63.3904 362.832 63.198 362.139 62.8131C361.457 62.4282 360.918 61.8838 360.522 61.18C360.137 60.4651 359.945 59.6403 359.945 58.7056C359.945 57.7818 360.143 56.968 360.539 56.2641C360.946 55.5493 361.495 55.0049 362.188 54.631C362.881 54.2461 363.656 54.0537 364.514 54.0537C365.372 54.0537 366.147 54.2461 366.84 54.631C367.533 55.0049 368.077 55.5438 368.473 56.2476C368.88 56.9515 369.084 57.7708 369.084 58.7056C369.084 59.6403 368.875 60.4651 368.457 61.18C368.05 61.8838 367.494 62.4282 366.791 62.8131C366.087 63.198 365.306 63.3904 364.448 63.3904ZM364.448 62.0707C364.987 62.0707 365.493 61.9443 365.966 61.6913C366.439 61.4384 366.818 61.059 367.104 60.5531C367.401 60.0472 367.549 59.4314 367.549 58.7056C367.549 57.9797 367.406 57.3639 367.121 56.858C366.835 56.3521 366.461 55.9782 365.999 55.7363C365.537 55.4833 365.037 55.3569 364.498 55.3569C363.948 55.3569 363.442 55.4833 362.98 55.7363C362.529 55.9782 362.166 56.3521 361.891 56.858C361.616 57.3639 361.479 57.9797 361.479 58.7056C361.479 59.4424 361.611 60.0637 361.875 60.5696C362.15 61.0755 362.513 61.4549 362.964 61.7078C363.414 61.9498 363.909 62.0707 364.448 62.0707Z" fill="white"/>
<path d="M376.105 63.242L372.558 59.2499V63.242H371.057V51.0349H372.558V58.2107L376.039 54.2021H378.134L373.878 58.7056L378.151 63.242H376.105Z" fill="white"/>
<path d="M392.655 55.0764C392.336 54.4056 391.874 53.8887 391.269 53.5258C390.664 53.1519 389.96 52.9649 389.158 52.9649C388.355 52.9649 387.629 53.1519 386.98 53.5258C386.342 53.8887 385.836 54.4166 385.462 55.1094C385.1 55.7913 384.918 56.5831 384.918 57.4848C384.918 58.3866 385.1 59.1784 385.462 59.8603C385.836 60.5421 386.342 61.07 386.98 61.4439C387.629 61.8068 388.355 61.9883 389.158 61.9883C390.279 61.9883 391.203 61.6528 391.929 60.982C392.655 60.3112 393.078 59.4039 393.199 58.2602H388.613V57.0395H394.799V58.1942C394.711 59.1399 394.414 60.0087 393.908 60.8005C393.403 61.5814 392.737 62.2027 391.912 62.6646C391.088 63.1155 390.169 63.3409 389.158 63.3409C388.091 63.3409 387.118 63.0935 386.238 62.5986C385.358 62.0927 384.66 61.3944 384.143 60.5036C383.637 59.6128 383.384 58.6066 383.384 57.4848C383.384 56.3631 383.637 55.3569 384.143 54.4661C384.66 53.5643 385.358 52.866 386.238 52.3711C387.118 51.8652 388.091 51.6123 389.158 51.6123C390.378 51.6123 391.456 51.9147 392.391 52.5195C393.337 53.1244 394.024 53.9767 394.453 55.0764H392.655Z" fill="white"/>
<path d="M398.285 55.6703C398.549 55.1534 398.923 54.752 399.407 54.4661C399.902 54.1801 400.501 54.0372 401.205 54.0372V55.5878H400.809C399.126 55.5878 398.285 56.5006 398.285 58.3261V63.242H396.784V54.2021H398.285V55.6703Z" fill="white"/>
<path d="M402.377 58.6891C402.377 57.7653 402.564 56.957 402.938 56.2641C403.312 55.5603 403.823 55.0159 404.472 54.631C405.132 54.2461 405.863 54.0537 406.666 54.0537C407.458 54.0537 408.145 54.2241 408.728 54.565C409.311 54.906 409.745 55.3349 410.031 55.8517V54.2021H411.549V63.242H410.031V61.5594C409.734 62.0872 409.289 62.5271 408.695 62.879C408.112 63.22 407.43 63.3904 406.649 63.3904C405.847 63.3904 405.121 63.1925 404.472 62.7966C403.823 62.4007 403.312 61.8453 402.938 61.1305C402.564 60.4156 402.377 59.6018 402.377 58.6891ZM410.031 58.7056C410.031 58.0237 409.894 57.4299 409.619 56.924C409.344 56.4181 408.97 56.0332 408.497 55.7693C408.035 55.4943 407.524 55.3569 406.963 55.3569C406.402 55.3569 405.891 55.4888 405.429 55.7528C404.967 56.0167 404.598 56.4016 404.324 56.9075C404.049 57.4134 403.911 58.0072 403.911 58.6891C403.911 59.3819 404.049 59.9867 404.324 60.5036C404.598 61.0095 404.967 61.3999 405.429 61.6748C405.891 61.9388 406.402 62.0707 406.963 62.0707C407.524 62.0707 408.035 61.9388 408.497 61.6748C408.97 61.3999 409.344 61.0095 409.619 60.5036C409.894 59.9867 410.031 59.3874 410.031 58.7056Z" fill="white"/>
<path d="M418.49 54.0372C419.59 54.0372 420.48 54.3726 421.162 55.0434C421.844 55.7033 422.185 56.66 422.185 57.9137V63.242H420.7V58.1282C420.7 57.2264 420.475 56.5391 420.024 56.0662C419.573 55.5823 418.957 55.3404 418.177 55.3404C417.385 55.3404 416.752 55.5878 416.279 56.0827C415.818 56.5776 415.587 57.2979 415.587 58.2437V63.242H414.086V54.2021H415.587V55.4888C415.884 55.0269 416.285 54.6695 416.791 54.4166C417.308 54.1636 417.874 54.0372 418.49 54.0372Z" fill="white"/>
<path d="M424.076 58.6891C424.076 57.7653 424.263 56.957 424.637 56.2641C425.011 55.5603 425.522 55.0159 426.171 54.631C426.831 54.2461 427.568 54.0537 428.382 54.0537C429.086 54.0537 429.74 54.2186 430.345 54.5485C430.95 54.8675 431.412 55.2909 431.73 55.8187V51.0349H433.248V63.242H431.73V61.5429C431.434 62.0817 430.994 62.5271 430.411 62.879C429.828 63.22 429.146 63.3904 428.365 63.3904C427.562 63.3904 426.831 63.1925 426.171 62.7966C425.522 62.4007 425.011 61.8453 424.637 61.1305C424.263 60.4156 424.076 59.6018 424.076 58.6891ZM431.73 58.7056C431.73 58.0237 431.593 57.4299 431.318 56.924C431.043 56.4181 430.669 56.0332 430.196 55.7693C429.734 55.4943 429.223 55.3569 428.662 55.3569C428.101 55.3569 427.59 55.4888 427.128 55.7528C426.666 56.0167 426.298 56.4016 426.023 56.9075C425.748 57.4134 425.61 58.0072 425.61 58.6891C425.61 59.3819 425.748 59.9867 426.023 60.5036C426.298 61.0095 426.666 61.3999 427.128 61.6748C427.59 61.9388 428.101 62.0707 428.662 62.0707C429.223 62.0707 429.734 61.9388 430.196 61.6748C430.669 61.3999 431.043 61.0095 431.318 60.5036C431.593 59.9867 431.73 59.3874 431.73 58.7056Z" fill="white"/>
<path d="M444.033 58.3756C444.033 58.6616 444.016 58.964 443.983 59.2829H436.758C436.813 60.1737 437.116 60.872 437.665 61.3779C438.226 61.8728 438.903 62.1202 439.694 62.1202C440.343 62.1202 440.882 61.9718 441.311 61.6748C441.751 61.3669 442.059 60.96 442.235 60.4541H443.851C443.61 61.3229 443.126 62.0323 442.4 62.5821C441.674 63.121 440.772 63.3904 439.694 63.3904C438.837 63.3904 438.067 63.198 437.385 62.8131C436.714 62.4282 436.186 61.8838 435.801 61.18C435.417 60.4651 435.224 59.6403 435.224 58.7056C435.224 57.7708 435.411 56.9515 435.785 56.2476C436.159 55.5438 436.681 55.0049 437.352 54.631C438.034 54.2461 438.815 54.0537 439.694 54.0537C440.552 54.0537 441.311 54.2406 441.971 54.6145C442.631 54.9884 443.137 55.5053 443.489 56.1652C443.851 56.814 444.033 57.5508 444.033 58.3756ZM442.482 58.0622C442.482 57.4903 442.356 57.001 442.103 56.5941C441.85 56.1762 441.504 55.8627 441.064 55.6538C440.635 55.4338 440.156 55.3239 439.628 55.3239C438.87 55.3239 438.221 55.5658 437.682 56.0497C437.154 56.5336 436.852 57.2044 436.775 58.0622H442.482Z" fill="white"/>
<path d="M454.058 63.3574C453.299 63.3574 452.617 63.2255 452.012 62.9615C451.419 62.6866 450.951 62.3127 450.61 61.8398C450.269 61.3559 450.093 60.8005 450.082 60.1737H451.682C451.737 60.7126 451.957 61.169 452.342 61.5429C452.738 61.9058 453.31 62.0872 454.058 62.0872C454.773 62.0872 455.334 61.9113 455.74 61.5594C456.158 61.1965 456.367 60.7346 456.367 60.1737C456.367 59.7338 456.246 59.3764 456.004 59.1015C455.762 58.8265 455.46 58.6176 455.097 58.4746C454.734 58.3316 454.245 58.1777 453.629 58.0127C452.87 57.8148 452.26 57.6168 451.798 57.4189C451.347 57.2209 450.957 56.913 450.627 56.4951C450.308 56.0662 450.148 55.4943 450.148 54.7795C450.148 54.1526 450.308 53.5973 450.627 53.1134C450.946 52.6295 451.391 52.2556 451.963 51.9917C452.546 51.7277 453.211 51.5958 453.959 51.5958C455.037 51.5958 455.916 51.8652 456.598 52.4041C457.291 52.9429 457.682 53.6578 457.769 54.5485H456.12C456.065 54.1087 455.834 53.7237 455.427 53.3938C455.02 53.0529 454.481 52.8824 453.81 52.8824C453.184 52.8824 452.672 53.0474 452.276 53.3773C451.88 53.6963 451.682 54.1471 451.682 54.73C451.682 55.1479 451.798 55.4888 452.029 55.7528C452.271 56.0167 452.562 56.2201 452.903 56.3631C453.255 56.4951 453.744 56.649 454.371 56.825C455.13 57.034 455.74 57.2429 456.202 57.4519C456.664 57.6498 457.06 57.9632 457.39 58.3921C457.72 58.81 457.885 59.3819 457.885 60.1077C457.885 60.6686 457.736 61.1965 457.44 61.6913C457.143 62.1862 456.703 62.5876 456.12 62.8955C455.537 63.2035 454.85 63.3574 454.058 63.3574Z" fill="white"/>
<path d="M468.111 54.2021V63.242H466.61V61.9058C466.324 62.3677 465.923 62.7306 465.406 62.9945C464.9 63.2475 464.339 63.3739 463.723 63.3739C463.019 63.3739 462.387 63.231 461.826 62.945C461.265 62.6481 460.82 62.2082 460.49 61.6254C460.171 61.0425 460.012 60.3332 460.012 59.4974V54.2021H461.496V59.2994C461.496 60.1902 461.722 60.8775 462.173 61.3614C462.623 61.8343 463.239 62.0707 464.02 62.0707C464.823 62.0707 465.455 61.8233 465.917 61.3284C466.379 60.8335 466.61 60.1132 466.61 59.1674V54.2021H468.111Z" fill="white"/>
<path d="M475.693 63.242L472.147 59.2499V63.242H470.646V51.0349H472.147V58.2107L475.627 54.2021H477.722L473.466 58.7056L477.739 63.242H475.693Z" fill="white"/>
<path d="M483.622 54.0372C484.304 54.0372 484.92 54.1856 485.47 54.4826C486.02 54.7685 486.449 55.2029 486.757 55.7858C487.075 56.3686 487.235 57.0779 487.235 57.9137V63.242H485.75V58.1282C485.75 57.2264 485.525 56.5391 485.074 56.0662C484.623 55.5823 484.007 55.3404 483.226 55.3404C482.435 55.3404 481.802 55.5878 481.329 56.0827C480.867 56.5776 480.636 57.2979 480.636 58.2437V63.242H479.135V51.0349H480.636V55.4888C480.933 55.0269 481.34 54.6695 481.857 54.4166C482.385 54.1636 482.973 54.0372 483.622 54.0372Z" fill="white"/>
<path d="M497.704 54.2021V63.242H496.203V61.9058C495.917 62.3677 495.516 62.7306 494.999 62.9945C494.493 63.2475 493.932 63.3739 493.316 63.3739C492.612 63.3739 491.98 63.231 491.419 62.945C490.858 62.6481 490.413 62.2082 490.083 61.6254C489.764 61.0425 489.605 60.3332 489.605 59.4974V54.2021H491.089V59.2994C491.089 60.1902 491.315 60.8775 491.766 61.3614C492.216 61.8343 492.832 62.0707 493.613 62.0707C494.416 62.0707 495.048 61.8233 495.51 61.3284C495.972 60.8335 496.203 60.1132 496.203 59.1674V54.2021H497.704Z" fill="white"/>
<path d="M511.11 54.0372C511.813 54.0372 512.44 54.1856 512.99 54.4826C513.54 54.7685 513.974 55.2029 514.293 55.7858C514.612 56.3686 514.772 57.0779 514.772 57.9137V63.242H513.287V58.1282C513.287 57.2264 513.062 56.5391 512.611 56.0662C512.171 55.5823 511.571 55.3404 510.813 55.3404C510.032 55.3404 509.41 55.5933 508.949 56.0992C508.487 56.5941 508.256 57.3144 508.256 58.2602V63.242H506.771V58.1282C506.771 57.2264 506.546 56.5391 506.095 56.0662C505.655 55.5823 505.056 55.3404 504.297 55.3404C503.516 55.3404 502.895 55.5933 502.433 56.0992C501.971 56.5941 501.74 57.3144 501.74 58.2602V63.242H500.239V54.2021H501.74V55.5053C502.037 55.0324 502.433 54.6695 502.927 54.4166C503.433 54.1636 503.989 54.0372 504.594 54.0372C505.352 54.0372 506.023 54.2076 506.606 54.5485C507.189 54.8895 507.623 55.3898 507.909 56.0497C508.162 55.4118 508.58 54.917 509.163 54.565C509.746 54.2131 510.395 54.0372 511.11 54.0372Z" fill="white"/>
<path d="M520.599 61.8563L523.404 54.2021H525.004L521.457 63.242H519.708L516.162 54.2021H517.778L520.599 61.8563Z" fill="white"/>
<path d="M527.256 52.734C526.97 52.734 526.728 52.635 526.53 52.4371C526.332 52.2391 526.233 51.9972 526.233 51.7112C526.233 51.4253 526.332 51.1834 526.53 50.9854C526.728 50.7875 526.97 50.6885 527.256 50.6885C527.531 50.6885 527.762 50.7875 527.949 50.9854C528.147 51.1834 528.246 51.4253 528.246 51.7112C528.246 51.9972 528.147 52.2391 527.949 52.4371C527.762 52.635 527.531 52.734 527.256 52.734ZM527.982 54.2021V63.242H526.481V54.2021H527.982Z" fill="white"/>
<path d="M532.372 55.4393V60.7676C532.372 61.2075 532.465 61.5209 532.652 61.7078C532.839 61.8838 533.163 61.9718 533.625 61.9718H534.73V63.242H533.378C532.542 63.242 531.915 63.0495 531.497 62.6646C531.079 62.2797 530.87 61.6473 530.87 60.7676V55.4393H529.699V54.2021H530.87V51.9257H532.372V54.2021H534.73V55.4393H532.372Z" fill="white"/>
<path d="M215.473 12.5033C215.473 11.8025 216.041 11.2344 216.742 11.2344C217.443 11.2344 218.011 11.8025 218.011 12.5033V68.8133C218.011 69.5141 217.443 70.0822 216.742 70.0822C216.041 70.0822 215.473 69.5141 215.473 68.8133V12.5033Z" fill="#0CC553"/>
<defs>
<linearGradient id="paint0_linear_1_75" x1="237.01" y1="-173.233" x2="625.342" y2="-155.784" gradientUnits="userSpaceOnUse">
<stop stop-color="#14DB60"/>
<stop offset="1" stop-color="#AAFFCB"/>
</linearGradient>
<linearGradient id="paint1_linear_1_75" x1="237.01" y1="-173.233" x2="625.342" y2="-155.784" gradientUnits="userSpaceOnUse">
<stop stop-color="#14DB60"/>
<stop offset="1" stop-color="#AAFFCB"/>
</linearGradient>
<linearGradient id="paint2_linear_1_75" x1="237.01" y1="-173.233" x2="625.342" y2="-155.784" gradientUnits="userSpaceOnUse">
<stop stop-color="#14DB60"/>
<stop offset="1" stop-color="#AAFFCB"/>
</linearGradient>
<linearGradient id="paint3_linear_1_75" x1="237.01" y1="-173.233" x2="625.342" y2="-155.784" gradientUnits="userSpaceOnUse">
<stop stop-color="#14DB60"/>
<stop offset="1" stop-color="#AAFFCB"/>
</linearGradient>
<linearGradient id="paint4_linear_1_75" x1="237.01" y1="-173.233" x2="625.342" y2="-155.784" gradientUnits="userSpaceOnUse">
<stop stop-color="#14DB60"/>
<stop offset="1" stop-color="#AAFFCB"/>
</linearGradient>
<linearGradient id="paint5_linear_1_75" x1="237.01" y1="-173.233" x2="625.342" y2="-155.784" gradientUnits="userSpaceOnUse">
<stop stop-color="#14DB60"/>
<stop offset="1" stop-color="#AAFFCB"/>
</linearGradient>
<linearGradient id="paint6_linear_1_75" x1="237.01" y1="-173.233" x2="625.342" y2="-155.784" gradientUnits="userSpaceOnUse">
<stop stop-color="#14DB60"/>
<stop offset="1" stop-color="#AAFFCB"/>
</linearGradient>
<linearGradient id="paint7_linear_1_75" x1="237.01" y1="-173.233" x2="625.342" y2="-155.784" gradientUnits="userSpaceOnUse">
<stop stop-color="#14DB60"/>
<stop offset="1" stop-color="#AAFFCB"/>
</linearGradient>
<linearGradient id="paint8_linear_1_75" x1="237.01" y1="-173.233" x2="625.342" y2="-155.784" gradientUnits="userSpaceOnUse">
<stop stop-color="#14DB60"/>
<stop offset="1" stop-color="#AAFFCB"/>
</linearGradient>
<linearGradient id="paint9_linear_1_75" x1="237.01" y1="-173.233" x2="625.342" y2="-155.784" gradientUnits="userSpaceOnUse">
<stop stop-color="#14DB60"/>
<stop offset="1" stop-color="#AAFFCB"/>
</linearGradient>
<linearGradient id="paint10_linear_1_75" x1="237.01" y1="-173.233" x2="625.342" y2="-155.784" gradientUnits="userSpaceOnUse">
<stop stop-color="#14DB60"/>
<stop offset="1" stop-color="#AAFFCB"/>
</linearGradient>
<linearGradient id="paint11_linear_1_75" x1="237.01" y1="-173.233" x2="625.342" y2="-155.784" gradientUnits="userSpaceOnUse">
<stop stop-color="#14DB60"/>
<stop offset="1" stop-color="#AAFFCB"/>
</linearGradient>
<linearGradient id="paint12_linear_1_75" x1="237.01" y1="-173.233" x2="625.342" y2="-155.784" gradientUnits="userSpaceOnUse">
<stop stop-color="#14DB60"/>
<stop offset="1" stop-color="#AAFFCB"/>
</linearGradient>
<linearGradient id="paint13_linear_1_75" x1="237.01" y1="-173.233" x2="625.342" y2="-155.784" gradientUnits="userSpaceOnUse">
<stop stop-color="#14DB60"/>
<stop offset="1" stop-color="#AAFFCB"/>
</linearGradient>
<linearGradient id="paint14_linear_1_75" x1="237.01" y1="-173.233" x2="625.342" y2="-155.784" gradientUnits="userSpaceOnUse">
<stop stop-color="#14DB60"/>
<stop offset="1" stop-color="#AAFFCB"/>
</linearGradient>
<linearGradient id="paint15_linear_1_75" x1="237.01" y1="-173.233" x2="625.342" y2="-155.784" gradientUnits="userSpaceOnUse">
<stop stop-color="#14DB60"/>
<stop offset="1" stop-color="#AAFFCB"/>
</linearGradient>
<linearGradient id="paint16_linear_1_75" x1="237.01" y1="-173.233" x2="625.342" y2="-155.784" gradientUnits="userSpaceOnUse">
<stop stop-color="#14DB60"/>
<stop offset="1" stop-color="#AAFFCB"/>
</linearGradient>
<linearGradient id="paint17_linear_1_75" x1="237.01" y1="-173.233" x2="625.342" y2="-155.784" gradientUnits="userSpaceOnUse">
<stop stop-color="#14DB60"/>
<stop offset="1" stop-color="#AAFFCB"/>
</linearGradient>
<linearGradient id="paint18_linear_1_75" x1="237.01" y1="-173.233" x2="625.342" y2="-155.784" gradientUnits="userSpaceOnUse">
<stop stop-color="#14DB60"/>
<stop offset="1" stop-color="#AAFFCB"/>
</linearGradient>
<linearGradient id="paint19_linear_1_75" x1="237.01" y1="-173.233" x2="625.342" y2="-155.784" gradientUnits="userSpaceOnUse">
<stop stop-color="#14DB60"/>
<stop offset="1" stop-color="#AAFFCB"/>
</linearGradient>
<linearGradient id="paint20_linear_1_75" x1="237.01" y1="-173.233" x2="625.342" y2="-155.784" gradientUnits="userSpaceOnUse">
<stop stop-color="#14DB60"/>
<stop offset="1" stop-color="#AAFFCB"/>
</linearGradient>
<linearGradient id="paint21_linear_1_75" x1="237.01" y1="-173.233" x2="625.342" y2="-155.784" gradientUnits="userSpaceOnUse">
<stop stop-color="#14DB60"/>
<stop offset="1" stop-color="#AAFFCB"/>
</linearGradient>
<linearGradient id="paint22_linear_1_75" x1="237.01" y1="-173.233" x2="625.342" y2="-155.784" gradientUnits="userSpaceOnUse">
<stop stop-color="#14DB60"/>
<stop offset="1" stop-color="#AAFFCB"/>
</linearGradient>
</defs>
</svg>
