<svg width="215" height="28" viewBox="0 0 215 28" fill="none" xmlns="http://www.w3.org/2000/svg">
<path d="M4.77493 27.2336C3.28427 27.2336 2.1316 26.8783 1.31693 26.1676C0.5196 25.457 0.120934 24.4603 0.120934 23.1776C0.120934 21.791 0.614934 20.6816 1.60293 19.8496C2.60827 19.0176 4.1856 18.515 6.33493 18.3416L9.03893 18.1336V17.7176C9.03893 16.8856 8.8136 16.2876 8.36293 15.9236C7.91227 15.5596 7.21893 15.3776 6.28293 15.3776C5.3816 15.3776 4.4976 15.5163 3.63093 15.7936C2.7816 16.0536 2.04493 16.3656 1.42093 16.7296V13.5056C1.9236 13.263 2.63427 13.0203 3.55293 12.7776C4.4716 12.5176 5.52893 12.3876 6.72493 12.3876C7.34893 12.3876 7.93827 12.4396 8.49293 12.5436C9.0476 12.6303 9.52427 12.8036 9.92293 13.0636C10.3389 12.717 10.5556 12.2923 10.5729 11.7896H13.9789C13.9789 12.4136 13.8316 13.003 13.5369 13.5576C13.2423 14.1123 12.7743 14.5803 12.1329 14.9616C12.3929 15.3083 12.5749 15.7243 12.6789 16.2096C12.8003 16.695 12.8609 17.2496 12.8609 17.8736V26.9736H9.03893V20.9416L6.77693 21.1756C5.73693 21.2796 5.00893 21.4876 4.59293 21.7996C4.19427 22.1116 3.99493 22.5276 3.99493 23.0476C3.99493 23.5676 4.1596 23.9576 4.48893 24.2176C4.81827 24.4776 5.26027 24.6076 5.81493 24.6076C6.02293 24.6076 6.23093 24.5903 6.43893 24.5556C6.64693 24.5036 6.8376 24.4516 7.01093 24.3996L7.34893 26.8436C7.0196 26.965 6.6296 27.0603 6.17893 27.1296C5.72827 27.199 5.26027 27.2336 4.77493 27.2336ZM10.7393 11.3216C9.75129 11.3216 8.96263 11.0963 8.37329 10.6456C7.78396 10.195 7.48929 9.5623 7.48929 8.74763C7.48929 7.93297 7.78396 7.3003 8.37329 6.84963C8.96263 6.39897 9.75129 6.17363 10.7393 6.17363C11.7273 6.17363 12.5246 6.39897 13.1313 6.84963C13.7206 7.3003 14.0153 7.93297 14.0153 8.74763C14.0153 9.5623 13.7206 10.195 13.1313 10.6456C12.5246 11.0963 11.7273 11.3216 10.7393 11.3216ZM10.7393 9.81363C11.1206 9.81363 11.4153 9.7183 11.6233 9.52763C11.8313 9.33697 11.9353 9.07697 11.9353 8.74763C11.9353 8.4183 11.8313 8.1583 11.6233 7.96763C11.4153 7.77697 11.1206 7.68163 10.7393 7.68163C10.3753 7.68163 10.0893 7.77697 9.88129 7.96763C9.67329 8.1583 9.56929 8.4183 9.56929 8.74763C9.56929 9.07697 9.67329 9.33697 9.88129 9.52763C10.0893 9.7183 10.3753 9.81363 10.7393 9.81363ZM21.3776 26.9736V17.5616C21.3776 16.8336 21.2042 16.305 20.8576 15.9756C20.5282 15.6463 19.9822 15.4816 19.2196 15.4816C18.6476 15.4816 18.1189 15.5596 17.6336 15.7156C17.1656 15.8716 16.7236 16.0623 16.3076 16.2876V13.1676C16.6889 12.9943 17.2262 12.821 17.9196 12.6476C18.6129 12.4743 19.4276 12.3876 20.3636 12.3876C21.3169 12.3876 22.1576 12.5263 22.8856 12.8036C23.6309 13.081 24.2116 13.549 24.6276 14.2076C25.0609 14.849 25.2776 15.733 25.2776 16.8596V26.9736H21.3776ZM34.3144 27.3116C33.2917 27.3116 32.2604 27.199 31.2204 26.9736C30.1977 26.7483 29.2877 26.4276 28.4904 26.0116L29.5824 22.9176C30.1024 23.195 30.7697 23.4896 31.5844 23.8016C32.3991 24.0963 33.2571 24.2436 34.1584 24.2436C35.5624 24.2436 36.2644 23.8363 36.2644 23.0216C36.2644 22.571 35.9957 22.2243 35.4584 21.9816C34.9384 21.7216 34.2104 21.427 33.2744 21.0976C32.3557 20.7856 31.5671 20.439 30.9084 20.0576C30.2497 19.6763 29.7384 19.2083 29.3744 18.6536C29.0277 18.099 28.8544 17.397 28.8544 16.5476C28.8544 15.1263 29.3831 14.0776 30.4404 13.4016C31.5151 12.7256 32.9451 12.3876 34.7304 12.3876C35.7011 12.3876 36.5764 12.4743 37.3564 12.6476C38.1364 12.8036 38.7431 12.9943 39.1764 13.2196V16.2876C38.7257 16.0796 38.0844 15.8803 37.2524 15.6896C36.4377 15.4816 35.6577 15.3776 34.9124 15.3776C33.4737 15.3776 32.7544 15.7416 32.7544 16.4696C32.7544 16.8856 33.0317 17.215 33.5864 17.4576C34.1584 17.683 34.9557 17.969 35.9784 18.3156C37.3304 18.7836 38.3617 19.347 39.0724 20.0056C39.8004 20.6643 40.1644 21.6003 40.1644 22.8136C40.1644 23.5936 39.9824 24.3303 39.6184 25.0236C39.2717 25.6996 38.6737 26.2543 37.8244 26.6876C36.9751 27.1036 35.8051 27.3116 34.3144 27.3116ZM49.0714 27.3116C46.9568 27.3116 45.3881 26.8003 44.3654 25.7776C43.3428 24.7376 42.8314 23.2036 42.8314 21.1756C42.8314 20.8463 42.8401 20.4303 42.8574 19.9276C42.8921 19.425 42.9354 18.983 42.9874 18.6016H49.2274V21.0716H46.6534V21.4356C46.6534 22.4756 46.8441 23.2383 47.2254 23.7236C47.6241 24.1916 48.2308 24.4256 49.0454 24.4256C49.9121 24.4256 50.5881 24.1223 51.0734 23.5156C51.5588 22.909 51.8014 21.7823 51.8014 20.1356C51.8014 18.593 51.5241 17.4403 50.9694 16.6776C50.4321 15.8976 49.4528 15.5076 48.0314 15.5076C47.2514 15.5076 46.4454 15.629 45.6134 15.8716C44.7814 16.1143 44.0968 16.383 43.5594 16.6776V13.4276C44.1141 13.133 44.8768 12.8903 45.8474 12.6996C46.8181 12.4916 47.7888 12.3876 48.7594 12.3876C50.4408 12.3876 51.7928 12.6996 52.8154 13.3236C53.8554 13.9303 54.6094 14.797 55.0774 15.9236C55.5628 17.0503 55.8054 18.385 55.8054 19.9276C55.8054 22.3023 55.2768 24.131 54.2194 25.4136C53.1621 26.679 51.4461 27.3116 49.0714 27.3116ZM61.7795 26.9736L57.6455 12.7256H61.5715L64.7175 23.8276H64.8735C65.1509 23.8276 65.4022 23.7496 65.6275 23.5936C65.8702 23.4376 66.0869 23.2296 66.2775 22.9696C66.6069 22.4843 66.8582 21.9123 67.0315 21.2536C67.2222 20.5776 67.3175 19.9103 67.3175 19.2516C67.3175 18.0903 67.0922 17.1976 66.6415 16.5736C66.2082 15.9496 65.6015 15.6376 64.8215 15.6376C64.6655 15.6376 64.5182 15.6463 64.3795 15.6636C64.2582 15.681 64.1455 15.7156 64.0415 15.7676L63.3135 12.7776C63.7122 12.6563 64.0849 12.587 64.4315 12.5696C64.7782 12.535 65.0729 12.5176 65.3155 12.5176C66.2342 12.5176 67.0315 12.639 67.7075 12.8816C68.3835 13.1243 68.9642 13.4883 69.4495 13.9736C70.6629 15.187 71.2695 16.9203 71.2695 19.1736C71.2695 20.5776 71.0442 21.8083 70.5935 22.8656C70.1602 23.9056 69.6315 24.729 69.0075 25.3356C68.4875 25.8383 67.8289 26.237 67.0315 26.5316C66.2515 26.8263 65.1769 26.9736 63.8075 26.9736H61.7795ZM74.891 26.9736V12.7256H77.751L78.271 14.9616H78.479C78.7737 14.251 79.285 13.6616 80.013 13.1936C80.741 12.7083 81.6857 12.4656 82.847 12.4656C86.1577 12.4656 87.813 14.2423 87.813 17.7956V26.9736H83.913V18.5756C83.913 17.605 83.7137 16.9116 83.315 16.4956C82.9337 16.0623 82.3704 15.8456 81.625 15.8456C80.7237 15.8456 80.0217 16.2096 79.519 16.9376C79.0337 17.6656 78.791 18.7403 78.791 20.1616V26.9736H74.891ZM75.7732 10.7496V9.11163L78.3992 8.01963H84.3532V6.22563H87.6812V10.7496H75.7732ZM84.8472 4.84763V0.0116313H88.2272V4.84763H84.8472ZM97.8635 27.2336C96.2861 27.2336 95.0815 26.7743 94.2495 25.8556C93.4175 24.937 93.0015 23.585 93.0015 21.7996V12.7256H96.9015V21.1236C96.9015 22.077 97.0921 22.7703 97.4735 23.2036C97.8548 23.637 98.4095 23.8536 99.1375 23.8536C100.056 23.8536 100.767 23.507 101.269 22.8136C101.772 22.1203 102.023 21.0283 102.023 19.5376V12.7256H105.923V26.9736H102.959L102.543 24.7896H102.309C102.015 25.483 101.503 26.0636 100.775 26.5316C100.065 26.9996 99.0941 27.2336 97.8635 27.2336ZM102.66 10.7496C101.845 10.7496 101.204 10.6283 100.736 10.3856C100.268 10.143 99.9387 9.83963 99.7481 9.47563C99.5401 9.0943 99.4361 8.69563 99.4361 8.27963C99.4361 7.62097 99.6094 6.9883 99.9561 6.38163L102.79 6.74563C102.703 7.00563 102.66 7.2483 102.66 7.47363C102.66 7.7163 102.738 7.90696 102.894 8.04563C103.033 8.16697 103.275 8.22763 103.622 8.22763H109.212V10.7496H102.66ZM103.927 5.84763V1.01163H107.307V5.84763H103.927ZM113.814 26.9736L109.68 12.7256H113.606L116.752 23.8276H116.908C117.185 23.8276 117.437 23.7496 117.662 23.5936C117.905 23.4376 118.121 23.2296 118.312 22.9696C118.641 22.4843 118.893 21.9123 119.066 21.2536C119.257 20.5776 119.352 19.9103 119.352 19.2516C119.352 18.0903 119.127 17.1976 118.676 16.5736C118.243 15.9496 117.636 15.6376 116.856 15.6376C116.7 15.6376 116.553 15.6463 116.414 15.6636C116.293 15.681 116.18 15.7156 116.076 15.7676L115.348 12.7776C115.747 12.6563 116.119 12.587 116.466 12.5696C116.813 12.535 117.107 12.5176 117.35 12.5176C118.269 12.5176 119.066 12.639 119.742 12.8816C120.418 13.1243 120.999 13.4883 121.484 13.9736C122.697 15.187 123.304 16.9203 123.304 19.1736C123.304 20.5776 123.079 21.8083 122.628 22.8656C122.195 23.9056 121.666 24.729 121.042 25.3356C120.522 25.8383 119.863 26.237 119.066 26.5316C118.286 26.8263 117.211 26.9736 115.842 26.9736H113.814ZM130.592 27.2336C129.101 27.2336 127.948 26.8783 127.134 26.1676C126.336 25.457 125.938 24.4603 125.938 23.1776C125.938 21.791 126.432 20.6816 127.42 19.8496C128.425 19.0176 130.002 18.515 132.152 18.3416L134.856 18.1336V17.7176C134.856 16.8856 134.63 16.2876 134.18 15.9236C133.729 15.5596 133.036 15.3776 132.1 15.3776C131.198 15.3776 130.314 15.5163 129.448 15.7936C128.598 16.0536 127.862 16.3656 127.238 16.7296V13.5056C127.74 13.263 128.451 13.0203 129.37 12.7776C130.288 12.5176 131.354 12.3876 132.568 12.3876C133.746 12.3876 134.795 12.561 135.714 12.9076C136.632 13.237 137.352 13.8003 137.872 14.5976C138.409 15.395 138.678 16.487 138.678 17.8736V26.9736H134.856V20.9416L132.594 21.1756C131.554 21.2796 130.826 21.4876 130.41 21.7996C130.011 22.1116 129.812 22.5276 129.812 23.0476C129.812 23.5676 129.976 23.9576 130.306 24.2176C130.635 24.4776 131.077 24.6076 131.632 24.6076C131.84 24.6076 132.048 24.5903 132.256 24.5556C132.464 24.5036 132.654 24.4516 132.828 24.3996L133.166 26.8436C132.836 26.965 132.446 27.0603 131.996 27.1296C131.545 27.199 131.077 27.2336 130.592 27.2336ZM135.185 10.7496V4.84763H138.773V10.7496H135.185ZM147.144 27.3116C146.26 27.3116 145.428 27.2076 144.648 26.9996C143.868 26.809 143.14 26.5316 142.464 26.1676L143.504 23.3336C143.885 23.559 144.345 23.7583 144.882 23.9316C145.419 24.105 145.948 24.1916 146.468 24.1916C147.439 24.1916 148.21 23.8276 148.782 23.0996C149.354 22.3543 149.64 21.245 149.64 19.7716C149.64 18.4023 149.354 17.3536 148.782 16.6256C148.21 15.8803 147.317 15.5076 146.104 15.5076C145.532 15.5076 144.943 15.5943 144.336 15.7676C143.729 15.9236 143.227 16.123 142.828 16.3656V13.1676C143.365 12.925 143.972 12.7343 144.648 12.5956C145.324 12.457 146.043 12.3876 146.806 12.3876C149.198 12.3876 150.931 13.0463 152.006 14.3636C153.081 15.6636 153.618 17.4663 153.618 19.7716C153.618 22.2503 153.055 24.131 151.928 25.4136C150.801 26.679 149.207 27.3116 147.144 27.3116ZM159.668 26.9736L155.534 12.7256H159.46L162.606 23.8276H162.762C163.039 23.8276 163.29 23.7496 163.516 23.5936C163.758 23.4376 163.975 23.2296 164.166 22.9696C164.495 22.4843 164.746 21.9123 164.92 21.2536C165.11 20.5776 165.206 19.9103 165.206 19.2516C165.206 18.0903 164.98 17.1976 164.53 16.5736C164.096 15.9496 163.49 15.6376 162.71 15.6376C162.554 15.6376 162.406 15.6463 162.268 15.6636C162.146 15.681 162.034 15.7156 161.93 15.7676L161.202 12.7776C161.6 12.6563 161.973 12.587 162.32 12.5696C162.666 12.535 162.961 12.5176 163.204 12.5176C164.122 12.5176 164.92 12.639 165.596 12.8816C166.272 13.1243 166.852 13.4883 167.338 13.9736C168.551 15.187 169.158 16.9203 169.158 19.1736C169.158 20.5776 168.932 21.8083 168.482 22.8656C168.048 23.9056 167.52 24.729 166.896 25.3356C166.376 25.8383 165.717 26.237 164.92 26.5316C164.14 26.8263 163.065 26.9736 161.696 26.9736H159.668ZM172.831 26.9736V12.7256H176.679V18.0556H176.783L181.203 12.7256H185.493V12.8556L181.723 17.0416C182.954 17.2323 183.881 17.7523 184.505 18.6016C185.129 19.451 185.441 20.4736 185.441 21.6696V26.9736H181.541V22.2676C181.541 21.4876 181.35 20.8983 180.969 20.4996C180.588 20.0836 180.033 19.8236 179.305 19.7196L176.679 22.6316V26.9736H172.831ZM194.153 27.2336C192.576 27.2336 191.371 26.7743 190.539 25.8556C189.707 24.937 189.291 23.585 189.291 21.7996V12.7256H193.191V21.1236C193.191 22.077 193.382 22.7703 193.763 23.2036C194.144 23.637 194.699 23.8536 195.427 23.8536C196.346 23.8536 197.056 23.507 197.559 22.8136C198.062 22.1203 198.313 21.0283 198.313 19.5376V12.7256H202.213V26.9736H199.249L198.833 24.7896H198.599C198.304 25.483 197.793 26.0636 197.065 26.5316C196.354 26.9996 195.384 27.2336 194.153 27.2336ZM194.893 10.7756V9.47563C195.119 9.4063 195.387 9.31097 195.699 9.18963C195.994 9.0683 196.254 8.9123 196.479 8.72163C196.705 8.51363 196.817 8.24496 196.817 7.91563C196.817 7.67297 196.748 7.4823 196.609 7.34363C196.471 7.20497 196.297 7.13563 196.089 7.13563C195.951 7.13563 195.803 7.16163 195.647 7.21363C195.491 7.26563 195.353 7.31763 195.231 7.36963L194.737 5.62763C195.084 5.33296 195.517 5.1423 196.037 5.05563C196.54 4.95163 196.965 4.89963 197.311 4.89963C198.091 4.89963 198.707 5.0903 199.157 5.47163C199.591 5.83563 199.807 6.3643 199.807 7.05763C199.807 7.5083 199.677 7.90697 199.417 8.25363H203.395V10.7756H194.893ZM210.909 26.9736V17.5616C210.909 16.8336 210.736 16.305 210.389 15.9756C210.06 15.6463 209.514 15.4816 208.751 15.4816C208.179 15.4816 207.651 15.5596 207.165 15.7156C206.697 15.8716 206.255 16.0623 205.839 16.2876V13.1676C206.221 12.9943 206.758 12.821 207.451 12.6476C208.145 12.4743 208.959 12.3876 209.895 12.3876C210.849 12.3876 211.689 12.5263 212.417 12.8036C213.163 13.081 213.743 13.549 214.159 14.2076C214.593 14.849 214.809 15.733 214.809 16.8596V26.9736H210.909Z" fill="white"/>
</svg>
