<svg width="370" height="31" viewBox="0 0 370 31" fill="none" xmlns="http://www.w3.org/2000/svg">
<path d="M5.77493 27.2336C4.28427 27.2336 3.1316 26.8783 2.31693 26.1676C1.5196 25.457 1.12093 24.4603 1.12093 23.1776C1.12093 21.791 1.61493 20.6816 2.60293 19.8496C3.60827 19.0176 5.1856 18.515 7.33493 18.3416L10.0389 18.1336V17.7176C10.0389 16.8856 9.8136 16.2876 9.36293 15.9236C8.91227 15.5596 8.21893 15.3776 7.28293 15.3776C6.3816 15.3776 5.4976 15.5163 4.63093 15.7936C3.7816 16.0536 3.04493 16.3656 2.42093 16.7296V13.5056C2.9236 13.263 3.63427 13.0203 4.55293 12.7776C5.4716 12.5176 6.52893 12.3876 7.72493 12.3876C8.34893 12.3876 8.93827 12.4396 9.49293 12.5436C10.0476 12.6303 10.5243 12.8036 10.9229 13.0636C11.3389 12.717 11.5556 12.2923 11.5729 11.7896H14.9789C14.9789 12.4136 14.8316 13.003 14.5369 13.5576C14.2423 14.1123 13.7743 14.5803 13.1329 14.9616C13.3929 15.3083 13.5749 15.7243 13.6789 16.2096C13.8003 16.695 13.8609 17.2496 13.8609 17.8736V26.9736H10.0389V20.9416L7.77693 21.1756C6.73693 21.2796 6.00893 21.4876 5.59293 21.7996C5.19427 22.1116 4.99493 22.5276 4.99493 23.0476C4.99493 23.5676 5.1596 23.9576 5.48893 24.2176C5.81827 24.4776 6.26027 24.6076 6.81493 24.6076C7.02293 24.6076 7.23093 24.5903 7.43893 24.5556C7.64693 24.5036 7.8376 24.4516 8.01093 24.3996L8.34893 26.8436C8.0196 26.965 7.6296 27.0603 7.17893 27.1296C6.72827 27.199 6.26027 27.2336 5.77493 27.2336ZM11.7393 11.3216C10.7513 11.3216 9.96263 11.0963 9.37329 10.6456C8.78396 10.195 8.48929 9.5623 8.48929 8.74763C8.48929 7.93297 8.78396 7.3003 9.37329 6.84963C9.96263 6.39897 10.7513 6.17363 11.7393 6.17363C12.7273 6.17363 13.5246 6.39897 14.1313 6.84963C14.7206 7.3003 15.0153 7.93297 15.0153 8.74763C15.0153 9.5623 14.7206 10.195 14.1313 10.6456C13.5246 11.0963 12.7273 11.3216 11.7393 11.3216ZM11.7393 9.81363C12.1206 9.81363 12.4153 9.7183 12.6233 9.52763C12.8313 9.33697 12.9353 9.07697 12.9353 8.74763C12.9353 8.4183 12.8313 8.1583 12.6233 7.96763C12.4153 7.77697 12.1206 7.68163 11.7393 7.68163C11.3753 7.68163 11.0893 7.77697 10.8813 7.96763C10.6733 8.1583 10.5693 8.4183 10.5693 8.74763C10.5693 9.07697 10.6733 9.33697 10.8813 9.52763C11.0893 9.7183 11.3753 9.81363 11.7393 9.81363ZM22.3776 26.9736V17.5616C22.3776 16.8336 22.2042 16.305 21.8576 15.9756C21.5282 15.6463 20.9822 15.4816 20.2196 15.4816C19.6476 15.4816 19.1189 15.5596 18.6336 15.7156C18.1656 15.8716 17.7236 16.0623 17.3076 16.2876V13.1676C17.6889 12.9943 18.2262 12.821 18.9196 12.6476C19.6129 12.4743 20.4276 12.3876 21.3636 12.3876C22.3169 12.3876 23.1576 12.5263 23.8856 12.8036C24.6309 13.081 25.2116 13.549 25.6276 14.2076C26.0609 14.849 26.2776 15.733 26.2776 16.8596V26.9736H22.3776ZM35.3144 27.3116C34.2917 27.3116 33.2604 27.199 32.2204 26.9736C31.1977 26.7483 30.2877 26.4276 29.4904 26.0116L30.5824 22.9176C31.1024 23.195 31.7697 23.4896 32.5844 23.8016C33.3991 24.0963 34.2571 24.2436 35.1584 24.2436C36.5624 24.2436 37.2644 23.8363 37.2644 23.0216C37.2644 22.571 36.9957 22.2243 36.4584 21.9816C35.9384 21.7216 35.2104 21.427 34.2744 21.0976C33.3557 20.7856 32.5671 20.439 31.9084 20.0576C31.2497 19.6763 30.7384 19.2083 30.3744 18.6536C30.0277 18.099 29.8544 17.397 29.8544 16.5476C29.8544 15.1263 30.3831 14.0776 31.4404 13.4016C32.5151 12.7256 33.9451 12.3876 35.7304 12.3876C36.7011 12.3876 37.5764 12.4743 38.3564 12.6476C39.1364 12.8036 39.7431 12.9943 40.1764 13.2196V16.2876C39.7257 16.0796 39.0844 15.8803 38.2524 15.6896C37.4377 15.4816 36.6577 15.3776 35.9124 15.3776C34.4737 15.3776 33.7544 15.7416 33.7544 16.4696C33.7544 16.8856 34.0317 17.215 34.5864 17.4576C35.1584 17.683 35.9557 17.969 36.9784 18.3156C38.3304 18.7836 39.3617 19.347 40.0724 20.0056C40.8004 20.6643 41.1644 21.6003 41.1644 22.8136C41.1644 23.5936 40.9824 24.3303 40.6184 25.0236C40.2717 25.6996 39.6737 26.2543 38.8244 26.6876C37.9751 27.1036 36.8051 27.3116 35.3144 27.3116ZM50.0714 27.3116C47.9568 27.3116 46.3881 26.8003 45.3654 25.7776C44.3428 24.7376 43.8314 23.2036 43.8314 21.1756C43.8314 20.8463 43.8401 20.4303 43.8574 19.9276C43.8921 19.425 43.9354 18.983 43.9874 18.6016H50.2274V21.0716H47.6534V21.4356C47.6534 22.4756 47.8441 23.2383 48.2254 23.7236C48.6241 24.1916 49.2308 24.4256 50.0454 24.4256C50.9121 24.4256 51.5881 24.1223 52.0734 23.5156C52.5588 22.909 52.8014 21.7823 52.8014 20.1356C52.8014 18.593 52.5241 17.4403 51.9694 16.6776C51.4321 15.8976 50.4528 15.5076 49.0314 15.5076C48.2514 15.5076 47.4454 15.629 46.6134 15.8716C45.7814 16.1143 45.0968 16.383 44.5594 16.6776V13.4276C45.1141 13.133 45.8768 12.8903 46.8474 12.6996C47.8181 12.4916 48.7888 12.3876 49.7594 12.3876C51.4408 12.3876 52.7928 12.6996 53.8154 13.3236C54.8554 13.9303 55.6094 14.797 56.0774 15.9236C56.5628 17.0503 56.8054 18.385 56.8054 19.9276C56.8054 22.3023 56.2768 24.131 55.2194 25.4136C54.1621 26.679 52.4461 27.3116 50.0714 27.3116ZM62.7795 26.9736L58.6455 12.7256H62.5715L65.7175 23.8276H65.8735C66.1509 23.8276 66.4022 23.7496 66.6275 23.5936C66.8702 23.4376 67.0869 23.2296 67.2775 22.9696C67.6069 22.4843 67.8582 21.9123 68.0315 21.2536C68.2222 20.5776 68.3175 19.9103 68.3175 19.2516C68.3175 18.0903 68.0922 17.1976 67.6415 16.5736C67.2082 15.9496 66.6015 15.6376 65.8215 15.6376C65.6655 15.6376 65.5182 15.6463 65.3795 15.6636C65.2582 15.681 65.1455 15.7156 65.0415 15.7676L64.3135 12.7776C64.7122 12.6563 65.0849 12.587 65.4315 12.5696C65.7782 12.535 66.0729 12.5176 66.3155 12.5176C67.2342 12.5176 68.0315 12.639 68.7075 12.8816C69.3835 13.1243 69.9642 13.4883 70.4495 13.9736C71.6629 15.187 72.2695 16.9203 72.2695 19.1736C72.2695 20.5776 72.0442 21.8083 71.5935 22.8656C71.1602 23.9056 70.6315 24.729 70.0075 25.3356C69.4875 25.8383 68.8289 26.237 68.0315 26.5316C67.2515 26.8263 66.1769 26.9736 64.8075 26.9736H62.7795ZM75.891 26.9736V12.7256H78.751L79.271 14.9616H79.479C79.7737 14.251 80.285 13.6616 81.013 13.1936C81.741 12.7083 82.6857 12.4656 83.847 12.4656C87.1577 12.4656 88.813 14.2423 88.813 17.7956V26.9736H84.913V18.5756C84.913 17.605 84.7137 16.9116 84.315 16.4956C83.9337 16.0623 83.3704 15.8456 82.625 15.8456C81.7237 15.8456 81.0217 16.2096 80.519 16.9376C80.0337 17.6656 79.791 18.7403 79.791 20.1616V26.9736H75.891ZM76.7732 10.7496V9.11163L79.3992 8.01963H85.3532V6.22563H88.6812V10.7496H76.7732ZM85.8472 4.84763V0.0116313H89.2272V4.84763H85.8472ZM98.8635 27.2336C97.2861 27.2336 96.0815 26.7743 95.2495 25.8556C94.4175 24.937 94.0015 23.585 94.0015 21.7996V12.7256H97.9015V21.1236C97.9015 22.077 98.0921 22.7703 98.4735 23.2036C98.8548 23.637 99.4095 23.8536 100.137 23.8536C101.056 23.8536 101.767 23.507 102.269 22.8136C102.772 22.1203 103.023 21.0283 103.023 19.5376V12.7256H106.923V26.9736H103.959L103.543 24.7896H103.309C103.015 25.483 102.503 26.0636 101.775 26.5316C101.065 26.9996 100.094 27.2336 98.8635 27.2336ZM103.66 10.7496C102.845 10.7496 102.204 10.6283 101.736 10.3856C101.268 10.143 100.939 9.83963 100.748 9.47563C100.54 9.0943 100.436 8.69563 100.436 8.27963C100.436 7.62097 100.609 6.9883 100.956 6.38163L103.79 6.74563C103.703 7.00563 103.66 7.2483 103.66 7.47363C103.66 7.7163 103.738 7.90696 103.894 8.04563C104.033 8.16697 104.275 8.22763 104.622 8.22763H110.212V10.7496H103.66ZM104.927 5.84763V1.01163H108.307V5.84763H104.927ZM114.814 26.9736L110.68 12.7256H114.606L117.752 23.8276H117.908C118.185 23.8276 118.437 23.7496 118.662 23.5936C118.905 23.4376 119.121 23.2296 119.312 22.9696C119.641 22.4843 119.893 21.9123 120.066 21.2536C120.257 20.5776 120.352 19.9103 120.352 19.2516C120.352 18.0903 120.127 17.1976 119.676 16.5736C119.243 15.9496 118.636 15.6376 117.856 15.6376C117.7 15.6376 117.553 15.6463 117.414 15.6636C117.293 15.681 117.18 15.7156 117.076 15.7676L116.348 12.7776C116.747 12.6563 117.119 12.587 117.466 12.5696C117.813 12.535 118.107 12.5176 118.35 12.5176C119.269 12.5176 120.066 12.639 120.742 12.8816C121.418 13.1243 121.999 13.4883 122.484 13.9736C123.697 15.187 124.304 16.9203 124.304 19.1736C124.304 20.5776 124.079 21.8083 123.628 22.8656C123.195 23.9056 122.666 24.729 122.042 25.3356C121.522 25.8383 120.863 26.237 120.066 26.5316C119.286 26.8263 118.211 26.9736 116.842 26.9736H114.814ZM131.592 27.2336C130.101 27.2336 128.948 26.8783 128.134 26.1676C127.336 25.457 126.938 24.4603 126.938 23.1776C126.938 21.791 127.432 20.6816 128.42 19.8496C129.425 19.0176 131.002 18.515 133.152 18.3416L135.856 18.1336V17.7176C135.856 16.8856 135.63 16.2876 135.18 15.9236C134.729 15.5596 134.036 15.3776 133.1 15.3776C132.198 15.3776 131.314 15.5163 130.448 15.7936C129.598 16.0536 128.862 16.3656 128.238 16.7296V13.5056C128.74 13.263 129.451 13.0203 130.37 12.7776C131.288 12.5176 132.354 12.3876 133.568 12.3876C134.746 12.3876 135.795 12.561 136.714 12.9076C137.632 13.237 138.352 13.8003 138.872 14.5976C139.409 15.395 139.678 16.487 139.678 17.8736V26.9736H135.856V20.9416L133.594 21.1756C132.554 21.2796 131.826 21.4876 131.41 21.7996C131.011 22.1116 130.812 22.5276 130.812 23.0476C130.812 23.5676 130.976 23.9576 131.306 24.2176C131.635 24.4776 132.077 24.6076 132.632 24.6076C132.84 24.6076 133.048 24.5903 133.256 24.5556C133.464 24.5036 133.654 24.4516 133.828 24.3996L134.166 26.8436C133.836 26.965 133.446 27.0603 132.996 27.1296C132.545 27.199 132.077 27.2336 131.592 27.2336ZM136.185 10.7496V4.84763H139.773V10.7496H136.185ZM148.144 27.3116C147.26 27.3116 146.428 27.2076 145.648 26.9996C144.868 26.809 144.14 26.5316 143.464 26.1676L144.504 23.3336C144.885 23.559 145.345 23.7583 145.882 23.9316C146.419 24.105 146.948 24.1916 147.468 24.1916C148.439 24.1916 149.21 23.8276 149.782 23.0996C150.354 22.3543 150.64 21.245 150.64 19.7716C150.64 18.4023 150.354 17.3536 149.782 16.6256C149.21 15.8803 148.317 15.5076 147.104 15.5076C146.532 15.5076 145.943 15.5943 145.336 15.7676C144.729 15.9236 144.227 16.123 143.828 16.3656V13.1676C144.365 12.925 144.972 12.7343 145.648 12.5956C146.324 12.457 147.043 12.3876 147.806 12.3876C150.198 12.3876 151.931 13.0463 153.006 14.3636C154.081 15.6636 154.618 17.4663 154.618 19.7716C154.618 22.2503 154.055 24.131 152.928 25.4136C151.801 26.679 150.207 27.3116 148.144 27.3116ZM160.668 26.9736L156.534 12.7256H160.46L163.606 23.8276H163.762C164.039 23.8276 164.29 23.7496 164.516 23.5936C164.758 23.4376 164.975 23.2296 165.166 22.9696C165.495 22.4843 165.746 21.9123 165.92 21.2536C166.11 20.5776 166.206 19.9103 166.206 19.2516C166.206 18.0903 165.98 17.1976 165.53 16.5736C165.096 15.9496 164.49 15.6376 163.71 15.6376C163.554 15.6376 163.406 15.6463 163.268 15.6636C163.146 15.681 163.034 15.7156 162.93 15.7676L162.202 12.7776C162.6 12.6563 162.973 12.587 163.32 12.5696C163.666 12.535 163.961 12.5176 164.204 12.5176C165.122 12.5176 165.92 12.639 166.596 12.8816C167.272 13.1243 167.852 13.4883 168.338 13.9736C169.551 15.187 170.158 16.9203 170.158 19.1736C170.158 20.5776 169.932 21.8083 169.482 22.8656C169.048 23.9056 168.52 24.729 167.896 25.3356C167.376 25.8383 166.717 26.237 165.92 26.5316C165.14 26.8263 164.065 26.9736 162.696 26.9736H160.668ZM173.831 26.9736V12.7256H177.679V18.0556H177.783L182.203 12.7256H186.493V12.8556L182.723 17.0416C183.954 17.2323 184.881 17.7523 185.505 18.6016C186.129 19.451 186.441 20.4736 186.441 21.6696V26.9736H182.541V22.2676C182.541 21.4876 182.35 20.8983 181.969 20.4996C181.588 20.0836 181.033 19.8236 180.305 19.7196L177.679 22.6316V26.9736H173.831ZM195.153 27.2336C193.576 27.2336 192.371 26.7743 191.539 25.8556C190.707 24.937 190.291 23.585 190.291 21.7996V12.7256H194.191V21.1236C194.191 22.077 194.382 22.7703 194.763 23.2036C195.144 23.637 195.699 23.8536 196.427 23.8536C197.346 23.8536 198.056 23.507 198.559 22.8136C199.062 22.1203 199.313 21.0283 199.313 19.5376V12.7256H203.213V26.9736H200.249L199.833 24.7896H199.599C199.304 25.483 198.793 26.0636 198.065 26.5316C197.354 26.9996 196.384 27.2336 195.153 27.2336ZM195.893 10.7756V9.47563C196.119 9.4063 196.387 9.31097 196.699 9.18963C196.994 9.0683 197.254 8.9123 197.479 8.72163C197.705 8.51363 197.817 8.24496 197.817 7.91563C197.817 7.67297 197.748 7.4823 197.609 7.34363C197.471 7.20497 197.297 7.13563 197.089 7.13563C196.951 7.13563 196.803 7.16163 196.647 7.21363C196.491 7.26563 196.353 7.31763 196.231 7.36963L195.737 5.62763C196.084 5.33296 196.517 5.1423 197.037 5.05563C197.54 4.95163 197.965 4.89963 198.311 4.89963C199.091 4.89963 199.707 5.0903 200.157 5.47163C200.591 5.83563 200.807 6.3643 200.807 7.05763C200.807 7.5083 200.677 7.90697 200.417 8.25363H204.395V10.7756H195.893ZM211.909 26.9736V17.5616C211.909 16.8336 211.736 16.305 211.389 15.9756C211.06 15.6463 210.514 15.4816 209.751 15.4816C209.179 15.4816 208.651 15.5596 208.165 15.7156C207.697 15.8716 207.255 16.0623 206.839 16.2876V13.1676C207.221 12.9943 207.758 12.821 208.451 12.6476C209.145 12.4743 209.959 12.3876 210.895 12.3876C211.849 12.3876 212.689 12.5263 213.417 12.8036C214.163 13.081 214.743 13.549 215.159 14.2076C215.593 14.849 215.809 15.733 215.809 16.8596V26.9736H211.909Z" fill="white"/>
<path opacity="0.9" d="M226.265 20.3976C226.265 18.4456 226.545 16.5656 227.105 14.7576C227.681 12.9336 228.577 11.2936 229.793 9.83763H231.785C230.665 11.3416 229.817 12.9976 229.241 14.8056C228.681 16.6136 228.401 18.4696 228.401 20.3736C228.401 22.2296 228.681 24.0536 229.241 25.8456C229.817 27.6216 230.657 29.2616 231.761 30.7656H229.793C228.577 29.3576 227.681 27.7656 227.105 25.9896C226.545 24.1976 226.265 22.3336 226.265 20.3976ZM236.028 26.9736V21.1176H234.204V19.4376H238.068V25.2456H238.38C239.452 25.2456 240.26 24.8776 240.804 24.1416C241.348 23.3896 241.62 22.1256 241.62 20.3496C241.62 18.5736 241.316 17.3016 240.708 16.5336C240.1 15.7496 239.06 15.3576 237.588 15.3576C236.836 15.3576 236.108 15.4616 235.404 15.6696C234.716 15.8616 234.052 16.1656 233.412 16.5816V14.5896C233.892 14.3016 234.524 14.0616 235.308 13.8696C236.092 13.6776 236.94 13.5816 237.852 13.5816C239.308 13.5816 240.468 13.8536 241.332 14.3976C242.212 14.9256 242.844 15.6936 243.228 16.7016C243.612 17.7096 243.804 18.9336 243.804 20.3736C243.804 21.7656 243.612 22.9576 243.228 23.9496C242.86 24.9256 242.252 25.6776 241.404 26.2056C240.572 26.7176 239.452 26.9736 238.044 26.9736H236.028ZM241.645 12.3096C240.845 12.3096 240.213 12.1256 239.749 11.7576C239.285 11.3736 239.053 10.8376 239.053 10.1496C239.053 9.46163 239.285 8.93363 239.749 8.56563C240.213 8.18163 240.845 7.98963 241.645 7.98963C242.445 7.98963 243.085 8.18163 243.565 8.56563C244.045 8.93363 244.285 9.46163 244.285 10.1496C244.285 10.8376 244.045 11.3736 243.565 11.7576C243.085 12.1256 242.445 12.3096 241.645 12.3096ZM241.645 11.1816C242.029 11.1816 242.325 11.0856 242.533 10.8936C242.725 10.7016 242.821 10.4536 242.821 10.1496C242.821 9.84563 242.725 9.59763 242.533 9.40563C242.325 9.21363 242.029 9.11763 241.645 9.11763C241.277 9.11763 240.997 9.21363 240.805 9.40563C240.597 9.59763 240.493 9.84563 240.493 10.1496C240.493 10.4536 240.597 10.7016 240.805 10.8936C240.997 11.0856 241.277 11.1816 241.645 11.1816ZM250.938 26.9736V17.6376C250.938 16.8536 250.754 16.2776 250.386 15.9096C250.034 15.5416 249.434 15.3576 248.586 15.3576C248.01 15.3576 247.466 15.4376 246.954 15.5976C246.458 15.7576 245.978 15.9656 245.514 16.2216V14.3016C245.834 14.1416 246.29 13.9816 246.882 13.8216C247.474 13.6616 248.178 13.5816 248.994 13.5816C250.242 13.5816 251.234 13.8616 251.97 14.4216C252.706 14.9816 253.074 15.9496 253.074 17.3256V26.9736H250.938ZM261.504 27.2136C260.096 27.2136 258.984 26.8456 258.168 26.1096C257.368 25.3736 256.968 24.2056 256.968 22.6056V13.8216H259.104V22.4856C259.104 24.4376 260.056 25.4136 261.96 25.4136C263.08 25.4136 263.944 25.0536 264.552 24.3336C265.176 23.6136 265.488 22.6456 265.488 21.4296V13.8216H267.624V26.9736H265.848L265.752 25.0296H265.632C265.344 25.6856 264.84 26.2136 264.12 26.6136C263.416 27.0136 262.544 27.2136 261.504 27.2136ZM274.327 27.2136C273.703 27.2136 273.095 27.1496 272.503 27.0216C271.927 26.8936 271.311 26.6536 270.655 26.3016L271.327 24.6696C271.679 24.8776 272.079 25.0616 272.527 25.2216C272.975 25.3656 273.495 25.4376 274.087 25.4376C275.271 25.4376 276.191 25.0056 276.847 24.1416C277.519 23.2776 277.855 22.0136 277.855 20.3496C277.855 18.7336 277.511 17.5016 276.823 16.6536C276.151 15.7896 275.111 15.3576 273.703 15.3576C273.191 15.3576 272.671 15.4136 272.143 15.5256C271.615 15.6376 271.151 15.8056 270.751 16.0296V14.2296C271.199 13.9896 271.703 13.8216 272.263 13.7256C272.823 13.6296 273.383 13.5816 273.943 13.5816C275.383 13.5816 276.551 13.8696 277.447 14.4456C278.343 15.0056 278.999 15.7976 279.415 16.8216C279.831 17.8296 280.039 19.0056 280.039 20.3496C280.039 22.4616 279.559 24.1336 278.599 25.3656C277.655 26.5976 276.231 27.2136 274.327 27.2136ZM288.035 27.2136C286.627 27.2136 285.515 26.8456 284.699 26.1096C283.899 25.3736 283.499 24.2056 283.499 22.6056V13.8216H285.635V22.4856C285.635 24.4376 286.587 25.4136 288.491 25.4136C289.611 25.4136 290.475 25.0536 291.083 24.3336C291.707 23.6136 292.019 22.6456 292.019 21.4296V13.8216H294.155V26.9736H292.379L292.283 25.0296H292.163C291.875 25.6856 291.371 26.2136 290.651 26.6136C289.947 27.0136 289.075 27.2136 288.035 27.2136ZM299.802 26.9736V21.1176H297.978V19.4376H301.842V25.2456H302.154C303.226 25.2456 304.034 24.8776 304.578 24.1416C305.122 23.3896 305.394 22.1256 305.394 20.3496C305.394 18.5736 305.09 17.3016 304.482 16.5336C303.874 15.7496 302.834 15.3576 301.362 15.3576C300.61 15.3576 299.882 15.4616 299.178 15.6696C298.49 15.8616 297.826 16.1656 297.186 16.5816V14.5896C297.666 14.3016 298.298 14.0616 299.082 13.8696C299.866 13.6776 300.714 13.5816 301.626 13.5816C303.082 13.5816 304.242 13.8536 305.106 14.3976C305.986 14.9256 306.618 15.6936 307.002 16.7016C307.386 17.7096 307.578 18.9336 307.578 20.3736C307.578 21.7656 307.386 22.9576 307.002 23.9496C306.634 24.9256 306.026 25.6776 305.178 26.2056C304.346 26.7176 303.226 26.9736 301.818 26.9736H299.802ZM305.418 12.3096C304.618 12.3096 303.986 12.1256 303.522 11.7576C303.058 11.3736 302.826 10.8376 302.826 10.1496C302.826 9.46163 303.058 8.93363 303.522 8.56563C303.986 8.18163 304.618 7.98963 305.418 7.98963C306.218 7.98963 306.858 8.18163 307.338 8.56563C307.818 8.93363 308.058 9.46163 308.058 10.1496C308.058 10.8376 307.818 11.3736 307.338 11.7576C306.858 12.1256 306.218 12.3096 305.418 12.3096ZM305.418 11.1816C305.802 11.1816 306.098 11.0856 306.306 10.8936C306.498 10.7016 306.594 10.4536 306.594 10.1496C306.594 9.84563 306.498 9.59763 306.306 9.40563C306.098 9.21363 305.802 9.11763 305.418 9.11763C305.05 9.11763 304.77 9.21363 304.578 9.40563C304.37 9.59763 304.266 9.84563 304.266 10.1496C304.266 10.4536 304.37 10.7016 304.578 10.8936C304.77 11.0856 305.05 11.1816 305.418 11.1816ZM314.711 26.9736V17.6376C314.711 16.8536 314.527 16.2776 314.159 15.9096C313.807 15.5416 313.207 15.3576 312.359 15.3576C311.783 15.3576 311.239 15.4376 310.727 15.5976C310.231 15.7576 309.751 15.9656 309.287 16.2216V14.3016C309.607 14.1416 310.063 13.9816 310.655 13.8216C311.247 13.6616 311.951 13.5816 312.767 13.5816C314.015 13.5816 315.007 13.8616 315.743 14.4216C316.479 14.9816 316.847 15.9496 316.847 17.3256V26.9736H314.711ZM320.621 26.9736V22.4136C320.621 21.4056 320.845 20.6776 321.293 20.2296C321.741 19.7656 322.309 19.4456 322.997 19.2696L323.021 19.1976L320.381 18.1896V17.3976C320.381 16.7416 320.597 16.1256 321.029 15.5496C321.461 14.9576 322.077 14.4856 322.877 14.1336C323.677 13.7656 324.645 13.5816 325.781 13.5816C326.757 13.5816 327.661 13.7416 328.493 14.0616C329.325 14.3656 329.989 14.8536 330.485 15.5256C330.997 16.1816 331.253 17.0456 331.253 18.1176V26.9736H329.117V18.3336C329.117 17.2616 328.789 16.5016 328.133 16.0536C327.477 15.5896 326.685 15.3576 325.757 15.3576C324.765 15.3576 323.981 15.5656 323.405 15.9816C322.845 16.3816 322.565 16.8936 322.565 17.5176L325.157 18.8136L324.965 19.9656C324.373 19.9656 323.853 20.1656 323.405 20.5656C322.973 20.9496 322.757 21.5656 322.757 22.4136V26.9736H320.621ZM327.957 11.7336C326.949 11.7336 326.237 11.5336 325.821 11.1336C325.405 10.7176 325.197 10.2536 325.197 9.74163C325.197 9.50163 325.237 9.24563 325.317 8.97363C325.381 8.68563 325.469 8.45363 325.581 8.27763L327.381 8.58963C327.285 8.78163 327.237 9.02963 327.237 9.33363C327.237 9.54163 327.301 9.72563 327.429 9.88563C327.557 10.0296 327.773 10.1016 328.077 10.1016H334.149V11.7336H327.957ZM339.62 27.2136C338.34 27.2136 337.332 26.9176 336.596 26.3256C335.876 25.7176 335.364 24.9096 335.06 23.9016C334.772 22.8776 334.628 21.7416 334.628 20.4936C334.628 18.6856 334.876 17.2856 335.372 16.2936C335.868 15.2856 336.556 14.5816 337.436 14.1816C338.316 13.7816 339.348 13.5816 340.532 13.5816C342.452 13.5816 343.844 13.9976 344.708 14.8296C345.588 15.6616 346.028 16.7896 346.028 18.2136V26.9736H343.916V18.4056C343.916 17.4296 343.668 16.6776 343.172 16.1496C342.676 15.6216 341.82 15.3576 340.604 15.3576C339.852 15.3576 339.188 15.4936 338.612 15.7656C338.036 16.0376 337.58 16.5416 337.244 17.2776C336.924 18.0136 336.764 19.0936 336.764 20.5176C336.764 21.4456 336.852 22.2856 337.028 23.0376C337.22 23.7736 337.548 24.3576 338.012 24.7896C338.476 25.2216 339.124 25.4376 339.956 25.4376C340.196 25.4376 340.42 25.4216 340.628 25.3896C340.836 25.3576 341.036 25.3096 341.228 25.2456L341.444 26.9016C341.188 27.0136 340.892 27.0936 340.556 27.1416C340.236 27.1896 339.924 27.2136 339.62 27.2136ZM355.705 8.73363L355.225 13.3416L359.833 12.0456L360.169 14.2536L355.753 14.6136L358.609 18.4056L356.545 19.5336L354.505 15.3336L352.657 19.5336L350.521 18.4056L353.329 14.6136L348.961 14.2536L349.297 12.0456L353.857 13.3416L353.353 8.73363H355.705ZM367.436 20.3976C367.436 22.3336 367.148 24.1976 366.572 25.9896C366.012 27.7656 365.124 29.3576 363.908 30.7656H361.94C363.044 29.2616 363.876 27.6216 364.436 25.8456C365.012 24.0536 365.3 22.2296 365.3 20.3736C365.3 18.4696 365.012 16.6136 364.436 14.8056C363.876 12.9976 363.036 11.3416 361.916 9.83763H363.908C365.124 11.2936 366.012 12.9336 366.572 14.7576C367.148 16.5656 367.436 18.4456 367.436 20.3976Z" fill="#BAD0F2"/>
</svg>
