<svg width="206" height="19" viewBox="0 0 206 19" fill="none" xmlns="http://www.w3.org/2000/svg">
<path d="M0.637224 7.60997C0.637224 6.45397 0.903558 5.41697 1.43622 4.49897C1.98022 3.58097 2.71122 2.86697 3.62922 2.35697C4.55856 1.83563 5.57289 1.57497 6.67222 1.57497C7.93022 1.57497 9.04656 1.88663 10.0212 2.50997C11.0072 3.12197 11.7212 3.99463 12.1632 5.12797H9.83422C9.52822 4.50464 9.10322 4.03997 8.55922 3.73397C8.01522 3.42797 7.38622 3.27497 6.67222 3.27497C5.89022 3.27497 5.19322 3.45063 4.58122 3.80197C3.96922 4.1533 3.48756 4.65763 3.13622 5.31497C2.79622 5.9723 2.62622 6.7373 2.62622 7.60997C2.62622 8.48264 2.79622 9.24764 3.13622 9.90497C3.48756 10.5623 3.96922 11.0723 4.58122 11.435C5.19322 11.7863 5.89022 11.962 6.67222 11.962C7.38622 11.962 8.01522 11.809 8.55922 11.503C9.10322 11.197 9.52822 10.7323 9.83422 10.109H12.1632C11.7212 11.2423 11.0072 12.115 10.0212 12.727C9.04656 13.339 7.93022 13.645 6.67222 13.645C5.56156 13.645 4.54722 13.39 3.62922 12.88C2.71122 12.3586 1.98022 11.639 1.43622 10.721C0.903558 9.80297 0.637224 8.76597 0.637224 7.60997ZM19.1067 4.02297C19.8207 4.02297 20.4553 4.17597 21.0107 4.48197C21.5773 4.78797 22.0193 5.2413 22.3367 5.84197C22.6653 6.44264 22.8297 7.16797 22.8297 8.01797V13.543H20.9087V8.30697C20.9087 7.4683 20.699 6.82797 20.2797 6.38597C19.8603 5.93263 19.288 5.70597 18.5627 5.70597C17.8373 5.70597 17.2593 5.93263 16.8287 6.38597C16.4093 6.82797 16.1997 7.4683 16.1997 8.30697V13.543H14.2617V0.962969H16.1997V5.26397C16.5283 4.8673 16.942 4.5613 17.4407 4.34597C17.9507 4.13064 18.506 4.02297 19.1067 4.02297ZM26.1177 2.93497C25.7664 2.93497 25.4717 2.81597 25.2337 2.57797C24.9957 2.33997 24.8767 2.0453 24.8767 1.69397C24.8767 1.34263 24.9957 1.04797 25.2337 0.809969C25.4717 0.571968 25.7664 0.452968 26.1177 0.452968C26.4577 0.452968 26.7467 0.571968 26.9847 0.809969C27.2227 1.04797 27.3417 1.34263 27.3417 1.69397C27.3417 2.0453 27.2227 2.33997 26.9847 2.57797C26.7467 2.81597 26.4577 2.93497 26.1177 2.93497ZM27.0697 4.17597V13.543H25.1317V4.17597H27.0697ZM38.0291 8.62997C38.0291 8.9813 38.0065 9.29864 37.9611 9.58197H30.8041C30.8608 10.33 31.1385 10.9306 31.6371 11.384C32.1358 11.8373 32.7478 12.064 33.4731 12.064C34.5158 12.064 35.2525 11.6276 35.6831 10.755H37.7741C37.4908 11.6163 36.9751 12.3246 36.2271 12.88C35.4905 13.424 34.5725 13.696 33.4731 13.696C32.5778 13.696 31.7731 13.4976 31.0591 13.101C30.3565 12.693 29.8011 12.1263 29.3931 11.401C28.9965 10.6643 28.7981 9.8143 28.7981 8.85097C28.7981 7.88763 28.9908 7.0433 29.3761 6.31797C29.7728 5.5813 30.3225 5.01464 31.0251 4.61797C31.7391 4.2213 32.5551 4.02297 33.4731 4.02297C34.3571 4.02297 35.1448 4.21564 35.8361 4.60097C36.5275 4.9863 37.0658 5.5303 37.4511 6.23297C37.8365 6.9243 38.0291 7.7233 38.0291 8.62997ZM36.0061 8.01797C35.9948 7.30397 35.7398 6.73164 35.2411 6.30097C34.7425 5.8703 34.1248 5.65497 33.3881 5.65497C32.7195 5.65497 32.1471 5.8703 31.6711 6.30097C31.1951 6.7203 30.9118 7.29263 30.8211 8.01797H36.0061ZM43.6933 5.75697H41.9593V13.543H40.0043V5.75697H38.8993V4.17597H40.0043V3.51297C40.0043 2.4363 40.2876 1.6543 40.8543 1.16697C41.4323 0.668302 42.3333 0.418968 43.5573 0.418968V2.03397C42.968 2.03397 42.5543 2.1473 42.3163 2.37397C42.0783 2.5893 41.9593 2.96897 41.9593 3.51297V4.17597H43.6933V5.75697ZM57.1199 1.72797V3.30897H53.9749V13.543H52.0369V3.30897H48.8749V1.72797H57.1199ZM67.4976 8.62997C67.4976 8.9813 67.4749 9.29864 67.4296 9.58197H60.2726C60.3292 10.33 60.6069 10.9306 61.1056 11.384C61.6042 11.8373 62.2162 12.064 62.9416 12.064C63.9842 12.064 64.7209 11.6276 65.1516 10.755H67.2426C66.9592 11.6163 66.4436 12.3246 65.6956 12.88C64.9589 13.424 64.0409 13.696 62.9416 13.696C62.0462 13.696 61.2416 13.4976 60.5276 13.101C59.8249 12.693 59.2696 12.1263 58.8616 11.401C58.4649 10.6643 58.2666 9.8143 58.2666 8.85097C58.2666 7.88763 58.4592 7.0433 58.8446 6.31797C59.2412 5.5813 59.7909 5.01464 60.4936 4.61797C61.2076 4.2213 62.0236 4.02297 62.9416 4.02297C63.8256 4.02297 64.6132 4.21564 65.3046 4.60097C65.9959 4.9863 66.5342 5.5303 66.9196 6.23297C67.3049 6.9243 67.4976 7.7233 67.4976 8.62997ZM65.4746 8.01797C65.4632 7.30397 65.2082 6.73164 64.7096 6.30097C64.2109 5.8703 63.5932 5.65497 62.8566 5.65497C62.1879 5.65497 61.6156 5.8703 61.1396 6.30097C60.6636 6.7203 60.3802 7.29263 60.2896 8.01797H65.4746ZM68.5887 8.85097C68.5887 7.88763 68.7814 7.0433 69.1667 6.31797C69.5634 5.5813 70.1074 5.01464 70.7987 4.61797C71.4901 4.2213 72.2834 4.02297 73.1787 4.02297C74.3121 4.02297 75.2471 4.29497 75.9837 4.83897C76.7317 5.37163 77.2361 6.13664 77.4967 7.13397H75.4057C75.2357 6.6693 74.9637 6.30664 74.5897 6.04597C74.2157 5.7853 73.7454 5.65497 73.1787 5.65497C72.3854 5.65497 71.7507 5.9383 71.2747 6.50497C70.8101 7.0603 70.5777 7.8423 70.5777 8.85097C70.5777 9.85964 70.8101 10.6473 71.2747 11.214C71.7507 11.7806 72.3854 12.064 73.1787 12.064C74.3007 12.064 75.0431 11.571 75.4057 10.585H77.4967C77.2247 11.537 76.7147 12.2963 75.9667 12.863C75.2187 13.4183 74.2894 13.696 73.1787 13.696C72.2834 13.696 71.4901 13.4976 70.7987 13.101C70.1074 12.693 69.5634 12.1263 69.1667 11.401C68.7814 10.6643 68.5887 9.8143 68.5887 8.85097ZM84.1031 4.02297C84.8171 4.02297 85.4518 4.17597 86.0071 4.48197C86.5738 4.78797 87.0158 5.2413 87.3331 5.84197C87.6618 6.44264 87.8261 7.16797 87.8261 8.01797V13.543H85.9051V8.30697C85.9051 7.4683 85.6954 6.82797 85.2761 6.38597C84.8568 5.93263 84.2844 5.70597 83.5591 5.70597C82.8338 5.70597 82.2558 5.93263 81.8251 6.38597C81.4058 6.82797 81.1961 7.4683 81.1961 8.30697V13.543H79.2581V0.962969H81.1961V5.26397C81.5248 4.8673 81.9384 4.5613 82.4371 4.34597C82.9471 4.13064 83.5024 4.02297 84.1031 4.02297ZM94.8541 4.02297C95.5908 4.02297 96.2481 4.17597 96.8261 4.48197C97.4155 4.78797 97.8745 5.2413 98.2031 5.84197C98.5318 6.44264 98.6962 7.16797 98.6962 8.01797V13.543H96.7751V8.30697C96.7751 7.4683 96.5655 6.82797 96.1461 6.38597C95.7268 5.93263 95.1545 5.70597 94.4291 5.70597C93.7038 5.70597 93.1258 5.93263 92.6951 6.38597C92.2758 6.82797 92.0661 7.4683 92.0661 8.30697V13.543H90.1281V4.17597H92.0661V5.24697C92.3835 4.86164 92.7858 4.5613 93.2731 4.34597C93.7718 4.13064 94.2988 4.02297 94.8541 4.02297ZM105.061 13.696C104.177 13.696 103.378 13.4976 102.664 13.101C101.95 12.693 101.389 12.1263 100.981 11.401C100.573 10.6643 100.369 9.8143 100.369 8.85097C100.369 7.89897 100.579 7.05464 100.998 6.31797C101.418 5.5813 101.99 5.01464 102.715 4.61797C103.441 4.2213 104.251 4.02297 105.146 4.02297C106.042 4.02297 106.852 4.2213 107.577 4.61797C108.303 5.01464 108.875 5.5813 109.294 6.31797C109.714 7.05464 109.923 7.89897 109.923 8.85097C109.923 9.80297 109.708 10.6473 109.277 11.384C108.847 12.1206 108.257 12.693 107.509 13.101C106.773 13.4976 105.957 13.696 105.061 13.696ZM105.061 12.013C105.56 12.013 106.025 11.894 106.455 11.656C106.897 11.418 107.254 11.061 107.526 10.585C107.798 10.109 107.934 9.53097 107.934 8.85097C107.934 8.17097 107.804 7.59864 107.543 7.13397C107.283 6.65797 106.937 6.30097 106.506 6.06297C106.076 5.82497 105.611 5.70597 105.112 5.70597C104.614 5.70597 104.149 5.82497 103.718 6.06297C103.299 6.30097 102.965 6.65797 102.715 7.13397C102.466 7.59864 102.341 8.17097 102.341 8.85097C102.341 9.85964 102.596 10.6416 103.106 11.197C103.628 11.741 104.279 12.013 105.061 12.013ZM113.607 0.962969V13.543H111.669V0.962969H113.607ZM120.044 13.696C119.16 13.696 118.361 13.4976 117.647 13.101C116.933 12.693 116.372 12.1263 115.964 11.401C115.556 10.6643 115.352 9.8143 115.352 8.85097C115.352 7.89897 115.562 7.05464 115.981 6.31797C116.401 5.5813 116.973 5.01464 117.698 4.61797C118.424 4.2213 119.234 4.02297 120.129 4.02297C121.025 4.02297 121.835 4.2213 122.56 4.61797C123.286 5.01464 123.858 5.5813 124.277 6.31797C124.697 7.05464 124.906 7.89897 124.906 8.85097C124.906 9.80297 124.691 10.6473 124.26 11.384C123.83 12.1206 123.24 12.693 122.492 13.101C121.756 13.4976 120.94 13.696 120.044 13.696ZM120.044 12.013C120.543 12.013 121.008 11.894 121.438 11.656C121.88 11.418 122.237 11.061 122.509 10.585C122.781 10.109 122.917 9.53097 122.917 8.85097C122.917 8.17097 122.787 7.59864 122.526 7.13397C122.266 6.65797 121.92 6.30097 121.489 6.06297C121.059 5.82497 120.594 5.70597 120.095 5.70597C119.597 5.70597 119.132 5.82497 118.701 6.06297C118.282 6.30097 117.948 6.65797 117.698 7.13397C117.449 7.59864 117.324 8.17097 117.324 8.85097C117.324 9.85964 117.579 10.6416 118.089 11.197C118.611 11.741 119.262 12.013 120.044 12.013ZM130.426 4.02297C131.152 4.02297 131.792 4.1703 132.347 4.46497C132.914 4.7483 133.356 5.1053 133.673 5.53597V4.17597H135.628V13.696C135.628 14.5573 135.447 15.3223 135.084 15.991C134.722 16.671 134.195 17.2036 133.503 17.589C132.823 17.9743 132.007 18.167 131.055 18.167C129.786 18.167 128.732 17.8666 127.893 17.266C127.055 16.6766 126.579 15.872 126.465 14.852H128.386C128.534 15.3393 128.845 15.7303 129.321 16.025C129.809 16.331 130.387 16.484 131.055 16.484C131.837 16.484 132.466 16.246 132.942 15.77C133.43 15.294 133.673 14.6026 133.673 13.696V12.132C133.345 12.574 132.897 12.948 132.33 13.254C131.775 13.5486 131.14 13.696 130.426 13.696C129.61 13.696 128.862 13.492 128.182 13.084C127.514 12.6646 126.981 12.0866 126.584 11.35C126.199 10.602 126.006 9.75764 126.006 8.81697C126.006 7.8763 126.199 7.0433 126.584 6.31797C126.981 5.59264 127.514 5.03163 128.182 4.63497C128.862 4.22697 129.61 4.02297 130.426 4.02297ZM133.673 8.85097C133.673 8.20497 133.537 7.64397 133.265 7.16797C133.005 6.69197 132.659 6.3293 132.228 6.07997C131.798 5.83064 131.333 5.70597 130.834 5.70597C130.336 5.70597 129.871 5.83064 129.44 6.07997C129.01 6.31797 128.658 6.67497 128.386 7.15097C128.126 7.61564 127.995 8.17097 127.995 8.81697C127.995 9.46297 128.126 10.0296 128.386 10.517C128.658 11.0043 129.01 11.3783 129.44 11.639C129.882 11.8883 130.347 12.013 130.834 12.013C131.333 12.013 131.798 11.8883 132.228 11.639C132.659 11.3896 133.005 11.027 133.265 10.551C133.537 10.0636 133.673 9.49697 133.673 8.85097ZM146.436 4.17597L140.69 17.946H138.684L140.588 13.39L136.899 4.17597H139.058L141.693 11.316L144.43 4.17597H146.436ZM157.363 13.662C156.264 13.662 155.25 13.407 154.32 12.897C153.402 12.3756 152.671 11.656 152.127 10.738C151.595 9.80864 151.328 8.76597 151.328 7.60997C151.328 6.45397 151.595 5.41697 152.127 4.49897C152.671 3.58097 153.402 2.86697 154.32 2.35697C155.25 1.83563 156.264 1.57497 157.363 1.57497C158.474 1.57497 159.488 1.83563 160.406 2.35697C161.336 2.86697 162.067 3.58097 162.599 4.49897C163.132 5.41697 163.398 6.45397 163.398 7.60997C163.398 8.76597 163.132 9.80864 162.599 10.738C162.067 11.656 161.336 12.3756 160.406 12.897C159.488 13.407 158.474 13.662 157.363 13.662ZM157.363 11.979C158.145 11.979 158.842 11.8033 159.454 11.452C160.066 11.0893 160.542 10.5793 160.882 9.92197C161.234 9.2533 161.409 8.48264 161.409 7.60997C161.409 6.7373 161.234 5.9723 160.882 5.31497C160.542 4.65763 160.066 4.1533 159.454 3.80197C158.842 3.45063 158.145 3.27497 157.363 3.27497C156.581 3.27497 155.884 3.45063 155.272 3.80197C154.66 4.1533 154.179 4.65763 153.827 5.31497C153.487 5.9723 153.317 6.7373 153.317 7.60997C153.317 8.48264 153.487 9.2533 153.827 9.92197C154.179 10.5793 154.66 11.0893 155.272 11.452C155.884 11.8033 156.581 11.979 157.363 11.979ZM169.062 5.75697H167.328V13.543H165.373V5.75697H164.268V4.17597H165.373V3.51297C165.373 2.4363 165.657 1.6543 166.223 1.16697C166.801 0.668302 167.702 0.418968 168.926 0.418968V2.03397C168.337 2.03397 167.923 2.1473 167.685 2.37397C167.447 2.5893 167.328 2.96897 167.328 3.51297V4.17597H169.062V5.75697ZM174.537 5.75697H172.803V13.543H170.848V5.75697H169.743V4.17597H170.848V3.51297C170.848 2.4363 171.131 1.6543 171.698 1.16697C172.276 0.668302 173.177 0.418968 174.401 0.418968V2.03397C173.812 2.03397 173.398 2.1473 173.16 2.37397C172.922 2.5893 172.803 2.96897 172.803 3.51297V4.17597H174.537V5.75697ZM177.07 2.93497C176.719 2.93497 176.424 2.81597 176.186 2.57797C175.948 2.33997 175.829 2.0453 175.829 1.69397C175.829 1.34263 175.948 1.04797 176.186 0.809969C176.424 0.571968 176.719 0.452968 177.07 0.452968C177.41 0.452968 177.699 0.571968 177.937 0.809969C178.175 1.04797 178.294 1.34263 178.294 1.69397C178.294 2.0453 178.175 2.33997 177.937 2.57797C177.699 2.81597 177.41 2.93497 177.07 2.93497ZM178.022 4.17597V13.543H176.084V4.17597H178.022ZM179.751 8.85097C179.751 7.88763 179.943 7.0433 180.329 6.31797C180.725 5.5813 181.269 5.01464 181.961 4.61797C182.652 4.2213 183.445 4.02297 184.341 4.02297C185.474 4.02297 186.409 4.29497 187.146 4.83897C187.894 5.37163 188.398 6.13664 188.659 7.13397H186.568C186.398 6.6693 186.126 6.30664 185.752 6.04597C185.378 5.7853 184.907 5.65497 184.341 5.65497C183.547 5.65497 182.913 5.9383 182.437 6.50497C181.972 7.0603 181.74 7.8423 181.74 8.85097C181.74 9.85964 181.972 10.6473 182.437 11.214C182.913 11.7806 183.547 12.064 184.341 12.064C185.463 12.064 186.205 11.571 186.568 10.585H188.659C188.387 11.537 187.877 12.2963 187.129 12.863C186.381 13.4183 185.451 13.696 184.341 13.696C183.445 13.696 182.652 13.4976 181.961 13.101C181.269 12.693 180.725 12.1263 180.329 11.401C179.943 10.6643 179.751 9.8143 179.751 8.85097ZM199.005 8.62997C199.005 8.9813 198.983 9.29864 198.937 9.58197H191.78C191.837 10.33 192.115 10.9306 192.613 11.384C193.112 11.8373 193.724 12.064 194.449 12.064C195.492 12.064 196.229 11.6276 196.659 10.755H198.75C198.467 11.6163 197.951 12.3246 197.203 12.88C196.467 13.424 195.549 13.696 194.449 13.696C193.554 13.696 192.749 13.4976 192.035 13.101C191.333 12.693 190.777 12.1263 190.369 11.401C189.973 10.6643 189.774 9.8143 189.774 8.85097C189.774 7.88763 189.967 7.0433 190.352 6.31797C190.749 5.5813 191.299 5.01464 192.001 4.61797C192.715 4.2213 193.531 4.02297 194.449 4.02297C195.333 4.02297 196.121 4.21564 196.812 4.60097C197.504 4.9863 198.042 5.5303 198.427 6.23297C198.813 6.9243 199.005 7.7233 199.005 8.62997ZM196.982 8.01797C196.971 7.30397 196.716 6.73164 196.217 6.30097C195.719 5.8703 195.101 5.65497 194.364 5.65497C193.696 5.65497 193.123 5.8703 192.647 6.30097C192.171 6.7203 191.888 7.29263 191.797 8.01797H196.982ZM202.68 5.53597C202.964 5.05997 203.338 4.69164 203.802 4.43097C204.278 4.15897 204.839 4.02297 205.485 4.02297V6.02897H204.992C204.233 6.02897 203.655 6.22163 203.258 6.60697C202.873 6.9923 202.68 7.66097 202.68 8.61297V13.543H200.742V4.17597H202.68V5.53597Z" fill="#359EFF"/>
</svg>
