<svg width="214" height="26" viewBox="0 0 214 26" fill="none" xmlns="http://www.w3.org/2000/svg">
<path d="M0.68 19V11.2C0.68 9.36 1.168 7.96 2.144 7C3.12 6.024 4.664 5.536 6.776 5.536C8.904 5.536 10.44 6.024 11.384 7C12.344 7.96 12.824 9.36 12.824 11.2V19H9.248V11.152C9.248 10.304 9.048 9.64 8.648 9.16C8.264 8.664 7.624 8.416 6.728 8.416C5.848 8.416 5.208 8.664 4.808 9.16C4.424 9.64 4.232 10.304 4.232 11.152V13.24L4.304 13.264C4.608 12.64 4.968 12.232 5.384 12.04C5.8 11.832 6.384 11.728 7.136 11.728H7.688V14.416H7.136C6.336 14.416 5.728 14.552 5.312 14.824C4.896 15.096 4.608 15.456 4.448 15.904C4.304 16.336 4.232 16.824 4.232 17.368V19H0.68ZM9.51856 25.264V23.128C9.51856 22.728 9.34256 22.528 8.99056 22.528C8.91056 22.528 8.83056 22.536 8.75056 22.552C8.67056 22.584 8.59056 22.608 8.51056 22.624L8.34256 20.896C8.56656 20.816 8.87056 20.736 9.25456 20.656C9.63856 20.576 10.0386 20.536 10.4546 20.536C11.2386 20.536 11.7906 20.688 12.1106 20.992C12.4306 21.312 12.5906 21.744 12.5906 22.288V25.264H9.51856ZM18.9796 19.24C17.9556 19.24 17.1316 18.992 16.5076 18.496C15.8996 17.984 15.5956 17.208 15.5956 16.168V14.608C15.5956 13.664 15.7956 12.968 16.1956 12.52C16.6116 12.072 17.1956 11.736 17.9476 11.512L17.9716 11.416L15.3556 10.48V9.856C15.3556 9.04 15.5796 8.312 16.0276 7.672C16.4916 7.016 17.1636 6.496 18.0436 6.112C18.9236 5.728 19.9956 5.536 21.2596 5.536C23.0196 5.536 24.4116 5.944 25.4356 6.76C26.4756 7.56 26.9956 8.76 26.9956 10.36V13.96C26.9956 14.728 27.1636 15.28 27.4996 15.616C27.8356 15.952 28.2516 16.12 28.7476 16.12C29.4356 16.12 29.9876 15.832 30.4036 15.256C30.8196 14.68 31.0276 13.912 31.0276 12.952V5.848H34.6276V19H31.8436L31.4356 16.936H31.2436C30.9556 17.608 30.4836 18.16 29.8276 18.592C29.1876 19.024 28.3876 19.24 27.4276 19.24C26.1156 19.24 25.1236 18.896 24.4516 18.208C23.7956 17.504 23.4676 16.4 23.4676 14.896V10.624C23.4676 9.776 23.2516 9.192 22.8196 8.872C22.3876 8.536 21.8516 8.368 21.2116 8.368C20.6036 8.368 20.0996 8.504 19.6996 8.776C19.2996 9.032 19.0836 9.424 19.0516 9.952L21.1396 10.96L20.8996 12.52C20.3076 12.536 19.8596 12.68 19.5556 12.952C19.2516 13.208 19.0996 13.664 19.0996 14.32V15.784C19.0996 16.44 19.4196 16.768 20.0596 16.768C20.3796 16.768 20.6596 16.72 20.8996 16.624L21.2356 18.76C20.6276 19.08 19.8756 19.24 18.9796 19.24ZM39.2962 19L37.0162 5.848H40.5202L41.1682 10.48C41.2162 10.864 41.2722 11.392 41.3362 12.064C41.4162 12.72 41.4882 13.488 41.5522 14.368H41.6242C41.8322 13.488 42.0162 12.72 42.1762 12.064C42.3362 11.392 42.4802 10.84 42.6082 10.408L43.9042 5.848H46.0882L47.3842 10.408C47.4962 10.84 47.6322 11.392 47.7922 12.064C47.9682 12.72 48.1602 13.488 48.3682 14.368H48.4402C48.5202 13.488 48.5842 12.72 48.6322 12.064C48.6962 11.392 48.7602 10.864 48.8242 10.48L49.4962 5.848H52.9762L50.7202 19H47.1922L45.6802 13.648C45.5202 13.024 45.3922 12.456 45.2962 11.944C45.2002 11.432 45.1202 10.896 45.0562 10.336H44.9602C44.8642 10.896 44.7682 11.424 44.6722 11.92C44.5922 12.4 44.4562 12.976 44.2642 13.648L42.7282 19H39.2962ZM40.7926 4.024V2.512L43.2166 1.504H51.7846V4.024H40.7926ZM58.6057 19.24C57.5177 19.24 56.6857 18.992 56.1097 18.496C55.5497 17.984 55.2697 17.208 55.2697 16.168V5.848H58.8697V15.736C58.8697 16.328 59.1497 16.624 59.7097 16.624C59.9497 16.624 60.2217 16.568 60.5257 16.456L60.8617 18.76C60.2537 19.08 59.5017 19.24 58.6057 19.24ZM67.6679 19.312C65.8439 19.312 64.4599 18.912 63.5159 18.112C62.5879 17.296 62.1239 16.128 62.1239 14.608V13.672C62.1239 13.032 62.1959 12.496 62.3399 12.064C62.4999 11.616 62.7079 11.216 62.9639 10.864C63.2199 10.512 63.4279 10.2 63.5879 9.928C63.7639 9.64 63.8519 9.344 63.8519 9.04C63.8519 8.752 63.7799 8.552 63.6359 8.44C63.4919 8.312 63.3159 8.248 63.1079 8.248C62.8039 8.248 62.4519 8.344 62.0519 8.536L61.4759 6.28C61.9239 6.04 62.4039 5.88 62.9159 5.8C63.4439 5.704 63.9079 5.656 64.3079 5.656C65.3639 5.656 66.1079 5.912 66.5399 6.424C66.9879 6.92 67.2119 7.592 67.2119 8.44C67.2119 8.936 67.1399 9.376 66.9959 9.76C66.8519 10.128 66.6679 10.512 66.4439 10.912C66.2199 11.28 66.0359 11.624 65.8919 11.944C65.7479 12.264 65.6759 12.728 65.6759 13.336V14.248C65.6759 15.048 65.8439 15.624 66.1799 15.976C66.5319 16.328 67.0279 16.504 67.6679 16.504C68.3559 16.504 68.8439 16.32 69.1319 15.952C69.4359 15.584 69.5879 15.072 69.5879 14.416V12.088C69.5879 11.608 69.4759 11.232 69.2519 10.96C69.0439 10.672 68.6839 10.528 68.1719 10.528H68.0519V8.632H68.1959C68.6919 8.632 69.0599 8.496 69.2999 8.224C69.5399 7.952 69.6919 7.608 69.7559 7.192C69.8359 6.76 69.8759 6.312 69.8759 5.848H73.4519C73.4519 6.84 73.3239 7.656 73.0679 8.296C72.8119 8.92 72.3639 9.344 71.7239 9.568V9.664C72.2839 9.84 72.6599 10.144 72.8519 10.576C73.0599 11.008 73.1639 11.504 73.1639 12.064V14.512C73.1639 16.096 72.6999 17.296 71.7719 18.112C70.8439 18.912 69.4759 19.312 67.6679 19.312ZM82.3471 19.312C80.1551 19.312 78.5791 18.824 77.6191 17.848C76.6751 16.856 76.2031 15.44 76.2031 13.6V5.848H79.7791V13.792C79.7791 14.672 79.9791 15.336 80.3791 15.784C80.7951 16.232 81.4671 16.456 82.3951 16.456C83.2911 16.456 83.9311 16.248 84.3151 15.832C84.6991 15.416 84.8911 14.736 84.8911 13.792V13.768H83.8831C83.1151 13.768 82.5151 13.648 82.0831 13.408C81.6511 13.152 81.3471 12.832 81.1711 12.448C80.9951 12.048 80.9071 11.648 80.9071 11.248C80.9071 10.96 80.9471 10.656 81.0271 10.336C81.1071 10.016 81.2271 9.76 81.3871 9.568L83.5231 10C83.4271 10.192 83.3791 10.416 83.3791 10.672C83.3791 10.88 83.4431 11.064 83.5711 11.224C83.6991 11.368 83.8751 11.44 84.0991 11.44H84.8911V5.848H88.4671V11.44H89.8591V13.768H88.4671C88.4351 15.56 87.9391 16.936 86.9791 17.896C86.0351 18.84 84.4911 19.312 82.3471 19.312ZM93.2864 19V13.48H91.9184V11.272H96.5264V16.264H96.6944C97.4784 16.264 98.0864 15.944 98.5184 15.304C98.9664 14.664 99.1904 13.696 99.1904 12.4C99.1904 10.912 98.8784 9.872 98.2544 9.28C97.6464 8.688 96.7424 8.392 95.5424 8.392C94.6944 8.392 93.9344 8.512 93.2624 8.752C92.5904 8.976 91.9904 9.248 91.4624 9.568V6.568C91.9904 6.296 92.6544 6.056 93.4544 5.848C94.2544 5.64 95.1904 5.536 96.2624 5.536C96.9664 5.536 97.6064 5.6 98.1824 5.728C98.7744 5.84 99.2704 6.04 99.6704 6.328C100.198 5.976 100.47 5.528 100.486 4.984H103.63C103.63 5.624 103.462 6.224 103.126 6.784C102.79 7.344 102.246 7.8 101.494 8.152C101.91 8.568 102.238 9.136 102.478 9.856C102.718 10.56 102.838 11.44 102.838 12.496C102.838 14.56 102.334 16.16 101.326 17.296C100.334 18.432 98.6704 19 96.3344 19H93.2864ZM91.4624 24.088V23.344C91.4624 22.224 91.7264 21.408 92.2544 20.896C92.7984 20.384 93.4704 20.128 94.2704 20.128C94.9104 20.128 95.4384 20.264 95.8544 20.536C96.2704 20.824 96.6384 21.208 96.9584 21.688L98.2064 20.392L99.7424 21.52V19.768H102.718V24.088H99.6224L98.2304 22.864L97.1984 24.088H96.5504C96.3904 23.752 96.1824 23.448 95.9264 23.176C95.6864 22.92 95.3824 22.792 95.0144 22.792C94.6464 22.792 94.4064 22.92 94.2944 23.176C94.1824 23.432 94.1264 23.696 94.1264 23.968V24.088H91.4624ZM97.8003 4.552C97.6723 4.328 97.5683 4.04 97.4883 3.688C97.3923 3.336 97.3443 2.984 97.3443 2.632C97.3443 1.96 97.5443 1.392 97.9443 0.927999C98.3443 0.447999 99.1043 0.207999 100.224 0.207999H103.704V2.632H101.4C100.76 2.632 100.44 2.872 100.44 3.352C100.44 3.576 100.504 3.816 100.632 4.072L97.8003 4.552ZM112.751 19L110.471 5.848H113.975L114.623 10.48C114.671 10.864 114.727 11.392 114.791 12.064C114.871 12.72 114.943 13.488 115.007 14.368H115.079C115.287 13.488 115.471 12.72 115.631 12.064C115.791 11.392 115.935 10.84 116.063 10.408L117.359 5.848H119.543L120.839 10.408C120.951 10.84 121.087 11.392 121.247 12.064C121.423 12.72 121.615 13.488 121.823 14.368H121.895C121.975 13.488 122.039 12.72 122.087 12.064C122.151 11.392 122.215 10.864 122.279 10.48L122.951 5.848H126.431L124.175 19H120.647L119.135 13.648C118.975 13.024 118.847 12.456 118.751 11.944C118.655 11.432 118.575 10.896 118.511 10.336H118.415C118.319 10.896 118.223 11.424 118.127 11.92C118.047 12.4 117.911 12.976 117.719 13.648L116.183 19H112.751ZM114.248 4.024V2.512L116.672 1.504H125.24V4.024H114.248ZM128.533 19V5.848H131.173L131.653 7.912H131.845C132.117 7.256 132.589 6.712 133.261 6.28C133.933 5.832 134.805 5.608 135.877 5.608C138.933 5.608 140.461 7.248 140.461 10.528V19H136.861V11.248C136.861 10.352 136.677 9.712 136.309 9.328C135.957 8.928 135.437 8.728 134.749 8.728C133.917 8.728 133.269 9.064 132.805 9.736C132.357 10.408 132.133 11.4 132.133 12.712V19H128.533ZM136.162 4.024C135.41 4.024 134.818 3.912 134.386 3.688C133.954 3.464 133.65 3.184 133.474 2.848C133.282 2.496 133.186 2.128 133.186 1.744C133.186 1.136 133.346 0.551999 133.666 -0.00800133L136.282 0.327999C136.202 0.567999 136.162 0.791999 136.162 0.999999C136.162 1.224 136.234 1.4 136.378 1.528C136.506 1.64 136.73 1.696 137.05 1.696H142.21V4.024H136.162ZM143.21 19V14.992C143.21 13.984 143.402 13.208 143.786 12.664C144.186 12.12 144.762 11.736 145.514 11.512L145.538 11.416L142.97 10.48V9.856C142.97 9.072 143.202 8.352 143.666 7.696C144.13 7.04 144.81 6.52 145.706 6.136C146.618 5.736 147.722 5.536 149.018 5.536C150.826 5.536 152.266 5.96 153.338 6.808C154.41 7.64 154.946 8.904 154.946 10.6V19H151.346V10.816C151.346 10.016 151.13 9.416 150.698 9.016C150.282 8.616 149.69 8.416 148.922 8.416C148.17 8.416 147.61 8.576 147.242 8.896C146.874 9.2 146.682 9.576 146.666 10.024L148.802 11.008L148.538 12.568C147.962 12.6 147.53 12.808 147.242 13.192C146.954 13.576 146.81 14.096 146.81 14.752V19H143.21ZM164.211 19.312C162.019 19.312 160.443 18.824 159.483 17.848C158.539 16.856 158.067 15.44 158.067 13.6V5.848H161.643V13.792C161.643 14.672 161.843 15.336 162.243 15.784C162.659 16.232 163.331 16.456 164.259 16.456C165.155 16.456 165.795 16.248 166.179 15.832C166.563 15.416 166.755 14.736 166.755 13.792V13.768H165.747C164.979 13.768 164.379 13.648 163.947 13.408C163.515 13.152 163.211 12.832 163.035 12.448C162.859 12.048 162.771 11.648 162.771 11.248C162.771 10.96 162.811 10.656 162.891 10.336C162.971 10.016 163.091 9.76 163.251 9.568L165.387 10C165.291 10.192 165.243 10.416 165.243 10.672C165.243 10.88 165.307 11.064 165.435 11.224C165.563 11.368 165.739 11.44 165.963 11.44H166.755V5.848H170.331V11.44H171.723V13.768H170.331C170.299 15.56 169.803 16.936 168.843 17.896C167.899 18.84 166.355 19.312 164.211 19.312ZM165.654 4.552C165.526 4.328 165.422 4.04 165.342 3.688C165.246 3.336 165.198 2.984 165.198 2.632C165.198 1.96 165.398 1.392 165.798 0.927999C166.198 0.447999 166.958 0.207999 168.078 0.207999H171.558V2.632H169.254C168.614 2.632 168.294 2.872 168.294 3.352C168.294 3.576 168.358 3.816 168.486 4.072L165.654 4.552ZM177.286 19.312C176.47 19.312 175.702 19.216 174.982 19.024C174.262 18.848 173.59 18.592 172.966 18.256L173.926 15.64C174.278 15.848 174.702 16.032 175.198 16.192C175.694 16.352 176.182 16.432 176.662 16.432C177.558 16.432 178.27 16.096 178.798 15.424C179.326 14.736 179.59 13.712 179.59 12.352C179.59 11.088 179.326 10.12 178.798 9.448C178.27 8.76 177.446 8.416 176.326 8.416C175.798 8.416 175.254 8.496 174.694 8.656C174.134 8.8 173.67 8.984 173.302 9.208V6.256C173.798 6.032 174.358 5.856 174.982 5.728C175.606 5.6 176.27 5.536 176.974 5.536C179.182 5.536 180.782 6.144 181.774 7.36C182.766 8.56 183.262 10.224 183.262 12.352C183.262 14.64 182.742 16.376 181.702 17.56C180.662 18.728 179.19 19.312 177.286 19.312ZM185.87 19V11.2C185.87 9.36 186.358 7.96 187.334 7C188.31 6.024 189.862 5.536 191.99 5.536C192.63 5.536 193.222 5.6 193.766 5.728C194.31 5.84 194.79 6.04 195.206 6.328C195.718 5.976 195.982 5.528 195.998 4.984H199.142C199.142 5.592 198.99 6.168 198.686 6.712C198.382 7.256 197.886 7.704 197.198 8.056C197.502 8.44 197.718 8.904 197.846 9.448C197.974 9.976 198.038 10.568 198.038 11.224V19H194.462V11.152C194.462 10.304 194.262 9.64 193.862 9.16C193.478 8.664 192.846 8.416 191.966 8.416C191.07 8.416 190.422 8.664 190.022 9.16C189.638 9.64 189.446 10.304 189.446 11.152V13.24L189.518 13.264C189.838 12.64 190.206 12.232 190.622 12.04C191.038 11.832 191.614 11.728 192.35 11.728H192.926V14.416H192.35C191.55 14.416 190.942 14.552 190.526 14.824C190.11 15.096 189.822 15.456 189.662 15.904C189.518 16.336 189.446 16.824 189.446 17.368V19H185.87ZM186.179 4.024V2.512L188.603 1.504H197.171V4.024H186.179ZM205.698 19.24C204.242 19.24 203.13 18.816 202.362 17.968C201.594 17.12 201.21 15.872 201.21 14.224V5.848H204.81V13.6C204.81 14.48 204.986 15.12 205.338 15.52C205.69 15.92 206.202 16.12 206.874 16.12C207.722 16.12 208.378 15.8 208.842 15.16C209.306 14.52 209.538 13.512 209.538 12.136V5.848H213.138V19H210.402L210.018 16.984H209.802C209.53 17.624 209.058 18.16 208.386 18.592C207.73 19.024 206.834 19.24 205.698 19.24Z" fill="#1F2883"/>
</svg>
