<svg width="149" height="16" viewBox="0 0 149 16" fill="none" xmlns="http://www.w3.org/2000/svg">
<path d="M4.117 15.17C2.77967 15.17 1.822 14.864 1.244 14.252C0.666 13.64 0.377 12.7673 0.377 11.634V5.684H1.89V11.651C1.89 13.1583 2.63233 13.912 4.117 13.912C4.88767 13.912 5.45433 13.725 5.817 13.351C6.191 12.977 6.378 12.4103 6.378 11.651V5.684H7.891V11.634C7.891 12.7673 7.59633 13.64 7.007 14.252C6.429 14.864 5.46567 15.17 4.117 15.17ZM13.2548 15.17C12.5861 15.17 11.9628 15.1077 11.3848 14.983C10.8181 14.847 10.3364 14.6883 9.93977 14.507L10.3818 13.283C10.7444 13.4303 11.1751 13.572 11.6738 13.708C12.1838 13.844 12.7221 13.912 13.2888 13.912C13.8894 13.912 14.3881 13.7987 14.7848 13.572C15.1814 13.3453 15.3798 13.0167 15.3798 12.586C15.3798 12.2007 15.2211 11.8833 14.9038 11.634C14.5864 11.3847 14.0764 11.1523 13.3738 10.937C12.6484 10.7103 12.0421 10.4723 11.5548 10.223C11.0674 9.96233 10.6934 9.65633 10.4328 9.305C10.1834 8.95367 10.0588 8.506 10.0588 7.962C10.0588 7.25933 10.3478 6.67567 10.9258 6.211C11.5038 5.74633 12.4274 5.514 13.6968 5.514C14.2408 5.514 14.7508 5.565 15.2268 5.667C15.7141 5.75767 16.0938 5.888 16.3658 6.058V7.333C16.0711 7.197 15.6744 7.06667 15.1758 6.942C14.6884 6.81733 14.1784 6.755 13.6458 6.755C12.8751 6.755 12.3368 6.874 12.0308 7.112C11.7248 7.33867 11.5718 7.59933 11.5718 7.894C11.5718 8.14333 11.6398 8.353 11.7758 8.523C11.9231 8.693 12.1668 8.85733 12.5068 9.016C12.8581 9.17467 13.3284 9.356 13.9178 9.56C14.4618 9.74133 14.9604 9.951 15.4138 10.189C15.8671 10.427 16.2241 10.7273 16.4848 11.09C16.7568 11.4413 16.8928 11.8947 16.8928 12.45C16.8928 12.926 16.7738 13.3737 16.5358 13.793C16.3091 14.201 15.9294 14.5353 15.3968 14.796C14.8641 15.0453 14.1501 15.17 13.2548 15.17ZM9.65263 4.205V3.542L10.8936 2.998H16.8776V4.205H9.65263ZM22.8135 15.17C21.4082 15.17 20.4109 14.8583 19.8215 14.235C19.2322 13.6003 18.9375 12.705 18.9375 11.549V5.684H20.4505V11.566C20.4505 12.3593 20.6375 12.9487 21.0115 13.334C21.3855 13.7193 21.9862 13.912 22.8135 13.912C23.6409 13.912 24.2415 13.7193 24.6155 13.334C24.9895 12.9487 25.1765 12.3593 25.1765 11.566V11.158H23.8505C23.1252 11.158 22.6265 11.005 22.3545 10.699C22.0939 10.393 21.9635 10.053 21.9635 9.679C21.9635 9.509 21.9805 9.33333 22.0145 9.152C22.0599 8.97067 22.1279 8.81767 22.2185 8.693L23.4425 8.914C23.3745 9.05 23.3405 9.21433 23.3405 9.407C23.3405 9.55433 23.3802 9.69033 23.4595 9.815C23.5502 9.93967 23.7032 10.002 23.9185 10.002H25.1765V5.684H26.6895V10.002H27.7775V11.158H26.6895V11.549C26.6895 12.705 26.3949 13.6003 25.8055 14.235C25.2162 14.8583 24.2189 15.17 22.8135 15.17ZM24.5301 4.205C23.8161 4.205 23.3118 4.06333 23.0171 3.78C22.7225 3.48533 22.5751 3.15667 22.5751 2.794C22.5751 2.624 22.6035 2.44267 22.6601 2.25C22.7055 2.046 22.7678 1.88167 22.8471 1.757L24.1221 1.978C24.0541 2.114 24.0201 2.28967 24.0201 2.505C24.0201 2.65233 24.0655 2.78267 24.1561 2.896C24.2468 2.998 24.3998 3.049 24.6151 3.049H28.9161V4.205H24.5301ZM29.8626 15V5.684H30.9166L31.1886 7.163H31.2566C31.4492 6.653 31.8006 6.25067 32.3106 5.956C32.8206 5.66133 33.4382 5.514 34.1636 5.514C35.1722 5.514 35.9656 5.77467 36.5436 6.296C37.1216 6.81733 37.4106 7.64467 37.4106 8.778V15H35.8976V8.863C35.8976 7.48033 35.2232 6.789 33.8746 6.789C33.3419 6.789 32.8886 6.91367 32.5146 7.163C32.1406 7.41233 31.8572 7.75233 31.6646 8.183C31.4719 8.60233 31.3756 9.07833 31.3756 9.611V15H29.8626ZM44.587 15V9.05C44.587 7.91667 44.8873 7.044 45.488 6.432C46.1 5.82 47.0803 5.514 48.429 5.514C49.7776 5.514 50.7523 5.82 51.353 6.432C51.965 7.044 52.271 7.91667 52.271 9.05V15H50.758V9.05C50.758 7.53133 49.976 6.772 48.412 6.772C46.8706 6.772 46.1 7.53133 46.1 9.05V10.937L46.151 10.954C46.4003 10.512 46.7063 10.223 47.069 10.087C47.4316 9.93967 47.9416 9.866 48.599 9.866H49.16V11.107H48.599C47.9076 11.107 47.3806 11.2033 47.018 11.396C46.6666 11.5887 46.423 11.8437 46.287 12.161C46.1623 12.467 46.1 12.8127 46.1 13.198V15H44.587ZM57.5623 15.17C56.565 15.17 55.8 14.9433 55.2673 14.49C54.746 14.0253 54.4853 13.3623 54.4853 12.501C54.4853 11.5603 54.8253 10.835 55.5053 10.325C56.1967 9.815 57.313 9.51467 58.8543 9.424L60.4863 9.322V8.795C60.4863 8.05833 60.3163 7.537 59.9763 7.231C59.6477 6.91367 59.0923 6.755 58.3103 6.755C57.7437 6.755 57.1997 6.83433 56.6783 6.993C56.157 7.14033 55.6697 7.35 55.2163 7.622V6.211C55.5337 6.041 55.9757 5.88233 56.5423 5.735C57.109 5.58767 57.7437 5.514 58.4463 5.514C59.6363 5.514 60.5203 5.77467 61.0983 6.296C61.6877 6.806 61.9823 7.61067 61.9823 8.71V15H60.4863V10.58L59.0583 10.682C57.9023 10.7613 57.1033 10.9427 56.6613 11.226C56.2307 11.5093 56.0153 11.923 56.0153 12.467C56.0153 12.977 56.174 13.351 56.4913 13.589C56.82 13.827 57.2733 13.946 57.8513 13.946C58.2253 13.946 58.554 13.895 58.8373 13.793L59.0753 14.932C58.86 15.0227 58.622 15.085 58.3613 15.119C58.112 15.153 57.8457 15.17 57.5623 15.17ZM54.51 4.205V3.542L55.751 2.998H61.735V4.205H54.51ZM64.6563 15V11.77C64.6563 11.056 64.8149 10.5403 65.1323 10.223C65.4496 9.89433 65.8519 9.66767 66.3393 9.543L66.3563 9.492L64.4863 8.778V8.217C64.4863 7.75233 64.6393 7.316 64.9453 6.908C65.2513 6.48867 65.6876 6.15433 66.2543 5.905C66.8209 5.64433 67.5066 5.514 68.3113 5.514C69.0026 5.514 69.6429 5.62733 70.2323 5.854C70.8216 6.06933 71.2919 6.415 71.6433 6.891C72.0059 7.35567 72.1873 7.96767 72.1873 8.727V15H70.6743V8.88C70.6743 8.12067 70.4419 7.58233 69.9773 7.265C69.5126 6.93633 68.9516 6.772 68.2943 6.772C67.5916 6.772 67.0363 6.91933 66.6283 7.214C66.2316 7.49733 66.0333 7.86 66.0333 8.302L67.8693 9.22L67.7333 10.036C67.3139 10.036 66.9456 10.1777 66.6283 10.461C66.3223 10.733 66.1693 11.1693 66.1693 11.77V15H64.6563ZM77.0426 15.17C76.7366 15.17 76.442 15.119 76.1586 15.017C75.8753 14.915 75.643 14.7337 75.4616 14.473C75.2803 14.2123 75.1896 13.8497 75.1896 13.385V5.684H76.7026V13.198C76.7026 13.4587 76.7536 13.6457 76.8556 13.759C76.969 13.8723 77.156 13.929 77.4166 13.929C77.5186 13.929 77.6263 13.9177 77.7396 13.895C77.853 13.8723 77.9606 13.844 78.0626 13.81L78.2666 14.915C78.0513 15.017 77.8416 15.085 77.6376 15.119C77.4336 15.153 77.2353 15.17 77.0426 15.17ZM83.0617 15.17C82.0643 15.17 81.2767 14.9093 80.6987 14.388C80.132 13.8667 79.8487 13.0393 79.8487 11.906V5.684H81.3617V11.821C81.3617 13.2037 82.036 13.895 83.3847 13.895C84.178 13.895 84.79 13.64 85.2207 13.13C85.6627 12.62 85.8837 11.9343 85.8837 11.073V5.684H87.3967V15H86.1387L86.0707 13.623H85.9857C85.7817 14.0877 85.4247 14.4617 84.9147 14.745C84.416 15.0283 83.7983 15.17 83.0617 15.17ZM85.6165 4.46C84.9705 4.46 84.5228 4.19933 84.2735 3.678L83.4235 4.409C82.7888 4.409 82.2788 4.25033 81.8935 3.933C81.4968 3.60433 81.2985 3.134 81.2985 2.522C81.2985 1.876 81.4968 1.4 81.8935 1.094C82.2788 0.776666 82.7265 0.618 83.2365 0.618H87.1975V1.638H83.4575C83.1968 1.638 82.9758 1.71733 82.7945 1.876C82.6018 2.03467 82.5055 2.27267 82.5055 2.59C82.5055 2.828 82.5678 3.02633 82.6925 3.185C82.8171 3.33233 83.0268 3.406 83.3215 3.406L84.2735 2.556H84.5965C84.6418 2.80533 84.7381 3.02067 84.8855 3.202C85.0215 3.372 85.2141 3.457 85.4635 3.457C85.6788 3.457 85.8431 3.39467 85.9565 3.27C86.0585 3.14533 86.1095 2.981 86.1095 2.777V2.556H87.2145V2.794C87.2145 3.36067 87.0728 3.78 86.7895 4.052C86.4948 4.324 86.1038 4.46 85.6165 4.46ZM90.1895 15V11.77C90.1895 11.056 90.3481 10.5403 90.6655 10.223C90.9828 9.89433 91.3851 9.66767 91.8725 9.543L91.8895 9.492L90.0195 8.778V8.217C90.0195 7.75233 90.1725 7.316 90.4785 6.908C90.7845 6.48867 91.2208 6.15433 91.7875 5.905C92.3541 5.64433 93.0398 5.514 93.8445 5.514C94.5358 5.514 95.1761 5.62733 95.7655 5.854C96.3548 6.06933 96.8251 6.415 97.1765 6.891C97.5391 7.35567 97.7205 7.96767 97.7205 8.727V15H96.2075V8.88C96.2075 8.12067 95.9751 7.58233 95.5105 7.265C95.0458 6.93633 94.4848 6.772 93.8275 6.772C93.1248 6.772 92.5695 6.91933 92.1615 7.214C91.7648 7.49733 91.5665 7.86 91.5665 8.302L93.4025 9.22L93.2665 10.036C92.8471 10.036 92.4788 10.1777 92.1615 10.461C91.8555 10.733 91.7025 11.1693 91.7025 11.77V15H90.1895ZM103.783 15.17C102.717 15.17 101.901 14.9093 101.335 14.388C100.768 13.8667 100.485 13.0903 100.485 12.059V10.988C100.485 10.3307 100.598 9.815 100.825 9.441C101.051 9.067 101.306 8.71567 101.59 8.387C101.76 8.19433 101.913 8.01867 102.049 7.86C102.185 7.69 102.258 7.52 102.27 7.35L102.219 7.316C102.094 7.40667 101.947 7.486 101.777 7.554C101.618 7.61067 101.437 7.639 101.233 7.639C100.825 7.639 100.49 7.503 100.23 7.231C99.9692 6.94767 99.8388 6.551 99.8388 6.041V5.684H101.165C101.165 6.33 101.346 6.653 101.709 6.653C101.822 6.653 101.947 6.63033 102.083 6.585C102.23 6.53967 102.36 6.47167 102.474 6.381L102.797 5.684H103.63V6.449C103.63 6.77767 103.618 7.06667 103.596 7.316C103.573 7.56533 103.511 7.809 103.409 8.047C103.307 8.27367 103.137 8.54 102.899 8.846C102.717 9.07267 102.559 9.271 102.423 9.441C102.298 9.611 102.196 9.80367 102.117 10.019C102.037 10.2343 101.998 10.5177 101.998 10.869V11.974C101.998 12.518 102.083 12.9317 102.253 13.215C102.423 13.487 102.644 13.674 102.916 13.776C103.188 13.878 103.477 13.929 103.783 13.929C104.372 13.929 104.825 13.7987 105.143 13.538C105.46 13.266 105.619 12.8523 105.619 12.297V9.917C105.619 9.05567 105.205 8.625 104.378 8.625H104.31V7.656H104.395C104.848 7.656 105.171 7.54833 105.364 7.333C105.568 7.11767 105.687 6.857 105.721 6.551C105.766 6.245 105.789 5.956 105.789 5.684H107.302C107.302 6.28467 107.222 6.79467 107.064 7.214C106.905 7.622 106.576 7.91667 106.078 8.098V8.166C106.497 8.29067 106.775 8.51733 106.911 8.846C107.058 9.17467 107.132 9.58267 107.132 10.07V12.382C107.132 13.2547 106.843 13.9403 106.265 14.439C105.687 14.9263 104.859 15.17 103.783 15.17ZM104.684 4.698C104.605 4.58467 104.543 4.426 104.497 4.222C104.441 4.018 104.412 3.81967 104.412 3.627C104.412 3.389 104.463 3.168 104.565 2.964C104.667 2.74867 104.849 2.573 105.109 2.437C105.359 2.301 105.721 2.233 106.197 2.233H108.526V3.406H106.588C106.362 3.406 106.18 3.45133 106.044 3.542C105.908 3.62133 105.84 3.763 105.84 3.967C105.84 4.04633 105.857 4.13133 105.891 4.222C105.914 4.31267 105.948 4.40333 105.993 4.494L104.684 4.698ZM115.452 15V10.852H114.16V9.662H116.897V13.776H117.118C117.877 13.776 118.45 13.5153 118.835 12.994C119.22 12.4613 119.413 11.566 119.413 10.308C119.413 9.05 119.198 8.149 118.767 7.605C118.336 7.04967 117.6 6.772 116.557 6.772C116.024 6.772 115.509 6.84567 115.01 6.993C114.523 7.129 114.052 7.34433 113.599 7.639V6.228C113.939 6.024 114.387 5.854 114.942 5.718C115.497 5.582 116.098 5.514 116.744 5.514C117.775 5.514 118.597 5.70667 119.209 6.092C119.832 6.466 120.28 7.01 120.552 7.724C120.824 8.438 120.96 9.305 120.96 10.325C120.96 11.311 120.824 12.1553 120.552 12.858C120.291 13.5493 119.861 14.082 119.26 14.456C118.671 14.8187 117.877 15 116.88 15H115.452ZM119.43 4.613C118.864 4.613 118.416 4.48267 118.087 4.222C117.759 3.95 117.594 3.57033 117.594 3.083C117.594 2.59567 117.759 2.22167 118.087 1.961C118.416 1.689 118.864 1.553 119.43 1.553C119.997 1.553 120.45 1.689 120.79 1.961C121.13 2.22167 121.3 2.59567 121.3 3.083C121.3 3.57033 121.13 3.95 120.79 4.222C120.45 4.48267 119.997 4.613 119.43 4.613ZM119.43 3.814C119.702 3.814 119.912 3.746 120.059 3.61C120.195 3.474 120.263 3.29833 120.263 3.083C120.263 2.86767 120.195 2.692 120.059 2.556C119.912 2.42 119.702 2.352 119.43 2.352C119.17 2.352 118.971 2.42 118.835 2.556C118.688 2.692 118.614 2.86767 118.614 3.083C118.614 3.29833 118.688 3.474 118.835 3.61C118.971 3.746 119.17 3.814 119.43 3.814ZM126.013 15V8.387C126.013 7.83167 125.883 7.42367 125.622 7.163C125.373 6.90233 124.948 6.772 124.347 6.772C123.939 6.772 123.554 6.82867 123.191 6.942C122.84 7.05533 122.5 7.20267 122.171 7.384V6.024C122.398 5.91067 122.721 5.79733 123.14 5.684C123.559 5.57067 124.058 5.514 124.636 5.514C125.52 5.514 126.223 5.71233 126.744 6.109C127.265 6.50567 127.526 7.19133 127.526 8.166V15H126.013ZM130.199 15V11.77C130.199 11.056 130.358 10.5403 130.675 10.223C130.993 9.89433 131.395 9.66767 131.882 9.543L131.899 9.492L130.029 8.778V8.217C130.029 7.75233 130.182 7.316 130.488 6.908C130.794 6.48867 131.231 6.15433 131.797 5.905C132.364 5.64433 133.05 5.514 133.854 5.514C134.546 5.514 135.186 5.62733 135.775 5.854C136.365 6.06933 136.835 6.415 137.186 6.891C137.549 7.35567 137.73 7.96767 137.73 8.727V15H136.217V8.88C136.217 8.12067 135.985 7.58233 135.52 7.265C135.056 6.93633 134.495 6.772 133.837 6.772C133.135 6.772 132.579 6.91933 132.171 7.214C131.775 7.49733 131.576 7.86 131.576 8.302L133.412 9.22L133.276 10.036C132.857 10.036 132.489 10.1777 132.171 10.461C131.865 10.733 131.712 11.1693 131.712 11.77V15H130.199ZM135.395 4.205C134.681 4.205 134.177 4.06333 133.882 3.78C133.588 3.48533 133.44 3.15667 133.44 2.794C133.44 2.624 133.469 2.44267 133.525 2.25C133.571 2.046 133.633 1.88167 133.712 1.757L134.987 1.978C134.919 2.114 134.885 2.28967 134.885 2.505C134.885 2.65233 134.931 2.78267 135.021 2.896C135.112 2.998 135.265 3.049 135.48 3.049H139.781V4.205H135.395ZM143.657 15.17C142.75 15.17 142.036 14.9603 141.515 14.541C141.005 14.1103 140.642 13.538 140.427 12.824C140.223 12.0987 140.121 11.294 140.121 10.41C140.121 9.12933 140.296 8.13767 140.648 7.435C140.999 6.721 141.486 6.22233 142.11 5.939C142.733 5.65567 143.464 5.514 144.303 5.514C145.663 5.514 146.649 5.80867 147.261 6.398C147.884 6.98733 148.196 7.78633 148.196 8.795V15H146.7V8.931C146.7 8.23967 146.524 7.707 146.173 7.333C145.821 6.959 145.215 6.772 144.354 6.772C143.821 6.772 143.351 6.86833 142.943 7.061C142.535 7.25367 142.212 7.61067 141.974 8.132C141.747 8.65333 141.634 9.41833 141.634 10.427C141.634 11.0843 141.696 11.6793 141.821 12.212C141.957 12.7333 142.189 13.147 142.518 13.453C142.846 13.759 143.305 13.912 143.895 13.912C144.065 13.912 144.223 13.9007 144.371 13.878C144.518 13.8553 144.66 13.8213 144.796 13.776L144.949 14.949C144.767 15.0283 144.558 15.085 144.32 15.119C144.093 15.153 143.872 15.17 143.657 15.17Z" fill="#262E3F"/>
</svg>
