<svg width="279" height="20" viewBox="0 0 279 20" fill="none" xmlns="http://www.w3.org/2000/svg">
<path d="M0.404 15V8.826C0.404 7.578 0.74 6.618 1.412 5.946C2.084 5.274 3.152 4.938 4.616 4.938C6.092 4.938 7.16 5.274 7.82 5.946C8.492 6.618 8.828 7.578 8.828 8.826V15H6.902V8.826C6.902 7.29 6.134 6.522 4.598 6.522C3.074 6.522 2.312 7.29 2.312 8.826V10.698L2.366 10.716C2.618 10.248 2.924 9.942 3.284 9.798C3.656 9.642 4.166 9.564 4.814 9.564H5.372V11.076H4.814C4.13 11.076 3.608 11.178 3.248 11.382C2.888 11.586 2.642 11.856 2.51 12.192C2.378 12.528 2.312 12.894 2.312 13.29V15H0.404ZM13.5988 15.18C12.9988 15.18 12.4888 15.036 12.0688 14.748C11.6488 14.448 11.4388 13.92 11.4388 13.164V11.598C11.4388 10.866 11.6008 10.332 11.9248 9.996C12.2488 9.66 12.6688 9.42 13.1848 9.276L13.2028 9.204L11.1688 8.466V7.908C11.1688 7.356 11.3308 6.858 11.6548 6.414C11.9788 5.958 12.4408 5.598 13.0408 5.334C13.6528 5.07 14.3728 4.938 15.2008 4.938C15.9328 4.938 16.5988 5.058 17.1988 5.298C17.8108 5.526 18.2968 5.892 18.6568 6.396C19.0288 6.9 19.2148 7.566 19.2148 8.394V11.616C19.2148 12.288 19.3648 12.78 19.6648 13.092C19.9648 13.392 20.3668 13.542 20.8708 13.542C21.5428 13.542 22.0768 13.29 22.4728 12.786C22.8808 12.282 23.0848 11.61 23.0848 10.77V5.136H25.0108V15H23.4628L23.3188 13.434H23.2108C23.0068 13.974 22.6468 14.4 22.1308 14.712C21.6268 15.024 21.0388 15.18 20.3668 15.18C19.4188 15.18 18.6688 14.928 18.1168 14.424C17.5768 13.92 17.3068 13.08 17.3068 11.904V8.574C17.3068 8.034 17.2048 7.614 17.0008 7.314C16.8088 7.014 16.5508 6.804 16.2268 6.684C15.9028 6.564 15.5548 6.504 15.1828 6.504C14.5948 6.504 14.1088 6.63 13.7248 6.882C13.3528 7.134 13.1548 7.506 13.1308 7.998L15.0388 8.898L14.8948 9.852C14.4388 9.864 14.0668 9.996 13.7788 10.248C13.4908 10.488 13.3468 10.908 13.3468 11.508V12.948C13.3468 13.452 13.5988 13.704 14.1028 13.704C14.3428 13.704 14.5588 13.668 14.7508 13.596L14.9848 14.892C14.7568 15 14.5288 15.072 14.3008 15.108C14.0728 15.156 13.8388 15.18 13.5988 15.18ZM29.1687 8.916C28.4007 8.916 27.8547 8.748 27.5307 8.412C27.2187 8.076 27.0627 7.704 27.0627 7.296C27.0627 6.9 27.1647 6.528 27.3687 6.18L28.9167 6.396C28.8927 6.468 28.8627 6.558 28.8267 6.666C28.8027 6.762 28.7907 6.864 28.7907 6.972C28.7907 7.14 28.8327 7.272 28.9167 7.368C29.0127 7.464 29.1747 7.512 29.4027 7.512H31.8147V8.916H29.1687ZM29.1687 13.956C28.4007 13.956 27.8547 13.788 27.5307 13.452C27.2187 13.116 27.0627 12.744 27.0627 12.336C27.0627 11.94 27.1647 11.568 27.3687 11.22L28.9167 11.436C28.8927 11.508 28.8627 11.598 28.8267 11.706C28.8027 11.802 28.7907 11.904 28.7907 12.012C28.7907 12.18 28.8327 12.312 28.9167 12.408C29.0127 12.504 29.1747 12.552 29.4027 12.552H31.8147V13.956H29.1687ZM35.9322 15.198C35.4282 15.198 34.9422 15.144 34.4742 15.036C34.0062 14.928 33.5262 14.742 33.0342 14.478L33.6102 13.038C33.8742 13.194 34.1802 13.332 34.5282 13.452C34.8762 13.56 35.2602 13.614 35.6802 13.614C36.4962 13.614 37.1382 13.314 37.6062 12.714C38.0742 12.102 38.3082 11.208 38.3082 10.032C38.3082 8.892 38.0682 8.022 37.5882 7.422C37.1082 6.822 36.3762 6.522 35.3922 6.522C35.0082 6.522 34.6122 6.57 34.2042 6.666C33.8082 6.75 33.4602 6.876 33.1602 7.044V5.442C33.5082 5.262 33.8982 5.136 34.3302 5.064C34.7742 4.98 35.2182 4.938 35.6622 4.938C36.7542 4.938 37.6362 5.148 38.3082 5.568C38.9922 5.988 39.4902 6.582 39.8022 7.35C40.1262 8.106 40.2882 9 40.2882 10.032C40.2882 11.652 39.9162 12.918 39.1722 13.83C38.4402 14.742 37.3602 15.198 35.9322 15.198ZM32.0211 3.624V2.796L33.4791 2.166H39.8511V3.624H32.0211ZM42.377 15V8.826C42.377 7.578 42.713 6.618 43.385 5.946C44.057 5.274 45.125 4.938 46.589 4.938C47.093 4.938 47.549 4.986 47.957 5.082C48.365 5.178 48.719 5.334 49.019 5.55C49.235 5.442 49.415 5.304 49.559 5.136C49.703 4.956 49.775 4.74 49.775 4.488H51.575C51.575 4.956 51.443 5.364 51.179 5.712C50.927 6.06 50.573 6.324 50.117 6.504C50.357 6.768 50.531 7.104 50.639 7.512C50.747 7.908 50.801 8.352 50.801 8.844V15H48.875V8.826C48.875 7.29 48.113 6.522 46.589 6.522C45.053 6.522 44.285 7.29 44.285 8.826V10.698L44.339 10.716C44.603 10.248 44.915 9.942 45.275 9.798C45.635 9.642 46.145 9.564 46.805 9.564H47.345V11.076H46.805C46.109 11.076 45.581 11.178 45.221 11.382C44.861 11.586 44.615 11.856 44.483 12.192C44.351 12.528 44.285 12.894 44.285 13.29V15H42.377ZM55.818 15.198C55.314 15.198 54.828 15.144 54.36 15.036C53.892 14.928 53.412 14.742 52.92 14.478L53.496 13.038C53.76 13.194 54.066 13.332 54.414 13.452C54.762 13.56 55.146 13.614 55.566 13.614C56.382 13.614 57.024 13.314 57.492 12.714C57.96 12.102 58.194 11.208 58.194 10.032C58.194 8.892 57.954 8.022 57.474 7.422C56.994 6.822 56.262 6.522 55.278 6.522C54.894 6.522 54.498 6.57 54.09 6.666C53.694 6.75 53.346 6.876 53.046 7.044V5.442C53.394 5.262 53.784 5.136 54.216 5.064C54.66 4.98 55.104 4.938 55.548 4.938C56.64 4.938 57.522 5.148 58.194 5.568C58.878 5.988 59.376 6.582 59.688 7.35C60.012 8.106 60.174 9 60.174 10.032C60.174 11.652 59.802 12.918 59.058 13.83C58.326 14.742 57.246 15.198 55.818 15.198ZM62.3528 15V11.706C62.3528 10.95 62.5148 10.392 62.8388 10.032C63.1628 9.672 63.5888 9.42 64.1168 9.276L64.1348 9.204L62.1728 8.466V7.908C62.1728 7.392 62.3348 6.912 62.6588 6.468C62.9948 6.012 63.4748 5.646 64.0988 5.37C64.7228 5.082 65.4788 4.938 66.3668 4.938C67.1468 4.938 67.8548 5.064 68.4908 5.316C69.1268 5.556 69.6308 5.94 70.0028 6.468C70.3748 6.984 70.5608 7.65 70.5608 8.466V15H68.6348V8.628C68.6348 7.884 68.4188 7.35 67.9868 7.026C67.5548 6.69 67.0028 6.522 66.3308 6.522C65.6468 6.522 65.1128 6.666 64.7288 6.954C64.3448 7.23 64.1468 7.584 64.1348 8.016L65.9888 8.916L65.8268 9.87C65.3708 9.882 64.9988 10.032 64.7108 10.32C64.4228 10.608 64.2788 11.052 64.2788 11.652V15H62.3528ZM76.1484 15.198C75.4404 15.198 74.7624 15.126 74.1144 14.982C73.4784 14.838 72.9324 14.658 72.4764 14.442L73.0344 12.894C73.4064 13.05 73.8624 13.212 74.4024 13.38C74.9544 13.548 75.5304 13.632 76.1304 13.632C76.7184 13.632 77.1984 13.53 77.5704 13.326C77.9424 13.11 78.1284 12.798 78.1284 12.39C78.1284 12.018 77.9544 11.712 77.6064 11.472C77.2584 11.232 76.7304 10.998 76.0224 10.77C74.9304 10.422 74.0904 10.026 73.5024 9.582C72.9264 9.126 72.6384 8.472 72.6384 7.62C72.6384 6.804 72.9624 6.156 73.6104 5.676C74.2704 5.184 75.2544 4.938 76.5624 4.938C77.1624 4.938 77.7204 4.992 78.2364 5.1C78.7644 5.208 79.1724 5.346 79.4604 5.514V7.098C79.1484 6.954 78.7224 6.816 78.1824 6.684C77.6544 6.552 77.1144 6.486 76.5624 6.486C75.8424 6.486 75.3264 6.594 75.0144 6.81C74.7144 7.014 74.5644 7.26 74.5644 7.548C74.5644 7.92 74.7444 8.208 75.1044 8.412C75.4764 8.616 76.1004 8.868 76.9764 9.168C77.5764 9.372 78.1044 9.6 78.5604 9.852C79.0284 10.104 79.3944 10.422 79.6584 10.806C79.9224 11.178 80.0544 11.658 80.0544 12.246C80.0544 12.762 79.9284 13.248 79.6764 13.704C79.4364 14.148 79.0284 14.508 78.4524 14.784C77.8884 15.06 77.1204 15.198 76.1484 15.198ZM84.9157 15.198C84.2077 15.198 83.5297 15.126 82.8817 14.982C82.2457 14.838 81.6997 14.658 81.2437 14.442L81.8017 12.894C82.1737 13.05 82.6297 13.212 83.1697 13.38C83.7217 13.548 84.2977 13.632 84.8977 13.632C85.4857 13.632 85.9657 13.53 86.3377 13.326C86.7097 13.11 86.8957 12.798 86.8957 12.39C86.8957 12.018 86.7217 11.712 86.3737 11.472C86.0257 11.232 85.4977 10.998 84.7897 10.77C83.6977 10.422 82.8577 10.026 82.2697 9.582C81.6937 9.126 81.4057 8.472 81.4057 7.62C81.4057 6.804 81.7297 6.156 82.3777 5.676C83.0377 5.184 84.0217 4.938 85.3297 4.938C85.9297 4.938 86.4877 4.992 87.0037 5.1C87.5317 5.208 87.9397 5.346 88.2277 5.514V7.098C87.9157 6.954 87.4897 6.816 86.9497 6.684C86.4217 6.552 85.8817 6.486 85.3297 6.486C84.6097 6.486 84.0937 6.594 83.7817 6.81C83.4817 7.014 83.3317 7.26 83.3317 7.548C83.3317 7.92 83.5117 8.208 83.8717 8.412C84.2437 8.616 84.8677 8.868 85.7437 9.168C86.3437 9.372 86.8717 9.6 87.3277 9.852C87.7957 10.104 88.1617 10.422 88.4257 10.806C88.6897 11.178 88.8217 11.658 88.8217 12.246C88.8217 12.762 88.6957 13.248 88.4437 13.704C88.2037 14.148 87.7957 14.508 87.2197 14.784C86.6557 15.06 85.8877 15.198 84.9157 15.198ZM95.789 15.18C94.997 15.18 94.325 15.024 93.773 14.712C93.233 14.4 92.861 13.974 92.657 13.434H92.549L92.405 15H90.875V5.136H92.801V10.554C92.801 11.502 93.017 12.24 93.449 12.768C93.881 13.284 94.493 13.542 95.285 13.542C96.581 13.542 97.229 12.84 97.229 11.436V5.136H99.155V11.688C99.155 12.864 98.861 13.74 98.273 14.316C97.685 14.892 96.857 15.18 95.789 15.18ZM101.766 15V8.826C101.766 7.578 102.102 6.618 102.774 5.946C103.446 5.274 104.514 4.938 105.978 4.938C106.482 4.938 106.938 4.986 107.346 5.082C107.754 5.178 108.108 5.334 108.408 5.55C108.624 5.442 108.804 5.304 108.948 5.136C109.092 4.956 109.164 4.74 109.164 4.488H110.964C110.964 4.956 110.832 5.364 110.568 5.712C110.316 6.06 109.962 6.324 109.506 6.504C109.746 6.768 109.92 7.104 110.028 7.512C110.136 7.908 110.19 8.352 110.19 8.844V15H108.264V8.826C108.264 7.29 107.502 6.522 105.978 6.522C104.442 6.522 103.674 7.29 103.674 8.826V10.698L103.728 10.716C103.992 10.248 104.304 9.942 104.664 9.798C105.024 9.642 105.534 9.564 106.194 9.564H106.734V11.076H106.194C105.498 11.076 104.97 11.178 104.61 11.382C104.25 11.586 104.004 11.856 103.872 12.192C103.74 12.528 103.674 12.894 103.674 13.29V15H101.766ZM115.783 15V8.142C115.783 7.578 115.651 7.164 115.387 6.9C115.123 6.636 114.691 6.504 114.091 6.504C113.671 6.504 113.281 6.564 112.921 6.684C112.561 6.792 112.213 6.942 111.877 7.134V5.478C112.129 5.358 112.477 5.238 112.921 5.118C113.377 4.998 113.917 4.938 114.541 4.938C115.489 4.938 116.251 5.154 116.827 5.586C117.415 6.018 117.709 6.768 117.709 7.836V15H115.783ZM123.001 15.18C121.957 15.18 121.153 14.94 120.589 14.46C120.037 13.968 119.761 13.266 119.761 12.354C119.761 11.37 120.115 10.602 120.823 10.05C121.531 9.498 122.689 9.174 124.297 9.078L126.061 8.952V8.484C126.061 7.764 125.893 7.254 125.557 6.954C125.221 6.642 124.663 6.486 123.883 6.486C123.271 6.486 122.683 6.57 122.119 6.738C121.555 6.906 121.039 7.128 120.571 7.404V5.694C120.919 5.514 121.393 5.346 121.993 5.19C122.605 5.022 123.295 4.938 124.063 4.938C124.543 4.938 124.975 4.98 125.359 5.064C125.743 5.136 126.061 5.274 126.313 5.478C126.493 5.37 126.643 5.238 126.763 5.082C126.883 4.914 126.943 4.716 126.943 4.488H128.743C128.743 4.932 128.623 5.322 128.383 5.658C128.143 5.994 127.819 6.258 127.411 6.45C127.603 6.678 127.741 6.96 127.825 7.296C127.921 7.632 127.969 8.016 127.969 8.448V15H126.061V10.482L124.531 10.59C123.463 10.674 122.719 10.854 122.299 11.13C121.891 11.394 121.687 11.784 121.687 12.3C121.687 12.792 121.843 13.152 122.155 13.38C122.467 13.608 122.893 13.722 123.433 13.722C123.781 13.722 124.111 13.674 124.423 13.578L124.657 14.928C124.189 15.096 123.637 15.18 123.001 15.18ZM134.18 15.18C133.148 15.18 132.35 14.952 131.786 14.496C131.234 14.04 130.844 13.416 130.616 12.624C130.4 11.832 130.292 10.92 130.292 9.888C130.292 8.136 130.544 6.876 131.048 6.108C131.552 5.34 132.284 4.956 133.244 4.956C133.664 4.956 134.024 5.034 134.324 5.19C134.624 5.334 134.846 5.586 134.99 5.946H135.062C135.194 5.574 135.422 5.316 135.746 5.172C136.082 5.028 136.466 4.956 136.898 4.956C137.69 4.956 138.296 5.166 138.716 5.586C139.148 6.006 139.364 6.642 139.364 7.494V15H137.438V7.656C137.438 7.224 137.348 6.93 137.168 6.774C136.988 6.618 136.754 6.54 136.466 6.54C136.154 6.54 135.926 6.618 135.782 6.774C135.638 6.93 135.548 7.188 135.512 7.548H134.486C134.438 7.152 134.318 6.888 134.126 6.756C133.946 6.612 133.742 6.54 133.514 6.54C133.082 6.54 132.758 6.798 132.542 7.314C132.326 7.83 132.218 8.694 132.218 9.906C132.218 10.686 132.278 11.358 132.398 11.922C132.518 12.474 132.734 12.9 133.046 13.2C133.37 13.488 133.838 13.632 134.45 13.632C134.654 13.632 134.828 13.62 134.972 13.596C135.116 13.572 135.254 13.542 135.386 13.506L135.584 14.946C135.392 15.03 135.176 15.09 134.936 15.126C134.696 15.162 134.444 15.18 134.18 15.18ZM144.92 15.198C144.212 15.198 143.534 15.126 142.886 14.982C142.25 14.838 141.704 14.658 141.248 14.442L141.806 12.894C142.178 13.05 142.634 13.212 143.174 13.38C143.726 13.548 144.302 13.632 144.902 13.632C145.49 13.632 145.97 13.53 146.342 13.326C146.714 13.11 146.9 12.798 146.9 12.39C146.9 12.018 146.726 11.712 146.378 11.472C146.03 11.232 145.502 10.998 144.794 10.77C143.702 10.422 142.862 10.026 142.274 9.582C141.698 9.126 141.41 8.472 141.41 7.62C141.41 6.804 141.734 6.156 142.382 5.676C143.042 5.184 144.026 4.938 145.334 4.938C145.934 4.938 146.492 4.992 147.008 5.1C147.536 5.208 147.944 5.346 148.232 5.514V7.098C147.92 6.954 147.494 6.816 146.954 6.684C146.426 6.552 145.886 6.486 145.334 6.486C144.614 6.486 144.098 6.594 143.786 6.81C143.486 7.014 143.336 7.26 143.336 7.548C143.336 7.92 143.516 8.208 143.876 8.412C144.248 8.616 144.872 8.868 145.748 9.168C146.348 9.372 146.876 9.6 147.332 9.852C147.8 10.104 148.166 10.422 148.43 10.806C148.694 11.178 148.826 11.658 148.826 12.246C148.826 12.762 148.7 13.248 148.448 13.704C148.208 14.148 147.8 14.508 147.224 14.784C146.66 15.06 145.892 15.198 144.92 15.198ZM145.39 4.11C145.306 3.978 145.24 3.798 145.192 3.57C145.132 3.342 145.102 3.114 145.102 2.886C145.102 2.466 145.24 2.1 145.516 1.788C145.78 1.476 146.296 1.32 147.064 1.32H149.566V2.724H147.622C147.106 2.724 146.848 2.916 146.848 3.3C146.848 3.396 146.866 3.492 146.902 3.588C146.926 3.684 146.962 3.774 147.01 3.858L145.39 4.11ZM160.109 15.18C159.317 15.18 158.645 15.024 158.093 14.712C157.553 14.4 157.181 13.974 156.977 13.434H156.869L156.725 15H155.195V5.136H157.121V10.554C157.121 11.502 157.337 12.24 157.769 12.768C158.201 13.284 158.813 13.542 159.605 13.542C160.901 13.542 161.549 12.84 161.549 11.436V5.136H163.475V11.688C163.475 12.864 163.181 13.74 162.593 14.316C162.005 14.892 161.177 15.18 160.109 15.18ZM166.23 15V5.136H168.138V9.24H168.21L172.008 5.136H174.204V5.208L171.396 8.124C172.332 8.22 173.04 8.568 173.52 9.168C174.012 9.756 174.258 10.512 174.258 11.436V15H172.332V11.598C172.332 10.962 172.152 10.464 171.792 10.104C171.432 9.744 170.862 9.54 170.082 9.492L168.138 11.508V15H166.23ZM179.382 15V8.142C179.382 7.578 179.25 7.164 178.986 6.9C178.722 6.636 178.29 6.504 177.69 6.504C177.27 6.504 176.88 6.564 176.52 6.684C176.16 6.792 175.812 6.942 175.476 7.134V5.478C175.728 5.358 176.076 5.238 176.52 5.118C176.976 4.998 177.516 4.938 178.14 4.938C179.088 4.938 179.85 5.154 180.426 5.586C181.014 6.018 181.308 6.768 181.308 7.836V15H179.382ZM186.097 15.198C185.593 15.198 185.107 15.144 184.639 15.036C184.171 14.928 183.691 14.742 183.199 14.478L183.775 13.038C184.039 13.194 184.345 13.332 184.693 13.452C185.041 13.56 185.425 13.614 185.845 13.614C186.661 13.614 187.303 13.314 187.771 12.714C188.239 12.102 188.473 11.208 188.473 10.032C188.473 8.892 188.233 8.022 187.753 7.422C187.273 6.822 186.541 6.522 185.557 6.522C185.173 6.522 184.777 6.57 184.369 6.666C183.973 6.75 183.625 6.876 183.325 7.044V5.442C183.673 5.262 184.063 5.136 184.495 5.064C184.939 4.98 185.383 4.938 185.827 4.938C186.919 4.938 187.801 5.148 188.473 5.568C189.157 5.988 189.655 6.582 189.967 7.35C190.291 8.106 190.453 9 190.453 10.032C190.453 11.652 190.081 12.918 189.337 13.83C188.605 14.742 187.525 15.198 186.097 15.198ZM182.185 3.624V2.796L183.643 2.166H190.015V3.624H182.185ZM192.613 15V5.136H193.981L194.287 6.702H194.377C194.581 6.174 194.947 5.754 195.475 5.442C196.015 5.118 196.675 4.956 197.455 4.956C198.547 4.956 199.393 5.244 199.993 5.82C200.593 6.384 200.893 7.272 200.893 8.484V15H198.967V8.7C198.967 7.296 198.307 6.594 196.987 6.594C196.207 6.594 195.601 6.876 195.169 7.44C194.749 7.992 194.539 8.706 194.539 9.582V15H192.613ZM207.412 15.18C205.912 15.18 204.85 14.904 204.226 14.352C203.602 13.788 203.29 13.044 203.29 12.12C203.29 11.568 203.368 11.13 203.524 10.806C203.692 10.482 203.902 10.236 204.154 10.068C204.406 9.9 204.664 9.792 204.928 9.744V9.672C204.676 9.6 204.418 9.48 204.154 9.312C203.902 9.144 203.686 8.91 203.506 8.61C203.338 8.31 203.254 7.932 203.254 7.476C203.254 7.056 203.35 6.66 203.542 6.288C203.746 5.904 204.064 5.592 204.496 5.352C204.94 5.112 205.528 4.992 206.26 4.992C206.572 4.992 206.89 5.016 207.214 5.064C207.538 5.112 207.79 5.184 207.97 5.28L207.646 6.684C207.526 6.648 207.364 6.612 207.16 6.576C206.956 6.54 206.752 6.522 206.548 6.522C206.092 6.522 205.75 6.63 205.522 6.846C205.306 7.062 205.198 7.344 205.198 7.692C205.198 8.076 205.294 8.37 205.486 8.574C205.678 8.766 205.924 8.898 206.224 8.97C206.536 9.042 206.854 9.078 207.178 9.078H207.538V10.392H207.178C206.518 10.392 206.032 10.512 205.72 10.752C205.408 10.992 205.252 11.382 205.252 11.922C205.252 12.222 205.312 12.504 205.432 12.768C205.564 13.032 205.786 13.248 206.098 13.416C206.41 13.572 206.854 13.65 207.43 13.65C208.27 13.65 208.846 13.476 209.158 13.128C209.47 12.78 209.626 12.312 209.626 11.724V5.136H211.552V11.616C211.552 12.864 211.216 13.77 210.544 14.334C209.884 14.898 208.84 15.18 207.412 15.18ZM216.89 15V8.142C216.89 7.578 216.758 7.164 216.494 6.9C216.23 6.636 215.798 6.504 215.198 6.504C214.778 6.504 214.388 6.564 214.028 6.684C213.668 6.792 213.32 6.942 212.984 7.134V5.478C213.236 5.358 213.584 5.238 214.028 5.118C214.484 4.998 215.024 4.938 215.648 4.938C216.596 4.938 217.358 5.154 217.934 5.586C218.522 6.018 218.816 6.768 218.816 7.836V15H216.89ZM224.109 15.18C223.065 15.18 222.261 14.94 221.697 14.46C221.145 13.968 220.869 13.266 220.869 12.354C220.869 11.37 221.223 10.602 221.931 10.05C222.639 9.498 223.797 9.174 225.405 9.078L227.169 8.952V8.484C227.169 7.764 227.001 7.254 226.665 6.954C226.329 6.642 225.771 6.486 224.991 6.486C224.379 6.486 223.791 6.57 223.227 6.738C222.663 6.906 222.147 7.128 221.679 7.404V5.694C222.027 5.514 222.501 5.346 223.101 5.19C223.713 5.022 224.409 4.938 225.189 4.938C226.437 4.938 227.397 5.214 228.069 5.766C228.741 6.306 229.077 7.2 229.077 8.448V15H227.169V10.482L225.639 10.59C224.571 10.674 223.827 10.854 223.407 11.13C222.999 11.394 222.795 11.784 222.795 12.3C222.795 12.792 222.951 13.152 223.263 13.38C223.575 13.608 224.001 13.722 224.541 13.722C224.889 13.722 225.219 13.674 225.531 13.578L225.765 14.928C225.297 15.096 224.745 15.18 224.109 15.18ZM226.255 3.624C225.475 3.624 224.929 3.468 224.617 3.156C224.305 2.832 224.149 2.472 224.149 2.076C224.149 1.884 224.179 1.68 224.239 1.464C224.287 1.248 224.359 1.062 224.455 0.905999L225.985 1.14C225.961 1.2 225.937 1.284 225.913 1.392C225.889 1.5 225.877 1.602 225.877 1.698C225.877 1.854 225.925 1.986 226.021 2.094C226.117 2.202 226.285 2.256 226.525 2.256H230.881V3.624H226.255ZM235.415 15.18C233.915 15.18 232.853 14.904 232.229 14.352C231.605 13.788 231.293 13.044 231.293 12.12C231.293 11.568 231.371 11.13 231.527 10.806C231.695 10.482 231.905 10.236 232.157 10.068C232.409 9.9 232.667 9.792 232.931 9.744V9.672C232.679 9.6 232.421 9.48 232.157 9.312C231.905 9.144 231.689 8.91 231.509 8.61C231.341 8.31 231.257 7.932 231.257 7.476C231.257 7.056 231.353 6.66 231.545 6.288C231.749 5.904 232.067 5.592 232.499 5.352C232.943 5.112 233.531 4.992 234.263 4.992C234.575 4.992 234.893 5.016 235.217 5.064C235.541 5.112 235.793 5.184 235.973 5.28L235.649 6.684C235.529 6.648 235.367 6.612 235.163 6.576C234.959 6.54 234.755 6.522 234.551 6.522C234.095 6.522 233.753 6.63 233.525 6.846C233.309 7.062 233.201 7.344 233.201 7.692C233.201 8.076 233.297 8.37 233.489 8.574C233.681 8.766 233.927 8.898 234.227 8.97C234.539 9.042 234.857 9.078 235.181 9.078H235.541V10.392H235.181C234.521 10.392 234.035 10.512 233.723 10.752C233.411 10.992 233.255 11.382 233.255 11.922C233.255 12.222 233.315 12.504 233.435 12.768C233.567 13.032 233.789 13.248 234.101 13.416C234.413 13.572 234.857 13.65 235.433 13.65C236.273 13.65 236.849 13.476 237.161 13.128C237.473 12.78 237.629 12.312 237.629 11.724V5.136H239.555V11.616C239.555 12.864 239.219 13.77 238.547 14.334C237.887 14.898 236.843 15.18 235.415 15.18ZM246.261 15.198C244.797 15.198 243.747 14.862 243.111 14.19C242.475 13.518 242.157 12.558 242.157 11.31V5.136H244.083V11.364C244.083 12.108 244.257 12.672 244.605 13.056C244.965 13.428 245.517 13.614 246.261 13.614C247.017 13.614 247.569 13.428 247.917 13.056C248.277 12.672 248.457 12.108 248.457 11.364V5.136H250.383V11.31C250.383 12.558 250.059 13.518 249.411 14.19C248.775 14.862 247.725 15.198 246.261 15.198ZM247.334 19.77C246.506 19.77 245.888 19.62 245.48 19.32C245.06 19.02 244.85 18.6 244.85 18.06V17.754C244.85 17.55 244.802 17.424 244.706 17.376C244.598 17.34 244.454 17.346 244.274 17.394L244.148 16.278C244.316 16.218 244.502 16.182 244.706 16.17C244.898 16.158 245.048 16.152 245.156 16.152C245.612 16.152 245.942 16.248 246.146 16.44C246.338 16.632 246.434 16.902 246.434 17.25V17.808C246.434 18.036 246.5 18.216 246.632 18.348C246.764 18.492 246.986 18.564 247.298 18.564C247.622 18.564 247.85 18.492 247.982 18.348C248.102 18.216 248.162 18.036 248.162 17.808V16.206H249.8V17.952C249.8 19.164 248.978 19.77 247.334 19.77ZM255.788 15.198C255.08 15.198 254.402 15.126 253.754 14.982C253.118 14.838 252.572 14.658 252.116 14.442L252.674 12.894C253.046 13.05 253.502 13.212 254.042 13.38C254.594 13.548 255.17 13.632 255.77 13.632C256.358 13.632 256.838 13.53 257.21 13.326C257.582 13.11 257.768 12.798 257.768 12.39C257.768 12.018 257.594 11.712 257.246 11.472C256.898 11.232 256.37 10.998 255.662 10.77C254.57 10.422 253.73 10.026 253.142 9.582C252.566 9.126 252.278 8.472 252.278 7.62C252.278 6.804 252.602 6.156 253.25 5.676C253.91 5.184 254.894 4.938 256.202 4.938C256.802 4.938 257.36 4.992 257.876 5.1C258.404 5.208 258.812 5.346 259.1 5.514V7.098C258.788 6.954 258.362 6.816 257.822 6.684C257.294 6.552 256.754 6.486 256.202 6.486C255.482 6.486 254.966 6.594 254.654 6.81C254.354 7.014 254.204 7.26 254.204 7.548C254.204 7.92 254.384 8.208 254.744 8.412C255.116 8.616 255.74 8.868 256.616 9.168C257.216 9.372 257.744 9.6 258.2 9.852C258.668 10.104 259.034 10.422 259.298 10.806C259.562 11.178 259.694 11.658 259.694 12.246C259.694 12.762 259.568 13.248 259.316 13.704C259.076 14.148 258.668 14.508 258.092 14.784C257.528 15.06 256.76 15.198 255.788 15.198ZM262.647 15L260.883 5.136H262.809L263.457 9.186C263.505 9.522 263.553 9.954 263.601 10.482C263.661 11.01 263.733 11.64 263.817 12.372H263.871C264.027 11.64 264.177 11.01 264.321 10.482C264.465 9.942 264.585 9.492 264.681 9.132L265.815 5.136H267.237L268.389 9.132C268.485 9.492 268.599 9.942 268.731 10.482C268.875 11.01 269.031 11.64 269.199 12.372H269.253C269.325 11.64 269.385 11.01 269.433 10.482C269.493 9.954 269.553 9.522 269.613 9.186L270.261 5.136H272.187L270.441 15H268.551L267.057 10.032C266.961 9.696 266.871 9.354 266.787 9.006C266.715 8.658 266.649 8.238 266.589 7.746H266.517C266.433 8.238 266.349 8.658 266.265 9.006C266.181 9.342 266.091 9.684 265.995 10.032L264.501 15H262.647ZM276.833 15V8.142C276.833 7.578 276.701 7.164 276.437 6.9C276.173 6.636 275.741 6.504 275.141 6.504C274.721 6.504 274.331 6.564 273.971 6.684C273.611 6.792 273.263 6.942 272.927 7.134V5.478C273.179 5.358 273.527 5.238 273.971 5.118C274.427 4.998 274.967 4.938 275.591 4.938C276.539 4.938 277.301 5.154 277.877 5.586C278.465 6.018 278.759 6.768 278.759 7.836V15H276.833Z" fill="#359EFF"/>
</svg>
