<svg width="303" height="46" viewBox="0 0 303 46" fill="none" xmlns="http://www.w3.org/2000/svg">
<path d="M0.534754 17V9.333C0.534754 8.84567 0.631087 8.47167 0.823754 8.211C1.01642 7.95033 1.26575 7.769 1.57175 7.667C1.87775 7.565 2.20642 7.514 2.55775 7.514C2.68242 7.514 2.84109 7.531 3.03375 7.565C3.23775 7.599 3.41342 7.65 3.56075 7.718L3.37375 8.857C3.26042 8.823 3.14709 8.80033 3.03375 8.789C2.92042 8.76633 2.82975 8.755 2.76175 8.755C2.47842 8.755 2.28009 8.823 2.16675 8.959C2.06475 9.095 2.01375 9.28767 2.01375 9.537V12.172C2.01375 12.5233 2.00809 12.8917 1.99675 13.277C1.99675 13.651 1.97975 14.1043 1.94575 14.637H2.01375C2.22909 14.1497 2.43309 13.736 2.62575 13.396C2.82975 13.056 3.01675 12.7387 3.18675 12.444L4.08775 10.914H5.03975L5.94075 12.444C6.20142 12.8973 6.42242 13.2883 6.60375 13.617C6.78509 13.9457 6.95509 14.2857 7.11375 14.637H7.18175C7.14775 14.1043 7.12509 13.651 7.11375 13.277C7.11375 12.8917 7.11375 12.5233 7.11375 12.172V7.684H8.59275V17H7.24975L4.61475 12.546H4.54675L1.87775 17H0.534754ZM6.38979 21.505C5.65313 21.505 5.09779 21.3577 4.72379 21.063C4.34979 20.7797 4.16279 20.3717 4.16279 19.839V19.55C4.16279 19.3687 4.11746 19.2553 4.02679 19.21C3.92479 19.1647 3.78879 19.1647 3.61879 19.21L3.51679 18.19C3.67546 18.1447 3.83413 18.1163 3.99279 18.105C4.14013 18.0937 4.25346 18.088 4.33279 18.088C4.74079 18.088 5.03546 18.1787 5.21679 18.36C5.38679 18.5413 5.47179 18.7963 5.47179 19.125V19.703C5.47179 19.9183 5.53979 20.0997 5.67579 20.247C5.81179 20.3943 6.04413 20.468 6.37279 20.468C6.71279 20.468 6.95079 20.3943 7.08679 20.247C7.21146 20.0997 7.27379 19.9183 7.27379 19.703V18.139H8.59979V19.788C8.59979 20.9327 7.86313 21.505 6.38979 21.505ZM3.85679 6.205V5.457C4.08346 5.41167 4.31579 5.34933 4.55379 5.27C4.79179 5.17933 4.99013 5.066 5.14879 4.93C5.30746 4.794 5.38679 4.61833 5.38679 4.403C5.38679 4.267 5.34713 4.15367 5.26779 4.063C5.17713 3.961 5.04113 3.91 4.85979 3.91C4.73513 3.91 4.61613 3.93267 4.50279 3.978C4.38946 4.02333 4.28746 4.063 4.19679 4.097L3.85679 3.162C4.08346 2.98067 4.33846 2.86167 4.62179 2.805C4.89379 2.74833 5.11479 2.72 5.28479 2.72C5.73813 2.72 6.09513 2.84467 6.35579 3.094C6.60513 3.34333 6.72979 3.66067 6.72979 4.046C6.72979 4.23867 6.69579 4.42 6.62779 4.59C6.55979 4.74867 6.47479 4.89033 6.37279 5.015H9.12679V6.205H3.85679ZM11.3882 17V13.77C11.3882 13.056 11.5469 12.5403 11.8642 12.223C12.1815 11.8943 12.5839 11.6677 13.0712 11.543L13.0882 11.492L11.2182 10.778V10.217C11.2182 9.75233 11.3712 9.316 11.6772 8.908C11.9832 8.48867 12.4195 8.15433 12.9862 7.905C13.5529 7.64433 14.2385 7.514 15.0432 7.514C15.7345 7.514 16.3749 7.62733 16.9642 7.854C17.5535 8.06933 18.0239 8.415 18.3752 8.891C18.7379 9.35567 18.9192 9.96767 18.9192 10.727V17H17.4062V10.88C17.4062 10.1207 17.1739 9.58233 16.7092 9.265C16.2445 8.93633 15.6835 8.772 15.0262 8.772C14.3235 8.772 13.7682 8.91933 13.3602 9.214C12.9635 9.49733 12.7652 9.86 12.7652 10.302L14.6012 11.22L14.4652 12.036C14.0459 12.036 13.6775 12.1777 13.3602 12.461C13.0542 12.733 12.9012 13.1693 12.9012 13.77V17H11.3882ZM17.2303 6.205V2.618H18.7263V6.205H17.2303ZM24.9646 17.17C23.7406 17.17 22.8226 16.8527 22.2106 16.218C21.6099 15.5833 21.3096 14.5747 21.3096 13.192C21.3096 12.9653 21.3152 12.7217 21.3266 12.461C21.3492 12.189 21.3719 11.9227 21.3946 11.662H24.9646V12.852H22.8226V13.192C22.8226 13.9173 22.9019 14.4783 23.0606 14.875C23.2192 15.2717 23.4516 15.5493 23.7576 15.708C24.0749 15.8667 24.4659 15.946 24.9306 15.946C25.4406 15.946 25.8826 15.8497 26.2566 15.657C26.6306 15.4643 26.9196 15.113 27.1236 14.603C27.3276 14.093 27.4296 13.362 27.4296 12.41C27.4296 11.1633 27.2142 10.2453 26.7836 9.656C26.3642 9.06667 25.6332 8.772 24.5906 8.772C24.0466 8.772 23.5252 8.84567 23.0266 8.993C22.5392 9.129 22.0689 9.32733 21.6156 9.588V8.177C21.9556 7.99567 22.4032 7.84267 22.9586 7.718C23.5139 7.582 24.1202 7.514 24.7776 7.514C25.7749 7.514 26.5796 7.718 27.1916 8.126C27.8149 8.52267 28.2682 9.08933 28.5516 9.826C28.8349 10.5513 28.9766 11.4127 28.9766 12.41C28.9766 13.4073 28.8462 14.263 28.5856 14.977C28.3249 15.691 27.8999 16.235 27.3106 16.609C26.7326 16.983 25.9506 17.17 24.9646 17.17ZM34.7263 17.17C33.7743 17.17 33.0376 16.9547 32.5163 16.524C31.9949 16.082 31.6323 15.487 31.4283 14.739C31.2243 13.9797 31.1223 13.1183 31.1223 12.155C31.1223 10.5003 31.3546 9.316 31.8193 8.602C32.2953 7.87667 32.9753 7.514 33.8593 7.514C34.2559 7.514 34.5903 7.582 34.8623 7.718C35.1456 7.854 35.3439 8.08067 35.4573 8.398H35.5253C35.6386 8.08067 35.8426 7.854 36.1373 7.718C36.4319 7.582 36.7776 7.514 37.1743 7.514C37.9109 7.514 38.4776 7.71233 38.8743 8.109C39.2823 8.50567 39.4863 9.10067 39.4863 9.894V17H37.9733V9.911C37.9733 9.469 37.8769 9.16867 37.6843 9.01C37.4916 8.85133 37.2479 8.772 36.9533 8.772C36.6246 8.772 36.3809 8.85133 36.2223 9.01C36.0749 9.16867 35.9843 9.42933 35.9503 9.792H34.9983C34.9529 9.39533 34.8339 9.129 34.6413 8.993C34.4486 8.84567 34.2333 8.772 33.9953 8.772C33.5419 8.772 33.2019 9.03833 32.9753 9.571C32.7486 10.1037 32.6353 10.9707 32.6353 12.172C32.6353 12.954 32.6919 13.6283 32.8053 14.195C32.9299 14.7503 33.1566 15.1753 33.4853 15.47C33.8139 15.7647 34.2899 15.912 34.9133 15.912C35.1399 15.912 35.3269 15.9007 35.4743 15.878C35.6216 15.8553 35.7633 15.827 35.8993 15.793L36.0523 16.949C35.8823 17.0283 35.6783 17.085 35.4403 17.119C35.2023 17.153 34.9643 17.17 34.7263 17.17ZM37.1205 6.205C36.4065 6.205 35.9021 6.06333 35.6075 5.78C35.3128 5.48533 35.1655 5.15667 35.1655 4.794C35.1655 4.624 35.1938 4.44267 35.2505 4.25C35.2958 4.046 35.3581 3.88167 35.4375 3.757L36.7125 3.978C36.6445 4.114 36.6105 4.28967 36.6105 4.505C36.6105 4.65233 36.6558 4.78267 36.7465 4.896C36.8371 4.998 36.9901 5.049 37.2055 5.049H41.5065V6.205H37.1205ZM36.9211 3.618V3.023C37.1478 2.96633 37.3915 2.87567 37.6521 2.751C37.9015 2.62633 38.0261 2.43933 38.0261 2.19C38.0261 1.92933 37.8958 1.799 37.6351 1.799C37.4538 1.799 37.2668 1.85567 37.0741 1.969L36.7681 1.187C36.9721 1.051 37.2045 0.960333 37.4651 0.915C37.7145 0.869666 37.9128 0.846999 38.0601 0.846999C38.3548 0.846999 38.6211 0.926332 38.8591 1.085C39.0971 1.23233 39.2161 1.48733 39.2161 1.85C39.2161 1.94067 39.2048 2.04267 39.1821 2.156C39.1595 2.26933 39.1198 2.377 39.0631 2.479H41.2051V3.618H36.9211ZM43.7659 17L40.8589 7.684H42.3889L44.9049 15.691H45.1089C45.3809 15.691 45.6472 15.6287 45.9079 15.504C46.1686 15.368 46.3896 15.198 46.5709 14.994C46.9109 14.62 47.1602 14.1497 47.3189 13.583C47.4776 13.005 47.5569 12.4383 47.5569 11.883C47.5569 10.9423 47.3416 10.2057 46.9109 9.673C46.4916 9.129 45.9079 8.857 45.1599 8.857C44.8539 8.857 44.5932 8.89667 44.3779 8.976L44.0039 7.769C44.2419 7.701 44.4629 7.65567 44.6669 7.633C44.8822 7.61033 45.0749 7.599 45.2449 7.599C46.3556 7.599 47.2452 7.922 47.9139 8.568C48.3106 8.95333 48.5996 9.435 48.7809 10.013C48.9736 10.591 49.0699 11.2313 49.0699 11.934C49.0699 12.818 48.9339 13.6057 48.6619 14.297C48.3899 14.977 48.0499 15.521 47.6419 15.929C47.3132 16.2577 46.9109 16.5183 46.4349 16.711C45.9589 16.9037 45.3526 17 44.6159 17H43.7659ZM56.0548 4.862H59.5228C61.0301 4.862 62.1748 5.08867 62.9568 5.542C63.7388 5.99533 64.1298 6.77167 64.1298 7.871C64.1298 8.585 63.9314 9.18 63.5348 9.656C63.1381 10.1207 62.5658 10.421 61.8178 10.557V10.642C62.3278 10.7327 62.7868 10.8857 63.1948 11.101C63.6141 11.3163 63.9428 11.6223 64.1808 12.019C64.4188 12.4157 64.5378 12.9257 64.5378 13.549C64.5378 14.6483 64.1581 15.4983 63.3988 16.099C62.6508 16.6997 61.6251 17 60.3218 17H56.0548V4.862ZM57.5848 10.03H59.8288C60.8601 10.03 61.5684 9.86567 61.9538 9.537C62.3504 9.197 62.5488 8.69833 62.5488 8.041C62.5488 7.37233 62.3108 6.89633 61.8348 6.613C61.3701 6.31833 60.6221 6.171 59.5908 6.171H57.5848V10.03ZM57.5848 11.305V15.708H60.0328C61.1094 15.708 61.8574 15.4983 62.2768 15.079C62.6961 14.6597 62.9058 14.11 62.9058 13.43C62.9058 12.7953 62.6848 12.2853 62.2428 11.9C61.8121 11.5033 61.0358 11.305 59.9138 11.305H57.5848ZM70.3584 7.735C71.4691 7.735 72.2907 7.97867 72.8234 8.466C73.3561 8.95333 73.6224 9.72967 73.6224 10.795V17H72.5344L72.2454 15.708H72.1774C71.7807 16.2067 71.3614 16.575 70.9194 16.813C70.4774 17.051 69.8767 17.17 69.1174 17.17C68.2901 17.17 67.6044 16.9547 67.0604 16.524C66.5164 16.082 66.2444 15.3963 66.2444 14.467C66.2444 13.5603 66.6014 12.8633 67.3154 12.376C68.0294 11.8773 69.1287 11.6053 70.6134 11.56L72.1604 11.509V10.965C72.1604 10.2057 71.9961 9.67867 71.6674 9.384C71.3387 9.08933 70.8741 8.942 70.2734 8.942C69.7974 8.942 69.3441 9.01567 68.9134 9.163C68.4827 9.299 68.0804 9.45767 67.7064 9.639L67.2474 8.517C67.6441 8.30167 68.1144 8.12033 68.6584 7.973C69.2024 7.81433 69.7691 7.735 70.3584 7.735ZM72.1434 12.546L70.8004 12.597C69.6671 12.6423 68.8794 12.8237 68.4374 13.141C68.0067 13.4583 67.7914 13.906 67.7914 14.484C67.7914 14.994 67.9444 15.368 68.2504 15.606C68.5677 15.844 68.9701 15.963 69.4574 15.963C70.2167 15.963 70.8514 15.7533 71.3614 15.334C71.8827 14.9033 72.1434 14.246 72.1434 13.362V12.546ZM80.8227 7.718C81.9107 7.718 82.7324 7.98433 83.2877 8.517C83.843 9.04967 84.1207 9.89967 84.1207 11.067V17H82.6417V11.169C82.6417 9.707 81.9617 8.976 80.6017 8.976C79.593 8.976 78.896 9.25933 78.5107 9.826C78.1254 10.3927 77.9327 11.2087 77.9327 12.274V17H76.4367V7.888H77.6437L77.8647 9.129H77.9497C78.2444 8.653 78.6524 8.30167 79.1737 8.075C79.695 7.837 80.2447 7.718 80.8227 7.718ZM90.1755 7.718C90.7762 7.718 91.3145 7.83133 91.7905 8.058C92.2778 8.28467 92.6915 8.63033 93.0315 9.095H93.1165L93.3205 7.888H94.5105V17.153C94.5105 18.4563 94.1762 19.4367 93.5075 20.094C92.8502 20.7513 91.8245 21.08 90.4305 21.08C89.0932 21.08 87.9995 20.8873 87.1495 20.502V19.125C88.0448 19.601 89.1668 19.839 90.5155 19.839C91.2975 19.839 91.9095 19.6067 92.3515 19.142C92.8048 18.6887 93.0315 18.0653 93.0315 17.272V16.915C93.0315 16.779 93.0372 16.5863 93.0485 16.337C93.0598 16.0763 93.0712 15.895 93.0825 15.793H93.0145C92.4025 16.711 91.4618 17.17 90.1925 17.17C89.0138 17.17 88.0902 16.7563 87.4215 15.929C86.7642 15.1017 86.4355 13.9457 86.4355 12.461C86.4355 11.0103 86.7642 9.86 87.4215 9.01C88.0902 8.14867 89.0082 7.718 90.1755 7.718ZM90.3795 8.976C89.6202 8.976 89.0308 9.282 88.6115 9.894C88.1922 10.4947 87.9825 11.356 87.9825 12.478C87.9825 13.6 88.1865 14.4613 88.5945 15.062C89.0025 15.6513 89.6088 15.946 90.4135 15.946C91.3315 15.946 92.0002 15.7023 92.4195 15.215C92.8388 14.7163 93.0485 13.9173 93.0485 12.818V12.461C93.0485 11.2257 92.8332 10.336 92.4025 9.792C91.9718 9.248 91.2975 8.976 90.3795 8.976ZM103.337 14.484C103.337 15.368 103.009 16.0367 102.351 16.49C101.694 16.9433 100.81 17.17 99.6995 17.17C99.0648 17.17 98.5151 17.119 98.0505 17.017C97.5971 16.915 97.1948 16.7733 96.8435 16.592V15.232C97.2061 15.4133 97.6425 15.5833 98.1525 15.742C98.6738 15.8893 99.2008 15.963 99.7335 15.963C100.493 15.963 101.042 15.844 101.382 15.606C101.722 15.3567 101.892 15.028 101.892 14.62C101.892 14.3933 101.83 14.1893 101.705 14.008C101.581 13.8267 101.354 13.6453 101.025 13.464C100.708 13.2827 100.249 13.0787 99.6485 12.852C99.0591 12.6253 98.5548 12.3987 98.1355 12.172C97.7161 11.9453 97.3931 11.6733 97.1665 11.356C96.9398 11.0387 96.8265 10.6307 96.8265 10.132C96.8265 9.36133 97.1381 8.76633 97.7615 8.347C98.3961 7.92767 99.2235 7.718 100.243 7.718C100.799 7.718 101.314 7.77467 101.79 7.888C102.278 8.00133 102.731 8.14867 103.15 8.33L102.64 9.52C102.255 9.36133 101.853 9.22533 101.433 9.112C101.014 8.99867 100.583 8.942 100.141 8.942C99.5295 8.942 99.0591 9.044 98.7305 9.248C98.4131 9.44067 98.2545 9.707 98.2545 10.047C98.2545 10.3077 98.3281 10.523 98.4755 10.693C98.6228 10.863 98.8665 11.033 99.2065 11.203C99.5578 11.373 100.022 11.5657 100.6 11.781C101.178 11.9963 101.671 12.2173 102.079 12.444C102.487 12.6707 102.799 12.9483 103.014 13.277C103.23 13.5943 103.337 13.9967 103.337 14.484ZM108.99 7.735C110.101 7.735 110.923 7.97867 111.455 8.466C111.988 8.95333 112.254 9.72967 112.254 10.795V17H111.166L110.877 15.708H110.809C110.413 16.2067 109.993 16.575 109.551 16.813C109.109 17.051 108.509 17.17 107.749 17.17C106.922 17.17 106.236 16.9547 105.692 16.524C105.148 16.082 104.876 15.3963 104.876 14.467C104.876 13.5603 105.233 12.8633 105.947 12.376C106.661 11.8773 107.761 11.6053 109.245 11.56L110.792 11.509V10.965C110.792 10.2057 110.628 9.67867 110.299 9.384C109.971 9.08933 109.506 8.942 108.905 8.942C108.429 8.942 107.976 9.01567 107.545 9.163C107.115 9.299 106.712 9.45767 106.338 9.639L105.879 8.517C106.276 8.30167 106.746 8.12033 107.29 7.973C107.834 7.81433 108.401 7.735 108.99 7.735ZM110.775 12.546L109.432 12.597C108.299 12.6423 107.511 12.8237 107.069 13.141C106.639 13.4583 106.423 13.906 106.423 14.484C106.423 14.994 106.576 15.368 106.882 15.606C107.2 15.844 107.602 15.963 108.089 15.963C108.849 15.963 109.483 15.7533 109.993 15.334C110.515 14.9033 110.775 14.246 110.775 13.362V12.546ZM118.588 7.718C119.358 7.718 120.027 7.888 120.594 8.228C121.16 8.568 121.591 9.04967 121.886 9.673C122.192 10.285 122.345 11.0047 122.345 11.832V12.733H116.106C116.128 13.7643 116.389 14.552 116.888 15.096C117.398 15.6287 118.106 15.895 119.013 15.895C119.591 15.895 120.101 15.844 120.543 15.742C120.996 15.6287 121.461 15.47 121.937 15.266V16.575C121.472 16.779 121.013 16.9263 120.56 17.017C120.106 17.119 119.568 17.17 118.945 17.17C118.072 17.17 117.307 16.9943 116.65 16.643C115.992 16.2917 115.477 15.7703 115.103 15.079C114.74 14.3877 114.559 13.532 114.559 12.512C114.559 11.5147 114.723 10.659 115.052 9.945C115.392 9.231 115.862 8.68133 116.463 8.296C117.075 7.91067 117.783 7.718 118.588 7.718ZM118.571 8.942C117.857 8.942 117.29 9.17433 116.871 9.639C116.463 10.0923 116.219 10.727 116.14 11.543H120.781C120.769 10.7723 120.588 10.149 120.237 9.673C119.885 9.18567 119.33 8.942 118.571 8.942ZM129.05 7.718C130.138 7.718 130.96 7.98433 131.515 8.517C132.071 9.04967 132.348 9.89967 132.348 11.067V17H130.869V11.169C130.869 9.707 130.189 8.976 128.829 8.976C127.821 8.976 127.124 9.25933 126.738 9.826C126.353 10.3927 126.16 11.2087 126.16 12.274V17H124.664V7.888H125.871L126.092 9.129H126.177C126.472 8.653 126.88 8.30167 127.401 8.075C127.923 7.837 128.472 7.718 129.05 7.718ZM149.517 10.812C149.517 12.8633 148.956 14.4103 147.834 15.453C146.723 16.4843 145.171 17 143.176 17H139.793V4.862H143.533C144.746 4.862 145.8 5.08867 146.695 5.542C147.602 5.99533 148.299 6.664 148.786 7.548C149.273 8.432 149.517 9.52 149.517 10.812ZM147.902 10.863C147.902 9.24233 147.5 8.058 146.695 7.31C145.902 6.55067 144.774 6.171 143.312 6.171H141.323V15.691H142.972C146.259 15.691 147.902 14.0817 147.902 10.863ZM155.526 7.718C156.297 7.718 156.965 7.888 157.532 8.228C158.099 8.568 158.529 9.04967 158.824 9.673C159.13 10.285 159.283 11.0047 159.283 11.832V12.733H153.044C153.067 13.7643 153.327 14.552 153.826 15.096C154.336 15.6287 155.044 15.895 155.951 15.895C156.529 15.895 157.039 15.844 157.481 15.742C157.934 15.6287 158.399 15.47 158.875 15.266V16.575C158.41 16.779 157.951 16.9263 157.498 17.017C157.045 17.119 156.506 17.17 155.883 17.17C155.01 17.17 154.245 16.9943 153.588 16.643C152.931 16.2917 152.415 15.7703 152.041 15.079C151.678 14.3877 151.497 13.532 151.497 12.512C151.497 11.5147 151.661 10.659 151.99 9.945C152.33 9.231 152.8 8.68133 153.401 8.296C154.013 7.91067 154.721 7.718 155.526 7.718ZM155.509 8.942C154.795 8.942 154.228 9.17433 153.809 9.639C153.401 10.0923 153.157 10.727 153.078 11.543H157.719C157.708 10.7723 157.526 10.149 157.175 9.673C156.824 9.18567 156.268 8.942 155.509 8.942ZM167.536 14.484C167.536 15.368 167.207 16.0367 166.55 16.49C165.892 16.9433 165.008 17.17 163.898 17.17C163.263 17.17 162.713 17.119 162.249 17.017C161.795 16.915 161.393 16.7733 161.042 16.592V15.232C161.404 15.4133 161.841 15.5833 162.351 15.742C162.872 15.8893 163.399 15.963 163.932 15.963C164.691 15.963 165.241 15.844 165.581 15.606C165.921 15.3567 166.091 15.028 166.091 14.62C166.091 14.3933 166.028 14.1893 165.904 14.008C165.779 13.8267 165.552 13.6453 165.224 13.464C164.906 13.2827 164.447 13.0787 163.847 12.852C163.257 12.6253 162.753 12.3987 162.334 12.172C161.914 11.9453 161.591 11.6733 161.365 11.356C161.138 11.0387 161.025 10.6307 161.025 10.132C161.025 9.36133 161.336 8.76633 161.96 8.347C162.594 7.92767 163.422 7.718 164.442 7.718C164.997 7.718 165.513 7.77467 165.989 7.888C166.476 8.00133 166.929 8.14867 167.349 8.33L166.839 9.52C166.453 9.36133 166.051 9.22533 165.632 9.112C165.212 8.99867 164.782 8.942 164.34 8.942C163.728 8.942 163.257 9.044 162.929 9.248C162.611 9.44067 162.453 9.707 162.453 10.047C162.453 10.3077 162.526 10.523 162.674 10.693C162.821 10.863 163.065 11.033 163.405 11.203C163.756 11.373 164.221 11.5657 164.799 11.781C165.377 11.9963 165.87 12.2173 166.278 12.444C166.686 12.6707 166.997 12.9483 167.213 13.277C167.428 13.5943 167.536 13.9967 167.536 14.484ZM170.502 4.471C170.729 4.471 170.927 4.55033 171.097 4.709C171.279 4.85633 171.369 5.09433 171.369 5.423C171.369 5.75167 171.279 5.99533 171.097 6.154C170.927 6.30133 170.729 6.375 170.502 6.375C170.253 6.375 170.043 6.30133 169.873 6.154C169.703 5.99533 169.618 5.75167 169.618 5.423C169.618 5.09433 169.703 4.85633 169.873 4.709C170.043 4.55033 170.253 4.471 170.502 4.471ZM171.233 7.888V17H169.737V7.888H171.233ZM177.35 7.718C177.951 7.718 178.489 7.83133 178.965 8.058C179.453 8.28467 179.866 8.63033 180.206 9.095H180.291L180.495 7.888H181.685V17.153C181.685 18.4563 181.351 19.4367 180.682 20.094C180.025 20.7513 178.999 21.08 177.605 21.08C176.268 21.08 175.174 20.8873 174.324 20.502V19.125C175.22 19.601 176.342 19.839 177.69 19.839C178.472 19.839 179.084 19.6067 179.526 19.142C179.98 18.6887 180.206 18.0653 180.206 17.272V16.915C180.206 16.779 180.212 16.5863 180.223 16.337C180.235 16.0763 180.246 15.895 180.257 15.793H180.189C179.577 16.711 178.637 17.17 177.367 17.17C176.189 17.17 175.265 16.7563 174.596 15.929C173.939 15.1017 173.61 13.9457 173.61 12.461C173.61 11.0103 173.939 9.86 174.596 9.01C175.265 8.14867 176.183 7.718 177.35 7.718ZM177.554 8.976C176.795 8.976 176.206 9.282 175.786 9.894C175.367 10.4947 175.157 11.356 175.157 12.478C175.157 13.6 175.361 14.4613 175.769 15.062C176.177 15.6513 176.784 15.946 177.588 15.946C178.506 15.946 179.175 15.7023 179.594 15.215C180.014 14.7163 180.223 13.9173 180.223 12.818V12.461C180.223 11.2257 180.008 10.336 179.577 9.792C179.147 9.248 178.472 8.976 177.554 8.976ZM188.965 7.718C190.053 7.718 190.875 7.98433 191.43 8.517C191.986 9.04967 192.263 9.89967 192.263 11.067V17H190.784V11.169C190.784 9.707 190.104 8.976 188.744 8.976C187.736 8.976 187.039 9.25933 186.653 9.826C186.268 10.3927 186.075 11.2087 186.075 12.274V17H184.579V7.888H185.786L186.007 9.129H186.092C186.387 8.653 186.795 8.30167 187.316 8.075C187.838 7.837 188.387 7.718 188.965 7.718ZM208.99 17H207.46V11.339H201.238V17H199.708V4.862H201.238V9.996H207.46V4.862H208.99V17ZM220.027 12.427C220.027 13.9343 219.641 15.1017 218.871 15.929C218.111 16.7563 217.08 17.17 215.777 17.17C214.972 17.17 214.252 16.9887 213.618 16.626C212.994 16.252 212.501 15.7137 212.139 15.011C211.776 14.297 211.595 13.4357 211.595 12.427C211.595 10.9197 211.969 9.758 212.717 8.942C213.476 8.126 214.513 7.718 215.828 7.718C216.644 7.718 217.369 7.905 218.004 8.279C218.638 8.64167 219.131 9.17433 219.483 9.877C219.845 10.5683 220.027 11.4183 220.027 12.427ZM213.142 12.427C213.142 13.5037 213.351 14.3593 213.771 14.994C214.201 15.6173 214.881 15.929 215.811 15.929C216.729 15.929 217.403 15.6173 217.834 14.994C218.264 14.3593 218.48 13.5037 218.48 12.427C218.48 11.3503 218.264 10.506 217.834 9.894C217.403 9.282 216.723 8.976 215.794 8.976C214.864 8.976 214.19 9.282 213.771 9.894C213.351 10.506 213.142 11.3503 213.142 12.427ZM230.014 7.888V17H228.79L228.569 15.793H228.501C228.206 16.269 227.798 16.6203 227.277 16.847C226.755 17.0623 226.2 17.17 225.611 17.17C224.511 17.17 223.684 16.9093 223.129 16.388C222.573 15.8553 222.296 15.011 222.296 13.855V7.888H223.809V13.753C223.809 15.2037 224.483 15.929 225.832 15.929C226.84 15.929 227.537 15.6457 227.923 15.079C228.319 14.5123 228.518 13.6963 228.518 12.631V7.888H230.014ZM238.839 14.484C238.839 15.368 238.511 16.0367 237.853 16.49C237.196 16.9433 236.312 17.17 235.201 17.17C234.567 17.17 234.017 17.119 233.552 17.017C233.099 16.915 232.697 16.7733 232.345 16.592V15.232C232.708 15.4133 233.144 15.5833 233.654 15.742C234.176 15.8893 234.703 15.963 235.235 15.963C235.995 15.963 236.544 15.844 236.884 15.606C237.224 15.3567 237.394 15.028 237.394 14.62C237.394 14.3933 237.332 14.1893 237.207 14.008C237.083 13.8267 236.856 13.6453 236.527 13.464C236.21 13.2827 235.751 13.0787 235.15 12.852C234.561 12.6253 234.057 12.3987 233.637 12.172C233.218 11.9453 232.895 11.6733 232.668 11.356C232.442 11.0387 232.328 10.6307 232.328 10.132C232.328 9.36133 232.64 8.76633 233.263 8.347C233.898 7.92767 234.725 7.718 235.745 7.718C236.301 7.718 236.816 7.77467 237.292 7.888C237.78 8.00133 238.233 8.14867 238.652 8.33L238.142 9.52C237.757 9.36133 237.355 9.22533 236.935 9.112C236.516 8.99867 236.085 8.942 235.643 8.942C235.031 8.942 234.561 9.044 234.232 9.248C233.915 9.44067 233.756 9.707 233.756 10.047C233.756 10.3077 233.83 10.523 233.977 10.693C234.125 10.863 234.368 11.033 234.708 11.203C235.06 11.373 235.524 11.5657 236.102 11.781C236.68 11.9963 237.173 12.2173 237.581 12.444C237.989 12.6707 238.301 12.9483 238.516 13.277C238.732 13.5943 238.839 13.9967 238.839 14.484ZM244.56 7.718C245.331 7.718 246 7.888 246.566 8.228C247.133 8.568 247.564 9.04967 247.858 9.673C248.164 10.285 248.317 11.0047 248.317 11.832V12.733H242.078C242.101 13.7643 242.362 14.552 242.86 15.096C243.37 15.6287 244.079 15.895 244.985 15.895C245.563 15.895 246.073 15.844 246.515 15.742C246.969 15.6287 247.433 15.47 247.909 15.266V16.575C247.445 16.779 246.986 16.9263 246.532 17.017C246.079 17.119 245.541 17.17 244.917 17.17C244.045 17.17 243.28 16.9943 242.622 16.643C241.965 16.2917 241.449 15.7703 241.075 15.079C240.713 14.3877 240.531 13.532 240.531 12.512C240.531 11.5147 240.696 10.659 241.024 9.945C241.364 9.231 241.835 8.68133 242.435 8.296C243.047 7.91067 243.756 7.718 244.56 7.718ZM244.543 8.942C243.829 8.942 243.263 9.17433 242.843 9.639C242.435 10.0923 242.192 10.727 242.112 11.543H246.753C246.742 10.7723 246.561 10.149 246.209 9.673C245.858 9.18567 245.303 8.942 244.543 8.942ZM260.527 10.591H264.726V16.541C264.069 16.7563 263.406 16.915 262.737 17.017C262.068 17.119 261.309 17.17 260.459 17.17C259.201 17.17 258.141 16.9207 257.28 16.422C256.419 15.912 255.761 15.1923 255.308 14.263C254.866 13.3223 254.645 12.2117 254.645 10.931C254.645 9.673 254.889 8.57933 255.376 7.65C255.875 6.70933 256.594 5.984 257.535 5.474C258.476 4.95267 259.609 4.692 260.935 4.692C261.615 4.692 262.255 4.75433 262.856 4.879C263.468 5.00367 264.035 5.17933 264.556 5.406L263.978 6.732C263.547 6.55067 263.06 6.392 262.516 6.256C261.983 6.10867 261.428 6.035 260.85 6.035C259.399 6.035 258.266 6.477 257.45 7.361C256.645 8.23367 256.243 9.42367 256.243 10.931C256.243 11.8943 256.396 12.75 256.702 13.498C257.019 14.2347 257.512 14.8127 258.181 15.232C258.85 15.64 259.728 15.844 260.816 15.844C261.349 15.844 261.802 15.8157 262.176 15.759C262.55 15.7023 262.89 15.6343 263.196 15.555V11.951H260.527V10.591ZM271.671 7.718C271.841 7.718 272.022 7.72933 272.215 7.752C272.408 7.76333 272.583 7.786 272.742 7.82L272.555 9.197C272.408 9.163 272.243 9.13467 272.062 9.112C271.881 9.08933 271.716 9.078 271.569 9.078C271.104 9.078 270.668 9.20833 270.26 9.469C269.852 9.71833 269.523 10.0753 269.274 10.54C269.036 10.9933 268.917 11.526 268.917 12.138V17H267.421V7.888H268.645L268.815 9.554H268.883C269.166 9.05533 269.54 8.62467 270.005 8.262C270.481 7.89933 271.036 7.718 271.671 7.718ZM282.034 12.427C282.034 13.9343 281.648 15.1017 280.878 15.929C280.118 16.7563 279.087 17.17 277.784 17.17C276.979 17.17 276.259 16.9887 275.625 16.626C275.001 16.252 274.508 15.7137 274.146 15.011C273.783 14.297 273.602 13.4357 273.602 12.427C273.602 10.9197 273.976 9.758 274.724 8.942C275.483 8.126 276.52 7.718 277.835 7.718C278.651 7.718 279.376 7.905 280.011 8.279C280.645 8.64167 281.138 9.17433 281.49 9.877C281.852 10.5683 282.034 11.4183 282.034 12.427ZM275.149 12.427C275.149 13.5037 275.358 14.3593 275.778 14.994C276.208 15.6173 276.888 15.929 277.818 15.929C278.736 15.929 279.41 15.6173 279.841 14.994C280.271 14.3593 280.487 13.5037 280.487 12.427C280.487 11.3503 280.271 10.506 279.841 9.894C279.41 9.282 278.73 8.976 277.801 8.976C276.871 8.976 276.197 9.282 275.778 9.894C275.358 10.506 275.149 11.3503 275.149 12.427ZM292.02 7.888V17H290.796L290.575 15.793H290.507C290.213 16.269 289.805 16.6203 289.283 16.847C288.762 17.0623 288.207 17.17 287.617 17.17C286.518 17.17 285.691 16.9093 285.135 16.388C284.58 15.8553 284.302 15.011 284.302 13.855V7.888H285.815V13.753C285.815 15.2037 286.49 15.929 287.838 15.929C288.847 15.929 289.544 15.6457 289.929 15.079C290.326 14.5123 290.524 13.6963 290.524 12.631V7.888H292.02ZM299.248 7.718C300.37 7.718 301.271 8.109 301.951 8.891C302.643 9.673 302.988 10.8517 302.988 12.427C302.988 13.9797 302.643 15.1583 301.951 15.963C301.271 16.7677 300.365 17.17 299.231 17.17C298.529 17.17 297.945 17.0397 297.48 16.779C297.027 16.5183 296.67 16.2067 296.409 15.844H296.307C296.319 16.0367 296.336 16.2803 296.358 16.575C296.392 16.8697 296.409 17.1247 296.409 17.34V21.08H294.913V7.888H296.137L296.341 9.129H296.409C296.681 8.73233 297.038 8.398 297.48 8.126C297.922 7.854 298.512 7.718 299.248 7.718ZM298.976 8.976C298.047 8.976 297.39 9.23667 297.004 9.758C296.619 10.2793 296.421 11.0727 296.409 12.138V12.427C296.409 13.549 296.591 14.416 296.953 15.028C297.327 15.6287 298.013 15.929 299.01 15.929C299.554 15.929 300.008 15.7817 300.37 15.487C300.733 15.181 300.999 14.7617 301.169 14.229C301.351 13.6963 301.441 13.09 301.441 12.41C301.441 11.3673 301.237 10.5343 300.829 9.911C300.433 9.28767 299.815 8.976 298.976 8.976ZM66.2496 41.17C65.9436 41.17 65.649 41.119 65.3656 41.017C65.0823 40.915 64.85 40.7337 64.6686 40.473C64.4873 40.2123 64.3966 39.8497 64.3966 39.385V31.684H65.9096V39.198C65.9096 39.4587 65.9606 39.6457 66.0626 39.759C66.176 39.8723 66.363 39.929 66.6236 39.929C66.7256 39.929 66.8333 39.9177 66.9466 39.895C67.06 39.8723 67.1676 39.844 67.2696 39.81L67.4736 40.915C67.2583 41.017 67.0486 41.085 66.8446 41.119C66.6406 41.153 66.4423 41.17 66.2496 41.17ZM70.8906 41.17C70.5846 41.17 70.29 41.119 70.0066 41.017C69.7233 40.915 69.491 40.7337 69.3096 40.473C69.1283 40.2123 69.0376 39.8497 69.0376 39.385V31.684H70.5506V39.198C70.5506 39.4587 70.6016 39.6457 70.7036 39.759C70.817 39.8723 71.004 39.929 71.2646 39.929C71.3666 39.929 71.4743 39.9177 71.5876 39.895C71.701 39.8723 71.8086 39.844 71.9106 39.81L72.1146 40.915C71.8993 41.017 71.6896 41.085 71.4856 41.119C71.2816 41.153 71.0833 41.17 70.8906 41.17ZM76.1707 41.17C75.1734 41.17 74.4084 40.9433 73.8757 40.49C73.3544 40.0253 73.0937 39.3623 73.0937 38.501C73.0937 37.5603 73.4337 36.835 74.1137 36.325C74.8051 35.815 75.9214 35.5147 77.4627 35.424L79.0947 35.322V34.795C79.0947 34.0583 78.9247 33.537 78.5847 33.231C78.2561 32.9137 77.7007 32.755 76.9187 32.755C76.3521 32.755 75.8081 32.8343 75.2867 32.993C74.7654 33.1403 74.2781 33.35 73.8247 33.622V32.211C74.1421 32.041 74.5841 31.8823 75.1507 31.735C75.7174 31.5877 76.3521 31.514 77.0547 31.514C78.2447 31.514 79.1287 31.7747 79.7067 32.296C80.2961 32.806 80.5907 33.6107 80.5907 34.71V41H79.0947V36.58L77.6667 36.682C76.5107 36.7613 75.7117 36.9427 75.2697 37.226C74.8391 37.5093 74.6237 37.923 74.6237 38.467C74.6237 38.977 74.7824 39.351 75.0997 39.589C75.4284 39.827 75.8817 39.946 76.4597 39.946C76.8337 39.946 77.1624 39.895 77.4457 39.793L77.6837 40.932C77.4684 41.0227 77.2304 41.085 76.9697 41.119C76.7204 41.153 76.4541 41.17 76.1707 41.17ZM84.5737 35.152C83.871 35.152 83.3723 35.0047 83.0777 34.71C82.783 34.404 82.6357 34.064 82.6357 33.69C82.6357 33.3047 82.7263 32.976 82.9077 32.704L84.1827 32.908C84.16 32.9647 84.1317 33.044 84.0977 33.146C84.075 33.248 84.0637 33.35 84.0637 33.452C84.0637 33.5993 84.1033 33.724 84.1827 33.826C84.262 33.9167 84.4093 33.962 84.6247 33.962H87.0557V35.152H84.5737ZM84.5737 39.912C83.871 39.912 83.3723 39.7647 83.0777 39.47C82.783 39.164 82.6357 38.824 82.6357 38.45C82.6357 38.0647 82.7263 37.736 82.9077 37.464L84.1827 37.668C84.16 37.7247 84.1317 37.804 84.0977 37.906C84.075 38.008 84.0637 38.11 84.0637 38.212C84.0637 38.3593 84.1033 38.484 84.1827 38.586C84.262 38.6767 84.4093 38.722 84.6247 38.722H87.0557V39.912H84.5737ZM93.4248 41V37.77C93.4248 37.056 93.5835 36.5403 93.9008 36.223C94.2181 35.8943 94.6205 35.6677 95.1078 35.543L95.1248 35.492L93.2548 34.778V34.217C93.2548 33.7523 93.4078 33.316 93.7138 32.908C94.0198 32.4887 94.4561 32.1543 95.0228 31.905C95.5895 31.6443 96.2751 31.514 97.0798 31.514C97.7711 31.514 98.4115 31.6273 99.0008 31.854C99.5901 32.0693 100.06 32.415 100.412 32.891C100.774 33.3557 100.956 33.9677 100.956 34.727V41H99.4428V34.88C99.4428 34.1207 99.2105 33.5823 98.7458 33.265C98.2811 32.9363 97.7201 32.772 97.0628 32.772C96.3601 32.772 95.8048 32.9193 95.3968 33.214C95.0001 33.4973 94.8018 33.86 94.8018 34.302L96.6378 35.22L96.5018 36.036C96.0825 36.036 95.7141 36.1777 95.3968 36.461C95.0908 36.733 94.9378 37.1693 94.9378 37.77V41H93.4248ZM93.555 30.205V29.542L94.796 28.998H100.78V30.205H93.555ZM106.916 41.17C105.919 41.17 105.131 40.9093 104.553 40.388C103.987 39.8667 103.703 39.0393 103.703 37.906V31.684H105.216V37.821C105.216 39.2037 105.891 39.895 107.239 39.895C108.033 39.895 108.645 39.64 109.075 39.13C109.517 38.62 109.738 37.9343 109.738 37.073V31.684H111.251V41H109.993L109.925 39.623H109.84C109.636 40.0877 109.279 40.4617 108.769 40.745C108.271 41.0283 107.653 41.17 106.916 41.17ZM113.432 37.107V35.781H117.546V37.107H113.432ZM122.905 41.17C121.681 41.17 120.763 40.8527 120.151 40.218C119.551 39.5833 119.25 38.5747 119.25 37.192C119.25 36.9653 119.256 36.7217 119.267 36.461C119.29 36.189 119.313 35.9227 119.335 35.662H122.905V36.852H120.763V37.192C120.763 37.9173 120.843 38.4783 121.001 38.875C121.16 39.2717 121.392 39.5493 121.698 39.708C122.016 39.8667 122.407 39.946 122.871 39.946C123.381 39.946 123.823 39.8497 124.197 39.657C124.571 39.4643 124.86 39.113 125.064 38.603C125.268 38.093 125.37 37.362 125.37 36.41C125.37 35.1633 125.155 34.2453 124.724 33.656C124.305 33.0667 123.574 32.772 122.531 32.772C121.987 32.772 121.466 32.8457 120.967 32.993C120.48 33.129 120.01 33.3273 119.556 33.588V32.177C119.896 31.9957 120.344 31.8427 120.899 31.718C121.455 31.582 122.061 31.514 122.718 31.514C123.716 31.514 124.52 31.718 125.132 32.126C125.756 32.5227 126.209 33.0893 126.492 33.826C126.776 34.5513 126.917 35.4127 126.917 36.41C126.917 37.4073 126.787 38.263 126.526 38.977C126.266 39.691 125.841 40.235 125.251 40.609C124.673 40.983 123.891 41.17 122.905 41.17ZM132.956 41.153C131.574 41.153 130.599 40.8923 130.032 40.371C129.477 39.8497 129.199 39.147 129.199 38.263C129.199 37.7417 129.273 37.328 129.42 37.022C129.579 36.7047 129.772 36.4723 129.998 36.325C130.236 36.1777 130.48 36.0813 130.729 36.036V35.968C130.491 35.9 130.248 35.7867 129.998 35.628C129.76 35.4693 129.556 35.2483 129.386 34.965C129.228 34.6817 129.148 34.3247 129.148 33.894C129.148 33.5087 129.239 33.1403 129.42 32.789C129.602 32.4263 129.896 32.1317 130.304 31.905C130.712 31.6783 131.251 31.565 131.919 31.565C132.191 31.565 132.475 31.5877 132.769 31.633C133.064 31.667 133.291 31.7293 133.449 31.82L133.177 32.993C133.053 32.9477 132.888 32.908 132.684 32.874C132.492 32.8287 132.288 32.806 132.072 32.806C131.596 32.806 131.245 32.9193 131.018 33.146C130.792 33.3613 130.678 33.6503 130.678 34.013C130.678 34.4097 130.775 34.71 130.967 34.914C131.171 35.118 131.426 35.2597 131.732 35.339C132.05 35.407 132.378 35.441 132.718 35.441H133.041V36.546H132.718C132.038 36.546 131.534 36.6707 131.205 36.92C130.888 37.1693 130.729 37.5717 130.729 38.127C130.729 38.4557 130.792 38.756 130.916 39.028C131.052 39.3 131.279 39.5153 131.596 39.674C131.925 39.8327 132.378 39.912 132.956 39.912C133.818 39.912 134.407 39.7363 134.724 39.385C135.042 39.0337 135.2 38.5407 135.2 37.906V31.684H136.713V37.804C136.713 38.994 136.407 39.8497 135.795 40.371C135.195 40.8923 134.248 41.153 132.956 41.153ZM134.131 45.505C133.394 45.505 132.839 45.3577 132.465 45.063C132.091 44.7797 131.904 44.3717 131.904 43.839V43.55C131.904 43.3687 131.858 43.2553 131.768 43.21C131.666 43.1647 131.53 43.1647 131.36 43.21L131.258 42.19C131.416 42.1447 131.575 42.1163 131.734 42.105C131.881 42.0937 131.994 42.088 132.074 42.088C132.482 42.088 132.776 42.1787 132.958 42.36C133.128 42.5413 133.213 42.7963 133.213 43.125V43.703C133.213 43.9183 133.281 44.0997 133.417 44.247C133.553 44.3943 133.785 44.468 134.114 44.468C134.454 44.468 134.692 44.3943 134.828 44.247C134.952 44.0997 135.015 43.9183 135.015 43.703V42.139H136.341V43.788C136.341 44.9327 135.604 45.505 134.131 45.505ZM135.193 30.205V26.618H136.689V30.205H135.193ZM138.766 37.107V35.781H142.88V37.107H138.766ZM148.12 41.17C147.214 41.17 146.5 40.9603 145.978 40.541C145.468 40.1103 145.106 39.538 144.89 38.824C144.686 38.0987 144.584 37.294 144.584 36.41C144.584 35.1293 144.76 34.1377 145.111 33.435C145.463 32.721 145.95 32.2223 146.573 31.939C147.197 31.6557 147.928 31.514 148.766 31.514C150.126 31.514 151.112 31.8087 151.724 32.398C152.348 32.9873 152.659 33.7863 152.659 34.795V41H151.163V34.931C151.163 34.2397 150.988 33.707 150.636 33.333C150.285 32.959 149.679 32.772 148.817 32.772C148.285 32.772 147.814 32.8683 147.406 33.061C146.998 33.2537 146.675 33.6107 146.437 34.132C146.211 34.6533 146.097 35.4183 146.097 36.427C146.097 37.0843 146.16 37.6793 146.284 38.212C146.42 38.7333 146.653 39.147 146.981 39.453C147.31 39.759 147.769 39.912 148.358 39.912C148.528 39.912 148.687 39.9007 148.834 39.878C148.982 39.8553 149.123 39.8213 149.259 39.776L149.412 40.949C149.231 41.0283 149.021 41.085 148.783 41.119C148.557 41.153 148.336 41.17 148.12 41.17ZM145.302 30.205V29.542L146.543 28.998H151.116V27.621H152.544V29.542H152.527V30.205H145.302ZM161.941 41.17C161.635 41.17 161.34 41.119 161.057 41.017C160.774 40.915 160.541 40.7337 160.36 40.473C160.179 40.2123 160.088 39.8497 160.088 39.385V31.684H161.601V39.198C161.601 39.4587 161.652 39.6457 161.754 39.759C161.867 39.8723 162.054 39.929 162.315 39.929C162.417 39.929 162.525 39.9177 162.638 39.895C162.751 39.8723 162.859 39.844 162.961 39.81L163.165 40.915C162.95 41.017 162.74 41.085 162.536 41.119C162.332 41.153 162.134 41.17 161.941 41.17ZM166.582 41.17C166.276 41.17 165.981 41.119 165.698 41.017C165.415 40.915 165.182 40.7337 165.001 40.473C164.82 40.2123 164.729 39.8497 164.729 39.385V31.684H166.242V39.198C166.242 39.4587 166.293 39.6457 166.395 39.759C166.508 39.8723 166.695 39.929 166.956 39.929C167.058 39.929 167.166 39.9177 167.279 39.895C167.392 39.8723 167.5 39.844 167.602 39.81L167.806 40.915C167.591 41.017 167.381 41.085 167.177 41.119C166.973 41.153 166.775 41.17 166.582 41.17ZM170.183 41L168.5 31.684H170.047L170.71 35.73C170.766 36.0587 170.823 36.4837 170.88 37.005C170.936 37.5263 171.004 38.144 171.084 38.858H171.135C171.282 38.1327 171.424 37.5093 171.56 36.988C171.707 36.4667 171.832 36.0303 171.934 35.679L173.073 31.684H174.314L175.47 35.679C175.572 36.0303 175.691 36.4667 175.827 36.988C175.963 37.5093 176.11 38.1327 176.269 38.858H176.337C176.405 38.144 176.467 37.5263 176.524 37.005C176.58 36.4837 176.637 36.0587 176.694 35.73L177.374 31.684H178.921L177.238 41H175.759L174.195 35.934C174.104 35.6507 174.025 35.356 173.957 35.05C173.889 34.744 173.821 34.3417 173.753 33.843H173.685C173.605 34.3417 173.52 34.7497 173.43 35.067C173.35 35.373 173.271 35.662 173.192 35.934L171.662 41H170.183ZM183.533 41.17C182.536 41.17 181.771 40.9433 181.238 40.49C180.717 40.0253 180.456 39.3623 180.456 38.501C180.456 37.5603 180.796 36.835 181.476 36.325C182.167 35.815 183.284 35.5147 184.825 35.424L186.457 35.322V34.795C186.457 34.0583 186.287 33.537 185.947 33.231C185.618 32.9137 185.063 32.755 184.281 32.755C183.714 32.755 183.17 32.8343 182.649 32.993C182.128 33.1403 181.64 33.35 181.187 33.622V32.211C181.504 32.041 181.946 31.8823 182.513 31.735C183.08 31.5877 183.714 31.514 184.417 31.514C185.607 31.514 186.491 31.7747 187.069 32.296C187.658 32.806 187.953 33.6107 187.953 34.71V41H186.457V36.58L185.029 36.682C183.873 36.7613 183.074 36.9427 182.632 37.226C182.201 37.5093 181.986 37.923 181.986 38.467C181.986 38.977 182.145 39.351 182.462 39.589C182.791 39.827 183.244 39.946 183.822 39.946C184.196 39.946 184.525 39.895 184.808 39.793L185.046 40.932C184.831 41.0227 184.593 41.085 184.332 41.119C184.083 41.153 183.816 41.17 183.533 41.17ZM194.01 41.17C193.058 41.17 192.321 40.9547 191.8 40.524C191.279 40.082 190.916 39.487 190.712 38.739C190.508 37.9797 190.406 37.1183 190.406 36.155C190.406 34.5003 190.638 33.316 191.103 32.602C191.579 31.8767 192.259 31.514 193.143 31.514C193.54 31.514 193.874 31.582 194.146 31.718C194.429 31.854 194.628 32.0807 194.741 32.398H194.809C194.922 32.0807 195.126 31.854 195.421 31.718C195.716 31.582 196.061 31.514 196.458 31.514C197.195 31.514 197.761 31.7123 198.158 32.109C198.566 32.5057 198.77 33.1007 198.77 33.894V41H197.257V33.911C197.257 33.469 197.161 33.1687 196.968 33.01C196.775 32.8513 196.532 32.772 196.237 32.772C195.908 32.772 195.665 32.8513 195.506 33.01C195.359 33.1687 195.268 33.4293 195.234 33.792H194.282C194.237 33.3953 194.118 33.129 193.925 32.993C193.732 32.8457 193.517 32.772 193.279 32.772C192.826 32.772 192.486 33.0383 192.259 33.571C192.032 34.1037 191.919 34.9707 191.919 36.172C191.919 36.954 191.976 37.6283 192.089 38.195C192.214 38.7503 192.44 39.1753 192.769 39.47C193.098 39.7647 193.574 39.912 194.197 39.912C194.424 39.912 194.611 39.9007 194.758 39.878C194.905 39.8553 195.047 39.827 195.183 39.793L195.336 40.949C195.166 41.0283 194.962 41.085 194.724 41.119C194.486 41.153 194.248 41.17 194.01 41.17ZM202.455 41L200.84 31.684H202.387L202.982 35.73C202.993 35.8433 203.016 36.07 203.05 36.41C203.095 36.75 203.14 37.141 203.186 37.583C203.242 38.025 203.293 38.45 203.339 38.858H203.424C203.503 38.3933 203.611 37.9003 203.747 37.379C203.883 36.8463 204.036 36.2797 204.206 35.679L205.362 31.684H206.586L207.742 35.679C207.912 36.2797 208.059 36.8463 208.184 37.379C208.32 37.9003 208.433 38.3933 208.524 38.858H208.592C208.66 38.1667 208.716 37.5547 208.762 37.022C208.818 36.4893 208.869 36.0587 208.915 35.73L209.884 28.335H211.38L209.51 41H208.014L206.467 35.934C206.387 35.696 206.314 35.4127 206.246 35.084C206.178 34.7553 206.104 34.3417 206.025 33.843H205.957C205.866 34.3417 205.787 34.7497 205.719 35.067C205.651 35.373 205.571 35.662 205.481 35.934L203.934 41H202.455ZM216.405 41.17C215.181 41.17 214.263 40.8527 213.651 40.218C213.051 39.5833 212.75 38.5747 212.75 37.192C212.75 36.9653 212.756 36.7217 212.767 36.461C212.79 36.189 212.813 35.9227 212.835 35.662H216.405V36.852H214.263V37.192C214.263 37.9173 214.343 38.4783 214.501 38.875C214.66 39.2717 214.892 39.5493 215.198 39.708C215.516 39.8667 215.907 39.946 216.371 39.946C216.881 39.946 217.323 39.8497 217.697 39.657C218.071 39.4643 218.36 39.113 218.564 38.603C218.768 38.093 218.87 37.362 218.87 36.41C218.87 35.1633 218.655 34.2453 218.224 33.656C217.805 33.0667 217.074 32.772 216.031 32.772C215.487 32.772 214.966 32.8457 214.467 32.993C213.98 33.129 213.51 33.3273 213.056 33.588V32.177C213.396 31.9957 213.844 31.8427 214.399 31.718C214.955 31.582 215.561 31.514 216.218 31.514C217.216 31.514 218.02 31.718 218.632 32.126C219.256 32.5227 219.709 33.0893 219.992 33.826C220.276 34.5513 220.417 35.4127 220.417 36.41C220.417 37.4073 220.287 38.263 220.026 38.977C219.766 39.691 219.341 40.235 218.751 40.609C218.173 40.983 217.391 41.17 216.405 41.17ZM225.487 41.17C224.819 41.17 224.195 41.1077 223.617 40.983C223.051 40.847 222.569 40.6883 222.172 40.507L222.614 39.283C222.977 39.4303 223.408 39.572 223.906 39.708C224.416 39.844 224.955 39.912 225.521 39.912C226.122 39.912 226.621 39.7987 227.017 39.572C227.414 39.3453 227.612 39.0167 227.612 38.586C227.612 38.2007 227.454 37.8833 227.136 37.634C226.819 37.3847 226.309 37.1523 225.606 36.937C224.881 36.7103 224.275 36.4723 223.787 36.223C223.3 35.9623 222.926 35.6563 222.665 35.305C222.416 34.9537 222.291 34.506 222.291 33.962C222.291 33.2593 222.58 32.6757 223.158 32.211C223.736 31.7463 224.66 31.514 225.929 31.514C226.473 31.514 226.983 31.565 227.459 31.667C227.947 31.7577 228.326 31.888 228.598 32.058V33.333C228.304 33.197 227.907 33.0667 227.408 32.942C226.921 32.8173 226.411 32.755 225.878 32.755C225.108 32.755 224.569 32.874 224.263 33.112C223.957 33.3387 223.804 33.5993 223.804 33.894C223.804 34.1433 223.872 34.353 224.008 34.523C224.156 34.693 224.399 34.8573 224.739 35.016C225.091 35.1747 225.561 35.356 226.15 35.56C226.694 35.7413 227.193 35.951 227.646 36.189C228.1 36.427 228.457 36.7273 228.717 37.09C228.989 37.4413 229.125 37.8947 229.125 38.45C229.125 38.926 229.006 39.3737 228.768 39.793C228.542 40.201 228.162 40.5353 227.629 40.796C227.097 41.0453 226.383 41.17 225.487 41.17ZM226.322 30.698C226.243 30.5847 226.18 30.426 226.135 30.222C226.078 30.018 226.05 29.8197 226.05 29.627C226.05 29.389 226.101 29.168 226.203 28.964C226.305 28.7487 226.486 28.573 226.747 28.437C226.996 28.301 227.359 28.233 227.835 28.233H230.164V29.406H228.226C227.999 29.406 227.818 29.4513 227.682 29.542C227.546 29.6213 227.478 29.763 227.478 29.967C227.478 30.0463 227.495 30.1313 227.529 30.222C227.552 30.3127 227.586 30.4033 227.631 30.494L226.322 30.698ZM235.658 41.17C234.921 41.17 234.292 41.0283 233.771 40.745C233.25 40.4503 232.893 40.0423 232.7 39.521H232.632L232.547 41H231.306V31.684H232.819V37.073C232.819 37.9343 233.04 38.62 233.482 39.13C233.924 39.64 234.547 39.895 235.352 39.895C236.678 39.895 237.341 39.2037 237.341 37.821V31.684H238.854V37.923C238.854 39.045 238.571 39.8667 238.004 40.388C237.449 40.9093 236.667 41.17 235.658 41.17Z" fill="#262E3F"/>
</svg>
