<svg width="198" height="27" viewBox="0 0 198 27" fill="none" xmlns="http://www.w3.org/2000/svg">
<path d="M6.192 20.312C5.248 20.312 4.296 20.208 3.336 20C2.392 19.792 1.552 19.496 0.816 19.112L1.824 16.256C2.304 16.512 2.92 16.784 3.672 17.072C4.424 17.344 5.216 17.48 6.048 17.48C7.344 17.48 7.992 17.104 7.992 16.352C7.992 15.936 7.744 15.616 7.248 15.392C6.768 15.152 6.096 14.88 5.232 14.576C4.384 14.288 3.656 13.968 3.048 13.616C2.44 13.264 1.968 12.832 1.632 12.32C1.312 11.808 1.152 11.16 1.152 10.376C1.152 9.064 1.64 8.096 2.616 7.472C3.608 6.848 4.928 6.536 6.576 6.536C7.472 6.536 8.28 6.616 9 6.776C9.72 6.92 10.28 7.096 10.68 7.304V10.136C10.264 9.944 9.672 9.76 8.904 9.584C8.152 9.392 7.432 9.296 6.744 9.296C5.416 9.296 4.752 9.632 4.752 10.304C4.752 10.688 5.008 10.992 5.52 11.216C6.048 11.424 6.784 11.688 7.728 12.008C8.976 12.44 9.928 12.96 10.584 13.568C11.256 14.176 11.592 15.04 11.592 16.16C11.592 16.88 11.424 17.56 11.088 18.2C10.768 18.824 10.216 19.336 9.432 19.736C8.648 20.12 7.568 20.312 6.192 20.312ZM13.8619 20V12.2C13.8619 10.36 14.3499 8.96 15.3259 8C16.3019 7.024 17.8539 6.536 19.9819 6.536C20.6219 6.536 21.2139 6.6 21.7579 6.728C22.3019 6.84 22.7819 7.04 23.1979 7.328C23.7099 6.976 23.9739 6.528 23.9899 5.984H27.1339C27.1339 6.592 26.9819 7.168 26.6779 7.712C26.3739 8.256 25.8779 8.704 25.1899 9.056C25.4939 9.44 25.7099 9.904 25.8379 10.448C25.9659 10.976 26.0299 11.568 26.0299 12.224V20H22.4539V12.152C22.4539 11.304 22.2539 10.64 21.8539 10.16C21.4699 9.664 20.8379 9.416 19.9579 9.416C19.0619 9.416 18.4139 9.664 18.0139 10.16C17.6299 10.64 17.4379 11.304 17.4379 12.152V14.24L17.5099 14.264C17.8299 13.64 18.1979 13.232 18.6139 13.04C19.0299 12.832 19.6059 12.728 20.3419 12.728H20.9179V15.416H20.3419C19.5419 15.416 18.9339 15.552 18.5179 15.824C18.1019 16.096 17.8139 16.456 17.6539 16.904C17.5099 17.336 17.4379 17.824 17.4379 18.368V20H13.8619ZM29.1302 18.32C29.1302 17.584 29.3302 17.072 29.7302 16.784C30.1302 16.48 30.6182 16.328 31.1942 16.328C31.7542 16.328 32.2342 16.48 32.6342 16.784C33.0342 17.072 33.2342 17.584 33.2342 18.32C33.2342 19.024 33.0342 19.536 32.6342 19.856C32.2342 20.16 31.7542 20.312 31.1942 20.312C30.6182 20.312 30.1302 20.16 29.7302 19.856C29.3302 19.536 29.1302 19.024 29.1302 18.32ZM45.5443 20.312C44.7283 20.312 43.9603 20.216 43.2403 20.024C42.5203 19.848 41.8483 19.592 41.2243 19.256L42.1843 16.64C42.5363 16.848 42.9603 17.032 43.4563 17.192C43.9523 17.352 44.4403 17.432 44.9203 17.432C45.8163 17.432 46.5283 17.096 47.0563 16.424C47.5843 15.736 47.8483 14.712 47.8483 13.352C47.8483 12.088 47.5843 11.12 47.0563 10.448C46.5283 9.76 45.7043 9.416 44.5843 9.416C44.0563 9.416 43.5123 9.496 42.9523 9.656C42.3923 9.8 41.9283 9.984 41.5603 10.208V7.256C42.0563 7.032 42.6163 6.856 43.2403 6.728C43.8643 6.6 44.5283 6.536 45.2323 6.536C47.4403 6.536 49.0403 7.144 50.0323 8.36C51.0243 9.56 51.5203 11.224 51.5203 13.352C51.5203 15.64 51.0003 17.376 49.9603 18.56C48.9203 19.728 47.4483 20.312 45.5443 20.312ZM40.1229 5.024V3.512L42.5469 2.504H51.1149V5.024H40.1229ZM58.4004 20.312C57.4564 20.312 56.5044 20.208 55.5444 20C54.6004 19.792 53.7604 19.496 53.0244 19.112L54.0324 16.256C54.5124 16.512 55.1284 16.784 55.8804 17.072C56.6324 17.344 57.4244 17.48 58.2564 17.48C59.5524 17.48 60.2004 17.104 60.2004 16.352C60.2004 15.936 59.9524 15.616 59.4564 15.392C58.9764 15.152 58.3044 14.88 57.4404 14.576C56.5924 14.288 55.8644 13.968 55.2564 13.616C54.6484 13.264 54.1764 12.832 53.8404 12.32C53.5204 11.808 53.3604 11.16 53.3604 10.376C53.3604 9.064 53.8484 8.096 54.8244 7.472C55.8164 6.848 57.1364 6.536 58.7844 6.536C59.6804 6.536 60.4884 6.616 61.2084 6.776C61.9284 6.92 62.4884 7.096 62.8884 7.304V10.136C62.4724 9.944 61.8804 9.76 61.1124 9.584C60.3604 9.392 59.6404 9.296 58.9524 9.296C57.6244 9.296 56.9604 9.632 56.9604 10.304C56.9604 10.688 57.2164 10.992 57.7284 11.216C58.2564 11.424 58.9924 11.688 59.9364 12.008C61.1844 12.44 62.1364 12.96 62.7924 13.568C63.4644 14.176 63.8004 15.04 63.8004 16.16C63.8004 16.88 63.6324 17.56 63.2964 18.2C62.9764 18.824 62.4244 19.336 61.6404 19.736C60.8564 20.12 59.7764 20.312 58.4004 20.312ZM59.2114 26.264V24.128C59.2114 23.728 59.0354 23.528 58.6834 23.528C58.6034 23.528 58.5234 23.536 58.4434 23.552C58.3634 23.584 58.2834 23.608 58.2034 23.624L58.0354 21.896C58.2594 21.816 58.5634 21.736 58.9474 21.656C59.3314 21.576 59.7314 21.536 60.1474 21.536C60.9314 21.536 61.4834 21.688 61.8034 21.992C62.1234 22.312 62.2834 22.744 62.2834 23.288V26.264H59.2114ZM66.8143 20L64.8943 6.848H68.4463L69.0463 12.224C69.0943 12.624 69.1423 13.168 69.1903 13.856C69.2543 14.528 69.2863 15.28 69.2863 16.112H69.3583C69.5663 15.376 69.7583 14.736 69.9343 14.192C70.1263 13.648 70.3263 13.104 70.5343 12.56L71.6383 9.512H73.6783L74.7823 12.56C74.9743 13.104 75.1583 13.648 75.3343 14.192C75.5263 14.736 75.7263 15.376 75.9343 16.112H76.0303C76.0463 15.392 76.0863 14.696 76.1503 14.024C76.2143 13.336 76.2783 12.744 76.3423 12.248L76.6543 10.208C76.7983 9.28 76.6943 8.624 76.3423 8.24C76.0063 7.84 75.3983 7.64 74.5183 7.64H73.0303V5.288H74.9503C76.0543 5.288 76.8063 5.072 77.2063 4.64C77.6063 4.208 77.8063 3.656 77.8063 2.984V2.864H81.2383V2.984C81.2383 3.88 81.0383 4.664 80.6383 5.336C80.2383 5.992 79.5663 6.4 78.6223 6.56V6.656C79.3103 6.912 79.7583 7.36 79.9663 8C80.1903 8.64 80.2543 9.264 80.1583 9.872L78.5743 20H74.8303L73.6063 16.184C73.4303 15.624 73.2703 15.08 73.1263 14.552C72.9823 14.008 72.8383 13.336 72.6943 12.536H72.5983C72.4543 13.368 72.3023 14.056 72.1423 14.6C71.9983 15.144 71.8383 15.68 71.6623 16.208L70.3903 20H66.8143ZM82.8219 20V6.848H86.3739V11.768H86.4699L90.5499 6.848H94.5099V6.968L91.0299 10.832C92.1659 11.008 93.0219 11.488 93.5979 12.272C94.1739 13.056 94.4619 14 94.4619 15.104V20H90.8619V15.656C90.8619 14.936 90.6859 14.392 90.3339 14.024C89.9819 13.64 89.4699 13.4 88.7979 13.304L86.3739 15.992V20H82.8219ZM89.0681 5.552C88.9401 5.328 88.8361 5.04 88.7561 4.688C88.6601 4.336 88.6121 3.984 88.6121 3.632C88.6121 2.96 88.8121 2.392 89.2121 1.928C89.6121 1.448 90.3721 1.208 91.4921 1.208H94.9721V3.632H92.6681C92.0281 3.632 91.7081 3.872 91.7081 4.352C91.7081 4.576 91.7721 4.816 91.9001 5.072L89.0681 5.552ZM103.05 20V12.2C103.05 10.36 103.538 8.96 104.514 8C105.49 7.024 107.042 6.536 109.17 6.536C109.81 6.536 110.402 6.6 110.946 6.728C111.49 6.84 111.97 7.04 112.386 7.328C112.898 6.976 113.162 6.528 113.178 5.984H116.322C116.322 6.592 116.17 7.168 115.866 7.712C115.562 8.256 115.066 8.704 114.378 9.056C114.682 9.44 114.898 9.904 115.026 10.448C115.154 10.976 115.218 11.568 115.218 12.224V20H111.642V12.152C111.642 11.304 111.442 10.64 111.042 10.16C110.658 9.664 110.026 9.416 109.146 9.416C108.25 9.416 107.602 9.664 107.202 10.16C106.818 10.64 106.626 11.304 106.626 12.152V14.24L106.698 14.264C107.018 13.64 107.386 13.232 107.802 13.04C108.218 12.832 108.794 12.728 109.53 12.728H110.106V15.416H109.53C108.73 15.416 108.122 15.552 107.706 15.824C107.29 16.096 107.002 16.456 106.842 16.904C106.698 17.336 106.626 17.824 106.626 18.368V20H103.05ZM123.142 20.312C122.198 20.312 121.246 20.208 120.286 20C119.342 19.792 118.502 19.496 117.766 19.112L118.774 16.256C119.254 16.512 119.87 16.784 120.622 17.072C121.374 17.344 122.166 17.48 122.998 17.48C124.294 17.48 124.942 17.104 124.942 16.352C124.942 15.936 124.694 15.616 124.198 15.392C123.718 15.152 123.046 14.88 122.182 14.576C121.334 14.288 120.606 13.968 119.998 13.616C119.39 13.264 118.918 12.832 118.582 12.32C118.262 11.808 118.102 11.16 118.102 10.376C118.102 9.064 118.59 8.096 119.566 7.472C120.558 6.848 121.878 6.536 123.526 6.536C124.422 6.536 125.23 6.616 125.95 6.776C126.67 6.92 127.23 7.096 127.63 7.304V10.136C127.214 9.944 126.622 9.76 125.854 9.584C125.102 9.392 124.382 9.296 123.694 9.296C122.366 9.296 121.702 9.632 121.702 10.304C121.702 10.688 121.958 10.992 122.47 11.216C122.998 11.424 123.734 11.688 124.678 12.008C125.926 12.44 126.878 12.96 127.534 13.568C128.206 14.176 128.542 15.04 128.542 16.16C128.542 16.88 128.374 17.56 128.038 18.2C127.718 18.824 127.166 19.336 126.382 19.736C125.598 20.12 124.518 20.312 123.142 20.312ZM116.479 5.024V3.512L118.903 2.504H124.399V0.847999H127.471V5.024H116.479ZM136.5 20.312C134.404 20.312 132.892 19.832 131.964 18.872C131.036 17.896 130.572 16.488 130.572 14.648V6.848H134.172V14.84C134.172 15.688 134.356 16.336 134.724 16.784C135.108 17.216 135.7 17.432 136.5 17.432C137.3 17.432 137.884 17.216 138.252 16.784C138.636 16.336 138.828 15.688 138.828 14.84V6.848H142.428V14.648C142.428 16.488 141.956 17.896 141.012 18.872C140.084 19.832 138.58 20.312 136.5 20.312ZM150.055 20.312C149.111 20.312 148.159 20.208 147.199 20C146.255 19.792 145.415 19.496 144.679 19.112L145.687 16.256C146.167 16.512 146.783 16.784 147.535 17.072C148.287 17.344 149.079 17.48 149.911 17.48C151.207 17.48 151.855 17.104 151.855 16.352C151.855 15.936 151.607 15.616 151.111 15.392C150.631 15.152 149.959 14.88 149.095 14.576C148.247 14.288 147.519 13.968 146.911 13.616C146.303 13.264 145.831 12.832 145.495 12.32C145.175 11.808 145.015 11.16 145.015 10.376C145.015 9.064 145.503 8.096 146.479 7.472C147.471 6.848 148.791 6.536 150.439 6.536C151.335 6.536 152.143 6.616 152.863 6.776C153.583 6.92 154.143 7.096 154.543 7.304V10.136C154.127 9.944 153.535 9.76 152.767 9.584C152.015 9.392 151.295 9.296 150.607 9.296C149.279 9.296 148.615 9.632 148.615 10.304C148.615 10.688 148.871 10.992 149.383 11.216C149.911 11.424 150.647 11.688 151.591 12.008C152.839 12.44 153.791 12.96 154.447 13.568C155.119 14.176 155.455 15.04 155.455 16.16C155.455 16.88 155.287 17.56 154.951 18.2C154.631 18.824 154.079 19.336 153.295 19.736C152.511 20.12 151.431 20.312 150.055 20.312ZM143.438 5.024V3.512L145.862 2.504H154.43V5.024H143.438ZM161.997 20.312C161.053 20.312 160.101 20.208 159.141 20C158.197 19.792 157.357 19.496 156.621 19.112L157.629 16.256C158.109 16.512 158.725 16.784 159.477 17.072C160.229 17.344 161.021 17.48 161.853 17.48C163.149 17.48 163.797 17.104 163.797 16.352C163.797 15.936 163.549 15.616 163.053 15.392C162.573 15.152 161.901 14.88 161.037 14.576C160.189 14.288 159.461 13.968 158.853 13.616C158.245 13.264 157.773 12.832 157.437 12.32C157.117 11.808 156.957 11.16 156.957 10.376C156.957 9.064 157.445 8.096 158.421 7.472C159.413 6.848 160.733 6.536 162.381 6.536C163.277 6.536 164.085 6.616 164.805 6.776C165.525 6.92 166.085 7.096 166.485 7.304V10.136C166.069 9.944 165.477 9.76 164.709 9.584C163.957 9.392 163.237 9.296 162.549 9.296C161.221 9.296 160.557 9.632 160.557 10.304C160.557 10.688 160.813 10.992 161.325 11.216C161.853 11.424 162.589 11.688 163.533 12.008C164.781 12.44 165.733 12.96 166.389 13.568C167.061 14.176 167.397 15.04 167.397 16.16C167.397 16.88 167.229 17.56 166.893 18.2C166.573 18.824 166.021 19.336 165.237 19.736C164.453 20.12 163.373 20.312 161.997 20.312ZM162.868 5.024C162.116 5.024 161.524 4.912 161.092 4.688C160.66 4.464 160.356 4.184 160.18 3.848C159.988 3.496 159.892 3.128 159.892 2.744C159.892 2.136 160.052 1.552 160.372 0.991999L162.988 1.328C162.908 1.568 162.868 1.792 162.868 2C162.868 2.224 162.94 2.4 163.084 2.528C163.212 2.64 163.436 2.696 163.756 2.696H168.916V5.024H162.868ZM169.307 20V15.992C169.307 14.984 169.499 14.208 169.883 13.664C170.283 13.12 170.859 12.736 171.611 12.512L171.635 12.416L169.067 11.48V10.856C169.067 10.072 169.299 9.352 169.763 8.696C170.227 8.04 170.907 7.52 171.803 7.136C172.715 6.736 173.819 6.536 175.115 6.536C176.923 6.536 178.363 6.96 179.435 7.808C180.507 8.64 181.043 9.904 181.043 11.6V20H177.443V11.816C177.443 11.016 177.227 10.416 176.795 10.016C176.379 9.616 175.787 9.416 175.019 9.416C174.267 9.416 173.707 9.576 173.339 9.896C172.971 10.2 172.779 10.576 172.763 11.024L174.899 12.008L174.635 13.568C174.059 13.6 173.627 13.808 173.339 14.192C173.051 14.576 172.907 15.096 172.907 15.752V20H169.307ZM190.307 20.312C188.115 20.312 186.539 19.824 185.579 18.848C184.635 17.856 184.163 16.44 184.163 14.6V6.848H187.739V14.792C187.739 15.672 187.939 16.336 188.339 16.784C188.755 17.232 189.427 17.456 190.355 17.456C191.251 17.456 191.891 17.248 192.275 16.832C192.659 16.416 192.851 15.736 192.851 14.792V14.768H191.843C191.075 14.768 190.475 14.648 190.043 14.408C189.611 14.152 189.307 13.832 189.131 13.448C188.955 13.048 188.867 12.648 188.867 12.248C188.867 11.96 188.907 11.656 188.987 11.336C189.067 11.016 189.187 10.76 189.347 10.568L191.483 11C191.387 11.192 191.339 11.416 191.339 11.672C191.339 11.88 191.403 12.064 191.531 12.224C191.659 12.368 191.835 12.44 192.059 12.44H192.851V6.848H196.427V12.44H197.819V14.768H196.427C196.395 16.56 195.899 17.936 194.939 18.896C193.995 19.84 192.451 20.312 190.307 20.312ZM191.751 5.552C191.623 5.328 191.519 5.04 191.439 4.688C191.343 4.336 191.295 3.984 191.295 3.632C191.295 2.96 191.495 2.392 191.895 1.928C192.295 1.448 193.055 1.208 194.175 1.208H197.655V3.632H195.351C194.711 3.632 194.391 3.872 194.391 4.352C194.391 4.576 194.455 4.816 194.583 5.072L191.751 5.552Z" fill="#1F2883"/>
</svg>
