<svg width="1140" height="67" viewBox="0 0 1140 67" fill="none" xmlns="http://www.w3.org/2000/svg">
<path d="M182.072 41.22C180.811 41.22 179.835 40.9413 179.146 40.384C178.471 39.8267 177.995 39.064 177.716 38.096C177.452 37.128 177.32 36.0133 177.32 34.752C177.32 32.6107 177.628 31.0707 178.244 30.132C178.86 29.1933 179.755 28.724 180.928 28.724C181.441 28.724 181.881 28.8193 182.248 29.01C182.615 29.186 182.886 29.494 183.062 29.934H183.15C183.311 29.4793 183.59 29.164 183.986 28.988C184.397 28.812 184.866 28.724 185.394 28.724C186.362 28.724 187.103 28.9807 187.616 29.494C188.144 30.0073 188.408 30.7847 188.408 31.826V41H186.054V32.024C186.054 31.496 185.944 31.1367 185.724 30.946C185.504 30.7553 185.218 30.66 184.866 30.66C184.485 30.66 184.206 30.7553 184.03 30.946C183.854 31.1367 183.744 31.452 183.7 31.892H182.446C182.387 31.408 182.241 31.0853 182.006 30.924C181.786 30.748 181.537 30.66 181.258 30.66C180.73 30.66 180.334 30.9753 180.07 31.606C179.806 32.2367 179.674 33.2927 179.674 34.774C179.674 35.7273 179.747 36.5487 179.894 37.238C180.041 37.9127 180.305 38.4333 180.686 38.8C181.082 39.152 181.654 39.328 182.402 39.328C182.651 39.328 182.864 39.3133 183.04 39.284C183.216 39.2547 183.385 39.218 183.546 39.174L183.788 40.934C183.553 41.0367 183.289 41.11 182.996 41.154C182.703 41.198 182.395 41.22 182.072 41.22ZM178.481 27.096V26.084L180.263 25.314H188.051V27.096H178.481ZM195.99 41.22C194.802 41.22 193.863 40.9487 193.174 40.406C192.499 39.8633 192.022 39.13 191.744 38.206C191.465 37.282 191.326 36.2407 191.326 35.082C191.326 33.41 191.56 32.112 192.03 31.188C192.499 30.264 193.152 29.6187 193.988 29.252C194.824 28.8853 195.792 28.702 196.892 28.702C198.725 28.702 200.045 29.0907 200.852 29.868C201.658 30.6453 202.062 31.694 202.062 33.014V41H199.708V33.234C199.708 32.3833 199.495 31.738 199.07 31.298C198.659 30.858 197.948 30.638 196.936 30.638C196.305 30.638 195.748 30.7553 195.264 30.99C194.78 31.2247 194.398 31.6647 194.12 32.31C193.841 32.9407 193.702 33.8647 193.702 35.082C193.702 35.8887 193.782 36.6073 193.944 37.238C194.105 37.8687 194.376 38.3673 194.758 38.734C195.154 39.1007 195.696 39.284 196.386 39.284C196.796 39.284 197.156 39.2327 197.464 39.13L197.684 40.934C197.449 41.0367 197.178 41.11 196.87 41.154C196.562 41.198 196.268 41.22 195.99 41.22ZM209.83 41.22C208.568 41.22 207.593 40.9413 206.904 40.384C206.229 39.8267 205.752 39.064 205.474 38.096C205.21 37.128 205.078 36.0133 205.078 34.752C205.078 32.6107 205.386 31.0707 206.002 30.132C206.618 29.1933 207.512 28.724 208.686 28.724C209.199 28.724 209.639 28.8193 210.006 29.01C210.372 29.186 210.644 29.494 210.82 29.934H210.908C211.069 29.4793 211.348 29.164 211.744 28.988C212.154 28.812 212.624 28.724 213.152 28.724C214.12 28.724 214.86 28.9807 215.374 29.494C215.902 30.0073 216.166 30.7847 216.166 31.826V41H213.812V32.024C213.812 31.496 213.702 31.1367 213.482 30.946C213.262 30.7553 212.976 30.66 212.624 30.66C212.242 30.66 211.964 30.7553 211.788 30.946C211.612 31.1367 211.502 31.452 211.458 31.892H210.204C210.145 31.408 209.998 31.0853 209.764 30.924C209.544 30.748 209.294 30.66 209.016 30.66C208.488 30.66 208.092 30.9753 207.828 31.606C207.564 32.2367 207.432 33.2927 207.432 34.774C207.432 35.7273 207.505 36.5487 207.652 37.238C207.798 37.9127 208.062 38.4333 208.444 38.8C208.84 39.152 209.412 39.328 210.16 39.328C210.409 39.328 210.622 39.3133 210.798 39.284C210.974 39.2547 211.142 39.218 211.304 39.174L211.546 40.934C211.311 41.0367 211.047 41.11 210.754 41.154C210.46 41.198 210.152 41.22 209.83 41.22ZM213.499 27.096V22.366H215.743V27.096H213.499ZM223.99 41.242C222.332 41.242 221.1 40.824 220.294 39.988C219.487 39.152 219.084 37.8467 219.084 36.072C219.084 35.7787 219.091 35.4487 219.106 35.082C219.135 34.7153 219.172 34.3707 219.216 34.048H224.034V35.742H221.438V36.138C221.438 37.3847 221.643 38.2427 222.054 38.712C222.479 39.1667 223.11 39.394 223.946 39.394C224.547 39.394 225.068 39.2767 225.508 39.042C225.962 38.7927 226.307 38.36 226.542 37.744C226.791 37.128 226.916 36.248 226.916 35.104C226.916 33.5787 226.652 32.4567 226.124 31.738C225.61 31.0047 224.701 30.638 223.396 30.638C222.706 30.638 222.024 30.7333 221.35 30.924C220.69 31.1 220.088 31.3493 219.546 31.672V29.56C220 29.3253 220.602 29.1273 221.35 28.966C222.098 28.79 222.897 28.702 223.748 28.702C225.068 28.702 226.138 28.966 226.96 29.494C227.781 30.0073 228.382 30.7407 228.764 31.694C229.145 32.6473 229.336 33.7693 229.336 35.06C229.336 37.0253 228.925 38.5507 228.104 39.636C227.297 40.7067 225.926 41.242 223.99 41.242ZM235.585 41.22C234.309 41.22 233.327 40.9267 232.637 40.34C231.963 39.7387 231.625 38.8807 231.625 37.766C231.625 36.5633 232.058 35.6247 232.923 34.95C233.789 34.2753 235.204 33.8793 237.169 33.762L239.325 33.608V33.036C239.325 32.156 239.12 31.5327 238.709 31.166C238.299 30.7847 237.617 30.594 236.663 30.594C235.915 30.594 235.197 30.6967 234.507 30.902C233.818 31.1073 233.187 31.3787 232.615 31.716V29.626C233.041 29.406 233.62 29.2007 234.353 29.01C235.101 28.8047 235.945 28.702 236.883 28.702C237.47 28.702 237.998 28.7533 238.467 28.856C238.937 28.944 239.325 29.1127 239.633 29.362C239.853 29.23 240.037 29.0687 240.183 28.878C240.33 28.6727 240.403 28.4307 240.403 28.152H242.603C242.603 28.6947 242.457 29.1713 242.163 29.582C241.87 29.9927 241.474 30.3153 240.975 30.55C241.21 30.8287 241.379 31.1733 241.481 31.584C241.599 31.9947 241.657 32.464 241.657 32.992V41H239.325V35.478L237.455 35.61C236.15 35.7127 235.241 35.9327 234.727 36.27C234.229 36.5927 233.979 37.0693 233.979 37.7C233.979 38.3013 234.17 38.7413 234.551 39.02C234.933 39.2987 235.453 39.438 236.113 39.438C236.539 39.438 236.942 39.3793 237.323 39.262L237.609 40.912C237.037 41.1173 236.363 41.22 235.585 41.22ZM249.534 41.242C247.877 41.242 246.645 40.824 245.838 39.988C245.032 39.152 244.628 37.8467 244.628 36.072C244.628 35.7787 244.636 35.4487 244.65 35.082C244.68 34.7153 244.716 34.3707 244.76 34.048H249.578V35.742H246.982V36.138C246.982 37.3847 247.188 38.2427 247.598 38.712C248.024 39.1667 248.654 39.394 249.49 39.394C250.092 39.394 250.612 39.2767 251.052 39.042C251.507 38.7927 251.852 38.36 252.086 37.744C252.336 37.128 252.46 36.248 252.46 35.104C252.46 33.5787 252.196 32.4567 251.668 31.738C251.155 31.0047 250.246 30.638 248.94 30.638C248.251 30.638 247.569 30.7333 246.894 30.924C246.234 31.1 245.633 31.3493 245.09 31.672V29.56C245.545 29.3253 246.146 29.1273 246.894 28.966C247.642 28.79 248.442 28.702 249.292 28.702C250.612 28.702 251.683 28.966 252.504 29.494C253.326 30.0073 253.927 30.7407 254.308 31.694C254.69 32.6473 254.88 33.7693 254.88 35.06C254.88 37.0253 254.47 38.5507 253.648 39.636C252.842 40.7067 251.47 41.242 249.534 41.242ZM262.89 41.242C261.101 41.242 259.818 40.8313 259.04 40.01C258.263 39.1887 257.874 38.0153 257.874 36.49V28.944H260.228V36.556C260.228 37.4653 260.441 38.1547 260.866 38.624C261.306 39.0787 261.981 39.306 262.89 39.306C263.814 39.306 264.489 39.0787 264.914 38.624C265.354 38.1547 265.574 37.4653 265.574 36.556V28.944H267.928V36.49C267.928 38.0153 267.532 39.1887 266.74 40.01C265.963 40.8313 264.68 41.242 262.89 41.242ZM274.006 41.22C273.273 41.22 272.65 41.044 272.136 40.692C271.623 40.3253 271.366 39.68 271.366 38.756V36.864C271.366 35.9547 271.564 35.2947 271.96 34.884C272.356 34.4733 272.87 34.18 273.5 34.004L273.522 33.916L271.036 33.014V32.332C271.036 31.7013 271.234 31.1147 271.63 30.572C272.041 30.0147 272.628 29.5673 273.39 29.23C274.153 28.878 275.077 28.702 276.162 28.702C277.13 28.702 278.003 28.856 278.78 29.164C279.558 29.4573 280.174 29.9267 280.628 30.572C281.098 31.2027 281.332 32.0167 281.332 33.014V41H278.978V33.212C278.978 32.3027 278.707 31.65 278.164 31.254C277.622 30.8433 276.947 30.638 276.14 30.638C275.29 30.638 274.63 30.814 274.16 31.166C273.691 31.5033 273.449 31.936 273.434 32.464L275.766 33.564L275.59 34.708C275.033 34.7227 274.578 34.8547 274.226 35.104C273.874 35.3533 273.698 35.8373 273.698 36.556V38.492C273.698 39.108 274.006 39.416 274.622 39.416C274.916 39.416 275.18 39.372 275.414 39.284L275.7 40.868C275.422 41 275.143 41.088 274.864 41.132C274.586 41.1907 274.3 41.22 274.006 41.22ZM288.117 41V32.618C288.117 31.9287 287.955 31.4227 287.633 31.1C287.31 30.7773 286.782 30.616 286.049 30.616C285.535 30.616 285.059 30.6893 284.619 30.836C284.179 30.968 283.753 31.1513 283.343 31.386V29.362C283.651 29.2153 284.076 29.0687 284.619 28.922C285.176 28.7753 285.836 28.702 286.599 28.702C287.757 28.702 288.689 28.966 289.393 29.494C290.111 30.022 290.471 30.9387 290.471 32.244V41H288.117ZM300.086 41.22C299.118 41.22 298.296 41.0293 297.622 40.648C296.962 40.2667 296.507 39.746 296.258 39.086H296.126L295.95 41H294.08V28.944H296.434V35.566C296.434 36.7247 296.698 37.6267 297.226 38.272C297.754 38.9027 298.502 39.218 299.47 39.218C301.054 39.218 301.846 38.36 301.846 36.644V28.944H304.2V36.952C304.2 38.3893 303.84 39.46 303.122 40.164C302.403 40.868 301.391 41.22 300.086 41.22ZM311.219 41.242C310.353 41.242 309.525 41.154 308.733 40.978C307.955 40.802 307.288 40.582 306.731 40.318L307.413 38.426C307.867 38.6167 308.425 38.8147 309.085 39.02C309.759 39.2253 310.463 39.328 311.197 39.328C311.915 39.328 312.502 39.2033 312.957 38.954C313.411 38.69 313.639 38.3087 313.639 37.81C313.639 37.3553 313.426 36.9813 313.001 36.688C312.575 36.3947 311.93 36.1087 311.065 35.83C309.73 35.4047 308.703 34.9207 307.985 34.378C307.281 33.8207 306.929 33.0213 306.929 31.98C306.929 30.9827 307.325 30.1907 308.117 29.604C308.923 29.0027 310.126 28.702 311.725 28.702C312.458 28.702 313.14 28.768 313.771 28.9C314.416 29.032 314.915 29.2007 315.267 29.406V31.342C314.885 31.166 314.365 30.9973 313.705 30.836C313.059 30.6747 312.399 30.594 311.725 30.594C310.845 30.594 310.214 30.726 309.833 30.99C309.466 31.2393 309.283 31.54 309.283 31.892C309.283 32.3467 309.503 32.6987 309.943 32.948C310.397 33.1973 311.16 33.5053 312.231 33.872C312.964 34.1213 313.609 34.4 314.167 34.708C314.739 35.016 315.186 35.4047 315.509 35.874C315.831 36.3287 315.993 36.9153 315.993 37.634C315.993 38.2647 315.839 38.8587 315.531 39.416C315.237 39.9587 314.739 40.3987 314.035 40.736C313.345 41.0733 312.407 41.242 311.219 41.242ZM321.89 41V32.618C321.89 31.9287 321.729 31.4227 321.406 31.1C321.083 30.7773 320.555 30.616 319.822 30.616C319.309 30.616 318.832 30.6893 318.392 30.836C317.952 30.968 317.527 31.1513 317.116 31.386V29.362C317.424 29.2153 317.849 29.0687 318.392 28.922C318.949 28.7753 319.609 28.702 320.372 28.702C321.531 28.702 322.462 28.966 323.166 29.494C323.885 30.022 324.244 30.9387 324.244 32.244V41H321.89ZM332.451 41.22C330.618 41.22 329.32 40.8827 328.557 40.208C327.794 39.5187 327.413 38.6093 327.413 37.48C327.413 36.8053 327.508 36.27 327.699 35.874C327.904 35.478 328.161 35.1773 328.469 34.972C328.777 34.7667 329.092 34.6347 329.415 34.576V34.488C329.107 34.4 328.792 34.2533 328.469 34.048C328.161 33.8427 327.897 33.5567 327.677 33.19C327.472 32.8233 327.369 32.3613 327.369 31.804C327.369 31.2907 327.486 30.8067 327.721 30.352C327.97 29.8827 328.359 29.5013 328.887 29.208C329.43 28.9147 330.148 28.768 331.043 28.768C331.424 28.768 331.813 28.7973 332.209 28.856C332.605 28.9147 332.913 29.0027 333.133 29.12L332.737 30.836C332.59 30.792 332.392 30.748 332.143 30.704C331.894 30.66 331.644 30.638 331.395 30.638C330.838 30.638 330.42 30.77 330.141 31.034C329.877 31.298 329.745 31.6427 329.745 32.068C329.745 32.5373 329.862 32.8967 330.097 33.146C330.332 33.3807 330.632 33.542 330.999 33.63C331.38 33.718 331.769 33.762 332.165 33.762H332.605V35.368H332.165C331.358 35.368 330.764 35.5147 330.383 35.808C330.002 36.1013 329.811 36.578 329.811 37.238C329.811 37.6047 329.884 37.9493 330.031 38.272C330.192 38.5947 330.464 38.8587 330.845 39.064C331.226 39.2547 331.769 39.35 332.473 39.35C333.5 39.35 334.204 39.1373 334.585 38.712C334.966 38.2867 335.157 37.7147 335.157 36.996V28.944H337.511V36.864C337.511 38.3893 337.1 39.4967 336.279 40.186C335.472 40.8753 334.196 41.22 332.451 41.22ZM344.167 41.22C342.891 41.22 341.909 40.9267 341.219 40.34C340.545 39.7387 340.207 38.8807 340.207 37.766C340.207 36.5633 340.64 35.6247 341.505 34.95C342.371 34.2753 343.786 33.8793 345.751 33.762L347.907 33.608V33.036C347.907 32.156 347.702 31.5327 347.291 31.166C346.881 30.7847 346.199 30.594 345.245 30.594C344.497 30.594 343.779 30.6967 343.089 30.902C342.4 31.1073 341.769 31.3787 341.197 31.716V29.626C341.623 29.406 342.202 29.2007 342.935 29.01C343.683 28.8047 344.534 28.702 345.487 28.702C347.013 28.702 348.186 29.0393 349.007 29.714C349.829 30.374 350.239 31.4667 350.239 32.992V41H347.907V35.478L346.037 35.61C344.732 35.7127 343.823 35.9327 343.309 36.27C342.811 36.5927 342.561 37.0693 342.561 37.7C342.561 38.3013 342.752 38.7413 343.133 39.02C343.515 39.2987 344.035 39.438 344.695 39.438C345.121 39.438 345.524 39.3793 345.905 39.262L346.191 40.912C345.619 41.1173 344.945 41.22 344.167 41.22ZM355.368 33.564C354.429 33.564 353.762 33.3587 353.366 32.948C352.984 32.5373 352.794 32.0827 352.794 31.584C352.794 31.1 352.918 30.6453 353.168 30.22L355.06 30.484C355.03 30.572 354.994 30.682 354.95 30.814C354.92 30.9313 354.906 31.056 354.906 31.188C354.906 31.3933 354.957 31.5547 355.06 31.672C355.177 31.7893 355.375 31.848 355.654 31.848H358.602V33.564H355.368ZM355.368 39.724C354.429 39.724 353.762 39.5187 353.366 39.108C352.984 38.6973 352.794 38.2427 352.794 37.744C352.794 37.26 352.918 36.8053 353.168 36.38L355.06 36.644C355.03 36.732 354.994 36.842 354.95 36.974C354.92 37.0913 354.906 37.216 354.906 37.348C354.906 37.5533 354.957 37.7147 355.06 37.832C355.177 37.9493 355.375 38.008 355.654 38.008H358.602V39.724H355.368ZM364.14 41.22C363.421 41.22 362.805 41.044 362.292 40.692C361.793 40.3253 361.544 39.68 361.544 38.756V28.944H363.898V38.47C363.898 38.7927 363.964 39.0273 364.096 39.174C364.228 39.306 364.455 39.372 364.778 39.372C364.895 39.372 365.027 39.3573 365.174 39.328C365.321 39.2987 365.46 39.262 365.592 39.218L365.856 40.868C365.577 41 365.291 41.088 364.998 41.132C364.705 41.1907 364.419 41.22 364.14 41.22ZM372.253 41.242C370.596 41.242 369.364 40.824 368.557 39.988C367.751 39.152 367.347 37.8467 367.347 36.072C367.347 35.7787 367.355 35.4487 367.369 35.082C367.399 34.7153 367.435 34.3707 367.479 34.048H372.297V35.742H369.701V36.138C369.701 37.3847 369.907 38.2427 370.317 38.712C370.743 39.1667 371.373 39.394 372.209 39.394C372.811 39.394 373.331 39.2767 373.771 39.042C374.226 38.7927 374.571 38.36 374.805 37.744C375.055 37.128 375.179 36.248 375.179 35.104C375.179 33.5787 374.915 32.4567 374.387 31.738C373.874 31.0047 372.965 30.638 371.659 30.638C370.97 30.638 370.288 30.7333 369.613 30.924C368.953 31.1 368.352 31.3493 367.809 31.672V29.56C368.264 29.3253 368.865 29.1273 369.613 28.966C370.361 28.79 371.161 28.702 372.011 28.702C373.331 28.702 374.402 28.966 375.223 29.494C376.045 30.0073 376.646 30.7407 377.027 31.694C377.409 32.6473 377.599 33.7693 377.599 35.06C377.599 37.0253 377.189 38.5507 376.367 39.636C375.561 40.7067 374.189 41.242 372.253 41.242ZM367.222 27.096V26.084L369.004 25.314H374.68V23.62H376.814V26.106H376.792V27.096H367.222ZM385.367 41.22C383.534 41.22 382.236 40.8827 381.473 40.208C380.71 39.5187 380.329 38.6093 380.329 37.48C380.329 36.8053 380.424 36.27 380.615 35.874C380.82 35.478 381.077 35.1773 381.385 34.972C381.693 34.7667 382.008 34.6347 382.331 34.576V34.488C382.023 34.4 381.708 34.2533 381.385 34.048C381.077 33.8427 380.813 33.5567 380.593 33.19C380.388 32.8233 380.285 32.3613 380.285 31.804C380.285 31.2907 380.402 30.8067 380.637 30.352C380.886 29.8827 381.275 29.5013 381.803 29.208C382.346 28.9147 383.064 28.768 383.959 28.768C384.34 28.768 384.729 28.7973 385.125 28.856C385.521 28.9147 385.829 29.0027 386.049 29.12L385.653 30.836C385.506 30.792 385.308 30.748 385.059 30.704C384.81 30.66 384.56 30.638 384.311 30.638C383.754 30.638 383.336 30.77 383.057 31.034C382.793 31.298 382.661 31.6427 382.661 32.068C382.661 32.5373 382.778 32.8967 383.013 33.146C383.248 33.3807 383.548 33.542 383.915 33.63C384.296 33.718 384.685 33.762 385.081 33.762H385.521V35.368H385.081C384.274 35.368 383.68 35.5147 383.299 35.808C382.918 36.1013 382.727 36.578 382.727 37.238C382.727 37.6047 382.8 37.9493 382.947 38.272C383.108 38.5947 383.38 38.8587 383.761 39.064C384.142 39.2547 384.685 39.35 385.389 39.35C386.416 39.35 387.12 39.1373 387.501 38.712C387.882 38.2867 388.073 37.7147 388.073 36.996V28.944H390.427V36.864C390.427 38.3893 390.016 39.4967 389.195 40.186C388.388 40.8753 387.112 41.22 385.367 41.22ZM398.007 41.22C396.819 41.22 395.881 40.9487 395.191 40.406C394.517 39.8633 394.04 39.13 393.761 38.206C393.483 37.282 393.343 36.2407 393.343 35.082C393.343 33.41 393.578 32.112 394.047 31.188C394.517 30.264 395.169 29.6187 396.005 29.252C396.841 28.8853 397.809 28.702 398.909 28.702C400.743 28.702 402.063 29.0907 402.869 29.868C403.676 30.6453 404.079 31.694 404.079 33.014V41H401.725V33.234C401.725 32.3833 401.513 31.738 401.087 31.298C400.677 30.858 399.965 30.638 398.953 30.638C398.323 30.638 397.765 30.7553 397.281 30.99C396.797 31.2247 396.416 31.6647 396.137 32.31C395.859 32.9407 395.719 33.8647 395.719 35.082C395.719 35.8887 395.8 36.6073 395.961 37.238C396.123 37.8687 396.394 38.3673 396.775 38.734C397.171 39.1007 397.714 39.284 398.403 39.284C398.814 39.284 399.173 39.2327 399.481 39.13L399.701 40.934C399.467 41.0367 399.195 41.11 398.887 41.154C398.579 41.198 398.286 41.22 398.007 41.22ZM410.417 41.22C409.699 41.22 409.083 41.044 408.569 40.692C408.071 40.3253 407.821 39.68 407.821 38.756V28.944H410.175V38.47C410.175 38.7927 410.241 39.0273 410.373 39.174C410.505 39.306 410.733 39.372 411.055 39.372C411.173 39.372 411.305 39.3573 411.451 39.328C411.598 39.2987 411.737 39.262 411.869 39.218L412.133 40.868C411.855 41 411.569 41.088 411.275 41.132C410.982 41.1907 410.696 41.22 410.417 41.22ZM415.17 41L413.014 28.944H415.368L416.16 33.894C416.218 34.3047 416.277 34.8327 416.336 35.478C416.409 36.1233 416.497 36.8933 416.6 37.788H416.666C416.856 36.8933 417.04 36.1233 417.216 35.478C417.392 34.818 417.538 34.268 417.656 33.828L419.042 28.944H420.78L422.188 33.828C422.305 34.268 422.444 34.818 422.606 35.478C422.782 36.1233 422.972 36.8933 423.178 37.788H423.244C423.332 36.8933 423.405 36.1233 423.464 35.478C423.537 34.8327 423.61 34.3047 423.684 33.894L424.476 28.944H426.83L424.696 41H422.386L420.56 34.928C420.442 34.5173 420.332 34.0993 420.23 33.674C420.142 33.2487 420.061 32.7353 419.988 32.134H419.9C419.797 32.7353 419.694 33.2487 419.592 33.674C419.489 34.0847 419.379 34.5027 419.262 34.928L417.436 41H415.17ZM416.356 27.096V26.084L418.138 25.314H425.926V27.096H416.356ZM423.792 24.366V20.626H425.948V24.366H423.792ZM435.566 41.22C434.598 41.22 433.777 41.0293 433.102 40.648C432.442 40.2667 431.987 39.746 431.738 39.086H431.606L431.43 41H429.56V28.944H431.914V35.566C431.914 36.7247 432.178 37.6267 432.706 38.272C433.234 38.9027 433.982 39.218 434.95 39.218C436.534 39.218 437.326 38.36 437.326 36.644V28.944H439.68V36.952C439.68 38.3893 439.321 39.46 438.602 40.164C437.883 40.868 436.871 41.22 435.566 41.22ZM446.017 41.22C445.298 41.22 444.682 41.044 444.169 40.692C443.67 40.3253 443.421 39.68 443.421 38.756V28.944H445.775V38.47C445.775 38.7927 445.841 39.0273 445.973 39.174C446.105 39.306 446.332 39.372 446.655 39.372C446.772 39.372 446.904 39.3573 447.051 39.328C447.198 39.2987 447.337 39.262 447.469 39.218L447.733 40.868C447.454 41 447.168 41.088 446.875 41.132C446.582 41.1907 446.296 41.22 446.017 41.22ZM454.021 41.22C452.76 41.22 451.785 40.9413 451.095 40.384C450.421 39.8267 449.944 39.064 449.665 38.096C449.401 37.128 449.269 36.0133 449.269 34.752C449.269 32.6107 449.577 31.0707 450.193 30.132C450.809 29.1933 451.704 28.724 452.877 28.724C453.391 28.724 453.831 28.8193 454.197 29.01C454.564 29.186 454.835 29.494 455.011 29.934H455.099C455.261 29.4793 455.539 29.164 455.935 28.988C456.346 28.812 456.815 28.724 457.343 28.724C458.311 28.724 459.052 28.9807 459.565 29.494C460.093 30.0073 460.357 30.7847 460.357 31.826V41H458.003V32.024C458.003 31.496 457.893 31.1367 457.673 30.946C457.453 30.7553 457.167 30.66 456.815 30.66C456.434 30.66 456.155 30.7553 455.979 30.946C455.803 31.1367 455.693 31.452 455.649 31.892H454.395C454.337 31.408 454.19 31.0853 453.955 30.924C453.735 30.748 453.486 30.66 453.207 30.66C452.679 30.66 452.283 30.9753 452.019 31.606C451.755 32.2367 451.623 33.2927 451.623 34.774C451.623 35.7273 451.697 36.5487 451.843 37.238C451.99 37.9127 452.254 38.4333 452.635 38.8C453.031 39.152 453.603 39.328 454.351 39.328C454.601 39.328 454.813 39.3133 454.989 39.284C455.165 39.2547 455.334 39.218 455.495 39.174L455.737 40.934C455.503 41.0367 455.239 41.11 454.945 41.154C454.652 41.198 454.344 41.22 454.021 41.22ZM450.431 27.096V26.084L452.213 25.314H460.001V27.096H450.431ZM469.941 41.22C468.973 41.22 468.152 41.0293 467.477 40.648C466.817 40.2667 466.362 39.746 466.113 39.086H465.981L465.805 41H463.935V28.944H466.289V35.566C466.289 36.7247 466.553 37.6267 467.081 38.272C467.609 38.9027 468.357 39.218 469.325 39.218C470.909 39.218 471.701 38.36 471.701 36.644V28.944H474.055V36.952C474.055 38.3893 473.696 39.46 472.977 40.164C472.258 40.868 471.246 41.22 469.941 41.22Z" fill="#6E7788"/>
<path d="M565.776 42V33.984C565.776 32.224 566.24 30.88 567.168 29.952C568.096 29.024 569.584 28.56 571.632 28.56C573.664 28.56 575.136 29.024 576.048 29.952C576.976 30.88 577.44 32.224 577.44 33.984V42H574.392V33.936C574.392 33.008 574.16 32.296 573.696 31.8C573.248 31.288 572.544 31.032 571.584 31.032C570.64 31.032 569.936 31.288 569.472 31.8C569.024 32.296 568.8 33.008 568.8 33.936V36.24L568.872 36.264C569.176 35.64 569.56 35.232 570.024 35.04C570.488 34.832 571.128 34.728 571.944 34.728H572.568V37.08H571.944C571.064 37.08 570.4 37.216 569.952 37.488C569.504 37.76 569.2 38.12 569.04 38.568C568.88 39 568.8 39.488 568.8 40.032V42H565.776ZM574.79 48.264V45.984C574.79 45.584 574.614 45.384 574.262 45.384C574.182 45.384 574.102 45.392 574.022 45.408C573.942 45.44 573.862 45.464 573.782 45.48L573.614 43.848C573.838 43.768 574.126 43.696 574.478 43.632C574.83 43.568 575.166 43.536 575.486 43.536C576.19 43.536 576.694 43.68 576.998 43.968C577.286 44.272 577.43 44.68 577.43 45.192V48.264H574.79ZM584.035 42.24C583.139 42.24 582.395 42.024 581.803 41.592C581.227 41.144 580.939 40.408 580.939 39.384V37.536C580.939 36.576 581.147 35.872 581.563 35.424C581.979 34.976 582.547 34.648 583.267 34.44L583.291 34.344L580.627 33.384V32.688C580.627 31.92 580.851 31.224 581.299 30.6C581.747 29.976 582.387 29.48 583.219 29.112C584.067 28.744 585.075 28.56 586.243 28.56C587.315 28.56 588.267 28.728 589.099 29.064C589.931 29.4 590.587 29.912 591.067 30.6C591.547 31.288 591.787 32.176 591.787 33.264V37.248C591.787 38.08 591.971 38.688 592.339 39.072C592.707 39.44 593.187 39.624 593.779 39.624C594.563 39.624 595.195 39.312 595.675 38.688C596.171 38.048 596.419 37.208 596.419 36.168V28.848H599.467V42H597.067L596.779 39.936H596.611C596.323 40.64 595.843 41.2 595.171 41.616C594.515 42.032 593.723 42.24 592.795 42.24C591.515 42.24 590.523 41.896 589.819 41.208C589.131 40.52 588.787 39.416 588.787 37.896V33.504C588.787 32.56 588.531 31.912 588.019 31.56C587.523 31.192 586.923 31.008 586.219 31.008C585.515 31.008 584.931 31.16 584.467 31.464C584.019 31.768 583.779 32.216 583.747 32.808L586.099 33.912L585.859 35.328C585.267 35.328 584.795 35.48 584.443 35.784C584.107 36.088 583.939 36.608 583.939 37.344V39.048C583.939 39.704 584.259 40.032 584.899 40.032C585.235 40.032 585.523 39.984 585.763 39.888L586.099 41.808C585.795 41.968 585.467 42.08 585.115 42.144C584.763 42.208 584.403 42.24 584.035 42.24ZM607.718 42.24C606.262 42.24 605.142 41.84 604.358 41.04C603.59 40.224 603.206 39 603.206 37.368V28.848H606.254V36.936C606.254 37.864 606.454 38.544 606.854 38.976C607.254 39.408 607.846 39.624 608.63 39.624C609.574 39.624 610.302 39.288 610.814 38.616C611.342 37.944 611.606 36.952 611.606 35.64V28.848H614.654V42H612.278L612.014 40.008H611.822C611.55 40.664 611.07 41.2 610.382 41.616C609.71 42.032 608.822 42.24 607.718 42.24ZM611.313 26.928C610.225 26.928 609.473 26.704 609.057 26.256C608.641 25.808 608.433 25.304 608.433 24.744C608.433 24.488 608.473 24.216 608.553 23.928C608.617 23.624 608.721 23.352 608.865 23.112L611.169 23.448C611.089 23.64 611.049 23.872 611.049 24.144C611.049 24.368 611.121 24.544 611.265 24.672C611.393 24.8 611.609 24.864 611.913 24.864H617.433V26.928H611.313ZM622.929 42.24C621.473 42.24 620.353 41.84 619.569 41.04C618.801 40.224 618.417 39 618.417 37.368V28.848H621.465V36.936C621.465 37.864 621.665 38.544 622.065 38.976C622.465 39.408 623.057 39.624 623.841 39.624C624.785 39.624 625.513 39.288 626.025 38.616C626.553 37.944 626.817 36.952 626.817 35.64V28.848H629.865V42H627.489L627.225 40.008H627.033C626.761 40.664 626.281 41.2 625.593 41.616C624.921 42.032 624.033 42.24 622.929 42.24ZM633.772 42V28.848H635.98L636.412 30.912H636.58C636.852 30.224 637.332 29.672 638.02 29.256C638.708 28.824 639.58 28.608 640.636 28.608C642.124 28.608 643.26 29 644.044 29.784C644.828 30.568 645.22 31.776 645.22 33.408V42H642.172V33.912C642.172 32.984 641.964 32.304 641.548 31.872C641.148 31.44 640.556 31.224 639.772 31.224C638.828 31.224 638.1 31.584 637.588 32.304C637.076 33.008 636.82 33.976 636.82 35.208V42H633.772ZM650.136 42L647.832 28.848H650.832L651.6 33.888C651.648 34.304 651.704 34.856 651.768 35.544C651.848 36.232 651.936 37.04 652.032 37.968H652.104C652.312 37.04 652.504 36.232 652.68 35.544C652.856 34.856 653.008 34.28 653.136 33.816L654.552 28.848H656.568L657.984 33.816C658.112 34.28 658.264 34.856 658.44 35.544C658.616 36.232 658.816 37.04 659.04 37.968H659.112C659.192 37.04 659.264 36.232 659.328 35.544C659.392 34.856 659.464 34.304 659.544 33.888L660.336 28.848H663.312L661.008 42H658.032L656.256 35.976C656.096 35.432 655.968 34.92 655.872 34.44C655.792 33.944 655.712 33.392 655.632 32.784H655.536C655.44 33.392 655.344 33.936 655.248 34.416C655.152 34.896 655.016 35.416 654.84 35.976L653.064 42H650.136ZM670.124 42.288C669.18 42.288 668.26 42.192 667.364 42C666.468 41.792 665.684 41.52 665.012 41.184L665.876 38.76C666.372 39 666.988 39.24 667.724 39.48C668.46 39.72 669.236 39.84 670.052 39.84C670.772 39.84 671.34 39.728 671.756 39.504C672.172 39.264 672.38 38.912 672.38 38.448C672.38 37.984 672.14 37.616 671.66 37.344C671.196 37.056 670.508 36.76 669.596 36.456C668.684 36.152 667.908 35.824 667.268 35.472C666.628 35.12 666.14 34.688 665.804 34.176C665.468 33.664 665.3 33.024 665.3 32.256C665.3 31.072 665.756 30.16 666.668 29.52C667.596 28.88 668.908 28.56 670.604 28.56C671.452 28.56 672.228 28.632 672.932 28.776C673.636 28.92 674.188 29.104 674.588 29.328V31.776C674.172 31.584 673.596 31.4 672.86 31.224C672.124 31.032 671.396 30.936 670.676 30.936C669.86 30.936 669.268 31.056 668.9 31.296C668.532 31.52 668.348 31.816 668.348 32.184C668.348 32.616 668.596 32.96 669.092 33.216C669.588 33.472 670.372 33.776 671.444 34.128C672.244 34.416 672.94 34.736 673.532 35.088C674.14 35.424 674.604 35.848 674.924 36.36C675.26 36.856 675.428 37.488 675.428 38.256C675.428 38.96 675.26 39.624 674.924 40.248C674.604 40.856 674.052 41.352 673.268 41.736C672.5 42.104 671.452 42.288 670.124 42.288ZM684.467 42V28.848H686.675L687.107 30.912H687.275C687.547 30.224 688.027 29.672 688.715 29.256C689.403 28.824 690.275 28.608 691.331 28.608C692.819 28.608 693.955 29 694.739 29.784C695.523 30.568 695.915 31.776 695.915 33.408V42H692.867V33.912C692.867 32.984 692.659 32.304 692.243 31.872C691.843 31.44 691.251 31.224 690.467 31.224C689.523 31.224 688.795 31.584 688.283 32.304C687.771 33.008 687.515 33.976 687.515 35.208V42H684.467ZM704.48 42.288C702.608 42.288 701.216 41.824 700.304 40.896C699.408 39.968 698.96 38.552 698.96 36.648C698.96 36.328 698.968 35.96 698.984 35.544C699.016 35.112 699.048 34.712 699.08 34.344H704.576V36.408H701.96V36.792C701.96 37.96 702.168 38.784 702.584 39.264C703 39.744 703.624 39.984 704.456 39.984C705.064 39.984 705.584 39.856 706.016 39.6C706.448 39.344 706.776 38.904 707 38.28C707.24 37.64 707.36 36.752 707.36 35.616C707.36 34.064 707.088 32.912 706.544 32.16C706.016 31.408 705.064 31.032 703.688 31.032C702.952 31.032 702.208 31.144 701.456 31.368C700.72 31.576 700.08 31.832 699.536 32.136V29.52C700.032 29.264 700.704 29.04 701.552 28.848C702.416 28.656 703.296 28.56 704.192 28.56C705.696 28.56 706.904 28.848 707.816 29.424C708.744 29.984 709.416 30.784 709.832 31.824C710.264 32.864 710.48 34.088 710.48 35.496C710.48 37.656 710.016 39.328 709.088 40.512C708.16 41.696 706.624 42.288 704.48 42.288ZM715.758 42L711.822 28.848H714.894L718.038 39.504H718.254C718.558 39.504 718.846 39.424 719.118 39.264C719.39 39.104 719.63 38.896 719.838 38.64C720.206 38.16 720.478 37.576 720.654 36.888C720.846 36.2 720.942 35.512 720.942 34.824C720.942 33.656 720.702 32.752 720.222 32.112C719.742 31.472 719.078 31.152 718.23 31.152C717.894 31.152 717.606 31.2 717.366 31.296L716.766 28.92C717.118 28.824 717.446 28.76 717.75 28.728C718.07 28.696 718.342 28.68 718.566 28.68C719.398 28.68 720.126 28.8 720.75 29.04C721.374 29.264 721.91 29.6 722.358 30.048C723.478 31.168 724.038 32.76 724.038 34.824C724.038 36.088 723.838 37.208 723.438 38.184C723.038 39.16 722.55 39.928 721.974 40.488C721.494 40.952 720.902 41.32 720.198 41.592C719.494 41.864 718.55 42 717.366 42H715.758ZM730.341 42.24C729.413 42.24 728.669 42.024 728.109 41.592C727.549 41.144 727.269 40.408 727.269 39.384V28.848H730.317V39C730.317 39.64 730.621 39.96 731.229 39.96C731.485 39.96 731.765 39.904 732.069 39.792L732.405 41.808C732.101 41.968 731.773 42.08 731.421 42.144C731.069 42.208 730.709 42.24 730.341 42.24ZM735.683 42L733.379 28.848H736.379L737.147 33.888C737.195 34.304 737.251 34.856 737.315 35.544C737.395 36.232 737.483 37.04 737.579 37.968H737.651C737.859 37.04 738.051 36.232 738.227 35.544C738.403 34.856 738.555 34.28 738.683 33.816L740.099 28.848H742.115L743.531 33.816C743.659 34.28 743.811 34.856 743.987 35.544C744.163 36.232 744.363 37.04 744.587 37.968H744.659C744.739 37.04 744.811 36.232 744.875 35.544C744.939 34.856 745.011 34.304 745.091 33.888L745.883 28.848H748.859L746.555 42H743.579L741.803 35.976C741.643 35.432 741.515 34.92 741.419 34.44C741.339 33.944 741.259 33.392 741.179 32.784H741.083C740.987 33.392 740.891 33.936 740.795 34.416C740.699 34.896 740.563 35.416 740.387 35.976L738.611 42H735.683ZM756.703 42.288C755.007 42.288 753.711 41.904 752.815 41.136C751.919 40.352 751.471 39.208 751.471 37.704V36.576C751.471 35.872 751.559 35.296 751.735 34.848C751.911 34.4 752.127 34 752.383 33.648C752.639 33.296 752.855 32.984 753.031 32.712C753.223 32.44 753.319 32.128 753.319 31.776C753.319 31.472 753.239 31.256 753.079 31.128C752.935 31 752.751 30.936 752.527 30.936C752.223 30.936 751.847 31.04 751.399 31.248L750.847 29.256C751.231 29.048 751.663 28.904 752.143 28.824C752.639 28.728 753.071 28.68 753.439 28.68C754.431 28.68 755.135 28.928 755.551 29.424C755.967 29.904 756.175 30.536 756.175 31.32C756.175 31.848 756.087 32.304 755.911 32.688C755.751 33.072 755.551 33.456 755.311 33.84C755.071 34.224 754.871 34.584 754.711 34.92C754.567 35.256 754.495 35.728 754.495 36.336V37.44C754.495 38.352 754.703 38.984 755.119 39.336C755.535 39.688 756.063 39.864 756.703 39.864C758.127 39.864 758.839 39.144 758.839 37.704V34.992C758.839 34.464 758.719 34.056 758.479 33.768C758.255 33.48 757.863 33.336 757.303 33.336H757.183V31.632H757.327C757.871 31.632 758.271 31.488 758.527 31.2C758.783 30.912 758.943 30.56 759.007 30.144C759.071 29.712 759.103 29.28 759.103 28.848H762.151C762.151 29.776 762.031 30.552 761.791 31.176C761.551 31.8 761.095 32.232 760.423 32.472V32.568C761.015 32.744 761.399 33.056 761.575 33.504C761.767 33.952 761.863 34.44 761.863 34.968V37.8C761.863 39.256 761.423 40.368 760.543 41.136C759.679 41.904 758.399 42.288 756.703 42.288ZM769.617 42.288C768.673 42.288 767.753 42.192 766.857 42C765.961 41.792 765.177 41.52 764.505 41.184L765.369 38.76C765.865 39 766.481 39.24 767.217 39.48C767.953 39.72 768.729 39.84 769.545 39.84C770.265 39.84 770.833 39.728 771.249 39.504C771.665 39.264 771.873 38.912 771.873 38.448C771.873 37.984 771.633 37.616 771.153 37.344C770.689 37.056 770.001 36.76 769.089 36.456C768.177 36.152 767.401 35.824 766.761 35.472C766.121 35.12 765.633 34.688 765.297 34.176C764.961 33.664 764.793 33.024 764.793 32.256C764.793 31.072 765.249 30.16 766.161 29.52C767.089 28.88 768.401 28.56 770.097 28.56C770.945 28.56 771.721 28.632 772.425 28.776C773.129 28.92 773.681 29.104 774.081 29.328V31.776C773.665 31.584 773.089 31.4 772.353 31.224C771.617 31.032 770.889 30.936 770.169 30.936C769.353 30.936 768.761 31.056 768.393 31.296C768.025 31.52 767.841 31.816 767.841 32.184C767.841 32.616 768.089 32.96 768.585 33.216C769.081 33.472 769.865 33.776 770.937 34.128C771.737 34.416 772.433 34.736 773.025 35.088C773.633 35.424 774.097 35.848 774.417 36.36C774.753 36.856 774.921 37.488 774.921 38.256C774.921 38.96 774.753 39.624 774.417 40.248C774.097 40.856 773.545 41.352 772.761 41.736C771.993 42.104 770.945 42.288 769.617 42.288Z" fill="#3138A0"/>
<circle cx="528.015" cy="35.015" r="20.715" fill="#F5FCFF" stroke="url(#paint0_linear_16_24)" stroke-width="1.4"/>
<path d="M525.872 30.5371L525.872 30.5371C526.062 31.1377 525.908 31.7821 525.47 32.2275L524.045 34.1213C525.251 36.3537 526.658 37.7602 528.907 38.9822L530.852 37.5136C531.041 37.3255 531.309 37.1943 531.592 37.1311C531.882 37.0663 532.204 37.0688 532.5 37.1687C533.522 37.5066 534.602 37.6786 535.702 37.6786C536.624 37.6786 537.372 38.4275 537.372 39.3482V42.7024C537.372 43.6232 536.624 44.3721 535.702 44.3721C526.303 44.3721 518.656 36.7256 518.656 27.3261C518.656 26.4054 519.405 25.6564 520.326 25.6564H523.69C524.611 25.6564 525.359 26.4053 525.359 27.3262L525.872 30.5371ZM525.872 30.5371L525.871 30.5348M525.872 30.5371L525.871 30.5348M525.871 30.5348C525.532 29.5049 525.359 28.425 525.359 27.3262L525.871 30.5348Z" fill="url(#paint1_linear_16_24)" stroke="url(#paint2_linear_16_24)" stroke-width="0.4"/>
<mask id="path-5-outside-1_16_24" maskUnits="userSpaceOnUse" x="790" y="24" width="174" height="20" fill="black">
<rect fill="white" x="790" y="24" width="174" height="20"/>
<path d="M791.272 34.024C791.272 31.256 791.768 29.088 792.76 27.52C793.768 25.952 795.432 25.168 797.752 25.168C800.072 25.168 801.728 25.952 802.72 27.52C803.728 29.088 804.232 31.256 804.232 34.024C804.232 36.808 803.728 38.992 802.72 40.576C801.728 42.16 800.072 42.952 797.752 42.952C795.432 42.952 793.768 42.16 792.76 40.576C791.768 38.992 791.272 36.808 791.272 34.024ZM800.92 34.024C800.92 32.84 800.84 31.848 800.68 31.048C800.536 30.232 800.232 29.568 799.768 29.056C799.32 28.544 798.648 28.288 797.752 28.288C796.856 28.288 796.176 28.544 795.712 29.056C795.264 29.568 794.96 30.232 794.8 31.048C794.656 31.848 794.584 32.84 794.584 34.024C794.584 35.24 794.656 36.264 794.8 37.096C794.944 37.912 795.248 38.576 795.712 39.088C796.176 39.584 796.856 39.832 797.752 39.832C798.648 39.832 799.328 39.584 799.792 39.088C800.256 38.576 800.56 37.912 800.704 37.096C800.848 36.264 800.92 35.24 800.92 34.024ZM810.196 33.736C808.596 32.904 807.796 31.616 807.796 29.872C807.796 29.008 808.012 28.224 808.444 27.52C808.892 26.8 809.556 26.232 810.436 25.816C811.332 25.384 812.42 25.168 813.7 25.168C814.98 25.168 816.06 25.384 816.94 25.816C817.836 26.232 818.5 26.8 818.932 27.52C819.38 28.224 819.604 29.008 819.604 29.872C819.604 30.752 819.388 31.528 818.956 32.2C818.524 32.856 817.948 33.368 817.228 33.736C818.108 34.12 818.796 34.68 819.292 35.416C819.788 36.152 820.036 37.024 820.036 38.032C820.036 39.12 819.756 40.072 819.196 40.888C818.652 41.688 817.9 42.304 816.94 42.736C815.98 43.168 814.9 43.384 813.7 43.384C812.5 43.384 811.42 43.168 810.46 42.736C809.516 42.304 808.764 41.688 808.204 40.888C807.66 40.072 807.388 39.12 807.388 38.032C807.388 37.024 807.636 36.152 808.132 35.416C808.628 34.664 809.316 34.104 810.196 33.736ZM816.34 30.352C816.34 29.568 816.1 28.96 815.62 28.528C815.156 28.096 814.516 27.88 813.7 27.88C812.9 27.88 812.26 28.096 811.78 28.528C811.316 28.96 811.084 29.576 811.084 30.376C811.084 31.096 811.324 31.672 811.804 32.104C812.3 32.536 812.932 32.752 813.7 32.752C814.468 32.752 815.1 32.536 815.596 32.104C816.092 31.656 816.34 31.072 816.34 30.352ZM813.7 35.2C812.788 35.2 812.044 35.432 811.468 35.896C810.908 36.36 810.628 37.024 810.628 37.888C810.628 38.688 810.9 39.344 811.444 39.856C812.004 40.352 812.756 40.6 813.7 40.6C814.644 40.6 815.388 40.344 815.932 39.832C816.476 39.32 816.748 38.672 816.748 37.888C816.748 37.04 816.468 36.384 815.908 35.92C815.348 35.44 814.612 35.2 813.7 35.2ZM823.025 39.592V36.952L830.873 25.72H834.785V36.664H836.897V39.592H834.785V43H831.425V39.592H823.025ZM831.641 29.32L826.721 36.664H831.641V29.32ZM850.125 33.016V35.848H839.949V33.016H850.125ZM853.581 28.6V25.504H859.365V43H855.909V28.6H853.581ZM862.756 28.6V25.504H868.54V43H865.084V28.6H862.756ZM875.267 33.736C873.667 32.904 872.867 31.616 872.867 29.872C872.867 29.008 873.083 28.224 873.515 27.52C873.963 26.8 874.627 26.232 875.507 25.816C876.403 25.384 877.491 25.168 878.771 25.168C880.051 25.168 881.131 25.384 882.011 25.816C882.907 26.232 883.571 26.8 884.003 27.52C884.451 28.224 884.675 29.008 884.675 29.872C884.675 30.752 884.459 31.528 884.027 32.2C883.595 32.856 883.019 33.368 882.299 33.736C883.179 34.12 883.867 34.68 884.363 35.416C884.859 36.152 885.107 37.024 885.107 38.032C885.107 39.12 884.827 40.072 884.267 40.888C883.723 41.688 882.971 42.304 882.011 42.736C881.051 43.168 879.971 43.384 878.771 43.384C877.571 43.384 876.491 43.168 875.531 42.736C874.587 42.304 873.835 41.688 873.275 40.888C872.731 40.072 872.459 39.12 872.459 38.032C872.459 37.024 872.707 36.152 873.203 35.416C873.699 34.664 874.387 34.104 875.267 33.736ZM881.411 30.352C881.411 29.568 881.171 28.96 880.691 28.528C880.227 28.096 879.587 27.88 878.771 27.88C877.971 27.88 877.331 28.096 876.851 28.528C876.387 28.96 876.155 29.576 876.155 30.376C876.155 31.096 876.395 31.672 876.875 32.104C877.371 32.536 878.003 32.752 878.771 32.752C879.539 32.752 880.171 32.536 880.667 32.104C881.163 31.656 881.411 31.072 881.411 30.352ZM878.771 35.2C877.859 35.2 877.115 35.432 876.539 35.896C875.979 36.36 875.699 37.024 875.699 37.888C875.699 38.688 875.971 39.344 876.515 39.856C877.075 40.352 877.827 40.6 878.771 40.6C879.715 40.6 880.459 40.344 881.003 39.832C881.547 39.32 881.819 38.672 881.819 37.888C881.819 37.04 881.539 36.384 880.979 35.92C880.419 35.44 879.683 35.2 878.771 35.2ZM898.849 33.016V35.848H888.673V33.016H898.849ZM902.57 39.592V36.952L910.418 25.72H914.33V36.664H916.442V39.592H914.33V43H910.97V39.592H902.57ZM911.186 29.32L906.266 36.664H911.186V29.32ZM921.989 33.736C920.389 32.904 919.589 31.616 919.589 29.872C919.589 29.008 919.805 28.224 920.237 27.52C920.685 26.8 921.349 26.232 922.229 25.816C923.125 25.384 924.213 25.168 925.493 25.168C926.773 25.168 927.853 25.384 928.733 25.816C929.629 26.232 930.293 26.8 930.725 27.52C931.173 28.224 931.397 29.008 931.397 29.872C931.397 30.752 931.181 31.528 930.749 32.2C930.317 32.856 929.741 33.368 929.021 33.736C929.901 34.12 930.589 34.68 931.085 35.416C931.581 36.152 931.829 37.024 931.829 38.032C931.829 39.12 931.549 40.072 930.989 40.888C930.445 41.688 929.693 42.304 928.733 42.736C927.773 43.168 926.693 43.384 925.493 43.384C924.293 43.384 923.213 43.168 922.253 42.736C921.309 42.304 920.557 41.688 919.997 40.888C919.453 40.072 919.181 39.12 919.181 38.032C919.181 37.024 919.429 36.152 919.925 35.416C920.421 34.664 921.109 34.104 921.989 33.736ZM928.133 30.352C928.133 29.568 927.893 28.96 927.413 28.528C926.949 28.096 926.309 27.88 925.493 27.88C924.693 27.88 924.053 28.096 923.573 28.528C923.109 28.96 922.877 29.576 922.877 30.376C922.877 31.096 923.117 31.672 923.597 32.104C924.093 32.536 924.725 32.752 925.493 32.752C926.261 32.752 926.893 32.536 927.389 32.104C927.885 31.656 928.133 31.072 928.133 30.352ZM925.493 35.2C924.581 35.2 923.837 35.432 923.261 35.896C922.701 36.36 922.421 37.024 922.421 37.888C922.421 38.688 922.693 39.344 923.237 39.856C923.797 40.352 924.549 40.6 925.493 40.6C926.437 40.6 927.181 40.344 927.725 39.832C928.269 39.32 928.541 38.672 928.541 37.888C928.541 37.04 928.261 36.384 927.701 35.92C927.141 35.44 926.405 35.2 925.493 35.2ZM944.035 29.872C943.875 29.2 943.595 28.696 943.195 28.36C942.811 28.024 942.251 27.856 941.515 27.856C940.411 27.856 939.595 28.304 939.067 29.2C938.555 30.08 938.291 31.52 938.275 33.52C938.659 32.88 939.219 32.384 939.955 32.032C940.691 31.664 941.491 31.48 942.355 31.48C943.395 31.48 944.315 31.704 945.115 32.152C945.915 32.6 946.539 33.256 946.987 34.12C947.435 34.968 947.659 35.992 947.659 37.192C947.659 38.328 947.427 39.344 946.963 40.24C946.515 41.12 945.851 41.808 944.971 42.304C944.091 42.8 943.043 43.048 941.827 43.048C940.163 43.048 938.851 42.68 937.891 41.944C936.947 41.208 936.283 40.184 935.899 38.872C935.531 37.544 935.347 35.912 935.347 33.976C935.347 31.048 935.851 28.84 936.859 27.352C937.867 25.848 939.459 25.096 941.635 25.096C943.315 25.096 944.619 25.552 945.547 26.464C946.475 27.376 947.011 28.512 947.155 29.872H944.035ZM941.587 34.24C940.739 34.24 940.027 34.488 939.451 34.984C938.875 35.48 938.587 36.2 938.587 37.144C938.587 38.088 938.851 38.832 939.379 39.376C939.923 39.92 940.683 40.192 941.659 40.192C942.523 40.192 943.203 39.928 943.699 39.4C944.211 38.872 944.467 38.16 944.467 37.264C944.467 36.336 944.219 35.6 943.723 35.056C943.243 34.512 942.531 34.24 941.587 34.24ZM953.722 33.736C952.122 32.904 951.322 31.616 951.322 29.872C951.322 29.008 951.538 28.224 951.97 27.52C952.418 26.8 953.082 26.232 953.962 25.816C954.858 25.384 955.946 25.168 957.226 25.168C958.506 25.168 959.586 25.384 960.466 25.816C961.362 26.232 962.026 26.8 962.458 27.52C962.906 28.224 963.13 29.008 963.13 29.872C963.13 30.752 962.914 31.528 962.482 32.2C962.05 32.856 961.474 33.368 960.754 33.736C961.634 34.12 962.322 34.68 962.818 35.416C963.314 36.152 963.562 37.024 963.562 38.032C963.562 39.12 963.282 40.072 962.722 40.888C962.178 41.688 961.426 42.304 960.466 42.736C959.506 43.168 958.426 43.384 957.226 43.384C956.026 43.384 954.946 43.168 953.986 42.736C953.042 42.304 952.29 41.688 951.73 40.888C951.186 40.072 950.914 39.12 950.914 38.032C950.914 37.024 951.162 36.152 951.658 35.416C952.154 34.664 952.842 34.104 953.722 33.736ZM959.866 30.352C959.866 29.568 959.626 28.96 959.146 28.528C958.682 28.096 958.042 27.88 957.226 27.88C956.426 27.88 955.786 28.096 955.306 28.528C954.842 28.96 954.61 29.576 954.61 30.376C954.61 31.096 954.85 31.672 955.33 32.104C955.826 32.536 956.458 32.752 957.226 32.752C957.994 32.752 958.626 32.536 959.122 32.104C959.618 31.656 959.866 31.072 959.866 30.352ZM957.226 35.2C956.314 35.2 955.57 35.432 954.994 35.896C954.434 36.36 954.154 37.024 954.154 37.888C954.154 38.688 954.426 39.344 954.97 39.856C955.53 40.352 956.282 40.6 957.226 40.6C958.17 40.6 958.914 40.344 959.458 39.832C960.002 39.32 960.274 38.672 960.274 37.888C960.274 37.04 959.994 36.384 959.434 35.92C958.874 35.44 958.138 35.2 957.226 35.2Z"/>
</mask>
<path d="M791.272 34.024C791.272 31.256 791.768 29.088 792.76 27.52C793.768 25.952 795.432 25.168 797.752 25.168C800.072 25.168 801.728 25.952 802.72 27.52C803.728 29.088 804.232 31.256 804.232 34.024C804.232 36.808 803.728 38.992 802.72 40.576C801.728 42.16 800.072 42.952 797.752 42.952C795.432 42.952 793.768 42.16 792.76 40.576C791.768 38.992 791.272 36.808 791.272 34.024ZM800.92 34.024C800.92 32.84 800.84 31.848 800.68 31.048C800.536 30.232 800.232 29.568 799.768 29.056C799.32 28.544 798.648 28.288 797.752 28.288C796.856 28.288 796.176 28.544 795.712 29.056C795.264 29.568 794.96 30.232 794.8 31.048C794.656 31.848 794.584 32.84 794.584 34.024C794.584 35.24 794.656 36.264 794.8 37.096C794.944 37.912 795.248 38.576 795.712 39.088C796.176 39.584 796.856 39.832 797.752 39.832C798.648 39.832 799.328 39.584 799.792 39.088C800.256 38.576 800.56 37.912 800.704 37.096C800.848 36.264 800.92 35.24 800.92 34.024ZM810.196 33.736C808.596 32.904 807.796 31.616 807.796 29.872C807.796 29.008 808.012 28.224 808.444 27.52C808.892 26.8 809.556 26.232 810.436 25.816C811.332 25.384 812.42 25.168 813.7 25.168C814.98 25.168 816.06 25.384 816.94 25.816C817.836 26.232 818.5 26.8 818.932 27.52C819.38 28.224 819.604 29.008 819.604 29.872C819.604 30.752 819.388 31.528 818.956 32.2C818.524 32.856 817.948 33.368 817.228 33.736C818.108 34.12 818.796 34.68 819.292 35.416C819.788 36.152 820.036 37.024 820.036 38.032C820.036 39.12 819.756 40.072 819.196 40.888C818.652 41.688 817.9 42.304 816.94 42.736C815.98 43.168 814.9 43.384 813.7 43.384C812.5 43.384 811.42 43.168 810.46 42.736C809.516 42.304 808.764 41.688 808.204 40.888C807.66 40.072 807.388 39.12 807.388 38.032C807.388 37.024 807.636 36.152 808.132 35.416C808.628 34.664 809.316 34.104 810.196 33.736ZM816.34 30.352C816.34 29.568 816.1 28.96 815.62 28.528C815.156 28.096 814.516 27.88 813.7 27.88C812.9 27.88 812.26 28.096 811.78 28.528C811.316 28.96 811.084 29.576 811.084 30.376C811.084 31.096 811.324 31.672 811.804 32.104C812.3 32.536 812.932 32.752 813.7 32.752C814.468 32.752 815.1 32.536 815.596 32.104C816.092 31.656 816.34 31.072 816.34 30.352ZM813.7 35.2C812.788 35.2 812.044 35.432 811.468 35.896C810.908 36.36 810.628 37.024 810.628 37.888C810.628 38.688 810.9 39.344 811.444 39.856C812.004 40.352 812.756 40.6 813.7 40.6C814.644 40.6 815.388 40.344 815.932 39.832C816.476 39.32 816.748 38.672 816.748 37.888C816.748 37.04 816.468 36.384 815.908 35.92C815.348 35.44 814.612 35.2 813.7 35.2ZM823.025 39.592V36.952L830.873 25.72H834.785V36.664H836.897V39.592H834.785V43H831.425V39.592H823.025ZM831.641 29.32L826.721 36.664H831.641V29.32ZM850.125 33.016V35.848H839.949V33.016H850.125ZM853.581 28.6V25.504H859.365V43H855.909V28.6H853.581ZM862.756 28.6V25.504H868.54V43H865.084V28.6H862.756ZM875.267 33.736C873.667 32.904 872.867 31.616 872.867 29.872C872.867 29.008 873.083 28.224 873.515 27.52C873.963 26.8 874.627 26.232 875.507 25.816C876.403 25.384 877.491 25.168 878.771 25.168C880.051 25.168 881.131 25.384 882.011 25.816C882.907 26.232 883.571 26.8 884.003 27.52C884.451 28.224 884.675 29.008 884.675 29.872C884.675 30.752 884.459 31.528 884.027 32.2C883.595 32.856 883.019 33.368 882.299 33.736C883.179 34.12 883.867 34.68 884.363 35.416C884.859 36.152 885.107 37.024 885.107 38.032C885.107 39.12 884.827 40.072 884.267 40.888C883.723 41.688 882.971 42.304 882.011 42.736C881.051 43.168 879.971 43.384 878.771 43.384C877.571 43.384 876.491 43.168 875.531 42.736C874.587 42.304 873.835 41.688 873.275 40.888C872.731 40.072 872.459 39.12 872.459 38.032C872.459 37.024 872.707 36.152 873.203 35.416C873.699 34.664 874.387 34.104 875.267 33.736ZM881.411 30.352C881.411 29.568 881.171 28.96 880.691 28.528C880.227 28.096 879.587 27.88 878.771 27.88C877.971 27.88 877.331 28.096 876.851 28.528C876.387 28.96 876.155 29.576 876.155 30.376C876.155 31.096 876.395 31.672 876.875 32.104C877.371 32.536 878.003 32.752 878.771 32.752C879.539 32.752 880.171 32.536 880.667 32.104C881.163 31.656 881.411 31.072 881.411 30.352ZM878.771 35.2C877.859 35.2 877.115 35.432 876.539 35.896C875.979 36.36 875.699 37.024 875.699 37.888C875.699 38.688 875.971 39.344 876.515 39.856C877.075 40.352 877.827 40.6 878.771 40.6C879.715 40.6 880.459 40.344 881.003 39.832C881.547 39.32 881.819 38.672 881.819 37.888C881.819 37.04 881.539 36.384 880.979 35.92C880.419 35.44 879.683 35.2 878.771 35.2ZM898.849 33.016V35.848H888.673V33.016H898.849ZM902.57 39.592V36.952L910.418 25.72H914.33V36.664H916.442V39.592H914.33V43H910.97V39.592H902.57ZM911.186 29.32L906.266 36.664H911.186V29.32ZM921.989 33.736C920.389 32.904 919.589 31.616 919.589 29.872C919.589 29.008 919.805 28.224 920.237 27.52C920.685 26.8 921.349 26.232 922.229 25.816C923.125 25.384 924.213 25.168 925.493 25.168C926.773 25.168 927.853 25.384 928.733 25.816C929.629 26.232 930.293 26.8 930.725 27.52C931.173 28.224 931.397 29.008 931.397 29.872C931.397 30.752 931.181 31.528 930.749 32.2C930.317 32.856 929.741 33.368 929.021 33.736C929.901 34.12 930.589 34.68 931.085 35.416C931.581 36.152 931.829 37.024 931.829 38.032C931.829 39.12 931.549 40.072 930.989 40.888C930.445 41.688 929.693 42.304 928.733 42.736C927.773 43.168 926.693 43.384 925.493 43.384C924.293 43.384 923.213 43.168 922.253 42.736C921.309 42.304 920.557 41.688 919.997 40.888C919.453 40.072 919.181 39.12 919.181 38.032C919.181 37.024 919.429 36.152 919.925 35.416C920.421 34.664 921.109 34.104 921.989 33.736ZM928.133 30.352C928.133 29.568 927.893 28.96 927.413 28.528C926.949 28.096 926.309 27.88 925.493 27.88C924.693 27.88 924.053 28.096 923.573 28.528C923.109 28.96 922.877 29.576 922.877 30.376C922.877 31.096 923.117 31.672 923.597 32.104C924.093 32.536 924.725 32.752 925.493 32.752C926.261 32.752 926.893 32.536 927.389 32.104C927.885 31.656 928.133 31.072 928.133 30.352ZM925.493 35.2C924.581 35.2 923.837 35.432 923.261 35.896C922.701 36.36 922.421 37.024 922.421 37.888C922.421 38.688 922.693 39.344 923.237 39.856C923.797 40.352 924.549 40.6 925.493 40.6C926.437 40.6 927.181 40.344 927.725 39.832C928.269 39.32 928.541 38.672 928.541 37.888C928.541 37.04 928.261 36.384 927.701 35.92C927.141 35.44 926.405 35.2 925.493 35.2ZM944.035 29.872C943.875 29.2 943.595 28.696 943.195 28.36C942.811 28.024 942.251 27.856 941.515 27.856C940.411 27.856 939.595 28.304 939.067 29.2C938.555 30.08 938.291 31.52 938.275 33.52C938.659 32.88 939.219 32.384 939.955 32.032C940.691 31.664 941.491 31.48 942.355 31.48C943.395 31.48 944.315 31.704 945.115 32.152C945.915 32.6 946.539 33.256 946.987 34.12C947.435 34.968 947.659 35.992 947.659 37.192C947.659 38.328 947.427 39.344 946.963 40.24C946.515 41.12 945.851 41.808 944.971 42.304C944.091 42.8 943.043 43.048 941.827 43.048C940.163 43.048 938.851 42.68 937.891 41.944C936.947 41.208 936.283 40.184 935.899 38.872C935.531 37.544 935.347 35.912 935.347 33.976C935.347 31.048 935.851 28.84 936.859 27.352C937.867 25.848 939.459 25.096 941.635 25.096C943.315 25.096 944.619 25.552 945.547 26.464C946.475 27.376 947.011 28.512 947.155 29.872H944.035ZM941.587 34.24C940.739 34.24 940.027 34.488 939.451 34.984C938.875 35.48 938.587 36.2 938.587 37.144C938.587 38.088 938.851 38.832 939.379 39.376C939.923 39.92 940.683 40.192 941.659 40.192C942.523 40.192 943.203 39.928 943.699 39.4C944.211 38.872 944.467 38.16 944.467 37.264C944.467 36.336 944.219 35.6 943.723 35.056C943.243 34.512 942.531 34.24 941.587 34.24ZM953.722 33.736C952.122 32.904 951.322 31.616 951.322 29.872C951.322 29.008 951.538 28.224 951.97 27.52C952.418 26.8 953.082 26.232 953.962 25.816C954.858 25.384 955.946 25.168 957.226 25.168C958.506 25.168 959.586 25.384 960.466 25.816C961.362 26.232 962.026 26.8 962.458 27.52C962.906 28.224 963.13 29.008 963.13 29.872C963.13 30.752 962.914 31.528 962.482 32.2C962.05 32.856 961.474 33.368 960.754 33.736C961.634 34.12 962.322 34.68 962.818 35.416C963.314 36.152 963.562 37.024 963.562 38.032C963.562 39.12 963.282 40.072 962.722 40.888C962.178 41.688 961.426 42.304 960.466 42.736C959.506 43.168 958.426 43.384 957.226 43.384C956.026 43.384 954.946 43.168 953.986 42.736C953.042 42.304 952.29 41.688 951.73 40.888C951.186 40.072 950.914 39.12 950.914 38.032C950.914 37.024 951.162 36.152 951.658 35.416C952.154 34.664 952.842 34.104 953.722 33.736ZM959.866 30.352C959.866 29.568 959.626 28.96 959.146 28.528C958.682 28.096 958.042 27.88 957.226 27.88C956.426 27.88 955.786 28.096 955.306 28.528C954.842 28.96 954.61 29.576 954.61 30.376C954.61 31.096 954.85 31.672 955.33 32.104C955.826 32.536 956.458 32.752 957.226 32.752C957.994 32.752 958.626 32.536 959.122 32.104C959.618 31.656 959.866 31.072 959.866 30.352ZM957.226 35.2C956.314 35.2 955.57 35.432 954.994 35.896C954.434 36.36 954.154 37.024 954.154 37.888C954.154 38.688 954.426 39.344 954.97 39.856C955.53 40.352 956.282 40.6 957.226 40.6C958.17 40.6 958.914 40.344 959.458 39.832C960.002 39.32 960.274 38.672 960.274 37.888C960.274 37.04 959.994 36.384 959.434 35.92C958.874 35.44 958.138 35.2 957.226 35.2Z" fill="#3138A0"/>
<path d="M792.76 27.52L792.424 27.3037L792.422 27.3061L792.76 27.52ZM802.72 27.52L802.382 27.7339L802.384 27.7363L802.72 27.52ZM802.72 40.576L802.383 40.3612L802.381 40.3637L802.72 40.576ZM792.76 40.576L792.421 40.7883L792.423 40.7908L792.76 40.576ZM800.68 31.048L800.286 31.1175L800.288 31.1264L800.68 31.048ZM799.768 29.056L799.467 29.3194L799.472 29.3246L799.768 29.056ZM795.712 29.056L795.416 28.7874L795.411 28.7926L795.712 29.056ZM794.8 31.048L794.407 30.971L794.406 30.9771L794.8 31.048ZM794.8 37.096L794.406 37.1642L794.406 37.1655L794.8 37.096ZM795.712 39.088L795.416 39.3566L795.42 39.3613L795.712 39.088ZM799.792 39.088L800.084 39.3613L800.088 39.3566L799.792 39.088ZM800.704 37.096L801.098 37.1655L801.098 37.1642L800.704 37.096ZM791.672 34.024C791.672 31.2969 792.162 29.2137 793.098 27.7339L792.422 27.3061C791.374 28.9623 790.872 31.2151 790.872 34.024H791.672ZM793.096 27.7363C794.012 26.3115 795.53 25.568 797.752 25.568V24.768C795.334 24.768 793.524 25.5925 792.424 27.3037L793.096 27.7363ZM797.752 25.568C799.974 25.568 801.482 26.3115 802.382 27.7339L803.058 27.3061C801.974 25.5925 800.17 24.768 797.752 24.768V25.568ZM802.384 27.7363C803.335 29.2156 803.832 31.2978 803.832 34.024H804.632C804.632 31.2142 804.121 28.9604 803.056 27.3037L802.384 27.7363ZM803.832 34.024C803.832 36.7664 803.334 38.8654 802.383 40.3612L803.057 40.7908C804.122 39.1186 804.632 36.8496 804.632 34.024H803.832ZM802.381 40.3637C801.48 41.8018 799.972 42.552 797.752 42.552V43.352C800.172 43.352 801.976 42.5182 803.059 40.7883L802.381 40.3637ZM797.752 42.552C795.532 42.552 794.014 41.8018 793.097 40.3612L792.423 40.7908C793.522 42.5182 795.332 43.352 797.752 43.352V42.552ZM793.099 40.3637C792.162 38.8673 791.672 36.7673 791.672 34.024H790.872C790.872 36.8487 791.374 39.1167 792.421 40.7883L793.099 40.3637ZM801.32 34.024C801.32 32.8243 801.239 31.8041 801.072 30.9696L800.288 31.1264C800.441 31.8919 800.52 32.8557 800.52 34.024H801.32ZM801.074 30.9785C800.919 30.1032 800.588 29.3655 800.064 28.7874L799.472 29.3246C799.876 29.7705 800.153 30.3608 800.286 31.1175L801.074 30.9785ZM800.069 28.7926C799.523 28.1683 798.725 27.888 797.752 27.888V28.688C798.571 28.688 799.117 28.9197 799.467 29.3194L800.069 28.7926ZM797.752 27.888C796.779 27.888 795.976 28.1686 795.416 28.7874L796.008 29.3246C796.376 28.9194 796.933 28.688 797.752 28.688V27.888ZM795.411 28.7926C794.907 29.3682 794.578 30.1012 794.407 30.971L795.193 31.125C795.342 30.3628 795.621 29.7678 796.013 29.3194L795.411 28.7926ZM794.406 30.9771C794.257 31.8085 794.184 32.8259 794.184 34.024H794.984C794.984 32.8541 795.055 31.8875 795.194 31.1189L794.406 30.9771ZM794.184 34.024C794.184 35.2538 794.257 36.3023 794.406 37.1642L795.194 37.0278C795.055 36.2257 794.984 35.2262 794.984 34.024H794.184ZM794.406 37.1655C794.561 38.0408 794.892 38.7785 795.416 39.3566L796.008 38.8194C795.604 38.3735 795.327 37.7832 795.194 37.0265L794.406 37.1655ZM795.42 39.3613C795.982 39.9617 796.782 40.232 797.752 40.232V39.432C796.93 39.432 796.37 39.2063 796.004 38.8147L795.42 39.3613ZM797.752 40.232C798.722 40.232 799.522 39.9617 800.084 39.3613L799.5 38.8147C799.134 39.2063 798.574 39.432 797.752 39.432V40.232ZM800.088 39.3566C800.612 38.7785 800.943 38.0408 801.098 37.1655L800.31 37.0265C800.177 37.7832 799.9 38.3735 799.496 38.8194L800.088 39.3566ZM801.098 37.1642C801.247 36.3023 801.32 35.2538 801.32 34.024H800.52C800.52 35.2262 800.449 36.2257 800.31 37.0278L801.098 37.1642ZM810.196 33.736L810.35 34.105L811.138 33.7754L810.38 33.3811L810.196 33.736ZM808.444 27.52L808.104 27.3087L808.103 27.3108L808.444 27.52ZM810.436 25.816L810.607 26.1776L810.609 26.1763L810.436 25.816ZM816.94 25.816L816.763 26.1752L816.771 26.1788L816.94 25.816ZM818.932 27.52L818.589 27.7259L818.594 27.7347L818.932 27.52ZM818.956 32.2L819.29 32.42L819.292 32.4163L818.956 32.2ZM817.228 33.736L817.046 33.3798L816.293 33.7645L817.068 34.1026L817.228 33.736ZM819.196 40.888L818.866 40.6617L818.865 40.6631L819.196 40.888ZM810.46 42.736L810.293 43.0997L810.295 43.1008L810.46 42.736ZM808.204 40.888L807.871 41.1099L807.876 41.1174L808.204 40.888ZM808.132 35.416L808.463 35.6396L808.466 35.6362L808.132 35.416ZM815.62 28.528L815.347 28.8208L815.352 28.8253L815.62 28.528ZM811.78 28.528L811.512 28.2306L811.507 28.2352L811.78 28.528ZM811.804 32.104L811.536 32.4014L811.541 32.4056L811.804 32.104ZM815.596 32.104L815.858 32.4057L815.864 32.4008L815.596 32.104ZM811.468 35.896L811.217 35.5845L811.212 35.588L811.468 35.896ZM811.444 39.856L811.169 40.1474L811.178 40.1554L811.444 39.856ZM815.932 39.832L816.206 40.1233L815.932 39.832ZM815.908 35.92L815.647 36.2237L815.652 36.228L815.908 35.92ZM810.38 33.3811C809.632 32.9919 809.091 32.5073 808.735 31.9349C808.38 31.3634 808.196 30.6808 808.196 29.872H807.396C807.396 30.8071 807.611 31.6406 808.056 32.357C808.5 33.0727 809.16 33.6481 810.011 34.0909L810.38 33.3811ZM808.196 29.872C808.196 29.0783 808.393 28.3673 808.785 27.7292L808.103 27.3108C807.63 28.0807 807.396 28.9377 807.396 29.872H808.196ZM808.783 27.7313C809.185 27.0858 809.786 26.5658 810.607 26.1776L810.265 25.4544C809.326 25.8982 808.598 26.5142 808.104 27.3087L808.783 27.7313ZM810.609 26.1763C811.438 25.7768 812.463 25.568 813.7 25.568V24.768C812.376 24.768 811.225 24.9912 810.262 25.4557L810.609 26.1763ZM813.7 25.568C814.936 25.568 815.952 25.7769 816.763 26.1751L817.116 25.4569C816.167 24.9911 815.023 24.768 813.7 24.768V25.568ZM816.771 26.1788C817.608 26.5672 818.205 27.0858 818.589 27.7258L819.275 27.3142C818.795 26.5142 818.064 25.8968 817.108 25.4532L816.771 26.1788ZM818.594 27.7347C819 28.3722 819.204 29.0812 819.204 29.872H820.004C820.004 28.9348 819.759 28.0758 819.269 27.3052L818.594 27.7347ZM819.204 29.872C819.204 30.6834 819.006 31.3827 818.619 31.9837L819.292 32.4163C819.77 31.6733 820.004 30.8206 820.004 29.872H819.204ZM818.622 31.98C818.229 32.5765 817.706 33.0423 817.046 33.3798L817.41 34.0922C818.189 33.6937 818.818 33.1355 819.29 32.42L818.622 31.98ZM817.068 34.1026C817.884 34.4588 818.51 34.9717 818.96 35.6395L819.623 35.1925C819.081 34.3883 818.331 33.7812 817.388 33.3694L817.068 34.1026ZM818.96 35.6395C819.406 36.3008 819.636 37.0925 819.636 38.032H820.436C820.436 36.9555 820.17 36.0032 819.623 35.1925L818.96 35.6395ZM819.636 38.032C819.636 39.0476 819.376 39.9189 818.866 40.6617L819.525 41.1143C820.136 40.2251 820.436 39.1924 820.436 38.032H819.636ZM818.865 40.6631C818.366 41.3966 817.674 41.9668 816.775 42.3712L817.104 43.1008C818.125 42.6412 818.937 41.9794 819.526 41.1129L818.865 40.6631ZM816.775 42.3712C815.874 42.777 814.851 42.984 813.7 42.984V43.784C814.948 43.784 816.085 43.559 817.104 43.1008L816.775 42.3712ZM813.7 42.984C812.548 42.984 811.525 42.777 810.624 42.3712L810.295 43.1008C811.314 43.559 812.451 43.784 813.7 43.784V42.984ZM810.626 42.3723C809.743 41.968 809.048 41.3966 808.531 40.6586L807.876 41.1174C808.479 41.9794 809.289 42.64 810.293 43.0997L810.626 42.3723ZM808.536 40.6661C808.041 39.9229 807.788 39.05 807.788 38.032H806.988C806.988 39.19 807.278 40.2211 807.871 41.1099L808.536 40.6661ZM807.788 38.032C807.788 37.0925 808.018 36.3008 808.463 35.6395L807.8 35.1925C807.254 36.0032 806.988 36.9555 806.988 38.032H807.788ZM808.466 35.6362C808.915 34.9546 809.539 34.4443 810.35 34.105L810.041 33.367C809.093 33.7637 808.34 34.3734 807.798 35.1958L808.466 35.6362ZM816.74 30.352C816.74 29.4809 816.469 28.7545 815.887 28.2307L815.352 28.8253C815.73 29.1655 815.94 29.6551 815.94 30.352H816.74ZM815.892 28.2352C815.335 27.7163 814.587 27.48 813.7 27.48V28.28C814.445 28.28 814.976 28.4757 815.347 28.8208L815.892 28.2352ZM813.7 27.48C812.825 27.48 812.082 27.7178 811.512 28.2307L812.047 28.8253C812.437 28.4742 812.974 28.28 813.7 28.28V27.48ZM811.507 28.2352C810.942 28.7617 810.684 29.4959 810.684 30.376H811.484C811.484 29.6561 811.69 29.1583 812.052 28.8208L811.507 28.2352ZM810.684 30.376C810.684 31.1949 810.962 31.8843 811.536 32.4013L812.071 31.8067C811.686 31.4597 811.484 30.9971 811.484 30.376H810.684ZM811.541 32.4056C812.122 32.9115 812.852 33.152 813.7 33.152V32.352C813.011 32.352 812.478 32.1605 812.066 31.8024L811.541 32.4056ZM813.7 33.152C814.547 33.152 815.278 32.9115 815.858 32.4056L815.333 31.8024C814.922 32.1605 814.388 32.352 813.7 32.352V33.152ZM815.864 32.4008C816.451 31.8707 816.74 31.1753 816.74 30.352H815.94C815.94 30.9687 815.733 31.4413 815.328 31.8072L815.864 32.4008ZM813.7 34.8C812.718 34.8 811.879 35.0509 811.217 35.5845L811.719 36.2075C812.208 35.8131 812.857 35.6 813.7 35.6V34.8ZM811.212 35.588C810.543 36.1425 810.228 36.9297 810.228 37.888H811.028C811.028 37.1183 811.272 36.5775 811.723 36.204L811.212 35.588ZM810.228 37.888C810.228 38.7896 810.539 39.5539 811.169 40.1473L811.718 39.5647C811.26 39.1341 811.028 38.5864 811.028 37.888H810.228ZM811.178 40.1554C811.829 40.7319 812.684 41 813.7 41V40.2C812.827 40.2 812.178 39.9721 811.709 39.5566L811.178 40.1554ZM813.7 41C814.718 41 815.569 40.7222 816.206 40.1233L815.657 39.5407C815.206 39.9658 814.57 40.2 813.7 40.2V41ZM816.206 40.1233C816.834 39.5316 817.148 38.7762 817.148 37.888H816.348C816.348 38.5678 816.117 39.1084 815.657 39.5407L816.206 40.1233ZM817.148 37.888C817.148 36.9429 816.83 36.165 816.163 35.612L815.652 36.228C816.105 36.603 816.348 37.1371 816.348 37.888H817.148ZM816.168 35.6163C815.519 35.0605 814.684 34.8 813.7 34.8V35.6C814.54 35.6 815.176 35.8195 815.647 36.2237L816.168 35.6163ZM823.025 39.592H822.625V39.992H823.025V39.592ZM823.025 36.952L822.698 36.7229L822.625 36.8261V36.952H823.025ZM830.874 25.72V25.32H830.665L830.546 25.4909L830.874 25.72ZM834.785 25.72H835.185V25.32H834.785V25.72ZM834.785 36.664H834.385V37.064H834.785V36.664ZM836.897 36.664H837.298V36.264H836.897V36.664ZM836.897 39.592V39.992H837.298V39.592H836.897ZM834.785 39.592V39.192H834.385V39.592H834.785ZM834.785 43V43.4H835.185V43H834.785ZM831.425 43H831.026V43.4H831.425V43ZM831.425 39.592H831.826V39.192H831.425V39.592ZM831.641 29.32H832.042V28.0042L831.309 29.0974L831.641 29.32ZM826.722 36.664L826.389 36.4414L825.972 37.064H826.722V36.664ZM831.641 36.664V37.064H832.042V36.664H831.641ZM823.425 39.592V36.952H822.625V39.592H823.425ZM823.353 37.1811L831.201 25.9491L830.546 25.4909L822.698 36.7229L823.353 37.1811ZM830.874 26.12H834.785V25.32H830.874V26.12ZM834.385 25.72V36.664H835.185V25.72H834.385ZM834.785 37.064H836.897V36.264H834.785V37.064ZM836.497 36.664V39.592H837.298V36.664H836.497ZM836.897 39.192H834.785V39.992H836.897V39.192ZM834.385 39.592V43H835.185V39.592H834.385ZM834.785 42.6H831.425V43.4H834.785V42.6ZM831.826 43V39.592H831.026V43H831.826ZM831.425 39.192H823.025V39.992H831.425V39.192ZM831.309 29.0974L826.389 36.4414L827.054 36.8866L831.974 29.5426L831.309 29.0974ZM826.722 37.064H831.641V36.264H826.722V37.064ZM832.042 36.664V29.32H831.242V36.664H832.042ZM850.125 33.016H850.525V32.616H850.125V33.016ZM850.125 35.848V36.248H850.525V35.848H850.125ZM839.949 35.848H839.549V36.248H839.949V35.848ZM839.949 33.016V32.616H839.549V33.016H839.949ZM849.725 33.016V35.848H850.525V33.016H849.725ZM850.125 35.448H839.949V36.248H850.125V35.448ZM840.349 35.848V33.016H839.549V35.848H840.349ZM839.949 33.416H850.125V32.616H839.949V33.416ZM853.581 28.6H853.181V29H853.581V28.6ZM853.581 25.504V25.104H853.181V25.504H853.581ZM859.365 25.504H859.765V25.104H859.365V25.504ZM859.365 43V43.4H859.765V43H859.365ZM855.909 43H855.509V43.4H855.909V43ZM855.909 28.6H856.309V28.2H855.909V28.6ZM853.981 28.6V25.504H853.181V28.6H853.981ZM853.581 25.904H859.365V25.104H853.581V25.904ZM858.965 25.504V43H859.765V25.504H858.965ZM859.365 42.6H855.909V43.4H859.365V42.6ZM856.309 43V28.6H855.509V43H856.309ZM855.909 28.2H853.581V29H855.909V28.2ZM862.756 28.6H862.356V29H862.756V28.6ZM862.756 25.504V25.104H862.356V25.504H862.756ZM868.54 25.504H868.94V25.104H868.54V25.504ZM868.54 43V43.4H868.94V43H868.54ZM865.084 43H864.684V43.4H865.084V43ZM865.084 28.6H865.484V28.2H865.084V28.6ZM863.156 28.6V25.504H862.356V28.6H863.156ZM862.756 25.904H868.54V25.104H862.756V25.904ZM868.14 25.504V43H868.94V25.504H868.14ZM868.54 42.6H865.084V43.4H868.54V42.6ZM865.484 43V28.6H864.684V43H865.484ZM865.084 28.2H862.756V29H865.084V28.2ZM875.267 33.736L875.422 34.105L876.21 33.7754L875.452 33.3811L875.267 33.736ZM873.515 27.52L873.176 27.3087L873.175 27.3108L873.515 27.52ZM875.507 25.816L875.678 26.1776L875.681 26.1763L875.507 25.816ZM882.011 25.816L881.835 26.1752L881.843 26.1788L882.011 25.816ZM884.003 27.52L883.66 27.7259L883.666 27.7347L884.003 27.52ZM884.027 32.2L884.362 32.42L884.364 32.4163L884.027 32.2ZM882.299 33.736L882.117 33.3798L881.365 33.7645L882.14 34.1026L882.299 33.736ZM884.267 40.888L883.938 40.6617L883.937 40.6631L884.267 40.888ZM875.531 42.736L875.365 43.0997L875.367 43.1008L875.531 42.736ZM873.275 40.888L872.943 41.1099L872.948 41.1174L873.275 40.888ZM873.203 35.416L873.535 35.6396L873.537 35.6362L873.203 35.416ZM880.691 28.528L880.419 28.8208L880.424 28.8253L880.691 28.528ZM876.851 28.528L876.584 28.2306L876.579 28.2352L876.851 28.528ZM876.875 32.104L876.608 32.4014L876.613 32.4056L876.875 32.104ZM880.667 32.104L880.93 32.4057L880.936 32.4008L880.667 32.104ZM876.539 35.896L876.289 35.5845L876.284 35.588L876.539 35.896ZM876.515 39.856L876.241 40.1474L876.25 40.1554L876.515 39.856ZM881.003 39.832L881.278 40.1233L881.003 39.832ZM880.979 35.92L880.719 36.2237L880.724 36.228L880.979 35.92ZM875.452 33.3811C874.704 32.9919 874.163 32.5073 873.807 31.9349C873.452 31.3634 873.267 30.6808 873.267 29.872H872.467C872.467 30.8071 872.683 31.6406 873.128 32.357C873.572 33.0727 874.231 33.6481 875.083 34.0909L875.452 33.3811ZM873.267 29.872C873.267 29.0783 873.465 28.3673 873.856 27.7292L873.175 27.3108C872.702 28.0807 872.467 28.9377 872.467 29.872H873.267ZM873.855 27.7313C874.257 27.0858 874.857 26.5658 875.678 26.1776L875.337 25.4544C874.398 25.8982 873.67 26.5142 873.176 27.3087L873.855 27.7313ZM875.681 26.1763C876.51 25.7768 877.535 25.568 878.771 25.568V24.768C877.448 24.768 876.297 24.9912 875.334 25.4557L875.681 26.1763ZM878.771 25.568C880.008 25.568 881.024 25.7769 881.835 26.1751L882.188 25.4569C881.239 24.9911 880.095 24.768 878.771 24.768V25.568ZM881.843 26.1788C882.68 26.5672 883.277 27.0858 883.66 27.7258L884.346 27.3142C883.866 26.5142 883.135 25.8968 882.18 25.4532L881.843 26.1788ZM883.666 27.7347C884.072 28.3722 884.275 29.0812 884.275 29.872H885.076C885.076 28.9348 884.831 28.0758 884.341 27.3052L883.666 27.7347ZM884.275 29.872C884.275 30.6834 884.077 31.3827 883.691 31.9837L884.364 32.4163C884.842 31.6733 885.076 30.8206 885.076 29.872H884.275ZM883.693 31.98C883.301 32.5765 882.778 33.0423 882.117 33.3798L882.482 34.0922C883.261 33.6937 883.89 33.1355 884.362 32.42L883.693 31.98ZM882.14 34.1026C882.956 34.4588 883.582 34.9717 884.032 35.6395L884.695 35.1925C884.153 34.3883 883.403 33.7812 882.459 33.3694L882.14 34.1026ZM884.032 35.6395C884.477 36.3008 884.707 37.0925 884.707 38.032H885.507C885.507 36.9555 885.242 36.0032 884.695 35.1925L884.032 35.6395ZM884.707 38.032C884.707 39.0476 884.447 39.9189 883.938 40.6617L884.597 41.1143C885.208 40.2251 885.507 39.1924 885.507 38.032H884.707ZM883.937 40.6631C883.438 41.3966 882.746 41.9668 881.847 42.3712L882.176 43.1008C883.197 42.6412 884.009 41.9794 884.598 41.1129L883.937 40.6631ZM881.847 42.3712C880.946 42.777 879.923 42.984 878.771 42.984V43.784C880.02 43.784 881.157 43.559 882.176 43.1008L881.847 42.3712ZM878.771 42.984C877.62 42.984 876.597 42.777 875.696 42.3712L875.367 43.1008C876.386 43.559 877.523 43.784 878.771 43.784V42.984ZM875.698 42.3723C874.814 41.968 874.12 41.3966 873.603 40.6586L872.948 41.1174C873.551 41.9794 874.361 42.64 875.365 43.0997L875.698 42.3723ZM873.608 40.6661C873.113 39.9229 872.859 39.05 872.859 38.032H872.059C872.059 39.19 872.35 40.2211 872.943 41.1099L873.608 40.6661ZM872.859 38.032C872.859 37.0925 873.09 36.3008 873.535 35.6395L872.872 35.1925C872.325 36.0032 872.059 36.9555 872.059 38.032H872.859ZM873.537 35.6362C873.987 34.9546 874.611 34.4443 875.422 34.105L875.113 33.367C874.164 33.7637 873.412 34.3734 872.87 35.1958L873.537 35.6362ZM881.812 30.352C881.812 29.4809 881.541 28.7545 880.959 28.2307L880.424 28.8253C880.802 29.1655 881.011 29.6551 881.011 30.352H881.812ZM880.964 28.2352C880.407 27.7163 879.659 27.48 878.771 27.48V28.28C879.516 28.28 880.048 28.4757 880.419 28.8208L880.964 28.2352ZM878.771 27.48C877.897 27.48 877.154 27.7178 876.584 28.2307L877.119 28.8253C877.509 28.4742 878.046 28.28 878.771 28.28V27.48ZM876.579 28.2352C876.013 28.7617 875.756 29.4959 875.756 30.376H876.555C876.555 29.6561 876.762 29.1583 877.124 28.8208L876.579 28.2352ZM875.756 30.376C875.756 31.1949 876.033 31.8843 876.608 32.4013L877.143 31.8067C876.758 31.4597 876.555 30.9971 876.555 30.376H875.756ZM876.613 32.4056C877.194 32.9115 877.924 33.152 878.771 33.152V32.352C878.083 32.352 877.549 32.1605 877.138 31.8024L876.613 32.4056ZM878.771 33.152C879.619 33.152 880.349 32.9115 880.93 32.4056L880.405 31.8024C879.994 32.1605 879.46 32.352 878.771 32.352V33.152ZM880.936 32.4008C881.523 31.8707 881.812 31.1753 881.812 30.352H881.011C881.011 30.9687 880.804 31.4413 880.399 31.8072L880.936 32.4008ZM878.771 34.8C877.79 34.8 876.951 35.0509 876.289 35.5845L876.79 36.2075C877.28 35.8131 877.929 35.6 878.771 35.6V34.8ZM876.284 35.588C875.615 36.1425 875.299 36.9297 875.299 37.888H876.099C876.099 37.1183 876.344 36.5775 876.795 36.204L876.284 35.588ZM875.299 37.888C875.299 38.7896 875.611 39.5539 876.241 40.1473L876.79 39.5647C876.332 39.1341 876.099 38.5864 876.099 37.888H875.299ZM876.25 40.1554C876.901 40.7319 877.756 41 878.771 41V40.2C877.899 40.2 877.25 39.9721 876.781 39.5566L876.25 40.1554ZM878.771 41C879.789 41 880.641 40.7222 881.278 40.1233L880.729 39.5407C880.278 39.9658 879.642 40.2 878.771 40.2V41ZM881.278 40.1233C881.906 39.5316 882.219 38.7762 882.219 37.888H881.419C881.419 38.5678 881.189 39.1084 880.729 39.5407L881.278 40.1233ZM882.219 37.888C882.219 36.9429 881.902 36.165 881.235 35.612L880.724 36.228C881.177 36.603 881.419 37.1371 881.419 37.888H882.219ZM881.24 35.6163C880.591 35.0605 879.756 34.8 878.771 34.8V35.6C879.611 35.6 880.248 35.8195 880.719 36.2237L881.24 35.6163ZM898.849 33.016H899.249V32.616H898.849V33.016ZM898.849 35.848V36.248H899.249V35.848H898.849ZM888.673 35.848H888.273V36.248H888.673V35.848ZM888.673 33.016V32.616H888.273V33.016H888.673ZM898.449 33.016V35.848H899.249V33.016H898.449ZM898.849 35.448H888.673V36.248H898.849V35.448ZM889.073 35.848V33.016H888.273V35.848H889.073ZM888.673 33.416H898.849V32.616H888.673V33.416ZM902.57 39.592H902.17V39.992H902.57V39.592ZM902.57 36.952L902.242 36.7229L902.17 36.8261V36.952H902.57ZM910.418 25.72V25.32H910.209L910.09 25.4909L910.418 25.72ZM914.33 25.72H914.73V25.32H914.33V25.72ZM914.33 36.664H913.93V37.064H914.33V36.664ZM916.442 36.664H916.842V36.264H916.442V36.664ZM916.442 39.592V39.992H916.842V39.592H916.442ZM914.33 39.592V39.192H913.93V39.592H914.33ZM914.33 43V43.4H914.73V43H914.33ZM910.97 43H910.57V43.4H910.97V43ZM910.97 39.592H911.37V39.192H910.97V39.592ZM911.186 29.32H911.586V28.0042L910.853 29.0974L911.186 29.32ZM906.266 36.664L905.933 36.4414L905.516 37.064H906.266V36.664ZM911.186 36.664V37.064H911.586V36.664H911.186ZM902.97 39.592V36.952H902.17V39.592H902.97ZM902.897 37.1811L910.745 25.9491L910.09 25.4909L902.242 36.7229L902.897 37.1811ZM910.418 26.12H914.33V25.32H910.418V26.12ZM913.93 25.72V36.664H914.73V25.72H913.93ZM914.33 37.064H916.442V36.264H914.33V37.064ZM916.042 36.664V39.592H916.842V36.664H916.042ZM916.442 39.192H914.33V39.992H916.442V39.192ZM913.93 39.592V43H914.73V39.592H913.93ZM914.33 42.6H910.97V43.4H914.33V42.6ZM911.37 43V39.592H910.57V43H911.37ZM910.97 39.192H902.57V39.992H910.97V39.192ZM910.853 29.0974L905.933 36.4414L906.598 36.8866L911.518 29.5426L910.853 29.0974ZM906.266 37.064H911.186V36.264H906.266V37.064ZM911.586 36.664V29.32H910.786V36.664H911.586ZM921.989 33.736L922.143 34.105L922.931 33.7754L922.173 33.3811L921.989 33.736ZM920.237 27.52L919.897 27.3087L919.896 27.3108L920.237 27.52ZM922.229 25.816L922.4 26.1776L922.402 26.1763L922.229 25.816ZM928.733 25.816L928.556 26.1752L928.564 26.1788L928.733 25.816ZM930.725 27.52L930.382 27.7259L930.387 27.7347L930.725 27.52ZM930.749 32.2L931.083 32.42L931.085 32.4163L930.749 32.2ZM929.021 33.736L928.839 33.3798L928.086 33.7645L928.861 34.1026L929.021 33.736ZM930.989 40.888L930.659 40.6617L930.658 40.6631L930.989 40.888ZM922.253 42.736L922.086 43.0997L922.089 43.1008L922.253 42.736ZM919.997 40.888L919.664 41.1099L919.669 41.1174L919.997 40.888ZM919.925 35.416L920.256 35.6396L920.259 35.6362L919.925 35.416ZM927.413 28.528L927.14 28.8208L927.145 28.8253L927.413 28.528ZM923.573 28.528L923.305 28.2306L923.3 28.2352L923.573 28.528ZM923.597 32.104L923.329 32.4014L923.334 32.4056L923.597 32.104ZM927.389 32.104L927.652 32.4057L927.657 32.4008L927.389 32.104ZM923.261 35.896L923.01 35.5845L923.006 35.588L923.261 35.896ZM923.237 39.856L922.962 40.1474L922.972 40.1554L923.237 39.856ZM927.725 39.832L927.999 40.1233L927.725 39.832ZM927.701 35.92L927.44 36.2237L927.446 36.228L927.701 35.92ZM922.173 33.3811C921.425 32.9919 920.884 32.5073 920.529 31.9349C920.174 31.3634 919.989 30.6808 919.989 29.872H919.189C919.189 30.8071 919.404 31.6406 919.849 32.357C920.293 33.0727 920.953 33.6481 921.804 34.0909L922.173 33.3811ZM919.989 29.872C919.989 29.0783 920.186 28.3673 920.578 27.7292L919.896 27.3108C919.423 28.0807 919.189 28.9377 919.189 29.872H919.989ZM920.576 27.7313C920.978 27.0858 921.579 26.5658 922.4 26.1776L922.058 25.4544C921.119 25.8982 920.391 26.5142 919.897 27.3087L920.576 27.7313ZM922.402 26.1763C923.231 25.7768 924.256 25.568 925.493 25.568V24.768C924.169 24.768 923.018 24.9912 922.055 25.4557L922.402 26.1763ZM925.493 25.568C926.73 25.568 927.745 25.7769 928.556 26.1751L928.909 25.4569C927.96 24.9911 926.816 24.768 925.493 24.768V25.568ZM928.564 26.1788C929.401 26.5672 929.998 27.0858 930.382 27.7258L931.068 27.3142C930.588 26.5142 929.857 25.8968 928.901 25.4532L928.564 26.1788ZM930.387 27.7347C930.793 28.3722 930.997 29.0812 930.997 29.872H931.797C931.797 28.9348 931.553 28.0758 931.062 27.3052L930.387 27.7347ZM930.997 29.872C930.997 30.6834 930.799 31.3827 930.412 31.9837L931.085 32.4163C931.563 31.6733 931.797 30.8206 931.797 29.872H930.997ZM930.415 31.98C930.022 32.5765 929.499 33.0423 928.839 33.3798L929.203 34.0922C929.982 33.6937 930.612 33.1355 931.083 32.42L930.415 31.98ZM928.861 34.1026C929.677 34.4588 930.303 34.9717 930.753 35.6395L931.416 35.1925C930.874 34.3883 930.124 33.7812 929.181 33.3694L928.861 34.1026ZM930.753 35.6395C931.199 36.3008 931.429 37.0925 931.429 38.032H932.229C932.229 36.9555 931.963 36.0032 931.416 35.1925L930.753 35.6395ZM931.429 38.032C931.429 39.0476 931.169 39.9189 930.659 40.6617L931.319 41.1143C931.929 40.2251 932.229 39.1924 932.229 38.032H931.429ZM930.658 40.6631C930.159 41.3966 929.467 41.9668 928.569 42.3712L928.897 43.1008C929.918 42.6412 930.73 41.9794 931.32 41.1129L930.658 40.6631ZM928.569 42.3712C927.667 42.777 926.644 42.984 925.493 42.984V43.784C926.741 43.784 927.879 43.559 928.897 43.1008L928.569 42.3712ZM925.493 42.984C924.341 42.984 923.319 42.777 922.417 42.3712L922.089 43.1008C923.107 43.559 924.244 43.784 925.493 43.784V42.984ZM922.419 42.3723C921.536 41.968 920.841 41.3966 920.324 40.6586L919.669 41.1174C920.272 41.9794 921.082 42.64 922.086 43.0997L922.419 42.3723ZM920.33 40.6661C919.834 39.9229 919.581 39.05 919.581 38.032H918.781C918.781 39.19 919.071 40.2211 919.664 41.1099L920.33 40.6661ZM919.581 38.032C919.581 37.0925 919.811 36.3008 920.256 35.6395L919.593 35.1925C919.047 36.0032 918.781 36.9555 918.781 38.032H919.581ZM920.259 35.6362C920.708 34.9546 921.332 34.4443 922.143 34.105L921.834 33.367C920.886 33.7637 920.133 34.3734 919.591 35.1958L920.259 35.6362ZM928.533 30.352C928.533 29.4809 928.262 28.7545 927.68 28.2307L927.145 28.8253C927.523 29.1655 927.733 29.6551 927.733 30.352H928.533ZM927.685 28.2352C927.128 27.7163 926.38 27.48 925.493 27.48V28.28C926.238 28.28 926.77 28.4757 927.14 28.8208L927.685 28.2352ZM925.493 27.48C924.619 27.48 923.875 27.7178 923.305 28.2307L923.84 28.8253C924.23 28.4742 924.767 28.28 925.493 28.28V27.48ZM923.3 28.2352C922.735 28.7617 922.477 29.4959 922.477 30.376H923.277C923.277 29.6561 923.483 29.1583 923.845 28.8208L923.3 28.2352ZM922.477 30.376C922.477 31.1949 922.755 31.8843 923.329 32.4013L923.864 31.8067C923.479 31.4597 923.277 30.9971 923.277 30.376H922.477ZM923.334 32.4056C923.915 32.9115 924.645 33.152 925.493 33.152V32.352C924.804 32.352 924.271 32.1605 923.859 31.8024L923.334 32.4056ZM925.493 33.152C926.34 33.152 927.071 32.9115 927.651 32.4056L927.126 31.8024C926.715 32.1605 926.181 32.352 925.493 32.352V33.152ZM927.657 32.4008C928.244 31.8707 928.533 31.1753 928.533 30.352H927.733C927.733 30.9687 927.526 31.4413 927.121 31.8072L927.657 32.4008ZM925.493 34.8C924.511 34.8 923.672 35.0509 923.01 35.5845L923.512 36.2075C924.001 35.8131 924.65 35.6 925.493 35.6V34.8ZM923.006 35.588C922.336 36.1425 922.021 36.9297 922.021 37.888H922.821C922.821 37.1183 923.065 36.5775 923.516 36.204L923.006 35.588ZM922.021 37.888C922.021 38.7896 922.332 39.5539 922.963 40.1473L923.511 39.5647C923.053 39.1341 922.821 38.5864 922.821 37.888H922.021ZM922.972 40.1554C923.622 40.7319 924.477 41 925.493 41V40.2C924.62 40.2 923.971 39.9721 923.502 39.5566L922.972 40.1554ZM925.493 41C926.511 41 927.363 40.7222 927.999 40.1233L927.451 39.5407C926.999 39.9658 926.363 40.2 925.493 40.2V41ZM927.999 40.1233C928.628 39.5316 928.941 38.7762 928.941 37.888H928.141C928.141 38.5678 927.91 39.1084 927.451 39.5407L927.999 40.1233ZM928.941 37.888C928.941 36.9429 928.623 36.165 927.956 35.612L927.446 36.228C927.898 36.603 928.141 37.1371 928.141 37.888H928.941ZM927.961 35.6163C927.313 35.0605 926.477 34.8 925.493 34.8V35.6C926.333 35.6 926.969 35.8195 927.44 36.2237L927.961 35.6163ZM944.035 29.872L943.646 29.9646L943.719 30.272H944.035V29.872ZM943.195 28.36L942.931 28.6611L942.937 28.6663L943.195 28.36ZM939.067 29.2L938.722 28.9969L938.721 28.9988L939.067 29.2ZM938.275 33.52L937.875 33.5168L937.863 34.9837L938.618 33.7258L938.275 33.52ZM939.955 32.032L940.127 32.3929L940.134 32.3898L939.955 32.032ZM945.115 32.152L944.919 32.501L945.115 32.152ZM946.987 34.12L946.632 34.3041L946.633 34.3068L946.987 34.12ZM946.963 40.24L946.607 40.0561L946.606 40.0585L946.963 40.24ZM944.971 42.304L945.167 42.6525L944.971 42.304ZM937.891 41.944L937.645 42.2595L937.647 42.2614L937.891 41.944ZM935.899 38.872L935.513 38.9788L935.515 38.9844L935.899 38.872ZM936.859 27.352L937.19 27.5763L937.191 27.5747L936.859 27.352ZM945.547 26.464L945.266 26.7493L945.547 26.464ZM947.155 29.872V30.272H947.599L947.552 29.8299L947.155 29.872ZM939.451 34.984L939.19 34.6809L939.451 34.984ZM939.379 39.376L939.092 39.6546L939.096 39.6588L939.379 39.376ZM943.699 39.4L943.411 39.1215L943.407 39.1261L943.699 39.4ZM943.723 35.056L943.423 35.3207L943.427 35.3255L943.723 35.056ZM944.424 29.7794C944.25 29.0506 943.936 28.4603 943.452 28.0537L942.937 28.6663C943.253 28.9317 943.499 29.3494 943.646 29.9646L944.424 29.7794ZM943.458 28.059C942.975 27.636 942.305 27.456 941.515 27.456V28.256C942.196 28.256 942.647 28.412 942.931 28.661L943.458 28.059ZM941.515 27.456C940.28 27.456 939.327 27.97 938.722 28.9969L939.411 29.4031C939.862 28.638 940.542 28.256 941.515 28.256V27.456ZM938.721 28.9988C938.154 29.9734 937.891 31.5024 937.875 33.5168L938.675 33.5232C938.691 31.5376 938.955 30.1866 939.412 29.4012L938.721 28.9988ZM938.618 33.7258C938.958 33.1593 939.455 32.7143 940.127 32.3929L939.782 31.6711C938.982 32.0537 938.36 32.6007 937.932 33.3142L938.618 33.7258ZM940.134 32.3898C940.811 32.0509 941.55 31.88 942.355 31.88V31.08C941.432 31.08 940.57 31.2771 939.776 31.6742L940.134 32.3898ZM942.355 31.88C943.336 31.88 944.187 32.0907 944.919 32.501L945.31 31.803C944.443 31.3173 943.454 31.08 942.355 31.08V31.88ZM944.919 32.501C945.647 32.9084 946.217 33.505 946.632 34.3041L947.342 33.9359C946.86 33.007 946.183 32.2916 945.31 31.803L944.919 32.501ZM946.633 34.3068C947.044 35.0846 947.259 36.0411 947.259 37.192H948.059C948.059 35.9429 947.825 34.8514 947.34 33.9332L946.633 34.3068ZM947.259 37.192C947.259 38.2721 947.038 39.2237 946.607 40.0561L947.318 40.4239C947.815 39.4643 948.059 38.3839 948.059 37.192H947.259ZM946.606 40.0585C946.195 40.8666 945.587 41.4973 944.774 41.9555L945.167 42.6525C946.114 42.1187 946.834 41.3734 947.319 40.4215L946.606 40.0585ZM944.774 41.9555C943.965 42.4115 942.988 42.648 941.827 42.648V43.448C943.097 43.448 944.216 43.1885 945.167 42.6525L944.774 41.9555ZM941.827 42.648C940.218 42.648 939.002 42.2921 938.134 41.6266L937.647 42.2614C938.699 43.0679 940.107 43.448 941.827 43.448V42.648ZM938.137 41.6285C937.268 40.9512 936.646 40.003 936.283 38.7596L935.515 38.9844C935.919 40.365 936.625 41.4648 937.645 42.2595L938.137 41.6285ZM936.284 38.7652C935.929 37.4828 935.747 35.8893 935.747 33.976H934.947C934.947 35.9347 935.133 37.6052 935.513 38.9788L936.284 38.7652ZM935.747 33.976C935.747 31.0822 936.247 28.9683 937.19 27.5763L936.527 27.1277C935.454 28.7117 934.947 31.0138 934.947 33.976H935.747ZM937.191 27.5747C938.109 26.2049 939.561 25.496 941.635 25.496V24.696C939.356 24.696 937.624 25.4911 936.526 27.1293L937.191 27.5747ZM941.635 25.496C943.242 25.496 944.433 25.9304 945.266 26.7493L945.827 26.1787C944.804 25.1736 943.388 24.696 941.635 24.696V25.496ZM945.266 26.7493C946.125 27.5928 946.622 28.6412 946.757 29.9141L947.552 29.8299C947.399 28.3828 946.825 27.1592 945.827 26.1787L945.266 26.7493ZM947.155 29.472H944.035V30.272H947.155V29.472ZM941.587 33.84C940.655 33.84 939.847 34.1151 939.19 34.6809L939.712 35.2871C940.207 34.8609 940.823 34.64 941.587 34.64V33.84ZM939.19 34.6809C938.505 35.2708 938.187 36.1141 938.187 37.144H938.987C938.987 36.2859 939.245 35.6892 939.712 35.2871L939.19 34.6809ZM938.187 37.144C938.187 38.1652 938.474 39.0187 939.092 39.6546L939.666 39.0974C939.227 38.6453 938.987 38.0108 938.987 37.144H938.187ZM939.096 39.6588C939.734 40.2967 940.606 40.592 941.659 40.592V39.792C940.759 39.792 940.112 39.5433 939.661 39.0932L939.096 39.6588ZM941.659 40.592C942.61 40.592 943.404 40.2977 943.99 39.6739L943.407 39.1261C943.001 39.5583 942.435 39.792 941.659 39.792V40.592ZM943.986 39.6785C944.585 39.0602 944.867 38.2399 944.867 37.264H944.067C944.067 38.0801 943.836 38.6838 943.411 39.1215L943.986 39.6785ZM944.867 37.264C944.867 36.2633 944.598 35.4219 944.018 34.7865L943.427 35.3255C943.84 35.7781 944.067 36.4087 944.067 37.264H944.867ZM944.023 34.7914C943.445 34.1371 942.609 33.84 941.587 33.84V34.64C942.453 34.64 943.04 34.8869 943.423 35.3206L944.023 34.7914ZM953.722 33.736L953.877 34.105L954.665 33.7754L953.907 33.3811L953.722 33.736ZM951.97 27.52L951.631 27.3087L951.629 27.3108L951.97 27.52ZM953.962 25.816L954.133 26.1776L954.136 26.1763L953.962 25.816ZM960.466 25.816L960.29 26.1752L960.298 26.1788L960.466 25.816ZM962.458 27.52L962.115 27.7259L962.121 27.7347L962.458 27.52ZM962.482 32.2L962.816 32.42L962.819 32.4163L962.482 32.2ZM960.754 33.736L960.572 33.3798L959.819 33.7645L960.594 34.1026L960.754 33.736ZM962.722 40.888L962.392 40.6617L962.391 40.6631L962.722 40.888ZM953.986 42.736L953.82 43.0997L953.822 43.1008L953.986 42.736ZM951.73 40.888L951.397 41.1099L951.402 41.1174L951.73 40.888ZM951.658 35.416L951.99 35.6396L951.992 35.6362L951.658 35.416ZM959.146 28.528L958.874 28.8208L958.879 28.8253L959.146 28.528ZM955.306 28.528L955.039 28.2306L955.034 28.2352L955.306 28.528ZM955.33 32.104L955.063 32.4014L955.067 32.4056L955.33 32.104ZM959.122 32.104L959.385 32.4057L959.39 32.4008L959.122 32.104ZM954.994 35.896L954.743 35.5845L954.739 35.588L954.994 35.896ZM954.97 39.856L954.696 40.1474L954.705 40.1554L954.97 39.856ZM959.458 39.832L959.732 40.1233L959.458 39.832ZM959.434 35.92L959.174 36.2237L959.179 36.228L959.434 35.92ZM953.907 33.3811C953.158 32.9919 952.617 32.5073 952.262 31.9349C951.907 31.3634 951.722 30.6808 951.722 29.872H950.922C950.922 30.8071 951.137 31.6406 951.582 32.357C952.027 33.0727 952.686 33.6481 953.538 34.0909L953.907 33.3811ZM951.722 29.872C951.722 29.0783 951.92 28.3673 952.311 27.7292L951.629 27.3108C951.157 28.0807 950.922 28.9377 950.922 29.872H951.722ZM952.31 27.7313C952.711 27.0858 953.312 26.5658 954.133 26.1776L953.791 25.4544C952.852 25.8982 952.125 26.5142 951.631 27.3087L952.31 27.7313ZM954.136 26.1763C954.964 25.7768 955.99 25.568 957.226 25.568V24.768C955.903 24.768 954.752 24.9912 953.788 25.4557L954.136 26.1763ZM957.226 25.568C958.463 25.568 959.479 25.7769 960.29 26.1751L960.642 25.4569C959.693 24.9911 958.549 24.768 957.226 24.768V25.568ZM960.298 26.1788C961.134 26.5672 961.731 27.0858 962.115 27.7258L962.801 27.3142C962.321 26.5142 961.59 25.8968 960.635 25.4532L960.298 26.1788ZM962.121 27.7347C962.526 28.3722 962.73 29.0812 962.73 29.872H963.53C963.53 28.9348 963.286 28.0758 962.796 27.3052L962.121 27.7347ZM962.73 29.872C962.73 30.6834 962.532 31.3827 962.146 31.9837L962.819 32.4163C963.296 31.6733 963.53 30.8206 963.53 29.872H962.73ZM962.148 31.98C961.755 32.5765 961.232 33.0423 960.572 33.3798L960.936 34.0922C961.716 33.6937 962.345 33.1355 962.816 32.42L962.148 31.98ZM960.594 34.1026C961.41 34.4588 962.036 34.9717 962.486 35.6395L963.15 35.1925C962.608 34.3883 961.858 33.7812 960.914 33.3694L960.594 34.1026ZM962.486 35.6395C962.932 36.3008 963.162 37.0925 963.162 38.032H963.962C963.962 36.9555 963.696 36.0032 963.15 35.1925L962.486 35.6395ZM963.162 38.032C963.162 39.0476 962.902 39.9189 962.392 40.6617L963.052 41.1143C963.662 40.2251 963.962 39.1924 963.962 38.032H963.162ZM962.391 40.6631C961.893 41.3966 961.201 41.9668 960.302 42.3712L960.63 43.1008C961.652 42.6412 962.464 41.9794 963.053 41.1129L962.391 40.6631ZM960.302 42.3712C959.4 42.777 958.378 42.984 957.226 42.984V43.784C958.475 43.784 959.612 43.559 960.63 43.1008L960.302 42.3712ZM957.226 42.984C956.075 42.984 955.052 42.777 954.15 42.3712L953.822 43.1008C954.84 43.559 955.977 43.784 957.226 43.784V42.984ZM954.153 42.3723C953.269 41.968 952.574 41.3966 952.058 40.6586L951.402 41.1174C952.006 41.9794 952.815 42.64 953.82 43.0997L954.153 42.3723ZM952.063 40.6661C951.568 39.9229 951.314 39.05 951.314 38.032H950.514C950.514 39.19 950.805 40.2211 951.397 41.1099L952.063 40.6661ZM951.314 38.032C951.314 37.0925 951.544 36.3008 951.99 35.6395L951.326 35.1925C950.78 36.0032 950.514 36.9555 950.514 38.032H951.314ZM951.992 35.6362C952.442 34.9546 953.065 34.4443 953.877 34.105L953.568 33.367C952.619 33.7637 951.867 34.3734 951.324 35.1958L951.992 35.6362ZM960.266 30.352C960.266 29.4809 959.996 28.7545 959.414 28.2307L958.879 28.8253C959.257 29.1655 959.466 29.6551 959.466 30.352H960.266ZM959.419 28.2352C958.861 27.7163 958.113 27.48 957.226 27.48V28.28C957.971 28.28 958.503 28.4757 958.874 28.8208L959.419 28.2352ZM957.226 27.48C956.352 27.48 955.608 27.7178 955.039 28.2307L955.574 28.8253C955.964 28.4742 956.5 28.28 957.226 28.28V27.48ZM955.034 28.2352C954.468 28.7617 954.21 29.4959 954.21 30.376H955.01C955.01 29.6561 955.216 29.1583 955.579 28.8208L955.034 28.2352ZM954.21 30.376C954.21 31.1949 954.488 31.8843 955.063 32.4013L955.598 31.8067C955.212 31.4597 955.01 30.9971 955.01 30.376H954.21ZM955.067 32.4056C955.648 32.9115 956.379 33.152 957.226 33.152V32.352C956.538 32.352 956.004 32.1605 955.593 31.8024L955.067 32.4056ZM957.226 33.152C958.074 33.152 958.804 32.9115 959.385 32.4056L958.859 31.8024C958.448 32.1605 957.915 32.352 957.226 32.352V33.152ZM959.39 32.4008C959.977 31.8707 960.266 31.1753 960.266 30.352H959.466C959.466 30.9687 959.259 31.4413 958.854 31.8072L959.39 32.4008ZM957.226 34.8C956.245 34.8 955.406 35.0509 954.743 35.5845L955.245 36.2075C955.735 35.8131 956.384 35.6 957.226 35.6V34.8ZM954.739 35.588C954.07 36.1425 953.754 36.9297 953.754 37.888H954.554C954.554 37.1183 954.799 36.5775 955.249 36.204L954.739 35.588ZM953.754 37.888C953.754 38.7896 954.066 39.5539 954.696 40.1473L955.244 39.5647C954.787 39.1341 954.554 38.5864 954.554 37.888H953.754ZM954.705 40.1554C955.356 40.7319 956.211 41 957.226 41V40.2C956.353 40.2 955.705 39.9721 955.235 39.5566L954.705 40.1554ZM957.226 41C958.244 41 959.096 40.7222 959.732 40.1233L959.184 39.5407C958.732 39.9658 958.096 40.2 957.226 40.2V41ZM959.732 40.1233C960.361 39.5316 960.674 38.7762 960.674 37.888H959.874C959.874 38.5678 959.643 39.1084 959.184 39.5407L959.732 40.1233ZM960.674 37.888C960.674 36.9429 960.357 36.165 959.689 35.612L959.179 36.228C959.632 36.603 959.874 37.1371 959.874 37.888H960.674ZM959.695 35.6163C959.046 35.0605 958.21 34.8 957.226 34.8V35.6C958.066 35.6 958.702 35.8195 959.174 36.2237L959.695 35.6163Z" fill="url(#paint3_linear_16_24)" mask="url(#path-5-outside-1_16_24)"/>
<defs>
<linearGradient id="paint0_linear_16_24" x1="528.015" y1="15" x2="540.973" y2="57.6652" gradientUnits="userSpaceOnUse">
<stop stop-color="#3F56AF"/>
<stop offset="1" stop-color="#4867B8" stop-opacity="0"/>
</linearGradient>
<linearGradient id="paint1_linear_16_24" x1="520.153" y1="-26.7331" x2="472.897" y2="14.7564" gradientUnits="userSpaceOnUse">
<stop stop-color="#0E044B"/>
<stop offset="0.544503" stop-color="#2C309B"/>
<stop offset="1" stop-color="#89E8FD"/>
</linearGradient>
<linearGradient id="paint2_linear_16_24" x1="527.831" y1="25.8564" x2="527.831" y2="43.6419" gradientUnits="userSpaceOnUse">
<stop stop-color="#AACCFF"/>
<stop offset="0.494792" stop-color="#C1CFFF" stop-opacity="0"/>
<stop offset="1" stop-color="#DAE2FF"/>
</linearGradient>
<linearGradient id="paint3_linear_16_24" x1="875.75" y1="24" x2="875.75" y2="45.3632" gradientUnits="userSpaceOnUse">
<stop stop-color="#AACCFF"/>
<stop offset="0.494792" stop-color="#C1CFFF" stop-opacity="0"/>
<stop offset="1" stop-color="#DAE2FF"/>
</linearGradient>
</defs>
</svg>
