<svg width="206" height="19" viewBox="0 0 206 19" fill="none" xmlns="http://www.w3.org/2000/svg">
<path d="M0.637224 8.067C0.637224 6.911 0.903558 5.874 1.43622 4.956C1.98022 4.038 2.71122 3.324 3.62922 2.814C4.55856 2.29267 5.57289 2.032 6.67222 2.032C7.93022 2.032 9.04656 2.34367 10.0212 2.967C11.0072 3.579 11.7212 4.45167 12.1632 5.585H9.83422C9.52822 4.96167 9.10322 4.497 8.55922 4.191C8.01522 3.885 7.38622 3.732 6.67222 3.732C5.89022 3.732 5.19322 3.90767 4.58122 4.259C3.96922 4.61033 3.48756 5.11467 3.13622 5.772C2.79622 6.42933 2.62622 7.19433 2.62622 8.067C2.62622 8.93967 2.79622 9.70467 3.13622 10.362C3.48756 11.0193 3.96922 11.5293 4.58122 11.892C5.19322 12.2433 5.89022 12.419 6.67222 12.419C7.38622 12.419 8.01522 12.266 8.55922 11.96C9.10322 11.654 9.52822 11.1893 9.83422 10.566H12.1632C11.7212 11.6993 11.0072 12.572 10.0212 13.184C9.04656 13.796 7.93022 14.102 6.67222 14.102C5.56156 14.102 4.54722 13.847 3.62922 13.337C2.71122 12.8157 1.98022 12.096 1.43622 11.178C0.903558 10.26 0.637224 9.223 0.637224 8.067ZM19.1067 4.48C19.8207 4.48 20.4553 4.633 21.0107 4.939C21.5773 5.245 22.0193 5.69833 22.3367 6.299C22.6653 6.89967 22.8297 7.625 22.8297 8.475V14H20.9087V8.764C20.9087 7.92533 20.699 7.285 20.2797 6.843C19.8603 6.38967 19.288 6.163 18.5627 6.163C17.8373 6.163 17.2593 6.38967 16.8287 6.843C16.4093 7.285 16.1997 7.92533 16.1997 8.764V14H14.2617V1.42H16.1997V5.721C16.5283 5.32433 16.942 5.01833 17.4407 4.803C17.9507 4.58767 18.506 4.48 19.1067 4.48ZM26.1177 3.392C25.7664 3.392 25.4717 3.273 25.2337 3.035C24.9957 2.797 24.8767 2.50233 24.8767 2.151C24.8767 1.79967 24.9957 1.505 25.2337 1.267C25.4717 1.029 25.7664 0.909999 26.1177 0.909999C26.4577 0.909999 26.7467 1.029 26.9847 1.267C27.2227 1.505 27.3417 1.79967 27.3417 2.151C27.3417 2.50233 27.2227 2.797 26.9847 3.035C26.7467 3.273 26.4577 3.392 26.1177 3.392ZM27.0697 4.633V14H25.1317V4.633H27.0697ZM38.0291 9.087C38.0291 9.43833 38.0065 9.75567 37.9611 10.039H30.8041C30.8608 10.787 31.1385 11.3877 31.6371 11.841C32.1358 12.2943 32.7478 12.521 33.4731 12.521C34.5158 12.521 35.2525 12.0847 35.6831 11.212H37.7741C37.4908 12.0733 36.9751 12.7817 36.2271 13.337C35.4905 13.881 34.5725 14.153 33.4731 14.153C32.5778 14.153 31.7731 13.9547 31.0591 13.558C30.3565 13.15 29.8011 12.5833 29.3931 11.858C28.9965 11.1213 28.7981 10.2713 28.7981 9.308C28.7981 8.34467 28.9908 7.50033 29.3761 6.775C29.7728 6.03833 30.3225 5.47167 31.0251 5.075C31.7391 4.67833 32.5551 4.48 33.4731 4.48C34.3571 4.48 35.1448 4.67267 35.8361 5.058C36.5275 5.44333 37.0658 5.98733 37.4511 6.69C37.8365 7.38133 38.0291 8.18033 38.0291 9.087ZM36.0061 8.475C35.9948 7.761 35.7398 7.18867 35.2411 6.758C34.7425 6.32733 34.1248 6.112 33.3881 6.112C32.7195 6.112 32.1471 6.32733 31.6711 6.758C31.1951 7.17733 30.9118 7.74967 30.8211 8.475H36.0061ZM43.6933 6.214H41.9593V14H40.0043V6.214H38.8993V4.633H40.0043V3.97C40.0043 2.89333 40.2876 2.11133 40.8543 1.624C41.4323 1.12533 42.3333 0.876 43.5573 0.876V2.491C42.968 2.491 42.5543 2.60433 42.3163 2.831C42.0783 3.04633 41.9593 3.426 41.9593 3.97V4.633H43.6933V6.214ZM57.1199 2.185V3.766H53.9749V14H52.0369V3.766H48.8749V2.185H57.1199ZM67.4976 9.087C67.4976 9.43833 67.4749 9.75567 67.4296 10.039H60.2726C60.3292 10.787 60.6069 11.3877 61.1056 11.841C61.6042 12.2943 62.2162 12.521 62.9416 12.521C63.9842 12.521 64.7209 12.0847 65.1516 11.212H67.2426C66.9592 12.0733 66.4436 12.7817 65.6956 13.337C64.9589 13.881 64.0409 14.153 62.9416 14.153C62.0462 14.153 61.2416 13.9547 60.5276 13.558C59.8249 13.15 59.2696 12.5833 58.8616 11.858C58.4649 11.1213 58.2666 10.2713 58.2666 9.308C58.2666 8.34467 58.4592 7.50033 58.8446 6.775C59.2412 6.03833 59.7909 5.47167 60.4936 5.075C61.2076 4.67833 62.0236 4.48 62.9416 4.48C63.8256 4.48 64.6132 4.67267 65.3046 5.058C65.9959 5.44333 66.5342 5.98733 66.9196 6.69C67.3049 7.38133 67.4976 8.18033 67.4976 9.087ZM65.4746 8.475C65.4632 7.761 65.2082 7.18867 64.7096 6.758C64.2109 6.32733 63.5932 6.112 62.8566 6.112C62.1879 6.112 61.6156 6.32733 61.1396 6.758C60.6636 7.17733 60.3802 7.74967 60.2896 8.475H65.4746ZM68.5887 9.308C68.5887 8.34467 68.7814 7.50033 69.1667 6.775C69.5634 6.03833 70.1074 5.47167 70.7987 5.075C71.4901 4.67833 72.2834 4.48 73.1787 4.48C74.3121 4.48 75.2471 4.752 75.9837 5.296C76.7317 5.82867 77.2361 6.59367 77.4967 7.591H75.4057C75.2357 7.12633 74.9637 6.76367 74.5897 6.503C74.2157 6.24233 73.7454 6.112 73.1787 6.112C72.3854 6.112 71.7507 6.39533 71.2747 6.962C70.8101 7.51733 70.5777 8.29933 70.5777 9.308C70.5777 10.3167 70.8101 11.1043 71.2747 11.671C71.7507 12.2377 72.3854 12.521 73.1787 12.521C74.3007 12.521 75.0431 12.028 75.4057 11.042H77.4967C77.2247 11.994 76.7147 12.7533 75.9667 13.32C75.2187 13.8753 74.2894 14.153 73.1787 14.153C72.2834 14.153 71.4901 13.9547 70.7987 13.558C70.1074 13.15 69.5634 12.5833 69.1667 11.858C68.7814 11.1213 68.5887 10.2713 68.5887 9.308ZM84.1031 4.48C84.8171 4.48 85.4518 4.633 86.0071 4.939C86.5738 5.245 87.0158 5.69833 87.3331 6.299C87.6618 6.89967 87.8261 7.625 87.8261 8.475V14H85.9051V8.764C85.9051 7.92533 85.6954 7.285 85.2761 6.843C84.8568 6.38967 84.2844 6.163 83.5591 6.163C82.8338 6.163 82.2558 6.38967 81.8251 6.843C81.4058 7.285 81.1961 7.92533 81.1961 8.764V14H79.2581V1.42H81.1961V5.721C81.5248 5.32433 81.9384 5.01833 82.4371 4.803C82.9471 4.58767 83.5024 4.48 84.1031 4.48ZM94.8541 4.48C95.5908 4.48 96.2481 4.633 96.8261 4.939C97.4155 5.245 97.8745 5.69833 98.2031 6.299C98.5318 6.89967 98.6962 7.625 98.6962 8.475V14H96.7751V8.764C96.7751 7.92533 96.5655 7.285 96.1461 6.843C95.7268 6.38967 95.1545 6.163 94.4291 6.163C93.7038 6.163 93.1258 6.38967 92.6951 6.843C92.2758 7.285 92.0661 7.92533 92.0661 8.764V14H90.1281V4.633H92.0661V5.704C92.3835 5.31867 92.7858 5.01833 93.2731 4.803C93.7718 4.58767 94.2988 4.48 94.8541 4.48ZM105.061 14.153C104.177 14.153 103.378 13.9547 102.664 13.558C101.95 13.15 101.389 12.5833 100.981 11.858C100.573 11.1213 100.369 10.2713 100.369 9.308C100.369 8.356 100.579 7.51167 100.998 6.775C101.418 6.03833 101.99 5.47167 102.715 5.075C103.441 4.67833 104.251 4.48 105.146 4.48C106.042 4.48 106.852 4.67833 107.577 5.075C108.303 5.47167 108.875 6.03833 109.294 6.775C109.714 7.51167 109.923 8.356 109.923 9.308C109.923 10.26 109.708 11.1043 109.277 11.841C108.847 12.5777 108.257 13.15 107.509 13.558C106.773 13.9547 105.957 14.153 105.061 14.153ZM105.061 12.47C105.56 12.47 106.025 12.351 106.455 12.113C106.897 11.875 107.254 11.518 107.526 11.042C107.798 10.566 107.934 9.988 107.934 9.308C107.934 8.628 107.804 8.05567 107.543 7.591C107.283 7.115 106.937 6.758 106.506 6.52C106.076 6.282 105.611 6.163 105.112 6.163C104.614 6.163 104.149 6.282 103.718 6.52C103.299 6.758 102.965 7.115 102.715 7.591C102.466 8.05567 102.341 8.628 102.341 9.308C102.341 10.3167 102.596 11.0987 103.106 11.654C103.628 12.198 104.279 12.47 105.061 12.47ZM113.607 1.42V14H111.669V1.42H113.607ZM120.044 14.153C119.16 14.153 118.361 13.9547 117.647 13.558C116.933 13.15 116.372 12.5833 115.964 11.858C115.556 11.1213 115.352 10.2713 115.352 9.308C115.352 8.356 115.562 7.51167 115.981 6.775C116.401 6.03833 116.973 5.47167 117.698 5.075C118.424 4.67833 119.234 4.48 120.129 4.48C121.025 4.48 121.835 4.67833 122.56 5.075C123.286 5.47167 123.858 6.03833 124.277 6.775C124.697 7.51167 124.906 8.356 124.906 9.308C124.906 10.26 124.691 11.1043 124.26 11.841C123.83 12.5777 123.24 13.15 122.492 13.558C121.756 13.9547 120.94 14.153 120.044 14.153ZM120.044 12.47C120.543 12.47 121.008 12.351 121.438 12.113C121.88 11.875 122.237 11.518 122.509 11.042C122.781 10.566 122.917 9.988 122.917 9.308C122.917 8.628 122.787 8.05567 122.526 7.591C122.266 7.115 121.92 6.758 121.489 6.52C121.059 6.282 120.594 6.163 120.095 6.163C119.597 6.163 119.132 6.282 118.701 6.52C118.282 6.758 117.948 7.115 117.698 7.591C117.449 8.05567 117.324 8.628 117.324 9.308C117.324 10.3167 117.579 11.0987 118.089 11.654C118.611 12.198 119.262 12.47 120.044 12.47ZM130.426 4.48C131.152 4.48 131.792 4.62733 132.347 4.922C132.914 5.20533 133.356 5.56233 133.673 5.993V4.633H135.628V14.153C135.628 15.0143 135.447 15.7793 135.084 16.448C134.722 17.128 134.195 17.6607 133.503 18.046C132.823 18.4313 132.007 18.624 131.055 18.624C129.786 18.624 128.732 18.3237 127.893 17.723C127.055 17.1337 126.579 16.329 126.465 15.309H128.386C128.534 15.7963 128.845 16.1873 129.321 16.482C129.809 16.788 130.387 16.941 131.055 16.941C131.837 16.941 132.466 16.703 132.942 16.227C133.43 15.751 133.673 15.0597 133.673 14.153V12.589C133.345 13.031 132.897 13.405 132.33 13.711C131.775 14.0057 131.14 14.153 130.426 14.153C129.61 14.153 128.862 13.949 128.182 13.541C127.514 13.1217 126.981 12.5437 126.584 11.807C126.199 11.059 126.006 10.2147 126.006 9.274C126.006 8.33333 126.199 7.50033 126.584 6.775C126.981 6.04967 127.514 5.48867 128.182 5.092C128.862 4.684 129.61 4.48 130.426 4.48ZM133.673 9.308C133.673 8.662 133.537 8.101 133.265 7.625C133.005 7.149 132.659 6.78633 132.228 6.537C131.798 6.28767 131.333 6.163 130.834 6.163C130.336 6.163 129.871 6.28767 129.44 6.537C129.01 6.775 128.658 7.132 128.386 7.608C128.126 8.07267 127.995 8.628 127.995 9.274C127.995 9.92 128.126 10.4867 128.386 10.974C128.658 11.4613 129.01 11.8353 129.44 12.096C129.882 12.3453 130.347 12.47 130.834 12.47C131.333 12.47 131.798 12.3453 132.228 12.096C132.659 11.8467 133.005 11.484 133.265 11.008C133.537 10.5207 133.673 9.954 133.673 9.308ZM146.436 4.633L140.69 18.403H138.684L140.588 13.847L136.899 4.633H139.058L141.693 11.773L144.43 4.633H146.436ZM157.363 14.119C156.264 14.119 155.25 13.864 154.32 13.354C153.402 12.8327 152.671 12.113 152.127 11.195C151.595 10.2657 151.328 9.223 151.328 8.067C151.328 6.911 151.595 5.874 152.127 4.956C152.671 4.038 153.402 3.324 154.32 2.814C155.25 2.29267 156.264 2.032 157.363 2.032C158.474 2.032 159.488 2.29267 160.406 2.814C161.336 3.324 162.067 4.038 162.599 4.956C163.132 5.874 163.398 6.911 163.398 8.067C163.398 9.223 163.132 10.2657 162.599 11.195C162.067 12.113 161.336 12.8327 160.406 13.354C159.488 13.864 158.474 14.119 157.363 14.119ZM157.363 12.436C158.145 12.436 158.842 12.2603 159.454 11.909C160.066 11.5463 160.542 11.0363 160.882 10.379C161.234 9.71033 161.409 8.93967 161.409 8.067C161.409 7.19433 161.234 6.42933 160.882 5.772C160.542 5.11467 160.066 4.61033 159.454 4.259C158.842 3.90767 158.145 3.732 157.363 3.732C156.581 3.732 155.884 3.90767 155.272 4.259C154.66 4.61033 154.179 5.11467 153.827 5.772C153.487 6.42933 153.317 7.19433 153.317 8.067C153.317 8.93967 153.487 9.71033 153.827 10.379C154.179 11.0363 154.66 11.5463 155.272 11.909C155.884 12.2603 156.581 12.436 157.363 12.436ZM169.062 6.214H167.328V14H165.373V6.214H164.268V4.633H165.373V3.97C165.373 2.89333 165.657 2.11133 166.223 1.624C166.801 1.12533 167.702 0.876 168.926 0.876V2.491C168.337 2.491 167.923 2.60433 167.685 2.831C167.447 3.04633 167.328 3.426 167.328 3.97V4.633H169.062V6.214ZM174.537 6.214H172.803V14H170.848V6.214H169.743V4.633H170.848V3.97C170.848 2.89333 171.131 2.11133 171.698 1.624C172.276 1.12533 173.177 0.876 174.401 0.876V2.491C173.812 2.491 173.398 2.60433 173.16 2.831C172.922 3.04633 172.803 3.426 172.803 3.97V4.633H174.537V6.214ZM177.07 3.392C176.719 3.392 176.424 3.273 176.186 3.035C175.948 2.797 175.829 2.50233 175.829 2.151C175.829 1.79967 175.948 1.505 176.186 1.267C176.424 1.029 176.719 0.909999 177.07 0.909999C177.41 0.909999 177.699 1.029 177.937 1.267C178.175 1.505 178.294 1.79967 178.294 2.151C178.294 2.50233 178.175 2.797 177.937 3.035C177.699 3.273 177.41 3.392 177.07 3.392ZM178.022 4.633V14H176.084V4.633H178.022ZM179.751 9.308C179.751 8.34467 179.943 7.50033 180.329 6.775C180.725 6.03833 181.269 5.47167 181.961 5.075C182.652 4.67833 183.445 4.48 184.341 4.48C185.474 4.48 186.409 4.752 187.146 5.296C187.894 5.82867 188.398 6.59367 188.659 7.591H186.568C186.398 7.12633 186.126 6.76367 185.752 6.503C185.378 6.24233 184.907 6.112 184.341 6.112C183.547 6.112 182.913 6.39533 182.437 6.962C181.972 7.51733 181.74 8.29933 181.74 9.308C181.74 10.3167 181.972 11.1043 182.437 11.671C182.913 12.2377 183.547 12.521 184.341 12.521C185.463 12.521 186.205 12.028 186.568 11.042H188.659C188.387 11.994 187.877 12.7533 187.129 13.32C186.381 13.8753 185.451 14.153 184.341 14.153C183.445 14.153 182.652 13.9547 181.961 13.558C181.269 13.15 180.725 12.5833 180.329 11.858C179.943 11.1213 179.751 10.2713 179.751 9.308ZM199.005 9.087C199.005 9.43833 198.983 9.75567 198.937 10.039H191.78C191.837 10.787 192.115 11.3877 192.613 11.841C193.112 12.2943 193.724 12.521 194.449 12.521C195.492 12.521 196.229 12.0847 196.659 11.212H198.75C198.467 12.0733 197.951 12.7817 197.203 13.337C196.467 13.881 195.549 14.153 194.449 14.153C193.554 14.153 192.749 13.9547 192.035 13.558C191.333 13.15 190.777 12.5833 190.369 11.858C189.973 11.1213 189.774 10.2713 189.774 9.308C189.774 8.34467 189.967 7.50033 190.352 6.775C190.749 6.03833 191.299 5.47167 192.001 5.075C192.715 4.67833 193.531 4.48 194.449 4.48C195.333 4.48 196.121 4.67267 196.812 5.058C197.504 5.44333 198.042 5.98733 198.427 6.69C198.813 7.38133 199.005 8.18033 199.005 9.087ZM196.982 8.475C196.971 7.761 196.716 7.18867 196.217 6.758C195.719 6.32733 195.101 6.112 194.364 6.112C193.696 6.112 193.123 6.32733 192.647 6.758C192.171 7.17733 191.888 7.74967 191.797 8.475H196.982ZM202.68 5.993C202.964 5.517 203.338 5.14867 203.802 4.888C204.278 4.616 204.839 4.48 205.485 4.48V6.486H204.992C204.233 6.486 203.655 6.67867 203.258 7.064C202.873 7.44933 202.68 8.118 202.68 9.07V14H200.742V4.633H202.68V5.993Z" fill="#359EFF"/>
</svg>
