<svg width="237" height="26" viewBox="0 0 237 26" fill="none" xmlns="http://www.w3.org/2000/svg">
<path d="M0.68 19V11.2C0.68 9.36 1.168 7.96 2.144 7C3.12 6.024 4.664 5.536 6.776 5.536C8.904 5.536 10.44 6.024 11.384 7C12.344 7.96 12.824 9.36 12.824 11.2V19H9.248V11.152C9.248 10.304 9.048 9.64 8.648 9.16C8.264 8.664 7.624 8.416 6.728 8.416C5.848 8.416 5.208 8.664 4.808 9.16C4.424 9.64 4.232 10.304 4.232 11.152V13.24L4.304 13.264C4.608 12.64 4.968 12.232 5.384 12.04C5.8 11.832 6.384 11.728 7.136 11.728H7.688V14.416H7.136C6.336 14.416 5.728 14.552 5.312 14.824C4.896 15.096 4.608 15.456 4.448 15.904C4.304 16.336 4.232 16.824 4.232 17.368V19H0.68ZM9.51856 25.264V23.128C9.51856 22.728 9.34256 22.528 8.99056 22.528C8.91056 22.528 8.83056 22.536 8.75056 22.552C8.67056 22.584 8.59056 22.608 8.51056 22.624L8.34256 20.896C8.56656 20.816 8.87056 20.736 9.25456 20.656C9.63856 20.576 10.0386 20.536 10.4546 20.536C11.2386 20.536 11.7906 20.688 12.1106 20.992C12.4306 21.312 12.5906 21.744 12.5906 22.288V25.264H9.51856ZM18.9796 19.24C17.9556 19.24 17.1316 18.992 16.5076 18.496C15.8996 17.984 15.5956 17.208 15.5956 16.168V14.608C15.5956 13.664 15.7956 12.968 16.1956 12.52C16.6116 12.072 17.1956 11.736 17.9476 11.512L17.9716 11.416L15.3556 10.48V9.856C15.3556 9.04 15.5796 8.312 16.0276 7.672C16.4916 7.016 17.1636 6.496 18.0436 6.112C18.9236 5.728 19.9956 5.536 21.2596 5.536C23.0196 5.536 24.4116 5.944 25.4356 6.76C26.4756 7.56 26.9956 8.76 26.9956 10.36V13.96C26.9956 14.728 27.1636 15.28 27.4996 15.616C27.8356 15.952 28.2516 16.12 28.7476 16.12C29.4356 16.12 29.9876 15.832 30.4036 15.256C30.8196 14.68 31.0276 13.912 31.0276 12.952V5.848H34.6276V19H31.8436L31.4356 16.936H31.2436C30.9556 17.608 30.4836 18.16 29.8276 18.592C29.1876 19.024 28.3876 19.24 27.4276 19.24C26.1156 19.24 25.1236 18.896 24.4516 18.208C23.7956 17.504 23.4676 16.4 23.4676 14.896V10.624C23.4676 9.776 23.2516 9.192 22.8196 8.872C22.3876 8.536 21.8516 8.368 21.2116 8.368C20.6036 8.368 20.0996 8.504 19.6996 8.776C19.2996 9.032 19.0836 9.424 19.0516 9.952L21.1396 10.96L20.8996 12.52C20.3076 12.536 19.8596 12.68 19.5556 12.952C19.2516 13.208 19.0996 13.664 19.0996 14.32V15.784C19.0996 16.44 19.4196 16.768 20.0596 16.768C20.3796 16.768 20.6596 16.72 20.8996 16.624L21.2356 18.76C20.6276 19.08 19.8756 19.24 18.9796 19.24ZM41.4562 19.312C40.6402 19.312 39.8722 19.216 39.1522 19.024C38.4322 18.848 37.7602 18.592 37.1362 18.256L38.0962 15.64C38.4482 15.848 38.8722 16.032 39.3682 16.192C39.8642 16.352 40.3522 16.432 40.8322 16.432C41.7282 16.432 42.4402 16.096 42.9682 15.424C43.4962 14.736 43.7602 13.712 43.7602 12.352C43.7602 11.088 43.4962 10.12 42.9682 9.448C42.4402 8.76 41.6162 8.416 40.4962 8.416C39.9682 8.416 39.4242 8.496 38.8642 8.656C38.3042 8.8 37.8402 8.984 37.4722 9.208V6.256C37.9682 6.032 38.5282 5.856 39.1522 5.728C39.7762 5.6 40.4402 5.536 41.1442 5.536C43.3522 5.536 44.9522 6.144 45.9442 7.36C46.9362 8.56 47.4322 10.224 47.4322 12.352C47.4322 14.64 46.9122 16.376 45.8722 17.56C44.8322 18.728 43.3602 19.312 41.4562 19.312ZM43.5228 4.024C42.7708 4.024 42.1788 3.912 41.7468 3.688C41.3148 3.464 41.0108 3.184 40.8348 2.848C40.6428 2.496 40.5468 2.128 40.5468 1.744C40.5468 1.136 40.7068 0.551999 41.0268 -0.00800133L43.6428 0.327999C43.5628 0.567999 43.5228 0.791999 43.5228 0.999999C43.5228 1.224 43.5948 1.4 43.7388 1.528C43.8668 1.64 44.0908 1.696 44.4108 1.696H49.5708V4.024H43.5228ZM54.2883 19.24C52.8323 19.24 51.7203 18.816 50.9523 17.968C50.1843 17.12 49.8003 15.872 49.8003 14.224V5.848H53.4003V13.6C53.4003 14.48 53.5763 15.12 53.9283 15.52C54.2803 15.92 54.7923 16.12 55.4643 16.12C56.3123 16.12 56.9683 15.8 57.4323 15.16C57.8963 14.52 58.1283 13.512 58.1283 12.136V5.848H61.7283V19H58.9923L58.6083 16.984H58.3923C58.1203 17.624 57.6483 18.16 56.9763 18.592C56.3203 19.024 55.4243 19.24 54.2883 19.24ZM66.4199 19L64.1399 5.848H67.6439L68.2919 10.48C68.3399 10.864 68.3959 11.392 68.4599 12.064C68.5399 12.72 68.6119 13.488 68.6759 14.368H68.7479C68.9559 13.488 69.1399 12.72 69.2999 12.064C69.4599 11.392 69.6039 10.84 69.7319 10.408L71.0279 5.848H73.2119L74.5079 10.408C74.6199 10.84 74.7559 11.392 74.9159 12.064C75.0919 12.72 75.2839 13.488 75.4919 14.368H75.5639C75.6439 13.488 75.7079 12.72 75.7559 12.064C75.8199 11.392 75.8839 10.864 75.9479 10.48L76.6199 5.848H80.0999L77.8439 19H74.3159L72.8039 13.648C72.6439 13.024 72.5159 12.456 72.4199 11.944C72.3239 11.432 72.2439 10.896 72.1799 10.336H72.0839C71.9879 10.896 71.8919 11.424 71.7959 11.92C71.7159 12.4 71.5799 12.976 71.3879 13.648L69.8519 19H66.4199ZM67.9164 4.024V2.512L70.3404 1.504H78.9084V4.024H67.9164ZM87.6254 19.312C85.8014 19.312 84.4174 18.912 83.4734 18.112C82.5454 17.296 82.0814 16.128 82.0814 14.608V13.672C82.0814 13.032 82.1534 12.496 82.2974 12.064C82.4574 11.616 82.6654 11.216 82.9214 10.864C83.1774 10.512 83.3854 10.2 83.5454 9.928C83.7214 9.64 83.8094 9.344 83.8094 9.04C83.8094 8.752 83.7374 8.552 83.5934 8.44C83.4494 8.312 83.2734 8.248 83.0654 8.248C82.7614 8.248 82.4094 8.344 82.0094 8.536L81.4334 6.28C81.8814 6.04 82.3614 5.88 82.8734 5.8C83.4014 5.704 83.8654 5.656 84.2654 5.656C85.3214 5.656 86.0654 5.912 86.4974 6.424C86.9454 6.92 87.1694 7.592 87.1694 8.44C87.1694 8.936 87.0974 9.376 86.9534 9.76C86.8094 10.128 86.6254 10.512 86.4014 10.912C86.1774 11.28 85.9934 11.624 85.8494 11.944C85.7054 12.264 85.6334 12.728 85.6334 13.336V14.248C85.6334 15.048 85.8014 15.624 86.1374 15.976C86.4894 16.328 86.9854 16.504 87.6254 16.504C88.3134 16.504 88.8014 16.32 89.0894 15.952C89.3934 15.584 89.5454 15.072 89.5454 14.416V12.088C89.5454 11.608 89.4334 11.232 89.2094 10.96C89.0014 10.672 88.6414 10.528 88.1294 10.528H88.0094V8.632H88.1534C88.6494 8.632 89.0174 8.496 89.2574 8.224C89.4974 7.952 89.6494 7.608 89.7134 7.192C89.7934 6.76 89.8334 6.312 89.8334 5.848H93.4094C93.4094 6.84 93.2814 7.656 93.0254 8.296C92.7694 8.92 92.3214 9.344 91.6814 9.568V9.664C92.2414 9.84 92.6174 10.144 92.8094 10.576C93.0174 11.008 93.1214 11.504 93.1214 12.064V14.512C93.1214 16.096 92.6574 17.296 91.7294 18.112C90.8014 18.912 89.4334 19.312 87.6254 19.312ZM82.1786 4.024V2.512L84.6026 1.504H93.1706V4.024H82.1786ZM100.937 19.24C99.5126 19.24 98.4006 18.952 97.6006 18.376C96.8166 17.784 96.2646 16.968 95.9446 15.928C95.6406 14.872 95.4886 13.648 95.4886 12.256C95.4886 9.936 95.8326 8.248 96.5206 7.192C97.2086 6.136 98.2326 5.608 99.5926 5.608C100.153 5.608 100.641 5.72 101.057 5.944C101.489 6.152 101.833 6.544 102.089 7.12H102.185C102.409 6.528 102.777 6.128 103.289 5.92C103.801 5.712 104.353 5.608 104.945 5.608C106.049 5.608 106.873 5.904 107.417 6.496C107.977 7.088 108.257 7.952 108.257 9.088V19H104.657V9.76C104.657 9.264 104.577 8.928 104.417 8.752C104.257 8.576 104.041 8.488 103.769 8.488C103.465 8.488 103.233 8.576 103.073 8.752C102.929 8.928 102.833 9.224 102.785 9.64H101.369C101.305 9.192 101.185 8.888 101.009 8.728C100.833 8.568 100.625 8.488 100.385 8.488C99.9686 8.488 99.6566 8.776 99.4486 9.352C99.2406 9.928 99.1366 10.904 99.1366 12.28C99.1366 13.64 99.2966 14.688 99.6166 15.424C99.9366 16.144 100.561 16.504 101.489 16.504C101.873 16.504 102.185 16.456 102.425 16.36L102.785 18.928C102.273 19.136 101.657 19.24 100.937 19.24ZM122.97 19.312C121.146 19.312 119.762 18.912 118.818 18.112C117.89 17.296 117.426 16.128 117.426 14.608V13.672C117.426 13.032 117.498 12.496 117.642 12.064C117.802 11.616 118.01 11.216 118.266 10.864C118.522 10.512 118.73 10.2 118.89 9.928C119.066 9.64 119.154 9.344 119.154 9.04C119.154 8.752 119.082 8.552 118.938 8.44C118.794 8.312 118.618 8.248 118.41 8.248C118.106 8.248 117.754 8.344 117.354 8.536L116.778 6.28C117.226 6.04 117.706 5.88 118.218 5.8C118.746 5.704 119.21 5.656 119.61 5.656C120.666 5.656 121.41 5.912 121.842 6.424C122.29 6.92 122.514 7.592 122.514 8.44C122.514 8.936 122.442 9.376 122.298 9.76C122.154 10.128 121.97 10.512 121.746 10.912C121.522 11.28 121.338 11.624 121.194 11.944C121.05 12.264 120.978 12.728 120.978 13.336V14.248C120.978 15.048 121.146 15.624 121.482 15.976C121.834 16.328 122.33 16.504 122.97 16.504C123.658 16.504 124.146 16.32 124.434 15.952C124.738 15.584 124.89 15.072 124.89 14.416V12.088C124.89 11.608 124.778 11.232 124.554 10.96C124.346 10.672 123.986 10.528 123.474 10.528H123.354V8.632H123.498C123.994 8.632 124.362 8.496 124.602 8.224C124.842 7.952 124.994 7.608 125.058 7.192C125.138 6.76 125.178 6.312 125.178 5.848H128.754C128.754 6.84 128.626 7.656 128.37 8.296C128.114 8.92 127.666 9.344 127.026 9.568V9.664C127.586 9.84 127.962 10.144 128.154 10.576C128.362 11.008 128.466 11.504 128.466 12.064V14.512C128.466 16.096 128.002 17.296 127.074 18.112C126.146 18.912 124.778 19.312 122.97 19.312ZM117.523 4.024V2.512L119.947 1.504H128.515V4.024H117.523ZM135.753 19.24C134.297 19.24 133.185 18.816 132.417 17.968C131.649 17.12 131.265 15.872 131.265 14.224V5.848H134.865V13.6C134.865 14.48 135.041 15.12 135.393 15.52C135.745 15.92 136.257 16.12 136.929 16.12C137.777 16.12 138.433 15.8 138.897 15.16C139.361 14.52 139.593 13.512 139.593 12.136V5.848H143.193V19H140.457L140.073 16.984H139.857C139.585 17.624 139.113 18.16 138.441 18.592C137.785 19.024 136.889 19.24 135.753 19.24ZM151.557 19.24C150.133 19.24 149.021 18.952 148.221 18.376C147.437 17.784 146.885 16.968 146.565 15.928C146.261 14.872 146.109 13.648 146.109 12.256C146.109 9.936 146.453 8.248 147.141 7.192C147.829 6.136 148.853 5.608 150.213 5.608C150.773 5.608 151.261 5.72 151.677 5.944C152.109 6.152 152.453 6.544 152.709 7.12H152.805C153.029 6.528 153.397 6.128 153.909 5.92C154.421 5.712 154.973 5.608 155.565 5.608C156.669 5.608 157.493 5.904 158.037 6.496C158.597 7.088 158.877 7.952 158.877 9.088V19H155.277V9.76C155.277 9.264 155.197 8.928 155.037 8.752C154.877 8.576 154.661 8.488 154.389 8.488C154.085 8.488 153.853 8.576 153.693 8.752C153.549 8.928 153.453 9.224 153.405 9.64H151.989C151.925 9.192 151.805 8.888 151.629 8.728C151.453 8.568 151.245 8.488 151.005 8.488C150.589 8.488 150.277 8.776 150.069 9.352C149.861 9.928 149.757 10.904 149.757 12.28C149.757 13.64 149.917 14.688 150.237 15.424C150.557 16.144 151.181 16.504 152.109 16.504C152.493 16.504 152.805 16.456 153.045 16.36L153.405 18.928C152.893 19.136 152.277 19.24 151.557 19.24ZM166.516 19.312C165.572 19.312 164.62 19.208 163.66 19C162.716 18.792 161.876 18.496 161.14 18.112L162.148 15.256C162.628 15.512 163.244 15.784 163.996 16.072C164.748 16.344 165.54 16.48 166.372 16.48C167.668 16.48 168.316 16.104 168.316 15.352C168.316 14.936 168.068 14.616 167.572 14.392C167.092 14.152 166.42 13.88 165.556 13.576C164.708 13.288 163.98 12.968 163.372 12.616C162.764 12.264 162.292 11.832 161.956 11.32C161.636 10.808 161.476 10.16 161.476 9.376C161.476 8.064 161.964 7.096 162.94 6.472C163.932 5.848 165.252 5.536 166.9 5.536C167.796 5.536 168.604 5.616 169.324 5.776C170.044 5.92 170.604 6.096 171.004 6.304V9.136C170.588 8.944 169.996 8.76 169.228 8.584C168.476 8.392 167.756 8.296 167.068 8.296C165.74 8.296 165.076 8.632 165.076 9.304C165.076 9.688 165.332 9.992 165.844 10.216C166.372 10.424 167.108 10.688 168.052 11.008C169.3 11.44 170.252 11.96 170.908 12.568C171.58 13.176 171.916 14.04 171.916 15.16C171.916 15.88 171.748 16.56 171.412 17.2C171.092 17.824 170.54 18.336 169.756 18.736C168.972 19.12 167.892 19.312 166.516 19.312ZM176.442 11.248C175.338 11.248 174.562 11.008 174.114 10.528C173.682 10.032 173.466 9.464 173.466 8.824C173.466 8.264 173.626 7.688 173.946 7.096L176.562 7.432C176.482 7.672 176.442 7.928 176.442 8.2C176.442 8.424 176.506 8.592 176.634 8.704C176.762 8.816 176.986 8.872 177.306 8.872H180.018V11.248H176.442ZM176.442 17.968C175.338 17.968 174.562 17.728 174.114 17.248C173.682 16.752 173.466 16.184 173.466 15.544C173.466 14.984 173.626 14.408 173.946 13.816L176.562 14.152C176.482 14.392 176.442 14.648 176.442 14.92C176.442 15.144 176.506 15.312 176.634 15.424C176.762 15.536 176.986 15.592 177.306 15.592H180.018V17.968H176.442ZM182.427 19V14.992C182.427 13.984 182.619 13.208 183.003 12.664C183.403 12.12 183.979 11.736 184.731 11.512L184.755 11.416L182.187 10.48V9.856C182.187 9.072 182.419 8.352 182.883 7.696C183.347 7.04 184.027 6.52 184.923 6.136C185.835 5.736 186.939 5.536 188.235 5.536C190.043 5.536 191.483 5.96 192.555 6.808C193.627 7.64 194.163 8.904 194.163 10.6V19H190.563V10.816C190.563 10.016 190.347 9.416 189.915 9.016C189.499 8.616 188.907 8.416 188.139 8.416C187.387 8.416 186.827 8.576 186.459 8.896C186.091 9.2 185.899 9.576 185.883 10.024L188.019 11.008L187.755 12.568C187.179 12.6 186.747 12.808 186.459 13.192C186.171 13.576 186.027 14.096 186.027 14.752V19H182.427ZM190.246 25.36C188.966 25.36 188.03 25.168 187.438 24.784C186.846 24.4 186.55 23.896 186.55 23.272V22.864C186.55 22.592 186.478 22.424 186.334 22.36C186.19 22.312 185.998 22.32 185.758 22.384L185.59 20.776C185.798 20.68 186.086 20.616 186.454 20.584C186.806 20.552 187.094 20.536 187.318 20.536C188.006 20.536 188.51 20.664 188.83 20.92C189.15 21.176 189.31 21.536 189.31 22V22.552C189.31 22.824 189.374 23.032 189.502 23.176C189.614 23.336 189.83 23.416 190.15 23.416C190.486 23.416 190.718 23.336 190.846 23.176C190.974 23.032 191.038 22.824 191.038 22.552V20.608H193.966V22.936C193.966 23.736 193.67 24.336 193.078 24.736C192.486 25.152 191.542 25.36 190.246 25.36ZM200.596 19.24C199.22 19.24 198.156 18.912 197.404 18.256C196.668 17.6 196.3 16.68 196.3 15.496C196.3 14.216 196.756 13.192 197.668 12.424C198.596 11.656 200.052 11.192 202.036 11.032L204.532 10.84V10.456C204.532 9.688 204.324 9.136 203.908 8.8C203.492 8.464 202.852 8.296 201.988 8.296C201.156 8.296 200.34 8.424 199.54 8.68C198.756 8.92 198.076 9.208 197.5 9.544V6.568C197.964 6.344 198.62 6.12 199.468 5.896C200.316 5.656 201.3 5.536 202.42 5.536C203.508 5.536 204.476 5.696 205.324 6.016C206.172 6.32 206.836 6.84 207.316 7.576C207.812 8.312 208.06 9.32 208.06 10.6V19H204.532V13.432L202.444 13.648C201.484 13.744 200.812 13.936 200.428 14.224C200.06 14.512 199.876 14.896 199.876 15.376C199.876 15.856 200.028 16.216 200.332 16.456C200.636 16.696 201.044 16.816 201.556 16.816C201.748 16.816 201.94 16.8 202.132 16.768C202.324 16.72 202.5 16.672 202.66 16.624L202.972 18.88C202.668 18.992 202.308 19.08 201.892 19.144C201.476 19.208 201.044 19.24 200.596 19.24ZM216.763 19.312C214.939 19.312 213.555 18.912 212.611 18.112C211.683 17.296 211.219 16.128 211.219 14.608V13.672C211.219 13.032 211.291 12.496 211.435 12.064C211.595 11.616 211.803 11.216 212.059 10.864C212.315 10.512 212.523 10.2 212.683 9.928C212.859 9.64 212.947 9.344 212.947 9.04C212.947 8.752 212.875 8.552 212.731 8.44C212.587 8.312 212.411 8.248 212.203 8.248C211.899 8.248 211.547 8.344 211.147 8.536L210.571 6.28C211.019 6.04 211.499 5.88 212.011 5.8C212.539 5.704 213.003 5.656 213.403 5.656C214.459 5.656 215.203 5.912 215.635 6.424C216.083 6.92 216.307 7.592 216.307 8.44C216.307 8.936 216.235 9.376 216.091 9.76C215.947 10.128 215.763 10.512 215.539 10.912C215.315 11.28 215.131 11.624 214.987 11.944C214.843 12.264 214.771 12.728 214.771 13.336V14.248C214.771 15.048 214.939 15.624 215.275 15.976C215.627 16.328 216.123 16.504 216.763 16.504C217.451 16.504 217.939 16.32 218.227 15.952C218.531 15.584 218.683 15.072 218.683 14.416V12.088C218.683 11.608 218.571 11.232 218.347 10.96C218.139 10.672 217.779 10.528 217.267 10.528H217.147V8.632H217.291C217.787 8.632 218.155 8.496 218.395 8.224C218.635 7.952 218.787 7.608 218.851 7.192C218.931 6.76 218.971 6.312 218.971 5.848H222.547C222.547 6.84 222.419 7.656 222.163 8.296C221.907 8.92 221.459 9.344 220.819 9.568V9.664C221.379 9.84 221.755 10.144 221.947 10.576C222.155 11.008 222.259 11.504 222.259 12.064V14.512C222.259 16.096 221.795 17.296 220.867 18.112C219.939 18.912 218.571 19.312 216.763 19.312ZM218.804 4.024C218.052 4.024 217.46 3.912 217.028 3.688C216.596 3.464 216.292 3.184 216.116 2.848C215.924 2.496 215.828 2.128 215.828 1.744C215.828 1.136 215.988 0.551999 216.308 -0.00800133L218.924 0.327999C218.844 0.567999 218.804 0.791999 218.804 0.999999C218.804 1.224 218.876 1.4 219.02 1.528C219.148 1.64 219.372 1.696 219.692 1.696H224.852V4.024H218.804ZM230.626 19.312C229.186 19.312 228.034 19.144 227.17 18.808C226.306 18.456 225.674 17.968 225.274 17.344C224.89 16.72 224.698 16 224.698 15.184C224.698 14.496 224.802 13.936 225.01 13.504C225.234 13.056 225.514 12.72 225.85 12.496C226.186 12.256 226.538 12.096 226.906 12.016V11.872C226.346 11.696 225.834 11.392 225.37 10.96C224.922 10.512 224.698 9.856 224.698 8.992C224.698 8.4 224.834 7.848 225.106 7.336C225.394 6.824 225.85 6.416 226.474 6.112C227.098 5.792 227.922 5.632 228.946 5.632C229.442 5.632 229.914 5.672 230.362 5.752C230.826 5.816 231.194 5.912 231.466 6.04L230.914 8.464C230.786 8.432 230.61 8.4 230.386 8.368C230.162 8.32 229.946 8.296 229.738 8.296C229.242 8.296 228.874 8.416 228.634 8.656C228.394 8.88 228.274 9.176 228.274 9.544C228.274 10.136 228.498 10.528 228.946 10.72C229.394 10.896 229.882 10.984 230.41 10.984H230.914V13.216H230.41C229.722 13.216 229.202 13.336 228.85 13.576C228.514 13.816 228.346 14.208 228.346 14.752C228.346 15.056 228.41 15.344 228.538 15.616C228.682 15.888 228.922 16.12 229.258 16.312C229.594 16.488 230.074 16.576 230.698 16.576C231.578 16.576 232.186 16.392 232.522 16.024C232.858 15.64 233.026 15.168 233.026 14.608V5.848H236.626V14.488C236.626 16.136 236.138 17.352 235.162 18.136C234.202 18.92 232.69 19.312 230.626 19.312Z" fill="#1F2883"/>
</svg>
