<svg width="253" height="46" viewBox="0 0 253 46" fill="none" xmlns="http://www.w3.org/2000/svg">
<path d="M4.54864 17.17C3.21131 17.17 2.25364 16.864 1.67564 16.252C1.09764 15.64 0.808641 14.7673 0.808641 13.634V7.684H2.32164V13.651C2.32164 15.1583 3.06397 15.912 4.54864 15.912C5.31931 15.912 5.88597 15.725 6.24864 15.351C6.62264 14.977 6.80964 14.4103 6.80964 13.651V7.684H8.32264V13.634C8.32264 14.7673 8.02797 15.64 7.43864 16.252C6.86064 16.864 5.89731 17.17 4.54864 17.17ZM13.6864 17.17C13.0177 17.17 12.3944 17.1077 11.8164 16.983C11.2497 16.847 10.7681 16.6883 10.3714 16.507L10.8134 15.283C11.1761 15.4303 11.6067 15.572 12.1054 15.708C12.6154 15.844 13.1537 15.912 13.7204 15.912C14.3211 15.912 14.8197 15.7987 15.2164 15.572C15.6131 15.3453 15.8114 15.0167 15.8114 14.586C15.8114 14.2007 15.6527 13.8833 15.3354 13.634C15.0181 13.3847 14.5081 13.1523 13.8054 12.937C13.0801 12.7103 12.4737 12.4723 11.9864 12.223C11.4991 11.9623 11.1251 11.6563 10.8644 11.305C10.6151 10.9537 10.4904 10.506 10.4904 9.962C10.4904 9.25933 10.7794 8.67567 11.3574 8.211C11.9354 7.74633 12.8591 7.514 14.1284 7.514C14.6724 7.514 15.1824 7.565 15.6584 7.667C16.1457 7.75767 16.5254 7.888 16.7974 8.058V9.333C16.5027 9.197 16.1061 9.06667 15.6074 8.942C15.1201 8.81733 14.6101 8.755 14.0774 8.755C13.3067 8.755 12.7684 8.874 12.4624 9.112C12.1564 9.33867 12.0034 9.59933 12.0034 9.894C12.0034 10.1433 12.0714 10.353 12.2074 10.523C12.3547 10.693 12.5984 10.8573 12.9384 11.016C13.2897 11.1747 13.7601 11.356 14.3494 11.56C14.8934 11.7413 15.3921 11.951 15.8454 12.189C16.2987 12.427 16.6557 12.7273 16.9164 13.09C17.1884 13.4413 17.3244 13.8947 17.3244 14.45C17.3244 14.926 17.2054 15.3737 16.9674 15.793C16.7407 16.201 16.3611 16.5353 15.8284 16.796C15.2957 17.0453 14.5817 17.17 13.6864 17.17ZM10.0843 6.205V5.542L11.3253 4.998H17.3093V6.205H10.0843ZM23.2452 17.17C21.8399 17.17 20.8425 16.8583 20.2532 16.235C19.6639 15.6003 19.3692 14.705 19.3692 13.549V7.684H20.8822V13.566C20.8822 14.3593 21.0692 14.9487 21.4432 15.334C21.8172 15.7193 22.4179 15.912 23.2452 15.912C24.0725 15.912 24.6732 15.7193 25.0472 15.334C25.4212 14.9487 25.6082 14.3593 25.6082 13.566V13.158H24.2822C23.5569 13.158 23.0582 13.005 22.7862 12.699C22.5255 12.393 22.3952 12.053 22.3952 11.679C22.3952 11.509 22.4122 11.3333 22.4462 11.152C22.4915 10.9707 22.5595 10.8177 22.6502 10.693L23.8742 10.914C23.8062 11.05 23.7722 11.2143 23.7722 11.407C23.7722 11.5543 23.8119 11.6903 23.8912 11.815C23.9819 11.9397 24.1349 12.002 24.3502 12.002H25.6082V7.684H27.1212V12.002H28.2092V13.158H27.1212V13.549C27.1212 14.705 26.8265 15.6003 26.2372 16.235C25.6479 16.8583 24.6505 17.17 23.2452 17.17ZM24.9618 6.205C24.2478 6.205 23.7435 6.06333 23.4488 5.78C23.1541 5.48533 23.0068 5.15667 23.0068 4.794C23.0068 4.624 23.0351 4.44267 23.0918 4.25C23.1371 4.046 23.1995 3.88167 23.2788 3.757L24.5538 3.978C24.4858 4.114 24.4518 4.28967 24.4518 4.505C24.4518 4.65233 24.4971 4.78267 24.5878 4.896C24.6785 4.998 24.8315 5.049 25.0468 5.049H29.3478V6.205H24.9618ZM30.2942 17V7.684H31.3482L31.6202 9.163H31.6882C31.8809 8.653 32.2322 8.25067 32.7422 7.956C33.2522 7.66133 33.8699 7.514 34.5952 7.514C35.6039 7.514 36.3972 7.77467 36.9752 8.296C37.5532 8.81733 37.8422 9.64467 37.8422 10.778V17H36.3292V10.863C36.3292 9.48033 35.6549 8.789 34.3062 8.789C33.7735 8.789 33.3202 8.91367 32.9462 9.163C32.5722 9.41233 32.2889 9.75233 32.0962 10.183C31.9035 10.6023 31.8072 11.0783 31.8072 11.611V17H30.2942ZM47.1266 17.17C46.8206 17.17 46.5259 17.119 46.2426 17.017C45.9593 16.915 45.7269 16.7337 45.5456 16.473C45.3643 16.2123 45.2736 15.8497 45.2736 15.385V7.684H46.7866V15.198C46.7866 15.4587 46.8376 15.6457 46.9396 15.759C47.0529 15.8723 47.2399 15.929 47.5006 15.929C47.6026 15.929 47.7103 15.9177 47.8236 15.895C47.9369 15.8723 48.0446 15.844 48.1466 15.81L48.3506 16.915C48.1353 17.017 47.9256 17.085 47.7216 17.119C47.5176 17.153 47.3193 17.17 47.1266 17.17ZM51.7676 17.17C51.4616 17.17 51.1669 17.119 50.8836 17.017C50.6003 16.915 50.3679 16.7337 50.1866 16.473C50.0053 16.2123 49.9146 15.8497 49.9146 15.385V7.684H51.4276V15.198C51.4276 15.4587 51.4786 15.6457 51.5806 15.759C51.6939 15.8723 51.8809 15.929 52.1416 15.929C52.2436 15.929 52.3513 15.9177 52.4646 15.895C52.5779 15.8723 52.6856 15.844 52.7876 15.81L52.9916 16.915C52.7763 17.017 52.5666 17.085 52.3626 17.119C52.1586 17.153 51.9603 17.17 51.7676 17.17ZM57.1327 17.17C56.464 17.17 55.8407 17.1077 55.2627 16.983C54.696 16.847 54.2144 16.6883 53.8177 16.507L54.2597 15.283C54.6224 15.4303 55.053 15.572 55.5517 15.708C56.0617 15.844 56.6 15.912 57.1667 15.912C57.7674 15.912 58.266 15.7987 58.6627 15.572C59.0594 15.3453 59.2577 15.0167 59.2577 14.586C59.2577 14.2007 59.099 13.8833 58.7817 13.634C58.4644 13.3847 57.9544 13.1523 57.2517 12.937C56.5264 12.7103 55.92 12.4723 55.4327 12.223C54.9454 11.9623 54.5714 11.6563 54.3107 11.305C54.0614 10.9537 53.9367 10.506 53.9367 9.962C53.9367 9.25933 54.2257 8.67567 54.8037 8.211C55.3817 7.74633 56.3054 7.514 57.5747 7.514C58.1187 7.514 58.6287 7.565 59.1047 7.667C59.592 7.75767 59.9717 7.888 60.2437 8.058V9.333C59.949 9.197 59.5524 9.06667 59.0537 8.942C58.5664 8.81733 58.0564 8.755 57.5237 8.755C56.753 8.755 56.2147 8.874 55.9087 9.112C55.6027 9.33867 55.4497 9.59933 55.4497 9.894C55.4497 10.1433 55.5177 10.353 55.6537 10.523C55.801 10.693 56.0447 10.8573 56.3847 11.016C56.736 11.1747 57.2064 11.356 57.7957 11.56C58.3397 11.7413 58.8384 11.951 59.2917 12.189C59.745 12.427 60.102 12.7273 60.3627 13.09C60.6347 13.4413 60.7707 13.8947 60.7707 14.45C60.7707 14.926 60.6517 15.3737 60.4137 15.793C60.187 16.201 59.8074 16.5353 59.2747 16.796C58.742 17.0453 58.028 17.17 57.1327 17.17ZM58.9876 6.46C58.3416 6.46 57.8939 6.19933 57.6446 5.678L56.7946 6.409C56.1599 6.409 55.6499 6.25033 55.2646 5.933C54.8679 5.60433 54.6696 5.134 54.6696 4.522C54.6696 3.876 54.8679 3.4 55.2646 3.094C55.6499 2.77667 56.0976 2.618 56.6076 2.618H60.5686V3.638H56.8286C56.5679 3.638 56.3469 3.71733 56.1656 3.876C55.9729 4.03467 55.8766 4.27267 55.8766 4.59C55.8766 4.828 55.9389 5.02633 56.0636 5.185C56.1882 5.33233 56.3979 5.406 56.6926 5.406L57.6446 4.556H57.9676C58.0129 4.80533 58.1092 5.02067 58.2566 5.202C58.3926 5.372 58.5852 5.457 58.8346 5.457C59.0499 5.457 59.2142 5.39467 59.3276 5.27C59.4296 5.14533 59.4806 4.981 59.4806 4.777V4.556H60.5856V4.794C60.5856 5.36067 60.4439 5.78 60.1606 6.052C59.8659 6.324 59.4749 6.46 58.9876 6.46ZM62.7305 17V13.77C62.7305 13.056 62.8891 12.5403 63.2065 12.223C63.5238 11.8943 63.9261 11.6677 64.4135 11.543L64.4305 11.492L62.5605 10.778V10.217C62.5605 9.75233 62.7135 9.316 63.0195 8.908C63.3255 8.48867 63.7618 8.15433 64.3285 7.905C64.8951 7.64433 65.5808 7.514 66.3855 7.514C67.0768 7.514 67.7171 7.62733 68.3065 7.854C68.8958 8.06933 69.3661 8.415 69.7175 8.891C70.0801 9.35567 70.2615 9.96767 70.2615 10.727V17H68.7485V10.88C68.7485 10.1207 68.5161 9.58233 68.0515 9.265C67.5868 8.93633 67.0258 8.772 66.3685 8.772C65.6658 8.772 65.1105 8.91933 64.7025 9.214C64.3058 9.49733 64.1075 9.86 64.1075 10.302L65.9435 11.22L65.8075 12.036C65.3881 12.036 65.0198 12.1777 64.7025 12.461C64.3965 12.733 64.2435 13.1693 64.2435 13.77V17H62.7305ZM76.2218 17.17C75.2245 17.17 74.4368 16.9093 73.8588 16.388C73.2922 15.8667 73.0088 15.0393 73.0088 13.906V7.684H74.5218V13.821C74.5218 15.2037 75.1962 15.895 76.5448 15.895C77.3382 15.895 77.9502 15.64 78.3808 15.13C78.8228 14.62 79.0438 13.9343 79.0438 13.073V7.684H80.5568V17H79.2988L79.2308 15.623H79.1458C78.9418 16.0877 78.5848 16.4617 78.0748 16.745C77.5762 17.0283 76.9585 17.17 76.2218 17.17ZM79.0316 6.205V2.618H80.5276V6.205H79.0316ZM86.0696 17V10.387C86.0696 9.83167 85.9393 9.42367 85.6786 9.163C85.4293 8.90233 85.0043 8.772 84.4036 8.772C83.9956 8.772 83.6103 8.82867 83.2476 8.942C82.8963 9.05533 82.5563 9.20267 82.2276 9.384V8.024C82.4543 7.91067 82.7773 7.79733 83.1966 7.684C83.616 7.57067 84.1146 7.514 84.6926 7.514C85.5766 7.514 86.2793 7.71233 86.8006 8.109C87.322 8.50567 87.5826 9.19133 87.5826 10.166V17H86.0696ZM92.9589 17.17C92.2902 17.17 91.6669 17.1077 91.0889 16.983C90.5222 16.847 90.0405 16.6883 89.6439 16.507L90.0859 15.283C90.4485 15.4303 90.8792 15.572 91.3779 15.708C91.8879 15.844 92.4262 15.912 92.9929 15.912C93.5935 15.912 94.0922 15.7987 94.4889 15.572C94.8855 15.3453 95.0839 15.0167 95.0839 14.586C95.0839 14.2007 94.9252 13.8833 94.6079 13.634C94.2905 13.3847 93.7805 13.1523 93.0779 12.937C92.3525 12.7103 91.7462 12.4723 91.2589 12.223C90.7715 11.9623 90.3975 11.6563 90.1369 11.305C89.8875 10.9537 89.7629 10.506 89.7629 9.962C89.7629 9.25933 90.0519 8.67567 90.6299 8.211C91.2079 7.74633 92.1315 7.514 93.4009 7.514C93.9449 7.514 94.4549 7.565 94.9309 7.667C95.4182 7.75767 95.7979 7.888 96.0699 8.058V9.333C95.7752 9.197 95.3785 9.06667 94.8799 8.942C94.3925 8.81733 93.8825 8.755 93.3499 8.755C92.5792 8.755 92.0409 8.874 91.7349 9.112C91.4289 9.33867 91.2759 9.59933 91.2759 9.894C91.2759 10.1433 91.3439 10.353 91.4799 10.523C91.6272 10.693 91.8709 10.8573 92.2109 11.016C92.5622 11.1747 93.0325 11.356 93.6219 11.56C94.1659 11.7413 94.6645 11.951 95.1179 12.189C95.5712 12.427 95.9282 12.7273 96.1889 13.09C96.4609 13.4413 96.5969 13.8947 96.5969 14.45C96.5969 14.926 96.4779 15.3737 96.2399 15.793C96.0132 16.201 95.6335 16.5353 95.1009 16.796C94.5682 17.0453 93.8542 17.17 92.9589 17.17ZM93.7937 6.698C93.7144 6.58467 93.6521 6.426 93.6067 6.222C93.5501 6.018 93.5217 5.81967 93.5217 5.627C93.5217 5.389 93.5727 5.168 93.6747 4.964C93.7767 4.74867 93.9581 4.573 94.2187 4.437C94.4681 4.301 94.8307 4.233 95.3067 4.233H97.6357V5.406H95.6977C95.4711 5.406 95.2897 5.45133 95.1537 5.542C95.0177 5.62133 94.9497 5.763 94.9497 5.967C94.9497 6.04633 94.9667 6.13133 95.0007 6.222C95.0234 6.31267 95.0574 6.40333 95.1027 6.494L93.7937 6.698ZM103.058 17V11.05C103.058 9.91667 103.358 9.044 103.959 8.432C104.571 7.82 105.551 7.514 106.9 7.514C108.248 7.514 109.223 7.82 109.824 8.432C110.436 9.044 110.742 9.91667 110.742 11.05V17H109.229V11.05C109.229 9.53133 108.447 8.772 106.883 8.772C105.341 8.772 104.571 9.53133 104.571 11.05V12.937L104.622 12.954C104.871 12.512 105.177 12.223 105.54 12.087C105.902 11.9397 106.412 11.866 107.07 11.866H107.631V13.107H107.07C106.378 13.107 105.851 13.2033 105.489 13.396C105.137 13.5887 104.894 13.8437 104.758 14.161C104.633 14.467 104.571 14.8127 104.571 15.198V17H103.058ZM116.798 17.17C115.574 17.17 114.656 16.8527 114.044 16.218C113.443 15.5833 113.143 14.5747 113.143 13.192C113.143 12.9653 113.149 12.7217 113.16 12.461C113.183 12.189 113.205 11.9227 113.228 11.662H116.798V12.852H114.656V13.192C114.656 13.9173 114.735 14.4783 114.894 14.875C115.053 15.2717 115.285 15.5493 115.591 15.708C115.908 15.8667 116.299 15.946 116.764 15.946C117.274 15.946 117.716 15.8497 118.09 15.657C118.464 15.4643 118.753 15.113 118.957 14.603C119.161 14.093 119.263 13.362 119.263 12.41C119.263 11.1633 119.048 10.2453 118.617 9.656C118.198 9.06667 117.467 8.772 116.424 8.772C115.88 8.772 115.359 8.84567 114.86 8.993C114.373 9.129 113.902 9.32733 113.449 9.588V8.177C113.789 7.99567 114.237 7.84267 114.792 7.718C115.347 7.582 115.954 7.514 116.611 7.514C117.608 7.514 118.413 7.718 119.025 8.126C119.648 8.52267 120.102 9.08933 120.385 9.826C120.668 10.5513 120.81 11.4127 120.81 12.41C120.81 13.4073 120.68 14.263 120.419 14.977C120.158 15.691 119.733 16.235 119.144 16.609C118.566 16.983 117.784 17.17 116.798 17.17ZM125.88 17.17C125.211 17.17 124.588 17.1077 124.01 16.983C123.443 16.847 122.961 16.6883 122.565 16.507L123.007 15.283C123.369 15.4303 123.8 15.572 124.299 15.708C124.809 15.844 125.347 15.912 125.914 15.912C126.514 15.912 127.013 15.7987 127.41 15.572C127.806 15.3453 128.005 15.0167 128.005 14.586C128.005 14.2007 127.846 13.8833 127.529 13.634C127.211 13.3847 126.701 13.1523 125.999 12.937C125.273 12.7103 124.667 12.4723 124.18 12.223C123.692 11.9623 123.318 11.6563 123.058 11.305C122.808 10.9537 122.684 10.506 122.684 9.962C122.684 9.25933 122.973 8.67567 123.551 8.211C124.129 7.74633 125.052 7.514 126.322 7.514C126.866 7.514 127.376 7.565 127.852 7.667C128.339 7.75767 128.719 7.888 128.991 8.058V9.333C128.696 9.197 128.299 9.06667 127.801 8.942C127.313 8.81733 126.803 8.755 126.271 8.755C125.5 8.755 124.962 8.874 124.656 9.112C124.35 9.33867 124.197 9.59933 124.197 9.894C124.197 10.1433 124.265 10.353 124.401 10.523C124.548 10.693 124.792 10.8573 125.132 11.016C125.483 11.1747 125.953 11.356 126.543 11.56C127.087 11.7413 127.585 11.951 128.039 12.189C128.492 12.427 128.849 12.7273 129.11 13.09C129.382 13.4413 129.518 13.8947 129.518 14.45C129.518 14.926 129.399 15.3737 129.161 15.793C128.934 16.201 128.554 16.5353 128.022 16.796C127.489 17.0453 126.775 17.17 125.88 17.17ZM126.715 6.698C126.635 6.58467 126.573 6.426 126.528 6.222C126.471 6.018 126.443 5.81967 126.443 5.627C126.443 5.389 126.494 5.168 126.596 4.964C126.698 4.74867 126.879 4.573 127.14 4.437C127.389 4.301 127.752 4.233 128.228 4.233H130.557V5.406H128.619C128.392 5.406 128.211 5.45133 128.075 5.542C127.939 5.62133 127.871 5.763 127.871 5.967C127.871 6.04633 127.888 6.13133 127.922 6.222C127.944 6.31267 127.978 6.40333 128.024 6.494L126.715 6.698ZM135.303 17.17C133.965 17.17 133.008 16.864 132.43 16.252C131.852 15.64 131.563 14.7673 131.563 13.634V7.684H133.076V13.651C133.076 15.1583 133.818 15.912 135.303 15.912C136.073 15.912 136.64 15.725 137.003 15.351C137.377 14.977 137.564 14.4103 137.564 13.651V4.335H139.077V13.634C139.077 14.7673 138.782 15.64 138.193 16.252C137.615 16.864 136.651 17.17 135.303 17.17ZM145.154 17.17C143.93 17.17 143.012 16.8527 142.4 16.218C141.799 15.5833 141.499 14.5747 141.499 13.192C141.499 12.9653 141.504 12.7217 141.516 12.461C141.538 12.189 141.561 11.9227 141.584 11.662H145.154V12.852H143.012V13.192C143.012 13.9173 143.091 14.4783 143.25 14.875C143.408 15.2717 143.641 15.5493 143.947 15.708C144.264 15.8667 144.655 15.946 145.12 15.946C145.63 15.946 146.072 15.8497 146.446 15.657C146.82 15.4643 147.109 15.113 147.313 14.603C147.517 14.093 147.619 13.362 147.619 12.41C147.619 11.1633 147.403 10.2453 146.973 9.656C146.553 9.06667 145.822 8.772 144.78 8.772C144.236 8.772 143.714 8.84567 143.216 8.993C142.728 9.129 142.258 9.32733 141.805 9.588V8.177C142.145 7.99567 142.592 7.84267 143.148 7.718C143.703 7.582 144.309 7.514 144.967 7.514C145.964 7.514 146.769 7.718 147.381 8.126C148.004 8.52267 148.457 9.08933 148.741 9.826C149.024 10.5513 149.166 11.4127 149.166 12.41C149.166 13.4073 149.035 14.263 148.775 14.977C148.514 15.691 148.089 16.235 147.5 16.609C146.922 16.983 146.14 17.17 145.154 17.17ZM153.725 17.17C153.419 17.17 153.125 17.119 152.841 17.017C152.558 16.915 152.326 16.7337 152.144 16.473C151.963 16.2123 151.872 15.8497 151.872 15.385V7.684H153.385V15.198C153.385 15.4587 153.436 15.6457 153.538 15.759C153.652 15.8723 153.839 15.929 154.099 15.929C154.201 15.929 154.309 15.9177 154.422 15.895C154.536 15.8723 154.643 15.844 154.745 15.81L154.949 16.915C154.734 17.017 154.524 17.085 154.32 17.119C154.116 17.153 153.918 17.17 153.725 17.17ZM159.083 17.17C158.414 17.17 157.791 17.1077 157.213 16.983C156.646 16.847 156.165 16.6883 155.768 16.507L156.21 15.283C156.573 15.4303 157.003 15.572 157.502 15.708C158.012 15.844 158.55 15.912 159.117 15.912C159.718 15.912 160.216 15.7987 160.613 15.572C161.01 15.3453 161.208 15.0167 161.208 14.586C161.208 14.2007 161.049 13.8833 160.732 13.634C160.415 13.3847 159.905 13.1523 159.202 12.937C158.477 12.7103 157.87 12.4723 157.383 12.223C156.896 11.9623 156.522 11.6563 156.261 11.305C156.012 10.9537 155.887 10.506 155.887 9.962C155.887 9.25933 156.176 8.67567 156.754 8.211C157.332 7.74633 158.256 7.514 159.525 7.514C160.069 7.514 160.579 7.565 161.055 7.667C161.542 7.75767 161.922 7.888 162.194 8.058V9.333C161.899 9.197 161.503 9.06667 161.004 8.942C160.517 8.81733 160.007 8.755 159.474 8.755C158.703 8.755 158.165 8.874 157.859 9.112C157.553 9.33867 157.4 9.59933 157.4 9.894C157.4 10.1433 157.468 10.353 157.604 10.523C157.751 10.693 157.995 10.8573 158.335 11.016C158.686 11.1747 159.157 11.356 159.746 11.56C160.29 11.7413 160.789 11.951 161.242 12.189C161.695 12.427 162.052 12.7273 162.313 13.09C162.585 13.4413 162.721 13.8947 162.721 14.45C162.721 14.926 162.602 15.3737 162.364 15.793C162.137 16.201 161.758 16.5353 161.225 16.796C160.692 17.0453 159.978 17.17 159.083 17.17ZM168.064 17.17C166.987 17.17 166.154 16.915 165.565 16.405C164.987 15.8837 164.698 15.1073 164.698 14.076V13.039C164.698 12.4837 164.777 12.0417 164.936 11.713C165.094 11.373 165.264 11.084 165.446 10.846C165.638 10.5967 165.803 10.3757 165.939 10.183C166.086 9.979 166.16 9.741 166.16 9.469C166.16 9.231 166.097 9.061 165.973 8.959C165.859 8.857 165.712 8.806 165.531 8.806C165.395 8.806 165.247 8.82867 165.089 8.874C164.941 8.91933 164.794 8.976 164.647 9.044L164.307 7.956C164.511 7.82 164.76 7.72367 165.055 7.667C165.361 7.61033 165.627 7.582 165.854 7.582C166.477 7.582 166.919 7.74633 167.18 8.075C167.452 8.39233 167.588 8.80033 167.588 9.299C167.588 9.71833 167.514 10.064 167.367 10.336C167.231 10.608 167.066 10.8743 166.874 11.135C166.681 11.4183 166.522 11.6903 166.398 11.951C166.273 12.2117 166.211 12.5517 166.211 12.971V13.974C166.211 14.4953 166.296 14.8977 166.466 15.181C166.636 15.4643 166.862 15.6627 167.146 15.776C167.429 15.878 167.735 15.929 168.064 15.929C169.22 15.929 169.798 15.385 169.798 14.297V11.917C169.798 11.4977 169.701 11.1803 169.509 10.965C169.316 10.7383 169.004 10.625 168.574 10.625H168.506V9.656H168.591C169.055 9.656 169.384 9.54833 169.577 9.333C169.769 9.11767 169.883 8.857 169.917 8.551C169.962 8.245 169.985 7.956 169.985 7.684H171.498C171.498 8.28467 171.424 8.80033 171.277 9.231C171.129 9.65033 170.795 9.95067 170.274 10.132V10.2C170.58 10.2907 170.806 10.4267 170.954 10.608C171.101 10.7893 171.197 10.999 171.243 11.237C171.288 11.4637 171.311 11.6847 171.311 11.9V14.382C171.311 15.2547 171.039 15.9403 170.495 16.439C169.951 16.9263 169.14 17.17 168.064 17.17ZM169.346 6.205C168.632 6.205 168.127 6.06333 167.833 5.78C167.538 5.48533 167.391 5.15667 167.391 4.794C167.391 4.624 167.419 4.44267 167.476 4.25C167.521 4.046 167.583 3.88167 167.663 3.757L168.938 3.978C168.87 4.114 168.836 4.28967 168.836 4.505C168.836 4.65233 168.881 4.78267 168.972 4.896C169.062 4.998 169.215 5.049 169.431 5.049H173.732V6.205H169.346ZM170.591 3.618V0.846999H172.036V3.618H170.591ZM177.325 17.17C176.328 17.17 175.54 16.9093 174.962 16.388C174.396 15.8667 174.112 15.0393 174.112 13.906V7.684H175.625V13.821C175.625 15.2037 176.3 15.895 177.648 15.895C178.442 15.895 179.054 15.64 179.484 15.13C179.926 14.62 180.147 13.9343 180.147 13.073V7.684H181.66V17H180.402L180.334 15.623H180.249C180.045 16.0877 179.688 16.4617 179.178 16.745C178.68 17.0283 178.062 17.17 177.325 17.17ZM190.076 17V12.852H188.784V11.662H191.521V15.776H191.742C192.501 15.776 193.074 15.5153 193.459 14.994C193.844 14.4613 194.037 13.566 194.037 12.308C194.037 11.05 193.822 10.149 193.391 9.605C192.96 9.04967 192.224 8.772 191.181 8.772C190.648 8.772 190.133 8.84567 189.634 8.993C189.147 9.129 188.676 9.34433 188.223 9.639V8.228C188.563 8.024 189.011 7.854 189.566 7.718C190.121 7.582 190.722 7.514 191.368 7.514C192.399 7.514 193.221 7.70667 193.833 8.092C194.456 8.466 194.904 9.01 195.176 9.724C195.448 10.438 195.584 11.305 195.584 12.325C195.584 13.311 195.448 14.1553 195.176 14.858C194.915 15.5493 194.485 16.082 193.884 16.456C193.295 16.8187 192.501 17 191.504 17H190.076ZM194.054 6.613C193.488 6.613 193.04 6.48267 192.711 6.222C192.383 5.95 192.218 5.57033 192.218 5.083C192.218 4.59567 192.383 4.22167 192.711 3.961C193.04 3.689 193.488 3.553 194.054 3.553C194.621 3.553 195.074 3.689 195.414 3.961C195.754 4.22167 195.924 4.59567 195.924 5.083C195.924 5.57033 195.754 5.95 195.414 6.222C195.074 6.48267 194.621 6.613 194.054 6.613ZM194.054 5.814C194.326 5.814 194.536 5.746 194.683 5.61C194.819 5.474 194.887 5.29833 194.887 5.083C194.887 4.86767 194.819 4.692 194.683 4.556C194.536 4.42 194.326 4.352 194.054 4.352C193.794 4.352 193.595 4.42 193.459 4.556C193.312 4.692 193.238 4.86767 193.238 5.083C193.238 5.29833 193.312 5.474 193.459 5.61C193.595 5.746 193.794 5.814 194.054 5.814ZM200.637 17V10.387C200.637 9.83167 200.507 9.42367 200.246 9.163C199.997 8.90233 199.572 8.772 198.971 8.772C198.563 8.772 198.178 8.82867 197.815 8.942C197.464 9.05533 197.124 9.20267 196.795 9.384V8.024C197.022 7.91067 197.345 7.79733 197.764 7.684C198.183 7.57067 198.682 7.514 199.26 7.514C200.144 7.514 200.847 7.71233 201.368 8.109C201.889 8.50567 202.15 9.19133 202.15 10.166V17H200.637ZM204.823 17V13.77C204.823 13.056 204.982 12.5403 205.299 12.223C205.617 11.8943 206.019 11.6677 206.506 11.543L206.523 11.492L204.653 10.778V10.217C204.653 9.75233 204.806 9.316 205.112 8.908C205.418 8.48867 205.855 8.15433 206.421 7.905C206.988 7.64433 207.674 7.514 208.478 7.514C209.17 7.514 209.81 7.62733 210.399 7.854C210.989 8.06933 211.459 8.415 211.81 8.891C212.173 9.35567 212.354 9.96767 212.354 10.727V17H210.841V10.88C210.841 10.1207 210.609 9.58233 210.144 9.265C209.68 8.93633 209.119 8.772 208.461 8.772C207.759 8.772 207.203 8.91933 206.795 9.214C206.399 9.49733 206.2 9.86 206.2 10.302L208.036 11.22L207.9 12.036C207.481 12.036 207.113 12.1777 206.795 12.461C206.489 12.733 206.336 13.1693 206.336 13.77V17H204.823ZM210.019 6.205C209.305 6.205 208.801 6.06333 208.506 5.78C208.212 5.48533 208.064 5.15667 208.064 4.794C208.064 4.624 208.093 4.44267 208.149 4.25C208.195 4.046 208.257 3.88167 208.336 3.757L209.611 3.978C209.543 4.114 209.509 4.28967 209.509 4.505C209.509 4.65233 209.555 4.78267 209.645 4.896C209.736 4.998 209.889 5.049 210.104 5.049H214.405V6.205H210.019ZM218.281 17.17C217.374 17.17 216.66 16.9603 216.139 16.541C215.629 16.1103 215.266 15.538 215.051 14.824C214.847 14.0987 214.745 13.294 214.745 12.41C214.745 11.1293 214.92 10.1377 215.272 9.435C215.623 8.721 216.11 8.22233 216.734 7.939C217.357 7.65567 218.088 7.514 218.927 7.514C220.287 7.514 221.273 7.80867 221.885 8.398C222.508 8.98733 222.82 9.78633 222.82 10.795V17H221.324V10.931C221.324 10.2397 221.148 9.707 220.797 9.333C220.445 8.959 219.839 8.772 218.978 8.772C218.445 8.772 217.975 8.86833 217.567 9.061C217.159 9.25367 216.836 9.61067 216.598 10.132C216.371 10.6533 216.258 11.4183 216.258 12.427C216.258 13.0843 216.32 13.6793 216.445 14.212C216.581 14.7333 216.813 15.147 217.142 15.453C217.47 15.759 217.929 15.912 218.519 15.912C218.689 15.912 218.847 15.9007 218.995 15.878C219.142 15.8553 219.284 15.8213 219.42 15.776L219.573 16.949C219.391 17.0283 219.182 17.085 218.944 17.119C218.717 17.153 218.496 17.17 218.281 17.17ZM232.101 17.17C231.795 17.17 231.501 17.119 231.217 17.017C230.934 16.915 230.702 16.7337 230.52 16.473C230.339 16.2123 230.248 15.8497 230.248 15.385V7.684H231.761V15.198C231.761 15.4587 231.812 15.6457 231.914 15.759C232.028 15.8723 232.215 15.929 232.475 15.929C232.577 15.929 232.685 15.9177 232.798 15.895C232.912 15.8723 233.019 15.844 233.121 15.81L233.325 16.915C233.11 17.017 232.9 17.085 232.696 17.119C232.492 17.153 232.294 17.17 232.101 17.17ZM236.742 17.17C236.436 17.17 236.142 17.119 235.858 17.017C235.575 16.915 235.343 16.7337 235.161 16.473C234.98 16.2123 234.889 15.8497 234.889 15.385V7.684H236.402V15.198C236.402 15.4587 236.453 15.6457 236.555 15.759C236.669 15.8723 236.856 15.929 237.116 15.929C237.218 15.929 237.326 15.9177 237.439 15.895C237.553 15.8723 237.66 15.844 237.762 15.81L237.966 16.915C237.751 17.017 237.541 17.085 237.337 17.119C237.133 17.153 236.935 17.17 236.742 17.17ZM242.022 17.17C241.025 17.17 240.26 16.9433 239.727 16.49C239.206 16.0253 238.945 15.3623 238.945 14.501C238.945 13.5603 239.285 12.835 239.965 12.325C240.657 11.815 241.773 11.5147 243.314 11.424L244.946 11.322V10.795C244.946 10.0583 244.776 9.537 244.436 9.231C244.108 8.91367 243.552 8.755 242.77 8.755C242.204 8.755 241.66 8.83433 241.138 8.993C240.617 9.14033 240.13 9.35 239.676 9.622V8.211C239.994 8.041 240.436 7.88233 241.002 7.735C241.569 7.58767 242.204 7.514 242.906 7.514C244.096 7.514 244.98 7.77467 245.558 8.296C246.148 8.806 246.442 9.61067 246.442 10.71V17H244.946V12.58L243.518 12.682C242.362 12.7613 241.563 12.9427 241.121 13.226C240.691 13.5093 240.475 13.923 240.475 14.467C240.475 14.977 240.634 15.351 240.951 15.589C241.28 15.827 241.733 15.946 242.311 15.946C242.685 15.946 243.014 15.895 243.297 15.793L243.535 16.932C243.32 17.0227 243.082 17.085 242.821 17.119C242.572 17.153 242.306 17.17 242.022 17.17ZM250.425 11.152C249.723 11.152 249.224 11.0047 248.929 10.71C248.635 10.404 248.487 10.064 248.487 9.69C248.487 9.30467 248.578 8.976 248.759 8.704L250.034 8.908C250.012 8.96467 249.983 9.044 249.949 9.146C249.927 9.248 249.915 9.35 249.915 9.452C249.915 9.59933 249.955 9.724 250.034 9.826C250.114 9.91667 250.261 9.962 250.476 9.962H252.907V11.152H250.425ZM250.425 15.912C249.723 15.912 249.224 15.7647 248.929 15.47C248.635 15.164 248.487 14.824 248.487 14.45C248.487 14.0647 248.578 13.736 248.759 13.464L250.034 13.668C250.012 13.7247 249.983 13.804 249.949 13.906C249.927 14.008 249.915 14.11 249.915 14.212C249.915 14.3593 249.955 14.484 250.034 14.586C250.114 14.6767 250.261 14.722 250.476 14.722H252.907V15.912H250.425ZM20.4918 41V33.333C20.4918 32.8457 20.5881 32.4717 20.7808 32.211C20.9735 31.9503 21.2228 31.769 21.5288 31.667C21.8348 31.565 22.1635 31.514 22.5148 31.514C22.6395 31.514 22.7981 31.531 22.9908 31.565C23.1948 31.599 23.3705 31.65 23.5178 31.718L23.3308 32.857C23.2175 32.823 23.1041 32.8003 22.9908 32.789C22.8775 32.7663 22.7868 32.755 22.7188 32.755C22.4355 32.755 22.2371 32.823 22.1238 32.959C22.0218 33.095 21.9708 33.2877 21.9708 33.537V36.172C21.9708 36.5233 21.9651 36.8917 21.9538 37.277C21.9538 37.651 21.9368 38.1043 21.9028 38.637H21.9708C22.1861 38.1497 22.3901 37.736 22.5828 37.396C22.7868 37.056 22.9738 36.7387 23.1438 36.444L24.0448 34.914H24.9968L25.8978 36.444C26.1585 36.8973 26.3795 37.2883 26.5608 37.617C26.7421 37.9457 26.9121 38.2857 27.0708 38.637H27.1388C27.1048 38.1043 27.0821 37.651 27.0708 37.277C27.0708 36.8917 27.0708 36.5233 27.0708 36.172V31.684H28.5498V41H27.2068L24.5718 36.546H24.5038L21.8348 41H20.4918ZM26.3468 45.505C25.6102 45.505 25.0548 45.3577 24.6808 45.063C24.3068 44.7797 24.1198 44.3717 24.1198 43.839V43.55C24.1198 43.3687 24.0745 43.2553 23.9838 43.21C23.8818 43.1647 23.7458 43.1647 23.5758 43.21L23.4738 42.19C23.6325 42.1447 23.7912 42.1163 23.9498 42.105C24.0972 42.0937 24.2105 42.088 24.2898 42.088C24.6978 42.088 24.9925 42.1787 25.1738 42.36C25.3438 42.5413 25.4288 42.7963 25.4288 43.125V43.703C25.4288 43.9183 25.4968 44.0997 25.6328 44.247C25.7688 44.3943 26.0012 44.468 26.3298 44.468C26.6698 44.468 26.9078 44.3943 27.0438 44.247C27.1685 44.0997 27.2308 43.9183 27.2308 43.703V42.139H28.5568V43.788C28.5568 44.9327 27.8202 45.505 26.3468 45.505ZM23.8138 30.205V29.457C24.0405 29.4117 24.2728 29.3493 24.5108 29.27C24.7488 29.1793 24.9472 29.066 25.1058 28.93C25.2645 28.794 25.3438 28.6183 25.3438 28.403C25.3438 28.267 25.3042 28.1537 25.2248 28.063C25.1342 27.961 24.9982 27.91 24.8168 27.91C24.6922 27.91 24.5732 27.9327 24.4598 27.978C24.3465 28.0233 24.2445 28.063 24.1538 28.097L23.8138 27.162C24.0405 26.9807 24.2955 26.8617 24.5788 26.805C24.8508 26.7483 25.0718 26.72 25.2418 26.72C25.6952 26.72 26.0522 26.8447 26.3128 27.094C26.5622 27.3433 26.6868 27.6607 26.6868 28.046C26.6868 28.2387 26.6528 28.42 26.5848 28.59C26.5168 28.7487 26.4318 28.8903 26.3298 29.015H29.0838V30.205H23.8138ZM31.3452 41V37.77C31.3452 37.056 31.5039 36.5403 31.8212 36.223C32.1386 35.8943 32.5409 35.6677 33.0282 35.543L33.0452 35.492L31.1752 34.778V34.217C31.1752 33.7523 31.3282 33.316 31.6342 32.908C31.9402 32.4887 32.3766 32.1543 32.9432 31.905C33.5099 31.6443 34.1956 31.514 35.0002 31.514C35.6916 31.514 36.3319 31.6273 36.9212 31.854C37.5106 32.0693 37.9809 32.415 38.3322 32.891C38.6949 33.3557 38.8762 33.9677 38.8762 34.727V41H37.3632V34.88C37.3632 34.1207 37.1309 33.5823 36.6662 33.265C36.2016 32.9363 35.6406 32.772 34.9832 32.772C34.2806 32.772 33.7252 32.9193 33.3172 33.214C32.9206 33.4973 32.7222 33.86 32.7222 34.302L34.5582 35.22L34.4222 36.036C34.0029 36.036 33.6346 36.1777 33.3172 36.461C33.0112 36.733 32.8582 37.1693 32.8582 37.77V41H31.3452ZM37.1874 30.205V26.618H38.6834V30.205H37.1874ZM44.9216 41.17C43.6976 41.17 42.7796 40.8527 42.1676 40.218C41.5669 39.5833 41.2666 38.5747 41.2666 37.192C41.2666 36.9653 41.2722 36.7217 41.2836 36.461C41.3062 36.189 41.3289 35.9227 41.3516 35.662H44.9216V36.852H42.7796V37.192C42.7796 37.9173 42.8589 38.4783 43.0176 38.875C43.1762 39.2717 43.4086 39.5493 43.7146 39.708C44.0319 39.8667 44.4229 39.946 44.8876 39.946C45.3976 39.946 45.8396 39.8497 46.2136 39.657C46.5876 39.4643 46.8766 39.113 47.0806 38.603C47.2846 38.093 47.3866 37.362 47.3866 36.41C47.3866 35.1633 47.1712 34.2453 46.7406 33.656C46.3212 33.0667 45.5902 32.772 44.5476 32.772C44.0036 32.772 43.4822 32.8457 42.9836 32.993C42.4962 33.129 42.0259 33.3273 41.5726 33.588V32.177C41.9126 31.9957 42.3602 31.8427 42.9156 31.718C43.4709 31.582 44.0772 31.514 44.7346 31.514C45.7319 31.514 46.5366 31.718 47.1486 32.126C47.7719 32.5227 48.2252 33.0893 48.5086 33.826C48.7919 34.5513 48.9336 35.4127 48.9336 36.41C48.9336 37.4073 48.8032 38.263 48.5426 38.977C48.2819 39.691 47.8569 40.235 47.2676 40.609C46.6896 40.983 45.9076 41.17 44.9216 41.17ZM54.6833 41.17C53.7313 41.17 52.9946 40.9547 52.4733 40.524C51.952 40.082 51.5893 39.487 51.3853 38.739C51.1813 37.9797 51.0793 37.1183 51.0793 36.155C51.0793 34.5003 51.3116 33.316 51.7763 32.602C52.2523 31.8767 52.9323 31.514 53.8163 31.514C54.213 31.514 54.5473 31.582 54.8193 31.718C55.1026 31.854 55.301 32.0807 55.4143 32.398H55.4823C55.5956 32.0807 55.7996 31.854 56.0943 31.718C56.389 31.582 56.7346 31.514 57.1313 31.514C57.868 31.514 58.4346 31.7123 58.8313 32.109C59.2393 32.5057 59.4433 33.1007 59.4433 33.894V41H57.9303V33.911C57.9303 33.469 57.834 33.1687 57.6413 33.01C57.4486 32.8513 57.205 32.772 56.9103 32.772C56.5816 32.772 56.338 32.8513 56.1793 33.01C56.032 33.1687 55.9413 33.4293 55.9073 33.792H54.9553C54.91 33.3953 54.791 33.129 54.5983 32.993C54.4056 32.8457 54.1903 32.772 53.9523 32.772C53.499 32.772 53.159 33.0383 52.9323 33.571C52.7056 34.1037 52.5923 34.9707 52.5923 36.172C52.5923 36.954 52.649 37.6283 52.7623 38.195C52.887 38.7503 53.1136 39.1753 53.4423 39.47C53.771 39.7647 54.247 39.912 54.8703 39.912C55.097 39.912 55.284 39.9007 55.4313 39.878C55.5786 39.8553 55.7203 39.827 55.8563 39.793L56.0093 40.949C55.8393 41.0283 55.6353 41.085 55.3973 41.119C55.1593 41.153 54.9213 41.17 54.6833 41.17ZM57.0775 30.205C56.3635 30.205 55.8592 30.0633 55.5645 29.78C55.2698 29.4853 55.1225 29.1567 55.1225 28.794C55.1225 28.624 55.1508 28.4427 55.2075 28.25C55.2528 28.046 55.3152 27.8817 55.3945 27.757L56.6695 27.978C56.6015 28.114 56.5675 28.2897 56.5675 28.505C56.5675 28.6523 56.6128 28.7827 56.7035 28.896C56.7942 28.998 56.9472 29.049 57.1625 29.049H61.4635V30.205H57.0775ZM56.8782 27.618V27.023C57.1048 26.9663 57.3485 26.8757 57.6092 26.751C57.8585 26.6263 57.9832 26.4393 57.9832 26.19C57.9832 25.9293 57.8528 25.799 57.5922 25.799C57.4108 25.799 57.2238 25.8557 57.0312 25.969L56.7252 25.187C56.9292 25.051 57.1615 24.9603 57.4222 24.915C57.6715 24.8697 57.8698 24.847 58.0172 24.847C58.3118 24.847 58.5782 24.9263 58.8162 25.085C59.0542 25.2323 59.1732 25.4873 59.1732 25.85C59.1732 25.9407 59.1618 26.0427 59.1392 26.156C59.1165 26.2693 59.0768 26.377 59.0202 26.479H61.1622V27.618H56.8782ZM63.7229 41L60.8159 31.684H62.3459L64.8619 39.691H65.0659C65.3379 39.691 65.6043 39.6287 65.8649 39.504C66.1256 39.368 66.3466 39.198 66.5279 38.994C66.8679 38.62 67.1173 38.1497 67.2759 37.583C67.4346 37.005 67.5139 36.4383 67.5139 35.883C67.5139 34.9423 67.2986 34.2057 66.8679 33.673C66.4486 33.129 65.8649 32.857 65.1169 32.857C64.8109 32.857 64.5503 32.8967 64.3349 32.976L63.9609 31.769C64.1989 31.701 64.4199 31.6557 64.6239 31.633C64.8393 31.6103 65.0319 31.599 65.2019 31.599C66.3126 31.599 67.2023 31.922 67.8709 32.568C68.2676 32.9533 68.5566 33.435 68.7379 34.013C68.9306 34.591 69.0269 35.2313 69.0269 35.934C69.0269 36.818 68.8909 37.6057 68.6189 38.297C68.3469 38.977 68.0069 39.521 67.5989 39.929C67.2703 40.2577 66.8679 40.5183 66.3919 40.711C65.9159 40.9037 65.3096 41 64.5729 41H63.7229ZM78.8508 39.946C79.0775 39.946 79.3098 39.929 79.5478 39.895C79.7858 39.861 79.9785 39.8157 80.1258 39.759V40.898C79.9671 40.9773 79.7405 41.0397 79.4458 41.085C79.1511 41.1417 78.8678 41.17 78.5958 41.17C78.1198 41.17 77.6778 41.0907 77.2698 40.932C76.8731 40.762 76.5501 40.473 76.3008 40.065C76.0515 39.657 75.9268 39.0847 75.9268 38.348V33.044H74.6348V32.33L75.9438 31.735L76.5388 29.797H77.4228V31.888H80.0578V33.044H77.4228V38.314C77.4228 38.8693 77.5531 39.283 77.8138 39.555C78.0858 39.8157 78.4315 39.946 78.8508 39.946ZM81.1854 37.107V35.781H85.2994V37.107H81.1854ZM91.6789 31.718C91.8489 31.718 92.0302 31.7293 92.2229 31.752C92.4156 31.7633 92.5912 31.786 92.7499 31.82L92.5629 33.197C92.4156 33.163 92.2512 33.1347 92.0699 33.112C91.8886 33.0893 91.7242 33.078 91.5769 33.078C91.1122 33.078 90.6759 33.2083 90.2679 33.469C89.8599 33.7183 89.5312 34.0753 89.2819 34.54C89.0439 34.9933 88.9249 35.526 88.9249 36.138V41H87.4289V31.888H88.6529L88.8229 33.554H88.8909C89.1742 33.0553 89.5482 32.6247 90.0129 32.262C90.4889 31.8993 91.0442 31.718 91.6789 31.718ZM97.6383 31.718C98.409 31.718 99.0777 31.888 99.6443 32.228C100.211 32.568 100.642 33.0497 100.936 33.673C101.242 34.285 101.395 35.0047 101.395 35.832V36.733H95.1563C95.179 37.7643 95.4396 38.552 95.9383 39.096C96.4483 39.6287 97.1566 39.895 98.0633 39.895C98.6413 39.895 99.1513 39.844 99.5933 39.742C100.047 39.6287 100.511 39.47 100.987 39.266V40.575C100.523 40.779 100.064 40.9263 99.6103 41.017C99.157 41.119 98.6187 41.17 97.9953 41.17C97.1227 41.17 96.3576 40.9943 95.7003 40.643C95.043 40.2917 94.5273 39.7703 94.1533 39.079C93.7906 38.3877 93.6093 37.532 93.6093 36.512C93.6093 35.5147 93.7736 34.659 94.1023 33.945C94.4423 33.231 94.9126 32.6813 95.5133 32.296C96.1253 31.9107 96.8337 31.718 97.6383 31.718ZM97.6213 32.942C96.9073 32.942 96.3406 33.1743 95.9213 33.639C95.5133 34.0923 95.2696 34.727 95.1903 35.543H99.8313C99.82 34.7723 99.6387 34.149 99.2873 33.673C98.936 33.1857 98.3806 32.942 97.6213 32.942ZM106.945 31.718C107.546 31.718 108.084 31.8313 108.56 32.058C109.047 32.2847 109.461 32.6303 109.801 33.095H109.886L110.09 31.888H111.28V41.153C111.28 42.4563 110.946 43.4367 110.277 44.094C109.62 44.7513 108.594 45.08 107.2 45.08C105.863 45.08 104.769 44.8873 103.919 44.502V43.125C104.814 43.601 105.936 43.839 107.285 43.839C108.067 43.839 108.679 43.6067 109.121 43.142C109.574 42.6887 109.801 42.0653 109.801 41.272V40.915C109.801 40.779 109.807 40.5863 109.818 40.337C109.829 40.0763 109.841 39.895 109.852 39.793H109.784C109.172 40.711 108.231 41.17 106.962 41.17C105.783 41.17 104.86 40.7563 104.191 39.929C103.534 39.1017 103.205 37.9457 103.205 36.461C103.205 35.0103 103.534 33.86 104.191 33.01C104.86 32.1487 105.778 31.718 106.945 31.718ZM107.149 32.976C106.39 32.976 105.8 33.282 105.381 33.894C104.962 34.4947 104.752 35.356 104.752 36.478C104.752 37.6 104.956 38.4613 105.364 39.062C105.772 39.6513 106.378 39.946 107.183 39.946C108.101 39.946 108.77 39.7023 109.189 39.215C109.608 38.7163 109.818 37.9173 109.818 36.818V36.461C109.818 35.2257 109.603 34.336 109.172 33.792C108.741 33.248 108.067 32.976 107.149 32.976ZM122.007 28.862C123.594 28.862 124.75 29.1737 125.475 29.797C126.2 30.4203 126.563 31.2987 126.563 32.432C126.563 33.1007 126.41 33.7297 126.104 34.319C125.809 34.897 125.305 35.3673 124.591 35.73C123.888 36.0927 122.931 36.274 121.718 36.274H120.324V41H118.794V28.862H122.007ZM121.871 30.171H120.324V34.965H121.548C122.704 34.965 123.565 34.778 124.132 34.404C124.699 34.03 124.982 33.3953 124.982 32.5C124.982 31.718 124.727 31.1343 124.217 30.749C123.718 30.3637 122.936 30.171 121.871 30.171ZM138.811 34.812C138.811 36.8633 138.25 38.4103 137.128 39.453C136.017 40.4843 134.465 41 132.47 41H129.087V28.862H132.827C134.04 28.862 135.094 29.0887 135.989 29.542C136.896 29.9953 137.593 30.664 138.08 31.548C138.567 32.432 138.811 33.52 138.811 34.812ZM137.196 34.863C137.196 33.2423 136.794 32.058 135.989 31.31C135.196 30.5507 134.068 30.171 132.606 30.171H130.617V39.691H132.266C135.553 39.691 137.196 38.0817 137.196 34.863ZM144.718 28.862C146.305 28.862 147.461 29.1737 148.186 29.797C148.911 30.4203 149.274 31.2987 149.274 32.432C149.274 33.1007 149.121 33.7297 148.815 34.319C148.52 34.897 148.016 35.3673 147.302 35.73C146.599 36.0927 145.642 36.274 144.429 36.274H143.035V41H141.505V28.862H144.718ZM144.582 30.171H143.035V34.965H144.259C145.415 34.965 146.276 34.778 146.843 34.404C147.41 34.03 147.693 33.3953 147.693 32.5C147.693 31.718 147.438 31.1343 146.928 30.749C146.429 30.3637 145.647 30.171 144.582 30.171ZM158.567 41L157.105 37.243H152.294L150.849 41H149.302L154.045 28.811H155.422L160.148 41H158.567ZM156.646 35.883L155.286 32.211C155.252 32.1203 155.196 31.956 155.116 31.718C155.037 31.48 154.958 31.2363 154.878 30.987C154.81 30.7263 154.754 30.528 154.708 30.392C154.618 30.7433 154.521 31.089 154.419 31.429C154.329 31.7577 154.249 32.0183 154.181 32.211L152.804 35.883H156.646ZM169.438 28.862C171.024 28.862 172.18 29.1737 172.906 29.797C173.631 30.4203 173.994 31.2987 173.994 32.432C173.994 33.1007 173.841 33.7297 173.535 34.319C173.24 34.897 172.736 35.3673 172.022 35.73C171.319 36.0927 170.361 36.274 169.149 36.274H167.755V41H166.225V28.862H169.438ZM169.302 30.171H167.755V34.965H168.979C170.135 34.965 170.996 34.778 171.563 34.404C172.129 34.03 172.413 33.3953 172.413 32.5C172.413 31.718 172.158 31.1343 171.648 30.749C171.149 30.3637 170.367 30.171 169.302 30.171ZM177.81 41H176.314V28.08H177.81V41ZM184.147 31.735C185.258 31.735 186.08 31.9787 186.612 32.466C187.145 32.9533 187.411 33.7297 187.411 34.795V41H186.323L186.034 39.708H185.966C185.57 40.2067 185.15 40.575 184.708 40.813C184.266 41.051 183.666 41.17 182.906 41.17C182.079 41.17 181.393 40.9547 180.849 40.524C180.305 40.082 180.033 39.3963 180.033 38.467C180.033 37.5603 180.39 36.8633 181.104 36.376C181.818 35.8773 182.918 35.6053 184.402 35.56L185.949 35.509V34.965C185.949 34.2057 185.785 33.6787 185.456 33.384C185.128 33.0893 184.663 32.942 184.062 32.942C183.586 32.942 183.133 33.0157 182.702 33.163C182.272 33.299 181.869 33.4577 181.495 33.639L181.036 32.517C181.433 32.3017 181.903 32.1203 182.447 31.973C182.991 31.8143 183.558 31.735 184.147 31.735ZM185.932 36.546L184.589 36.597C183.456 36.6423 182.668 36.8237 182.226 37.141C181.796 37.4583 181.58 37.906 181.58 38.484C181.58 38.994 181.733 39.368 182.039 39.606C182.357 39.844 182.759 39.963 183.246 39.963C184.006 39.963 184.64 39.7533 185.15 39.334C185.672 38.9033 185.932 38.246 185.932 37.362V36.546ZM193.269 39.946C193.495 39.946 193.728 39.929 193.966 39.895C194.204 39.861 194.396 39.8157 194.544 39.759V40.898C194.385 40.9773 194.158 41.0397 193.864 41.085C193.569 41.1417 193.286 41.17 193.014 41.17C192.538 41.17 192.096 41.0907 191.688 40.932C191.291 40.762 190.968 40.473 190.719 40.065C190.469 39.657 190.345 39.0847 190.345 38.348V33.044H189.053V32.33L190.362 31.735L190.957 29.797H191.841V31.888H194.476V33.044H191.841V38.314C191.841 38.8693 191.971 39.283 192.232 39.555C192.504 39.8157 192.849 39.946 193.269 39.946ZM200.567 33.044H198.272V41H196.776V33.044H195.178V32.347L196.776 31.837V31.31C196.776 30.1313 197.031 29.287 197.541 28.777C198.063 28.2557 198.794 27.995 199.734 27.995C200.086 27.995 200.414 28.029 200.72 28.097C201.026 28.1537 201.287 28.2217 201.502 28.301L201.111 29.474C200.93 29.4173 200.72 29.3607 200.482 29.304C200.244 29.2473 200.001 29.219 199.751 29.219C199.253 29.219 198.879 29.389 198.629 29.729C198.391 30.0577 198.272 30.579 198.272 31.293V31.888H200.567V33.044ZM210.134 36.427C210.134 37.9343 209.749 39.1017 208.978 39.929C208.219 40.7563 207.187 41.17 205.884 41.17C205.079 41.17 204.36 40.9887 203.725 40.626C203.102 40.252 202.609 39.7137 202.246 39.011C201.883 38.297 201.702 37.4357 201.702 36.427C201.702 34.9197 202.076 33.758 202.824 32.942C203.583 32.126 204.62 31.718 205.935 31.718C206.751 31.718 207.476 31.905 208.111 32.279C208.746 32.6417 209.239 33.1743 209.59 33.877C209.953 34.5683 210.134 35.4183 210.134 36.427ZM203.249 36.427C203.249 37.5037 203.459 38.3593 203.878 38.994C204.309 39.6173 204.989 39.929 205.918 39.929C206.836 39.929 207.51 39.6173 207.941 38.994C208.372 38.3593 208.587 37.5037 208.587 36.427C208.587 35.3503 208.372 34.506 207.941 33.894C207.51 33.282 206.83 32.976 205.901 32.976C204.972 32.976 204.297 33.282 203.878 33.894C203.459 34.506 203.249 35.3503 203.249 36.427ZM216.755 31.718C216.925 31.718 217.106 31.7293 217.299 31.752C217.492 31.7633 217.667 31.786 217.826 31.82L217.639 33.197C217.492 33.163 217.327 33.1347 217.146 33.112C216.965 33.0893 216.8 33.078 216.653 33.078C216.188 33.078 215.752 33.2083 215.344 33.469C214.936 33.7183 214.607 34.0753 214.358 34.54C214.12 34.9933 214.001 35.526 214.001 36.138V41H212.505V31.888H213.729L213.899 33.554H213.967C214.25 33.0553 214.624 32.6247 215.089 32.262C215.565 31.8993 216.12 31.718 216.755 31.718ZM229.524 31.718C230.555 31.718 231.326 31.9843 231.836 32.517C232.346 33.0497 232.601 33.8997 232.601 35.067V41H231.122V35.135C231.122 33.6957 230.504 32.976 229.269 32.976C228.385 32.976 227.75 33.231 227.365 33.741C226.991 34.251 226.804 34.9933 226.804 35.968V41H225.325V35.135C225.325 33.6957 224.701 32.976 223.455 32.976C222.537 32.976 221.902 33.2593 221.551 33.826C221.199 34.3927 221.024 35.2087 221.024 36.274V41H219.528V31.888H220.735L220.956 33.129H221.041C221.324 32.653 221.704 32.3017 222.18 32.075C222.667 31.837 223.183 31.718 223.727 31.718C225.155 31.718 226.084 32.228 226.515 33.248H226.6C226.906 32.7267 227.319 32.3413 227.841 32.092C228.362 31.8427 228.923 31.718 229.524 31.718Z" fill="#262E3F"/>
</svg>
