<svg width="257" height="19" viewBox="0 0 257 19" fill="none" xmlns="http://www.w3.org/2000/svg">
<path d="M4.31697 14.119C3.52364 14.119 2.80964 13.983 2.17497 13.711C1.54031 13.4277 1.04164 13.031 0.678972 12.521C0.316305 12.011 0.134972 11.416 0.134972 10.736H2.20897C2.25431 11.246 2.45264 11.6653 2.80397 11.994C3.16664 12.3227 3.67097 12.487 4.31697 12.487C4.98564 12.487 5.50697 12.3283 5.88097 12.011C6.25497 11.6823 6.44197 11.263 6.44197 10.753C6.44197 10.3563 6.32297 10.0333 6.08497 9.784C5.85831 9.53467 5.56931 9.342 5.21797 9.206C4.87797 9.07 4.40197 8.92267 3.78997 8.764C3.01931 8.56 2.39031 8.356 1.90297 8.152C1.42697 7.93667 1.01897 7.608 0.678972 7.166C0.338972 6.724 0.168972 6.13467 0.168972 5.398C0.168972 4.718 0.338972 4.123 0.678972 3.613C1.01897 3.103 1.49497 2.712 2.10697 2.44C2.71897 2.168 3.42731 2.032 4.23197 2.032C5.37664 2.032 6.31164 2.321 7.03697 2.899C7.77364 3.46567 8.18164 4.24767 8.26097 5.245H6.11897C6.08497 4.81433 5.88097 4.446 5.50697 4.14C5.13297 3.834 4.63997 3.681 4.02797 3.681C3.47264 3.681 3.01931 3.82267 2.66797 4.106C2.31664 4.38933 2.14097 4.79733 2.14097 5.33C2.14097 5.69267 2.24864 5.993 2.46397 6.231C2.69064 6.45767 2.97397 6.639 3.31397 6.775C3.65397 6.911 4.11864 7.05833 4.70797 7.217C5.48997 7.43233 6.12464 7.64767 6.61197 7.863C7.11064 8.07833 7.52997 8.41267 7.86997 8.866C8.22131 9.308 8.39697 9.903 8.39697 10.651C8.39697 11.2517 8.23264 11.8183 7.90397 12.351C7.58664 12.8837 7.11631 13.3143 6.49297 13.643C5.88097 13.9603 5.15564 14.119 4.31697 14.119ZM19.0987 9.087C19.0987 9.43833 19.0761 9.75567 19.0307 10.039H11.8737C11.9304 10.787 12.2081 11.3877 12.7067 11.841C13.2054 12.2943 13.8174 12.521 14.5427 12.521C15.5854 12.521 16.3221 12.0847 16.7527 11.212H18.8437C18.5604 12.0733 18.0447 12.7817 17.2967 13.337C16.5601 13.881 15.6421 14.153 14.5427 14.153C13.6474 14.153 12.8427 13.9547 12.1287 13.558C11.4261 13.15 10.8707 12.5833 10.4627 11.858C10.0661 11.1213 9.86774 10.2713 9.86774 9.308C9.86774 8.34467 10.0604 7.50033 10.4457 6.775C10.8424 6.03833 11.3921 5.47167 12.0947 5.075C12.8087 4.67833 13.6247 4.48 14.5427 4.48C15.4267 4.48 16.2144 4.67267 16.9057 5.058C17.5971 5.44333 18.1354 5.98733 18.5207 6.69C18.9061 7.38133 19.0987 8.18033 19.0987 9.087ZM17.0757 8.475C17.0644 7.761 16.8094 7.18867 16.3107 6.758C15.8121 6.32733 15.1944 6.112 14.4577 6.112C13.7891 6.112 13.2167 6.32733 12.7407 6.758C12.2647 7.17733 11.9814 7.74967 11.8907 8.475H17.0757ZM25.5619 4.48C26.2986 4.48 26.9559 4.633 27.5339 4.939C28.1233 5.245 28.5823 5.69833 28.9109 6.299C29.2396 6.89967 29.4039 7.625 29.4039 8.475V14H27.4829V8.764C27.4829 7.92533 27.2733 7.285 26.8539 6.843C26.4346 6.38967 25.8623 6.163 25.1369 6.163C24.4116 6.163 23.8336 6.38967 23.4029 6.843C22.9836 7.285 22.7739 7.92533 22.7739 8.764V14H20.8359V4.633H22.7739V5.704C23.0913 5.31867 23.4936 5.01833 23.9809 4.803C24.4796 4.58767 25.0066 4.48 25.5619 4.48ZM32.692 3.392C32.3406 3.392 32.046 3.273 31.808 3.035C31.57 2.797 31.451 2.50233 31.451 2.151C31.451 1.79967 31.57 1.505 31.808 1.267C32.046 1.029 32.3406 0.909999 32.692 0.909999C33.032 0.909999 33.321 1.029 33.559 1.267C33.797 1.505 33.916 1.79967 33.916 2.151C33.916 2.50233 33.797 2.797 33.559 3.035C33.321 3.273 33.032 3.392 32.692 3.392ZM33.644 4.633V14H31.706V4.633H33.644ZM40.0814 14.153C39.1974 14.153 38.3984 13.9547 37.6844 13.558C36.9704 13.15 36.4094 12.5833 36.0014 11.858C35.5934 11.1213 35.3894 10.2713 35.3894 9.308C35.3894 8.356 35.5991 7.51167 36.0184 6.775C36.4377 6.03833 37.0101 5.47167 37.7354 5.075C38.4607 4.67833 39.2711 4.48 40.1664 4.48C41.0617 4.48 41.8721 4.67833 42.5974 5.075C43.3227 5.47167 43.8951 6.03833 44.3144 6.775C44.7337 7.51167 44.9434 8.356 44.9434 9.308C44.9434 10.26 44.7281 11.1043 44.2974 11.841C43.8667 12.5777 43.2774 13.15 42.5294 13.558C41.7927 13.9547 40.9767 14.153 40.0814 14.153ZM40.0814 12.47C40.5801 12.47 41.0447 12.351 41.4754 12.113C41.9174 11.875 42.2744 11.518 42.5464 11.042C42.8184 10.566 42.9544 9.988 42.9544 9.308C42.9544 8.628 42.8241 8.05567 42.5634 7.591C42.3027 7.115 41.9571 6.758 41.5264 6.52C41.0957 6.282 40.6311 6.163 40.1324 6.163C39.6337 6.163 39.1691 6.282 38.7384 6.52C38.3191 6.758 37.9847 7.115 37.7354 7.591C37.4861 8.05567 37.3614 8.628 37.3614 9.308C37.3614 10.3167 37.6164 11.0987 38.1264 11.654C38.6477 12.198 39.2994 12.47 40.0814 12.47ZM48.6272 5.993C48.9105 5.517 49.2845 5.14867 49.7492 4.888C50.2252 4.616 50.7862 4.48 51.4322 4.48V6.486H50.9392C50.1799 6.486 49.6019 6.67867 49.2052 7.064C48.8199 7.44933 48.6272 8.118 48.6272 9.07V14H46.6892V4.633H48.6272V5.993ZM64.9226 2.185V3.766H61.7776V14H59.8396V3.766H56.6776V2.185H64.9226ZM75.3003 9.087C75.3003 9.43833 75.2777 9.75567 75.2323 10.039H68.0753C68.132 10.787 68.4097 11.3877 68.9083 11.841C69.407 12.2943 70.019 12.521 70.7443 12.521C71.787 12.521 72.5237 12.0847 72.9543 11.212H75.0453C74.762 12.0733 74.2463 12.7817 73.4983 13.337C72.7617 13.881 71.8437 14.153 70.7443 14.153C69.849 14.153 69.0443 13.9547 68.3303 13.558C67.6277 13.15 67.0723 12.5833 66.6643 11.858C66.2677 11.1213 66.0693 10.2713 66.0693 9.308C66.0693 8.34467 66.262 7.50033 66.6473 6.775C67.044 6.03833 67.5937 5.47167 68.2963 5.075C69.0103 4.67833 69.8263 4.48 70.7443 4.48C71.6283 4.48 72.416 4.67267 73.1073 5.058C73.7987 5.44333 74.337 5.98733 74.7223 6.69C75.1077 7.38133 75.3003 8.18033 75.3003 9.087ZM73.2773 8.475C73.266 7.761 73.011 7.18867 72.5123 6.758C72.0137 6.32733 71.396 6.112 70.6593 6.112C69.9907 6.112 69.4183 6.32733 68.9423 6.758C68.4663 7.17733 68.183 7.74967 68.0923 8.475H73.2773ZM76.3915 9.308C76.3915 8.34467 76.5842 7.50033 76.9695 6.775C77.3662 6.03833 77.9102 5.47167 78.6015 5.075C79.2929 4.67833 80.0862 4.48 80.9815 4.48C82.1149 4.48 83.0499 4.752 83.7865 5.296C84.5345 5.82867 85.0389 6.59367 85.2995 7.591H83.2085C83.0385 7.12633 82.7665 6.76367 82.3925 6.503C82.0185 6.24233 81.5482 6.112 80.9815 6.112C80.1882 6.112 79.5535 6.39533 79.0775 6.962C78.6129 7.51733 78.3805 8.29933 78.3805 9.308C78.3805 10.3167 78.6129 11.1043 79.0775 11.671C79.5535 12.2377 80.1882 12.521 80.9815 12.521C82.1035 12.521 82.8459 12.028 83.2085 11.042H85.2995C85.0275 11.994 84.5175 12.7533 83.7695 13.32C83.0215 13.8753 82.0922 14.153 80.9815 14.153C80.0862 14.153 79.2929 13.9547 78.6015 13.558C77.9102 13.15 77.3662 12.5833 76.9695 11.858C76.5842 11.1213 76.3915 10.2713 76.3915 9.308ZM91.9059 4.48C92.6199 4.48 93.2546 4.633 93.8099 4.939C94.3766 5.245 94.8186 5.69833 95.1359 6.299C95.4646 6.89967 95.6289 7.625 95.6289 8.475V14H93.7079V8.764C93.7079 7.92533 93.4982 7.285 93.0789 6.843C92.6596 6.38967 92.0872 6.163 91.3619 6.163C90.6366 6.163 90.0586 6.38967 89.6279 6.843C89.2086 7.285 88.9989 7.92533 88.9989 8.764V14H87.0609V1.42H88.9989V5.721C89.3276 5.32433 89.7412 5.01833 90.2399 4.803C90.7499 4.58767 91.3052 4.48 91.9059 4.48ZM102.657 4.48C103.394 4.48 104.051 4.633 104.629 4.939C105.218 5.245 105.677 5.69833 106.006 6.299C106.335 6.89967 106.499 7.625 106.499 8.475V14H104.578V8.764C104.578 7.92533 104.368 7.285 103.949 6.843C103.53 6.38967 102.957 6.163 102.232 6.163C101.507 6.163 100.929 6.38967 100.498 6.843C100.079 7.285 99.8689 7.92533 99.8689 8.764V14H97.9309V4.633H99.8689V5.704C100.186 5.31867 100.589 5.01833 101.076 4.803C101.575 4.58767 102.102 4.48 102.657 4.48ZM109.787 3.392C109.436 3.392 109.141 3.273 108.903 3.035C108.665 2.797 108.546 2.50233 108.546 2.151C108.546 1.79967 108.665 1.505 108.903 1.267C109.141 1.029 109.436 0.909999 109.787 0.909999C110.127 0.909999 110.416 1.029 110.654 1.267C110.892 1.505 111.011 1.79967 111.011 2.151C111.011 2.50233 110.892 2.797 110.654 3.035C110.416 3.273 110.127 3.392 109.787 3.392ZM110.739 4.633V14H108.801V4.633H110.739ZM112.467 9.308C112.467 8.34467 112.66 7.50033 113.045 6.775C113.442 6.03833 113.986 5.47167 114.677 5.075C115.369 4.67833 116.162 4.48 117.057 4.48C118.191 4.48 119.126 4.752 119.862 5.296C120.61 5.82867 121.115 6.59367 121.375 7.591H119.284C119.114 7.12633 118.842 6.76367 118.468 6.503C118.094 6.24233 117.624 6.112 117.057 6.112C116.264 6.112 115.629 6.39533 115.153 6.962C114.689 7.51733 114.456 8.29933 114.456 9.308C114.456 10.3167 114.689 11.1043 115.153 11.671C115.629 12.2377 116.264 12.521 117.057 12.521C118.179 12.521 118.922 12.028 119.284 11.042H121.375C121.103 11.994 120.593 12.7533 119.845 13.32C119.097 13.8753 118.168 14.153 117.057 14.153C116.162 14.153 115.369 13.9547 114.677 13.558C113.986 13.15 113.442 12.5833 113.045 11.858C112.66 11.1213 112.467 10.2713 112.467 9.308ZM122.491 9.274C122.491 8.33333 122.683 7.50033 123.069 6.775C123.465 6.04967 123.998 5.48867 124.667 5.092C125.347 4.684 126.095 4.48 126.911 4.48C127.647 4.48 128.288 4.62733 128.832 4.922C129.387 5.20533 129.829 5.56233 130.158 5.993V4.633H132.113V14H130.158V12.606C129.829 13.048 129.381 13.4163 128.815 13.711C128.248 14.0057 127.602 14.153 126.877 14.153C126.072 14.153 125.335 13.949 124.667 13.541C123.998 13.1217 123.465 12.5437 123.069 11.807C122.683 11.059 122.491 10.2147 122.491 9.274ZM130.158 9.308C130.158 8.662 130.022 8.101 129.75 7.625C129.489 7.149 129.143 6.78633 128.713 6.537C128.282 6.28767 127.817 6.163 127.319 6.163C126.82 6.163 126.355 6.28767 125.925 6.537C125.494 6.775 125.143 7.132 124.871 7.608C124.61 8.07267 124.48 8.628 124.48 9.274C124.48 9.92 124.61 10.4867 124.871 10.974C125.143 11.4613 125.494 11.8353 125.925 12.096C126.367 12.3453 126.831 12.47 127.319 12.47C127.817 12.47 128.282 12.3453 128.713 12.096C129.143 11.8467 129.489 11.484 129.75 11.008C130.022 10.5207 130.158 9.954 130.158 9.308ZM136.426 1.42V14H134.488V1.42H136.426ZM155.491 2.185V14H153.553V5.908L149.949 14H148.606L144.985 5.908V14H143.047V2.185H145.138L149.286 11.45L153.417 2.185H155.491ZM157.222 9.274C157.222 8.33333 157.415 7.50033 157.8 6.775C158.197 6.04967 158.729 5.48867 159.398 5.092C160.078 4.684 160.826 4.48 161.642 4.48C162.379 4.48 163.019 4.62733 163.563 4.922C164.118 5.20533 164.56 5.56233 164.889 5.993V4.633H166.844V14H164.889V12.606C164.56 13.048 164.113 13.4163 163.546 13.711C162.979 14.0057 162.333 14.153 161.608 14.153C160.803 14.153 160.067 13.949 159.398 13.541C158.729 13.1217 158.197 12.5437 157.8 11.807C157.415 11.059 157.222 10.2147 157.222 9.274ZM164.889 9.308C164.889 8.662 164.753 8.101 164.481 7.625C164.22 7.149 163.875 6.78633 163.444 6.537C163.013 6.28767 162.549 6.163 162.05 6.163C161.551 6.163 161.087 6.28767 160.656 6.537C160.225 6.775 159.874 7.132 159.602 7.608C159.341 8.07267 159.211 8.628 159.211 9.274C159.211 9.92 159.341 10.4867 159.602 10.974C159.874 11.4613 160.225 11.8353 160.656 12.096C161.098 12.3453 161.563 12.47 162.05 12.47C162.549 12.47 163.013 12.3453 163.444 12.096C163.875 11.8467 164.22 11.484 164.481 11.008C164.753 10.5207 164.889 9.954 164.889 9.308ZM173.945 4.48C174.682 4.48 175.339 4.633 175.917 4.939C176.507 5.245 176.966 5.69833 177.294 6.299C177.623 6.89967 177.787 7.625 177.787 8.475V14H175.866V8.764C175.866 7.92533 175.657 7.285 175.237 6.843C174.818 6.38967 174.246 6.163 173.52 6.163C172.795 6.163 172.217 6.38967 171.786 6.843C171.367 7.285 171.157 7.92533 171.157 8.764V14H169.219V4.633H171.157V5.704C171.475 5.31867 171.877 5.01833 172.364 4.803C172.863 4.58767 173.39 4.48 173.945 4.48ZM179.443 9.274C179.443 8.33333 179.636 7.50033 180.021 6.775C180.418 6.04967 180.951 5.48867 181.619 5.092C182.299 4.684 183.047 4.48 183.863 4.48C184.6 4.48 185.24 4.62733 185.784 4.922C186.34 5.20533 186.782 5.56233 187.11 5.993V4.633H189.065V14H187.11V12.606C186.782 13.048 186.334 13.4163 185.767 13.711C185.201 14.0057 184.555 14.153 183.829 14.153C183.025 14.153 182.288 13.949 181.619 13.541C180.951 13.1217 180.418 12.5437 180.021 11.807C179.636 11.059 179.443 10.2147 179.443 9.274ZM187.11 9.308C187.11 8.662 186.974 8.101 186.702 7.625C186.442 7.149 186.096 6.78633 185.665 6.537C185.235 6.28767 184.77 6.163 184.271 6.163C183.773 6.163 183.308 6.28767 182.877 6.537C182.447 6.775 182.095 7.132 181.823 7.608C181.563 8.07267 181.432 8.628 181.432 9.274C181.432 9.92 181.563 10.4867 181.823 10.974C182.095 11.4613 182.447 11.8353 182.877 12.096C183.319 12.3453 183.784 12.47 184.271 12.47C184.77 12.47 185.235 12.3453 185.665 12.096C186.096 11.8467 186.442 11.484 186.702 11.008C186.974 10.5207 187.11 9.954 187.11 9.308ZM195.215 4.48C195.94 4.48 196.581 4.62733 197.136 4.922C197.703 5.20533 198.145 5.56233 198.462 5.993V4.633H200.417V14.153C200.417 15.0143 200.236 15.7793 199.873 16.448C199.51 17.128 198.983 17.6607 198.292 18.046C197.612 18.4313 196.796 18.624 195.844 18.624C194.575 18.624 193.521 18.3237 192.682 17.723C191.843 17.1337 191.367 16.329 191.254 15.309H193.175C193.322 15.7963 193.634 16.1873 194.11 16.482C194.597 16.788 195.175 16.941 195.844 16.941C196.626 16.941 197.255 16.703 197.731 16.227C198.218 15.751 198.462 15.0597 198.462 14.153V12.589C198.133 13.031 197.686 13.405 197.119 13.711C196.564 14.0057 195.929 14.153 195.215 14.153C194.399 14.153 193.651 13.949 192.971 13.541C192.302 13.1217 191.77 12.5437 191.373 11.807C190.988 11.059 190.795 10.2147 190.795 9.274C190.795 8.33333 190.988 7.50033 191.373 6.775C191.77 6.04967 192.302 5.48867 192.971 5.092C193.651 4.684 194.399 4.48 195.215 4.48ZM198.462 9.308C198.462 8.662 198.326 8.101 198.054 7.625C197.793 7.149 197.448 6.78633 197.017 6.537C196.586 6.28767 196.122 6.163 195.623 6.163C195.124 6.163 194.66 6.28767 194.229 6.537C193.798 6.775 193.447 7.132 193.175 7.608C192.914 8.07267 192.784 8.628 192.784 9.274C192.784 9.92 192.914 10.4867 193.175 10.974C193.447 11.4613 193.798 11.8353 194.229 12.096C194.671 12.3453 195.136 12.47 195.623 12.47C196.122 12.47 196.586 12.3453 197.017 12.096C197.448 11.8467 197.793 11.484 198.054 11.008C198.326 10.5207 198.462 9.954 198.462 9.308ZM211.377 9.087C211.377 9.43833 211.355 9.75567 211.309 10.039H204.152C204.209 10.787 204.487 11.3877 204.985 11.841C205.484 12.2943 206.096 12.521 206.821 12.521C207.864 12.521 208.601 12.0847 209.031 11.212H211.122C210.839 12.0733 210.323 12.7817 209.575 13.337C208.839 13.881 207.921 14.153 206.821 14.153C205.926 14.153 205.121 13.9547 204.407 13.558C203.705 13.15 203.149 12.5833 202.741 11.858C202.345 11.1213 202.146 10.2713 202.146 9.308C202.146 8.34467 202.339 7.50033 202.724 6.775C203.121 6.03833 203.671 5.47167 204.373 5.075C205.087 4.67833 205.903 4.48 206.821 4.48C207.705 4.48 208.493 4.67267 209.184 5.058C209.876 5.44333 210.414 5.98733 210.799 6.69C211.185 7.38133 211.377 8.18033 211.377 9.087ZM209.354 8.475C209.343 7.761 209.088 7.18867 208.589 6.758C208.091 6.32733 207.473 6.112 206.736 6.112C206.068 6.112 205.495 6.32733 205.019 6.758C204.543 7.17733 204.26 7.74967 204.169 8.475H209.354ZM224.454 4.48C225.19 4.48 225.848 4.633 226.426 4.939C227.015 5.245 227.474 5.69833 227.803 6.299C228.143 6.89967 228.313 7.625 228.313 8.475V14H226.392V8.764C226.392 7.92533 226.182 7.285 225.763 6.843C225.343 6.38967 224.771 6.163 224.046 6.163C223.32 6.163 222.742 6.38967 222.312 6.843C221.892 7.285 221.683 7.92533 221.683 8.764V14H219.762V8.764C219.762 7.92533 219.552 7.285 219.133 6.843C218.713 6.38967 218.141 6.163 217.416 6.163C216.69 6.163 216.112 6.38967 215.682 6.843C215.262 7.285 215.053 7.92533 215.053 8.764V14H213.115V4.633H215.053V5.704C215.37 5.31867 215.772 5.01833 216.26 4.803C216.747 4.58767 217.268 4.48 217.824 4.48C218.572 4.48 219.24 4.63867 219.83 4.956C220.419 5.27333 220.872 5.73233 221.19 6.333C221.473 5.76633 221.915 5.31867 222.516 4.99C223.116 4.65 223.762 4.48 224.454 4.48ZM239.194 9.087C239.194 9.43833 239.171 9.75567 239.126 10.039H231.969C232.025 10.787 232.303 11.3877 232.802 11.841C233.3 12.2943 233.912 12.521 234.638 12.521C235.68 12.521 236.417 12.0847 236.848 11.212H238.939C238.655 12.0733 238.14 12.7817 237.392 13.337C236.655 13.881 235.737 14.153 234.638 14.153C233.742 14.153 232.938 13.9547 232.224 13.558C231.521 13.15 230.966 12.5833 230.558 11.858C230.161 11.1213 229.963 10.2713 229.963 9.308C229.963 8.34467 230.155 7.50033 230.541 6.775C230.937 6.03833 231.487 5.47167 232.19 5.075C232.904 4.67833 233.72 4.48 234.638 4.48C235.522 4.48 236.309 4.67267 237.001 5.058C237.692 5.44333 238.23 5.98733 238.616 6.69C239.001 7.38133 239.194 8.18033 239.194 9.087ZM237.171 8.475C237.159 7.761 236.904 7.18867 236.406 6.758C235.907 6.32733 235.289 6.112 234.553 6.112C233.884 6.112 233.312 6.32733 232.836 6.758C232.36 7.17733 232.076 7.74967 231.986 8.475H237.171ZM245.657 4.48C246.393 4.48 247.051 4.633 247.629 4.939C248.218 5.245 248.677 5.69833 249.006 6.299C249.334 6.89967 249.499 7.625 249.499 8.475V14H247.578V8.764C247.578 7.92533 247.368 7.285 246.949 6.843C246.529 6.38967 245.957 6.163 245.232 6.163C244.506 6.163 243.928 6.38967 243.498 6.843C243.078 7.285 242.869 7.92533 242.869 8.764V14H240.931V4.633H242.869V5.704C243.186 5.31867 243.588 5.01833 244.076 4.803C244.574 4.58767 245.101 4.48 245.657 4.48ZM254.062 6.214V11.399C254.062 11.7503 254.141 12.0053 254.3 12.164C254.47 12.3113 254.753 12.385 255.15 12.385H256.34V14H254.81C253.937 14 253.269 13.796 252.804 13.388C252.339 12.98 252.107 12.317 252.107 11.399V6.214H251.002V4.633H252.107V2.304H254.062V4.633H256.34V6.214H254.062Z" fill="#359EFF"/>
</svg>
