<svg width="229" height="27" viewBox="0 0 229 27" fill="none" xmlns="http://www.w3.org/2000/svg">
<path d="M0.68 20V12.2C0.68 10.36 1.168 8.96 2.144 8C3.12 7.024 4.664 6.536 6.776 6.536C8.904 6.536 10.44 7.024 11.384 8C12.344 8.96 12.824 10.36 12.824 12.2V20H9.248V12.152C9.248 11.304 9.048 10.64 8.648 10.16C8.264 9.664 7.624 9.416 6.728 9.416C5.848 9.416 5.208 9.664 4.808 10.16C4.424 10.64 4.232 11.304 4.232 12.152V14.24L4.304 14.264C4.608 13.64 4.968 13.232 5.384 13.04C5.8 12.832 6.384 12.728 7.136 12.728H7.688V15.416H7.136C6.336 15.416 5.728 15.552 5.312 15.824C4.896 16.096 4.608 16.456 4.448 16.904C4.304 17.336 4.232 17.824 4.232 18.368V20H0.68ZM9.51856 26.264V24.128C9.51856 23.728 9.34256 23.528 8.99056 23.528C8.91056 23.528 8.83056 23.536 8.75056 23.552C8.67056 23.584 8.59056 23.608 8.51056 23.624L8.34256 21.896C8.56656 21.816 8.87056 21.736 9.25456 21.656C9.63856 21.576 10.0386 21.536 10.4546 21.536C11.2386 21.536 11.7906 21.688 12.1106 21.992C12.4306 22.312 12.5906 22.744 12.5906 23.288V26.264H9.51856ZM18.9796 20.24C17.9556 20.24 17.1316 19.992 16.5076 19.496C15.8996 18.984 15.5956 18.208 15.5956 17.168V15.608C15.5956 14.664 15.7956 13.968 16.1956 13.52C16.6116 13.072 17.1956 12.736 17.9476 12.512L17.9716 12.416L15.3556 11.48V10.856C15.3556 10.04 15.5796 9.312 16.0276 8.672C16.4916 8.016 17.1636 7.496 18.0436 7.112C18.9236 6.728 19.9956 6.536 21.2596 6.536C23.0196 6.536 24.4116 6.944 25.4356 7.76C26.4756 8.56 26.9956 9.76 26.9956 11.36V14.96C26.9956 15.728 27.1636 16.28 27.4996 16.616C27.8356 16.952 28.2516 17.12 28.7476 17.12C29.4356 17.12 29.9876 16.832 30.4036 16.256C30.8196 15.68 31.0276 14.912 31.0276 13.952V6.848H34.6276V20H31.8436L31.4356 17.936H31.2436C30.9556 18.608 30.4836 19.16 29.8276 19.592C29.1876 20.024 28.3876 20.24 27.4276 20.24C26.1156 20.24 25.1236 19.896 24.4516 19.208C23.7956 18.504 23.4676 17.4 23.4676 15.896V11.624C23.4676 10.776 23.2516 10.192 22.8196 9.872C22.3876 9.536 21.8516 9.368 21.2116 9.368C20.6036 9.368 20.0996 9.504 19.6996 9.776C19.2996 10.032 19.0836 10.424 19.0516 10.952L21.1396 11.96L20.8996 13.52C20.3076 13.536 19.8596 13.68 19.5556 13.952C19.2516 14.208 19.0996 14.664 19.0996 15.32V16.784C19.0996 17.44 19.4196 17.768 20.0596 17.768C20.3796 17.768 20.6596 17.72 20.8996 17.624L21.2356 19.76C20.6276 20.08 19.8756 20.24 18.9796 20.24ZM41.5042 20.24C40.1282 20.24 39.0642 19.912 38.3122 19.256C37.5762 18.6 37.2082 17.68 37.2082 16.496C37.2082 15.216 37.6642 14.192 38.5762 13.424C39.5042 12.656 40.9602 12.192 42.9442 12.032L45.4402 11.84V11.456C45.4402 10.688 45.2322 10.136 44.8162 9.8C44.4002 9.464 43.7602 9.296 42.8962 9.296C42.0642 9.296 41.2482 9.424 40.4482 9.68C39.6642 9.92 38.9842 10.208 38.4082 10.544V7.568C38.8722 7.344 39.5282 7.12 40.3762 6.896C41.2242 6.656 42.2002 6.536 43.3042 6.536C43.8802 6.536 44.4242 6.584 44.9362 6.68C45.4482 6.76 45.8882 6.92 46.2562 7.16C46.6402 6.84 46.8402 6.448 46.8562 5.984H50.0002C50.0002 6.56 49.8642 7.104 49.5922 7.616C49.3202 8.128 48.8882 8.56 48.2962 8.912C48.5362 9.232 48.7042 9.616 48.8002 10.064C48.9122 10.512 48.9682 11.024 48.9682 11.6V20H45.4402V14.432L43.3522 14.648C42.3922 14.744 41.7202 14.936 41.3362 15.224C40.9682 15.512 40.7842 15.896 40.7842 16.376C40.7842 16.856 40.9362 17.216 41.2402 17.456C41.5442 17.696 41.9522 17.816 42.4642 17.816C42.6562 17.816 42.8482 17.8 43.0402 17.768C43.2322 17.72 43.4082 17.672 43.5682 17.624L43.8802 19.88C43.5762 19.992 43.2162 20.08 42.8002 20.144C42.3842 20.208 41.9522 20.24 41.5042 20.24ZM56.6617 20.312C55.7177 20.312 54.7657 20.208 53.8057 20C52.8617 19.792 52.0217 19.496 51.2857 19.112L52.2937 16.256C52.7737 16.512 53.3897 16.784 54.1417 17.072C54.8937 17.344 55.6857 17.48 56.5177 17.48C57.8137 17.48 58.4617 17.104 58.4617 16.352C58.4617 15.936 58.2137 15.616 57.7177 15.392C57.2377 15.152 56.5657 14.88 55.7017 14.576C54.8537 14.288 54.1257 13.968 53.5177 13.616C52.9097 13.264 52.4377 12.832 52.1017 12.32C51.7817 11.808 51.6217 11.16 51.6217 10.376C51.6217 9.064 52.1097 8.096 53.0857 7.472C54.0777 6.848 55.3977 6.536 57.0457 6.536C57.9417 6.536 58.7497 6.616 59.4697 6.776C60.1897 6.92 60.7497 7.096 61.1497 7.304V10.136C60.7337 9.944 60.1417 9.76 59.3737 9.584C58.6217 9.392 57.9017 9.296 57.2137 9.296C55.8857 9.296 55.2217 9.632 55.2217 10.304C55.2217 10.688 55.4777 10.992 55.9897 11.216C56.5177 11.424 57.2537 11.688 58.1977 12.008C59.4457 12.44 60.3977 12.96 61.0537 13.568C61.7257 14.176 62.0617 15.04 62.0617 16.16C62.0617 16.88 61.8937 17.56 61.5577 18.2C61.2377 18.824 60.6857 19.336 59.9017 19.736C59.1177 20.12 58.0377 20.312 56.6617 20.312ZM68.8436 20.312C67.8996 20.312 66.9476 20.208 65.9876 20C65.0436 19.792 64.2036 19.496 63.4676 19.112L64.4756 16.256C64.9556 16.512 65.5716 16.784 66.3236 17.072C67.0756 17.344 67.8676 17.48 68.6996 17.48C69.9956 17.48 70.6436 17.104 70.6436 16.352C70.6436 15.936 70.3956 15.616 69.8996 15.392C69.4196 15.152 68.7476 14.88 67.8836 14.576C67.0356 14.288 66.3076 13.968 65.6996 13.616C65.0916 13.264 64.6196 12.832 64.2836 12.32C63.9636 11.808 63.8036 11.16 63.8036 10.376C63.8036 9.064 64.2916 8.096 65.2676 7.472C66.2596 6.848 67.5796 6.536 69.2276 6.536C70.1236 6.536 70.9316 6.616 71.6516 6.776C72.3716 6.92 72.9316 7.096 73.3316 7.304V10.136C72.9156 9.944 72.3236 9.76 71.5556 9.584C70.8036 9.392 70.0836 9.296 69.3956 9.296C68.0676 9.296 67.4036 9.632 67.4036 10.304C67.4036 10.688 67.6596 10.992 68.1716 11.216C68.6996 11.424 69.4356 11.688 70.3796 12.008C71.6276 12.44 72.5796 12.96 73.2356 13.568C73.9076 14.176 74.2436 15.04 74.2436 16.16C74.2436 16.88 74.0756 17.56 73.7396 18.2C73.4196 18.824 72.8676 19.336 72.0836 19.736C71.2996 20.12 70.2196 20.312 68.8436 20.312ZM82.1054 20.312C80.2814 20.312 78.8974 19.912 77.9534 19.112C77.0254 18.296 76.5614 17.128 76.5614 15.608V14.672C76.5614 14.032 76.6334 13.496 76.7774 13.064C76.9374 12.616 77.1454 12.216 77.4014 11.864C77.6574 11.512 77.8654 11.2 78.0254 10.928C78.2014 10.64 78.2894 10.344 78.2894 10.04C78.2894 9.752 78.2174 9.552 78.0734 9.44C77.9294 9.312 77.7534 9.248 77.5454 9.248C77.2414 9.248 76.8894 9.344 76.4894 9.536L75.9134 7.28C76.3614 7.04 76.8414 6.88 77.3534 6.8C77.8814 6.704 78.3454 6.656 78.7454 6.656C79.8014 6.656 80.5454 6.912 80.9774 7.424C81.4254 7.92 81.6494 8.592 81.6494 9.44C81.6494 9.936 81.5774 10.376 81.4334 10.76C81.2894 11.128 81.1054 11.512 80.8814 11.912C80.6574 12.28 80.4734 12.624 80.3294 12.944C80.1854 13.264 80.1134 13.728 80.1134 14.336V15.248C80.1134 16.048 80.2814 16.624 80.6174 16.976C80.9694 17.328 81.4654 17.504 82.1054 17.504C82.7934 17.504 83.2814 17.32 83.5694 16.952C83.8734 16.584 84.0254 16.072 84.0254 15.416V13.088C84.0254 12.608 83.9134 12.232 83.6894 11.96C83.4814 11.672 83.1214 11.528 82.6094 11.528H82.4894V9.632H82.6334C83.1294 9.632 83.4974 9.496 83.7374 9.224C83.9774 8.952 84.1294 8.608 84.1934 8.192C84.2734 7.76 84.3134 7.312 84.3134 6.848H87.8894C87.8894 7.84 87.7614 8.656 87.5054 9.296C87.2494 9.92 86.8014 10.344 86.1614 10.568V10.664C86.7214 10.84 87.0974 11.144 87.2894 11.576C87.4974 12.008 87.6014 12.504 87.6014 13.064V15.512C87.6014 17.096 87.1374 18.296 86.2094 19.112C85.2814 19.912 83.9134 20.312 82.1054 20.312ZM84.1466 5.024C83.3946 5.024 82.8026 4.912 82.3706 4.688C81.9386 4.464 81.6346 4.184 81.4586 3.848C81.2666 3.496 81.1706 3.128 81.1706 2.744C81.1706 2.136 81.3306 1.552 81.6506 0.991999L84.2666 1.328C84.1866 1.568 84.1466 1.792 84.1466 2C84.1466 2.224 84.2186 2.4 84.3626 2.528C84.4906 2.64 84.7146 2.696 85.0346 2.696H90.1946V5.024H84.1466ZM95.9686 20.312C94.5286 20.312 93.3766 20.144 92.5126 19.808C91.6486 19.456 91.0166 18.968 90.6166 18.344C90.2326 17.72 90.0406 17 90.0406 16.184C90.0406 15.496 90.1446 14.936 90.3526 14.504C90.5766 14.056 90.8566 13.72 91.1926 13.496C91.5286 13.256 91.8806 13.096 92.2486 13.016V12.872C91.6886 12.696 91.1766 12.392 90.7126 11.96C90.2646 11.512 90.0406 10.856 90.0406 9.992C90.0406 9.4 90.1766 8.848 90.4486 8.336C90.7366 7.824 91.1926 7.416 91.8166 7.112C92.4406 6.792 93.2646 6.632 94.2886 6.632C94.7846 6.632 95.2566 6.672 95.7046 6.752C96.1686 6.816 96.5366 6.912 96.8086 7.04L96.2566 9.464C96.1286 9.432 95.9526 9.4 95.7286 9.368C95.5046 9.32 95.2886 9.296 95.0806 9.296C94.5846 9.296 94.2166 9.416 93.9766 9.656C93.7366 9.88 93.6166 10.176 93.6166 10.544C93.6166 11.136 93.8406 11.528 94.2886 11.72C94.7366 11.896 95.2246 11.984 95.7526 11.984H96.2566V14.216H95.7526C95.0646 14.216 94.5446 14.336 94.1926 14.576C93.8566 14.816 93.6886 15.208 93.6886 15.752C93.6886 16.056 93.7526 16.344 93.8806 16.616C94.0246 16.888 94.2646 17.12 94.6006 17.312C94.9366 17.488 95.4166 17.576 96.0406 17.576C96.9206 17.576 97.5286 17.392 97.8646 17.024C98.2006 16.64 98.3686 16.168 98.3686 15.608V6.848H101.969V15.488C101.969 17.136 101.481 18.352 100.505 19.136C99.5446 19.92 98.0326 20.312 95.9686 20.312ZM114.637 20.24C113.261 20.24 112.197 19.912 111.445 19.256C110.709 18.6 110.341 17.68 110.341 16.496C110.341 15.216 110.797 14.192 111.709 13.424C112.637 12.656 114.093 12.192 116.077 12.032L118.573 11.84V11.456C118.573 10.688 118.365 10.136 117.949 9.8C117.533 9.464 116.893 9.296 116.029 9.296C115.197 9.296 114.381 9.424 113.581 9.68C112.797 9.92 112.117 10.208 111.541 10.544V7.568C112.005 7.344 112.661 7.12 113.509 6.896C114.357 6.656 115.341 6.536 116.461 6.536C117.549 6.536 118.517 6.696 119.365 7.016C120.213 7.32 120.877 7.84 121.357 8.576C121.853 9.312 122.101 10.32 122.101 11.6V20H118.573V14.432L116.485 14.648C115.525 14.744 114.853 14.936 114.469 15.224C114.101 15.512 113.917 15.896 113.917 16.376C113.917 16.856 114.069 17.216 114.373 17.456C114.677 17.696 115.085 17.816 115.597 17.816C115.789 17.816 115.981 17.8 116.173 17.768C116.365 17.72 116.541 17.672 116.701 17.624L117.013 19.88C116.709 19.992 116.349 20.08 115.933 20.144C115.517 20.208 115.085 20.24 114.637 20.24ZM110.574 5.024V3.512L112.998 2.504H118.494V0.847999H121.566V5.024H110.574ZM125.956 20L124.036 6.848H127.588L128.188 12.224C128.236 12.624 128.284 13.168 128.332 13.856C128.396 14.528 128.428 15.28 128.428 16.112H128.5C128.708 15.376 128.9 14.736 129.076 14.192C129.268 13.648 129.468 13.104 129.676 12.56L130.78 9.512H132.82L133.924 12.56C134.116 13.104 134.3 13.648 134.476 14.192C134.668 14.736 134.868 15.376 135.076 16.112H135.172C135.188 15.392 135.228 14.696 135.292 14.024C135.356 13.336 135.42 12.744 135.484 12.248L135.796 10.208C135.94 9.28 135.836 8.624 135.484 8.24C135.148 7.84 134.54 7.64 133.66 7.64H132.172V5.288H134.092C135.196 5.288 135.948 5.072 136.348 4.64C136.748 4.208 136.948 3.656 136.948 2.984V2.864H140.38V2.984C140.38 3.88 140.18 4.664 139.78 5.336C139.38 5.992 138.708 6.4 137.764 6.56V6.656C138.452 6.912 138.9 7.36 139.108 8C139.332 8.64 139.396 9.264 139.3 9.872L137.716 20H133.972L132.748 16.184C132.572 15.624 132.412 15.08 132.268 14.552C132.124 14.008 131.98 13.336 131.836 12.536H131.74C131.596 13.368 131.444 14.056 131.284 14.6C131.14 15.144 130.98 15.68 130.804 16.208L129.532 20H125.956ZM141.964 20V6.848H145.516V11.768H145.612L149.692 6.848H153.652V6.968L150.172 10.832C151.308 11.008 152.164 11.488 152.74 12.272C153.316 13.056 153.604 14 153.604 15.104V20H150.004V15.656C150.004 14.936 149.828 14.392 149.476 14.024C149.124 13.64 148.612 13.4 147.94 13.304L145.516 15.992V20H141.964ZM159.917 20V11.312C159.917 10.64 159.757 10.152 159.437 9.848C159.133 9.544 158.629 9.392 157.925 9.392C157.397 9.392 156.909 9.464 156.461 9.608C156.029 9.752 155.621 9.928 155.237 10.136V7.256C155.589 7.096 156.085 6.936 156.725 6.776C157.365 6.616 158.117 6.536 158.981 6.536C159.861 6.536 160.637 6.664 161.309 6.92C161.997 7.176 162.533 7.608 162.917 8.216C163.317 8.808 163.517 9.624 163.517 10.664V20H159.917ZM170.323 20.24C169.235 20.24 168.403 19.992 167.827 19.496C167.267 18.984 166.987 18.208 166.987 17.168V6.848H170.587V16.736C170.587 17.328 170.867 17.624 171.427 17.624C171.667 17.624 171.939 17.568 172.243 17.456L172.579 19.76C171.971 20.08 171.219 20.24 170.323 20.24ZM174.447 20V15.992C174.447 14.984 174.639 14.208 175.023 13.664C175.423 13.12 175.999 12.736 176.751 12.512L176.775 12.416L174.207 11.48V10.856C174.207 10.072 174.439 9.352 174.903 8.696C175.367 8.04 176.047 7.52 176.943 7.136C177.855 6.736 178.959 6.536 180.255 6.536C182.063 6.536 183.503 6.96 184.575 7.808C185.647 8.64 186.183 9.904 186.183 11.6V20H182.583V11.816C182.583 11.016 182.367 10.416 181.935 10.016C181.519 9.616 180.927 9.416 180.159 9.416C179.407 9.416 178.847 9.576 178.479 9.896C178.111 10.2 177.919 10.576 177.903 11.024L180.039 12.008L179.775 13.568C179.199 13.6 178.767 13.808 178.479 14.192C178.191 14.576 178.047 15.096 178.047 15.752V20H174.447ZM174.524 5.024V3.512L176.948 2.504H182.444V0.847999H185.516V5.024H174.524ZM194.631 20.312C193.191 20.312 192.039 20.144 191.175 19.808C190.311 19.456 189.679 18.968 189.279 18.344C188.895 17.72 188.703 17 188.703 16.184C188.703 15.496 188.807 14.936 189.015 14.504C189.239 14.056 189.519 13.72 189.855 13.496C190.191 13.256 190.543 13.096 190.911 13.016V12.872C190.351 12.696 189.839 12.392 189.375 11.96C188.927 11.512 188.703 10.856 188.703 9.992C188.703 9.4 188.839 8.848 189.111 8.336C189.399 7.824 189.855 7.416 190.479 7.112C191.103 6.792 191.927 6.632 192.951 6.632C193.447 6.632 193.919 6.672 194.367 6.752C194.831 6.816 195.199 6.912 195.471 7.04L194.919 9.464C194.791 9.432 194.615 9.4 194.391 9.368C194.167 9.32 193.951 9.296 193.743 9.296C193.247 9.296 192.879 9.416 192.639 9.656C192.399 9.88 192.279 10.176 192.279 10.544C192.279 11.136 192.503 11.528 192.951 11.72C193.399 11.896 193.887 11.984 194.415 11.984H194.919V14.216H194.415C193.727 14.216 193.207 14.336 192.855 14.576C192.519 14.816 192.351 15.208 192.351 15.752C192.351 16.056 192.415 16.344 192.543 16.616C192.687 16.888 192.927 17.12 193.263 17.312C193.599 17.488 194.079 17.576 194.703 17.576C195.583 17.576 196.191 17.392 196.527 17.024C196.863 16.64 197.031 16.168 197.031 15.608V6.848H200.631V15.488C200.631 17.136 200.143 18.352 199.167 19.136C198.207 19.92 196.695 20.312 194.631 20.312ZM208.265 20.312C207.321 20.312 206.369 20.208 205.409 20C204.465 19.792 203.625 19.496 202.889 19.112L203.897 16.256C204.377 16.512 204.993 16.784 205.745 17.072C206.497 17.344 207.289 17.48 208.121 17.48C209.417 17.48 210.065 17.104 210.065 16.352C210.065 15.936 209.817 15.616 209.321 15.392C208.841 15.152 208.169 14.88 207.305 14.576C206.457 14.288 205.729 13.968 205.121 13.616C204.513 13.264 204.041 12.832 203.705 12.32C203.385 11.808 203.225 11.16 203.225 10.376C203.225 9.064 203.713 8.096 204.689 7.472C205.681 6.848 207.001 6.536 208.649 6.536C209.545 6.536 210.353 6.616 211.073 6.776C211.793 6.92 212.353 7.096 212.753 7.304V10.136C212.337 9.944 211.745 9.76 210.977 9.584C210.225 9.392 209.505 9.296 208.817 9.296C207.489 9.296 206.825 9.632 206.825 10.304C206.825 10.688 207.081 10.992 207.593 11.216C208.121 11.424 208.857 11.688 209.801 12.008C211.049 12.44 212.001 12.96 212.657 13.568C213.329 14.176 213.665 15.04 213.665 16.16C213.665 16.88 213.497 17.56 213.161 18.2C212.841 18.824 212.289 19.336 211.505 19.736C210.721 20.12 209.641 20.312 208.265 20.312ZM220.951 20.24C219.527 20.24 218.415 19.952 217.615 19.376C216.831 18.784 216.279 17.968 215.959 16.928C215.655 15.872 215.503 14.648 215.503 13.256C215.503 10.936 215.847 9.248 216.535 8.192C217.223 7.136 218.247 6.608 219.607 6.608C220.167 6.608 220.655 6.72 221.071 6.944C221.503 7.152 221.847 7.544 222.103 8.12H222.199C222.423 7.528 222.791 7.128 223.303 6.92C223.815 6.712 224.367 6.608 224.959 6.608C226.063 6.608 226.887 6.904 227.431 7.496C227.991 8.088 228.271 8.952 228.271 10.088V20H224.671V10.76C224.671 10.264 224.591 9.928 224.431 9.752C224.271 9.576 224.055 9.488 223.783 9.488C223.479 9.488 223.247 9.576 223.087 9.752C222.943 9.928 222.847 10.224 222.799 10.64H221.383C221.319 10.192 221.199 9.888 221.023 9.728C220.847 9.568 220.639 9.488 220.399 9.488C219.983 9.488 219.671 9.776 219.463 10.352C219.255 10.928 219.151 11.904 219.151 13.28C219.151 14.64 219.311 15.688 219.631 16.424C219.951 17.144 220.575 17.504 221.503 17.504C221.887 17.504 222.199 17.456 222.439 17.36L222.799 19.928C222.287 20.136 221.671 20.24 220.951 20.24ZM216.478 5.024V3.512L218.902 2.504H227.47V5.024H216.478Z" fill="#1F2883"/>
</svg>
