<svg width="187" height="18" viewBox="0 0 187 18" fill="none" xmlns="http://www.w3.org/2000/svg">
<path d="M4.117 15.17C2.77967 15.17 1.822 14.864 1.244 14.252C0.666 13.64 0.377 12.7673 0.377 11.634V5.684H1.89V11.651C1.89 13.1583 2.63233 13.912 4.117 13.912C4.88767 13.912 5.45433 13.725 5.817 13.351C6.191 12.977 6.378 12.4103 6.378 11.651V5.684H7.891V11.634C7.891 12.7673 7.59633 13.64 7.007 14.252C6.429 14.864 5.46567 15.17 4.117 15.17ZM13.2548 15.17C12.5861 15.17 11.9628 15.1077 11.3848 14.983C10.8181 14.847 10.3364 14.6883 9.93977 14.507L10.3818 13.283C10.7444 13.4303 11.1751 13.572 11.6738 13.708C12.1838 13.844 12.7221 13.912 13.2888 13.912C13.8894 13.912 14.3881 13.7987 14.7848 13.572C15.1814 13.3453 15.3798 13.0167 15.3798 12.586C15.3798 12.2007 15.2211 11.8833 14.9038 11.634C14.5864 11.3847 14.0764 11.1523 13.3738 10.937C12.6484 10.7103 12.0421 10.4723 11.5548 10.223C11.0674 9.96233 10.6934 9.65633 10.4328 9.305C10.1834 8.95367 10.0588 8.506 10.0588 7.962C10.0588 7.25933 10.3478 6.67567 10.9258 6.211C11.5038 5.74633 12.4274 5.514 13.6968 5.514C14.2408 5.514 14.7508 5.565 15.2268 5.667C15.7141 5.75767 16.0938 5.888 16.3658 6.058V7.333C16.0711 7.197 15.6744 7.06667 15.1758 6.942C14.6884 6.81733 14.1784 6.755 13.6458 6.755C12.8751 6.755 12.3368 6.874 12.0308 7.112C11.7248 7.33867 11.5718 7.59933 11.5718 7.894C11.5718 8.14333 11.6398 8.353 11.7758 8.523C11.9231 8.693 12.1668 8.85733 12.5068 9.016C12.8581 9.17467 13.3284 9.356 13.9178 9.56C14.4618 9.74133 14.9604 9.951 15.4138 10.189C15.8671 10.427 16.2241 10.7273 16.4848 11.09C16.7568 11.4413 16.8928 11.8947 16.8928 12.45C16.8928 12.926 16.7738 13.3737 16.5358 13.793C16.3091 14.201 15.9294 14.5353 15.3968 14.796C14.8641 15.0453 14.1501 15.17 13.2548 15.17ZM9.65263 4.205V3.542L10.8936 2.998H16.8776V4.205H9.65263ZM22.8135 15.17C21.4082 15.17 20.4109 14.8583 19.8215 14.235C19.2322 13.6003 18.9375 12.705 18.9375 11.549V5.684H20.4505V11.566C20.4505 12.3593 20.6375 12.9487 21.0115 13.334C21.3855 13.7193 21.9862 13.912 22.8135 13.912C23.6409 13.912 24.2415 13.7193 24.6155 13.334C24.9895 12.9487 25.1765 12.3593 25.1765 11.566V11.158H23.8505C23.1252 11.158 22.6265 11.005 22.3545 10.699C22.0939 10.393 21.9635 10.053 21.9635 9.679C21.9635 9.509 21.9805 9.33333 22.0145 9.152C22.0599 8.97067 22.1279 8.81767 22.2185 8.693L23.4425 8.914C23.3745 9.05 23.3405 9.21433 23.3405 9.407C23.3405 9.55433 23.3802 9.69033 23.4595 9.815C23.5502 9.93967 23.7032 10.002 23.9185 10.002H25.1765V5.684H26.6895V10.002H27.7775V11.158H26.6895V11.549C26.6895 12.705 26.3949 13.6003 25.8055 14.235C25.2162 14.8583 24.2189 15.17 22.8135 15.17ZM24.5301 4.205C23.8161 4.205 23.3118 4.06333 23.0171 3.78C22.7225 3.48533 22.5751 3.15667 22.5751 2.794C22.5751 2.624 22.6035 2.44267 22.6601 2.25C22.7055 2.046 22.7678 1.88167 22.8471 1.757L24.1221 1.978C24.0541 2.114 24.0201 2.28967 24.0201 2.505C24.0201 2.65233 24.0655 2.78267 24.1561 2.896C24.2468 2.998 24.3998 3.049 24.6151 3.049H28.9161V4.205H24.5301ZM29.8626 15V5.684H30.9166L31.1886 7.163H31.2566C31.4492 6.653 31.8006 6.25067 32.3106 5.956C32.8206 5.66133 33.4382 5.514 34.1636 5.514C35.1722 5.514 35.9656 5.77467 36.5436 6.296C37.1216 6.81733 37.4106 7.64467 37.4106 8.778V15H35.8976V8.863C35.8976 7.48033 35.2232 6.789 33.8746 6.789C33.3419 6.789 32.8886 6.91367 32.5146 7.163C32.1406 7.41233 31.8572 7.75233 31.6646 8.183C31.4719 8.60233 31.3756 9.07833 31.3756 9.611V15H29.8626ZM46.695 15.17C46.389 15.17 46.0943 15.119 45.811 15.017C45.5276 14.915 45.2953 14.7337 45.114 14.473C44.9326 14.2123 44.842 13.8497 44.842 13.385V5.684H46.355V13.198C46.355 13.4587 46.406 13.6457 46.508 13.759C46.6213 13.8723 46.8083 13.929 47.069 13.929C47.171 13.929 47.2786 13.9177 47.392 13.895C47.5053 13.8723 47.613 13.844 47.715 13.81L47.919 14.915C47.7036 15.017 47.494 15.085 47.29 15.119C47.086 15.153 46.8876 15.17 46.695 15.17ZM51.9676 15.17C50.9703 15.17 50.2053 14.9433 49.6726 14.49C49.1513 14.0253 48.8906 13.3623 48.8906 12.501C48.8906 11.5603 49.2306 10.835 49.9106 10.325C50.602 9.815 51.7183 9.51467 53.2596 9.424L54.8916 9.322V8.795C54.8916 8.05833 54.7216 7.537 54.3816 7.231C54.053 6.91367 53.4976 6.755 52.7156 6.755C52.149 6.755 51.605 6.83433 51.0836 6.993C50.5623 7.14033 50.075 7.35 49.6216 7.622V6.211C49.939 6.041 50.381 5.88233 50.9476 5.735C51.5143 5.58767 52.149 5.514 52.8516 5.514C54.0416 5.514 54.9256 5.77467 55.5036 6.296C56.093 6.806 56.3876 7.61067 56.3876 8.71V15H54.8916V10.58L53.4636 10.682C52.3076 10.7613 51.5086 10.9427 51.0666 11.226C50.636 11.5093 50.4206 11.923 50.4206 12.467C50.4206 12.977 50.5793 13.351 50.8966 13.589C51.2253 13.827 51.6786 13.946 52.2566 13.946C52.6306 13.946 52.9593 13.895 53.2426 13.793L53.4806 14.932C53.2653 15.0227 53.0273 15.085 52.7666 15.119C52.5173 15.153 52.251 15.17 51.9676 15.17ZM62.4445 15.17C61.2205 15.17 60.3025 14.8527 59.6905 14.218C59.0899 13.5833 58.7895 12.5747 58.7895 11.192C58.7895 10.9653 58.7952 10.7217 58.8065 10.461C58.8292 10.189 58.8519 9.92267 58.8745 9.662H62.4445V10.852H60.3025V11.192C60.3025 11.9173 60.3819 12.4783 60.5405 12.875C60.6992 13.2717 60.9315 13.5493 61.2375 13.708C61.5549 13.8667 61.9459 13.946 62.4105 13.946C62.9205 13.946 63.3625 13.8497 63.7365 13.657C64.1105 13.4643 64.3995 13.113 64.6035 12.603C64.8075 12.093 64.9095 11.362 64.9095 10.41C64.9095 9.16333 64.6942 8.24533 64.2635 7.656C63.8442 7.06667 63.1132 6.772 62.0705 6.772C61.5265 6.772 61.0052 6.84567 60.5065 6.993C60.0192 7.129 59.5489 7.32733 59.0955 7.588V6.177C59.4355 5.99567 59.8832 5.84267 60.4385 5.718C60.9939 5.582 61.6002 5.514 62.2575 5.514C63.2549 5.514 64.0595 5.718 64.6715 6.126C65.2949 6.52267 65.7482 7.08933 66.0315 7.826C66.3149 8.55133 66.4565 9.41267 66.4565 10.41C66.4565 11.4073 66.3262 12.263 66.0655 12.977C65.8049 13.691 65.3799 14.235 64.7905 14.609C64.2125 14.983 63.4305 15.17 62.4445 15.17ZM71.2543 15.17C70.9483 15.17 70.6536 15.119 70.3703 15.017C70.0869 14.915 69.8546 14.7337 69.6733 14.473C69.4919 14.2123 69.4013 13.8497 69.4013 13.385V4.052C69.4013 3.372 69.2369 2.88467 68.9083 2.59C68.5909 2.29533 68.1829 2.148 67.6843 2.148V1.502L68.9423 0.957999H73.4813V2.148H70.0302L70.0133 2.216C70.2626 2.386 70.4723 2.64667 70.6423 2.998C70.8236 3.338 70.9143 3.78567 70.9143 4.341V13.198C70.9143 13.4587 70.9653 13.6457 71.0673 13.759C71.1806 13.8723 71.3676 13.929 71.6283 13.929C71.7303 13.929 71.8379 13.9177 71.9513 13.895C72.0646 13.8723 72.1723 13.844 72.2743 13.81L72.4783 14.915C72.2629 15.017 72.0533 15.085 71.8493 15.119C71.6453 15.153 71.4469 15.17 71.2543 15.17ZM77.2511 15.17C76.2538 15.17 75.4661 14.9093 74.8881 14.388C74.3215 13.8667 74.0381 13.0393 74.0381 11.906V5.684H75.5511V11.821C75.5511 13.2037 76.2255 13.895 77.5741 13.895C78.3675 13.895 78.9795 13.64 79.4101 13.13C79.8521 12.62 80.0731 11.9343 80.0731 11.073V5.684H81.5861V15H80.3281L80.2601 13.623H80.1751C79.9711 14.0877 79.6141 14.4617 79.1041 14.745C78.6055 15.0283 77.9878 15.17 77.2511 15.17ZM86.8099 15.17C86.5039 15.17 86.2092 15.119 85.9259 15.017C85.6426 14.915 85.4102 14.7337 85.2289 14.473C85.0476 14.2123 84.9569 13.8497 84.9569 13.385V4.052C84.9569 3.372 84.7926 2.88467 84.4639 2.59C84.1466 2.29533 83.7386 2.148 83.2399 2.148V1.502L84.4979 0.957999H89.0369V2.148H85.5859L85.5689 2.216C85.8182 2.386 86.0279 2.64667 86.1979 2.998C86.3792 3.338 86.4699 3.78567 86.4699 4.341V13.198C86.4699 13.4587 86.5209 13.6457 86.6229 13.759C86.7362 13.8723 86.9232 13.929 87.1839 13.929C87.2859 13.929 87.3936 13.9177 87.5069 13.895C87.6202 13.8723 87.7279 13.844 87.8299 13.81L88.0339 14.915C87.8186 15.017 87.6089 15.085 87.4049 15.119C87.2009 15.153 87.0026 15.17 86.8099 15.17ZM91.3974 15.17C90.9554 15.17 90.5247 15.1247 90.1054 15.034C89.6974 14.9433 89.2611 14.7733 88.7964 14.524L89.2724 13.368C89.5217 13.5153 89.8051 13.6457 90.1224 13.759C90.4397 13.861 90.8081 13.912 91.2274 13.912C92.0661 13.912 92.7177 13.606 93.1824 12.994C93.6584 12.382 93.8964 11.4867 93.8964 10.308C93.8964 9.16333 93.6527 8.29067 93.1654 7.69C92.6894 7.078 91.9527 6.772 90.9554 6.772C90.5927 6.772 90.2244 6.81167 89.8504 6.891C89.4764 6.97033 89.1477 7.08933 88.8644 7.248V5.973C89.1817 5.803 89.5387 5.684 89.9354 5.616C90.3321 5.548 90.7287 5.514 91.1254 5.514C92.1454 5.514 92.9727 5.718 93.6074 6.126C94.2421 6.52267 94.7067 7.08367 95.0014 7.809C95.2961 8.523 95.4434 9.356 95.4434 10.308C95.4434 11.804 95.1034 12.9883 94.4234 13.861C93.7547 14.7337 92.7461 15.17 91.3974 15.17ZM101.614 10.342C101.614 8.95933 101.812 7.62767 102.209 6.347C102.617 5.055 103.251 3.89333 104.113 2.862H105.524C104.73 3.92733 104.13 5.10033 103.722 6.381C103.325 7.66167 103.127 8.97633 103.127 10.325C103.127 11.6397 103.325 12.9317 103.722 14.201C104.13 15.459 104.725 16.6207 105.507 17.686H104.113C103.251 16.6887 102.617 15.561 102.209 14.303C101.812 13.0337 101.614 11.7133 101.614 10.342ZM111.147 15.17C109.81 15.17 108.852 14.864 108.274 14.252C107.696 13.64 107.407 12.7673 107.407 11.634V5.684H108.92V11.651C108.92 13.1583 109.663 13.912 111.147 13.912C111.918 13.912 112.485 13.725 112.847 13.351C113.221 12.977 113.408 12.4103 113.408 11.651V2.335H114.921V11.634C114.921 12.7673 114.627 13.64 114.037 14.252C113.459 14.864 112.496 15.17 111.147 15.17ZM120.318 15.17C119.65 15.17 119.026 15.1077 118.448 14.983C117.882 14.847 117.4 14.6883 117.003 14.507L117.445 13.283C117.808 13.4303 118.239 13.572 118.737 13.708C119.247 13.844 119.786 13.912 120.352 13.912C120.953 13.912 121.452 13.7987 121.848 13.572C122.245 13.3453 122.443 13.0167 122.443 12.586C122.443 12.2007 122.285 11.8833 121.967 11.634C121.65 11.3847 121.14 11.1523 120.437 10.937C119.712 10.7103 119.106 10.4723 118.618 10.223C118.131 9.96233 117.757 9.65633 117.496 9.305C117.247 8.95367 117.122 8.506 117.122 7.962C117.122 7.25933 117.411 6.67567 117.989 6.211C118.567 5.74633 119.491 5.514 120.76 5.514C121.304 5.514 121.814 5.565 122.29 5.667C122.778 5.75767 123.157 5.888 123.429 6.058V7.333C123.135 7.197 122.738 7.06667 122.239 6.942C121.752 6.81733 121.242 6.755 120.709 6.755C119.939 6.755 119.4 6.874 119.094 7.112C118.788 7.33867 118.635 7.59933 118.635 7.894C118.635 8.14333 118.703 8.353 118.839 8.523C118.987 8.693 119.23 8.85733 119.57 9.016C119.922 9.17467 120.392 9.356 120.981 9.56C121.525 9.74133 122.024 9.951 122.477 10.189C122.931 10.427 123.288 10.7273 123.548 11.09C123.82 11.4413 123.956 11.8947 123.956 12.45C123.956 12.926 123.837 13.3737 123.599 13.793C123.373 14.201 122.993 14.5353 122.46 14.796C121.928 15.0453 121.214 15.17 120.318 15.17ZM127.225 9.152C126.522 9.152 126.024 9.00467 125.729 8.71C125.434 8.404 125.287 8.064 125.287 7.69C125.287 7.30467 125.378 6.976 125.559 6.704L126.834 6.908C126.811 6.96467 126.783 7.044 126.749 7.146C126.726 7.248 126.715 7.35 126.715 7.452C126.715 7.59933 126.755 7.724 126.834 7.826C126.913 7.91667 127.061 7.962 127.276 7.962H129.707V9.152H127.225ZM127.225 13.912C126.522 13.912 126.024 13.7647 125.729 13.47C125.434 13.164 125.287 12.824 125.287 12.45C125.287 12.0647 125.378 11.736 125.559 11.464L126.834 11.668C126.811 11.7247 126.783 11.804 126.749 11.906C126.726 12.008 126.715 12.11 126.715 12.212C126.715 12.3593 126.755 12.484 126.834 12.586C126.913 12.6767 127.061 12.722 127.276 12.722H129.707V13.912H127.225ZM133.853 15.17C133.547 15.17 133.252 15.119 132.969 15.017C132.686 14.915 132.453 14.7337 132.272 14.473C132.091 14.2123 132 13.8497 132 13.385V5.684H133.513V13.198C133.513 13.4587 133.564 13.6457 133.666 13.759C133.779 13.8723 133.966 13.929 134.227 13.929C134.329 13.929 134.437 13.9177 134.55 13.895C134.663 13.8723 134.771 13.844 134.873 13.81L135.077 14.915C134.862 15.017 134.652 15.085 134.448 15.119C134.244 15.153 134.046 15.17 133.853 15.17ZM136.81 15V5.684H137.864L138.136 7.163H138.204C138.397 6.653 138.748 6.25067 139.258 5.956C139.768 5.66133 140.386 5.514 141.111 5.514C142.12 5.514 142.913 5.77467 143.491 6.296C144.069 6.81733 144.358 7.64467 144.358 8.778V15H142.845V8.863C142.845 7.48033 142.171 6.789 140.822 6.789C140.289 6.789 139.836 6.91367 139.462 7.163C139.088 7.41233 138.805 7.75233 138.612 8.183C138.419 8.60233 138.323 9.07833 138.323 9.611V15H136.81ZM147.118 15V9.05C147.118 7.91667 147.419 7.044 148.019 6.432C148.631 5.82 149.612 5.514 150.96 5.514C151.448 5.514 151.878 5.55933 152.252 5.65C152.638 5.72933 152.966 5.871 153.238 6.075C153.454 5.99567 153.641 5.87667 153.799 5.718C153.958 5.548 154.037 5.33267 154.037 5.072H155.516C155.516 5.52533 155.386 5.905 155.125 6.211C154.865 6.50567 154.536 6.72667 154.139 6.874C154.377 7.112 154.547 7.418 154.649 7.792C154.751 8.166 154.802 8.58533 154.802 9.05V15H153.289V9.05C153.289 7.53133 152.513 6.772 150.96 6.772C149.408 6.772 148.631 7.53133 148.631 9.05V10.937L148.682 10.954C148.943 10.512 149.249 10.223 149.6 10.087C149.963 9.93967 150.473 9.866 151.13 9.866H151.691V11.107H151.13C150.439 11.107 149.912 11.2033 149.549 11.396C149.198 11.5887 148.954 11.8437 148.818 12.161C148.694 12.467 148.631 12.8127 148.631 13.198V15H147.118ZM160.139 15.17C159.833 15.17 159.538 15.119 159.255 15.017C158.972 14.915 158.739 14.7337 158.558 14.473C158.377 14.2123 158.286 13.8497 158.286 13.385V4.341C158.286 3.70633 158.371 3.236 158.541 2.93C158.722 2.624 158.932 2.386 159.17 2.216L159.153 2.148H156.195L156.586 0.957999H161.38V2.148C160.949 2.148 160.575 2.284 160.258 2.556C159.952 2.828 159.799 3.32667 159.799 4.052V13.198C159.799 13.4587 159.85 13.6457 159.952 13.759C160.065 13.8723 160.252 13.929 160.513 13.929C160.615 13.929 160.723 13.9177 160.836 13.895C160.949 13.8723 161.057 13.844 161.159 13.81L161.363 14.915C161.148 15.017 160.938 15.085 160.734 15.119C160.53 15.153 160.332 15.17 160.139 15.17ZM163.007 15V5.684H164.061L164.333 7.163H164.401C164.594 6.653 164.945 6.25067 165.455 5.956C165.965 5.66133 166.583 5.514 167.308 5.514C168.317 5.514 169.11 5.77467 169.688 6.296C170.266 6.81733 170.555 7.64467 170.555 8.778V15H169.042V8.863C169.042 7.48033 168.368 6.789 167.019 6.789C166.486 6.789 166.033 6.91367 165.659 7.163C165.285 7.41233 165.002 7.75233 164.809 8.183C164.616 8.60233 164.52 9.07833 164.52 9.611V15H163.007ZM176.902 15.153C175.52 15.153 174.545 14.8923 173.978 14.371C173.423 13.8497 173.145 13.147 173.145 12.263C173.145 11.7417 173.219 11.328 173.366 11.022C173.525 10.7047 173.718 10.4723 173.944 10.325C174.182 10.1777 174.426 10.0813 174.675 10.036V9.968C174.437 9.9 174.194 9.78667 173.944 9.628C173.706 9.46933 173.502 9.24833 173.332 8.965C173.174 8.68167 173.094 8.32467 173.094 7.894C173.094 7.50867 173.185 7.14033 173.366 6.789C173.548 6.42633 173.842 6.13167 174.25 5.905C174.658 5.67833 175.197 5.565 175.865 5.565C176.137 5.565 176.421 5.58767 176.715 5.633C177.01 5.667 177.237 5.72933 177.395 5.82L177.123 6.993C176.999 6.94767 176.834 6.908 176.63 6.874C176.438 6.82867 176.234 6.806 176.018 6.806C175.542 6.806 175.191 6.91933 174.964 7.146C174.738 7.36133 174.624 7.65033 174.624 8.013C174.624 8.40967 174.721 8.71 174.913 8.914C175.117 9.118 175.372 9.25967 175.678 9.339C175.996 9.407 176.324 9.441 176.664 9.441H176.987V10.546H176.664C175.984 10.546 175.48 10.6707 175.151 10.92C174.834 11.1693 174.675 11.5717 174.675 12.127C174.675 12.4557 174.738 12.756 174.862 13.028C174.998 13.3 175.225 13.5153 175.542 13.674C175.871 13.8327 176.324 13.912 176.902 13.912C177.764 13.912 178.353 13.7363 178.67 13.385C178.988 13.0337 179.146 12.5407 179.146 11.906V5.684H180.659V11.804C180.659 12.994 180.353 13.8497 179.741 14.371C179.141 14.8923 178.194 15.153 176.902 15.153ZM186.452 10.342C186.452 11.7133 186.248 13.0337 185.84 14.303C185.444 15.561 184.815 16.6887 183.953 17.686H182.559C183.341 16.6207 183.931 15.459 184.327 14.201C184.735 12.9317 184.939 11.6397 184.939 10.325C184.939 8.97633 184.735 7.66167 184.327 6.381C183.931 5.10033 183.336 3.92733 182.542 2.862H183.953C184.815 3.89333 185.444 5.055 185.84 6.347C186.248 7.62767 186.452 8.95933 186.452 10.342Z" fill="#262E3F"/>
</svg>
