<svg width="246" height="19" viewBox="0 0 246 19" fill="none" xmlns="http://www.w3.org/2000/svg">
<path d="M4.57771 13.662C3.78437 13.662 3.07037 13.526 2.43571 13.254C1.80104 12.9706 1.30237 12.574 0.939706 12.064C0.577039 11.554 0.395706 10.959 0.395706 10.279H2.46971C2.51504 10.789 2.71337 11.2083 3.06471 11.537C3.42737 11.8656 3.93171 12.03 4.57771 12.03C5.24637 12.03 5.76771 11.8713 6.14171 11.554C6.51571 11.2253 6.70271 10.806 6.70271 10.296C6.70271 9.8993 6.58371 9.5763 6.34571 9.32697C6.11904 9.07764 5.83004 8.88497 5.47871 8.74897C5.13871 8.61297 4.66271 8.46564 4.05071 8.30697C3.28004 8.10297 2.65104 7.89897 2.16371 7.69497C1.68771 7.47964 1.27971 7.15097 0.939706 6.70897C0.599706 6.26697 0.429706 5.67764 0.429706 4.94097C0.429706 4.26097 0.599706 3.66597 0.939706 3.15597C1.27971 2.64597 1.75571 2.25497 2.36771 1.98297C2.97971 1.71097 3.68804 1.57497 4.49271 1.57497C5.63737 1.57497 6.57237 1.86397 7.29771 2.44197C8.03437 3.00863 8.44237 3.79063 8.52171 4.78797H6.37971C6.34571 4.3573 6.14171 3.98897 5.76771 3.68297C5.39371 3.37697 4.90071 3.22397 4.28871 3.22397C3.73337 3.22397 3.28004 3.36563 2.92871 3.64897C2.57737 3.9323 2.40171 4.3403 2.40171 4.87297C2.40171 5.23563 2.50937 5.53597 2.72471 5.77397C2.95137 6.00064 3.23471 6.18197 3.57471 6.31797C3.91471 6.45397 4.37937 6.6013 4.96871 6.75997C5.75071 6.9753 6.38537 7.19063 6.87271 7.40597C7.37137 7.6213 7.79071 7.95564 8.13071 8.40897C8.48204 8.85097 8.65771 9.44597 8.65771 10.194C8.65771 10.7946 8.49337 11.3613 8.16471 11.894C7.84737 12.4266 7.37704 12.8573 6.75371 13.186C6.14171 13.5033 5.41637 13.662 4.57771 13.662ZM14.8375 13.696C13.9535 13.696 13.1545 13.4976 12.4405 13.101C11.7265 12.693 11.1655 12.1263 10.7575 11.401C10.3495 10.6643 10.1455 9.8143 10.1455 8.85097C10.1455 7.89897 10.3551 7.05464 10.7745 6.31797C11.1938 5.5813 11.7661 5.01464 12.4915 4.61797C13.2168 4.2213 14.0271 4.02297 14.9225 4.02297C15.8178 4.02297 16.6281 4.2213 17.3535 4.61797C18.0788 5.01464 18.6511 5.5813 19.0705 6.31797C19.4898 7.05464 19.6995 7.89897 19.6995 8.85097C19.6995 9.80297 19.4841 10.6473 19.0535 11.384C18.6228 12.1206 18.0335 12.693 17.2855 13.101C16.5488 13.4976 15.7328 13.696 14.8375 13.696ZM14.8375 12.013C15.3361 12.013 15.8008 11.894 16.2315 11.656C16.6735 11.418 17.0305 11.061 17.3025 10.585C17.5745 10.109 17.7105 9.53097 17.7105 8.85097C17.7105 8.17097 17.5801 7.59864 17.3195 7.13397C17.0588 6.65797 16.7131 6.30097 16.2825 6.06297C15.8518 5.82497 15.3871 5.70597 14.8885 5.70597C14.3898 5.70597 13.9251 5.82497 13.4945 6.06297C13.0751 6.30097 12.7408 6.65797 12.4915 7.13397C12.2421 7.59864 12.1175 8.17097 12.1175 8.85097C12.1175 9.85964 12.3725 10.6416 12.8825 11.197C13.4038 11.741 14.0555 12.013 14.8375 12.013ZM23.3833 0.962969V13.543H21.4453V0.962969H23.3833ZM34.2407 4.17597V13.543H32.3027V12.438C31.9967 12.8233 31.5944 13.1293 31.0957 13.356C30.6084 13.5713 30.087 13.679 29.5317 13.679C28.795 13.679 28.132 13.526 27.5427 13.22C26.9647 12.914 26.5057 12.4606 26.1657 11.86C25.837 11.2593 25.6727 10.534 25.6727 9.68397V4.17597H27.5937V9.39497C27.5937 10.2336 27.8034 10.8796 28.2227 11.333C28.642 11.775 29.2144 11.996 29.9397 11.996C30.665 11.996 31.2374 11.775 31.6567 11.333C32.0874 10.8796 32.3027 10.2336 32.3027 9.39497V4.17597H34.2407ZM38.8888 5.75697V10.942C38.8888 11.2933 38.9681 11.5483 39.1268 11.707C39.2968 11.8543 39.5801 11.928 39.9768 11.928H41.1668V13.543H39.6368C38.7641 13.543 38.0954 13.339 37.6308 12.931C37.1661 12.523 36.9338 11.86 36.9338 10.942V5.75697H35.8288V4.17597H36.9338V1.84697H38.8888V4.17597H41.1668V5.75697H38.8888ZM43.7689 2.93497C43.4176 2.93497 43.1229 2.81597 42.8849 2.57797C42.6469 2.33997 42.5279 2.0453 42.5279 1.69397C42.5279 1.34263 42.6469 1.04797 42.8849 0.809969C43.1229 0.571968 43.4176 0.452968 43.7689 0.452968C44.1089 0.452968 44.3979 0.571968 44.636 0.809969C44.874 1.04797 44.993 1.34263 44.993 1.69397C44.993 2.0453 44.874 2.33997 44.636 2.57797C44.3979 2.81597 44.1089 2.93497 43.7689 2.93497ZM44.721 4.17597V13.543H42.7829V4.17597H44.721ZM51.1584 13.696C50.2744 13.696 49.4754 13.4976 48.7614 13.101C48.0474 12.693 47.4864 12.1263 47.0784 11.401C46.6704 10.6643 46.4664 9.8143 46.4664 8.85097C46.4664 7.89897 46.676 7.05464 47.0954 6.31797C47.5147 5.5813 48.087 5.01464 48.8124 4.61797C49.5377 4.2213 50.348 4.02297 51.2434 4.02297C52.1387 4.02297 52.949 4.2213 53.6744 4.61797C54.3997 5.01464 54.972 5.5813 55.3914 6.31797C55.8107 7.05464 56.0204 7.89897 56.0204 8.85097C56.0204 9.80297 55.805 10.6473 55.3744 11.384C54.9437 12.1206 54.3544 12.693 53.6064 13.101C52.8697 13.4976 52.0537 13.696 51.1584 13.696ZM51.1584 12.013C51.657 12.013 52.1217 11.894 52.5524 11.656C52.9944 11.418 53.3514 11.061 53.6234 10.585C53.8954 10.109 54.0314 9.53097 54.0314 8.85097C54.0314 8.17097 53.901 7.59864 53.6404 7.13397C53.3797 6.65797 53.034 6.30097 52.6034 6.06297C52.1727 5.82497 51.708 5.70597 51.2094 5.70597C50.7107 5.70597 50.246 5.82497 49.8154 6.06297C49.396 6.30097 49.0617 6.65797 48.8124 7.13397C48.563 7.59864 48.4384 8.17097 48.4384 8.85097C48.4384 9.85964 48.6934 10.6416 49.2034 11.197C49.7247 11.741 50.3764 12.013 51.1584 12.013ZM62.4922 4.02297C63.2289 4.02297 63.8862 4.17597 64.4642 4.48197C65.0535 4.78797 65.5125 5.2413 65.8412 5.84197C66.1699 6.44264 66.3342 7.16797 66.3342 8.01797V13.543H64.4132V8.30697C64.4132 7.4683 64.2035 6.82797 63.7842 6.38597C63.3649 5.93263 62.7925 5.70597 62.0672 5.70597C61.3419 5.70597 60.7639 5.93263 60.3332 6.38597C59.9139 6.82797 59.7042 7.4683 59.7042 8.30697V13.543H57.7662V4.17597H59.7042V5.24697C60.0215 4.86164 60.4239 4.5613 60.9112 4.34597C61.4099 4.13064 61.9369 4.02297 62.4922 4.02297ZM72.2362 7.60997C72.2362 6.45397 72.5026 5.41697 73.0352 4.49897C73.5792 3.58097 74.3102 2.86697 75.2282 2.35697C76.1576 1.83563 77.1719 1.57497 78.2712 1.57497C79.5292 1.57497 80.6456 1.88663 81.6202 2.50997C82.6062 3.12197 83.3202 3.99463 83.7622 5.12797H81.4332C81.1272 4.50464 80.7022 4.03997 80.1582 3.73397C79.6142 3.42797 78.9852 3.27497 78.2712 3.27497C77.4892 3.27497 76.7922 3.45063 76.1802 3.80197C75.5682 4.1533 75.0866 4.65763 74.7352 5.31497C74.3952 5.9723 74.2252 6.7373 74.2252 7.60997C74.2252 8.48264 74.3952 9.24764 74.7352 9.90497C75.0866 10.5623 75.5682 11.0723 76.1802 11.435C76.7922 11.7863 77.4892 11.962 78.2712 11.962C78.9852 11.962 79.6142 11.809 80.1582 11.503C80.7022 11.197 81.1272 10.7323 81.4332 10.109H83.7622C83.3202 11.2423 82.6062 12.115 81.6202 12.727C80.6456 13.339 79.5292 13.645 78.2712 13.645C77.1606 13.645 76.1462 13.39 75.2282 12.88C74.3102 12.3586 73.5792 11.639 73.0352 10.721C72.5026 9.80297 72.2362 8.76597 72.2362 7.60997ZM89.9237 13.696C89.0397 13.696 88.2407 13.4976 87.5267 13.101C86.8127 12.693 86.2517 12.1263 85.8437 11.401C85.4357 10.6643 85.2317 9.8143 85.2317 8.85097C85.2317 7.89897 85.4414 7.05464 85.8607 6.31797C86.28 5.5813 86.8524 5.01464 87.5777 4.61797C88.303 4.2213 89.1134 4.02297 90.0087 4.02297C90.904 4.02297 91.7144 4.2213 92.4397 4.61797C93.165 5.01464 93.7374 5.5813 94.1567 6.31797C94.576 7.05464 94.7857 7.89897 94.7857 8.85097C94.7857 9.80297 94.5704 10.6473 94.1397 11.384C93.709 12.1206 93.1197 12.693 92.3717 13.101C91.635 13.4976 90.819 13.696 89.9237 13.696ZM89.9237 12.013C90.4224 12.013 90.887 11.894 91.3177 11.656C91.7597 11.418 92.1167 11.061 92.3887 10.585C92.6607 10.109 92.7967 9.53097 92.7967 8.85097C92.7967 8.17097 92.6664 7.59864 92.4057 7.13397C92.145 6.65797 91.7994 6.30097 91.3687 6.06297C90.938 5.82497 90.4734 5.70597 89.9747 5.70597C89.476 5.70597 89.0114 5.82497 88.5807 6.06297C88.1614 6.30097 87.827 6.65797 87.5777 7.13397C87.3284 7.59864 87.2037 8.17097 87.2037 8.85097C87.2037 9.85964 87.4587 10.6416 87.9687 11.197C88.49 11.741 89.1417 12.013 89.9237 12.013ZM101.258 4.02297C101.994 4.02297 102.652 4.17597 103.23 4.48197C103.819 4.78797 104.278 5.2413 104.607 5.84197C104.935 6.44264 105.1 7.16797 105.1 8.01797V13.543H103.179V8.30697C103.179 7.4683 102.969 6.82797 102.55 6.38597C102.13 5.93263 101.558 5.70597 100.833 5.70597C100.107 5.70597 99.5292 5.93263 99.0985 6.38597C98.6792 6.82797 98.4695 7.4683 98.4695 8.30697V13.543H96.5315V4.17597H98.4695V5.24697C98.7868 4.86164 99.1892 4.5613 99.6765 4.34597C100.175 4.13064 100.702 4.02297 101.258 4.02297ZM110.802 13.696C110.065 13.696 109.402 13.5656 108.813 13.305C108.235 13.033 107.776 12.6703 107.436 12.217C107.096 11.7523 106.914 11.2366 106.892 10.67H108.898C108.932 11.0666 109.119 11.401 109.459 11.673C109.81 11.9336 110.246 12.064 110.768 12.064C111.312 12.064 111.731 11.962 112.026 11.758C112.332 11.5426 112.485 11.2706 112.485 10.942C112.485 10.5906 112.315 10.33 111.975 10.16C111.646 9.98997 111.119 9.80297 110.394 9.59897C109.691 9.4063 109.119 9.2193 108.677 9.03797C108.235 8.85664 107.849 8.57897 107.521 8.20497C107.203 7.83097 107.045 7.33797 107.045 6.72597C107.045 6.2273 107.192 5.77397 107.487 5.36597C107.781 4.94664 108.201 4.61797 108.745 4.37997C109.3 4.14197 109.935 4.02297 110.649 4.02297C111.714 4.02297 112.57 4.29497 113.216 4.83897C113.873 5.37163 114.224 6.10263 114.27 7.03197H112.332C112.298 6.61264 112.128 6.2783 111.822 6.02897C111.516 5.77964 111.102 5.65497 110.581 5.65497C110.071 5.65497 109.68 5.7513 109.408 5.94397C109.136 6.13664 109 6.39164 109 6.70897C109 6.9583 109.09 7.16797 109.272 7.33797C109.453 7.50797 109.674 7.64397 109.935 7.74597C110.195 7.83664 110.581 7.95564 111.091 8.10297C111.771 8.2843 112.326 8.4713 112.757 8.66397C113.199 8.8453 113.578 9.1173 113.896 9.47997C114.213 9.84264 114.377 10.3243 114.389 10.925C114.389 11.4576 114.241 11.9336 113.947 12.353C113.652 12.7723 113.233 13.101 112.689 13.339C112.156 13.577 111.527 13.696 110.802 13.696ZM124.796 4.17597V13.543H122.858V12.438C122.552 12.8233 122.149 13.1293 121.651 13.356C121.163 13.5713 120.642 13.679 120.087 13.679C119.35 13.679 118.687 13.526 118.098 13.22C117.52 12.914 117.061 12.4606 116.721 11.86C116.392 11.2593 116.228 10.534 116.228 9.68397V4.17597H118.149V9.39497C118.149 10.2336 118.358 10.8796 118.778 11.333C119.197 11.775 119.769 11.996 120.495 11.996C121.22 11.996 121.792 11.775 122.212 11.333C122.642 10.8796 122.858 10.2336 122.858 9.39497V4.17597H124.796ZM129.121 0.962969V13.543H127.183V0.962969H129.121ZM133.756 5.75697V10.942C133.756 11.2933 133.835 11.5483 133.994 11.707C134.164 11.8543 134.447 11.928 134.844 11.928H136.034V13.543H134.504C133.631 13.543 132.963 13.339 132.498 12.931C132.033 12.523 131.801 11.86 131.801 10.942V5.75697H130.696V4.17597H131.801V1.84697H133.756V4.17597H136.034V5.75697H133.756ZM137.004 8.81697C137.004 7.8763 137.197 7.0433 137.582 6.31797C137.979 5.59264 138.512 5.03163 139.18 4.63497C139.86 4.22697 140.608 4.02297 141.424 4.02297C142.161 4.02297 142.801 4.1703 143.345 4.46497C143.901 4.7483 144.343 5.1053 144.671 5.53597V4.17597H146.626V13.543H144.671V12.149C144.343 12.591 143.895 12.9593 143.328 13.254C142.762 13.5486 142.116 13.696 141.39 13.696C140.586 13.696 139.849 13.492 139.18 13.084C138.512 12.6646 137.979 12.0866 137.582 11.35C137.197 10.602 137.004 9.75764 137.004 8.81697ZM144.671 8.85097C144.671 8.20497 144.535 7.64397 144.263 7.16797C144.003 6.69197 143.657 6.3293 143.226 6.07997C142.796 5.83064 142.331 5.70597 141.832 5.70597C141.334 5.70597 140.869 5.83064 140.438 6.07997C140.008 6.31797 139.656 6.67497 139.384 7.15097C139.124 7.61564 138.993 8.17097 138.993 8.81697C138.993 9.46297 139.124 10.0296 139.384 10.517C139.656 11.0043 140.008 11.3783 140.438 11.639C140.88 11.8883 141.345 12.013 141.832 12.013C142.331 12.013 142.796 11.8883 143.226 11.639C143.657 11.3896 144.003 11.027 144.263 10.551C144.535 10.0636 144.671 9.49697 144.671 8.85097ZM153.728 4.02297C154.464 4.02297 155.122 4.17597 155.7 4.48197C156.289 4.78797 156.748 5.2413 157.077 5.84197C157.405 6.44264 157.57 7.16797 157.57 8.01797V13.543H155.649V8.30697C155.649 7.4683 155.439 6.82797 155.02 6.38597C154.6 5.93263 154.028 5.70597 153.303 5.70597C152.577 5.70597 151.999 5.93263 151.569 6.38597C151.149 6.82797 150.94 7.4683 150.94 8.30697V13.543H149.002V4.17597H150.94V5.24697C151.257 4.86164 151.659 4.5613 152.147 4.34597C152.645 4.13064 153.172 4.02297 153.728 4.02297ZM162.133 5.75697V10.942C162.133 11.2933 162.212 11.5483 162.371 11.707C162.541 11.8543 162.824 11.928 163.221 11.928H164.411V13.543H162.881C162.008 13.543 161.339 13.339 160.875 12.931C160.41 12.523 160.178 11.86 160.178 10.942V5.75697H159.073V4.17597H160.178V1.84697H162.133V4.17597H164.411V5.75697H162.133ZM182.717 1.72797V13.543H180.779V5.45097L177.175 13.543H175.832L172.211 5.45097V13.543H170.273V1.72797H172.364L176.512 10.993L180.643 1.72797H182.717ZM184.448 8.81697C184.448 7.8763 184.641 7.0433 185.026 6.31797C185.423 5.59264 185.956 5.03163 186.624 4.63497C187.304 4.22697 188.052 4.02297 188.868 4.02297C189.605 4.02297 190.245 4.1703 190.789 4.46497C191.345 4.7483 191.787 5.1053 192.115 5.53597V4.17597H194.07V13.543H192.115V12.149C191.787 12.591 191.339 12.9593 190.772 13.254C190.206 13.5486 189.56 13.696 188.834 13.696C188.03 13.696 187.293 13.492 186.624 13.084C185.956 12.6646 185.423 12.0866 185.026 11.35C184.641 10.602 184.448 9.75764 184.448 8.81697ZM192.115 8.85097C192.115 8.20497 191.979 7.64397 191.707 7.16797C191.447 6.69197 191.101 6.3293 190.67 6.07997C190.24 5.83064 189.775 5.70597 189.276 5.70597C188.778 5.70597 188.313 5.83064 187.882 6.07997C187.452 6.31797 187.1 6.67497 186.828 7.15097C186.568 7.61564 186.437 8.17097 186.437 8.81697C186.437 9.46297 186.568 10.0296 186.828 10.517C187.1 11.0043 187.452 11.3783 187.882 11.639C188.324 11.8883 188.789 12.013 189.276 12.013C189.775 12.013 190.24 11.8883 190.67 11.639C191.101 11.3896 191.447 11.027 191.707 10.551C191.979 10.0636 192.115 9.49697 192.115 8.85097ZM201.172 4.02297C201.908 4.02297 202.566 4.17597 203.144 4.48197C203.733 4.78797 204.192 5.2413 204.521 5.84197C204.849 6.44264 205.014 7.16797 205.014 8.01797V13.543H203.093V8.30697C203.093 7.4683 202.883 6.82797 202.464 6.38597C202.044 5.93263 201.472 5.70597 200.747 5.70597C200.021 5.70597 199.443 5.93263 199.013 6.38597C198.593 6.82797 198.384 7.4683 198.384 8.30697V13.543H196.446V4.17597H198.384V5.24697C198.701 4.86164 199.103 4.5613 199.591 4.34597C200.089 4.13064 200.616 4.02297 201.172 4.02297ZM206.67 8.81697C206.67 7.8763 206.862 7.0433 207.248 6.31797C207.644 5.59264 208.177 5.03163 208.846 4.63497C209.526 4.22697 210.274 4.02297 211.09 4.02297C211.826 4.02297 212.467 4.1703 213.011 4.46497C213.566 4.7483 214.008 5.1053 214.337 5.53597V4.17597H216.292V13.543H214.337V12.149C214.008 12.591 213.56 12.9593 212.994 13.254C212.427 13.5486 211.781 13.696 211.056 13.696C210.251 13.696 209.514 13.492 208.846 13.084C208.177 12.6646 207.644 12.0866 207.248 11.35C206.862 10.602 206.67 9.75764 206.67 8.81697ZM214.337 8.85097C214.337 8.20497 214.201 7.64397 213.929 7.16797C213.668 6.69197 213.322 6.3293 212.892 6.07997C212.461 5.83064 211.996 5.70597 211.498 5.70597C210.999 5.70597 210.534 5.83064 210.104 6.07997C209.673 6.31797 209.322 6.67497 209.05 7.15097C208.789 7.61564 208.659 8.17097 208.659 8.81697C208.659 9.46297 208.789 10.0296 209.05 10.517C209.322 11.0043 209.673 11.3783 210.104 11.639C210.546 11.8883 211.01 12.013 211.498 12.013C211.996 12.013 212.461 11.8883 212.892 11.639C213.322 11.3896 213.668 11.027 213.929 10.551C214.201 10.0636 214.337 9.49697 214.337 8.85097ZM222.441 4.02297C223.167 4.02297 223.807 4.1703 224.362 4.46497C224.929 4.7483 225.371 5.1053 225.688 5.53597V4.17597H227.643V13.696C227.643 14.5573 227.462 15.3223 227.099 15.991C226.737 16.671 226.21 17.2036 225.518 17.589C224.838 17.9743 224.022 18.167 223.07 18.167C221.801 18.167 220.747 17.8666 219.908 17.266C219.07 16.6766 218.594 15.872 218.48 14.852H220.401C220.549 15.3393 220.86 15.7303 221.336 16.025C221.824 16.331 222.402 16.484 223.07 16.484C223.852 16.484 224.481 16.246 224.957 15.77C225.445 15.294 225.688 14.6026 225.688 13.696V12.132C225.36 12.574 224.912 12.948 224.345 13.254C223.79 13.5486 223.155 13.696 222.441 13.696C221.625 13.696 220.877 13.492 220.197 13.084C219.529 12.6646 218.996 12.0866 218.599 11.35C218.214 10.602 218.021 9.75764 218.021 8.81697C218.021 7.8763 218.214 7.0433 218.599 6.31797C218.996 5.59264 219.529 5.03163 220.197 4.63497C220.877 4.22697 221.625 4.02297 222.441 4.02297ZM225.688 8.85097C225.688 8.20497 225.552 7.64397 225.28 7.16797C225.02 6.69197 224.674 6.3293 224.243 6.07997C223.813 5.83064 223.348 5.70597 222.849 5.70597C222.351 5.70597 221.886 5.83064 221.455 6.07997C221.025 6.31797 220.673 6.67497 220.401 7.15097C220.141 7.61564 220.01 8.17097 220.01 8.81697C220.01 9.46297 220.141 10.0296 220.401 10.517C220.673 11.0043 221.025 11.3783 221.455 11.639C221.897 11.8883 222.362 12.013 222.849 12.013C223.348 12.013 223.813 11.8883 224.243 11.639C224.674 11.3896 225.02 11.027 225.28 10.551C225.552 10.0636 225.688 9.49697 225.688 8.85097ZM238.604 8.62997C238.604 8.9813 238.581 9.29864 238.536 9.58197H231.379C231.435 10.33 231.713 10.9306 232.212 11.384C232.71 11.8373 233.322 12.064 234.048 12.064C235.09 12.064 235.827 11.6276 236.258 10.755H238.349C238.065 11.6163 237.55 12.3246 236.802 12.88C236.065 13.424 235.147 13.696 234.048 13.696C233.152 13.696 232.348 13.4976 231.634 13.101C230.931 12.693 230.376 12.1263 229.968 11.401C229.571 10.6643 229.373 9.8143 229.373 8.85097C229.373 7.88763 229.565 7.0433 229.951 6.31797C230.347 5.5813 230.897 5.01464 231.6 4.61797C232.314 4.2213 233.13 4.02297 234.048 4.02297C234.932 4.02297 235.719 4.21564 236.411 4.60097C237.102 4.9863 237.64 5.5303 238.026 6.23297C238.411 6.9243 238.604 7.7233 238.604 8.62997ZM236.581 8.01797C236.569 7.30397 236.314 6.73164 235.816 6.30097C235.317 5.8703 234.699 5.65497 233.963 5.65497C233.294 5.65497 232.722 5.8703 232.246 6.30097C231.77 6.7203 231.486 7.29263 231.396 8.01797H236.581ZM242.279 5.53597C242.562 5.05997 242.936 4.69164 243.401 4.43097C243.877 4.15897 244.438 4.02297 245.084 4.02297V6.02897H244.591C243.832 6.02897 243.254 6.22163 242.857 6.60697C242.472 6.9923 242.279 7.66097 242.279 8.61297V13.543H240.341V4.17597H242.279V5.53597Z" fill="#359EFF"/>
</svg>
