<svg width="235" height="30" viewBox="0 0 235 30" fill="none" xmlns="http://www.w3.org/2000/svg">
<path d="M0.68 23V15.2C0.68 13.36 1.168 11.96 2.144 11C3.12 10.024 4.664 9.536 6.776 9.536C8.904 9.536 10.44 10.024 11.384 11C12.344 11.96 12.824 13.36 12.824 15.2V23H9.248V15.152C9.248 14.304 9.048 13.64 8.648 13.16C8.264 12.664 7.624 12.416 6.728 12.416C5.848 12.416 5.208 12.664 4.808 13.16C4.424 13.64 4.232 14.304 4.232 15.152V17.24L4.304 17.264C4.608 16.64 4.968 16.232 5.384 16.04C5.8 15.832 6.384 15.728 7.136 15.728H7.688V18.416H7.136C6.336 18.416 5.728 18.552 5.312 18.824C4.896 19.096 4.608 19.456 4.448 19.904C4.304 20.336 4.232 20.824 4.232 21.368V23H0.68ZM9.51856 29.264V27.128C9.51856 26.728 9.34256 26.528 8.99056 26.528C8.91056 26.528 8.83056 26.536 8.75056 26.552C8.67056 26.584 8.59056 26.608 8.51056 26.624L8.34256 24.896C8.56656 24.816 8.87056 24.736 9.25456 24.656C9.63856 24.576 10.0386 24.536 10.4546 24.536C11.2386 24.536 11.7906 24.688 12.1106 24.992C12.4306 25.312 12.5906 25.744 12.5906 26.288V29.264H9.51856ZM18.9796 23.24C17.9556 23.24 17.1316 22.992 16.5076 22.496C15.8996 21.984 15.5956 21.208 15.5956 20.168V18.608C15.5956 17.664 15.7956 16.968 16.1956 16.52C16.6116 16.072 17.1956 15.736 17.9476 15.512L17.9716 15.416L15.3556 14.48V13.856C15.3556 13.04 15.5796 12.312 16.0276 11.672C16.4916 11.016 17.1636 10.496 18.0436 10.112C18.9236 9.728 19.9956 9.536 21.2596 9.536C23.0196 9.536 24.4116 9.944 25.4356 10.76C26.4756 11.56 26.9956 12.76 26.9956 14.36V17.96C26.9956 18.728 27.1636 19.28 27.4996 19.616C27.8356 19.952 28.2516 20.12 28.7476 20.12C29.4356 20.12 29.9876 19.832 30.4036 19.256C30.8196 18.68 31.0276 17.912 31.0276 16.952V9.848H34.6276V23H31.8436L31.4356 20.936H31.2436C30.9556 21.608 30.4836 22.16 29.8276 22.592C29.1876 23.024 28.3876 23.24 27.4276 23.24C26.1156 23.24 25.1236 22.896 24.4516 22.208C23.7956 21.504 23.4676 20.4 23.4676 18.896V14.624C23.4676 13.776 23.2516 13.192 22.8196 12.872C22.3876 12.536 21.8516 12.368 21.2116 12.368C20.6036 12.368 20.0996 12.504 19.6996 12.776C19.2996 13.032 19.0836 13.424 19.0516 13.952L21.1396 14.96L20.8996 16.52C20.3076 16.536 19.8596 16.68 19.5556 16.952C19.2516 17.208 19.0996 17.664 19.0996 18.32V19.784C19.0996 20.44 19.4196 20.768 20.0596 20.768C20.3796 20.768 20.6596 20.72 20.8996 20.624L21.2356 22.76C20.6276 23.08 19.8756 23.24 18.9796 23.24ZM41.4562 23.312C40.6402 23.312 39.8722 23.216 39.1522 23.024C38.4322 22.848 37.7602 22.592 37.1362 22.256L38.0962 19.64C38.4482 19.848 38.8722 20.032 39.3682 20.192C39.8642 20.352 40.3522 20.432 40.8322 20.432C41.7282 20.432 42.4402 20.096 42.9682 19.424C43.4962 18.736 43.7602 17.712 43.7602 16.352C43.7602 15.088 43.4962 14.12 42.9682 13.448C42.4402 12.76 41.6162 12.416 40.4962 12.416C39.9682 12.416 39.4242 12.496 38.8642 12.656C38.3042 12.8 37.8402 12.984 37.4722 13.208V10.256C37.9682 10.032 38.5282 9.856 39.1522 9.728C39.7762 9.6 40.4402 9.536 41.1442 9.536C43.3522 9.536 44.9522 10.144 45.9442 11.36C46.9362 12.56 47.4322 14.224 47.4322 16.352C47.4322 18.64 46.9122 20.376 45.8722 21.56C44.8322 22.728 43.3602 23.312 41.4562 23.312ZM36.0348 8.024V6.512L38.4588 5.504H47.0268V8.024H36.0348ZM62.4483 27.704C61.7283 27.704 61.0083 27.632 60.2883 27.488C59.5683 27.36 58.9043 27.16 58.2963 26.888V23.84C58.7123 24.112 59.2403 24.344 59.8803 24.536C60.5363 24.728 61.2243 24.824 61.9443 24.824C62.9683 24.824 63.7683 24.592 64.3443 24.128C64.9363 23.664 65.2323 22.92 65.2323 21.896V21.2H65.0643C64.7603 21.648 64.3203 22.032 63.7443 22.352C63.1843 22.672 62.4563 22.832 61.5603 22.832C60.3603 22.832 59.3923 22.504 58.6563 21.848C57.9203 21.176 57.5523 20.112 57.5523 18.656V14.624C57.5523 13.776 57.3363 13.192 56.9043 12.872C56.4723 12.536 55.9363 12.368 55.2963 12.368C54.6883 12.368 54.1843 12.504 53.7843 12.776C53.3843 13.032 53.1683 13.424 53.1363 13.952L55.2243 14.96L54.9843 16.52C54.3923 16.536 53.9443 16.68 53.6403 16.952C53.3363 17.208 53.1843 17.664 53.1843 18.32V19.784C53.1843 20.44 53.5043 20.768 54.1443 20.768C54.4643 20.768 54.7443 20.72 54.9843 20.624L55.3203 22.76C54.7123 23.08 53.9603 23.24 53.0643 23.24C52.0403 23.24 51.2163 22.992 50.5923 22.496C49.9843 21.984 49.6803 21.208 49.6803 20.168V18.608C49.6803 17.664 49.8803 16.968 50.2803 16.52C50.6963 16.072 51.2803 15.736 52.0323 15.512L52.0563 15.416L49.4403 14.48V13.856C49.4403 13.04 49.6643 12.312 50.1123 11.672C50.5763 11.016 51.2483 10.496 52.1283 10.112C53.0083 9.728 54.0803 9.536 55.3443 9.536C57.1043 9.536 58.4963 9.944 59.5203 10.76C60.5603 11.56 61.0803 12.76 61.0803 14.36V17.576C61.0803 18.344 61.2483 18.896 61.5843 19.232C61.9203 19.568 62.3363 19.736 62.8323 19.736C63.5203 19.736 64.0723 19.448 64.4883 18.872C64.9043 18.296 65.1123 17.528 65.1123 16.568V9.848H68.7123V21.392C68.7123 23.52 68.1763 25.104 67.1043 26.144C66.0483 27.184 64.4963 27.704 62.4483 27.704ZM85.0689 23.312C83.1969 23.312 81.8129 22.88 80.9169 22.016C80.0369 21.152 79.5969 19.792 79.5969 17.936V14.624C79.5969 13.776 79.3969 13.192 78.9969 12.872C78.5969 12.536 78.0769 12.368 77.4369 12.368C76.8129 12.368 76.3169 12.504 75.9489 12.776C75.5969 13.032 75.4049 13.424 75.3729 13.952L77.4609 14.96L77.2209 16.52C76.6289 16.536 76.1809 16.68 75.8769 16.952C75.5729 17.208 75.4209 17.664 75.4209 18.32V19.784C75.4209 20.44 75.7409 20.768 76.3809 20.768C76.7009 20.768 76.9809 20.72 77.2209 20.624L77.5569 22.76C76.9489 23.08 76.1969 23.24 75.3009 23.24C74.2769 23.24 73.4529 22.992 72.8289 22.496C72.2209 21.984 71.9169 21.208 71.9169 20.168V18.608C71.9169 17.664 72.1169 16.968 72.5169 16.52C72.9329 16.072 73.5169 15.736 74.2689 15.512L74.2929 15.416L71.6769 14.48V13.856C71.6769 13.04 71.9009 12.312 72.3489 11.672C72.7969 11.016 73.4449 10.496 74.2929 10.112C75.1569 9.728 76.2049 9.536 77.4369 9.536C78.5409 9.536 79.5169 9.712 80.3649 10.064C81.2289 10.4 81.9009 10.92 82.3809 11.624C82.8769 12.328 83.1249 13.216 83.1249 14.288V18.224C83.1249 19.008 83.3009 19.576 83.6529 19.928C84.0049 20.264 84.4689 20.432 85.0449 20.432C85.6209 20.432 86.0849 20.264 86.4369 19.928C86.7889 19.576 86.9649 19.008 86.9649 18.224V9.848H90.5649V17.936C90.5649 19.792 90.1169 21.152 89.2209 22.016C88.3249 22.88 86.9409 23.312 85.0689 23.312ZM86.3452 29.36C85.0652 29.36 84.1292 29.168 83.5372 28.784C82.9452 28.4 82.6492 27.896 82.6492 27.272V26.864C82.6492 26.592 82.5772 26.424 82.4332 26.36C82.2892 26.312 82.0972 26.32 81.8572 26.384L81.6892 24.776C81.8972 24.68 82.1852 24.616 82.5532 24.584C82.9052 24.552 83.1932 24.536 83.4172 24.536C84.1052 24.536 84.6092 24.664 84.9292 24.92C85.2492 25.176 85.4092 25.536 85.4092 26V26.552C85.4092 26.824 85.4732 27.032 85.6012 27.176C85.7132 27.336 85.9292 27.416 86.2492 27.416C86.5852 27.416 86.8172 27.336 86.9452 27.176C87.0732 27.032 87.1372 26.824 87.1372 26.552V24.608H90.0652V26.936C90.0652 27.736 89.7692 28.336 89.1772 28.736C88.5852 29.152 87.6412 29.36 86.3452 29.36ZM104.674 23.312C102.722 23.312 101.274 22.84 100.33 21.896C99.3859 20.936 98.9139 19.52 98.9139 17.648C98.9139 17.344 98.9219 16.96 98.9379 16.496C98.9699 16.032 99.0099 15.624 99.0579 15.272H104.818V17.552H102.442V17.888C102.442 18.848 102.618 19.552 102.97 20C103.338 20.432 103.898 20.648 104.65 20.648C105.45 20.648 106.074 20.368 106.522 19.808C106.97 19.248 107.194 18.208 107.194 16.688C107.194 15.264 106.938 14.2 106.426 13.496C105.93 12.776 105.026 12.416 103.714 12.416C102.994 12.416 102.25 12.528 101.482 12.752C100.714 12.976 100.082 13.224 99.5859 13.496V10.496C100.098 10.224 100.802 10 101.698 9.824C102.594 9.632 103.49 9.536 104.386 9.536C105.938 9.536 107.186 9.824 108.13 10.4C109.09 10.96 109.786 11.76 110.218 12.8C110.666 13.84 110.89 15.072 110.89 16.496C110.89 18.688 110.402 20.376 109.426 21.56C108.45 22.728 106.866 23.312 104.674 23.312ZM118.156 23.24C116.86 23.24 115.828 22.96 115.06 22.4C114.292 21.824 113.74 21.04 113.404 20.048C113.068 19.04 112.9 17.888 112.9 16.592C112.9 15.2 113.052 14.048 113.356 13.136C113.676 12.208 114.124 11.488 114.7 10.976C115.276 10.448 115.956 10.08 116.74 9.872C117.54 9.648 118.412 9.536 119.356 9.536C120.78 9.536 121.924 9.736 122.788 10.136C123.668 10.536 124.3 11.104 124.684 11.84C125.084 12.576 125.284 13.44 125.284 14.432V23H121.684V14.72C121.684 13.968 121.5 13.4 121.132 13.016C120.78 12.616 120.188 12.416 119.356 12.416C118.796 12.416 118.3 12.536 117.868 12.776C117.452 13 117.124 13.408 116.884 14C116.66 14.592 116.548 15.44 116.548 16.544C116.548 17.68 116.716 18.6 117.052 19.304C117.388 20.008 117.972 20.36 118.804 20.36C119.156 20.36 119.476 20.32 119.764 20.24L120.1 22.928C119.844 23.04 119.532 23.12 119.164 23.168C118.812 23.216 118.476 23.24 118.156 23.24ZM113.55 8.024V6.512L115.974 5.504H124.542V8.024H113.55ZM128.159 23V15.2C128.159 13.36 128.647 11.96 129.623 11C130.599 10.024 132.151 9.536 134.279 9.536C134.919 9.536 135.511 9.6 136.055 9.728C136.599 9.84 137.079 10.04 137.495 10.328C138.007 9.976 138.271 9.528 138.287 8.984H141.431C141.431 9.592 141.279 10.168 140.975 10.712C140.671 11.256 140.175 11.704 139.487 12.056C139.791 12.44 140.007 12.904 140.135 13.448C140.263 13.976 140.327 14.568 140.327 15.224V23H136.751V15.152C136.751 14.304 136.551 13.64 136.151 13.16C135.767 12.664 135.135 12.416 134.255 12.416C133.359 12.416 132.711 12.664 132.311 13.16C131.927 13.64 131.735 14.304 131.735 15.152V17.24L131.807 17.264C132.127 16.64 132.495 16.232 132.911 16.04C133.327 15.832 133.903 15.728 134.639 15.728H135.215V18.416H134.639C133.839 18.416 133.231 18.552 132.815 18.824C132.399 19.096 132.111 19.456 131.951 19.904C131.807 20.336 131.735 20.824 131.735 21.368V23H128.159ZM135.957 8.024C135.205 8.024 134.613 7.912 134.181 7.688C133.749 7.464 133.445 7.184 133.269 6.848C133.077 6.496 132.981 6.128 132.981 5.744C132.981 5.136 133.141 4.552 133.461 3.992L136.077 4.328C135.997 4.568 135.957 4.792 135.957 5C135.957 5.224 136.029 5.4 136.173 5.528C136.301 5.64 136.525 5.696 136.845 5.696H142.005V8.024H135.957ZM143.38 23V18.992C143.38 17.984 143.572 17.208 143.956 16.664C144.356 16.12 144.932 15.736 145.684 15.512L145.708 15.416L143.14 14.48V13.856C143.14 13.072 143.372 12.352 143.836 11.696C144.3 11.04 144.98 10.52 145.876 10.136C146.788 9.736 147.892 9.536 149.188 9.536C150.996 9.536 152.436 9.96 153.508 10.808C154.58 11.64 155.116 12.904 155.116 14.6V23H151.516V14.816C151.516 14.016 151.3 13.416 150.868 13.016C150.452 12.616 149.86 12.416 149.092 12.416C148.34 12.416 147.78 12.576 147.412 12.896C147.044 13.2 146.852 13.576 146.836 14.024L148.972 15.008L148.708 16.568C148.132 16.6 147.7 16.808 147.412 17.192C147.124 17.576 146.98 18.096 146.98 18.752V23H143.38ZM162.964 23.24C161.668 23.24 160.636 22.96 159.868 22.4C159.1 21.824 158.548 21.04 158.212 20.048C157.876 19.04 157.708 17.888 157.708 16.592C157.708 15.2 157.86 14.048 158.164 13.136C158.484 12.208 158.932 11.488 159.508 10.976C160.084 10.448 160.764 10.08 161.548 9.872C162.348 9.648 163.22 9.536 164.164 9.536C165.588 9.536 166.732 9.736 167.596 10.136C168.476 10.536 169.108 11.104 169.492 11.84C169.892 12.576 170.092 13.44 170.092 14.432V23H166.492V14.72C166.492 13.968 166.308 13.4 165.94 13.016C165.588 12.616 164.996 12.416 164.164 12.416C163.604 12.416 163.108 12.536 162.676 12.776C162.26 13 161.932 13.408 161.692 14C161.468 14.592 161.356 15.44 161.356 16.544C161.356 17.68 161.524 18.6 161.86 19.304C162.196 20.008 162.78 20.36 163.612 20.36C163.964 20.36 164.284 20.32 164.572 20.24L164.908 22.928C164.652 23.04 164.34 23.12 163.972 23.168C163.62 23.216 163.284 23.24 162.964 23.24ZM158.358 8.024V6.512L160.782 5.504H169.35V8.024H158.358ZM165.462 5.128C165.27 4.84 165.134 4.52 165.054 4.168C164.958 3.816 164.91 3.48 164.91 3.16C164.91 2.744 165.014 2.352 165.222 1.984C165.43 1.616 165.798 1.32 166.326 1.096C166.854 0.855999 167.59 0.735999 168.534 0.735999H171.174V2.848H168.918C168.134 2.848 167.742 3.144 167.742 3.736C167.742 3.864 167.758 4.008 167.79 4.168C167.822 4.312 167.878 4.448 167.958 4.576L165.462 5.128ZM177.743 23.24C176.319 23.24 175.207 22.952 174.407 22.376C173.623 21.784 173.071 20.968 172.751 19.928C172.447 18.872 172.295 17.648 172.295 16.256C172.295 13.936 172.639 12.248 173.327 11.192C174.015 10.136 175.039 9.608 176.399 9.608C176.959 9.608 177.447 9.72 177.863 9.944C178.295 10.152 178.639 10.544 178.895 11.12H178.991C179.215 10.528 179.583 10.128 180.095 9.92C180.607 9.712 181.159 9.608 181.751 9.608C182.855 9.608 183.679 9.904 184.223 10.496C184.783 11.088 185.063 11.952 185.063 13.088V23H181.463V13.76C181.463 13.264 181.383 12.928 181.223 12.752C181.063 12.576 180.847 12.488 180.575 12.488C180.271 12.488 180.039 12.576 179.879 12.752C179.735 12.928 179.639 13.224 179.591 13.64H178.175C178.111 13.192 177.991 12.888 177.815 12.728C177.639 12.568 177.431 12.488 177.191 12.488C176.775 12.488 176.463 12.776 176.255 13.352C176.047 13.928 175.943 14.904 175.943 16.28C175.943 17.64 176.103 18.688 176.423 19.424C176.743 20.144 177.367 20.504 178.295 20.504C178.679 20.504 178.991 20.456 179.231 20.36L179.591 22.928C179.079 23.136 178.463 23.24 177.743 23.24ZM192.702 23.312C191.758 23.312 190.806 23.208 189.846 23C188.902 22.792 188.062 22.496 187.326 22.112L188.334 19.256C188.814 19.512 189.43 19.784 190.182 20.072C190.934 20.344 191.726 20.48 192.558 20.48C193.854 20.48 194.502 20.104 194.502 19.352C194.502 18.936 194.254 18.616 193.758 18.392C193.278 18.152 192.606 17.88 191.742 17.576C190.894 17.288 190.166 16.968 189.558 16.616C188.95 16.264 188.478 15.832 188.142 15.32C187.822 14.808 187.662 14.16 187.662 13.376C187.662 12.064 188.15 11.096 189.126 10.472C190.118 9.848 191.438 9.536 193.086 9.536C193.982 9.536 194.79 9.616 195.51 9.776C196.23 9.92 196.79 10.096 197.19 10.304V13.136C196.774 12.944 196.182 12.76 195.414 12.584C194.662 12.392 193.942 12.296 193.254 12.296C191.926 12.296 191.262 12.632 191.262 13.304C191.262 13.688 191.518 13.992 192.03 14.216C192.558 14.424 193.294 14.688 194.238 15.008C195.486 15.44 196.438 15.96 197.094 16.568C197.766 17.176 198.102 18.04 198.102 19.16C198.102 19.88 197.934 20.56 197.598 21.2C197.278 21.824 196.726 22.336 195.942 22.736C195.158 23.12 194.078 23.312 192.702 23.312ZM202.628 15.248C201.524 15.248 200.748 15.008 200.3 14.528C199.868 14.032 199.652 13.464 199.652 12.824C199.652 12.264 199.812 11.688 200.132 11.096L202.748 11.432C202.668 11.672 202.628 11.928 202.628 12.2C202.628 12.424 202.692 12.592 202.82 12.704C202.948 12.816 203.172 12.872 203.492 12.872H206.204V15.248H202.628ZM202.628 21.968C201.524 21.968 200.748 21.728 200.3 21.248C199.868 20.752 199.652 20.184 199.652 19.544C199.652 18.984 199.812 18.408 200.132 17.816L202.748 18.152C202.668 18.392 202.628 18.648 202.628 18.92C202.628 19.144 202.692 19.312 202.82 19.424C202.948 19.536 203.172 19.592 203.492 19.592H206.204V21.968H202.628ZM208.614 23V18.992C208.614 17.984 208.806 17.208 209.19 16.664C209.59 16.12 210.166 15.736 210.918 15.512L210.942 15.416L208.374 14.48V13.856C208.374 13.072 208.606 12.352 209.07 11.696C209.534 11.04 210.214 10.52 211.11 10.136C212.022 9.736 213.126 9.536 214.422 9.536C216.23 9.536 217.67 9.96 218.742 10.808C219.814 11.64 220.35 12.904 220.35 14.6V23H216.75V14.816C216.75 14.016 216.534 13.416 216.102 13.016C215.686 12.616 215.094 12.416 214.326 12.416C213.574 12.416 213.014 12.576 212.646 12.896C212.278 13.2 212.086 13.576 212.07 14.024L214.206 15.008L213.942 16.568C213.366 16.6 212.934 16.808 212.646 17.192C212.358 17.576 212.214 18.096 212.214 18.752V23H208.614ZM216.433 29.36C215.153 29.36 214.217 29.168 213.625 28.784C213.033 28.4 212.737 27.896 212.737 27.272V26.864C212.737 26.592 212.665 26.424 212.521 26.36C212.377 26.312 212.185 26.32 211.945 26.384L211.777 24.776C211.985 24.68 212.273 24.616 212.641 24.584C212.993 24.552 213.281 24.536 213.505 24.536C214.193 24.536 214.697 24.664 215.017 24.92C215.337 25.176 215.497 25.536 215.497 26V26.552C215.497 26.824 215.561 27.032 215.689 27.176C215.801 27.336 216.017 27.416 216.337 27.416C216.673 27.416 216.905 27.336 217.033 27.176C217.161 27.032 217.225 26.824 217.225 26.552V24.608H220.153V26.936C220.153 27.736 219.857 28.336 219.265 28.736C218.673 29.152 217.729 29.36 216.433 29.36ZM226.782 23.24C225.406 23.24 224.342 22.912 223.59 22.256C222.854 21.6 222.486 20.68 222.486 19.496C222.486 18.216 222.942 17.192 223.854 16.424C224.782 15.656 226.238 15.192 228.222 15.032L230.718 14.84V14.456C230.718 13.688 230.51 13.136 230.094 12.8C229.678 12.464 229.038 12.296 228.174 12.296C227.342 12.296 226.526 12.424 225.726 12.68C224.942 12.92 224.262 13.208 223.686 13.544V10.568C224.15 10.344 224.806 10.12 225.654 9.896C226.502 9.656 227.486 9.536 228.606 9.536C229.694 9.536 230.662 9.696 231.51 10.016C232.358 10.32 233.022 10.84 233.502 11.576C233.998 12.312 234.246 13.32 234.246 14.6V23H230.718V17.432L228.63 17.648C227.67 17.744 226.998 17.936 226.614 18.224C226.246 18.512 226.062 18.896 226.062 19.376C226.062 19.856 226.214 20.216 226.518 20.456C226.822 20.696 227.23 20.816 227.742 20.816C227.934 20.816 228.126 20.8 228.318 20.768C228.51 20.72 228.686 20.672 228.846 20.624L229.158 22.88C228.854 22.992 228.494 23.08 228.078 23.144C227.662 23.208 227.23 23.24 226.782 23.24Z" fill="#1F2883"/>
</svg>
