<svg width="293" height="18" viewBox="0 0 293 18" fill="none" xmlns="http://www.w3.org/2000/svg">
<path d="M4.117 15.17C2.77967 15.17 1.822 14.864 1.244 14.252C0.666 13.64 0.377 12.7673 0.377 11.634V5.684H1.89V11.651C1.89 13.1583 2.63233 13.912 4.117 13.912C4.88767 13.912 5.45433 13.725 5.817 13.351C6.191 12.977 6.378 12.4103 6.378 11.651V5.684H7.891V11.634C7.891 12.7673 7.59633 13.64 7.007 14.252C6.429 14.864 5.46567 15.17 4.117 15.17ZM13.2548 15.17C12.5861 15.17 11.9628 15.1077 11.3848 14.983C10.8181 14.847 10.3364 14.6883 9.93977 14.507L10.3818 13.283C10.7444 13.4303 11.1751 13.572 11.6738 13.708C12.1838 13.844 12.7221 13.912 13.2888 13.912C13.8894 13.912 14.3881 13.7987 14.7848 13.572C15.1814 13.3453 15.3798 13.0167 15.3798 12.586C15.3798 12.2007 15.2211 11.8833 14.9038 11.634C14.5864 11.3847 14.0764 11.1523 13.3738 10.937C12.6484 10.7103 12.0421 10.4723 11.5548 10.223C11.0674 9.96233 10.6934 9.65633 10.4328 9.305C10.1834 8.95367 10.0588 8.506 10.0588 7.962C10.0588 7.25933 10.3478 6.67567 10.9258 6.211C11.5038 5.74633 12.4274 5.514 13.6968 5.514C14.2408 5.514 14.7508 5.565 15.2268 5.667C15.7141 5.75767 16.0938 5.888 16.3658 6.058V7.333C16.0711 7.197 15.6744 7.06667 15.1758 6.942C14.6884 6.81733 14.1784 6.755 13.6458 6.755C12.8751 6.755 12.3368 6.874 12.0308 7.112C11.7248 7.33867 11.5718 7.59933 11.5718 7.894C11.5718 8.14333 11.6398 8.353 11.7758 8.523C11.9231 8.693 12.1668 8.85733 12.5068 9.016C12.8581 9.17467 13.3284 9.356 13.9178 9.56C14.4618 9.74133 14.9604 9.951 15.4138 10.189C15.8671 10.427 16.2241 10.7273 16.4848 11.09C16.7568 11.4413 16.8928 11.8947 16.8928 12.45C16.8928 12.926 16.7738 13.3737 16.5358 13.793C16.3091 14.201 15.9294 14.5353 15.3968 14.796C14.8641 15.0453 14.1501 15.17 13.2548 15.17ZM9.65263 4.205V3.542L10.8936 2.998H16.8776V4.205H9.65263ZM22.8135 15.17C21.4082 15.17 20.4109 14.8583 19.8215 14.235C19.2322 13.6003 18.9375 12.705 18.9375 11.549V5.684H20.4505V11.566C20.4505 12.3593 20.6375 12.9487 21.0115 13.334C21.3855 13.7193 21.9862 13.912 22.8135 13.912C23.6409 13.912 24.2415 13.7193 24.6155 13.334C24.9895 12.9487 25.1765 12.3593 25.1765 11.566V11.158H23.8505C23.1252 11.158 22.6265 11.005 22.3545 10.699C22.0939 10.393 21.9635 10.053 21.9635 9.679C21.9635 9.509 21.9805 9.33333 22.0145 9.152C22.0599 8.97067 22.1279 8.81767 22.2185 8.693L23.4425 8.914C23.3745 9.05 23.3405 9.21433 23.3405 9.407C23.3405 9.55433 23.3802 9.69033 23.4595 9.815C23.5502 9.93967 23.7032 10.002 23.9185 10.002H25.1765V5.684H26.6895V10.002H27.7775V11.158H26.6895V11.549C26.6895 12.705 26.3949 13.6003 25.8055 14.235C25.2162 14.8583 24.2189 15.17 22.8135 15.17ZM24.5301 4.205C23.8161 4.205 23.3118 4.06333 23.0171 3.78C22.7225 3.48533 22.5751 3.15667 22.5751 2.794C22.5751 2.624 22.6035 2.44267 22.6601 2.25C22.7055 2.046 22.7678 1.88167 22.8471 1.757L24.1221 1.978C24.0541 2.114 24.0201 2.28967 24.0201 2.505C24.0201 2.65233 24.0655 2.78267 24.1561 2.896C24.2468 2.998 24.3998 3.049 24.6151 3.049H28.9161V4.205H24.5301ZM29.8626 15V5.684H30.9166L31.1886 7.163H31.2566C31.4492 6.653 31.8006 6.25067 32.3106 5.956C32.8206 5.66133 33.4382 5.514 34.1636 5.514C35.1722 5.514 35.9656 5.77467 36.5436 6.296C37.1216 6.81733 37.4106 7.64467 37.4106 8.778V15H35.8976V8.863C35.8976 7.48033 35.2232 6.789 33.8746 6.789C33.3419 6.789 32.8886 6.91367 32.5146 7.163C32.1406 7.41233 31.8572 7.75233 31.6646 8.183C31.4719 8.60233 31.3756 9.07833 31.3756 9.611V15H29.8626ZM47.902 15.17C46.8366 15.17 46.0206 14.9093 45.454 14.388C44.8873 13.8667 44.604 13.0903 44.604 12.059V10.988C44.604 10.3307 44.7173 9.815 44.944 9.441C45.1706 9.067 45.4256 8.71567 45.709 8.387C45.879 8.19433 46.032 8.01867 46.168 7.86C46.304 7.69 46.3776 7.52 46.389 7.35L46.338 7.316C46.2133 7.40667 46.066 7.486 45.896 7.554C45.7373 7.61067 45.556 7.639 45.352 7.639C44.944 7.639 44.6096 7.503 44.349 7.231C44.0883 6.94767 43.958 6.551 43.958 6.041V5.684H45.284C45.284 6.33 45.4653 6.653 45.828 6.653C45.9413 6.653 46.066 6.63033 46.202 6.585C46.3493 6.53967 46.4796 6.47167 46.593 6.381L46.916 5.684H47.749V6.449C47.749 6.77767 47.7376 7.06667 47.715 7.316C47.6923 7.56533 47.63 7.809 47.528 8.047C47.426 8.27367 47.256 8.54 47.018 8.846C46.8366 9.07267 46.678 9.271 46.542 9.441C46.4173 9.611 46.3153 9.80367 46.236 10.019C46.1566 10.2343 46.117 10.5177 46.117 10.869V11.974C46.117 12.518 46.202 12.9317 46.372 13.215C46.542 13.487 46.763 13.674 47.035 13.776C47.307 13.878 47.596 13.929 47.902 13.929C48.4913 13.929 48.9446 13.7987 49.262 13.538C49.5793 13.266 49.738 12.8523 49.738 12.297V9.917C49.738 9.05567 49.3243 8.625 48.497 8.625H48.429V7.656H48.514C48.9673 7.656 49.2903 7.54833 49.483 7.333C49.687 7.11767 49.806 6.857 49.84 6.551C49.8853 6.245 49.908 5.956 49.908 5.684H51.421C51.421 6.28467 51.3416 6.79467 51.183 7.214C51.0243 7.622 50.6956 7.91667 50.197 8.098V8.166C50.6163 8.29067 50.894 8.51733 51.03 8.846C51.1773 9.17467 51.251 9.58267 51.251 10.07V12.382C51.251 13.2547 50.962 13.9403 50.384 14.439C49.806 14.9263 48.9786 15.17 47.902 15.17ZM49.4325 4.205C48.7185 4.205 48.2142 4.06333 47.9195 3.78C47.6248 3.48533 47.4775 3.15667 47.4775 2.794C47.4775 2.624 47.5058 2.44267 47.5625 2.25C47.6078 2.046 47.6702 1.88167 47.7495 1.757L49.0245 1.978C48.9565 2.114 48.9225 2.28967 48.9225 2.505C48.9225 2.65233 48.9678 2.78267 49.0585 2.896C49.1492 2.998 49.3022 3.049 49.5175 3.049H53.8185V4.205H49.4325ZM55.5633 15L52.6562 5.684H54.1863L56.7023 13.691H56.9062C57.1783 13.691 57.4446 13.6287 57.7053 13.504C57.9659 13.368 58.1869 13.198 58.3683 12.994C58.7083 12.62 58.9576 12.1497 59.1163 11.583C59.2749 11.005 59.3543 10.4383 59.3543 9.883C59.3543 8.94233 59.1389 8.20567 58.7083 7.673C58.2889 7.129 57.7053 6.857 56.9573 6.857C56.6513 6.857 56.3906 6.89667 56.1753 6.976L55.8013 5.769C56.0393 5.701 56.2603 5.65567 56.4643 5.633C56.6796 5.61033 56.8723 5.599 57.0423 5.599C58.1529 5.599 59.0426 5.922 59.7113 6.568C60.1079 6.95333 60.3969 7.435 60.5783 8.013C60.7709 8.591 60.8673 9.23133 60.8673 9.934C60.8673 10.818 60.7313 11.6057 60.4593 12.297C60.1873 12.977 59.8473 13.521 59.4393 13.929C59.1106 14.2577 58.7083 14.5183 58.2323 14.711C57.7563 14.9037 57.1499 15 56.4133 15H55.5633ZM64.0991 15L62.4841 5.684H64.0311L64.6261 9.73C64.6374 9.84333 64.6601 10.07 64.6941 10.41C64.7394 10.75 64.7848 11.141 64.8301 11.583C64.8868 12.025 64.9378 12.45 64.9831 12.858H65.0681C65.1474 12.3933 65.2551 11.9003 65.3911 11.379C65.5271 10.8463 65.6801 10.2797 65.8501 9.679L67.0061 5.684H68.2301L69.3861 9.679C69.5561 10.2797 69.7034 10.8463 69.8281 11.379C69.9641 11.9003 70.0774 12.3933 70.1681 12.858H70.2361C70.3041 12.1667 70.3608 11.5547 70.4061 11.022C70.4628 10.4893 70.5138 10.0587 70.5591 9.73L71.5281 2.335H73.0241L71.1541 15H69.6581L68.1111 9.934C68.0318 9.696 67.9581 9.41267 67.8901 9.084C67.8221 8.75533 67.7484 8.34167 67.6691 7.843H67.6011C67.5104 8.34167 67.4311 8.74967 67.3631 9.067C67.2951 9.373 67.2158 9.662 67.1251 9.934L65.5781 15H64.0991ZM78.05 15.17C76.826 15.17 75.908 14.8527 75.296 14.218C74.6953 13.5833 74.395 12.5747 74.395 11.192C74.395 10.9653 74.4007 10.7217 74.412 10.461C74.4347 10.189 74.4573 9.92267 74.48 9.662H78.05V10.852H75.908V11.192C75.908 11.9173 75.9873 12.4783 76.146 12.875C76.3047 13.2717 76.537 13.5493 76.843 13.708C77.1603 13.8667 77.5513 13.946 78.016 13.946C78.526 13.946 78.968 13.8497 79.342 13.657C79.716 13.4643 80.005 13.113 80.209 12.603C80.413 12.093 80.515 11.362 80.515 10.41C80.515 9.16333 80.2997 8.24533 79.869 7.656C79.4497 7.06667 78.7187 6.772 77.676 6.772C77.132 6.772 76.6107 6.84567 76.112 6.993C75.6247 7.129 75.1543 7.32733 74.701 7.588V6.177C75.041 5.99567 75.4887 5.84267 76.044 5.718C76.5993 5.582 77.2057 5.514 77.863 5.514C78.8603 5.514 79.665 5.718 80.277 6.126C80.9003 6.52267 81.3537 7.08933 81.637 7.826C81.9203 8.55133 82.062 9.41267 82.062 10.41C82.062 11.4073 81.9317 12.263 81.671 12.977C81.4103 13.691 80.9853 14.235 80.396 14.609C79.818 14.983 79.036 15.17 78.05 15.17ZM87.1317 15.17C86.4631 15.17 85.8397 15.1077 85.2617 14.983C84.6951 14.847 84.2134 14.6883 83.8167 14.507L84.2587 13.283C84.6214 13.4303 85.0521 13.572 85.5507 13.708C86.0607 13.844 86.5991 13.912 87.1657 13.912C87.7664 13.912 88.2651 13.7987 88.6617 13.572C89.0584 13.3453 89.2567 13.0167 89.2567 12.586C89.2567 12.2007 89.0981 11.8833 88.7807 11.634C88.4634 11.3847 87.9534 11.1523 87.2507 10.937C86.5254 10.7103 85.9191 10.4723 85.4317 10.223C84.9444 9.96233 84.5704 9.65633 84.3097 9.305C84.0604 8.95367 83.9357 8.506 83.9357 7.962C83.9357 7.25933 84.2247 6.67567 84.8027 6.211C85.3807 5.74633 86.3044 5.514 87.5737 5.514C88.1177 5.514 88.6277 5.565 89.1037 5.667C89.5911 5.75767 89.9707 5.888 90.2427 6.058V7.333C89.9481 7.197 89.5514 7.06667 89.0527 6.942C88.5654 6.81733 88.0554 6.755 87.5227 6.755C86.7521 6.755 86.2137 6.874 85.9077 7.112C85.6017 7.33867 85.4487 7.59933 85.4487 7.894C85.4487 8.14333 85.5167 8.353 85.6527 8.523C85.8001 8.693 86.0437 8.85733 86.3837 9.016C86.7351 9.17467 87.2054 9.356 87.7947 9.56C88.3387 9.74133 88.8374 9.951 89.2907 10.189C89.7441 10.427 90.1011 10.7273 90.3617 11.09C90.6337 11.4413 90.7697 11.8947 90.7697 12.45C90.7697 12.926 90.6507 13.3737 90.4127 13.793C90.1861 14.201 89.8064 14.5353 89.2737 14.796C88.7411 15.0453 88.0271 15.17 87.1317 15.17ZM87.9666 4.698C87.8872 4.58467 87.8249 4.426 87.7796 4.222C87.7229 4.018 87.6946 3.81967 87.6946 3.627C87.6946 3.389 87.7456 3.168 87.8476 2.964C87.9496 2.74867 88.1309 2.573 88.3916 2.437C88.6409 2.301 89.0036 2.233 89.4796 2.233H91.8086V3.406H89.8706C89.6439 3.406 89.4626 3.45133 89.3266 3.542C89.1906 3.62133 89.1226 3.763 89.1226 3.967C89.1226 4.04633 89.1396 4.13133 89.1736 4.222C89.1962 4.31267 89.2302 4.40333 89.2756 4.494L87.9666 4.698ZM99.3385 15.17C99.0325 15.17 98.7378 15.119 98.4545 15.017C98.1712 14.915 97.9388 14.7337 97.7575 14.473C97.5762 14.2123 97.4855 13.8497 97.4855 13.385V5.684H98.9985V13.198C98.9985 13.4587 99.0495 13.6457 99.1515 13.759C99.2648 13.8723 99.4518 13.929 99.7125 13.929C99.8145 13.929 99.9222 13.9177 100.036 13.895C100.149 13.8723 100.257 13.844 100.359 13.81L100.563 14.915C100.347 15.017 100.138 15.085 99.9335 15.119C99.7295 15.153 99.5312 15.17 99.3385 15.17ZM102.295 15V5.684H103.349L103.621 7.163H103.689C103.882 6.653 104.233 6.25067 104.743 5.956C105.253 5.66133 105.871 5.514 106.596 5.514C107.605 5.514 108.398 5.77467 108.976 6.296C109.554 6.81733 109.843 7.64467 109.843 8.778V15H108.33V8.863C108.33 7.48033 107.656 6.789 106.307 6.789C105.775 6.789 105.321 6.91367 104.947 7.163C104.573 7.41233 104.29 7.75233 104.097 8.183C103.905 8.60233 103.808 9.07833 103.808 9.611V15H102.295ZM112.604 15V9.05C112.604 7.91667 112.904 7.044 113.505 6.432C114.117 5.82 115.097 5.514 116.446 5.514C117.794 5.514 118.769 5.82 119.37 6.432C119.982 7.044 120.288 7.91667 120.288 9.05V15H118.775V9.05C118.775 7.53133 117.993 6.772 116.429 6.772C114.887 6.772 114.117 7.53133 114.117 9.05V10.937L114.168 10.954C114.417 10.512 114.723 10.223 115.086 10.087C115.448 9.93967 115.958 9.866 116.616 9.866H117.177V11.107H116.616C115.924 11.107 115.397 11.2033 115.035 11.396C114.683 11.5887 114.44 11.8437 114.304 12.161C114.179 12.467 114.117 12.8127 114.117 13.198V15H112.604ZM125.392 15.17C125.086 15.17 124.791 15.119 124.508 15.017C124.225 14.915 123.992 14.7337 123.811 14.473C123.63 14.2123 123.539 13.8497 123.539 13.385V4.052C123.539 3.372 123.375 2.88467 123.046 2.59C122.729 2.29533 122.321 2.148 121.822 2.148V1.502L123.08 0.957999H127.619V2.148H124.168L124.151 2.216C124.4 2.386 124.61 2.64667 124.78 2.998C124.961 3.338 125.052 3.78567 125.052 4.341V13.198C125.052 13.4587 125.103 13.6457 125.205 13.759C125.318 13.8723 125.505 13.929 125.766 13.929C125.868 13.929 125.976 13.9177 126.089 13.895C126.202 13.8723 126.31 13.844 126.412 13.81L126.616 14.915C126.401 15.017 126.191 15.085 125.987 15.119C125.783 15.153 125.585 15.17 125.392 15.17ZM131.389 15.17C130.391 15.17 129.604 14.9093 129.026 14.388C128.459 13.8667 128.176 13.0393 128.176 11.906V5.684H129.689V11.821C129.689 13.2037 130.363 13.895 131.712 13.895C132.505 13.895 133.117 13.64 133.548 13.13C133.99 12.62 134.211 11.9343 134.211 11.073V5.684H135.724V15H134.466L134.398 13.623H134.313C134.109 14.0877 133.752 14.4617 133.242 14.745C132.743 15.0283 132.125 15.17 131.389 15.17ZM140.948 15.17C140.642 15.17 140.347 15.119 140.064 15.017C139.78 14.915 139.548 14.7337 139.367 14.473C139.185 14.2123 139.095 13.8497 139.095 13.385V4.052C139.095 3.372 138.93 2.88467 138.602 2.59C138.284 2.29533 137.876 2.148 137.378 2.148V1.502L138.636 0.957999H143.175V2.148H139.724L139.707 2.216C139.956 2.386 140.166 2.64667 140.336 2.998C140.517 3.338 140.608 3.78567 140.608 4.341V13.198C140.608 13.4587 140.659 13.6457 140.761 13.759C140.874 13.8723 141.061 13.929 141.322 13.929C141.424 13.929 141.531 13.9177 141.645 13.895C141.758 13.8723 141.866 13.844 141.968 13.81L142.172 14.915C141.956 15.017 141.747 15.085 141.543 15.119C141.339 15.153 141.14 15.17 140.948 15.17ZM146.198 15.17C145.201 15.17 144.436 14.9433 143.903 14.49C143.382 14.0253 143.121 13.3623 143.121 12.501C143.121 11.5603 143.461 10.835 144.141 10.325C144.832 9.815 145.949 9.51467 147.49 9.424L149.122 9.322V8.795C149.122 8.05833 148.952 7.537 148.612 7.231C148.283 6.91367 147.728 6.755 146.946 6.755C146.379 6.755 145.835 6.83433 145.314 6.993C144.793 7.14033 144.305 7.35 143.852 7.622V6.211C144.169 6.041 144.611 5.88233 145.178 5.735C145.745 5.58767 146.379 5.514 147.082 5.514C148.272 5.514 149.156 5.77467 149.734 6.296C150.323 6.806 150.618 7.61067 150.618 8.71V15H149.122V10.58L147.694 10.682C146.538 10.7613 145.739 10.9427 145.297 11.226C144.866 11.5093 144.651 11.923 144.651 12.467C144.651 12.977 144.81 13.351 145.127 13.589C145.456 13.827 145.909 13.946 146.487 13.946C146.861 13.946 147.19 13.895 147.473 13.793L147.711 14.932C147.496 15.0227 147.258 15.085 146.997 15.119C146.748 15.153 146.481 15.17 146.198 15.17ZM156.964 15.153C155.581 15.153 154.607 14.8923 154.04 14.371C153.485 13.8497 153.207 13.147 153.207 12.263C153.207 11.7417 153.281 11.328 153.428 11.022C153.587 10.7047 153.779 10.4723 154.006 10.325C154.244 10.1777 154.488 10.0813 154.737 10.036V9.968C154.499 9.9 154.255 9.78667 154.006 9.628C153.768 9.46933 153.564 9.24833 153.394 8.965C153.235 8.68167 153.156 8.32467 153.156 7.894C153.156 7.50867 153.247 7.14033 153.428 6.789C153.609 6.42633 153.904 6.13167 154.312 5.905C154.72 5.67833 155.258 5.565 155.927 5.565C156.199 5.565 156.482 5.58767 156.777 5.633C157.072 5.667 157.298 5.72933 157.457 5.82L157.185 6.993C157.06 6.94767 156.896 6.908 156.692 6.874C156.499 6.82867 156.295 6.806 156.08 6.806C155.604 6.806 155.253 6.91933 155.026 7.146C154.799 7.36133 154.686 7.65033 154.686 8.013C154.686 8.40967 154.782 8.71 154.975 8.914C155.179 9.118 155.434 9.25967 155.74 9.339C156.057 9.407 156.386 9.441 156.726 9.441H157.049V10.546H156.726C156.046 10.546 155.542 10.6707 155.213 10.92C154.896 11.1693 154.737 11.5717 154.737 12.127C154.737 12.4557 154.799 12.756 154.924 13.028C155.06 13.3 155.287 13.5153 155.604 13.674C155.933 13.8327 156.386 13.912 156.964 13.912C157.825 13.912 158.415 13.7363 158.732 13.385C159.049 13.0337 159.208 12.5407 159.208 11.906V5.684H160.721V11.804C160.721 12.994 160.415 13.8497 159.803 14.371C159.202 14.8923 158.256 15.153 156.964 15.153ZM153.489 4.205V3.542L154.73 2.998H159.303V1.621H160.731V3.542H160.714V4.205H153.489ZM167.19 10.342C167.19 8.95933 167.388 7.62767 167.785 6.347C168.193 5.055 168.827 3.89333 169.689 2.862H171.1C170.306 3.92733 169.706 5.10033 169.298 6.381C168.901 7.66167 168.703 8.97633 168.703 10.325C168.703 11.6397 168.901 12.9317 169.298 14.201C169.706 15.459 170.301 16.6207 171.083 17.686H169.689C168.827 16.6887 168.193 15.561 167.785 14.303C167.388 13.0337 167.19 11.7133 167.19 10.342ZM176.723 15.17C175.386 15.17 174.428 14.864 173.85 14.252C173.272 13.64 172.983 12.7673 172.983 11.634V5.684H174.496V11.651C174.496 13.1583 175.239 13.912 176.723 13.912C177.494 13.912 178.061 13.725 178.423 13.351C178.797 12.977 178.984 12.4103 178.984 11.651V2.335H180.497V11.634C180.497 12.7673 180.203 13.64 179.613 14.252C179.035 14.864 178.072 15.17 176.723 15.17ZM185.894 15.17C185.226 15.17 184.602 15.1077 184.024 14.983C183.458 14.847 182.976 14.6883 182.579 14.507L183.021 13.283C183.384 13.4303 183.815 13.572 184.313 13.708C184.823 13.844 185.362 13.912 185.928 13.912C186.529 13.912 187.028 13.7987 187.424 13.572C187.821 13.3453 188.019 13.0167 188.019 12.586C188.019 12.2007 187.861 11.8833 187.543 11.634C187.226 11.3847 186.716 11.1523 186.013 10.937C185.288 10.7103 184.682 10.4723 184.194 10.223C183.707 9.96233 183.333 9.65633 183.072 9.305C182.823 8.95367 182.698 8.506 182.698 7.962C182.698 7.25933 182.987 6.67567 183.565 6.211C184.143 5.74633 185.067 5.514 186.336 5.514C186.88 5.514 187.39 5.565 187.866 5.667C188.354 5.75767 188.733 5.888 189.005 6.058V7.333C188.711 7.197 188.314 7.06667 187.815 6.942C187.328 6.81733 186.818 6.755 186.285 6.755C185.515 6.755 184.976 6.874 184.67 7.112C184.364 7.33867 184.211 7.59933 184.211 7.894C184.211 8.14333 184.279 8.353 184.415 8.523C184.563 8.693 184.806 8.85733 185.146 9.016C185.498 9.17467 185.968 9.356 186.557 9.56C187.101 9.74133 187.6 9.951 188.053 10.189C188.507 10.427 188.864 10.7273 189.124 11.09C189.396 11.4413 189.532 11.8947 189.532 12.45C189.532 12.926 189.413 13.3737 189.175 13.793C188.949 14.201 188.569 14.5353 188.036 14.796C187.504 15.0453 186.79 15.17 185.894 15.17ZM192.801 9.152C192.099 9.152 191.6 9.00467 191.305 8.71C191.011 8.404 190.863 8.064 190.863 7.69C190.863 7.30467 190.954 6.976 191.135 6.704L192.41 6.908C192.388 6.96467 192.359 7.044 192.325 7.146C192.303 7.248 192.291 7.35 192.291 7.452C192.291 7.59933 192.331 7.724 192.41 7.826C192.49 7.91667 192.637 7.962 192.852 7.962H195.283V9.152H192.801ZM192.801 13.912C192.099 13.912 191.6 13.7647 191.305 13.47C191.011 13.164 190.863 12.824 190.863 12.45C190.863 12.0647 190.954 11.736 191.135 11.464L192.41 11.668C192.388 11.7247 192.359 11.804 192.325 11.906C192.303 12.008 192.291 12.11 192.291 12.212C192.291 12.3593 192.331 12.484 192.41 12.586C192.49 12.6767 192.637 12.722 192.852 12.722H195.283V13.912H192.801ZM199.429 15.17C199.123 15.17 198.829 15.119 198.545 15.017C198.262 14.915 198.03 14.7337 197.848 14.473C197.667 14.2123 197.576 13.8497 197.576 13.385V5.684H199.089V13.198C199.089 13.4587 199.14 13.6457 199.242 13.759C199.356 13.8723 199.543 13.929 199.803 13.929C199.905 13.929 200.013 13.9177 200.126 13.895C200.24 13.8723 200.347 13.844 200.449 13.81L200.653 14.915C200.438 15.017 200.228 15.085 200.024 15.119C199.82 15.153 199.622 15.17 199.429 15.17ZM202.386 15V5.684H203.44L203.712 7.163H203.78C203.973 6.653 204.324 6.25067 204.834 5.956C205.344 5.66133 205.962 5.514 206.687 5.514C207.696 5.514 208.489 5.77467 209.067 6.296C209.645 6.81733 209.934 7.64467 209.934 8.778V15H208.421V8.863C208.421 7.48033 207.747 6.789 206.398 6.789C205.865 6.789 205.412 6.91367 205.038 7.163C204.664 7.41233 204.381 7.75233 204.188 8.183C203.995 8.60233 203.899 9.07833 203.899 9.611V15H202.386ZM212.694 15V9.05C212.694 7.91667 212.995 7.044 213.595 6.432C214.207 5.82 215.188 5.514 216.536 5.514C217.024 5.514 217.454 5.55933 217.828 5.65C218.214 5.72933 218.542 5.871 218.814 6.075C219.03 5.99567 219.217 5.87667 219.375 5.718C219.534 5.548 219.613 5.33267 219.613 5.072H221.092C221.092 5.52533 220.962 5.905 220.701 6.211C220.441 6.50567 220.112 6.72667 219.715 6.874C219.953 7.112 220.123 7.418 220.225 7.792C220.327 8.166 220.378 8.58533 220.378 9.05V15H218.865V9.05C218.865 7.53133 218.089 6.772 216.536 6.772C214.984 6.772 214.207 7.53133 214.207 9.05V10.937L214.258 10.954C214.519 10.512 214.825 10.223 215.176 10.087C215.539 9.93967 216.049 9.866 216.706 9.866H217.267V11.107H216.706C216.015 11.107 215.488 11.2033 215.125 11.396C214.774 11.5887 214.53 11.8437 214.394 12.161C214.27 12.467 214.207 12.8127 214.207 13.198V15H212.694ZM225.715 15.17C225.409 15.17 225.115 15.119 224.831 15.017C224.548 14.915 224.316 14.7337 224.134 14.473C223.953 14.2123 223.862 13.8497 223.862 13.385V4.341C223.862 3.70633 223.947 3.236 224.117 2.93C224.299 2.624 224.508 2.386 224.746 2.216L224.729 2.148H221.771L222.162 0.957999H226.956V2.148C226.526 2.148 226.152 2.284 225.834 2.556C225.528 2.828 225.375 3.32667 225.375 4.052V13.198C225.375 13.4587 225.426 13.6457 225.528 13.759C225.642 13.8723 225.829 13.929 226.089 13.929C226.191 13.929 226.299 13.9177 226.412 13.895C226.526 13.8723 226.633 13.844 226.735 13.81L226.939 14.915C226.724 15.017 226.514 15.085 226.31 15.119C226.106 15.153 225.908 15.17 225.715 15.17ZM228.583 15V5.684H229.637L229.909 7.163H229.977C230.17 6.653 230.521 6.25067 231.031 5.956C231.541 5.66133 232.159 5.514 232.884 5.514C233.893 5.514 234.686 5.77467 235.264 6.296C235.842 6.81733 236.131 7.64467 236.131 8.778V15H234.618V8.863C234.618 7.48033 233.944 6.789 232.595 6.789C232.063 6.789 231.609 6.91367 231.235 7.163C230.861 7.41233 230.578 7.75233 230.385 8.183C230.193 8.60233 230.096 9.07833 230.096 9.611V15H228.583ZM242.479 15.153C241.096 15.153 240.121 14.8923 239.555 14.371C238.999 13.8497 238.722 13.147 238.722 12.263C238.722 11.7417 238.795 11.328 238.943 11.022C239.101 10.7047 239.294 10.4723 239.521 10.325C239.759 10.1777 240.002 10.0813 240.252 10.036V9.968C240.014 9.9 239.77 9.78667 239.521 9.628C239.283 9.46933 239.079 9.24833 238.909 8.965C238.75 8.68167 238.671 8.32467 238.671 7.894C238.671 7.50867 238.761 7.14033 238.943 6.789C239.124 6.42633 239.419 6.13167 239.827 5.905C240.235 5.67833 240.773 5.565 241.442 5.565C241.714 5.565 241.997 5.58767 242.292 5.633C242.586 5.667 242.813 5.72933 242.972 5.82L242.7 6.993C242.575 6.94767 242.411 6.908 242.207 6.874C242.014 6.82867 241.81 6.806 241.595 6.806C241.119 6.806 240.767 6.91933 240.541 7.146C240.314 7.36133 240.201 7.65033 240.201 8.013C240.201 8.40967 240.297 8.71 240.49 8.914C240.694 9.118 240.949 9.25967 241.255 9.339C241.572 9.407 241.901 9.441 242.241 9.441H242.564V10.546H242.241C241.561 10.546 241.056 10.6707 240.728 10.92C240.41 11.1693 240.252 11.5717 240.252 12.127C240.252 12.4557 240.314 12.756 240.439 13.028C240.575 13.3 240.801 13.5153 241.119 13.674C241.447 13.8327 241.901 13.912 242.479 13.912C243.34 13.912 243.929 13.7363 244.247 13.385C244.564 13.0337 244.723 12.5407 244.723 11.906V5.684H246.236V11.804C246.236 12.994 245.93 13.8497 245.318 14.371C244.717 14.8923 243.771 15.153 242.479 15.153ZM252.028 10.342C252.028 11.7133 251.824 13.0337 251.416 14.303C251.02 15.561 250.391 16.6887 249.529 17.686H248.135C248.917 16.6207 249.507 15.459 249.903 14.201C250.311 12.9317 250.515 11.6397 250.515 10.325C250.515 8.97633 250.311 7.66167 249.903 6.381C249.507 5.10033 248.912 3.92733 248.118 2.862H249.529C250.391 3.89333 251.02 5.055 251.416 6.347C251.824 7.62767 252.028 8.95933 252.028 10.342ZM259.62 15V10.852H258.328V9.662H261.065V13.776H261.286C262.045 13.776 262.618 13.5153 263.003 12.994C263.388 12.4613 263.581 11.566 263.581 10.308C263.581 9.05 263.366 8.149 262.935 7.605C262.504 7.04967 261.768 6.772 260.725 6.772C260.192 6.772 259.677 6.84567 259.178 6.993C258.691 7.129 258.22 7.34433 257.767 7.639V6.228C258.107 6.024 258.555 5.854 259.11 5.718C259.665 5.582 260.266 5.514 260.912 5.514C261.943 5.514 262.765 5.70667 263.377 6.092C264 6.466 264.448 7.01 264.72 7.724C264.992 8.438 265.128 9.305 265.128 10.325C265.128 11.311 264.992 12.1553 264.72 12.858C264.459 13.5493 264.029 14.082 263.428 14.456C262.839 14.8187 262.045 15 261.048 15H259.62ZM263.598 4.613C263.032 4.613 262.584 4.48267 262.255 4.222C261.927 3.95 261.762 3.57033 261.762 3.083C261.762 2.59567 261.927 2.22167 262.255 1.961C262.584 1.689 263.032 1.553 263.598 1.553C264.165 1.553 264.618 1.689 264.958 1.961C265.298 2.22167 265.468 2.59567 265.468 3.083C265.468 3.57033 265.298 3.95 264.958 4.222C264.618 4.48267 264.165 4.613 263.598 4.613ZM263.598 3.814C263.87 3.814 264.08 3.746 264.227 3.61C264.363 3.474 264.431 3.29833 264.431 3.083C264.431 2.86767 264.363 2.692 264.227 2.556C264.08 2.42 263.87 2.352 263.598 2.352C263.338 2.352 263.139 2.42 263.003 2.556C262.856 2.692 262.782 2.86767 262.782 3.083C262.782 3.29833 262.856 3.474 263.003 3.61C263.139 3.746 263.338 3.814 263.598 3.814ZM270.181 15V8.387C270.181 7.83167 270.051 7.42367 269.79 7.163C269.541 6.90233 269.116 6.772 268.515 6.772C268.107 6.772 267.722 6.82867 267.359 6.942C267.008 7.05533 266.668 7.20267 266.339 7.384V6.024C266.566 5.91067 266.889 5.79733 267.308 5.684C267.727 5.57067 268.226 5.514 268.804 5.514C269.688 5.514 270.391 5.71233 270.912 6.109C271.433 6.50567 271.694 7.19133 271.694 8.166V15H270.181ZM274.367 15V11.77C274.367 11.056 274.526 10.5403 274.843 10.223C275.161 9.89433 275.563 9.66767 276.05 9.543L276.067 9.492L274.197 8.778V8.217C274.197 7.75233 274.35 7.316 274.656 6.908C274.962 6.48867 275.399 6.15433 275.965 5.905C276.532 5.64433 277.218 5.514 278.022 5.514C278.714 5.514 279.354 5.62733 279.943 5.854C280.533 6.06933 281.003 6.415 281.354 6.891C281.717 7.35567 281.898 7.96767 281.898 8.727V15H280.385V8.88C280.385 8.12067 280.153 7.58233 279.688 7.265C279.224 6.93633 278.663 6.772 278.005 6.772C277.303 6.772 276.747 6.91933 276.339 7.214C275.943 7.49733 275.744 7.86 275.744 8.302L277.58 9.22L277.444 10.036C277.025 10.036 276.657 10.1777 276.339 10.461C276.033 10.733 275.88 11.1693 275.88 11.77V15H274.367ZM279.563 4.205C278.849 4.205 278.345 4.06333 278.05 3.78C277.756 3.48533 277.608 3.15667 277.608 2.794C277.608 2.624 277.637 2.44267 277.693 2.25C277.739 2.046 277.801 1.88167 277.88 1.757L279.155 1.978C279.087 2.114 279.053 2.28967 279.053 2.505C279.053 2.65233 279.099 2.78267 279.189 2.896C279.28 2.998 279.433 3.049 279.648 3.049H283.949V4.205H279.563ZM287.825 15.17C286.918 15.17 286.204 14.9603 285.683 14.541C285.173 14.1103 284.81 13.538 284.595 12.824C284.391 12.0987 284.289 11.294 284.289 10.41C284.289 9.12933 284.464 8.13767 284.816 7.435C285.167 6.721 285.654 6.22233 286.278 5.939C286.901 5.65567 287.632 5.514 288.471 5.514C289.831 5.514 290.817 5.80867 291.429 6.398C292.052 6.98733 292.364 7.78633 292.364 8.795V15H290.868V8.931C290.868 8.23967 290.692 7.707 290.341 7.333C289.989 6.959 289.383 6.772 288.522 6.772C287.989 6.772 287.519 6.86833 287.111 7.061C286.703 7.25367 286.38 7.61067 286.142 8.132C285.915 8.65333 285.802 9.41833 285.802 10.427C285.802 11.0843 285.864 11.6793 285.989 12.212C286.125 12.7333 286.357 13.147 286.686 13.453C287.014 13.759 287.473 13.912 288.063 13.912C288.233 13.912 288.391 13.9007 288.539 13.878C288.686 13.8553 288.828 13.8213 288.964 13.776L289.117 14.949C288.935 15.0283 288.726 15.085 288.488 15.119C288.261 15.153 288.04 15.17 287.825 15.17Z" fill="#262E3F"/>
</svg>
